<svg xmlns="http://www.w3.org/2000/svg" width="710" height="477" viewBox="0 0 710 477" fill="none"><path d="M684.866 301.999C684.866 363.779 634.873 413.864 573.205 413.864C425.092 407.97 425.136 196.009 573.205 190.137C634.87 190.137 684.863 240.219 684.863 301.999H684.866Z" stroke="#9FC0FF" stroke-width="2.5" stroke-miterlimit="10" stroke-dasharray="8 8"></path><circle cx="371" cy="231" r="231" fill="#F5F8FF"></circle><g filter="url(#filter0_dd_17832_41164)"><g clip-path="url(#clip0_17832_41164)"><path d="M582.534 120.271H150.466C148.552 120.271 147 121.873 147 123.851V391.537C147 393.514 148.552 395.117 150.466 395.117H582.534C584.448 395.117 586 393.514 586 391.537V123.851C586 121.873 584.448 120.271 582.534 120.271Z" fill="white"></path><path d="M586 105.393H147V120.27H586V105.393Z" fill="#000C36"></path><path d="M162.652 113.217C162.653 113.682 162.517 114.137 162.259 114.524C162.002 114.911 161.636 115.213 161.207 115.392C160.778 115.57 160.306 115.618 159.85 115.528C159.394 115.438 158.976 115.215 158.647 114.886C158.318 114.558 158.094 114.139 158.003 113.684C157.912 113.228 157.958 112.755 158.135 112.326C158.313 111.896 158.614 111.529 159 111.27C159.386 111.012 159.84 110.874 160.305 110.874C160.925 110.878 161.519 111.127 161.958 111.565C162.397 112.003 162.646 112.597 162.652 113.217Z" fill="#F66058"></path><path d="M173.609 113.218C173.61 113.683 173.473 114.138 173.216 114.525C172.958 114.912 172.592 115.214 172.163 115.392C171.733 115.571 171.261 115.618 170.805 115.527C170.349 115.437 169.93 115.213 169.602 114.884C169.273 114.555 169.049 114.136 168.959 113.68C168.868 113.224 168.915 112.751 169.094 112.322C169.272 111.892 169.574 111.525 169.961 111.268C170.348 111.01 170.803 110.873 171.267 110.874C171.575 110.873 171.88 110.932 172.165 111.049C172.45 111.167 172.709 111.339 172.927 111.557C173.144 111.775 173.317 112.034 173.434 112.319C173.551 112.604 173.611 112.909 173.609 113.218Z" fill="#F9BD2E"></path><path d="M184.562 113.217C184.563 113.682 184.427 114.137 184.169 114.524C183.912 114.911 183.546 115.213 183.117 115.392C182.688 115.57 182.216 115.618 181.76 115.528C181.305 115.438 180.886 115.215 180.557 114.886C180.228 114.558 180.004 114.139 179.913 113.684C179.822 113.228 179.868 112.755 180.045 112.326C180.223 111.896 180.524 111.529 180.91 111.27C181.296 111.012 181.75 110.874 182.215 110.874C182.835 110.878 183.429 111.127 183.868 111.565C184.307 112.003 184.556 112.597 184.562 113.217Z" fill="#3CC840"></path><path d="M586 120.271H147V139.846H586V120.271Z" fill="#EDF1F6"></path><path d="M560.178 126.969C560.178 125.864 559.282 124.969 558.178 124.969H198.301C197.196 124.969 196.301 125.864 196.301 126.969V133.931C196.301 135.036 197.196 135.931 198.301 135.931H558.178C559.282 135.931 560.178 135.036 560.178 133.931V126.969Z" fill="white"></path><rect x="177.52" y="124.968" width="10.9554" height="10.9625" rx="2" fill="white"></rect><path fill-rule="evenodd" clip-rule="evenodd" d="M181.6 128.253C181.824 128.048 182.187 128.049 182.411 128.254L184.395 130.081C184.618 130.286 184.617 130.619 184.394 130.824L182.41 132.644C182.186 132.849 181.823 132.849 181.599 132.644C181.376 132.439 181.376 132.106 181.599 131.901L183.179 130.451L181.599 128.996C181.375 128.791 181.376 128.458 181.6 128.253Z" fill="#B8C4D0"></path><rect x="173.607" y="135.931" width="10.9554" height="10.9625" rx="2" transform="rotate(-180 173.607 135.931)" fill="white"></rect><path fill-rule="evenodd" clip-rule="evenodd" d="M169.527 132.646C169.303 132.85 168.94 132.85 168.716 132.644L166.732 130.817C166.509 130.612 166.51 130.28 166.733 130.075L168.717 128.255C168.941 128.049 169.304 128.049 169.527 128.255C169.751 128.46 169.751 128.793 169.527 128.998L167.948 130.447L169.528 131.902C169.752 132.108 169.751 132.441 169.527 132.646Z" fill="#B8C4D0"></path><path d="M574.163 127.532C573.986 127.532 573.813 127.48 573.667 127.382C573.52 127.284 573.406 127.144 573.339 126.981C573.271 126.818 573.254 126.638 573.289 126.465C573.324 126.292 573.41 126.134 573.536 126.01C573.661 125.886 573.821 125.801 573.994 125.768C574.167 125.735 574.347 125.753 574.51 125.822C574.672 125.891 574.811 126.006 574.908 126.154C575.005 126.301 575.056 126.474 575.054 126.65C575.052 126.885 574.957 127.109 574.79 127.275C574.623 127.44 574.398 127.532 574.163 127.532Z" fill="#9BACBC"></path><path d="M574.163 131.309C573.986 131.309 573.813 131.256 573.667 131.158C573.52 131.06 573.406 130.92 573.339 130.757C573.271 130.594 573.254 130.415 573.289 130.242C573.324 130.069 573.41 129.91 573.536 129.786C573.661 129.662 573.821 129.578 573.994 129.544C574.167 129.511 574.347 129.53 574.51 129.599C574.672 129.667 574.811 129.783 574.908 129.93C575.005 130.078 575.056 130.25 575.054 130.427C575.052 130.662 574.957 130.886 574.79 131.051C574.623 131.216 574.398 131.309 574.163 131.309Z" fill="#9BACBC"></path><path d="M574.163 135.111C573.986 135.111 573.814 135.059 573.668 134.961C573.521 134.864 573.407 134.725 573.339 134.562C573.272 134.399 573.254 134.22 573.289 134.048C573.323 133.875 573.408 133.716 573.533 133.592C573.657 133.467 573.816 133.383 573.989 133.348C574.162 133.314 574.341 133.331 574.504 133.399C574.667 133.466 574.806 133.58 574.904 133.727C575.002 133.873 575.054 134.045 575.054 134.221C575.054 134.457 574.96 134.684 574.793 134.851C574.626 135.018 574.399 135.111 574.163 135.111Z" fill="#9BACBC"></path><rect x="308" y="155" width="110" height="106" rx="3" fill="#76A5FF"></rect><rect x="192" y="270" width="226" height="74" rx="3" fill="#E7EEFF"></rect><rect x="192" y="155" width="110" height="106.103" rx="3" fill="#A5A6F6"></rect></g></g><g filter="url(#filter1_d_17832_41164)"><rect x="80" y="162" width="258" height="148" rx="8" fill="white"></rect></g><g clip-path="url(#clip1_17832_41164)"><path d="M199.78 205.77C194.785 198.446 188.058 192.466 180.195 188.361C180.445 191.499 179.95 194.652 178.751 197.563C177.551 200.474 175.682 203.061 173.293 205.115C179.439 208.692 184.386 214.009 187.509 220.392C190.632 226.776 191.792 233.941 190.842 240.983C191.843 240.528 192.898 240.203 193.982 240.018L196.105 239.914C196.933 238.725 197.744 237.501 198.503 236.26C198.989 235.179 199.567 234.141 200.229 233.158C200.436 232.727 200.643 232.313 200.833 231.9C202.455 228.452 205.612 231.038 208.563 229.642C207.165 217.421 203.8 211.63 199.78 205.77Z" fill="#7879F1"></path><path d="M148.497 283.16H148.963C148.738 282.057 148.497 280.971 148.186 279.868C148.065 279.403 147.91 278.937 147.789 278.472V278.351L146.547 274.422C146.202 273.307 146.074 272.137 146.167 270.974C139.354 269.19 133.22 265.436 128.532 260.185C125.424 263.442 121.91 266.286 118.076 268.647C116.766 269.504 115.351 270.188 113.865 270.681C120.405 278.575 131.88 284.884 141.077 287.917C143.717 285.315 144.597 283.16 148.497 283.16Z" fill="#C6DBFF"></path><path d="M130.361 262.115C128.59 260.416 127 258.539 125.616 256.513C120.786 249.467 118.626 240.932 119.525 232.44C120.424 223.948 124.323 216.053 130.522 210.172C136.721 204.291 144.815 200.809 153.352 200.35C161.889 199.89 170.311 202.484 177.106 207.666L185.061 191.274C166.08 178.968 145.753 179.209 124.788 191.757C112.988 199.837 104.883 212.266 102.256 226.313C99.6285 240.36 102.693 254.875 110.776 266.665C112.155 268.68 113.672 270.598 115.315 272.405L130.361 262.115Z" fill="#3D7FFC"></path><path d="M208.701 229.625L190.48 229.332C191.608 235.321 191.192 241.497 189.272 247.281C187.352 253.065 183.99 258.266 179.503 262.395C175.016 266.523 169.552 269.444 163.624 270.881C157.695 272.319 151.498 272.226 145.616 270.612L140.939 287.952C153.588 290.916 162.112 290.606 171.999 287.073C178.475 284.75 184.482 281.288 189.738 276.852C204.353 264.511 210.807 248.688 208.701 229.625Z" fill="#76A5FF"></path><circle cx="155.5" cy="236.358" r="30.5" fill="#E7EEFF"></circle></g><rect x="233.07" y="185.909" width="75.8189" height="20.3386" rx="3.5" stroke="#E7EEFF"></rect><rect x="233.07" y="212.583" width="75.8189" height="20.3386" rx="3.5" stroke="#E7EEFF"></rect><rect x="233.07" y="238.189" width="75.8189" height="20.3386" rx="3.5" stroke="#E7EEFF"></rect><rect x="233.07" y="264.862" width="75.8189" height="20.3386" rx="3.5" stroke="#E7EEFF"></rect><rect x="239.658" y="191.61" width="9.7458" height="8.85981" rx="3" fill="#7879F1"></rect><rect x="252.045" y="191.251" width="21.4214" height="2.92111" rx="1.46055" fill="#E7EEFF"></rect><rect x="252.045" y="197.093" width="47.7114" height="2.92111" rx="1.46055" fill="#E7EEFF"></rect><rect x="239.658" y="217.901" width="9.7458" height="8.85981" rx="3" fill="#3D7FFC"></rect><rect x="252.045" y="217.542" width="21.4214" height="2.92111" rx="1.46055" fill="#E7EEFF"></rect><rect x="252.045" y="223.384" width="47.7114" height="2.92111" rx="1.46055" fill="#E7EEFF"></rect><rect x="239.658" y="244.19" width="9.7458" height="8.85981" rx="3" fill="#76A5FF"></rect><rect x="252.045" y="243.831" width="21.4214" height="2.92111" rx="1.46055" fill="#E7EEFF"></rect><rect x="252.045" y="249.673" width="47.7114" height="2.92111" rx="1.46055" fill="#E7EEFF"></rect><rect x="239.658" y="270.481" width="9.7458" height="8.85981" rx="3" fill="#C6DBFF"></rect><rect x="252.045" y="270.122" width="21.4214" height="2.92111" rx="1.46055" fill="#E7EEFF"></rect><rect x="252.045" y="275.964" width="47.7114" height="2.92111" rx="1.46055" fill="#E7EEFF"></rect><rect x="434" y="156" width="169" height="290" rx="3" fill="#3D7FFC"></rect><path d="M488.012 245.447H480.719L475.006 256.633L469.293 245.447H462L471.724 262.164V273.512H478.288V262.164L488.012 245.447Z" fill="white"></path><path d="M517.434 259.52C517.434 250.45 510.91 245 502.604 245C494.298 245 487.775 250.45 487.775 259.52C487.775 268.59 494.298 274 502.604 274C510.91 274 517.434 268.59 517.434 259.52ZM510.789 259.358C510.789 264.727 507.264 268.143 502.604 268.143C497.945 268.143 494.42 264.727 494.42 259.358C494.42 253.989 497.945 250.613 502.604 250.613C507.264 250.613 510.789 254.029 510.789 259.358Z" fill="white"></path><path d="M545.151 261.798V245.447H538.547V261.798C538.547 263.791 538.385 265.337 537.453 266.475C536.561 267.533 535.265 268.224 533.442 268.224C531.618 268.224 530.322 267.533 529.43 266.475C528.498 265.337 528.336 263.791 528.336 261.798V245.447H521.732V261.798C521.732 265.743 522.421 268.468 524.366 270.624C526.351 272.739 529.349 273.959 533.442 273.959C537.493 273.959 540.532 272.739 542.477 270.624C544.462 268.468 545.151 265.743 545.151 261.798Z" fill="white"></path><path d="M573 273.512L565.909 261.92C567.976 261.269 571.379 259.195 571.379 253.867C571.379 251.06 570.164 248.823 568.3 247.44C566.477 246.098 564.046 245.447 560.926 245.447H550.878V273.512H557.441V262.774H559.508L565.383 273.512H573ZM564.775 254.111C564.775 255.575 564.208 256.348 563.357 256.958C562.547 257.568 561.493 257.731 559.994 257.731H557.401V250.532H559.994C561.493 250.532 562.547 250.654 563.357 251.264C564.208 251.874 564.775 252.687 564.775 254.111Z" fill="white"></path><path d="M517.39 350L496.08 294H482.31L461 350H474.77L478.786 338.735H498.948L502.965 350H517.39ZM495.916 328.524H481.818L488.867 308.425L495.916 328.524Z" fill="white"></path><path d="M574 322.041C574 311.181 569.574 304.698 564.82 300.808C560.148 296.836 552.854 294.081 543.018 294.081H523.839V350H543.018C552.854 350 560.148 347.245 564.82 343.355C569.574 339.384 574 332.9 574 322.041ZM560.558 322.041C560.558 328.929 557.935 332.657 555.559 334.845C553.182 337.114 549.247 338.897 543.756 338.897H537.035V304.941H543.756C549.247 304.941 553.182 306.724 555.559 308.912C557.935 311.181 560.558 315.152 560.558 322.041Z" fill="white"></path><path d="M577.876 407.894C579.306 407.894 580.454 406.745 580.454 405.315V379.013C580.454 377.583 579.306 376.435 577.876 376.435C576.446 376.435 575.297 377.583 575.297 379.013V405.315C575.297 406.734 576.446 407.894 577.876 407.894Z" fill="white"></path><path d="M561.124 424.668C561.124 423.239 559.975 422.09 558.545 422.09H532.243C530.813 422.09 529.664 423.239 529.664 424.668C529.664 426.098 530.813 427.247 532.243 427.247H558.545C559.963 427.247 561.124 426.087 561.124 424.668Z" fill="white"></path><path d="M591.272 413.565C591.928 413.565 592.596 413.319 593.101 412.815L611.702 394.214C612.71 393.206 612.71 391.577 611.702 390.569C610.694 389.56 609.065 389.56 608.057 390.569L589.455 409.17C588.447 410.178 588.447 411.807 589.455 412.815C589.948 413.319 590.616 413.565 591.272 413.565Z" fill="white"></path><path d="M547.444 390.569C546.436 389.56 544.807 389.56 543.799 390.569C542.791 391.577 542.791 393.206 543.799 394.214L562.4 412.815C562.904 413.319 563.561 413.565 564.229 413.565C564.885 413.565 565.553 413.319 566.057 412.815C567.065 411.807 567.065 410.178 566.057 409.17L547.444 390.569Z" fill="white"></path><path d="M562.4 436.123L543.799 454.712C542.791 455.72 542.791 457.35 543.799 458.358C544.303 458.862 544.959 459.108 545.627 459.108C546.284 459.108 546.952 458.862 547.456 458.358L566.057 439.756C567.065 438.748 567.065 437.119 566.057 436.111C565.038 435.115 563.408 435.115 562.4 436.123Z" fill="white"></path><path d="M631.494 459.689L631.491 459.686L630.532 458.849L630.505 458.826L630.479 458.805C630.479 458.805 630.479 458.805 630.478 458.805C630.477 458.803 630.47 458.797 630.448 458.778C630.428 458.76 630.386 458.723 630.335 458.681L617.629 447.562L627.434 441.889L627.487 441.859L627.537 441.824L627.663 441.736L627.687 441.72L627.71 441.702C629.52 440.341 630.405 438.114 630 435.887C629.594 433.663 627.988 431.899 625.852 431.238L625.829 431.231L625.807 431.225L579.202 418.396L579.193 418.391L579.072 418.355C576.806 417.673 574.413 418.361 572.843 420.115L572.843 420.115L572.838 420.121C571.283 421.876 570.887 424.319 571.839 426.471L590.513 470.842L590.521 470.86L590.529 470.878C591.454 472.927 593.428 474.278 595.691 474.394C597.946 474.51 600.067 473.382 601.212 471.432L601.222 471.414L601.232 471.396L601.307 471.259L601.342 471.196L601.37 471.13L605.851 460.765L619.728 472.925L619.729 472.926C621.293 474.294 623.206 475.014 625.138 475.119L625.142 475.119C627.743 475.254 630.398 474.25 632.266 472.159L632.307 472.114L632.316 472.101L632.329 472.088L632.375 472.043L632.416 471.994C633.801 470.366 634.486 468.374 634.501 466.387L634.501 466.384C634.517 463.905 633.498 461.448 631.494 459.689Z" fill="#091B36" stroke="white" stroke-width="3"></path><circle cx="670.681" cy="350.681" r="34.1811" fill="#0BE597" stroke="white" stroke-width="3"></circle><path d="M672.385 357.3C673.258 357.299 674.095 357.013 674.713 356.504C675.33 355.995 675.677 355.306 675.678 354.586V338.164C675.666 337.811 675.487 337.476 675.18 337.229C674.872 336.983 674.46 336.846 674.032 336.846C673.603 336.846 673.191 336.983 672.884 337.229C672.576 337.476 672.397 337.811 672.385 338.164V354.586H653.445C653.225 354.581 653.006 354.612 652.8 354.678C652.595 354.744 652.408 354.843 652.25 354.969C652.091 355.096 651.966 355.247 651.88 355.415C651.794 355.582 651.75 355.761 651.75 355.943C651.75 356.125 651.794 356.304 651.88 356.472C651.966 356.639 652.091 356.79 652.25 356.917C652.408 357.043 652.595 357.142 652.8 357.208C653.006 357.274 653.225 357.305 653.445 357.3H672.385Z" fill="white"></path><circle cx="670.682" cy="350.681" r="28.8556" stroke="white" stroke-width="2"></circle><g opacity="0.4"><circle cx="652.681" cy="236.681" r="34.1811" fill="#FECE4D" stroke="white" stroke-width="3"></circle><path d="M652.227 247.368C650.143 247.368 648.323 247.097 646.767 246.554C645.206 246.01 643.908 245.248 642.858 244.277C641.81 243.307 640.992 242.114 640.466 240.786C639.921 239.437 639.62 237.951 639.574 236.337H644.854C644.946 237.373 645.195 238.273 645.615 239.035C646.004 239.772 646.545 240.418 647.201 240.931C647.855 241.438 648.601 241.813 649.398 242.034C650.257 242.277 651.145 242.398 652.038 242.395C652.852 242.403 653.665 242.31 654.457 242.119C655.187 241.942 655.814 241.693 656.332 241.364C656.822 241.065 657.233 240.653 657.532 240.163C657.814 239.68 657.959 239.129 657.951 238.569C657.951 237.965 657.814 237.453 657.538 237.027C657.262 236.601 656.817 236.226 656.208 235.891C655.598 235.556 654.784 235.255 653.788 234.979C652.793 234.704 651.559 234.421 650.097 234.126C648.431 233.751 646.998 233.318 645.796 232.827C644.594 232.335 643.604 231.751 642.826 231.075C642.081 230.443 641.493 229.647 641.108 228.749C640.734 227.87 640.55 226.86 640.55 225.718C640.55 224.49 640.806 223.359 641.318 222.325C641.838 221.283 642.584 220.37 643.501 219.654C644.438 218.906 645.566 218.322 646.871 217.896C648.176 217.47 649.631 217.259 651.231 217.259C652.897 217.259 654.418 217.486 655.795 217.941C657.171 218.401 658.358 219.05 659.354 219.903C660.359 220.764 661.162 221.835 661.708 223.04C662.279 224.274 662.581 225.678 662.619 227.24H657.396C657.015 223.92 655.011 222.259 651.385 222.259C649.622 222.259 648.271 222.561 647.333 223.152C646.396 223.742 645.929 224.569 645.929 225.606C645.921 225.996 646.028 226.38 646.238 226.709C646.441 227.024 646.769 227.312 647.221 227.575C647.667 227.837 648.244 228.081 648.945 228.297C649.646 228.512 650.506 228.723 651.502 228.933C652.375 229.111 653.266 229.307 654.184 229.531C655.093 229.746 655.99 230.009 656.872 230.318C657.73 230.618 658.559 230.994 659.35 231.442C660.109 231.872 660.799 232.414 661.396 233.05C661.996 233.694 662.468 234.447 662.786 235.268C663.126 236.121 663.297 237.118 663.297 238.26C663.297 239.606 663.022 240.835 662.471 241.948C661.922 243.061 661.139 244.041 660.177 244.823C659.192 245.623 658.023 246.248 656.668 246.7C655.313 247.151 653.833 247.374 652.227 247.368Z" fill="white"></path><path fill-rule="evenodd" clip-rule="evenodd" d="M649.389 214.108H653.477C653.612 214.109 653.742 214.163 653.838 214.259C653.934 214.355 653.988 214.485 653.988 214.621V220.498H648.877V214.621C648.877 214.485 648.931 214.355 649.027 214.259C649.123 214.163 649.253 214.109 649.389 214.108ZM653.991 244.597V250.006C653.99 250.141 653.936 250.271 653.84 250.367C653.745 250.463 653.615 250.517 653.479 250.518H649.389C649.253 250.517 649.123 250.463 649.027 250.367C648.931 250.271 648.877 250.141 648.877 250.006V244.597H653.991Z" fill="white"></path></g><g opacity="0.7"><circle cx="659.783" cy="240.233" r="34.1811" fill="#FECE4D" stroke="white" stroke-width="3"></circle><path d="M660.806 250.459C658.721 250.459 656.901 250.188 655.345 249.645C653.784 249.101 652.486 248.339 651.437 247.367C650.388 246.398 649.57 245.205 649.044 243.877C648.499 242.527 648.198 241.041 648.152 239.427H653.432C653.524 240.464 653.773 241.364 654.193 242.126C654.582 242.863 655.123 243.509 655.78 244.022C656.433 244.529 657.179 244.904 657.976 245.125C658.835 245.368 659.723 245.489 660.616 245.486C661.43 245.494 662.243 245.401 663.035 245.21C663.765 245.033 664.392 244.783 664.91 244.455C665.4 244.156 665.811 243.744 666.11 243.254C666.392 242.771 666.537 242.22 666.529 241.66C666.529 241.056 666.392 240.544 666.116 240.118C665.841 239.692 665.395 239.317 664.786 238.982C664.176 238.647 663.362 238.346 662.367 238.07C661.371 237.795 660.137 237.512 658.675 237.217C657.009 236.842 655.576 236.409 654.374 235.918C653.173 235.426 652.182 234.842 651.404 234.166C650.659 233.534 650.072 232.738 649.686 231.84C649.312 230.961 649.129 229.95 649.129 228.809C649.129 227.581 649.384 226.45 649.896 225.416C650.416 224.374 651.162 223.461 652.079 222.745C653.017 221.997 654.144 221.413 655.449 220.987C656.754 220.56 658.209 220.35 659.809 220.35C661.475 220.35 662.996 220.577 664.373 221.032C665.75 221.491 666.936 222.141 667.932 222.994C668.937 223.855 669.74 224.926 670.286 226.131C670.857 227.365 671.159 228.769 671.197 230.331H665.974C665.593 227.011 663.59 225.35 659.964 225.35C658.2 225.35 656.849 225.652 655.912 226.243C654.974 226.833 654.507 227.66 654.507 228.697C654.499 229.087 654.606 229.471 654.816 229.8C655.019 230.114 655.347 230.403 655.799 230.666C656.245 230.928 656.822 231.172 657.523 231.387C658.224 231.603 659.084 231.814 660.08 232.024C660.953 232.201 661.844 232.398 662.762 232.621C663.671 232.837 664.568 233.1 665.45 233.408C666.308 233.709 667.137 234.085 667.928 234.533C668.687 234.962 669.377 235.505 669.974 236.141C670.574 236.785 671.046 237.538 671.364 238.359C671.704 239.212 671.875 240.209 671.875 241.351C671.875 242.696 671.6 243.926 671.049 245.039C670.5 246.152 669.717 247.132 668.755 247.914C667.771 248.714 666.601 249.339 665.246 249.79C663.892 250.242 662.411 250.465 660.806 250.459Z" fill="white"></path><path fill-rule="evenodd" clip-rule="evenodd" d="M657.967 217.199H662.055C662.19 217.2 662.32 217.254 662.416 217.35C662.512 217.446 662.566 217.576 662.566 217.711V223.589H657.455V217.711C657.456 217.576 657.51 217.446 657.605 217.35C657.701 217.254 657.831 217.2 657.967 217.199ZM662.569 247.687V253.096C662.568 253.232 662.514 253.362 662.419 253.458C662.323 253.554 662.193 253.608 662.057 253.609H657.967C657.831 253.608 657.701 253.554 657.605 253.458C657.51 253.362 657.456 253.232 657.455 253.096V247.687H662.569Z" fill="white"></path></g><circle cx="666.357" cy="244.871" r="34.1811" fill="#FECE4D" stroke="white" stroke-width="3"></circle><path fill-rule="evenodd" clip-rule="evenodd" d="M680.196 262.375C680.488 262.084 680.884 261.921 681.296 261.921C681.708 261.921 682.104 262.084 682.396 262.375L695.591 275.583C695.882 275.875 696.045 276.271 696.045 276.683C696.045 277.096 695.882 277.492 695.591 277.784C695.299 278.075 694.904 278.239 694.491 278.239C694.079 278.239 693.684 278.075 693.391 277.784L680.196 264.577C679.905 264.284 679.742 263.889 679.742 263.476C679.742 263.064 679.905 262.668 680.196 262.375Z" fill="#FECE4D"></path><path fill-rule="evenodd" clip-rule="evenodd" d="M687.513 243.24C687.925 243.241 688.32 243.406 688.611 243.697C688.902 243.989 689.067 244.384 689.068 244.797V263.478C689.067 263.89 688.902 264.285 688.611 264.577C688.32 264.869 687.925 265.033 687.513 265.034C687.1 265.033 686.705 264.869 686.414 264.577C686.122 264.286 685.958 263.89 685.957 263.478V244.798C685.958 244.385 686.122 243.989 686.413 243.697C686.705 243.406 687.1 243.241 687.513 243.24Z" fill="#FECE4D"></path><path fill-rule="evenodd" clip-rule="evenodd" d="M701.463 243.24C701.875 243.241 702.27 243.406 702.562 243.697C702.853 243.989 703.017 244.384 703.018 244.797V263.478C703.017 263.89 702.853 264.285 702.562 264.577C702.27 264.869 701.875 265.033 701.463 265.034C701.051 265.033 700.656 264.869 700.365 264.577C700.073 264.285 699.909 263.89 699.908 263.478V244.798C699.909 244.385 700.073 243.99 700.364 243.698C700.656 243.406 701.051 243.241 701.463 243.24Z" fill="#FECE4D"></path><path fill-rule="evenodd" clip-rule="evenodd" d="M708.787 262.375C708.494 262.084 708.099 261.921 707.687 261.921C707.274 261.921 706.879 262.084 706.587 262.375L693.391 275.583C693.101 275.875 692.938 276.271 692.938 276.683C692.938 277.096 693.101 277.492 693.391 277.784C693.684 278.075 694.079 278.239 694.491 278.239C694.904 278.239 695.299 278.075 695.591 277.784L708.787 264.577C709.077 264.284 709.24 263.889 709.24 263.476C709.24 263.064 709.077 262.668 708.787 262.375Z" fill="#FECE4D"></path><path fill-rule="evenodd" clip-rule="evenodd" d="M680.195 262.376C680.413 262.158 680.69 262.01 680.992 261.95C681.293 261.89 681.606 261.921 681.89 262.038C682.174 262.156 682.417 262.356 682.588 262.612C682.759 262.868 682.85 263.169 682.85 263.476C682.85 263.784 682.759 264.085 682.588 264.341C682.417 264.597 682.174 264.797 681.89 264.914C681.606 265.032 681.293 265.063 680.992 265.003C680.69 264.943 680.413 264.795 680.195 264.577C679.904 264.285 679.74 263.889 679.74 263.476C679.74 263.064 679.904 262.668 680.195 262.376Z" fill="#8599AC"></path><path d="M694.489 278.24C695.347 278.24 696.044 277.543 696.044 276.683C696.044 275.824 695.347 275.127 694.489 275.127C693.63 275.127 692.934 275.824 692.934 276.683C692.934 277.543 693.63 278.24 694.489 278.24Z" fill="#FECE4D"></path><path d="M687.512 265.033C688.371 265.033 689.067 264.336 689.067 263.476C689.067 262.617 688.371 261.92 687.512 261.92C686.653 261.92 685.957 262.617 685.957 263.476C685.957 264.336 686.653 265.033 687.512 265.033Z" fill="#8599AC"></path><path d="M687.512 246.353C688.371 246.353 689.067 245.656 689.067 244.797C689.067 243.937 688.371 243.24 687.512 243.24C686.653 243.24 685.957 243.937 685.957 244.797C685.957 245.656 686.653 246.353 687.512 246.353Z" fill="#8599AC"></path><path d="M701.463 246.353C702.322 246.353 703.018 245.656 703.018 244.797C703.018 243.937 702.322 243.24 701.463 243.24C700.604 243.24 699.908 243.937 699.908 244.797C699.908 245.656 700.604 246.353 701.463 246.353Z" fill="#8599AC"></path><path d="M701.463 265.033C702.322 265.033 703.018 264.336 703.018 263.476C703.018 262.617 702.322 261.92 701.463 261.92C700.604 261.92 699.908 262.617 699.908 263.476C699.908 264.336 700.604 265.033 701.463 265.033Z" fill="#8599AC"></path><path d="M707.684 265.033C708.543 265.033 709.239 264.336 709.239 263.476C709.239 262.617 708.543 261.92 707.684 261.92C706.825 261.92 706.129 262.617 706.129 263.476C706.129 264.336 706.825 265.033 707.684 265.033Z" fill="#8599AC"></path><path fill-rule="evenodd" clip-rule="evenodd" d="M681.291 261.92H687.513C687.925 261.921 688.32 262.085 688.611 262.377C688.903 262.669 689.067 263.064 689.068 263.476C689.067 263.889 688.903 264.284 688.611 264.576C688.32 264.868 687.925 265.032 687.513 265.033H681.291C680.879 265.032 680.484 264.868 680.193 264.576C679.902 264.284 679.737 263.889 679.736 263.476C679.737 263.064 679.902 262.669 680.193 262.377C680.484 262.085 680.879 261.921 681.291 261.92Z" fill="#FECE4D"></path><path fill-rule="evenodd" clip-rule="evenodd" d="M701.463 261.92H707.684C708.096 261.921 708.491 262.085 708.783 262.377C709.074 262.668 709.239 263.064 709.24 263.476C709.239 263.889 709.074 264.284 708.783 264.576C708.491 264.868 708.096 265.032 707.684 265.033H701.463C701.051 265.032 700.656 264.868 700.365 264.576C700.073 264.284 699.909 263.889 699.908 263.476C699.909 263.064 700.073 262.669 700.365 262.377C700.656 262.085 701.051 261.921 701.463 261.92Z" fill="#FECE4D"></path><path fill-rule="evenodd" clip-rule="evenodd" d="M687.513 243.24H701.463C701.875 243.241 702.27 243.406 702.562 243.697C702.853 243.989 703.017 244.384 703.018 244.797C703.017 245.209 702.853 245.605 702.562 245.897C702.27 246.188 701.875 246.353 701.463 246.354H687.513C687.1 246.353 686.705 246.189 686.414 245.897C686.122 245.605 685.958 245.209 685.957 244.797C685.958 244.384 686.122 243.989 686.414 243.697C686.705 243.405 687.1 243.241 687.513 243.24Z" fill="#FECE4D"></path><path fill-rule="evenodd" clip-rule="evenodd" d="M694.486 276.683L707.682 263.476H701.461V244.796H687.51V263.476H681.289L694.486 276.683Z" fill="white"></path><path d="M667.36 259.197C665.276 259.197 663.456 258.926 661.899 258.383C660.339 257.839 659.04 257.077 657.991 256.106C656.943 255.136 656.125 253.943 655.598 252.615C655.054 251.266 654.753 249.78 654.707 248.166H659.987C660.078 249.202 660.328 250.102 660.747 250.864C661.137 251.601 661.678 252.247 662.334 252.761C662.988 253.267 663.734 253.642 664.53 253.863C665.389 254.106 666.278 254.227 667.17 254.224C667.985 254.232 668.798 254.139 669.59 253.948C670.32 253.771 670.947 253.522 671.465 253.193C671.954 252.894 672.365 252.482 672.664 251.993C672.947 251.509 673.092 250.958 673.084 250.398C673.084 249.794 672.947 249.282 672.671 248.856C672.395 248.43 671.95 248.055 671.34 247.72C670.731 247.385 669.917 247.084 668.921 246.808C667.925 246.533 666.692 246.25 665.23 245.955C663.564 245.58 662.131 245.147 660.929 244.656C659.727 244.164 658.737 243.581 657.959 242.904C657.214 242.272 656.626 241.476 656.241 240.578C655.867 239.699 655.683 238.689 655.683 237.547C655.683 236.319 655.939 235.188 656.451 234.154C656.971 233.112 657.716 232.199 658.634 231.483C659.571 230.735 660.699 230.151 662.004 229.725C663.309 229.299 664.764 229.088 666.364 229.088C668.029 229.088 669.551 229.315 670.928 229.77C672.304 230.23 673.491 230.879 674.487 231.732C675.491 232.593 676.295 233.664 676.841 234.87C677.412 236.103 677.713 237.507 677.752 239.069H672.528C672.148 235.749 670.144 234.088 666.518 234.088C664.755 234.088 663.404 234.391 662.466 234.981C661.529 235.571 661.062 236.398 661.062 237.435C661.054 237.825 661.161 238.209 661.37 238.538C661.574 238.853 661.901 239.142 662.353 239.404C662.799 239.666 663.377 239.91 664.078 240.126C664.779 240.341 665.639 240.552 666.635 240.763C667.507 240.94 668.399 241.136 669.317 241.36C670.226 241.575 671.123 241.838 672.005 242.147C672.863 242.447 673.692 242.823 674.483 243.271C675.242 243.701 675.932 244.243 676.529 244.879C677.129 245.523 677.601 246.276 677.918 247.097C678.259 247.95 678.43 248.947 678.43 250.09C678.43 251.435 678.155 252.664 677.604 253.778C677.055 254.89 676.272 255.87 675.309 256.652C674.325 257.452 673.156 258.077 671.801 258.529C670.446 258.98 668.966 259.203 667.36 259.197Z" fill="white"></path><path fill-rule="evenodd" clip-rule="evenodd" d="M664.521 225.938H668.609C668.745 225.938 668.875 225.992 668.971 226.088C669.067 226.184 669.121 226.314 669.121 226.45V232.327H664.01V226.45C664.01 226.314 664.064 226.184 664.16 226.088C664.256 225.992 664.386 225.938 664.521 225.938ZM669.123 256.426V261.835C669.123 261.97 669.069 262.1 668.973 262.196C668.877 262.292 668.747 262.347 668.612 262.347H664.521C664.386 262.346 664.256 262.292 664.16 262.196C664.064 262.1 664.01 261.97 664.01 261.835V256.426H669.123Z" fill="white"></path><defs><filter id="filter0_dd_17832_41164" x="123" y="81.3926" width="497" height="313.214" filterUnits="userSpaceOnUse" color-interpolation-filters="sRGB"><feFlood flood-opacity="0" result="BackgroundImageFix"></feFlood><feColorMatrix in="SourceAlpha" type="matrix" values="0 0 0 0 0 0 0 0 0 0 0 0 0 0 0 0 0 0 127 0" result="hardAlpha"></feColorMatrix><feOffset dx="5" dy="5"></feOffset><feGaussianBlur stdDeviation="14.5"></feGaussianBlur><feColorMatrix type="matrix" values="0 0 0 0 0 0 0 0 0 0.296699 0 0 0 0 0.858629 0 0 0 0.14 0"></feColorMatrix><feBlend mode="normal" in2="BackgroundImageFix" result="effect1_dropShadow_17832_41164"></feBlend><feColorMatrix in="SourceAlpha" type="matrix" values="0 0 0 0 0 0 0 0 0 0 0 0 0 0 0 0 0 0 127 0" result="hardAlpha"></feColorMatrix><feOffset></feOffset><feGaussianBlur stdDeviation="3.5"></feGaussianBlur><feComposite in2="hardAlpha" operator="out"></feComposite><feColorMatrix type="matrix" values="0 0 0 0 0.0354167 0 0 0 0 0.105426 0 0 0 0 0.2125 0 0 0 0.09 0"></feColorMatrix><feBlend mode="normal" in2="effect1_dropShadow_17832_41164" result="effect2_dropShadow_17832_41164"></feBlend><feBlend mode="normal" in="SourceGraphic" in2="effect2_dropShadow_17832_41164" result="shape"></feBlend></filter><filter id="filter1_d_17832_41164" x="0" y="82" width="458" height="348" filterUnits="userSpaceOnUse" color-interpolation-filters="sRGB"><feFlood flood-opacity="0" result="BackgroundImageFix"></feFlood><feColorMatrix in="SourceAlpha" type="matrix" values="0 0 0 0 0 0 0 0 0 0 0 0 0 0 0 0 0 0 127 0" result="hardAlpha"></feColorMatrix><feOffset dx="20" dy="20"></feOffset><feGaussianBlur stdDeviation="50"></feGaussianBlur><feColorMatrix type="matrix" values="0 0 0 0 0.0941177 0 0 0 0 0.188235 0 0 0 0 0.247059 0 0 0 0.1 0"></feColorMatrix><feBlend mode="normal" in2="BackgroundImageFix" result="effect1_dropShadow_17832_41164"></feBlend><feBlend mode="normal" in="SourceGraphic" in2="effect1_dropShadow_17832_41164" result="shape"></feBlend></filter><clipPath id="clip0_17832_41164"><rect x="147" y="105.393" width="439" height="255.214" rx="10" fill="white"></rect></clipPath><clipPath id="clip1_17832_41164"><rect width="107.76" height="107.76" fill="white" transform="translate(101.338 182.208)"></rect></clipPath></defs></svg>