<svg xmlns="http://www.w3.org/2000/svg" width="662" height="399" viewBox="0 0 662 399" fill="none"><ellipse opacity="0.8" cx="141.26" cy="210.5" rx="132.837" ry="133.5" fill="#F5F8FF"></ellipse><ellipse opacity="0.4" cx="141.591" cy="210.831" rx="111.968" ry="111.305" fill="#C6DBFF"></ellipse><circle cx="141.26" cy="210.5" r="91.7605" fill="#9FC0FF"></circle><path d="M285.393 146.386C285.058 146.722 285.058 147.265 285.393 147.6L290.857 153.064C291.192 153.4 291.736 153.4 292.071 153.064C292.406 152.729 292.406 152.185 292.071 151.85L287.214 146.993L292.071 142.137C292.406 141.801 292.406 141.258 292.071 140.923C291.736 140.587 291.192 140.587 290.857 140.923L285.393 146.386ZM286 147.852H334.395V146.135H286V147.852ZM355.859 126.388V82.6053H354.141V126.388H355.859ZM375.605 62.8586H388.724V61.1414H375.605V62.8586ZM355.859 82.6053C355.859 71.6995 364.699 62.8586 375.605 62.8586V61.1414C363.751 61.1414 354.141 70.7511 354.141 82.6053H355.859ZM334.395 147.852C346.249 147.852 355.859 138.242 355.859 126.388H354.141C354.141 137.294 345.301 146.135 334.395 146.135V147.852Z" fill="url(#paint0_linear_2604_66373)"></path><path d="M285.393 201.6C285.058 201.265 285.058 200.722 285.393 200.386L290.857 194.923C291.192 194.587 291.736 194.587 292.071 194.923C292.406 195.258 292.406 195.801 292.071 196.137L287.214 200.993L292.071 205.85C292.406 206.185 292.406 206.729 292.071 207.064C291.736 207.4 291.192 207.4 290.857 207.064L285.393 201.6ZM286 200.135H380.5V201.852H286V200.135Z" fill="url(#paint1_linear_2604_66373)"></path><path d="M285.393 255.601C285.058 255.265 285.058 254.722 285.393 254.386L290.857 248.923C291.192 248.587 291.736 248.587 292.071 248.923C292.406 249.258 292.406 249.801 292.071 250.137L287.214 254.993L292.071 259.85C292.406 260.185 292.406 260.729 292.071 261.064C291.736 261.4 291.192 261.4 290.857 261.064L285.393 255.601ZM286 254.135L334.395 254.135L334.395 255.852L286 255.852L286 254.135ZM355.859 275.599L355.859 319.382L354.141 319.382L354.141 275.599L355.859 275.599ZM375.605 339.128L388.724 339.128L388.724 340.845L375.605 340.845L375.605 339.128ZM355.859 319.382C355.859 330.287 364.699 339.128 375.605 339.128L375.605 340.845C363.751 340.845 354.141 331.236 354.141 319.382L355.859 319.382ZM334.395 254.135C346.249 254.135 355.859 263.745 355.859 275.599L354.141 275.599C354.141 264.693 345.301 255.852 334.395 255.852L334.395 254.135Z" fill="url(#paint2_linear_2604_66373)"></path><g filter="url(#filter0_dd_2604_66373)"><circle cx="337.007" cy="201.007" r="4.00658" fill="#3D7FFC"></circle></g><g filter="url(#filter1_dd_2604_66373)"><circle cx="356.007" cy="77.0066" r="4.00658" fill="#3D7FFC"></circle></g><g filter="url(#filter2_dd_2604_66373)"><circle r="4.00658" transform="matrix(1 8.74228e-08 8.74228e-08 -1 355.007 307.007)" fill="#3D7FFC"></circle></g><g filter="url(#filter3_d_2604_66373)"><g filter="url(#filter4_d_2604_66373)"><path d="M62.0718 126.769L269.615 126.769V247.183C269.615 249.886 267.424 252.078 264.72 252.078H66.9667C64.2633 252.078 62.0718 249.886 62.0718 247.183V126.769Z" fill="#0E2548"></path></g><rect x="96.3364" y="139.495" width="85.8054" height="3.49636" fill="#7879F1"></rect><rect x="133.538" y="215.856" width="85.8054" height="3.49636" fill="#FECE4D"></rect><rect x="78.8052" y="139.495" width="5.62658" height="3.49636" fill="#3D7FFC"></rect><rect x="78.8052" y="215.856" width="5.62658" height="3.49636" fill="#3D7FFC"></rect><rect x="126.636" y="147.188" width="85.8054" height="3.49636" fill="#FECE4D"></rect><rect x="161.879" y="223.548" width="85.8054" height="3.49636" fill="#FECE4D"></rect><rect x="218.066" y="147.188" width="16.8798" height="3.49636" fill="#7879F1"></rect><rect x="141.37" y="223.548" width="16.8798" height="3.49636" fill="#15C1E6"></rect><rect x="126.636" y="154.879" width="30.9462" height="3.49636" fill="#15C1E6"></rect><rect x="112.979" y="231.24" width="30.9462" height="3.49636" fill="#FECE4D"></rect><rect x="164.613" y="154.879" width="22.5063" height="3.49636" fill="#7879F1"></rect><rect x="150.956" y="231.24" width="22.5063" height="3.49636" fill="#7879F1"></rect><rect x="194.153" y="154.879" width="32.3529" height="3.49636" fill="#FECE4D"></rect><rect x="180.496" y="231.24" width="32.3529" height="3.49636" fill="#FECE4D"></rect><rect x="156.166" y="162.571" width="61.8924" height="3.49636" fill="#FECE4D"></rect><rect x="193.489" y="238.932" width="61.8924" height="3.49636" fill="#FECE4D"></rect><rect x="139.291" y="162.571" width="9.84653" height="3.49636" fill="#7879F1"></rect><rect x="176.612" y="238.932" width="9.84653" height="3.49636" fill="#7879F1"></rect><rect x="139.411" y="170.263" width="47.826" height="3.49636" fill="#FECE4D"></rect><rect x="78.8052" y="147.188" width="5.62658" height="3.49636" fill="#3D7FFC"></rect><rect x="78.8052" y="223.548" width="5.62658" height="3.49636" fill="#3D7FFC"></rect><rect x="78.8052" y="154.879" width="5.62658" height="3.49636" fill="#3D7FFC"></rect><rect x="78.8052" y="231.24" width="5.62658" height="3.49636" fill="#3D7FFC"></rect><rect x="78.8052" y="162.571" width="5.62658" height="3.49636" fill="#3D7FFC"></rect><rect x="78.8052" y="238.932" width="5.62658" height="3.49636" fill="#3D7FFC"></rect><rect x="78.8052" y="170.263" width="5.62658" height="3.49636" fill="#3D7FFC"></rect><rect x="122.769" y="177.676" width="85.8054" height="3.49636" fill="#7879F1"></rect><rect x="78.8052" y="177.676" width="5.62658" height="3.49636" fill="#3D7FFC"></rect><rect x="126.636" y="185.368" width="85.8054" height="3.49636" fill="#FECE4D"></rect><rect x="218.066" y="185.368" width="16.8798" height="3.49636" fill="#15C1E6"></rect><rect x="126.636" y="193.059" width="30.9462" height="3.49636" fill="#15C1E6"></rect><rect x="164.613" y="193.059" width="22.5063" height="3.49636" fill="#7879F1"></rect><rect x="194.153" y="193.059" width="32.3529" height="3.49636" fill="#FECE4D"></rect><rect x="156.166" y="200.752" width="61.8924" height="3.49636" fill="#FECE4D"></rect><rect x="139.291" y="200.752" width="9.84653" height="3.49636" fill="#7879F1"></rect><rect x="105.529" y="208.443" width="47.826" height="3.49636" fill="#FECE4D"></rect><rect x="78.8052" y="185.368" width="5.62658" height="3.49636" fill="#3D7FFC"></rect><rect x="78.8052" y="193.059" width="5.62658" height="3.49636" fill="#3D7FFC"></rect><rect x="78.8052" y="200.752" width="5.62658" height="3.49636" fill="#3D7FFC"></rect><rect x="78.8052" y="208.443" width="5.62658" height="3.49636" fill="#3D7FFC"></rect><path d="M62.0718 120.895C62.0718 118.192 64.2633 116 66.9667 116H264.72C267.424 116 269.615 118.192 269.615 120.895V126.769H62.0718V120.895Z" fill="#000C36"></path><path d="M72.0416 121.438C72.0426 121.842 71.9233 122.237 71.6989 122.574C71.4744 122.91 71.1549 123.173 70.7808 123.328C70.4067 123.483 69.9948 123.524 69.5972 123.446C69.1996 123.368 68.8343 123.174 68.5474 122.889C68.2605 122.603 68.0649 122.239 67.9855 121.843C67.9061 121.447 67.9464 121.036 68.1012 120.662C68.2561 120.289 68.5185 119.97 68.8554 119.745C69.1923 119.521 69.5884 119.401 69.9937 119.401C70.5348 119.404 71.0527 119.62 71.4358 120.001C71.8188 120.382 72.0364 120.898 72.0416 121.438Z" fill="#F66058"></path><path d="M80.6583 121.438C80.6593 121.842 80.5398 122.238 80.3152 122.574C80.0906 122.911 79.7708 123.173 79.3964 123.329C79.022 123.484 78.6098 123.525 78.2121 123.446C77.8144 123.367 77.449 123.173 77.1623 122.887C76.8756 122.601 76.6805 122.237 76.6016 121.84C76.5228 121.444 76.5637 121.033 76.7193 120.659C76.8749 120.286 77.1382 119.967 77.4757 119.743C77.8132 119.519 78.2099 119.4 78.6153 119.401C78.884 119.399 79.1502 119.451 79.3987 119.553C79.6471 119.655 79.8729 119.805 80.0628 119.995C80.2528 120.184 80.4032 120.409 80.5054 120.657C80.6076 120.905 80.6596 121.17 80.6583 121.438Z" fill="#F9BD2E"></path><path d="M89.4835 121.438C89.4844 121.842 89.3652 122.237 89.1407 122.574C88.9163 122.91 88.5968 123.173 88.2227 123.328C87.8486 123.483 87.4367 123.525 87.0391 123.446C86.6415 123.368 86.2762 123.174 85.9893 122.889C85.7024 122.603 85.5068 122.239 85.4274 121.843C85.348 121.447 85.3883 121.036 85.5431 120.663C85.698 120.289 85.9604 119.97 86.2973 119.745C86.6342 119.521 87.0303 119.401 87.4356 119.401C87.9767 119.405 88.4946 119.62 88.8777 120.001C89.2607 120.382 89.4783 120.898 89.4835 121.438Z" fill="#3CC840"></path></g><g filter="url(#filter5_dd_2604_66373)"><path d="M13.3699 197.827C13.3699 193.901 16.5526 190.718 20.4787 190.718H219.466V302.691H13.3699V197.827Z" fill="white" stroke="#D2DCE4" stroke-width="0.779869"></path><rect x="213.484" y="212.374" width="2.99949" height="14.9975" rx="1.49975" fill="#D2DCE4"></rect><mask id="mask0_2604_66373" style="mask-type:alpha" maskUnits="userSpaceOnUse" x="12" y="189" width="200" height="115"><rect x="12" y="189.348" width="199.033" height="113.733" fill="#D9D9D9"></rect></mask><g mask="url(#mask0_2604_66373)"><path d="M12.5166 204.875L12.5166 189.877L27.5141 189.877L27.5141 204.875L12.5166 204.875Z" fill="white" stroke="#D2DCE4" stroke-width="0.774263"></path><path d="M12.5166 219.862L12.5166 204.865L27.5141 204.865L27.5141 219.862L12.5166 219.862Z" fill="white" stroke="#D2DCE4" stroke-width="0.774263"></path><path d="M12.5166 279.856L12.5166 264.859L27.5141 264.859L27.5141 279.856L12.5166 279.856Z" fill="white" stroke="#D2DCE4" stroke-width="0.774263"></path><path d="M12.5166 249.866L12.5166 234.869L27.5141 234.869L27.5141 249.866L12.5166 249.866Z" fill="white" stroke="#D2DCE4" stroke-width="0.774263"></path><path d="M12.5166 309.846L12.5166 294.849L27.5141 294.849L27.5141 309.846L12.5166 309.846Z" fill="white" stroke="#D2DCE4" stroke-width="0.774263"></path><path d="M12.5166 234.864L12.5166 219.867L27.5141 219.867L27.5141 234.864L12.5166 234.864Z" fill="white" stroke="#D2DCE4" stroke-width="0.774263"></path><path d="M12.5166 294.858L12.5166 279.861L27.5141 279.861L27.5141 294.858L12.5166 294.858Z" fill="white" stroke="#D2DCE4" stroke-width="0.774263"></path><path d="M12.5166 264.854L12.5166 249.857L27.5141 249.857L27.5141 264.854L12.5166 264.854Z" fill="white" stroke="#D2DCE4" stroke-width="0.774263"></path><path d="M18.1284 215.671V211.445H16.4071V212.125H17.1728V215.671H18.1284ZM22.5741 215.671V214.906H20.614L21.4899 214.115C21.8268 213.815 22.3781 213.374 22.3781 212.633C22.3781 211.892 21.7962 211.383 20.8406 211.383C19.885 211.383 19.3643 211.953 19.3092 212.082L19.7258 212.731C19.9585 212.437 20.3261 212.161 20.7487 212.161C21.1653 212.161 21.4287 212.394 21.4287 212.755C21.4287 213.117 21.1898 213.393 20.7916 213.754L19.3582 215.046L19.4746 215.671H22.5741Z" fill="#303B45"></path><path d="M18.1284 275.665V271.438H16.4071V272.118H17.1728V275.665H18.1284ZM22.5986 274.226C22.5986 273.392 21.9555 272.933 21.3 272.933C20.6446 272.933 20.3506 273.239 20.2342 273.368C20.2342 272.902 20.3934 272.553 20.5711 272.376C20.7365 272.216 20.9202 272.124 21.1959 272.124C21.5389 272.124 21.9003 272.278 22.1025 272.437L22.4639 271.788C22.1576 271.573 21.7288 271.377 21.153 271.377C20.5956 271.377 20.1852 271.555 19.8605 271.898C19.5114 272.259 19.297 272.847 19.297 273.607C19.297 274.287 19.4501 274.734 19.6584 275.028C19.8789 275.347 20.3077 275.732 21.0183 275.732C22.0045 275.732 22.5986 275.059 22.5986 274.226ZM21.6614 274.293C21.6614 274.667 21.4164 274.991 20.9876 274.991C20.5527 274.991 20.3016 274.667 20.3016 274.293C20.3016 273.925 20.5527 273.595 20.9876 273.595C21.4164 273.595 21.6614 273.925 21.6614 274.293Z" fill="#303B45"></path><path d="M18.1284 245.675V241.449H16.4071V242.129H17.1728V245.675H18.1284ZM22.7089 244.83V244.064H22.1454V241.436H21.0489L19.1316 244.107V244.83H21.1898V245.675H22.1454V244.83H22.7089ZM21.2143 244.083H20.032L21.2143 242.447V244.083Z" fill="#303B45"></path><path d="M18.1284 305.655V301.428H16.4071V302.108H17.1728V305.655H18.1284ZM22.5313 304.46C22.5313 303.946 22.2311 303.597 21.7717 303.456V303.437C22.078 303.333 22.4088 303.082 22.4088 302.531C22.4088 301.765 21.7166 301.367 20.9141 301.367C20.1055 301.367 19.4134 301.765 19.4134 302.531C19.4134 303.076 19.7503 303.327 20.0565 303.437V303.45C19.591 303.597 19.297 303.946 19.297 304.46C19.297 305.3 20.032 305.722 20.9141 305.722C21.7962 305.722 22.5313 305.3 22.5313 304.46ZM21.4715 302.604C21.4715 302.929 21.2388 303.113 20.9141 303.113C20.5833 303.113 20.3567 302.929 20.3567 302.604C20.3567 302.274 20.5833 302.09 20.9141 302.09C21.2388 302.09 21.4715 302.274 21.4715 302.604ZM21.5696 304.369C21.5696 304.748 21.2755 304.969 20.9141 304.969C20.5527 304.969 20.2587 304.748 20.2587 304.369C20.2587 303.989 20.5405 303.768 20.9141 303.768C21.2816 303.768 21.5696 303.989 21.5696 304.369Z" fill="#303B45"></path><path d="M18.1284 230.367V226.14H16.4071V226.82H17.1728V230.367H18.1284ZM22.4884 229.13C22.4884 228.578 22.1025 228.241 21.7472 228.149V228.131C22.029 228.015 22.3536 227.77 22.3536 227.206C22.3536 226.496 21.6492 226.079 20.8835 226.079C20.1117 226.079 19.7196 226.349 19.4256 226.606L19.7931 227.231C20.1362 226.955 20.4669 226.82 20.8039 226.82C21.1408 226.82 21.4164 226.986 21.4164 227.316C21.4164 227.647 21.1836 227.813 20.8529 227.813H20.4792V228.505H20.8529C21.2326 228.505 21.5267 228.701 21.5267 229.074C21.5267 229.454 21.202 229.669 20.7855 229.669C20.3751 229.669 19.9218 229.35 19.7503 229.142L19.297 229.73C19.444 229.944 19.9647 230.434 20.8406 230.434C21.7104 230.434 22.4884 229.975 22.4884 229.13Z" fill="#303B45"></path><path d="M18.1284 290.36V286.134H16.4071V286.814H17.1728V290.36H18.1284ZM22.6477 286.722L22.3781 286.134H19.3643V286.893H21.5818L19.7258 290.36H20.7671L22.6477 286.722Z" fill="#303B45"></path><path d="M18.1284 260.357V256.13H16.4071V256.81H17.1728V260.357H18.1284ZM22.519 258.942C22.519 257.962 21.6859 257.557 21.0428 257.557C20.7671 257.557 20.6078 257.594 20.4792 257.649L20.6017 256.89H22.3597V256.13H19.885L19.5604 258.194L19.9892 258.452C20.179 258.317 20.4853 258.231 20.761 258.231C21.1408 258.231 21.5573 258.44 21.5573 258.942C21.5573 259.45 21.1224 259.658 20.761 259.658C20.3996 259.658 19.9585 259.475 19.7258 259.15L19.2725 259.732C19.4685 260.038 19.983 260.424 20.8284 260.424C21.6676 260.424 22.519 259.928 22.519 258.942Z" fill="#303B45"></path><rect x="27.5122" y="204.875" width="14.9975" height="40.4932" transform="rotate(-90 27.5122 204.875)" fill="white" stroke="#D2DCE4" stroke-width="0.774263"></rect><rect x="68.0132" y="204.875" width="14.9975" height="41.9929" transform="rotate(-90 68.0132 204.875)" fill="white" stroke="#D2DCE4" stroke-width="0.774263"></rect><rect x="110.004" y="204.875" width="14.9975" height="41.9929" transform="rotate(-90 110.004 204.875)" fill="white" stroke="#D2DCE4" stroke-width="0.774263"></rect><rect x="151.992" y="204.875" width="14.9975" height="41.9929" transform="rotate(-90 151.992 204.875)" fill="white" stroke="#D2DCE4" stroke-width="0.774263"></rect><rect x="193.988" y="204.875" width="14.9975" height="40.4932" transform="rotate(-90 193.988 204.875)" fill="white" stroke="#D2DCE4" stroke-width="0.774263"></rect><rect x="27.5122" y="234.864" width="14.9975" height="40.4932" transform="rotate(-90 27.5122 234.864)" fill="#D2DCE4" fill-opacity="0.5" stroke="#D2DCE4" stroke-width="0.774263"></rect><rect x="27.5122" y="264.854" width="14.9975" height="40.4932" transform="rotate(-90 27.5122 264.854)" fill="#D2DCE4" fill-opacity="0.5" stroke="#D2DCE4" stroke-width="0.774263"></rect><rect x="27.5122" y="294.858" width="14.9975" height="40.4932" transform="rotate(-90 27.5122 294.858)" fill="#D2DCE4" fill-opacity="0.5" stroke="#D2DCE4" stroke-width="0.774263"></rect><rect x="68.0132" y="234.864" width="14.9975" height="41.9929" transform="rotate(-90 68.0132 234.864)" fill="#D2DCE4" fill-opacity="0.5" stroke="#D2DCE4" stroke-width="0.774263"></rect><rect x="68.0132" y="264.854" width="14.9975" height="41.9929" transform="rotate(-90 68.0132 264.854)" fill="#D2DCE4" fill-opacity="0.5" stroke="#D2DCE4" stroke-width="0.774263"></rect><rect x="68.0132" y="294.858" width="14.9975" height="41.9929" transform="rotate(-90 68.0132 294.858)" fill="#D2DCE4" fill-opacity="0.5" stroke="#D2DCE4" stroke-width="0.774263"></rect><rect x="110.004" y="234.864" width="14.9975" height="41.9929" transform="rotate(-90 110.004 234.864)" fill="#D2DCE4" fill-opacity="0.5" stroke="#D2DCE4" stroke-width="0.774263"></rect><rect x="110.004" y="264.854" width="14.9975" height="41.9929" transform="rotate(-90 110.004 264.854)" fill="#D2DCE4" fill-opacity="0.5" stroke="#D2DCE4" stroke-width="0.774263"></rect><rect x="110.004" y="294.858" width="14.9975" height="41.9929" transform="rotate(-90 110.004 294.858)" fill="#D2DCE4" fill-opacity="0.5" stroke="#D2DCE4" stroke-width="0.774263"></rect><rect x="151.992" y="234.864" width="14.9975" height="41.9929" transform="rotate(-90 151.992 234.864)" fill="#D2DCE4" fill-opacity="0.5" stroke="#D2DCE4" stroke-width="0.774263"></rect><rect x="151.992" y="264.854" width="14.9975" height="41.9929" transform="rotate(-90 151.992 264.854)" fill="#D2DCE4" fill-opacity="0.5" stroke="#D2DCE4" stroke-width="0.774263"></rect><rect x="151.992" y="294.858" width="14.9975" height="41.9929" transform="rotate(-90 151.992 294.858)" fill="#D2DCE4" fill-opacity="0.5" stroke="#D2DCE4" stroke-width="0.774263"></rect><rect x="193.988" y="234.864" width="14.9975" height="40.4932" transform="rotate(-90 193.988 234.864)" fill="#D2DCE4" fill-opacity="0.5" stroke="#D2DCE4" stroke-width="0.774263"></rect><rect x="193.988" y="264.854" width="14.9975" height="40.4932" transform="rotate(-90 193.988 264.854)" fill="#D2DCE4" fill-opacity="0.5" stroke="#D2DCE4" stroke-width="0.774263"></rect><rect x="193.988" y="294.858" width="14.9975" height="40.4932" transform="rotate(-90 193.988 294.858)" fill="#D2DCE4" fill-opacity="0.5" stroke="#D2DCE4" stroke-width="0.774263"></rect><rect x="27.5122" y="219.862" width="14.9975" height="40.4932" transform="rotate(-90 27.5122 219.862)" fill="white" stroke="#D2DCE4" stroke-width="0.774263"></rect><rect x="27.5122" y="249.866" width="14.9975" height="40.4932" transform="rotate(-90 27.5122 249.866)" fill="white" stroke="#D2DCE4" stroke-width="0.774263"></rect><rect x="27.5122" y="279.856" width="14.9975" height="40.4932" transform="rotate(-90 27.5122 279.856)" fill="white" stroke="#D2DCE4" stroke-width="0.774263"></rect><rect x="27.5122" y="309.846" width="14.9975" height="40.4932" transform="rotate(-90 27.5122 309.846)" fill="white" stroke="#D2DCE4" stroke-width="0.774263"></rect><rect x="68.0132" y="219.862" width="14.9975" height="41.9929" transform="rotate(-90 68.0132 219.862)" fill="white" stroke="#D2DCE4" stroke-width="0.774263"></rect><rect x="68.0132" y="249.866" width="14.9975" height="41.9929" transform="rotate(-90 68.0132 249.866)" fill="white" stroke="#D2DCE4" stroke-width="0.774263"></rect><rect x="68.0132" y="279.856" width="14.9975" height="41.9929" transform="rotate(-90 68.0132 279.856)" fill="white" stroke="#D2DCE4" stroke-width="0.774263"></rect><rect x="68.0132" y="309.846" width="14.9975" height="41.9929" transform="rotate(-90 68.0132 309.846)" fill="white" stroke="#D2DCE4" stroke-width="0.774263"></rect><rect x="110.004" y="219.862" width="14.9975" height="41.9929" transform="rotate(-90 110.004 219.862)" fill="white" stroke="#D2DCE4" stroke-width="0.774263"></rect><rect x="110.004" y="249.866" width="14.9975" height="41.9929" transform="rotate(-90 110.004 249.866)" fill="white" stroke="#D2DCE4" stroke-width="0.774263"></rect><rect x="110.004" y="279.856" width="14.9975" height="41.9929" transform="rotate(-90 110.004 279.856)" fill="white" stroke="#D2DCE4" stroke-width="0.774263"></rect><rect x="110.004" y="309.846" width="14.9975" height="41.9929" transform="rotate(-90 110.004 309.846)" fill="white" stroke="#D2DCE4" stroke-width="0.774263"></rect><rect x="151.992" y="219.863" width="14.9975" height="41.9929" transform="rotate(-90 151.992 219.863)" fill="white" stroke="#D2DCE4" stroke-width="0.774263"></rect><rect x="151.992" y="249.866" width="14.9975" height="41.9929" transform="rotate(-90 151.992 249.866)" fill="white" stroke="#D2DCE4" stroke-width="0.774263"></rect><rect x="151.992" y="279.856" width="14.9975" height="41.9929" transform="rotate(-90 151.992 279.856)" fill="white" stroke="#D2DCE4" stroke-width="0.774263"></rect><rect x="151.992" y="309.846" width="14.9975" height="41.9929" transform="rotate(-90 151.992 309.846)" fill="white" stroke="#D2DCE4" stroke-width="0.774263"></rect><rect x="193.988" y="219.863" width="14.9975" height="40.4932" transform="rotate(-90 193.988 219.863)" fill="white" stroke="#D2DCE4" stroke-width="0.774263"></rect><rect x="193.988" y="249.866" width="14.9975" height="40.4932" transform="rotate(-90 193.988 249.866)" fill="white" stroke="#D2DCE4" stroke-width="0.774263"></rect><rect x="193.988" y="279.856" width="14.9975" height="40.4932" transform="rotate(-90 193.988 279.856)" fill="white" stroke="#D2DCE4" stroke-width="0.774263"></rect><rect x="193.988" y="309.846" width="14.9975" height="40.4932" transform="rotate(-90 193.988 309.846)" fill="white" stroke="#D2DCE4" stroke-width="0.774263"></rect><path d="M35.0122 227.375H62.0077" stroke="#B8C4D0" stroke-width="2.99949" stroke-linecap="round"></path><path d="M35.0122 257.365H62.0077" stroke="#B8C4D0" stroke-width="2.99949" stroke-linecap="round"></path><path d="M35.0122 287.355H62.0077" stroke="#B8C4D0" stroke-width="2.99949" stroke-linecap="round"></path><path d="M75.5039 227.375H103.999" stroke="#B8C4D0" stroke-width="2.99949" stroke-linecap="round"></path><path d="M75.5039 257.365H103.999" stroke="#B8C4D0" stroke-width="2.99949" stroke-linecap="round"></path><path d="M75.5039 287.355H103.999" stroke="#B8C4D0" stroke-width="2.99949" stroke-linecap="round"></path><path d="M117.496 227.375H144.492" stroke="#B8C4D0" stroke-width="2.99949" stroke-linecap="round"></path><path d="M117.496 257.365H144.492" stroke="#B8C4D0" stroke-width="2.99949" stroke-linecap="round"></path><path d="M117.496 287.355H144.492" stroke="#B8C4D0" stroke-width="2.99949" stroke-linecap="round"></path><path d="M157.996 227.375H186.491" stroke="#B8C4D0" stroke-width="2.99949" stroke-linecap="round"></path><path d="M157.996 257.365H186.491" stroke="#B8C4D0" stroke-width="2.99949" stroke-linecap="round"></path><path d="M157.996 287.355H186.491" stroke="#B8C4D0" stroke-width="2.99949" stroke-linecap="round"></path><path d="M201.489 227.375H226.984" stroke="#B8C4D0" stroke-width="2.99949" stroke-linecap="round"></path><path d="M201.489 257.365H226.984" stroke="#B8C4D0" stroke-width="2.99949" stroke-linecap="round"></path><path d="M201.489 287.355H226.984" stroke="#B8C4D0" stroke-width="2.99949" stroke-linecap="round"></path><path d="M35.0122 212.374H62.0077" stroke="#D2DCE4" stroke-width="2.99949" stroke-linecap="round"></path><path d="M35.0122 242.364H62.0077" stroke="#D2DCE4" stroke-width="2.99949" stroke-linecap="round"></path><path d="M35.0122 272.367H62.0077" stroke="#D2DCE4" stroke-width="2.99949" stroke-linecap="round"></path><path d="M35.0122 302.357H62.0077" stroke="#D2DCE4" stroke-width="2.99949" stroke-linecap="round"></path><path d="M75.5039 212.374H103.999" stroke="#D2DCE4" stroke-width="2.99949" stroke-linecap="round"></path><path d="M75.5039 242.364H103.999" stroke="#D2DCE4" stroke-width="2.99949" stroke-linecap="round"></path><path d="M75.5039 272.367H103.999" stroke="#D2DCE4" stroke-width="2.99949" stroke-linecap="round"></path><path d="M75.5039 302.357H103.999" stroke="#D2DCE4" stroke-width="2.99949" stroke-linecap="round"></path><path d="M117.496 212.374H144.492" stroke="#D2DCE4" stroke-width="2.99949" stroke-linecap="round"></path><path d="M117.496 242.364H144.492" stroke="#D2DCE4" stroke-width="2.99949" stroke-linecap="round"></path><path d="M117.496 272.367H144.492" stroke="#D2DCE4" stroke-width="2.99949" stroke-linecap="round"></path><path d="M117.496 302.357H144.492" stroke="#D2DCE4" stroke-width="2.99949" stroke-linecap="round"></path><path d="M157.996 212.374H186.491" stroke="#D2DCE4" stroke-width="2.99949" stroke-linecap="round"></path><path d="M157.996 242.364H186.491" stroke="#D2DCE4" stroke-width="2.99949" stroke-linecap="round"></path><path d="M157.996 272.367H186.491" stroke="#D2DCE4" stroke-width="2.99949" stroke-linecap="round"></path><path d="M157.996 302.357H186.491" stroke="#D2DCE4" stroke-width="2.99949" stroke-linecap="round"></path><path d="M201.489 212.374H226.984" stroke="#D2DCE4" stroke-width="2.99949" stroke-linecap="round"></path><path d="M201.489 242.364H226.984" stroke="#D2DCE4" stroke-width="2.99949" stroke-linecap="round"></path><path d="M201.489 272.367H226.984" stroke="#D2DCE4" stroke-width="2.99949" stroke-linecap="round"></path><path d="M201.489 302.357H226.984" stroke="#D2DCE4" stroke-width="2.99949" stroke-linecap="round"></path><path d="M23.692 201.245V193.745L16.1919 201.245H23.692Z" fill="#B8C4D0"></path><path d="M50.2107 198.343C50.2107 197.41 49.8347 196.853 49.4308 196.519C49.0339 196.177 48.4142 195.941 47.5787 195.941H45.9494V200.745H47.5787C48.4142 200.745 49.0339 200.508 49.4308 200.174C49.8347 199.833 50.2107 199.276 50.2107 198.343ZM49.0688 198.343C49.0688 198.935 48.8459 199.255 48.644 199.443C48.4421 199.638 48.1079 199.791 47.6414 199.791H47.0704V196.874H47.6414C48.1079 196.874 48.4421 197.027 48.644 197.215C48.8459 197.41 49.0688 197.751 49.0688 198.343Z" fill="#303B45"></path><path d="M91.121 200.745V199.833H89.067V198.719H90.947V197.821H89.067V196.839H91.0584V195.941H87.946V200.745H91.121Z" fill="#303B45"></path><path d="M132.939 196.839V195.941H129.938V200.745H131.059V198.914H132.828V198.016H131.059V196.839H132.939Z" fill="#303B45"></path><path d="M176.323 200V198.009H174.214V198.865H175.223V199.575C175.223 199.575 175 199.882 174.221 199.882C173.441 199.882 172.828 199.318 172.828 198.343C172.828 197.368 173.427 196.804 174.2 196.804C174.854 196.804 175.23 197.131 175.432 197.354L176.177 196.707C176.024 196.54 175.474 195.871 174.2 195.871C172.856 195.871 171.686 196.741 171.686 198.343C171.686 199.944 172.856 200.822 174.186 200.822C175.509 200.822 176.08 200.216 176.323 200Z" fill="#303B45"></path></g><path d="M211.033 303.081V189.884" stroke="#D2DCE4" stroke-width="0.749873"></path><rect x="12" y="177.582" width="207.857" height="12.7459" fill="#63B97F"></rect><path d="M12 171.7C12 168.992 14.1948 166.797 16.9023 166.797H214.955C217.662 166.797 219.857 168.992 219.857 171.7V177.582H12V171.7Z" fill="#4B825D"></path><path d="M21.9843 172.244C21.9853 172.648 21.8658 173.044 21.641 173.381C21.4163 173.718 21.0963 173.981 20.7216 174.137C20.3469 174.292 19.9344 174.333 19.5362 174.255C19.138 174.177 18.7721 173.982 18.4848 173.696C18.1975 173.411 18.0016 173.046 17.9221 172.649C17.8426 172.252 17.8829 171.841 18.038 171.467C18.1931 171.093 18.4559 170.773 18.7933 170.548C19.1307 170.323 19.5274 170.203 19.9333 170.203C20.4752 170.207 20.9939 170.423 21.3776 170.805C21.7612 171.186 21.9791 171.703 21.9843 172.244Z" fill="#F66058"></path><path d="M30.6142 172.244C30.6151 172.649 30.4956 173.045 30.2706 173.382C30.0456 173.719 29.7253 173.982 29.3503 174.137C28.9754 174.293 28.5626 174.334 28.1643 174.255C27.766 174.176 27.4001 173.981 27.1129 173.695C26.8258 173.408 26.6304 173.044 26.5514 172.646C26.4724 172.249 26.5134 171.838 26.6693 171.464C26.8251 171.09 27.0888 170.77 27.4268 170.546C27.7648 170.322 28.1621 170.202 28.5681 170.203C28.8372 170.202 29.1038 170.254 29.3527 170.356C29.6015 170.458 29.8276 170.608 30.0178 170.798C30.2081 170.988 30.3587 171.213 30.4611 171.461C30.5634 171.71 30.6155 171.975 30.6142 172.244Z" fill="#F9BD2E"></path><path d="M39.4521 172.244C39.453 172.648 39.3336 173.044 39.1088 173.381C38.884 173.718 38.5641 173.981 38.1894 174.137C37.8147 174.292 37.4022 174.333 37.004 174.255C36.6058 174.177 36.2399 173.982 35.9526 173.697C35.6652 173.411 35.4694 173.046 35.3899 172.649C35.3103 172.253 35.3507 171.841 35.5057 171.467C35.6608 171.093 35.9237 170.773 36.2611 170.548C36.5985 170.323 36.9952 170.203 37.4011 170.203C37.943 170.207 38.4617 170.423 38.8453 170.805C39.229 171.187 39.4469 171.703 39.4521 172.244Z" fill="#3CC840"></path><rect x="17.0908" y="180.524" width="7.20636" height="6.8632" rx="1.46544" fill="#4B825D"></rect><path d="M20.8712 184.304L21.7318 185.671H22.5815L21.3262 183.901L22.4993 182.24H21.6606L20.8657 183.478L20.0708 182.24H19.2321L20.4052 183.896L19.1499 185.671H19.9941L20.8712 184.304Z" fill="white"></path><rect opacity="0.3" x="195.345" y="181.504" width="24.5114" height="4.90228" fill="white"></rect><rect opacity="0.3" x="154.166" y="181.504" width="34.316" height="4.90228" fill="white"></rect><rect opacity="0.3" x="72.7881" y="181.504" width="34.316" height="4.90228" fill="white"></rect><rect opacity="0.3" x="112.986" y="181.504" width="35.2964" height="4.90228" fill="white"></rect><rect opacity="0.3" x="31.6094" y="181.504" width="34.316" height="4.90228" fill="white"></rect></g><g filter="url(#filter6_dd_2604_66373)"><path d="M503.64 11H408.571C403.285 11 399 15.2478 399 20.4878V114.73C399 119.97 403.285 124.217 408.571 124.217H503.64C508.925 124.217 513.211 119.97 513.211 114.73V20.4878C513.211 15.2478 508.925 11 503.64 11Z" fill="white"></path></g><path d="M412.244 19.5151C412.244 20.8769 411.111 22.0004 409.737 22.0004C408.363 22.0004 407.23 20.8769 407.23 19.5151C407.23 18.1533 408.363 17.0298 409.737 17.0298C411.111 17.0298 412.244 18.1533 412.244 19.5151Z" fill="#B8C4D0"></path><path d="M420.435 19.5151C420.435 20.8769 419.301 22.0004 417.928 22.0004C416.554 22.0004 415.42 20.8769 415.42 19.5151C415.42 18.1533 416.554 17.0298 417.928 17.0298C419.336 17.0298 420.435 18.1533 420.435 19.5151Z" fill="#B8C4D0"></path><path d="M428.627 19.5151C428.627 20.8769 427.494 22.0004 426.12 22.0004C424.746 22.0004 423.613 20.8769 423.613 19.5151C423.613 18.1533 424.746 17.0298 426.12 17.0298C427.494 17.0298 428.627 18.1533 428.627 19.5151Z" fill="#B8C4D0"></path><path d="M484.353 70.6586L484.301 61.2344C484.29 59.2675 482.696 57.6695 480.757 57.679L466.496 57.7617V52.5591C466.496 51.2377 465.431 50.1581 464.13 50.1581H450.261C448.958 50.1581 447.894 51.2393 447.894 52.5591V57.8667L433.505 57.9493C431.566 57.9589 429.99 59.5775 430.001 61.5429L430.051 70.6602L453.261 76.828V76.0362C453.261 75.5814 453.629 75.2094 454.076 75.2094H460.315C460.762 75.2094 461.128 75.5814 461.128 76.0362V76.828L484.353 70.6586ZM451.135 54.2238C451.135 53.723 451.54 53.3127 452.032 53.3127H462.357C462.851 53.3127 463.255 53.7246 463.255 54.2238V57.7792L451.135 57.8492V54.2238Z" fill="#9FC0FF"></path><path d="M484.482 95.14C484.493 97.1069 482.917 98.724 480.98 98.7351L433.726 99.0054C431.787 99.015 430.193 97.417 430.182 95.4501L430.055 72.3323L453.262 78.4969V80.6451C453.262 81.0998 453.63 81.4719 454.077 81.4719H460.316C460.763 81.4719 461.13 81.0998 461.13 80.6451V78.4969L484.359 72.3275L484.486 95.14H484.482Z" fill="#3D7FFC"></path><path d="M399 28.4507H513.211" stroke="#D2DCE4" stroke-width="1.63158"></path><g filter="url(#filter7_dd_2604_66373)"><path d="M503.64 140.391H408.571C403.285 140.391 399 144.639 399 149.879V244.121C399 249.361 403.285 253.609 408.571 253.609H503.64C508.925 253.609 513.211 249.361 513.211 244.121V149.879C513.211 144.639 508.925 140.391 503.64 140.391Z" fill="white"></path></g><path d="M412.244 148.906C412.244 150.268 411.111 151.392 409.737 151.392C408.363 151.392 407.23 150.268 407.23 148.906C407.23 147.545 408.363 146.421 409.737 146.421C411.111 146.421 412.244 147.545 412.244 148.906Z" fill="#B8C4D0"></path><path d="M420.435 148.906C420.435 150.268 419.301 151.392 417.928 151.392C416.554 151.392 415.42 150.268 415.42 148.906C415.42 147.545 416.554 146.421 417.928 146.421C419.336 146.421 420.435 147.545 420.435 148.906Z" fill="#B8C4D0"></path><path d="M428.627 148.906C428.627 150.268 427.494 151.392 426.12 151.392C424.746 151.392 423.613 150.268 423.613 148.906C423.613 147.545 424.746 146.421 426.12 146.421C427.494 146.421 428.627 147.545 428.627 148.906Z" fill="#B8C4D0"></path><path d="M399 157.842H513.211" stroke="#D2DCE4" stroke-width="1.63158"></path><path d="M460.773 194.222V227.284L437.532 227.416V194.222H460.773Z" fill="#C6DBFF"></path><path d="M478.819 194.253H460.764V227.315H478.819V194.253Z" fill="#9FC0FF"></path><path d="M466.676 180.685L459.061 196.36H457.074L438.857 193.834L437.46 196.36H435.927L447.988 180.742L466.676 180.685Z" fill="#3D7FFC"></path><path d="M467.589 180.685L459.974 196.36H436.839L448.9 180.742L467.589 180.685Z" fill="#C6DBFF"></path><path d="M481.337 197.23H460.338L447.926 180.685L454.913 180.686L468.563 180.689L481.337 197.23Z" fill="#3D7FFC"></path><path d="M481.339 197.229H477.492L454.915 180.685L468.565 180.688L481.339 197.229Z" fill="#3D7FFC"></path><path d="M448.44 202.961L443.469 213.191H428.37L436.242 202.998L448.44 202.961Z" fill="#3D7FFC"></path><path d="M448.896 202.961L443.926 213.191H428.826L436.698 202.998L448.896 202.961Z" fill="#C6DBFF"></path><path d="M443.893 213.192V227.455L428.826 227.297V213.192H443.893Z" fill="#C6DBFF"></path><path d="M456.649 213.192V227.297L443.89 227.455V213.192H456.649Z" fill="#9FC0FF"></path><path d="M458.049 213.797H444.343L436.241 202.999L440.324 202.999L449.712 203.001L458.049 213.797Z" fill="#3D7FFC"></path><path d="M458.05 213.797H455.449L440.325 202.999L449.713 203.001L458.05 213.797Z" fill="#3D7FFC"></path><path d="M458.053 213.797H444.347V214.169H458.053V213.797Z" fill="#3D7FFC"></path><path d="M444.34 214.17L436.016 203.287L436.239 202.999L444.34 213.797V214.17Z" fill="#3D7FFC"></path><path d="M481.192 197.228H460.334V197.87H481.192V197.228Z" fill="#3D7FFC"></path><path d="M447.698 181.118C447.675 181.148 460.339 197.871 460.339 197.871V197.229L447.927 180.684L447.698 181.118Z" fill="#3D7FFC"></path><path d="M477.123 233.651H477.123C479.908 233.648 482.577 232.54 484.546 230.571C486.515 228.602 487.623 225.933 487.626 223.148V223.147C487.626 221.07 487.01 219.039 485.856 217.312C484.702 215.585 483.061 214.238 481.142 213.443C479.223 212.648 477.111 212.44 475.073 212.846C473.036 213.251 471.164 214.251 469.696 215.72C468.227 217.189 467.226 219.061 466.821 221.098C466.416 223.136 466.624 225.248 467.419 227.167C468.214 229.086 469.56 230.726 471.287 231.881C473.014 233.035 475.045 233.651 477.123 233.651Z" fill="#FECE4D" stroke="white" stroke-width="1.08592"></path><path d="M477.054 228.136C476.234 228.135 475.449 227.809 474.87 227.23C474.291 226.651 473.965 225.866 473.964 225.047H476.024C476.024 225.32 476.132 225.582 476.325 225.775C476.518 225.968 476.78 226.076 477.054 226.076C477.327 226.076 477.589 225.968 477.782 225.775C477.975 225.582 478.083 225.32 478.083 225.047C478.083 224.682 477.466 224.344 476.593 223.909C475.484 223.353 473.964 222.593 473.964 220.927C473.964 220.108 474.289 219.322 474.869 218.742C475.448 218.163 476.234 217.837 477.054 217.837C477.873 217.837 478.659 218.163 479.238 218.742C479.818 219.322 480.143 220.108 480.143 220.927H478.083C478.083 220.654 477.975 220.392 477.782 220.199C477.589 220.006 477.327 219.897 477.054 219.897C476.78 219.897 476.518 220.006 476.325 220.199C476.132 220.392 476.024 220.654 476.024 220.927C476.024 221.292 476.642 221.629 477.514 222.065C478.623 222.62 480.143 223.38 480.143 225.047C480.142 225.866 479.816 226.651 479.237 227.23C478.658 227.809 477.873 228.135 477.054 228.136Z" fill="white"></path><path d="M478.085 216.809H476.025V218.868H478.085V216.809Z" fill="white"></path><path d="M478.085 227.106H476.025V229.166H478.085V227.106Z" fill="white"></path><g filter="url(#filter8_dd_2604_66373)"><path d="M503.64 269.783H408.571C403.285 269.783 399 274.03 399 279.27V373.512C399 378.752 403.285 383 408.571 383H503.64C508.925 383 513.211 378.752 513.211 373.512V279.27C513.211 274.03 508.925 269.783 503.64 269.783Z" fill="white"></path></g><path d="M412.244 278.298C412.244 279.659 411.111 280.783 409.737 280.783C408.363 280.783 407.23 279.659 407.23 278.298C407.23 276.936 408.363 275.812 409.737 275.812C411.111 275.812 412.244 276.936 412.244 278.298Z" fill="#B8C4D0"></path><path d="M420.435 278.298C420.435 279.659 419.301 280.783 417.928 280.783C416.554 280.783 415.42 279.659 415.42 278.298C415.42 276.936 416.554 275.812 417.928 275.812C419.336 275.812 420.435 276.936 420.435 278.298Z" fill="#B8C4D0"></path><path d="M428.627 278.298C428.627 279.659 427.494 280.783 426.12 280.783C424.746 280.783 423.613 279.659 423.613 278.298C423.613 276.936 424.746 275.812 426.12 275.812C427.494 275.812 428.627 276.936 428.627 278.298Z" fill="#B8C4D0"></path><g clip-path="url(#clip0_2604_66373)"><path d="M452.597 312.925L448.81 316.712L455.629 318.553L456.924 317.259C457.283 316.899 458.376 315.806 456.213 313.643C454.049 311.48 452.957 312.573 452.597 312.932V312.925Z" fill="#FECE4D"></path><path d="M472.978 333.306L471.684 334.601L473.525 341.42L477.312 337.632C477.672 337.273 478.764 336.18 476.601 334.017C474.438 331.854 473.345 332.947 472.986 333.306H472.978Z" fill="#FECE4D"></path><path d="M433.429 338.501C432.157 338.381 431.221 338.718 430.3 339.631L430.173 339.758C430.091 339.841 430.038 339.9 430.001 339.953L439.103 346.569C440.113 344.369 441.677 341.906 443.077 339.87C439.896 339.347 436.64 338.815 433.429 338.508V338.501Z" fill="#9FC0FF"></path><path d="M451.73 356.801C451.423 353.59 450.891 350.334 450.367 347.153C448.332 348.553 445.862 350.11 443.668 351.128L450.285 360.229C450.33 360.192 450.397 360.132 450.48 360.057L450.607 359.93C451.52 359.017 451.864 358.081 451.737 356.801H451.73Z" fill="#9FC0FF"></path><path d="M460.367 321.45L456.093 320.297L455.217 320.065L454.342 319.833L447.568 318.007L446.752 317.79L445.951 317.573L438.496 315.567C437.598 315.245 436.655 315.454 436.026 316.083L435.652 316.457C434.027 318.082 434.514 318.561 434.798 318.852C434.858 318.912 434.918 318.965 434.993 319.025L450.966 330.858L460.359 321.465L460.367 321.45Z" fill="#9FC0FF"></path><path d="M474.693 351.786L472.665 344.264L472.448 343.463L472.231 342.647L470.404 335.873L470.172 334.998L469.94 334.122L468.788 329.848L459.394 339.242L471.243 355.229C471.288 355.282 471.34 355.342 471.4 355.401C471.684 355.686 472.171 356.172 473.795 354.548L474.169 354.174C474.798 353.545 475.008 352.602 474.701 351.771L474.693 351.786Z" fill="#9FC0FF"></path><path d="M450.809 344.982C451.063 344.803 451.295 344.631 451.527 344.466C452.545 343.725 453.286 343.141 453.503 342.924L457.328 339.099L469.588 326.839L476.894 319.534C477.882 318.546 480.007 313.269 478.488 311.734C476.961 310.222 471.684 312.348 470.696 313.336L463.391 320.641L451.131 332.909L447.306 336.734C447.089 336.951 446.505 337.692 445.764 338.71C445.599 338.935 445.427 339.174 445.247 339.429C445.083 339.661 444.918 339.893 444.746 340.14C443.997 341.225 443.174 342.475 442.403 343.747C441.445 345.327 440.809 346.547 440.375 347.497C440.255 347.767 440.15 348.014 440.06 348.238C440.03 348.313 440 348.381 439.978 348.448C439.956 348.515 439.933 348.575 439.911 348.635C439.866 348.762 439.821 348.889 439.783 349.002C439.409 350.199 439.574 350.574 439.604 350.626C439.656 350.656 440.03 350.821 441.228 350.446C441.34 350.409 441.468 350.371 441.595 350.319C441.655 350.297 441.715 350.274 441.782 350.252C441.849 350.229 441.917 350.199 441.991 350.169C442.216 350.08 442.463 349.975 442.732 349.855C443.683 349.421 444.903 348.785 446.482 347.827C447.755 347.056 449.005 346.232 450.09 345.484C450.337 345.312 450.569 345.147 450.801 344.982H450.809Z" fill="#3D7FFC"></path></g><path d="M399 287.233H513.211" stroke="#D2DCE4" stroke-width="1.63158"></path><g filter="url(#filter9_dd_2604_66373)"><path d="M639.061 11H543.993C538.707 11 534.422 15.2478 534.422 20.4878V114.73C534.422 119.97 538.707 124.217 543.993 124.217H639.061C644.347 124.217 648.632 119.97 648.632 114.73V20.4878C648.632 15.2478 644.347 11 639.061 11Z" fill="white"></path></g><path d="M547.665 19.5151C547.665 20.8769 546.531 22.0004 545.157 22.0004C543.784 22.0004 542.65 20.8769 542.65 19.5151C542.65 18.1533 543.784 17.0298 545.157 17.0298C546.531 17.0298 547.665 18.1533 547.665 19.5151Z" fill="#B8C4D0"></path><path d="M555.855 19.5151C555.855 20.8769 554.722 22.0004 553.348 22.0004C551.974 22.0004 550.841 20.8769 550.841 19.5151C550.841 18.1533 551.974 17.0298 553.348 17.0298C554.756 17.0298 555.855 18.1533 555.855 19.5151Z" fill="#B8C4D0"></path><path d="M564.047 19.5151C564.047 20.8769 562.914 22.0004 561.54 22.0004C560.167 22.0004 559.033 20.8769 559.033 19.5151C559.033 18.1533 560.167 17.0298 561.54 17.0298C562.914 17.0298 564.047 18.1533 564.047 19.5151Z" fill="#B8C4D0"></path><rect x="572.509" y="59.8331" width="40.5034" height="46.579" rx="2.02517" fill="#9FC0FF"></rect><rect x="577.572" y="64.8958" width="8.10069" height="8.10069" rx="1.01259" fill="#C6DBFF"></rect><rect x="577.572" y="77.0469" width="8.10069" height="8.10069" rx="1.01259" fill="#C6DBFF"></rect><rect x="577.572" y="89.198" width="8.10069" height="8.10069" rx="1.01259" fill="#C6DBFF"></rect><rect x="588.711" y="64.8958" width="8.10069" height="8.10069" rx="1.01259" fill="#C6DBFF"></rect><rect x="588.711" y="77.0469" width="8.10069" height="8.10069" rx="1.01259" fill="#C6DBFF"></rect><rect x="588.711" y="89.198" width="8.10069" height="17.214" rx="1.01259" fill="#3D7FFC"></rect><rect x="599.849" y="64.8958" width="8.10069" height="8.10069" rx="1.01259" fill="#C6DBFF"></rect><rect x="599.849" y="77.0469" width="8.10069" height="8.10069" rx="1.01259" fill="#C6DBFF"></rect><rect x="599.849" y="89.198" width="8.10069" height="8.10069" rx="1.01259" fill="#C6DBFF"></rect><path d="M576.047 47.1715H573.103V47.1661C572.94 47.1641 572.781 47.1153 572.649 47.0262C572.516 46.937 572.417 46.812 572.364 46.6682C572.354 46.6463 572.347 46.6237 572.34 46.601L571.476 44.0195L571.455 43.9548C571.418 43.8572 571.348 43.7734 571.256 43.7153C571.164 43.6572 571.055 43.628 570.944 43.6321C570.833 43.6362 570.726 43.6737 570.639 43.7384C570.552 43.8031 570.49 43.8917 570.462 43.9918L569.587 46.5913C569.587 46.5927 569.587 46.5945 569.587 46.5959C569.58 46.6231 569.571 46.6497 569.56 46.6757C569.506 46.8183 569.406 46.9421 569.274 47.0299C569.142 47.1178 568.984 47.1654 568.821 47.1669V47.1724H565.874C565.746 47.1931 565.629 47.2559 565.546 47.3493C565.463 47.4427 565.419 47.5604 565.421 47.6816C565.42 47.7599 565.439 47.8373 565.475 47.9081C565.511 47.9788 565.563 48.0412 565.629 48.0904L565.653 48.1085L567.941 49.7303C568.05 49.8033 568.138 49.8993 568.199 50.0106C568.26 50.1218 568.291 50.245 568.291 50.3698C568.29 50.4277 568.283 50.4856 568.269 50.5421C568.259 50.5856 568.245 50.6282 568.227 50.6694L567.359 53.2647V53.2739L567.353 53.2929C567.339 53.3408 567.331 53.3902 567.331 53.4399C567.329 53.5062 567.341 53.5721 567.367 53.634C567.392 53.6959 567.43 53.7528 567.48 53.8008C567.529 53.8488 567.587 53.8871 567.653 53.9139C567.718 53.9406 567.788 53.955 567.859 53.9563C567.951 53.9568 568.042 53.9334 568.121 53.8891L568.214 53.8256L570.486 52.2206L570.535 52.1845C570.661 52.1032 570.811 52.059 570.964 52.0576C571.117 52.0562 571.267 52.0979 571.395 52.1769C571.423 52.1935 571.45 52.2122 571.474 52.2328L573.733 53.8315L573.797 53.8773C573.88 53.9258 573.976 53.9511 574.074 53.9504C574.145 53.9488 574.215 53.9339 574.28 53.9071C574.345 53.8803 574.404 53.8421 574.453 53.7941C574.502 53.7461 574.54 53.6895 574.565 53.6277C574.591 53.5659 574.603 53.5002 574.601 53.434C574.601 53.3821 574.593 53.3303 574.577 53.2807C574.577 53.2729 574.571 53.2645 574.57 53.2559L573.698 50.6513C573.684 50.6175 573.672 50.5826 573.664 50.5471C573.627 50.4048 573.634 50.2559 573.683 50.1169C573.732 49.9778 573.821 49.8542 573.941 49.7597C573.961 49.7442 573.981 49.7306 574.001 49.7169L576.265 48.1161L576.333 48.0665C576.392 48.0174 576.439 47.957 576.471 47.8896C576.503 47.8222 576.519 47.7493 576.518 47.6757C576.518 47.5529 576.471 47.434 576.384 47.3413C576.298 47.2486 576.178 47.1884 576.047 47.1715Z" fill="#FECE4D"></path><path d="M590.836 47.1715H587.892V47.1661C587.729 47.1641 587.57 47.1153 587.438 47.0262C587.305 46.937 587.206 46.812 587.153 46.6682C587.143 46.6462 587.136 46.6237 587.129 46.601L586.265 44.0195L586.243 43.9548C586.206 43.8572 586.136 43.7734 586.044 43.7153C585.952 43.6572 585.843 43.628 585.732 43.6321C585.621 43.6362 585.514 43.6737 585.427 43.7384C585.34 43.8031 585.278 43.8917 585.25 43.9918L584.375 46.5913C584.375 46.5927 584.375 46.5945 584.375 46.5959C584.368 46.6231 584.359 46.6497 584.349 46.6757C584.294 46.8184 584.194 46.942 584.062 47.0299C583.93 47.1178 583.772 47.1655 583.609 47.1669V47.1724H580.662C580.534 47.1931 580.417 47.2559 580.334 47.3493C580.251 47.4427 580.207 47.5604 580.209 47.6816C580.208 47.7599 580.227 47.8373 580.263 47.9081C580.299 47.9788 580.352 48.0412 580.417 48.0904L580.441 48.1085L582.729 49.7303C582.864 49.8214 582.966 49.9472 583.025 50.0921C583.083 50.2369 583.094 50.3946 583.057 50.5454C583.047 50.589 583.033 50.6316 583.015 50.6727L582.147 53.2681V53.2773L582.141 53.2962C582.127 53.3442 582.119 53.394 582.119 53.4437C582.117 53.5099 582.129 53.5755 582.155 53.6374C582.18 53.6993 582.219 53.7562 582.268 53.8042C582.317 53.8522 582.375 53.8905 582.441 53.9172C582.506 53.9439 582.576 53.9583 582.647 53.9597C582.74 53.9601 582.83 53.9372 582.91 53.8928L583.002 53.829L585.274 52.2244L585.324 52.1883C585.45 52.107 585.599 52.0627 585.752 52.0614C585.905 52.06 586.055 52.1013 586.183 52.1803C586.211 52.1968 586.238 52.2155 586.263 52.2362L588.521 53.8349L588.585 53.8807C588.668 53.9292 588.764 53.9545 588.862 53.9538C588.933 53.9522 589.003 53.9377 589.068 53.9109C589.133 53.8841 589.192 53.8454 589.241 53.7975C589.29 53.7495 589.328 53.6929 589.354 53.6311C589.379 53.5693 589.391 53.5035 589.389 53.4374C589.389 53.3855 589.381 53.3341 589.365 53.2845C589.365 53.2767 589.36 53.2678 589.357 53.2592L588.485 50.6547C588.471 50.6209 588.459 50.586 588.451 50.5505C588.435 50.4896 588.427 50.4274 588.427 50.3648C588.426 50.2501 588.452 50.1365 588.504 50.0324C588.556 49.9283 588.631 49.836 588.726 49.7622C588.745 49.7468 588.765 49.7332 588.786 49.7194L591.049 48.119L591.117 48.069C591.176 48.0199 591.223 47.9595 591.255 47.8921C591.287 47.8247 591.303 47.7519 591.302 47.6782C591.303 47.5556 591.257 47.4365 591.171 47.3434C591.086 47.2502 590.967 47.1894 590.836 47.1715Z" fill="#FECE4D"></path><path d="M605.626 47.1715H602.681V47.1661C602.518 47.1641 602.359 47.1153 602.227 47.0262C602.095 46.937 601.995 46.812 601.942 46.6682C601.933 46.6462 601.925 46.6237 601.919 46.601L601.055 44.0195L601.033 43.9548C600.996 43.8572 600.926 43.7734 600.834 43.7153C600.742 43.6572 600.632 43.628 600.521 43.6321C600.41 43.6362 600.303 43.6737 600.217 43.7384C600.13 43.8031 600.068 43.8917 600.039 43.9918L599.165 46.5913C599.165 46.5913 599.165 46.5916 599.165 46.5959C599.158 46.6231 599.149 46.6496 599.138 46.6757C599.084 46.8183 598.984 46.9421 598.851 47.0299C598.719 47.1178 598.561 47.1654 598.399 47.1669V47.1724H595.451C595.323 47.1931 595.207 47.2559 595.124 47.3493C595.041 47.4427 594.996 47.5604 594.999 47.6816C594.998 47.76 595.016 47.8377 595.052 47.9085C595.088 47.9793 595.141 48.0415 595.207 48.0904L595.231 48.1085L597.519 49.7303C597.653 49.8214 597.756 49.9472 597.814 50.0921C597.872 50.2369 597.884 50.3946 597.847 50.5454C597.837 50.589 597.823 50.6316 597.804 50.6727L596.937 53.2681V53.2773L596.93 53.2962C596.916 53.3442 596.909 53.394 596.909 53.4437C596.907 53.5099 596.919 53.5755 596.944 53.6374C596.97 53.6993 597.008 53.7562 597.057 53.8042C597.106 53.8522 597.165 53.8905 597.23 53.9172C597.295 53.9439 597.365 53.9583 597.437 53.9597C597.529 53.9601 597.62 53.9372 597.699 53.8928L597.792 53.829L600.063 52.2244L600.113 52.1883C600.239 52.107 600.388 52.0627 600.542 52.0614C600.695 52.06 600.845 52.1013 600.973 52.1803C601.001 52.1968 601.027 52.2155 601.052 52.2362L603.311 53.8349L603.375 53.8807C603.458 53.9292 603.554 53.9545 603.652 53.9538C603.723 53.9522 603.793 53.9377 603.858 53.9109C603.923 53.8841 603.982 53.8454 604.03 53.7975C604.079 53.7495 604.118 53.6929 604.143 53.6311C604.169 53.5693 604.181 53.5035 604.179 53.4374C604.179 53.3855 604.171 53.3341 604.155 53.2845C604.155 53.2767 604.149 53.2678 604.147 53.2592L603.276 50.6547C603.261 50.6209 603.25 50.586 603.242 50.5505C603.226 50.4896 603.218 50.4274 603.218 50.3648C603.217 50.2501 603.243 50.1365 603.295 50.0324C603.346 49.9283 603.422 49.836 603.516 49.7622C603.535 49.7468 603.556 49.7332 603.576 49.7194L605.839 48.119L605.909 48.069C605.968 48.0199 606.015 47.9595 606.047 47.8921C606.078 47.8247 606.094 47.7519 606.094 47.6782C606.095 47.5554 606.048 47.4362 605.962 47.343C605.876 47.2498 605.757 47.189 605.626 47.1715Z" fill="#FECE4D"></path><path d="M620.406 47.1715H617.462V47.1661C617.298 47.1641 617.14 47.1153 617.007 47.0262C616.875 46.937 616.775 46.812 616.722 46.6682C616.713 46.6463 616.706 46.6237 616.699 46.601L615.835 44.0195L615.813 43.9548C615.776 43.8572 615.706 43.7734 615.614 43.7153C615.522 43.6572 615.413 43.628 615.302 43.6321C615.19 43.6362 615.084 43.6737 614.997 43.7384C614.91 43.8031 614.848 43.8917 614.819 43.9918L613.945 46.5913C613.945 46.5927 613.945 46.5945 613.945 46.5959C613.938 46.6231 613.929 46.6497 613.918 46.6757C613.864 46.8184 613.764 46.942 613.632 47.0299C613.5 47.1178 613.342 47.1655 613.179 47.1669V47.1724H610.232C610.103 47.1931 609.987 47.2559 609.904 47.3493C609.821 47.4427 609.777 47.5604 609.779 47.6816C609.778 47.76 609.796 47.8377 609.832 47.9085C609.868 47.9793 609.921 48.0415 609.987 48.0904L610.011 48.1085L612.299 49.7303C612.434 49.8213 612.536 49.9472 612.595 50.0921C612.653 50.2369 612.664 50.3946 612.627 50.5454C612.617 50.589 612.603 50.6316 612.585 50.6727L611.717 53.2681V53.2773L611.71 53.2962C611.696 53.3442 611.688 53.394 611.688 53.4437C611.686 53.5099 611.698 53.5755 611.724 53.6374C611.749 53.6993 611.787 53.7562 611.837 53.8042C611.886 53.8522 611.944 53.8905 612.01 53.9172C612.075 53.9439 612.145 53.9583 612.216 53.9597C612.308 53.9601 612.399 53.9372 612.478 53.8928L612.571 53.829L614.843 52.2244L614.892 52.1883C615.018 52.107 615.168 52.0627 615.321 52.0614C615.474 52.06 615.624 52.1013 615.752 52.1803C615.78 52.1968 615.807 52.2154 615.832 52.2362L618.091 53.8349L618.155 53.8807C618.238 53.9292 618.334 53.9545 618.432 53.9538C618.503 53.9522 618.573 53.9377 618.638 53.9109C618.703 53.8841 618.762 53.8454 618.811 53.7975C618.86 53.7495 618.898 53.6929 618.923 53.6311C618.949 53.5693 618.961 53.5035 618.959 53.4374C618.959 53.3855 618.951 53.3341 618.935 53.2845C618.935 53.2767 618.929 53.2678 618.927 53.2592L618.055 50.6547C618.041 50.6209 618.029 50.586 618.021 50.5505C618.005 50.4896 617.997 50.4274 617.997 50.3648C617.996 50.2501 618.022 50.1365 618.074 50.0324C618.125 49.9283 618.201 49.836 618.295 49.7622C618.315 49.7468 618.335 49.7332 618.355 49.7194L620.619 48.119L620.687 48.069C620.746 48.0199 620.793 47.9595 620.825 47.8921C620.857 47.8247 620.873 47.7519 620.872 47.6782C620.873 47.5556 620.827 47.4365 620.741 47.3434C620.655 47.2502 620.537 47.1894 620.406 47.1715Z" fill="#FECE4D"></path><path d="M534.422 28.4507H648.632" stroke="#D2DCE4" stroke-width="1.63158"></path><g filter="url(#filter10_dd_2604_66373)"><path d="M639.061 140.391H543.993C538.707 140.391 534.422 144.639 534.422 149.879V244.121C534.422 249.361 538.707 253.609 543.993 253.609H639.061C644.347 253.609 648.632 249.361 648.632 244.121V149.879C648.632 144.639 644.347 140.391 639.061 140.391Z" fill="white"></path></g><path d="M547.665 148.906C547.665 150.268 546.531 151.392 545.157 151.392C543.784 151.392 542.65 150.268 542.65 148.906C542.65 147.545 543.784 146.421 545.157 146.421C546.531 146.421 547.665 147.545 547.665 148.906Z" fill="#B8C4D0"></path><path d="M555.855 148.906C555.855 150.268 554.722 151.392 553.348 151.392C551.974 151.392 550.841 150.268 550.841 148.906C550.841 147.545 551.974 146.421 553.348 146.421C554.756 146.421 555.855 147.545 555.855 148.906Z" fill="#B8C4D0"></path><path d="M564.047 148.906C564.047 150.268 562.914 151.392 561.54 151.392C560.167 151.392 559.033 150.268 559.033 148.906C559.033 147.545 560.167 146.421 561.54 146.421C562.914 146.421 564.047 147.545 564.047 148.906Z" fill="#B8C4D0"></path><path d="M572.38 188.076H603.279L608.607 230.695H567.053L572.38 188.076Z" fill="#9FC0FF"></path><path d="M603.28 188.076L610.206 185.412L615.533 228.032L608.608 230.696L603.28 188.076Z" fill="#3D7FFC"></path><path d="M579.307 185.412H610.206L603.28 188.076H572.381L579.307 185.412Z" fill="#C6DBFF"></path><path d="M580.372 196.067C580.194 189.852 581.65 177.421 588.896 177.421C596.141 177.421 596.887 189.852 596.355 196.067" stroke="#FECE4D" stroke-width="1.73228"></path><path d="M534.422 157.842H648.632" stroke="#D2DCE4" stroke-width="1.63158"></path><g filter="url(#filter11_dd_2604_66373)"><path d="M639.061 269.783H543.993C538.707 269.783 534.422 274.03 534.422 279.27V373.512C534.422 378.752 538.707 383 543.993 383H639.061C644.347 383 648.632 378.752 648.632 373.512V279.27C648.632 274.03 644.347 269.783 639.061 269.783Z" fill="white"></path></g><path d="M547.665 278.298C547.665 279.659 546.531 280.783 545.157 280.783C543.784 280.783 542.65 279.659 542.65 278.298C542.65 276.936 543.784 275.812 545.157 275.812C546.531 275.812 547.665 276.936 547.665 278.298Z" fill="#B8C4D0"></path><path d="M555.855 278.298C555.855 279.659 554.722 280.783 553.348 280.783C551.974 280.783 550.841 279.659 550.841 278.298C550.841 276.936 551.974 275.812 553.348 275.812C554.756 275.812 555.855 276.936 555.855 278.298Z" fill="#B8C4D0"></path><path d="M564.047 278.298C564.047 279.659 562.914 280.783 561.54 280.783C560.167 280.783 559.033 279.659 559.033 278.298C559.033 276.936 560.167 275.812 561.54 275.812C562.914 275.812 564.047 276.936 564.047 278.298Z" fill="#B8C4D0"></path><g clip-path="url(#clip1_2604_66373)"><path d="M616.029 313.388L611.856 313.404C610.83 313.408 610.002 314.249 610.006 315.283L610.01 316.46C610.014 317.494 610.849 318.328 611.875 318.324L616.048 318.308C617.074 318.304 617.902 317.463 617.898 316.429L617.894 315.252C617.89 314.219 617.055 313.384 616.029 313.388Z" fill="#FECE4D"></path><path d="M573.547 313.554L569.373 313.57C568.348 313.574 567.519 314.416 567.523 315.449L567.528 316.626C567.532 317.66 568.366 318.495 569.392 318.491L573.565 318.475C574.591 318.47 575.42 317.629 575.416 316.595L575.411 315.418C575.407 314.385 574.573 313.55 573.547 313.554Z" fill="#FECE4D"></path><path d="M579.204 312.417C579.195 310 581.138 308.025 583.538 308.016L601.823 307.947C604.221 307.938 606.18 309.897 606.19 312.315L606.227 322.246L579.241 322.348L579.204 312.417ZM603.528 312.324C603.525 311.387 602.765 310.628 601.835 310.631L583.548 310.7C582.618 310.703 581.865 311.469 581.868 312.405L581.894 319.651L603.554 319.569L603.528 312.323V312.324Z" fill="#3D7FFC"></path><path d="M563.41 356.043L616.157 355.843C617.674 355.837 618.898 354.594 618.892 353.065L618.765 318.696C618.759 317.167 617.526 315.933 616.009 315.939L563.261 316.14C561.744 316.146 560.52 317.388 560.526 318.917L560.654 353.286C560.66 354.815 561.893 356.049 563.41 356.043Z" fill="#76A5FF"></path><path d="M622.309 355.821L569.562 356.025C568.047 356.031 566.812 354.795 566.806 353.268L566.675 318.899C566.669 317.372 567.895 316.127 569.41 316.121L622.157 315.917C623.672 315.911 624.907 317.146 624.913 318.674L625.044 353.043C625.05 354.57 623.824 355.815 622.309 355.821Z" fill="white"></path><path d="M619.596 317.721L571.996 317.906C570.622 317.911 569.512 319.038 569.517 320.423L569.636 351.711C569.641 353.096 570.76 354.215 572.134 354.209L619.734 354.025C621.109 354.02 622.219 352.892 622.214 351.507L622.094 320.22C622.089 318.835 620.971 317.716 619.596 317.721Z" fill="#3D7FFC"></path><path d="M603.872 340.704C606.468 336.245 604.985 330.509 600.561 327.893C596.137 325.277 590.446 326.771 587.85 331.23C585.255 335.689 586.737 341.425 591.161 344.041C595.585 346.657 601.276 345.163 603.872 340.704Z" fill="white"></path><path d="M601.415 334.892L601.422 336.999L596.911 337.016L596.927 341.563L594.835 341.571L594.819 337.023L590.307 337.039L590.299 334.933L594.812 334.916L594.795 330.37L596.887 330.362L596.904 334.909L601.415 334.892Z" fill="#3D7FFC"></path><path d="M569.527 323.975L569.631 351.712C569.635 353.097 570.754 354.215 572.128 354.211L614.197 354.051C576.121 353.152 570.369 329.783 569.527 323.975Z" fill="#3D7FFC"></path></g><path d="M534.422 287.233H648.632" stroke="#D2DCE4" stroke-width="1.63158"></path><defs><filter id="filter0_dd_2604_66373" x="315.829" y="179.829" width="42.3553" height="42.3553" filterUnits="userSpaceOnUse" color-interpolation-filters="sRGB"><feFlood flood-opacity="0" result="BackgroundImageFix"></feFlood><feColorMatrix in="SourceAlpha" type="matrix" values="0 0 0 0 0 0 0 0 0 0 0 0 0 0 0 0 0 0 127 0" result="hardAlpha"></feColorMatrix><feOffset></feOffset><feGaussianBlur stdDeviation="3.43421"></feGaussianBlur><feColorMatrix type="matrix" values="0 0 0 0 0.239216 0 0 0 0 0.498039 0 0 0 0 0.988235 0 0 0 1 0"></feColorMatrix><feBlend mode="normal" in2="BackgroundImageFix" result="effect1_dropShadow_2604_66373"></feBlend><feColorMatrix in="SourceAlpha" type="matrix" values="0 0 0 0 0 0 0 0 0 0 0 0 0 0 0 0 0 0 127 0" result="hardAlpha"></feColorMatrix><feOffset></feOffset><feGaussianBlur stdDeviation="8.58553"></feGaussianBlur><feColorMatrix type="matrix" values="0 0 0 0 0.239216 0 0 0 0 0.498039 0 0 0 0 0.988235 0 0 0 1 0"></feColorMatrix><feBlend mode="normal" in2="effect1_dropShadow_2604_66373" result="effect2_dropShadow_2604_66373"></feBlend><feBlend mode="normal" in="SourceGraphic" in2="effect2_dropShadow_2604_66373" result="shape"></feBlend></filter><filter id="filter1_dd_2604_66373" x="334.829" y="55.8289" width="42.3553" height="42.3553" filterUnits="userSpaceOnUse" color-interpolation-filters="sRGB"><feFlood flood-opacity="0" result="BackgroundImageFix"></feFlood><feColorMatrix in="SourceAlpha" type="matrix" values="0 0 0 0 0 0 0 0 0 0 0 0 0 0 0 0 0 0 127 0" result="hardAlpha"></feColorMatrix><feOffset></feOffset><feGaussianBlur stdDeviation="3.43421"></feGaussianBlur><feColorMatrix type="matrix" values="0 0 0 0 0.239216 0 0 0 0 0.498039 0 0 0 0 0.988235 0 0 0 1 0"></feColorMatrix><feBlend mode="normal" in2="BackgroundImageFix" result="effect1_dropShadow_2604_66373"></feBlend><feColorMatrix in="SourceAlpha" type="matrix" values="0 0 0 0 0 0 0 0 0 0 0 0 0 0 0 0 0 0 127 0" result="hardAlpha"></feColorMatrix><feOffset></feOffset><feGaussianBlur stdDeviation="8.58553"></feGaussianBlur><feColorMatrix type="matrix" values="0 0 0 0 0.239216 0 0 0 0 0.498039 0 0 0 0 0.988235 0 0 0 1 0"></feColorMatrix><feBlend mode="normal" in2="effect1_dropShadow_2604_66373" result="effect2_dropShadow_2604_66373"></feBlend><feBlend mode="normal" in="SourceGraphic" in2="effect2_dropShadow_2604_66373" result="shape"></feBlend></filter><filter id="filter2_dd_2604_66373" x="333.829" y="285.829" width="42.3553" height="42.3553" filterUnits="userSpaceOnUse" color-interpolation-filters="sRGB"><feFlood flood-opacity="0" result="BackgroundImageFix"></feFlood><feColorMatrix in="SourceAlpha" type="matrix" values="0 0 0 0 0 0 0 0 0 0 0 0 0 0 0 0 0 0 127 0" result="hardAlpha"></feColorMatrix><feOffset></feOffset><feGaussianBlur stdDeviation="3.43421"></feGaussianBlur><feColorMatrix type="matrix" values="0 0 0 0 0.239216 0 0 0 0 0.498039 0 0 0 0 0.988235 0 0 0 1 0"></feColorMatrix><feBlend mode="normal" in2="BackgroundImageFix" result="effect1_dropShadow_2604_66373"></feBlend><feColorMatrix in="SourceAlpha" type="matrix" values="0 0 0 0 0 0 0 0 0 0 0 0 0 0 0 0 0 0 127 0" result="hardAlpha"></feColorMatrix><feOffset></feOffset><feGaussianBlur stdDeviation="8.58553"></feGaussianBlur><feColorMatrix type="matrix" values="0 0 0 0 0.239216 0 0 0 0 0.498039 0 0 0 0 0.988235 0 0 0 1 0"></feColorMatrix><feBlend mode="normal" in2="effect1_dropShadow_2604_66373" result="effect2_dropShadow_2604_66373"></feBlend><feBlend mode="normal" in="SourceGraphic" in2="effect2_dropShadow_2604_66373" result="shape"></feBlend></filter><filter id="filter3_d_2604_66373" x="56.3874" y="110.316" width="230.281" height="158.816" filterUnits="userSpaceOnUse" color-interpolation-filters="sRGB"><feFlood flood-opacity="0" result="BackgroundImageFix"></feFlood><feColorMatrix in="SourceAlpha" type="matrix" values="0 0 0 0 0 0 0 0 0 0 0 0 0 0 0 0 0 0 127 0" result="hardAlpha"></feColorMatrix><feOffset dx="5.6844" dy="5.6844"></feOffset><feGaussianBlur stdDeviation="5.6844"></feGaussianBlur><feColorMatrix type="matrix" values="0 0 0 0 0.0941177 0 0 0 0 0.188235 0 0 0 0 0.247059 0 0 0 0.05 0"></feColorMatrix><feBlend mode="normal" in2="BackgroundImageFix" result="effect1_dropShadow_2604_66373"></feBlend><feBlend mode="normal" in="SourceGraphic" in2="effect1_dropShadow_2604_66373" result="shape"></feBlend></filter><filter id="filter4_d_2604_66373" x="51.9165" y="116.613" width="227.854" height="145.62" filterUnits="userSpaceOnUse" color-interpolation-filters="sRGB"><feFlood flood-opacity="0" result="BackgroundImageFix"></feFlood><feColorMatrix in="SourceAlpha" type="matrix" values="0 0 0 0 0 0 0 0 0 0 0 0 0 0 0 0 0 0 127 0" result="hardAlpha"></feColorMatrix><feOffset></feOffset><feGaussianBlur stdDeviation="5.07762"></feGaussianBlur><feColorMatrix type="matrix" values="0 0 0 0 0 0 0 0 0 0.0486432 0 0 0 0 0.221106 0 0 0 0.06 0"></feColorMatrix><feBlend mode="normal" in2="BackgroundImageFix" result="effect1_dropShadow_2604_66373"></feBlend><feBlend mode="normal" in="SourceGraphic" in2="effect1_dropShadow_2604_66373" result="shape"></feBlend></filter><filter id="filter5_dd_2604_66373" x="0.234518" y="156.993" width="231.388" height="159.815" filterUnits="userSpaceOnUse" color-interpolation-filters="sRGB"><feFlood flood-opacity="0" result="BackgroundImageFix"></feFlood><feColorMatrix in="SourceAlpha" type="matrix" values="0 0 0 0 0 0 0 0 0 0 0 0 0 0 0 0 0 0 127 0" result="hardAlpha"></feColorMatrix><feOffset dy="3.92183"></feOffset><feGaussianBlur stdDeviation="4.90228"></feGaussianBlur><feColorMatrix type="matrix" values="0 0 0 0 0.607843 0 0 0 0 0.67451 0 0 0 0 0.737255 0 0 0 0.35 0"></feColorMatrix><feBlend mode="normal" in2="BackgroundImageFix" result="effect1_dropShadow_2604_66373"></feBlend><feColorMatrix in="SourceAlpha" type="matrix" values="0 0 0 0 0 0 0 0 0 0 0 0 0 0 0 0 0 0 127 0" result="hardAlpha"></feColorMatrix><feOffset dy="1.96091"></feOffset><feGaussianBlur stdDeviation="5.88274"></feGaussianBlur><feColorMatrix type="matrix" values="0 0 0 0 0.89625 0 0 0 0 0.930414 0 0 0 0 0.995833 0 0 0 0.5 0"></feColorMatrix><feBlend mode="normal" in2="effect1_dropShadow_2604_66373" result="effect2_dropShadow_2604_66373"></feBlend><feBlend mode="normal" in="SourceGraphic" in2="effect2_dropShadow_2604_66373" result="shape"></feBlend></filter><filter id="filter6_dd_2604_66373" x="385.852" y="0.0434785" width="140.506" height="139.513" filterUnits="userSpaceOnUse" color-interpolation-filters="sRGB"><feFlood flood-opacity="0" result="BackgroundImageFix"></feFlood><feColorMatrix in="SourceAlpha" type="matrix" values="0 0 0 0 0 0 0 0 0 0 0 0 0 0 0 0 0 0 127 0" result="hardAlpha"></feColorMatrix><feOffset dy="4.38261"></feOffset><feGaussianBlur stdDeviation="5.47826"></feGaussianBlur><feColorMatrix type="matrix" values="0 0 0 0 0.607843 0 0 0 0 0.67451 0 0 0 0 0.737255 0 0 0 0.35 0"></feColorMatrix><feBlend mode="normal" in2="BackgroundImageFix" result="effect1_dropShadow_2604_66373"></feBlend><feColorMatrix in="SourceAlpha" type="matrix" values="0 0 0 0 0 0 0 0 0 0 0 0 0 0 0 0 0 0 127 0" result="hardAlpha"></feColorMatrix><feOffset dy="2.1913"></feOffset><feGaussianBlur stdDeviation="6.57391"></feGaussianBlur><feColorMatrix type="matrix" values="0 0 0 0 0.89625 0 0 0 0 0.930414 0 0 0 0 0.995833 0 0 0 0.5 0"></feColorMatrix><feBlend mode="normal" in2="effect1_dropShadow_2604_66373" result="effect2_dropShadow_2604_66373"></feBlend><feBlend mode="normal" in="SourceGraphic" in2="effect2_dropShadow_2604_66373" result="shape"></feBlend></filter><filter id="filter7_dd_2604_66373" x="385.852" y="129.435" width="140.506" height="139.513" filterUnits="userSpaceOnUse" color-interpolation-filters="sRGB"><feFlood flood-opacity="0" result="BackgroundImageFix"></feFlood><feColorMatrix in="SourceAlpha" type="matrix" values="0 0 0 0 0 0 0 0 0 0 0 0 0 0 0 0 0 0 127 0" result="hardAlpha"></feColorMatrix><feOffset dy="4.38261"></feOffset><feGaussianBlur stdDeviation="5.47826"></feGaussianBlur><feColorMatrix type="matrix" values="0 0 0 0 0.607843 0 0 0 0 0.67451 0 0 0 0 0.737255 0 0 0 0.35 0"></feColorMatrix><feBlend mode="normal" in2="BackgroundImageFix" result="effect1_dropShadow_2604_66373"></feBlend><feColorMatrix in="SourceAlpha" type="matrix" values="0 0 0 0 0 0 0 0 0 0 0 0 0 0 0 0 0 0 127 0" result="hardAlpha"></feColorMatrix><feOffset dy="2.1913"></feOffset><feGaussianBlur stdDeviation="6.57391"></feGaussianBlur><feColorMatrix type="matrix" values="0 0 0 0 0.89625 0 0 0 0 0.930414 0 0 0 0 0.995833 0 0 0 0.5 0"></feColorMatrix><feBlend mode="normal" in2="effect1_dropShadow_2604_66373" result="effect2_dropShadow_2604_66373"></feBlend><feBlend mode="normal" in="SourceGraphic" in2="effect2_dropShadow_2604_66373" result="shape"></feBlend></filter><filter id="filter8_dd_2604_66373" x="385.852" y="258.826" width="140.506" height="139.513" filterUnits="userSpaceOnUse" color-interpolation-filters="sRGB"><feFlood flood-opacity="0" result="BackgroundImageFix"></feFlood><feColorMatrix in="SourceAlpha" type="matrix" values="0 0 0 0 0 0 0 0 0 0 0 0 0 0 0 0 0 0 127 0" result="hardAlpha"></feColorMatrix><feOffset dy="4.38261"></feOffset><feGaussianBlur stdDeviation="5.47826"></feGaussianBlur><feColorMatrix type="matrix" values="0 0 0 0 0.607843 0 0 0 0 0.67451 0 0 0 0 0.737255 0 0 0 0.35 0"></feColorMatrix><feBlend mode="normal" in2="BackgroundImageFix" result="effect1_dropShadow_2604_66373"></feBlend><feColorMatrix in="SourceAlpha" type="matrix" values="0 0 0 0 0 0 0 0 0 0 0 0 0 0 0 0 0 0 127 0" result="hardAlpha"></feColorMatrix><feOffset dy="2.1913"></feOffset><feGaussianBlur stdDeviation="6.57391"></feGaussianBlur><feColorMatrix type="matrix" values="0 0 0 0 0.89625 0 0 0 0 0.930414 0 0 0 0 0.995833 0 0 0 0.5 0"></feColorMatrix><feBlend mode="normal" in2="effect1_dropShadow_2604_66373" result="effect2_dropShadow_2604_66373"></feBlend><feBlend mode="normal" in="SourceGraphic" in2="effect2_dropShadow_2604_66373" result="shape"></feBlend></filter><filter id="filter9_dd_2604_66373" x="521.274" y="0.0434785" width="140.506" height="139.513" filterUnits="userSpaceOnUse" color-interpolation-filters="sRGB"><feFlood flood-opacity="0" result="BackgroundImageFix"></feFlood><feColorMatrix in="SourceAlpha" type="matrix" values="0 0 0 0 0 0 0 0 0 0 0 0 0 0 0 0 0 0 127 0" result="hardAlpha"></feColorMatrix><feOffset dy="4.38261"></feOffset><feGaussianBlur stdDeviation="5.47826"></feGaussianBlur><feColorMatrix type="matrix" values="0 0 0 0 0.607843 0 0 0 0 0.67451 0 0 0 0 0.737255 0 0 0 0.35 0"></feColorMatrix><feBlend mode="normal" in2="BackgroundImageFix" result="effect1_dropShadow_2604_66373"></feBlend><feColorMatrix in="SourceAlpha" type="matrix" values="0 0 0 0 0 0 0 0 0 0 0 0 0 0 0 0 0 0 127 0" result="hardAlpha"></feColorMatrix><feOffset dy="2.1913"></feOffset><feGaussianBlur stdDeviation="6.57391"></feGaussianBlur><feColorMatrix type="matrix" values="0 0 0 0 0.89625 0 0 0 0 0.930414 0 0 0 0 0.995833 0 0 0 0.5 0"></feColorMatrix><feBlend mode="normal" in2="effect1_dropShadow_2604_66373" result="effect2_dropShadow_2604_66373"></feBlend><feBlend mode="normal" in="SourceGraphic" in2="effect2_dropShadow_2604_66373" result="shape"></feBlend></filter><filter id="filter10_dd_2604_66373" x="521.274" y="129.435" width="140.506" height="139.513" filterUnits="userSpaceOnUse" color-interpolation-filters="sRGB"><feFlood flood-opacity="0" result="BackgroundImageFix"></feFlood><feColorMatrix in="SourceAlpha" type="matrix" values="0 0 0 0 0 0 0 0 0 0 0 0 0 0 0 0 0 0 127 0" result="hardAlpha"></feColorMatrix><feOffset dy="4.38261"></feOffset><feGaussianBlur stdDeviation="5.47826"></feGaussianBlur><feColorMatrix type="matrix" values="0 0 0 0 0.607843 0 0 0 0 0.67451 0 0 0 0 0.737255 0 0 0 0.35 0"></feColorMatrix><feBlend mode="normal" in2="BackgroundImageFix" result="effect1_dropShadow_2604_66373"></feBlend><feColorMatrix in="SourceAlpha" type="matrix" values="0 0 0 0 0 0 0 0 0 0 0 0 0 0 0 0 0 0 127 0" result="hardAlpha"></feColorMatrix><feOffset dy="2.1913"></feOffset><feGaussianBlur stdDeviation="6.57391"></feGaussianBlur><feColorMatrix type="matrix" values="0 0 0 0 0.89625 0 0 0 0 0.930414 0 0 0 0 0.995833 0 0 0 0.5 0"></feColorMatrix><feBlend mode="normal" in2="effect1_dropShadow_2604_66373" result="effect2_dropShadow_2604_66373"></feBlend><feBlend mode="normal" in="SourceGraphic" in2="effect2_dropShadow_2604_66373" result="shape"></feBlend></filter><filter id="filter11_dd_2604_66373" x="521.274" y="258.826" width="140.506" height="139.513" filterUnits="userSpaceOnUse" color-interpolation-filters="sRGB"><feFlood flood-opacity="0" result="BackgroundImageFix"></feFlood><feColorMatrix in="SourceAlpha" type="matrix" values="0 0 0 0 0 0 0 0 0 0 0 0 0 0 0 0 0 0 127 0" result="hardAlpha"></feColorMatrix><feOffset dy="4.38261"></feOffset><feGaussianBlur stdDeviation="5.47826"></feGaussianBlur><feColorMatrix type="matrix" values="0 0 0 0 0.607843 0 0 0 0 0.67451 0 0 0 0 0.737255 0 0 0 0.35 0"></feColorMatrix><feBlend mode="normal" in2="BackgroundImageFix" result="effect1_dropShadow_2604_66373"></feBlend><feColorMatrix in="SourceAlpha" type="matrix" values="0 0 0 0 0 0 0 0 0 0 0 0 0 0 0 0 0 0 127 0" result="hardAlpha"></feColorMatrix><feOffset dy="2.1913"></feOffset><feGaussianBlur stdDeviation="6.57391"></feGaussianBlur><feColorMatrix type="matrix" values="0 0 0 0 0.89625 0 0 0 0 0.930414 0 0 0 0 0.995833 0 0 0 0.5 0"></feColorMatrix><feBlend mode="normal" in2="effect1_dropShadow_2604_66373" result="effect2_dropShadow_2604_66373"></feBlend><feBlend mode="normal" in="SourceGraphic" in2="effect2_dropShadow_2604_66373" result="shape"></feBlend></filter><linearGradient id="paint0_linear_2604_66373" x1="293.441" y1="141.842" x2="414.783" y2="92.6183" gradientUnits="userSpaceOnUse"><stop stop-color="#3D7FFC"></stop><stop offset="0.916667" stop-color="#9FC0FF" stop-opacity="0"></stop></linearGradient><linearGradient id="paint1_linear_2604_66373" x1="279.704" y1="191.993" x2="390.998" y2="190.373" gradientUnits="userSpaceOnUse"><stop stop-color="#3D7FFC"></stop><stop offset="1" stop-color="#9FC0FF" stop-opacity="0"></stop></linearGradient><linearGradient id="paint2_linear_2604_66373" x1="293.441" y1="260.145" x2="414.783" y2="309.368" gradientUnits="userSpaceOnUse"><stop stop-color="#3D7FFC"></stop><stop offset="0.916667" stop-color="#9FC0FF" stop-opacity="0"></stop></linearGradient><clipPath id="clip0_2604_66373"><rect width="49.0186" height="49.0186" fill="white" transform="translate(430 311.21)"></rect></clipPath><clipPath id="clip1_2604_66373"><rect width="64.5192" height="48.0961" fill="white" transform="translate(560.526 307.947)"></rect></clipPath></defs></svg>