<svg width="185" height="185" viewBox="0 0 185 185" fill="none" xmlns="http://www.w3.org/2000/svg">
<circle cx="95.2476" cy="96.1634" r="73.2673" fill="#F5F8FF"/>
<g opacity="0.2">
<path d="M46.1575 32.486C46.1575 31.2361 47.1714 30.2229 48.4221 30.2229H141.981C143.232 30.2229 144.246 31.2361 144.246 32.486V96.6992C144.246 97.9491 143.232 98.9623 141.981 98.9623H48.4221C47.1714 98.9623 46.1575 97.9491 46.1575 96.6992V32.486Z" fill="white"/>
<path d="M46.1575 32.66C46.1575 31.314 47.169 30.2229 48.4169 30.2229H141.73C142.978 30.2229 143.99 31.314 143.99 32.66V38.6717H46.1575V32.66Z" fill="#000C36"/>
<path d="M55.8203 34.4481C55.8203 35.4402 55.0013 36.2586 54.0086 36.2586C53.0159 36.2586 52.1969 35.4402 52.1969 34.4481C52.1969 33.4561 53.0159 32.6377 54.0086 32.6377C55.0013 32.6377 55.8203 33.4561 55.8203 34.4481Z" fill="#F66058"/>
<path d="M63.0663 34.4481C63.0663 35.4402 62.2473 36.2586 61.2546 36.2586C60.2619 36.2586 59.4429 35.4402 59.4429 34.4481C59.4429 33.4561 60.2619 32.6377 61.2546 32.6377C62.2721 32.6377 63.0663 33.4561 63.0663 34.4481Z" fill="#F9BD2E"/>
<path d="M70.3121 34.4481C70.3121 35.4402 69.4931 36.2586 68.5004 36.2586C67.5077 36.2586 66.6887 35.4402 66.6887 34.4481C66.6887 33.4561 67.5077 32.6377 68.5004 32.6377C69.4931 32.6377 70.3121 33.4561 70.3121 34.4481Z" fill="#3CC840"/>
<path d="M46.1575 38.2437H144.246V52.5011H46.1575V38.2437Z" fill="#EDF1F6"/>
<path d="M55.0752 58.7392H135.329V91.7096H55.0752V58.7392Z" fill="#EDF1F6"/>
<path fill-rule="evenodd" clip-rule="evenodd" d="M56.858 45.1116C56.858 43.7784 57.8963 42.6976 59.177 42.6976H130.935C132.216 42.6976 133.254 43.7784 133.254 45.1116C133.254 46.4448 132.216 47.5255 130.935 47.5255L59.177 47.5255C57.8963 47.5255 56.858 46.4448 56.858 45.1116Z" fill="white"/>
</g>
<g opacity="0.5">
<path d="M36.9927 45.5758C36.9927 44.0928 38.1957 42.8906 39.6797 42.8906H150.69C152.174 42.8906 153.377 44.0928 153.377 45.5758V121.767C153.377 123.25 152.174 124.452 150.69 124.452H39.6797C38.1957 124.452 36.9927 123.25 36.9927 121.767V45.5758Z" fill="white"/>
<path d="M36.9927 45.7824C36.9927 44.1853 38.1929 42.8906 39.6735 42.8906H150.393C151.873 42.8906 153.073 44.1853 153.073 45.7824V52.9153H36.9927V45.7824Z" fill="#000C36"/>
<path d="M48.4592 47.9009C48.4592 49.078 47.4874 50.049 46.3095 50.049C45.1316 50.049 44.1598 49.078 44.1598 47.9009C44.1598 46.7238 45.1316 45.7527 46.3095 45.7527C47.4874 45.7527 48.4592 46.7238 48.4592 47.9009Z" fill="#F66058"/>
<path d="M57.0546 47.9009C57.0546 49.078 56.0829 50.049 54.905 50.049C53.7271 50.049 52.7554 49.078 52.7554 47.9009C52.7554 46.7238 53.7271 45.7527 54.905 45.7527C56.1123 45.7527 57.0546 46.7238 57.0546 47.9009Z" fill="#F9BD2E"/>
<path d="M65.6537 47.9009C65.6537 49.078 64.682 50.049 63.5041 50.049C62.3262 50.049 61.3545 49.078 61.3545 47.9009C61.3545 46.7238 62.3262 45.7527 63.5041 45.7527C64.682 45.7527 65.6537 46.7238 65.6537 47.9009Z" fill="#3CC840"/>
<path d="M36.9927 52.4033H153.377V69.3202H36.9927V52.4033Z" fill="#EDF1F6"/>
<path d="M47.5715 76.7268H142.795V115.847H47.5715V76.7268Z" fill="#EDF1F6"/>
<path fill-rule="evenodd" clip-rule="evenodd" d="M49.6909 60.5585C49.6909 58.9767 50.9228 57.6943 52.4425 57.6943H137.586C139.105 57.6943 140.337 58.9767 140.337 60.5585C140.337 62.1404 139.105 63.4227 137.586 63.4227L52.4425 63.4227C50.9228 63.4227 49.6909 62.1404 49.6909 60.5585Z" fill="white"/>
</g>
<g filter="url(#filter0_d_19036_43728)">
<path d="M29.6606 59.7939C29.6606 58.1306 31.01 56.7822 32.6745 56.7822H157.186C158.851 56.7822 160.2 58.1306 160.2 59.7939V145.251C160.2 146.915 158.851 148.263 157.186 148.263H32.6745C31.01 148.263 29.6606 146.915 29.6606 145.251V59.7939Z" fill="white"/>
</g>
<path d="M29.6606 60.0256C29.6606 58.2343 31.0069 56.7822 32.6675 56.7822H156.853C158.513 56.7822 159.859 58.2343 159.859 60.0256V68.0261H29.6606V60.0256Z" fill="#000C36"/>
<path d="M42.5198 62.4042C42.5198 63.7244 41.4299 64.8136 40.1088 64.8136C38.7877 64.8136 37.6978 63.7244 37.6978 62.4042C37.6978 61.0839 38.7877 59.9948 40.1088 59.9948C41.4299 59.9948 42.5198 61.0839 42.5198 62.4042Z" fill="#F66058"/>
<path d="M52.1645 62.4042C52.1645 63.7244 51.0745 64.8136 49.7534 64.8136C48.4322 64.8136 47.3423 63.7244 47.3423 62.4042C47.3423 61.0839 48.4322 59.9948 49.7534 59.9948C51.1076 59.9948 52.1645 61.0839 52.1645 62.4042Z" fill="#F9BD2E"/>
<path d="M61.8089 62.4042C61.8089 63.7244 60.719 64.8136 59.3978 64.8136C58.0767 64.8136 56.9867 63.7244 56.9867 62.4042C56.9867 61.0839 58.0767 59.9948 59.3978 59.9948C60.719 59.9948 61.8089 61.0839 61.8089 62.4042Z" fill="#3CC840"/>
<path d="M29.6606 67.4538H160.2V86.4282H29.6606V67.4538Z" fill="#EDF1F6"/>
<path d="M41.5282 94.7324H148.333V138.611H41.5282V94.7324Z" fill="#EDF1F6"/>
<path fill-rule="evenodd" clip-rule="evenodd" d="M43.9017 76.598C43.9017 74.8237 45.2835 73.3854 46.9879 73.3854H142.486C144.191 73.3854 145.573 74.8237 145.573 76.598C145.573 78.3722 144.191 79.8105 142.486 79.8105L46.9879 79.8105C45.2835 79.8105 43.9017 78.3722 43.9017 76.598Z" fill="white"/>
<path d="M110.96 103.96C106.684 108.235 103.773 113.683 102.593 119.613C101.414 125.543 102.019 131.69 104.333 137.277C106.647 142.863 110.565 147.638 115.593 150.997C120.62 154.356 126.531 156.149 132.578 156.149C138.624 156.149 144.535 154.356 149.562 150.997C154.59 147.638 158.508 142.863 160.822 137.277C163.136 131.69 163.742 125.543 162.562 119.613C161.383 113.683 158.471 108.235 154.195 103.96C151.357 101.121 147.986 98.8689 144.277 97.3325C140.568 95.7961 136.592 95.0052 132.578 95.0052C128.563 95.0052 124.587 95.7961 120.878 97.3325C117.169 98.8689 113.799 101.121 110.96 103.96ZM150.033 143.033C146.58 146.488 142.18 148.841 137.39 149.795C132.6 150.749 127.634 150.261 123.121 148.392C118.609 146.524 114.751 143.359 112.037 139.298C109.324 135.237 107.875 130.462 107.875 125.578C107.875 120.693 109.324 115.919 112.037 111.858C114.751 107.797 118.609 104.632 123.121 102.763C127.634 100.895 132.6 100.407 137.39 101.36C142.18 102.314 146.58 104.668 150.033 108.122C154.661 112.753 157.26 119.031 157.26 125.578C157.26 132.124 154.661 138.403 150.033 143.033Z" fill="#3D7FFC"/>
<path d="M157.164 143.513L150.513 150.165L153.007 152.659L159.659 146.007L157.164 143.513Z" fill="#C6DBFF"/>
<path d="M158.711 145.206L152.179 151.738L169.162 168.721L175.694 162.189L158.711 145.206Z" fill="#091B36"/>
<path d="M158.711 145.199L157.405 146.506L174.395 163.483L175.701 162.176L158.711 145.199Z" fill="#091B36"/>
<path d="M171 170.636L172.99 172.626C173.87 173.506 175.063 174 176.308 174C177.552 174 178.746 173.506 179.626 172.626C180.506 171.746 181 170.552 181 169.308C181 168.063 180.506 166.87 179.626 165.99L177.636 164L171 170.636Z" fill="#091B36"/>
<path d="M175.697 162.195L169.165 168.728L171.124 170.687L177.656 164.155L175.697 162.195Z" fill="#091B36"/>
<path d="M114.346 107.288C110.728 110.905 108.264 115.514 107.265 120.533C106.267 125.551 106.779 130.752 108.737 135.479C110.695 140.206 114.01 144.247 118.264 147.089C122.519 149.932 127.52 151.449 132.637 151.449C137.753 151.449 142.755 149.932 147.009 147.089C151.263 144.247 154.579 140.206 156.536 135.479C158.494 130.752 159.006 125.551 158.008 120.533C157.009 115.514 154.545 110.905 150.927 107.288C146.076 102.437 139.497 99.7124 132.637 99.7124C125.777 99.7124 119.198 102.437 114.346 107.288ZM150.092 143.033C146.639 146.488 142.239 148.841 137.449 149.795C132.659 150.749 127.693 150.261 123.18 148.392C118.668 146.524 114.81 143.359 112.096 139.298C109.383 135.237 107.934 130.462 107.934 125.578C107.934 120.693 109.383 115.919 112.096 111.858C114.81 107.797 118.668 104.632 123.18 102.763C127.693 100.895 132.659 100.407 137.449 101.361C142.239 102.314 146.639 104.668 150.092 108.122C154.712 112.761 157.301 119.043 157.29 125.59C157.279 132.136 154.669 138.411 150.033 143.033H150.092Z" fill="#3D7FFC"/>
<defs>
<filter id="filter0_d_19036_43728" x="15.6606" y="43.7822" width="158.539" height="119.481" filterUnits="userSpaceOnUse" color-interpolation-filters="sRGB">
<feFlood flood-opacity="0" result="BackgroundImageFix"/>
<feColorMatrix in="SourceAlpha" type="matrix" values="0 0 0 0 0 0 0 0 0 0 0 0 0 0 0 0 0 0 127 0" result="hardAlpha"/>
<feOffset dy="1"/>
<feGaussianBlur stdDeviation="7"/>
<feComposite in2="hardAlpha" operator="out"/>
<feColorMatrix type="matrix" values="0 0 0 0 0.0354167 0 0 0 0 0.105426 0 0 0 0 0.2125 0 0 0 0.04 0"/>
<feBlend mode="normal" in2="BackgroundImageFix" result="effect1_dropShadow_19036_43728"/>
<feBlend mode="normal" in="SourceGraphic" in2="effect1_dropShadow_19036_43728" result="shape"/>
</filter>
</defs>
</svg>
