<svg width="185" height="185" viewBox="0 0 185 185" fill="none" xmlns="http://www.w3.org/2000/svg">
<ellipse cx="88.8418" cy="96.1634" rx="70.3698" ry="73.2673" fill="#F5F8FF"/>
<g filter="url(#filter0_d_19036_43937)">
<path d="M28 47.0118C28 45.3484 29.296 44 30.8947 44H150.482C152.081 44 153.377 45.3484 153.377 47.0118V132.469C153.377 134.133 152.081 135.481 150.482 135.481H30.8947C29.296 135.481 28 134.133 28 132.469V47.0118Z" fill="white"/>
</g>
<path d="M28 47.2434C28 45.4521 29.293 44 30.888 44H150.162C151.757 44 153.05 45.4521 153.05 47.2434V55.244H28V47.2434Z" fill="#000C36"/>
<path d="M40.3507 49.622C40.3507 50.9422 39.3039 52.0314 38.035 52.0314C36.7661 52.0314 35.7192 50.9422 35.7192 49.622C35.7192 48.3018 36.7661 47.2126 38.035 47.2126C39.3039 47.2126 40.3507 48.3018 40.3507 49.622Z" fill="#F66058"/>
<path d="M49.6139 49.6221C49.6139 50.9423 48.5671 52.0315 47.2982 52.0315C46.0293 52.0315 44.9824 50.9423 44.9824 49.6221C44.9824 48.3018 46.0293 47.2126 47.2982 47.2126C48.5988 47.2126 49.6139 48.3018 49.6139 49.6221Z" fill="#F9BD2E"/>
<path d="M58.877 49.622C58.877 50.9422 57.8301 52.0314 56.5612 52.0314C55.2923 52.0314 54.2455 50.9422 54.2455 49.622C54.2455 48.3018 55.2923 47.2126 56.5612 47.2126C57.8301 47.2126 58.877 48.3018 58.877 49.622Z" fill="#3CC840"/>
<path d="M28.0001 54.6717H153.377V73.6461H28.0001V54.6717Z" fill="#EDF1F6"/>
<path d="M39.3983 81.9502H141.979V125.828H39.3983V81.9502Z" fill="#EDF1F6"/>
<path fill-rule="evenodd" clip-rule="evenodd" d="M41.6782 63.8158C41.6782 62.0415 43.0053 60.6032 44.6424 60.6032H136.364C138.001 60.6032 139.328 62.0415 139.328 63.8158C139.328 65.59 138.001 67.0283 136.364 67.0283L44.6424 67.0283C43.0053 67.0283 41.6782 65.59 41.6782 63.8158Z" fill="white"/>
<path d="M139.314 90L164.628 95.3162L164.67 122.909C164.712 141.1 153.616 150.502 139.399 155.907C125.181 150.59 114.084 141.187 114.042 122.997L114 95.4042L139.314 90Z" fill="#3D7FFC"/>
<path d="M160.066 122.958L160.066 122.959C160.084 130.659 157.756 136.399 153.988 140.791C150.302 145.088 145.158 148.186 139.233 150.502C133.312 148.223 128.17 145.144 124.476 140.856C120.699 136.473 118.352 130.731 118.334 123.03L118.299 99.8694L139.165 95.4151L160.031 99.7966L160.066 122.958Z" fill="#3D7FFC" stroke="#9FC0FF" stroke-width="3"/>
<path d="M131.022 121.592L135.61 125.905L145.934 116.201" stroke="white" stroke-width="3" stroke-linecap="round"/>
<defs>
<filter id="filter0_d_19036_43937" x="15" y="32" width="151.377" height="117.481" filterUnits="userSpaceOnUse" color-interpolation-filters="sRGB">
<feFlood flood-opacity="0" result="BackgroundImageFix"/>
<feColorMatrix in="SourceAlpha" type="matrix" values="0 0 0 0 0 0 0 0 0 0 0 0 0 0 0 0 0 0 127 0" result="hardAlpha"/>
<feOffset dy="1"/>
<feGaussianBlur stdDeviation="6.5"/>
<feComposite in2="hardAlpha" operator="out"/>
<feColorMatrix type="matrix" values="0 0 0 0 0.0354167 0 0 0 0 0.105426 0 0 0 0 0.2125 0 0 0 0.04 0"/>
<feBlend mode="normal" in2="BackgroundImageFix" result="effect1_dropShadow_19036_43937"/>
<feBlend mode="normal" in="SourceGraphic" in2="effect1_dropShadow_19036_43937" result="shape"/>
</filter>
</defs>
</svg>
