<svg xmlns="http://www.w3.org/2000/svg" width="584" height="536" viewBox="0 0 584 536" fill="none"><rect x="540.957" y="344.425" width="27.0436" height="27.3994" rx="13.5218" fill="#3D7FFC"></rect><path d="M550.75 364.488V361.972H554.297L550.75 364.488Z" fill="white"></path><path d="M548.621 356.987C548.621 354.778 550.412 352.987 552.621 352.987H556.327C558.536 352.987 560.327 354.778 560.327 356.987V358.323C560.327 360.533 558.536 362.323 556.327 362.323H552.621C550.412 362.323 548.621 360.533 548.621 358.323V356.987Z" fill="white"></path><circle cx="302.118" cy="268.376" r="230.376" fill="#F5F8FF"></circle><rect x="493.598" y="157.675" width="57.2734" height="57.2734" rx="28.6367" fill="#3D7FFC"></rect><path d="M514.916 181.792H510.778C510.32 181.792 509.881 181.974 509.557 182.298C509.233 182.622 509.051 183.061 509.051 183.519V194.494C509.053 194.951 509.236 195.388 509.559 195.71C509.883 196.032 510.321 196.213 510.778 196.213H514.916C515.374 196.213 515.814 196.031 516.138 195.707C516.462 195.383 516.644 194.944 516.644 194.486V183.519C516.644 183.061 516.462 182.622 516.138 182.298C515.814 181.974 515.374 181.792 514.916 181.792ZM514.38 195.186C514.184 195.186 513.993 195.128 513.83 195.019C513.667 194.911 513.541 194.756 513.466 194.575C513.391 194.394 513.371 194.195 513.409 194.003C513.447 193.811 513.542 193.635 513.68 193.497C513.819 193.358 513.995 193.264 514.187 193.226C514.379 193.188 514.578 193.207 514.759 193.282C514.94 193.357 515.094 193.484 515.203 193.647C515.312 193.809 515.37 194.001 515.37 194.196C515.369 194.459 515.264 194.711 515.078 194.896C514.892 195.082 514.64 195.186 514.377 195.186H514.38Z" fill="white"></path><path d="M532.856 189.366V189.447H533.18C533.535 189.448 533.882 189.554 534.177 189.751C534.472 189.949 534.702 190.229 534.838 190.556C534.975 190.884 535.011 191.245 534.943 191.593C534.876 191.942 534.706 192.262 534.457 192.515C534.118 192.854 533.66 193.046 533.18 193.051H532.856V193.142C533.245 193.171 533.608 193.345 533.874 193.63C534.139 193.916 534.287 194.291 534.287 194.681C534.287 195.07 534.139 195.446 533.874 195.731C533.608 196.016 533.245 196.191 532.856 196.219C532.82 196.223 532.784 196.223 532.749 196.219H520.862C520.186 196.219 519.537 195.952 519.058 195.474C518.58 194.997 518.31 194.349 518.309 193.673V183.964C518.309 182.446 520.272 179.282 521.527 177.874C521.808 177.567 522.023 177.206 522.157 176.813C522.292 176.42 522.344 176.003 522.31 175.589C522.203 174.248 522.291 172.341 523.651 172.215C525.775 172.019 527.519 175.701 526.513 178.469C526.097 179.593 525.757 180.422 525.486 180.995H533.264C533.831 181 534.374 181.222 534.782 181.617C535.189 182.011 535.429 182.547 535.451 183.114C535.473 183.681 535.276 184.234 534.9 184.659C534.525 185.084 534 185.348 533.435 185.397C533.953 185.411 534.445 185.626 534.806 185.997C535.167 186.369 535.369 186.866 535.369 187.384C535.365 187.909 535.154 188.411 534.782 188.782C534.41 189.152 533.907 189.361 533.382 189.363L532.856 189.366Z" fill="white"></path><rect x="359.262" y="151.502" width="35.9611" height="35.9611" rx="17.9805" fill="#3D7FFC"></rect><path d="M372.644 166.645H370.045C369.758 166.645 369.482 166.759 369.279 166.962C369.075 167.166 368.961 167.441 368.961 167.729V174.62C368.962 174.907 369.077 175.181 369.28 175.384C369.484 175.586 369.759 175.699 370.045 175.699H372.644C372.931 175.699 373.207 175.585 373.411 175.382C373.614 175.178 373.728 174.903 373.728 174.615V167.729C373.728 167.441 373.614 167.166 373.411 166.962C373.207 166.759 372.931 166.645 372.644 166.645ZM372.307 175.054C372.184 175.054 372.064 175.018 371.962 174.95C371.86 174.881 371.78 174.784 371.733 174.671C371.686 174.557 371.674 174.432 371.698 174.312C371.722 174.191 371.781 174.081 371.868 173.994C371.955 173.907 372.065 173.848 372.186 173.824C372.306 173.8 372.431 173.812 372.545 173.859C372.658 173.906 372.755 173.986 372.824 174.088C372.892 174.19 372.928 174.31 372.928 174.433C372.928 174.598 372.862 174.756 372.745 174.873C372.629 174.989 372.47 175.054 372.305 175.054H372.307Z" fill="white"></path><path d="M383.907 171.4V171.45H384.111C384.334 171.451 384.552 171.518 384.737 171.642C384.922 171.766 385.067 171.942 385.152 172.147C385.238 172.353 385.261 172.58 385.218 172.798C385.176 173.017 385.069 173.218 384.913 173.377C384.7 173.59 384.412 173.711 384.111 173.714H383.907V173.771C384.152 173.789 384.38 173.898 384.547 174.077C384.713 174.256 384.806 174.492 384.806 174.737C384.806 174.981 384.713 175.217 384.547 175.396C384.38 175.575 384.152 175.685 383.907 175.703C383.885 175.705 383.862 175.705 383.84 175.703H376.377C375.952 175.703 375.545 175.535 375.244 175.235C374.944 174.936 374.774 174.529 374.773 174.104V168.008C374.773 167.055 376.006 165.068 376.794 164.184C376.971 163.992 377.105 163.765 377.19 163.518C377.275 163.271 377.307 163.009 377.286 162.749C377.219 161.907 377.274 160.71 378.128 160.631C379.462 160.508 380.556 162.82 379.925 164.558C379.664 165.263 379.45 165.784 379.28 166.144H384.163C384.52 166.147 384.861 166.286 385.117 166.534C385.372 166.782 385.523 167.119 385.537 167.474C385.551 167.83 385.427 168.178 385.191 168.445C384.955 168.711 384.626 168.877 384.271 168.908C384.596 168.916 384.905 169.052 385.132 169.285C385.359 169.518 385.485 169.83 385.485 170.155C385.483 170.485 385.35 170.8 385.117 171.033C384.883 171.266 384.567 171.397 384.238 171.398L383.907 171.4Z" fill="white"></path><rect x="402.836" y="295.302" width="52.8568" height="52.8568" rx="26.4284" fill="#3D7FFC"></rect><path d="M421.988 334.006V329.153H428.921L421.988 334.006Z" fill="white"></path><path d="M417.828 315.821C417.828 313.612 419.619 311.821 421.828 311.821H436.706C438.916 311.821 440.706 313.612 440.706 315.821V325.831C440.706 328.041 438.916 329.831 436.706 329.831H421.828C419.619 329.831 417.828 328.041 417.828 325.831V315.821Z" fill="white"></path><rect x="274.188" y="232.472" width="26.927" height="26.927" rx="13.4635" fill="#3D7FFC"></rect><ellipse cx="287.848" cy="242.519" rx="3.21517" ry="3.21517" fill="white"></ellipse><path d="M282.223 251.699C282.223 249.07 284.353 246.939 286.982 246.939H288.716C291.345 246.939 293.476 249.07 293.476 251.699C293.476 252.4 292.908 252.968 292.207 252.968H283.492C282.791 252.968 282.223 252.4 282.223 251.699Z" fill="white"></path><rect x="482.621" y="388.053" width="39.8919" height="39.8919" rx="19.9459" fill="#3D7FFC"></rect><ellipse cx="502.865" cy="402.938" rx="4.76321" ry="4.76321" fill="white"></ellipse><path d="M494.527 416.538C494.527 412.644 497.684 409.487 501.578 409.487H504.148C508.042 409.487 511.199 412.644 511.199 416.538C511.199 417.576 510.357 418.418 509.318 418.418H496.408C495.369 418.418 494.527 417.576 494.527 416.538Z" fill="white"></path><rect x="391.867" y="381.07" width="37.8973" height="37.8973" rx="18.9487" fill="#3D7FFC"></rect><path d="M410.706 409.351C406.557 406.13 399.181 402.219 402.178 395.775C404.938 390.253 410.706 394.164 410.706 396.236C410.706 394.164 416.698 390.253 419.465 395.775C422.461 402.216 414.854 406.127 410.706 409.351Z" fill="white"></path><rect x="413.203" y="211.062" width="38.8946" height="38.8946" rx="19.4473" fill="#3D7FFC"></rect><path d="M432.539 240.088C428.281 236.782 420.711 232.768 423.786 226.155C426.619 220.487 432.539 224.501 432.539 226.628C432.539 224.501 438.688 220.487 441.528 226.155C444.603 232.765 436.796 236.779 432.539 240.088Z" fill="white"></path><rect x="492.598" y="270.623" width="47.0155" height="47.0155" rx="23.5077" fill="#3D7FFC"></rect><path d="M515.969 305.708C510.822 301.712 501.671 296.86 505.389 288.866C508.813 282.015 515.969 286.867 515.969 289.438C515.969 286.867 523.402 282.015 526.835 288.866C530.552 296.857 521.115 301.709 515.969 305.708Z" fill="white"></path><rect x="276.18" y="310.263" width="32.9108" height="32.9108" rx="16.4554" fill="#3D7FFC"></rect><path d="M292.535 334.823C288.932 332.026 282.527 328.629 285.129 323.034C287.526 318.238 292.535 321.634 292.535 323.434C292.535 321.634 297.739 318.238 300.141 323.034C302.743 328.627 296.137 332.024 292.535 334.823Z" fill="white"></path><path d="M146.938 132.375C146.938 124.427 153.353 117.984 161.268 117.984H285.224C293.138 117.984 299.554 124.427 299.554 132.375V420.904C299.554 428.852 293.138 435.294 285.224 435.294H161.268C153.353 435.294 146.938 428.852 146.938 420.904V132.375Z" fill="#091B36"></path><path d="M150.234 130.002C150.234 125.79 153.657 122.376 157.88 122.376H288.617C292.84 122.376 296.263 125.79 296.263 130.002V424.374C296.263 428.586 292.84 432 288.617 432H157.88C153.657 432 150.234 428.586 150.234 424.374V130.002Z" fill="white"></path><path fill-rule="evenodd" clip-rule="evenodd" d="M157.192 115.789H288.203C296.274 115.789 302.849 122.291 302.849 130.351V424.027C302.849 432.087 296.274 438.589 288.203 438.589H157.192C149.121 438.589 142.547 432.087 142.547 424.027V130.351C142.547 122.291 149.121 115.789 157.192 115.789ZM157.192 122.743C152.961 122.743 149.531 126.149 149.531 130.351V424.027C149.531 428.229 152.961 431.635 157.192 431.635H288.203C292.435 431.635 295.865 428.229 295.865 424.027V130.351C295.865 126.149 292.435 122.743 288.203 122.743H157.192Z" fill="#091B36"></path><path d="M143.648 155.285C143.648 154.089 144.632 153.12 145.844 153.12V178.373C144.632 178.373 143.648 177.404 143.648 176.209V155.285Z" fill="#091B36"></path><path d="M301.754 184.992C301.754 186.187 300.771 187.156 299.558 187.156L299.558 161.903C300.771 161.903 301.754 162.872 301.754 164.068L301.754 184.992Z" fill="#091B36"></path><path d="M143.648 184.929C143.648 183.734 144.632 182.765 145.844 182.765V208.018C144.632 208.018 143.648 207.049 143.648 205.853V184.929Z" fill="#091B36"></path><mask id="mask0_20779_70472" style="mask-type:alpha" maskUnits="userSpaceOnUse" x="150" y="122" width="147" height="313"><rect width="146.092" height="312.412" rx="5" transform="matrix(-1 0 0 1 296.324 122.283)" fill="#C4C4C4"></rect></mask><g mask="url(#mask0_20779_70472)"><g clip-path="url(#clip0_20779_70472)"><path d="M97.4134 91.9404H309.809V432.447H97.4134V91.9404Z" fill="#76A5FF"></path><path d="M111.836 418.896C114.221 422.843 117.2 417.554 121.81 417.554C126.419 417.554 126.413 419.326 131.02 419.326C135.628 419.326 135.626 417.554 140.229 417.554C144.832 417.554 144.839 419.326 149.442 419.326C154.045 419.326 154.047 417.554 158.65 417.554C163.253 417.554 163.258 419.326 167.865 419.326C172.473 419.326 172.471 417.554 177.08 417.554C181.69 417.554 181.684 419.326 186.291 419.326C190.899 419.326 190.899 417.554 195.504 417.554C200.109 417.554 200.112 419.326 204.719 419.326C209.327 419.326 209.327 417.554 213.932 417.554C218.537 417.554 218.542 419.326 223.147 419.326C227.752 419.326 227.757 417.554 232.364 417.554C236.972 417.554 236.97 419.326 241.577 419.326C246.185 419.326 246.185 417.554 250.79 417.554C255.395 417.554 255.398 419.326 260.005 419.326C264.613 419.326 264.613 417.554 269.224 417.554C273.836 417.554 273.83 419.326 278.435 419.326C283.041 419.326 283.047 417.554 287.657 417.554C292.266 417.554 295.259 422.845 297.631 418.896C301.577 412.342 295.985 410.787 295.985 403.138C295.985 395.488 297.754 395.486 297.754 387.834C297.754 380.182 295.985 380.182 295.985 372.531C295.985 364.879 297.754 364.881 297.754 357.229C297.754 349.577 295.985 349.575 295.985 341.924C295.985 334.272 297.754 334.272 297.754 326.618C297.754 318.964 295.985 318.966 295.985 311.314C295.985 303.663 297.754 303.66 297.754 296.011C297.754 288.361 295.985 288.359 295.985 280.71C295.985 273.06 297.761 273.058 297.761 265.406C297.761 257.754 295.992 257.752 295.992 250.1C295.992 242.449 297.761 242.449 297.761 234.799C297.761 227.149 295.992 227.145 295.992 219.493C295.992 211.842 297.761 211.842 297.761 204.19C297.761 196.538 295.992 196.534 295.992 188.882C295.992 181.23 297.761 181.228 297.761 173.574C297.761 165.92 295.992 165.92 295.992 158.269C295.992 150.617 297.761 150.615 297.761 142.961C297.761 135.307 295.992 135.307 295.992 127.651C295.992 119.995 301.583 118.444 297.637 111.885C295.252 107.937 292.271 113.228 287.663 113.228C283.056 113.228 283.06 111.456 278.453 111.456C273.845 111.456 273.849 113.228 269.244 113.228C264.639 113.228 264.639 111.456 260.031 111.456C255.424 111.456 255.428 113.228 250.823 113.228C246.217 113.228 246.213 111.456 241.607 111.456C237.002 111.456 237.002 113.228 232.395 113.228C227.787 113.228 227.787 111.456 223.182 111.456C218.576 111.456 218.565 113.228 213.969 113.228C209.372 113.228 209.361 111.456 204.754 111.456C200.146 111.456 200.146 113.228 195.539 113.228C190.931 113.228 190.931 111.456 186.326 111.456C181.72 111.456 181.705 113.228 177.109 113.228C172.512 113.228 172.501 111.456 167.894 111.456C163.286 111.456 163.29 113.228 158.683 113.228C154.075 113.228 154.075 111.456 149.47 111.456C144.865 111.456 144.858 113.228 140.251 113.228C135.643 113.228 135.645 111.456 131.035 111.456C126.426 111.456 126.426 113.228 121.814 113.228C117.202 113.228 114.225 107.935 111.84 111.883C107.889 118.438 113.483 119.992 113.483 127.644C113.483 135.296 111.712 135.296 111.712 142.948C111.712 150.599 113.483 150.597 113.483 158.249C113.483 165.901 111.712 165.901 111.712 173.553C111.712 181.204 113.483 181.206 113.483 188.86C113.483 196.514 111.712 196.51 111.712 204.162C111.712 211.813 113.483 211.816 113.483 219.467C113.483 227.119 111.712 227.119 111.712 234.771C111.712 242.423 113.483 242.423 113.483 250.074C113.483 257.726 111.712 257.724 111.712 265.376C111.712 273.027 113.483 273.03 113.483 280.681C113.483 288.333 111.712 288.333 111.712 295.983C111.712 303.632 113.483 303.634 113.483 311.288C113.483 318.942 111.712 318.94 111.712 326.592C111.712 334.244 113.483 334.246 113.483 341.9C113.483 349.554 111.712 349.554 111.712 357.205C111.712 364.857 113.483 364.859 113.483 372.513C113.483 380.167 111.712 380.167 111.712 387.821C111.712 395.475 114.91 395.779 113.468 403.296C111.916 411.351 107.887 412.337 111.836 418.896Z" fill="#C6DBFF"></path><path d="M285.145 172.319C285.144 175.992 284.055 179.582 282.014 182.636C279.973 185.69 277.073 188.07 273.68 189.475C270.286 190.88 266.553 191.248 262.95 190.531C259.348 189.814 256.039 188.045 253.443 185.448C250.846 182.851 249.077 179.542 248.361 175.94C247.645 172.337 248.013 168.604 249.418 165.21C250.824 161.817 253.205 158.917 256.259 156.877C259.313 154.837 262.903 153.748 266.576 153.748C269.014 153.748 271.429 154.228 273.682 155.162C275.935 156.095 277.982 157.463 279.707 159.188C281.431 160.912 282.799 162.959 283.732 165.213C284.665 167.466 285.145 169.881 285.145 172.319Z" fill="white"></path><path d="M112.269 302.181L132.937 274.194C132.937 274.194 143.283 244.521 175.907 253.11C175.907 253.11 182.7 232.806 204.597 245.304C204.597 245.304 211.954 221.453 235.23 237.281C235.23 237.281 238.207 206.52 267.878 222.661C267.878 222.661 275.065 199.059 297.754 203.431C297.754 203.678 297.754 203.929 297.754 204.194C297.754 211.846 295.985 211.846 295.985 219.497C295.985 227.149 297.754 227.149 297.754 234.803C297.754 242.457 295.985 242.453 295.985 250.104C295.985 257.756 297.754 257.756 297.754 265.41C297.754 273.064 295.985 273.062 295.985 280.714C295.985 288.365 297.754 288.363 297.754 296.015C297.754 303.667 295.985 303.664 295.985 311.318C295.985 318.972 297.754 318.97 297.754 326.622C297.754 326.787 297.754 326.943 297.754 327.097L113.435 313.124C113.459 312.565 113.474 311.958 113.474 311.292C113.477 306.511 112.787 304.714 112.269 302.181Z" fill="#E7EEFF"></path><path d="M111.71 295.982C111.71 288.333 113.481 288.333 113.481 280.681C113.481 273.029 111.71 273.029 111.71 265.375C111.71 257.721 113.481 257.724 113.481 250.074C113.481 243.352 112.122 242.535 111.783 237.281C131.515 247.327 150.693 269.84 153.878 267.834C157.781 265.373 172.618 260.924 185.892 265.395C199.166 269.866 225.723 280.44 230.402 282.769C235.081 285.098 249.14 276.527 257.733 275.755C264.073 275.18 285.736 283.114 296.644 287.307C297.147 289.64 297.763 291.492 297.763 296.01C297.763 303.66 295.994 303.66 295.994 311.314C295.994 318.968 297.763 318.966 297.763 326.617C297.787 328.421 297.65 330.224 297.353 332.003C238.431 329.97 158.219 327.045 111.751 324.701C112.015 318.879 113.486 318.25 113.486 311.288C113.481 303.63 111.71 303.63 111.71 295.982Z" fill="#CF8B7A"></path><path d="M175.656 263.533C168.911 267.854 156.758 276.128 152.313 274.033C149.572 272.732 144.24 264.597 138.391 256.521C146.374 263.416 152.237 268.86 153.874 267.83C156.784 265.996 165.771 263.058 175.656 263.533Z" fill="#FFDEC2"></path><path d="M279.328 281.017C279.328 281.017 263.587 277.643 258.12 279.822C252.654 282.001 235.087 288.25 230.399 287.86C227.854 287.643 218.676 280.841 210.837 274.675C219.944 278.248 228.012 281.581 230.399 282.769C235.087 285.095 249.137 276.526 257.73 275.755C261.434 275.419 270.367 277.986 279.328 281.015V281.017Z" fill="#FFDEC2"></path><path d="M297.522 300.276C297.039 304.068 295.992 305.43 295.992 311.314C295.992 318.966 297.761 318.966 297.761 326.618C297.761 334.27 295.992 334.272 295.992 341.924C295.992 349.575 297.761 349.575 297.761 357.229C297.761 364.883 295.992 364.881 295.992 372.531C295.992 380.18 297.761 380.182 297.761 387.834C297.761 395.486 295.992 395.486 295.992 403.138C295.992 410.789 301.583 412.342 297.637 418.896C295.252 422.845 292.269 417.554 287.663 417.554C283.058 417.554 283.054 419.326 278.442 419.326C273.83 419.326 273.836 417.554 269.231 417.554C264.626 417.554 264.619 419.326 260.012 419.326C255.404 419.326 255.404 417.554 250.797 417.554C246.189 417.554 246.191 419.326 241.584 419.326C236.976 419.326 236.976 417.554 232.371 417.554C227.765 417.554 227.763 419.326 223.154 419.326C218.544 419.326 218.548 417.554 213.938 417.554C209.329 417.554 209.333 419.326 204.726 419.326C200.118 419.326 200.118 417.554 195.511 417.554C190.903 417.554 190.905 419.326 186.298 419.326C181.69 419.326 181.69 417.554 177.087 417.554C172.484 417.554 172.477 419.326 167.872 419.326C163.267 419.326 163.264 417.554 158.657 417.554C154.049 417.554 154.054 419.326 149.448 419.326C144.843 419.326 144.845 417.554 140.235 417.554C135.626 417.554 135.632 419.326 131.027 419.326C126.421 419.326 126.419 417.554 121.816 417.554C117.213 417.554 114.227 422.843 111.842 418.896C107.894 412.337 111.922 411.351 113.47 403.296C114.912 395.779 111.714 395.475 111.714 387.821C111.714 380.167 113.486 380.167 113.486 372.513C113.486 364.859 111.714 364.859 111.714 357.205C111.714 349.551 113.486 349.554 113.486 341.9C113.486 334.246 111.714 334.246 111.714 326.592C111.714 318.938 113.486 318.94 113.486 311.288C113.486 305.419 112.445 304.049 111.968 300.276H297.522Z" fill="#76A5FF"></path><path d="M175.91 334.467H289.42C289.42 334.467 225.279 332.733 228.058 331.445C230.838 330.157 296.839 328.672 294.498 327.555C292.156 326.438 248.297 325.387 248.297 325.387L175.91 334.467Z" fill="#F3F8ED"></path><path d="M193.583 338.148L197.098 338.298C199.333 338.361 202.518 338.515 206.363 338.584C210.207 338.653 214.669 338.801 219.461 338.823L234.476 338.927L249.491 338.825C254.281 338.799 258.754 338.651 262.59 338.586C266.425 338.521 269.617 338.369 271.852 338.3L275.367 338.148L271.852 337.994C269.617 337.931 266.432 337.777 262.59 337.708C258.748 337.639 254.281 337.491 249.491 337.47L234.476 337.368L219.461 337.472C214.669 337.5 210.194 337.645 206.363 337.71C202.531 337.775 199.333 337.927 197.098 337.996L193.583 338.148Z" fill="#F3F8ED"></path><path d="M143.486 304.747H157.621C157.621 304.747 141.877 307.917 143.486 304.747Z" fill="#F3F8ED"></path><path d="M111.71 387.821C111.71 380.167 113.482 380.167 113.482 372.513C113.482 364.859 111.71 364.859 111.71 357.205C111.71 349.551 113.482 349.554 113.482 341.9C113.482 334.246 111.71 334.246 111.71 326.592C111.71 318.938 113.482 318.94 113.482 311.288C113.482 305.419 112.441 304.049 111.964 300.276H170.433C175.42 305.263 178.505 312.034 175.908 321.046C168.898 345.388 50.9168 404.549 295.992 403.266C296.057 410.802 301.562 412.372 297.635 418.896C295.25 422.845 292.267 417.554 287.661 417.554C283.056 417.554 283.052 419.326 278.44 419.326C273.828 419.326 273.834 417.554 269.229 417.554C264.624 417.554 264.617 419.326 260.01 419.326C255.402 419.326 255.402 417.554 250.795 417.554C246.187 417.554 246.189 419.326 241.582 419.326C236.974 419.326 236.974 417.554 232.369 417.554C227.764 417.554 227.761 419.326 223.152 419.326C218.542 419.326 218.546 417.554 213.937 417.554C209.327 417.554 209.331 419.326 204.724 419.326C200.116 419.326 200.116 417.554 195.509 417.554C190.901 417.554 190.903 419.326 186.296 419.326C181.688 419.326 181.688 417.554 177.085 417.554C172.482 417.554 172.475 419.326 167.87 419.326C163.265 419.326 163.262 417.554 158.655 417.554C154.047 417.554 154.052 419.326 149.446 419.326C144.841 419.326 144.843 417.554 140.233 417.554C135.624 417.554 135.63 419.326 131.025 419.326C126.42 419.326 126.417 417.554 121.814 417.554C117.211 417.554 114.225 422.843 111.84 418.896C107.892 412.337 111.92 411.351 113.469 403.296C114.908 395.781 111.71 395.475 111.71 387.821Z" fill="#76A5FF"></path><path d="M163.247 325.376C168.559 316.536 163.369 307.479 156.213 300.276H170.433C175.42 305.263 178.505 312.034 175.908 321.046C168.898 345.388 50.9168 404.549 295.992 403.266C296.005 405.036 296.346 406.789 297 408.435C47.1527 416.871 153.59 341.447 163.247 325.376Z" fill="#9FC0FF"></path><path d="M192.796 248.513C192.796 248.513 191.188 257.676 192.291 261.399C193.395 265.121 203.471 281.297 204.351 281.013C205.231 280.729 201.333 265.184 201.333 265.184L199.919 267.53L200.643 261.422L198.618 264.772L199.485 258.944C199.485 258.944 193.367 250.271 192.796 248.513Z" fill="#373E44"></path><path d="M193.933 246.35C193.933 246.35 198.458 254.311 201.847 257.954C205.236 261.597 216.099 275.617 217.855 280.02C217.855 280.02 214.234 259.533 208.222 253.054C202.209 246.575 193.933 246.35 193.933 246.35Z" fill="#373E44"></path><path d="M194.715 244.78C194.715 244.78 207.867 249.858 212.085 253.481C212.085 253.481 214.431 247.64 214.667 248.875C214.667 248.875 213.745 253.862 214.832 256.107C215.918 258.351 224.292 272.017 226.54 279.823C226.54 279.823 229.006 251.852 214.979 244.32C214.975 244.32 206.423 240.792 194.715 244.78Z" fill="#373E44"></path><path d="M193.875 243.63C193.875 243.63 213.008 239.474 215.69 239.207C218.372 238.941 219.133 236.026 219.133 236.026L219.192 238.711C219.192 238.711 223.146 239.864 229.005 242.83C234.864 245.797 242.383 249.335 243.266 251.698C243.266 251.698 236.687 235.22 218.201 231.497C218.201 231.497 206.804 230.343 193.875 243.63Z" fill="#373E44"></path><path d="M192.067 244.22C192.12 241.56 192.984 238.979 194.543 236.824C197.145 233.25 201.62 229.84 201.369 227.78L198.32 224.744C198.32 224.744 201.525 225.707 202.984 226.087C204.443 226.466 207.075 224.135 211.395 223.209C215.714 222.283 217.945 220.369 217.945 220.369L216.451 218.333L219.792 219.718L225.43 218.144C225.43 218.144 200.039 211.071 191.735 229.454C191.733 229.445 188.812 235.046 192.067 244.22Z" fill="#373E44"></path><path d="M190.738 245.285C190.738 245.285 186.005 225.027 167.846 226.681C167.846 226.681 186.599 238.403 189.567 245.313C189.567 245.313 177.119 234.326 168.045 235.361C158.971 236.395 146.146 244.749 146.56 245.256C146.974 245.764 156.026 243.283 156.026 243.283C156.026 243.283 152.973 245.215 153.999 245.087C155.025 244.959 164.283 242.681 164.283 242.681C164.283 242.681 160.825 245.035 161.646 244.914C162.468 244.792 171.753 243.739 173.203 243.919L171.77 244.682C171.77 244.682 189.443 246.039 190.762 246.416L190.738 245.285Z" fill="#373E44"></path><path d="M192.137 247.108C192.137 247.108 174.875 245.864 167.722 251.228C165.257 253.078 158.817 264.671 158.282 273.964C158.225 274.962 167.688 263.539 167.688 263.539C167.518 264.423 167.488 265.327 167.601 266.219L174.088 256.991L173.004 261.428C173.004 261.428 178.808 254.949 180.569 253.867L179.734 256.267C179.734 256.267 191.352 247.575 192.137 247.108Z" fill="#373E44"></path><path d="M129.866 400.195C129.67 400.243 129.464 400.243 129.268 400.195C128.937 400.11 128.652 399.899 128.476 399.607C128.299 399.314 128.245 398.964 128.325 398.632C146.902 323.328 192.373 246.457 192.826 245.692C193.018 245.435 193.299 245.258 193.613 245.196C193.928 245.133 194.255 245.189 194.531 245.353C194.807 245.517 195.013 245.777 195.109 246.083C195.204 246.39 195.184 246.721 195.05 247.013C194.593 247.778 149.318 324.326 130.833 399.25C130.774 399.481 130.653 399.691 130.482 399.858C130.312 400.025 130.099 400.141 129.866 400.195Z" fill="#423441"></path><path d="M159.519 181.869C159.519 181.869 157.741 191.98 158.962 196.086C160.183 200.193 171.297 218.042 172.264 217.73C173.231 217.418 168.936 200.269 168.936 200.269L167.395 202.853L168.195 196.112L165.935 199.809L166.92 193.378C166.92 193.378 160.146 183.81 159.519 181.869Z" fill="#373E44"></path><path d="M160.774 179.482C160.774 179.482 165.761 188.266 169.503 192.286C173.246 196.306 185.232 211.774 187.168 216.635C187.168 216.635 183.17 194.027 176.544 186.88C169.917 179.734 160.774 179.482 160.774 179.482Z" fill="#373E44"></path><path d="M161.646 177.752C161.646 177.752 176.147 183.353 180.803 187.353C180.803 187.353 183.392 180.907 183.65 182.271C183.65 182.271 182.635 187.767 183.832 190.25C185.029 192.733 194.27 207.813 196.746 216.417C196.746 216.417 199.465 185.558 183.992 177.245C183.992 177.245 174.552 173.351 161.646 177.752Z" fill="#373E44"></path><path d="M160.709 176.482C160.709 176.482 181.819 171.896 184.776 171.601C187.734 171.306 188.577 168.091 188.577 168.091L188.646 171.057C188.646 171.057 193.009 172.327 199.468 175.599C205.927 178.871 214.232 182.772 215.203 185.382C215.203 185.382 207.946 167.195 187.547 163.097C187.547 163.097 174.976 161.826 160.709 176.482Z" fill="#373E44"></path><path d="M158.724 177.134C158.779 174.202 159.729 171.357 161.447 168.981C164.325 165.039 169.253 161.277 168.978 159.007L165.619 155.661C165.619 155.661 169.153 156.722 170.762 157.14C172.371 157.559 175.272 154.985 180.04 153.964C184.808 152.942 187.269 150.833 187.269 150.833L185.621 148.589L189.307 150.106L195.523 148.372C195.523 148.372 167.512 140.566 158.349 160.852C158.349 160.833 155.125 167.01 158.724 177.134Z" fill="#373E44"></path><path d="M157.249 178.306C157.249 178.306 152.028 155.953 131.996 157.779C131.996 157.779 152.687 170.712 155.959 178.334C155.959 178.334 142.223 166.213 132.212 167.354C122.202 168.494 108.041 177.714 108.509 178.273C108.977 178.833 118.954 176.094 118.954 176.094C118.954 176.094 115.575 178.23 116.716 178.089C117.856 177.948 128.062 175.435 128.062 175.435C128.062 175.435 124.242 178.037 125.155 177.898C126.068 177.759 136.302 176.597 137.902 176.801L136.326 177.655C136.326 177.655 155.822 179.149 157.277 179.574L157.249 178.306Z" fill="#373E44"></path><path d="M158.789 180.322C158.789 180.322 139.745 178.956 131.838 184.875C129.121 186.918 122.016 199.71 121.43 209.962C121.367 211.061 131.81 198.459 131.81 198.459C131.622 199.434 131.59 200.432 131.714 201.417L138.869 191.237L137.668 196.13C137.668 196.13 144.073 188.975 146.018 187.787L145.092 190.434C145.092 190.434 157.922 180.833 158.789 180.322Z" fill="#373E44"></path><path d="M124.487 401.539C124.362 401.567 124.235 401.578 124.107 401.571C123.92 401.564 123.736 401.52 123.566 401.441C123.396 401.363 123.243 401.252 123.116 401.114C122.989 400.977 122.891 400.816 122.826 400.64C122.761 400.464 122.732 400.277 122.739 400.09C127.906 277.526 157.518 180.069 157.815 179.098C157.87 178.919 157.96 178.753 158.079 178.609C158.199 178.465 158.345 178.346 158.511 178.258C158.845 178.081 159.235 178.045 159.596 178.156C159.957 178.267 160.26 178.517 160.436 178.851C160.613 179.185 160.65 179.576 160.538 179.937C160.239 180.906 130.738 278.031 125.591 400.21C125.577 400.521 125.462 400.82 125.262 401.06C125.063 401.3 124.791 401.468 124.487 401.539Z" fill="#423441"></path></g></g><mask id="mask1_20779_70472" style="mask-type:alpha" maskUnits="userSpaceOnUse" x="163" y="142" width="25" height="25"><ellipse cx="175.934" cy="154.421" rx="11.9574" ry="11.9574" fill="#C4C4C4"></ellipse></mask><g mask="url(#mask1_20779_70472)"><ellipse cx="176.416" cy="154.164" rx="12.4471" ry="12.4471" fill="#FECE4D"></ellipse><path d="M170.864 156.053C170.895 155.99 170.859 155.91 170.792 155.891C170.512 155.808 170.305 155.629 170.258 155.4C170.227 155.249 170.271 155.095 170.371 154.962C170.396 154.929 170.399 154.88 170.382 154.841C170.147 154.822 169.947 154.657 169.917 154.439C169.9 154.329 169.931 154.221 169.992 154.136C169.989 154.128 169.986 154.12 169.983 154.111C169.975 154.081 169.961 154.051 169.933 154.04C169.307 153.784 168.739 152.04 170.233 151.15C170.296 151.112 170.302 151.013 170.241 150.963C169.892 150.668 169.679 150.283 169.698 149.892C169.734 149.184 170.512 148.729 171.438 148.881C171.452 148.884 171.463 148.886 171.476 148.886C171.557 148.9 171.615 148.812 171.579 148.732C171.288 148.063 171.266 147.438 171.571 147.154C171.859 146.884 172.368 146.989 172.886 147.369C172.953 147.418 173.039 147.377 173.044 147.292C173.072 146.812 173.263 146.46 173.524 146.46C173.695 146.46 173.862 146.619 173.981 146.865C174.022 146.953 174.136 146.953 174.166 146.867C174.502 145.967 175.119 145.435 175.621 145.658C175.906 145.785 176.097 146.126 176.178 146.578C176.194 146.675 176.308 146.708 176.36 146.633C176.779 146.044 177.424 145.79 178.017 146.055C178.441 146.242 178.754 146.655 178.912 147.162C178.928 147.214 178.973 147.247 179.02 147.247C179.289 147.239 179.571 147.294 179.851 147.418C180.798 147.837 181.38 148.914 181.247 149.919C181.236 149.994 181.297 150.062 181.366 150.054C181.829 150.013 182.264 150.25 182.413 150.668C182.549 151.043 182.416 151.459 182.114 151.737C182.048 151.798 182.086 151.924 182.178 151.935C182.577 151.993 182.904 152.241 182.973 152.585C183.051 152.971 182.779 153.351 182.341 153.505C182.264 153.533 182.25 153.646 182.319 153.704C182.635 153.965 182.812 154.257 182.74 154.445C182.671 154.626 182.388 154.657 182.034 154.549C181.953 154.524 181.887 154.61 181.917 154.695C182.05 155.04 182.039 155.378 181.865 155.579C181.704 155.761 181.441 155.786 181.167 155.679C181.097 155.651 181.025 155.709 181.034 155.789C181.078 156.216 180.937 156.59 180.646 156.722C180.416 156.827 180.142 156.753 179.904 156.557C179.865 156.527 179.815 156.527 179.779 156.557C179.283 156.998 178.696 157.356 178.034 157.604C177.2 157.915 176.452 157.989 175.637 157.899C175.568 157.89 175.515 157.956 175.529 158.031C175.657 158.664 175.272 159.033 174.712 159.124C174.515 159.157 174.216 159.061 174.119 158.926C174.105 158.904 174.02 158.86 173.936 158.948C173.579 159.311 172.881 158.926 172.751 158.292C172.72 158.146 172.718 158.003 172.734 157.868C172.742 157.797 172.637 157.656 172.482 157.758C172.424 157.797 172.346 157.808 172.269 157.821C171.712 157.921 170.9 157.472 170.77 156.838C170.72 156.546 170.759 156.276 170.864 156.053Z" fill="#4F381D"></path><path d="M182.797 179.658C185.038 173.026 188.121 168.217 186.503 165.542C184.955 162.981 184.467 163.038 183.279 162.851C178.974 162.171 178.691 160.471 176.237 160.548C176.19 160.551 175.891 160.548 175.838 160.548C173.4 160.48 172.439 162.297 168.813 162.851C167.624 163.033 167.139 162.981 165.588 165.542C163.97 168.217 167.053 173.026 169.292 179.658C170.489 183.197 168.572 186.566 167.943 187.803C167.25 189.169 166.937 189.026 167.045 189.998C167.217 191.538 171.345 192.714 175.458 192.672C175.652 192.67 176.517 192.672 176.755 192.672C180.824 192.686 184.869 191.518 185.041 189.998C185.149 189.026 184.838 189.169 184.143 187.803C183.517 186.566 181.603 183.195 182.797 179.658Z" fill="#3D7FFC"></path><path d="M178.99 162.171C178.743 158.408 178.724 155.285 177.668 155.748C177.3 155.91 174.782 155.91 174.416 155.748C173.361 155.285 173.322 157.99 173.095 162.171C173.061 162.799 173.92 164.347 176.042 164.347C178.07 164.347 179.031 162.802 178.99 162.171Z" fill="#E79473"></path><path d="M179.391 151.8C179.02 150.176 177.582 149.246 176.008 149.281C174.434 149.246 172.996 150.176 172.625 151.8C172.377 152.887 172.304 158.756 173.871 160.58C174.183 160.944 175.253 162.028 175.999 162.028C176.841 162.028 177.845 160.957 178.143 160.58C179.417 158.967 179.323 156.91 179.48 155.422C179.659 153.716 179.637 152.887 179.391 151.8Z" fill="#D78361"></path><path d="M179.999 150.933C179.561 149.283 177.863 148.338 176.004 148.374C174.145 148.338 172.447 149.283 172.009 150.933C171.716 152.037 171.63 158 173.48 159.854C173.849 160.223 175.112 161.325 175.993 161.325C176.987 161.325 178.173 160.237 178.525 159.854C180.029 158.215 179.918 156.125 180.104 154.613C180.315 152.88 180.29 152.037 179.999 150.933Z" fill="#E79473"></path><path d="M171.37 150.225C171.328 150.082 171.298 149.927 171.287 149.77C171.22 148.848 171.741 148.06 172.453 148.01C172.816 147.985 173.159 148.159 173.414 148.456C173.655 148.324 173.957 148.233 174.292 148.209C174.655 148.184 174.996 148.239 175.265 148.357C175.387 147.682 175.833 147.17 176.401 147.132C177.077 147.082 177.678 147.718 177.791 148.575C178.043 148.423 178.362 148.321 178.717 148.297C179.542 148.239 180.246 148.616 180.343 149.153C180.789 149.396 181.124 149.941 181.171 150.599C181.199 150.988 181.124 151.351 180.972 151.646C181.265 151.709 181.492 151.935 181.512 152.224C181.537 152.58 181.237 152.891 180.844 152.918C180.791 152.921 180.742 152.921 180.694 152.916C180.667 153.059 180.62 153.208 180.55 153.348C180.212 154.042 179.501 154.392 178.958 154.133C178.525 153.924 178.334 153.387 178.448 152.825C178.157 152.963 177.838 153.012 177.52 152.946C176.999 152.839 176.597 152.453 176.392 151.935C176.281 152.023 176.149 152.065 176.016 152.04C175.866 152.012 175.744 151.902 175.675 151.751C175.459 151.891 175.207 151.982 174.93 152.001C174.423 152.037 173.957 151.828 173.647 151.478C173.65 151.494 173.653 151.514 173.653 151.53C173.716 152.414 173.079 153.18 172.229 153.241C171.378 153.301 170.638 152.635 170.575 151.751C170.528 151.098 170.857 150.517 171.37 150.225Z" fill="#4F381D"></path></g><path d="M164.477 133.738H183.924" stroke="#B8C4D0" stroke-width="3" stroke-linecap="round"></path><path d="M188.789 133.738H208.236" stroke="#B8C4D0" stroke-width="3" stroke-linecap="round"></path><path d="M213.094 133.738H232.541" stroke="#B8C4D0" stroke-width="3" stroke-linecap="round"></path><path d="M237.402 133.738H256.85" stroke="#B8C4D0" stroke-opacity="0.4" stroke-width="3" stroke-linecap="round"></path><path d="M237.402 133.738H248.341" stroke="#B8C4D0" stroke-width="3" stroke-linecap="round"></path><path d="M261.715 133.738H281.162" stroke="#B8C4D0" stroke-opacity="0.4" stroke-width="3" stroke-linecap="round"></path><path d="M194.152 119.084H253.442L252.855 127.406C252.531 131.996 248.756 135.553 244.207 135.553H203.387C198.839 135.553 195.064 131.996 194.74 127.406L194.152 119.084Z" fill="#091B36"></path><path opacity="0.3" d="M207.324 126.769C207.324 126.162 207.964 125.671 208.754 125.671H236.637C237.427 125.671 238.067 126.162 238.067 126.769C238.067 127.375 237.427 127.867 236.637 127.867H208.754C207.964 127.867 207.324 127.375 207.324 126.769Z" fill="#FFFEFE"></path><g filter="url(#filter0_dd_20779_70472)"><path d="M100.359 325.827L114.359 325.827L114.359 297.827L100.359 297.827L100.359 325.827ZM100.359 257.652L114.359 257.652L114.359 229.652L100.359 229.652L100.359 257.652ZM100.359 297.827L55.0871 297.827L55.0871 325.827L100.359 325.827L100.359 297.827ZM55.0871 257.652L100.359 257.652L100.359 229.652L55.0871 229.652L55.0871 257.652ZM35 277.74C35 266.646 43.9933 257.652 55.0871 257.652L55.0871 229.652C28.5293 229.652 7 251.182 7 277.74L35 277.74ZM55.0871 297.827C43.9933 297.827 35 288.833 35 277.74L7 277.74C7 304.297 28.5293 325.827 55.0871 325.827L55.0871 297.827Z" fill="#5D5FEF"></path><path d="M103.555 325.827L117.555 325.827L117.555 297.827L103.555 297.827L103.555 325.827ZM103.555 297.827L55.0871 297.827L55.0871 325.827L103.555 325.827L103.555 297.827ZM55.0871 297.827C43.9933 297.827 35 288.833 35 277.74L7 277.74C7 304.297 28.5294 325.827 55.0871 325.827L55.0871 297.827Z" fill="#5D5FEF"></path><path d="M101.963 311.827L101.43 311.827" stroke="white" stroke-width="28" stroke-linecap="square"></path><path d="M101.963 243.652L101.43 243.652" stroke="white" stroke-width="28" stroke-linecap="square"></path><path d="M106.221 243.652L105.156 243.652" stroke="#091B36" stroke-width="28" stroke-linecap="square"></path><path d="M106.221 311.827L105.156 311.827" stroke="#091B36" stroke-width="28" stroke-linecap="square"></path></g><rect x="233.797" y="205.052" width="123.657" height="231.365" rx="6.5" fill="#EDF1F6" stroke="#526373" stroke-width="3"></rect><mask id="mask2_20779_70472" style="mask-type:alpha" maskUnits="userSpaceOnUse" x="235" y="206" width="121" height="230"><rect x="235.641" y="206.567" width="120.245" height="229.252" rx="6" fill="#C4C4C4"></rect></mask><g mask="url(#mask2_20779_70472)"><g clip-path="url(#clip1_20779_70472)"><path d="M378.363 192.82H215.414V446.717H378.363V192.82Z" fill="#F9EEE5"></path><path d="M368.054 437.155C366.232 440.174 363.937 436.13 360.402 436.13C356.867 436.13 356.867 437.483 353.334 437.483C349.801 437.483 349.801 436.13 346.269 436.13C342.737 436.13 342.734 437.483 339.201 437.483C335.668 437.483 335.668 436.13 332.136 436.13C328.605 436.13 328.6 437.483 325.066 437.483C321.533 437.483 321.533 436.13 317.997 436.13C314.46 436.13 314.463 437.483 310.93 437.483C307.397 437.483 307.395 436.13 303.862 436.13C300.329 436.13 300.327 437.483 296.792 437.483C293.257 437.483 293.257 436.13 289.723 436.13C286.188 436.13 286.188 437.483 282.653 437.483C279.118 437.483 279.118 436.13 275.583 436.13C272.048 436.13 272.048 437.483 268.515 437.483C264.982 437.483 264.98 436.13 261.447 436.13C257.914 436.13 257.912 437.483 254.377 437.483C250.842 437.483 250.841 436.13 247.306 436.13C243.771 436.13 243.771 437.483 240.236 437.483C236.701 437.483 236.699 436.13 233.161 436.13C229.623 436.13 227.329 440.176 225.509 437.155C222.478 432.144 226.769 430.955 226.769 425.104C226.769 419.252 225.411 419.252 225.411 413.401C225.411 407.55 226.769 407.551 226.769 401.698C226.769 395.845 225.411 395.849 225.411 389.997C225.411 384.146 226.769 384.144 226.769 378.293C226.769 372.442 225.411 372.442 225.411 366.59C225.411 360.739 226.769 360.738 226.769 354.888C226.769 349.038 225.411 349.035 225.411 343.184C225.411 337.332 226.769 337.332 226.769 331.483C226.769 325.633 225.411 325.631 225.411 319.78C225.411 313.929 226.769 313.929 226.769 308.076C226.769 302.223 225.411 302.224 225.411 296.375C225.411 290.525 226.769 290.522 226.769 284.67C226.769 278.819 225.411 278.819 225.411 272.968C225.411 267.116 226.769 267.115 226.769 261.262C226.769 255.409 225.411 255.409 225.411 249.556C225.411 243.703 226.769 243.704 226.769 237.851C226.769 231.998 225.411 231.998 225.411 226.145C225.411 220.292 226.769 220.292 226.769 214.438C226.769 208.583 222.48 207.398 225.508 202.382C227.337 199.364 229.625 203.408 233.16 203.408C236.694 203.408 236.691 202.055 240.226 202.055C243.761 202.055 243.759 203.408 247.291 203.408C250.822 203.408 250.826 202.055 254.359 202.055C257.892 202.055 257.892 203.408 261.425 203.408C264.958 203.408 264.96 202.055 268.493 202.055C272.027 202.055 272.028 203.408 275.561 203.408C279.095 203.408 279.095 202.055 282.631 202.055C286.168 202.055 286.164 203.408 289.699 203.408C293.234 203.408 293.239 202.055 296.766 202.055C300.292 202.055 300.301 203.408 303.837 203.408C307.374 203.408 307.379 202.055 310.905 202.055C314.432 202.055 314.44 203.408 317.975 203.408C321.51 203.408 321.51 202.055 325.045 202.055C328.58 202.055 328.58 203.408 332.111 203.408C335.643 203.408 335.648 202.055 339.183 202.055C342.717 202.055 342.717 203.408 346.254 203.408C349.791 203.408 349.789 202.055 353.324 202.055C356.859 202.055 356.86 203.408 360.395 203.408C363.93 203.408 366.231 199.363 368.047 202.382C371.076 207.393 366.785 208.581 366.785 214.433C366.785 220.284 368.145 220.284 368.145 226.135C368.145 231.987 366.785 231.987 366.785 237.838C366.785 243.689 368.145 243.689 368.145 249.541C368.145 255.392 366.785 255.392 366.785 261.245C366.785 267.098 368.145 267.096 368.145 272.948C368.145 278.799 366.785 278.799 366.785 284.65C366.785 290.502 368.145 290.502 368.145 296.353C368.145 302.204 366.785 302.204 366.785 308.056C366.785 313.907 368.145 313.905 368.145 319.757C368.145 325.608 366.785 325.61 366.785 331.461C366.785 337.312 368.145 337.312 368.145 343.164C368.145 349.015 366.785 349.017 366.785 354.866C366.785 360.716 368.145 360.719 368.145 366.571C368.145 372.422 366.785 372.422 366.785 378.277C366.785 384.131 368.145 384.128 368.145 389.981C368.145 395.834 366.785 395.832 366.785 401.685C366.785 407.538 368.145 407.54 368.145 413.391C368.145 419.242 365.692 419.478 366.798 425.226C367.991 431.385 371.09 432.139 368.054 437.155Z" fill="#C6DBFF"></path><path d="M368.155 343.164C368.155 337.313 366.794 337.313 366.794 331.461C366.794 325.61 368.155 325.61 368.155 319.757C368.155 314.3 366.972 313.932 366.814 309.159C363.487 311.009 353.115 316.646 351.61 315.897C349.813 315.002 349.512 314.405 348.316 315.298C347.12 316.192 345.538 315.897 345.538 315.897L331.442 325.892C331.442 325.892 319.56 320.375 318.662 319.878C317.763 319.381 309.975 319.878 309.975 319.878L297.823 313.808L293.099 315.3L283.987 307.091L277.025 308.583L262.247 301.641L256.902 307.089L244.406 298.58L232.394 304.7L227.595 302.462L226.211 302.73C226.507 304.042 226.771 305.484 226.771 308.076C226.771 313.929 225.414 313.929 225.414 319.78C225.414 325.631 226.771 325.631 226.771 331.483C226.771 337.334 225.414 337.332 225.414 343.184C225.414 349.035 226.771 349.035 226.771 354.888C226.771 355.326 226.771 355.73 226.75 356.107H366.814C366.799 355.724 366.789 355.314 366.789 354.867C366.794 349.01 368.155 349.01 368.155 343.164Z" fill="#5D5FEF"></path><path d="M368.153 343.164C368.153 337.313 366.792 337.313 366.792 331.461C366.77 329.964 366.897 328.469 367.17 326.996L363.537 328.314L336.63 321.715L306.48 328.314L278.436 340.337L242.528 342.668L226.725 333.201C226.492 337.399 225.414 337.973 225.414 343.184C225.414 349.035 226.771 349.035 226.771 354.888C226.771 359.944 225.758 360.634 225.482 364.505L292.701 372.348L367.704 361.736C367.308 359.844 366.794 358.456 366.794 354.86C366.792 349.01 368.153 349.01 368.153 343.164Z" fill="#393AA2"></path><path d="M366.795 354.867C366.795 349.351 368.003 349.034 368.141 344.108C365.444 345.504 363.54 346.476 363.54 346.476L330.478 357.681L296.623 360.12L277.021 364.399L238.385 355.187L226.768 354.25C226.768 354.458 226.768 354.67 226.768 354.895C226.768 360.745 225.41 360.745 225.41 366.598C225.41 370.868 226.132 372.023 226.525 374.61H367.033C367.424 372.01 368.151 370.859 368.151 366.578C368.156 360.72 366.795 360.72 366.795 354.867Z" fill="#17172F"></path><path d="M225.509 437.155C227.339 440.176 229.628 436.131 233.161 436.131C236.694 436.131 236.699 437.484 240.236 437.484C243.773 437.484 243.771 436.131 247.306 436.131C250.841 436.131 250.841 437.484 254.377 437.484C257.914 437.484 257.912 436.131 261.447 436.131C264.982 436.131 264.98 437.484 268.515 437.484C272.05 437.484 272.048 436.131 275.583 436.131C279.118 436.131 279.118 437.484 282.653 437.484C286.188 437.484 286.188 436.131 289.723 436.131C293.257 436.131 293.257 437.484 296.792 437.484C300.327 437.484 300.327 436.131 303.862 436.131C307.397 436.131 307.395 437.484 310.93 437.484C314.465 437.484 314.463 436.131 317.997 436.131C321.53 436.131 321.533 437.484 325.066 437.484C328.6 437.484 328.6 436.131 332.136 436.131C335.673 436.131 335.668 437.484 339.201 437.484C342.734 437.484 342.734 436.131 346.269 436.131C349.804 436.131 349.801 437.484 353.334 437.484C356.867 437.484 356.867 436.131 360.402 436.131C363.937 436.131 366.224 440.175 368.054 437.155C371.081 432.14 367.991 431.385 366.805 425.227C365.698 419.479 368.152 419.247 368.152 413.392C368.152 407.537 366.791 407.541 366.791 401.686C366.791 395.831 368.152 395.833 368.152 389.982C368.152 384.13 366.791 384.129 366.791 378.277C366.791 373.061 367.869 372.489 368.105 368.288H225.456C225.687 372.507 226.769 373.073 226.769 378.294C226.769 384.145 225.411 384.145 225.411 389.998C225.411 395.851 226.769 395.85 226.769 401.699C226.769 407.549 225.411 407.552 225.411 413.402C225.411 419.252 226.769 419.253 226.769 425.105C226.769 430.956 222.478 432.145 225.509 437.155Z" fill="#F5F8FF"></path><path opacity="0.6" d="M313.184 244.214C313.184 247.659 314.205 251.026 316.119 253.891C318.033 256.755 320.754 258.988 323.937 260.306C327.12 261.625 330.622 261.97 334.001 261.297C337.38 260.625 340.484 258.966 342.92 256.53C345.356 254.094 347.014 250.99 347.686 247.611C348.358 244.232 348.013 240.73 346.695 237.547C345.376 234.364 343.143 231.644 340.279 229.73C337.414 227.816 334.046 226.795 330.601 226.795C328.314 226.795 326.049 227.245 323.935 228.121C321.822 228.996 319.902 230.279 318.285 231.897C316.667 233.514 315.384 235.435 314.509 237.548C313.634 239.661 313.183 241.926 313.184 244.214Z" fill="#F9EEE5" fill-opacity="0.6"></path><path d="M225.509 437.155C227.339 440.176 229.628 436.13 233.161 436.13C236.694 436.13 236.699 437.483 240.236 437.483C243.773 437.483 243.771 436.13 247.306 436.13C250.841 436.13 250.841 437.483 254.377 437.483C257.914 437.483 257.912 436.13 261.447 436.13C264.982 436.13 264.98 437.483 268.515 437.483C272.05 437.483 272.048 436.13 275.583 436.13C279.118 436.13 279.118 437.483 282.653 437.483C286.188 437.483 286.188 436.13 289.723 436.13C293.257 436.13 293.257 437.483 296.792 437.483C300.327 437.483 300.327 436.13 303.862 436.13C307.397 436.13 307.395 437.483 310.93 437.483C314.465 437.483 314.463 436.13 317.997 436.13C321.53 436.13 321.533 437.483 325.066 437.483C328.6 437.483 328.6 436.13 332.136 436.13C335.673 436.13 335.668 437.483 339.201 437.483C342.734 437.483 342.734 436.13 346.269 436.13C349.804 436.13 349.801 437.483 353.334 437.483C356.867 437.483 356.867 436.13 360.402 436.13C363.937 436.13 366.224 440.174 368.054 437.155C371.081 432.14 367.991 431.385 366.805 425.227C365.698 419.479 368.152 419.246 368.152 413.392C368.152 407.537 366.791 407.54 366.791 401.686C366.791 395.831 368.152 395.833 368.152 389.981C368.156 389.061 368.114 388.141 368.026 387.224C334.922 390.169 266.221 396.327 226.735 400.157C226.757 400.621 226.769 401.132 226.769 401.694C226.769 407.547 225.411 407.547 225.411 413.397C225.411 419.246 226.769 419.248 226.769 425.099C226.769 430.951 222.478 432.144 225.509 437.155Z" fill="#E7EEFF"></path></g></g><mask id="mask3_20779_70472" style="mask-type:alpha" maskUnits="userSpaceOnUse" x="247" y="222" width="20" height="20"><circle cx="256.732" cy="231.976" r="9.47433" fill="#C4C4C4"></circle></mask><g mask="url(#mask3_20779_70472)"><circle cx="256.76" cy="232.003" r="9.225" fill="#F178B6"></circle><path d="M263.252 238.817C263.215 237.593 262.241 237.022 262.563 235.869C262.856 234.815 263.174 234.505 263.061 233.692C262.965 232.978 262.383 232.634 262.151 231.392C261.975 230.447 262.578 229.792 261.981 228.397C260.534 224.997 258.71 224.532 256.249 224.677C255.046 224.749 254.855 225.262 254.539 225.385C254.205 225.514 254.172 225.42 253.927 225.482C253.371 225.623 252.299 226.799 252.244 229.419C252.219 230.607 251.428 230.19 250.955 231.128C250.453 232.121 251.44 233.288 250.164 233.524C248.585 233.816 248.182 235.106 248.237 235.758C248.405 237.712 247.524 237.636 247.011 238.288C245.851 239.761 246.946 241.897 247.307 242.578C249.686 247.082 258.103 248.655 262.366 241.316C262.592 240.929 263.289 240.104 263.252 238.817Z" fill="#352F60"></path><path d="M261.752 248.83C263.293 244.239 265.412 240.909 264.3 239.058C263.234 237.285 262.906 237.275 262.082 237.195C258.899 236.881 258.928 235.864 257.239 235.915C257.206 235.915 257.001 235.915 256.964 235.915C255.288 235.868 255.308 236.881 252.134 237.195C251.31 237.277 250.982 237.285 249.916 239.058C248.803 240.909 250.922 244.239 252.464 248.83C253.285 251.28 251.968 253.615 251.537 254.47C251.06 255.416 250.847 255.316 250.92 255.991C251.039 257.055 253.878 257.87 256.706 257.843C256.839 257.841 257.434 257.843 257.598 257.843C260.397 257.854 263.178 257.045 263.295 255.991C263.369 255.318 263.156 255.418 262.678 254.47C262.248 253.615 260.93 251.282 261.752 248.83Z" fill="#C6DBFF"></path><path d="M258.966 236.507C258.677 233.484 258.63 231.172 257.861 231.513C257.593 231.632 257.343 231.777 257.105 231.974C256.867 231.777 256.617 231.632 256.349 231.513C255.58 231.172 255.533 233.487 255.244 236.507C255.199 236.966 255.89 238.96 257.105 238.96C258.194 238.96 259.009 236.966 258.966 236.507Z" fill="#FFCDBA"></path><path d="M255.422 234.53C255.412 234.657 256.34 235.915 257.103 235.915C257.982 235.915 258.81 234.657 258.8 234.532C258.468 234.856 257.818 235.402 257.103 235.402C256.467 235.4 255.766 234.854 255.422 234.53Z" fill="#EBB7A2"></path><path d="M260.321 227.545C259.968 226.294 258.603 225.576 257.105 225.604C255.609 225.576 254.242 226.294 253.889 227.545C253.654 228.382 253.633 229.022 253.803 230.338C253.951 231.484 254.098 233.214 255.312 234.457C255.596 234.749 256.388 235.432 257.097 235.432C257.896 235.432 258.613 234.749 258.898 234.457C260.11 233.214 260.259 231.482 260.407 230.338C260.577 229.022 260.556 228.384 260.321 227.545Z" fill="#FFCDBA"></path><path d="M261.189 228.713C261.243 227.361 260.405 225.542 259.099 225.574C258.865 225.581 258.738 225.661 258.675 225.769C258.392 225.537 257.771 225.144 257.076 225.144C256.402 225.144 255.814 225.533 255.543 225.765C255.477 225.661 255.352 225.581 255.121 225.574C253.815 225.542 252.977 227.361 253.03 228.713C253.055 229.356 252.926 230.092 253.229 230.238C253.875 230.55 254.508 229.374 254.955 228.217C254.916 228.8 254.93 229.284 254.969 229.542C254.994 229.706 255.088 229.801 255.305 229.819C255.305 229.819 255.842 229.92 257.021 229.903C257.049 229.903 257.168 229.903 257.197 229.903C258.376 229.92 258.912 229.819 258.912 229.819C259.13 229.801 259.224 229.706 259.249 229.542C259.288 229.286 259.304 228.802 259.263 228.217C259.71 229.374 260.343 230.55 260.989 230.238C261.292 230.092 261.163 229.356 261.189 228.713Z" fill="#352F60"></path></g><path d="M249.246 214.521H265.203" stroke="#B8C4D0" stroke-width="3" stroke-linecap="round"></path><path d="M269.191 214.521H285.148" stroke="#B8C4D0" stroke-width="3" stroke-linecap="round"></path><path d="M289.137 214.521H305.093" stroke="#B8C4D0" stroke-width="3" stroke-linecap="round"></path><path d="M309.082 214.521H325.039" stroke="#B8C4D0" stroke-opacity="0.4" stroke-width="3" stroke-linecap="round"></path><path d="M309.082 214.521H318.058" stroke="#B8C4D0" stroke-width="3" stroke-linecap="round"></path><path d="M329.031 214.521H344.988" stroke="#B8C4D0" stroke-opacity="0.4" stroke-width="3" stroke-linecap="round"></path><g filter="url(#filter1_dd_20779_70472)"><rect x="333.027" y="285.711" width="130.891" height="152.116" rx="8" fill="white"></rect><rect x="340.105" y="315.78" width="116.74" height="114.971" rx="8" fill="white"></rect><circle cx="348.949" cy="301.63" r="8.84396" fill="white"></circle><path d="M368.457 300.543H423.732" stroke="#B8C4D0" stroke-width="5" stroke-linecap="round"></path></g><mask id="mask4_20779_70472" style="mask-type:alpha" maskUnits="userSpaceOnUse" x="343" y="291" width="19" height="19"><circle cx="352.499" cy="300.543" r="8.97568" fill="#C4C4C4"></circle></mask><g mask="url(#mask4_20779_70472)"><path d="M352.278 309.838C357.344 309.838 361.451 305.732 361.451 300.666C361.451 295.601 357.344 291.495 352.278 291.495C347.212 291.495 343.105 295.601 343.105 300.666C343.105 305.732 347.212 309.838 352.278 309.838Z" fill="#5D5FEF"></path><path d="M349.002 307.046C349.834 307.046 350.508 306.07 350.508 304.866C350.508 303.663 349.834 302.687 349.002 302.687C348.17 302.687 347.496 303.663 347.496 304.866C347.496 306.07 348.17 307.046 349.002 307.046Z" fill="#FEB79C"></path><path d="M347.945 308.454L357.179 307.939C357.179 307.939 358.588 304.091 358.272 303.835C357.95 303.58 352.626 300.758 352.626 300.758L347.43 300.885L347.945 308.454Z" fill="#2C2D00"></path><path d="M352.69 317.431C356.16 317.431 358.974 314.876 358.974 311.725C358.974 308.574 356.16 306.019 352.69 306.019C349.22 306.019 346.406 308.574 346.406 311.725C346.406 314.876 349.22 317.431 352.69 317.431Z" fill="#9FC0FF"></path><path d="M352.377 307.876C351.626 307.876 351.01 307.405 350.99 306.818L350.903 304.122C350.883 303.525 351.492 303.022 352.256 303.011C353.027 303.001 353.663 303.472 353.677 304.069L353.764 306.766C353.784 307.363 353.174 307.866 352.41 307.876C352.404 307.876 352.39 307.876 352.377 307.876Z" fill="#FEB79C"></path><path d="M352.279 302.912C351.784 302.922 351.376 303.279 351.273 303.743L351.314 305.341C351.33 305.918 351.799 306.372 352.371 306.372C352.381 306.372 352.386 306.372 352.396 306.372C352.892 306.362 353.3 306.004 353.402 305.54L353.361 303.942C353.346 303.356 352.866 302.896 352.279 302.912Z" fill="#FAA887"></path><path d="M355.571 300.12C355.571 302.508 353.646 305.219 352.059 305.219C350.854 305.219 348.547 302.514 348.547 300.12C348.547 297.731 350.119 295.792 352.059 295.792C353.999 295.792 355.571 297.731 355.571 300.12Z" fill="#FEB79C"></path><path d="M350.42 296.654C350.094 296.689 349.741 296.934 349.394 297.297C348.863 298.052 348.547 299.037 348.547 300.119C348.547 301.431 349.241 302.834 350.068 303.84C349.69 303.059 349.517 302.273 349.991 301.324C350.42 300.461 351.048 298.532 351.048 298.532C351.048 298.532 351.722 296.511 350.42 296.654Z" fill="#FAA887"></path><path d="M352.071 295.792C350.856 295.792 349.789 296.552 349.156 297.706C349.478 298.39 350.529 300.151 352.985 300.651C354.945 301.049 353.776 302.881 353.745 304.371C354.761 303.381 355.583 301.682 355.583 300.12C355.583 297.731 354.011 295.792 352.071 295.792Z" fill="#FAA887"></path><path d="M349.424 297.042C349.424 297.042 350.302 299.64 353.37 300.263C355.728 300.742 353.564 303.294 354.283 304.83C354.819 305.974 356.014 305.698 355.1 306.851C354.186 308.005 354.906 311.899 357.647 311.036C360.388 310.169 360.822 305.601 359.766 303.728C358.709 301.85 357.31 301.227 357.167 299.497C357.024 297.767 355.723 295.026 353.033 294.832C351.328 294.71 348.99 294.541 349.424 297.042Z" fill="#2E2F06"></path><path d="M350.478 298.098C350.478 298.098 349.85 300.027 349.421 300.89C348.702 302.334 349.467 303.391 350.192 304.641C350.723 305.56 350.054 306.785 349.661 307.382C348.941 308.489 348.314 308.729 349.13 309.592C349.947 310.459 345.281 313.68 344.802 310.745C344.322 307.811 345.715 306.8 346.389 305.453C347.063 304.105 345.669 304.156 346.486 301.222C346.91 299.706 348.553 296.363 349.855 296.22C351.152 296.077 350.478 298.098 350.478 298.098Z" fill="#2E2F06"></path></g><path d="M76.7266 423.974C76.7266 419.556 80.3083 415.974 84.7266 415.974H199.617C204.035 415.974 207.617 419.556 207.617 423.974V440.697C207.617 445.115 204.035 448.697 199.617 448.697H84.7266C80.3083 448.697 76.7266 445.115 76.7266 440.697V423.974Z" fill="#EF5DA8"></path><path d="M120.066 432.777H175.341" stroke="white" stroke-width="5" stroke-linecap="round"></path><path d="M105.913 429.84V427.348H102.823L103.882 421.279H101.204L100.116 427.348H96.4664L97.5258 421.279H94.8185L93.759 427.348H90.1394V429.84H93.3176L92.6113 433.974H89.1094V436.465H92.1699L91.1105 442.505H93.8179L94.8773 436.465H98.5264L97.467 442.505H100.174L101.234 436.465H104.912V433.974H101.675L102.382 429.84H105.913ZM99.6741 429.84L98.9678 433.974H95.3187L96.025 429.84H99.6741Z" fill="white"></path><mask id="mask5_20779_70472" style="mask-type:alpha" maskUnits="userSpaceOnUse" x="344" y="316" width="110" height="111"><rect x="344.652" y="316.699" width="109.007" height="110.131" rx="6" fill="#C4C4C4"></rect></mask><g mask="url(#mask5_20779_70472)"><path d="M456.085 502.349C454.636 504.767 452.826 501.527 450.028 501.527C447.23 501.527 447.232 502.612 444.435 502.612C441.639 502.612 441.639 501.527 438.845 501.527C436.051 501.527 436.046 502.612 433.249 502.612C430.453 502.612 430.453 501.527 427.656 501.527C424.86 501.527 424.86 502.612 422.062 502.612C419.264 502.612 419.264 501.527 416.466 501.527C413.668 501.527 413.67 502.612 410.873 502.612C408.077 502.612 408.075 501.527 405.279 501.527C402.483 501.527 402.481 502.612 399.683 502.612C396.886 502.612 396.886 501.527 394.088 501.527C391.29 501.527 391.29 502.612 388.492 502.612C385.694 502.612 385.694 501.527 382.897 501.527C380.099 501.527 380.099 502.612 377.302 502.612C374.506 502.612 374.503 501.527 371.708 501.527C368.913 501.527 368.91 502.612 366.112 502.612C363.315 502.612 363.313 501.527 360.515 501.527C357.718 501.527 357.718 502.612 354.92 502.612C352.122 502.612 352.121 501.527 349.32 501.527C346.52 501.527 344.705 504.77 343.264 502.349C340.865 498.333 344.26 497.38 344.26 492.693C344.26 488.005 343.187 488.004 343.187 483.315C343.187 478.627 344.26 478.627 344.26 473.938C344.26 469.249 343.187 469.251 343.187 464.562C343.187 459.873 344.26 459.872 344.26 455.183C344.26 450.495 343.187 450.495 343.187 445.805C343.187 441.115 344.26 441.116 344.26 436.427C344.26 431.738 343.187 431.738 343.187 427.05C343.187 422.361 344.26 422.361 344.26 417.674C344.26 412.986 343.187 412.985 343.187 408.296C343.187 403.608 344.26 403.608 344.26 398.918C344.26 394.228 343.187 394.229 343.187 389.542C343.187 384.854 344.26 384.852 344.26 380.163C344.26 375.474 343.187 375.474 343.187 370.786C343.187 366.097 344.26 366.094 344.26 361.406C344.26 356.717 343.187 356.716 343.187 352.026C343.187 347.336 344.26 347.336 344.26 342.647C344.26 337.958 343.187 337.957 343.187 333.267C343.187 328.577 344.26 328.577 344.26 323.885C344.26 319.194 340.865 318.244 343.264 314.225C344.704 311.806 346.521 315.048 349.32 315.048C352.119 315.048 352.115 313.962 354.912 313.962C357.708 313.962 357.71 315.048 360.505 315.048C363.3 315.048 363.303 313.962 366.099 313.962C368.896 313.962 368.896 315.048 371.692 315.048C374.489 315.048 374.489 313.962 377.288 313.962C380.087 313.962 380.084 315.048 382.882 315.048C385.68 315.048 385.68 313.962 388.476 313.962C391.273 313.962 391.273 315.048 394.071 315.048C396.868 315.048 396.868 313.962 399.666 313.962C402.464 313.962 402.464 315.048 405.262 315.048C408.06 315.048 408.06 313.962 410.856 313.962C413.653 313.962 413.654 315.048 416.452 315.048C419.25 315.048 419.25 313.962 422.047 313.962C424.845 313.962 424.844 315.048 427.642 315.048C430.439 315.048 430.439 313.962 433.237 313.962C436.035 313.962 436.035 315.048 438.833 315.048C441.631 315.048 441.632 313.962 444.429 313.962C447.225 313.962 447.229 315.048 450.028 315.048C452.827 315.048 454.636 311.804 456.085 314.224C458.483 318.24 455.088 319.193 455.088 323.881C455.088 328.57 456.162 328.57 456.162 333.259C456.162 337.948 455.088 337.948 455.088 342.635C455.088 347.322 456.162 347.324 456.162 352.012C456.162 356.701 455.088 356.702 455.088 361.392C455.088 366.082 456.162 366.081 456.162 370.768C456.162 375.456 455.088 375.458 455.088 380.147C455.088 384.836 456.162 384.836 456.162 389.524C456.162 394.213 455.088 394.213 455.088 398.902C455.088 403.59 456.162 403.589 456.162 408.278C456.162 412.966 455.088 412.968 455.088 417.656C455.088 422.345 456.162 422.345 456.162 427.033C456.162 431.72 455.088 431.723 455.088 436.411C455.088 441.1 456.162 441.101 456.162 445.789C456.162 450.476 455.088 450.479 455.088 455.169C455.088 459.859 456.162 459.859 456.162 464.547C456.162 469.236 455.088 469.237 455.088 473.927C455.088 478.617 456.162 478.617 456.162 483.307C456.162 487.997 454.22 488.183 455.097 492.79C456.034 497.725 458.479 498.33 456.085 502.349Z" fill="#F08062"></path><path d="M456.085 502.349C454.636 504.767 452.826 501.527 450.028 501.527C447.23 501.527 447.232 502.612 444.435 502.612C441.639 502.612 441.639 501.527 438.845 501.527C436.051 501.527 436.046 502.612 433.249 502.612C430.453 502.612 430.453 501.527 427.656 501.527C424.86 501.527 424.86 502.612 422.062 502.612C419.264 502.612 419.264 501.527 416.466 501.527C413.668 501.527 413.67 502.612 410.873 502.612C408.077 502.612 408.075 501.527 405.279 501.527C402.483 501.527 402.481 502.612 399.683 502.612C396.886 502.612 396.886 501.527 394.088 501.527C391.29 501.527 391.29 502.612 388.492 502.612C385.694 502.612 385.694 501.527 382.897 501.527C380.099 501.527 380.099 502.612 377.302 502.612C374.506 502.612 374.503 501.527 371.708 501.527C368.913 501.527 368.91 502.612 366.112 502.612C363.315 502.612 363.313 501.527 360.515 501.527C357.718 501.527 357.718 502.612 354.92 502.612C352.122 502.612 352.121 501.527 349.32 501.527C346.52 501.527 344.705 504.77 343.264 502.349C340.865 498.333 344.26 497.38 344.26 492.693C344.26 488.005 343.187 488.004 343.187 483.315C343.187 478.627 344.26 478.627 344.26 473.938C344.26 469.249 343.187 469.251 343.187 464.562C343.187 459.873 344.26 459.872 344.26 455.183C344.26 450.495 343.187 450.495 343.187 445.805C343.187 441.115 344.26 441.116 344.26 436.427C344.26 431.738 343.187 431.738 343.187 427.05C343.187 422.361 344.26 422.361 344.26 417.674C344.26 412.986 343.187 412.985 343.187 408.296C343.187 403.608 344.26 403.608 344.26 398.918C344.26 394.228 343.187 394.229 343.187 389.542C343.187 384.854 344.26 384.852 344.26 380.163C344.26 375.474 343.187 375.474 343.187 370.786C343.187 366.097 344.26 366.094 344.26 361.406C344.26 356.717 343.187 356.716 343.187 352.026C343.187 347.336 344.26 347.336 344.26 342.647C344.26 337.958 343.187 337.957 343.187 333.267C343.187 328.577 344.26 328.577 344.26 323.885C344.26 319.194 340.865 318.244 343.264 314.225C344.704 311.806 346.521 315.048 349.32 315.048C352.119 315.048 352.115 313.962 354.912 313.962C357.708 313.962 357.71 315.048 360.505 315.048C363.3 315.048 363.303 313.962 366.099 313.962C368.896 313.962 368.896 315.048 371.692 315.048C374.489 315.048 374.489 313.962 377.288 313.962C380.087 313.962 380.084 315.048 382.882 315.048C385.68 315.048 385.68 313.962 388.476 313.962C391.273 313.962 391.273 315.048 394.071 315.048C396.868 315.048 396.868 313.962 399.666 313.962C402.464 313.962 402.464 315.048 405.262 315.048C408.06 315.048 408.06 313.962 410.856 313.962C413.653 313.962 413.654 315.048 416.452 315.048C419.25 315.048 419.25 313.962 422.047 313.962C424.845 313.962 424.844 315.048 427.642 315.048C430.439 315.048 430.439 313.962 433.237 313.962C436.035 313.962 436.035 315.048 438.833 315.048C441.631 315.048 441.632 313.962 444.429 313.962C447.225 313.962 447.229 315.048 450.028 315.048C452.827 315.048 454.636 311.804 456.085 314.224C458.483 318.24 455.088 319.193 455.088 323.881C455.088 328.57 456.162 328.57 456.162 333.259C456.162 337.948 455.088 337.948 455.088 342.635C455.088 347.322 456.162 347.324 456.162 352.012C456.162 356.701 455.088 356.702 455.088 361.392C455.088 366.082 456.162 366.081 456.162 370.768C456.162 375.456 455.088 375.458 455.088 380.147C455.088 384.836 456.162 384.836 456.162 389.524C456.162 394.213 455.088 394.213 455.088 398.902C455.088 403.59 456.162 403.589 456.162 408.278C456.162 412.966 455.088 412.968 455.088 417.656C455.088 422.345 456.162 422.345 456.162 427.033C456.162 431.72 455.088 431.723 455.088 436.411C455.088 441.1 456.162 441.101 456.162 445.789C456.162 450.476 455.088 450.479 455.088 455.169C455.088 459.859 456.162 459.859 456.162 464.547C456.162 469.236 455.088 469.237 455.088 473.927C455.088 478.617 456.162 478.617 456.162 483.307C456.162 487.997 454.22 488.183 455.097 492.79C456.034 497.725 458.479 498.33 456.085 502.349Z" fill="url(#paint0_linear_20779_70472)"></path><path d="M440.204 399.251C440.204 399.251 427.169 391.29 425.267 391.184C423.364 391.077 410.568 403.969 410.568 403.969C410.568 403.969 394.447 389.62 392.313 389.136C390.179 388.653 378.094 399.251 378.094 399.251C377.383 400.035 362.689 392.246 360.55 391.184C358.97 390.398 349.161 397.718 344.109 401.619C343.81 403.877 343.188 404.735 343.188 408.296C343.188 412.985 344.261 412.985 344.261 417.673C344.278 418.858 344.181 420.042 343.971 421.208L441.863 416.026L440.204 399.251Z" fill="#CF8B7A"></path><path d="M456.164 427.033C456.164 422.346 455.09 422.346 455.09 417.657C455.09 412.969 456.164 412.969 456.164 408.279C456.164 404.027 455.281 403.628 455.111 400.101C451.369 397.29 446.437 393.639 444.231 392.247C440.438 389.856 436.643 392.247 436.643 392.247C436.643 392.247 427.163 399.422 423.842 401.358C420.52 403.294 408.195 386.505 402.978 387.462C397.762 388.418 352.244 420 352.244 420L343.342 424.339C343.229 425.238 343.176 426.144 343.184 427.051C343.184 431.739 344.257 431.739 344.257 436.428C344.257 439.085 343.912 440.241 343.612 441.596C379.982 442.686 435.563 444.304 456.134 444.631C455.975 441.063 455.081 440.678 455.081 436.412C455.09 431.719 456.164 431.719 456.164 427.033Z" fill="#AF6A54"></path><path opacity="0.4" d="M357.462 424.066C362.679 420.956 398.476 392.486 401.795 389.376C402.897 388.343 404.234 387.999 405.529 387.995C404.572 387.54 403.707 387.331 402.982 387.464C397.767 388.42 352.247 420.002 352.247 420.002L348.84 421.662C350.813 423.654 354.137 426.049 357.462 424.066Z" fill="#83462F"></path><path d="M456.161 427.032C456.161 422.344 455.086 422.344 455.086 417.656C455.086 413.374 455.983 413.006 456.14 409.398C452.136 413.262 447.355 418.254 446.133 417.689C444.238 416.816 441.394 417.127 439.024 417.689C436.654 418.251 429.544 423.825 427.174 423.955C424.804 424.085 416.269 423.822 413.425 423.955C410.581 424.088 396.355 420.001 396.355 420.001C396.355 420.001 380.708 424.784 376.914 423.827C374.129 423.126 354.217 416.748 343.831 413.408C344.064 414.455 344.272 415.61 344.272 417.676C344.272 422.363 343.199 422.363 343.199 427.052C343.199 431.74 344.272 431.74 344.272 436.429C344.272 441.118 343.199 441.118 343.199 445.806V445.845L455.412 440.068C455.186 438.864 455.082 437.639 455.1 436.413C455.086 431.718 456.161 431.718 456.161 427.032Z" fill="#83462F"></path><path opacity="0.4" d="M438.073 400.143L436.177 403.73C436.177 403.73 444.603 392.445 446.255 393.607C445.465 393.052 444.769 392.583 444.237 392.247C440.444 389.855 436.649 392.247 436.649 392.247C436.649 392.247 427.17 399.422 423.848 401.357C423.079 401.806 421.827 401.248 420.293 400.143C420.293 400.143 427.403 406.362 430.486 407.317L438.073 400.143Z" fill="#83462F"></path><path d="M420.801 342.409C420.801 344.659 421.468 346.86 422.719 348.731C423.969 350.602 425.746 352.061 427.826 352.922C429.905 353.784 432.193 354.009 434.401 353.57C436.608 353.131 438.636 352.047 440.227 350.455C441.819 348.864 442.903 346.836 443.342 344.629C443.781 342.421 443.556 340.133 442.694 338.054C441.833 335.974 440.374 334.197 438.503 332.947C436.632 331.696 434.431 331.029 432.181 331.029C429.163 331.029 426.268 332.228 424.134 334.362C422 336.496 420.801 339.391 420.801 342.409Z" fill="#F9EEE5" fill-opacity="0.6"></path><path opacity="0.5" d="M343.048 367.256C342.855 368.457 342.767 369.674 342.783 370.892C342.783 373.531 343.081 374.782 343.364 376.107H407.267C407.267 376.107 364.451 368.982 343.048 367.256Z" fill="#F9EEE5" fill-opacity="0.6"></path><path opacity="0.5" d="M357.016 332.432H406.462C406.462 332.432 381.434 322.318 357.016 332.432Z" fill="#F9EEE5" fill-opacity="0.6"></path><path opacity="0.5" d="M456.575 354.612C435.343 356.85 399.676 363.463 399.676 363.463H455.658C455.625 362.975 455.605 362.425 455.605 361.789C455.602 357.972 456.298 357.209 456.575 354.612Z" fill="#F9EEE5" fill-opacity="0.6"></path></g><defs><filter id="filter0_dd_20779_70472" x="0" y="222.652" width="135.223" height="118.174" filterUnits="userSpaceOnUse" color-interpolation-filters="sRGB"><feFlood flood-opacity="0" result="BackgroundImageFix"></feFlood><feColorMatrix in="SourceAlpha" type="matrix" values="0 0 0 0 0 0 0 0 0 0 0 0 0 0 0 0 0 0 127 0" result="hardAlpha"></feColorMatrix><feOffset dx="5" dy="5"></feOffset><feGaussianBlur stdDeviation="5"></feGaussianBlur><feColorMatrix type="matrix" values="0 0 0 0 0 0 0 0 0 0.296699 0 0 0 0 0.858629 0 0 0 0.08 0"></feColorMatrix><feBlend mode="normal" in2="BackgroundImageFix" result="effect1_dropShadow_20779_70472"></feBlend><feColorMatrix in="SourceAlpha" type="matrix" values="0 0 0 0 0 0 0 0 0 0 0 0 0 0 0 0 0 0 127 0" result="hardAlpha"></feColorMatrix><feOffset></feOffset><feGaussianBlur stdDeviation="3.5"></feGaussianBlur><feComposite in2="hardAlpha" operator="out"></feComposite><feColorMatrix type="matrix" values="0 0 0 0 0.0354167 0 0 0 0 0.105426 0 0 0 0 0.2125 0 0 0 0.07 0"></feColorMatrix><feBlend mode="normal" in2="effect1_dropShadow_20779_70472" result="effect2_dropShadow_20779_70472"></feBlend><feBlend mode="normal" in="SourceGraphic" in2="effect2_dropShadow_20779_70472" result="shape"></feBlend></filter><filter id="filter1_dd_20779_70472" x="321.027" y="275.711" width="154.891" height="176.116" filterUnits="userSpaceOnUse" color-interpolation-filters="sRGB"><feFlood flood-opacity="0" result="BackgroundImageFix"></feFlood><feColorMatrix in="SourceAlpha" type="matrix" values="0 0 0 0 0 0 0 0 0 0 0 0 0 0 0 0 0 0 127 0" result="hardAlpha"></feColorMatrix><feOffset dy="4"></feOffset><feGaussianBlur stdDeviation="5"></feGaussianBlur><feColorMatrix type="matrix" values="0 0 0 0 0.607843 0 0 0 0 0.67451 0 0 0 0 0.737255 0 0 0 0.35 0"></feColorMatrix><feBlend mode="normal" in2="BackgroundImageFix" result="effect1_dropShadow_20779_70472"></feBlend><feColorMatrix in="SourceAlpha" type="matrix" values="0 0 0 0 0 0 0 0 0 0 0 0 0 0 0 0 0 0 127 0" result="hardAlpha"></feColorMatrix><feOffset dy="2"></feOffset><feGaussianBlur stdDeviation="6"></feGaussianBlur><feColorMatrix type="matrix" values="0 0 0 0 0.89625 0 0 0 0 0.930414 0 0 0 0 0.995833 0 0 0 1 0"></feColorMatrix><feBlend mode="normal" in2="effect1_dropShadow_20779_70472" result="effect2_dropShadow_20779_70472"></feBlend><feBlend mode="normal" in="SourceGraphic" in2="effect2_dropShadow_20779_70472" result="shape"></feBlend></filter><linearGradient id="paint0_linear_20779_70472" x1="399.756" y1="316.955" x2="399.756" y2="403.749" gradientUnits="userSpaceOnUse"><stop stop-color="#F8AF5F"></stop><stop offset="0.41" stop-color="#FBCB85"></stop><stop offset="0.78" stop-color="#FEDFA2"></stop><stop offset="1" stop-color="#FFE7AC"></stop></linearGradient><clipPath id="clip0_20779_70472"><rect width="212.395" height="336.867" rx="5" transform="matrix(-1 0 0 1 310.934 94.4863)" fill="white"></rect></clipPath><clipPath id="clip1_20779_70472"><rect width="162.949" height="257.686" fill="white" transform="translate(215.414 192.615)"></rect></clipPath></defs></svg>