<svg xmlns="http://www.w3.org/2000/svg" width="664" height="482" viewBox="0 0 664 482" fill="none"><path d="M427.864 341.435C434.02 335.28 434.02 325.3 427.864 319.145C421.709 312.99 411.73 312.99 405.575 319.145C399.419 325.3 399.419 335.28 405.575 341.435C411.73 347.59 421.709 347.59 427.864 341.435Z" fill="#0BE597"></path><path d="M415.038 336.834C414.916 336.834 414.807 336.797 414.722 336.712C414.515 336.542 409.785 332.481 409.298 331.994C409.104 331.8 409.104 331.496 409.298 331.301C409.493 331.107 409.797 331.107 409.991 331.301C410.332 331.642 413.214 334.134 414.989 335.642L424.474 323.92C424.644 323.713 424.948 323.677 425.155 323.847C425.361 324.017 425.398 324.321 425.228 324.528L415.427 336.639C415.342 336.737 415.22 336.809 415.099 336.822C415.074 336.834 415.062 336.834 415.038 336.834Z" fill="white" stroke="white" stroke-width="2"></path><path d="M240.453 362.601V337.768" stroke="white" stroke-width="3.5" stroke-linecap="round" stroke-linejoin="round"></path><path d="M228.078 350.184L240.451 337.768L252.824 350.184" stroke="white" stroke-width="3.5" stroke-linecap="round" stroke-linejoin="round"></path><mask id="mask0_18979_45623" style="mask-type:alpha" maskUnits="userSpaceOnUse" x="0" y="0" width="727" height="482"><path d="M0 48C0 21.4903 21.4903 0 48 0H727V482H48C21.4903 482 0 460.51 0 434V48Z" fill="#F5F8FF"></path></mask><g mask="url(#mask0_18979_45623)"><path d="M0 48C0 21.4903 21.4903 0 48 0H727V482H48C21.4903 482 0 460.51 0 434V48Z" fill="#F5F8FF"></path></g><path fill-rule="evenodd" clip-rule="evenodd" d="M324.215 64.75H324.24C325.557 64.75 326.87 64.7646 328.18 64.7935L328.125 67.2929C326.841 67.2645 325.555 67.2502 324.265 67.25C322.906 67.305 321.555 67.3712 320.212 67.4485L320.069 64.9527C321.434 64.8741 322.808 64.8068 324.19 64.751L324.215 64.75ZM343.566 68.3218C341.013 68.0368 338.443 67.8077 335.858 67.6355L336.024 65.141C338.646 65.3157 341.253 65.5481 343.844 65.8372L343.566 68.3218ZM312.202 68.0486C309.564 68.2927 306.959 68.5806 304.385 68.9112L304.067 66.4316C306.67 66.0972 309.304 65.806 311.971 65.5592L312.202 68.0486ZM358.858 70.7278C356.337 70.2138 353.796 69.7549 351.237 69.3524L351.625 66.8827C354.221 67.2911 356.799 67.7567 359.358 68.2781L358.858 70.7278ZM296.417 70.0873C293.773 70.5291 291.165 71.0171 288.592 71.5502L288.085 69.1022C290.689 68.5625 293.329 68.0686 296.005 67.6215L296.417 70.0873ZM373.876 74.5014C371.409 73.7619 368.92 73.076 366.41 72.4453L367.019 70.0207C369.566 70.6606 372.091 71.3564 374.594 72.1067L373.876 74.5014ZM280.872 73.3109C278.25 73.9645 275.667 74.6662 273.124 75.4146L272.418 73.0163C274.995 72.258 277.611 71.5471 280.267 70.8851L280.872 73.3109ZM388.489 79.6108C386.098 78.652 383.681 77.7452 381.24 76.8916L382.065 74.5317C384.542 75.3977 386.994 76.3177 389.42 77.2903L388.489 79.6108ZM265.614 77.7981C263.057 78.67 260.542 79.5906 258.07 80.5582L257.159 78.2302C259.666 77.249 262.215 76.3157 264.807 75.4319L265.614 77.7981ZM402.586 86.0097C400.288 84.8403 397.962 83.7208 395.609 82.6525L396.642 80.3761C399.03 81.4598 401.389 82.5955 403.72 83.7817L402.586 86.0097ZM250.75 83.6143C248.303 84.7011 245.902 85.8357 243.544 87.0161L242.425 84.7808C244.817 83.583 247.253 82.4321 249.735 81.3297L250.75 83.6143ZM416.057 93.639C413.871 92.2696 411.654 90.9477 409.406 89.6747L410.638 87.4994C412.918 88.7907 415.167 90.1315 417.384 91.5203L416.057 93.639ZM236.508 90.7487C234.186 92.0515 231.91 93.4008 229.681 94.7946L228.355 92.6749C230.618 91.2601 232.928 89.8906 235.284 88.5684L236.508 90.7487ZM428.805 102.429C426.746 100.872 424.653 99.3598 422.527 97.8937L423.947 95.8356C426.103 97.3226 428.225 98.8564 430.313 100.436L428.805 102.429ZM223.018 99.1882C220.837 100.703 218.704 102.263 216.62 103.865L215.096 101.883C217.212 100.256 219.377 98.673 221.591 97.135L223.018 99.1882ZM440.734 112.303C438.818 110.572 436.866 108.882 434.877 107.236L436.471 105.31C438.488 106.979 440.468 108.693 442.41 110.449L440.734 112.303ZM210.41 108.886C208.388 110.604 206.417 112.364 204.496 114.164L202.787 112.339C204.737 110.512 206.738 108.725 208.791 106.981L210.41 108.886ZM451.759 123.177C450 121.285 448.202 119.432 446.364 117.62L448.12 115.84C449.983 117.678 451.807 119.556 453.59 121.475L451.759 123.177ZM198.804 119.764C196.959 121.67 195.165 123.616 193.423 125.598L191.545 123.948C193.313 121.935 195.134 119.96 197.008 118.025L198.804 119.764ZM461.803 134.964C460.213 132.927 458.581 130.925 456.908 128.962L458.811 127.34C460.508 129.331 462.162 131.36 463.774 133.426L461.803 134.964ZM188.303 131.715C186.648 133.791 185.047 135.902 183.498 138.047L181.471 136.583C183.043 134.406 184.669 132.264 186.348 130.156L188.303 131.715ZM470.795 147.574C469.386 145.406 467.932 143.272 466.435 141.172L468.47 139.72C469.988 141.85 471.462 144.014 472.891 146.211L470.795 147.574ZM178.985 144.615C177.533 146.838 176.135 149.092 174.79 151.376L172.636 150.107C174 147.79 175.419 145.503 176.892 143.248L178.985 144.615ZM478.669 160.912C477.451 158.63 476.186 156.378 474.875 154.158L477.028 152.887C478.357 155.138 479.64 157.421 480.874 159.735L478.669 160.912ZM170.905 158.33C169.663 160.677 168.475 163.051 167.341 165.45L165.081 164.382C166.231 161.949 167.436 159.542 168.695 157.161L170.905 158.33ZM485.365 174.873C484.348 172.495 483.282 170.143 482.167 167.82L484.421 166.739C485.551 169.094 486.632 171.478 487.664 173.89L485.365 174.873ZM164.098 172.725C163.07 175.174 162.097 177.645 161.177 180.136L158.832 179.271C159.764 176.746 160.751 174.241 161.792 171.758L164.098 172.725ZM490.838 189.358C490.028 186.9 489.168 184.466 488.257 182.056L490.596 181.173C491.519 183.616 492.392 186.084 493.213 188.576L490.838 189.358ZM158.581 187.668C157.77 190.197 157.013 192.743 156.309 195.305L153.899 194.643C154.611 192.048 155.378 189.467 156.201 186.904L158.581 187.668ZM495.049 204.262C494.452 201.742 493.803 199.242 493.103 196.764L495.509 196.085C496.219 198.597 496.877 201.131 497.482 203.686L495.049 204.262ZM154.363 203.031C153.768 205.62 153.228 208.222 152.741 210.834L150.284 210.376C150.776 207.73 151.324 205.094 151.927 202.472L154.363 203.031ZM497.972 219.478C497.592 216.913 497.158 214.366 496.673 211.838L499.128 211.366C499.62 213.929 500.059 216.511 500.445 219.111L497.972 219.478ZM151.445 218.697C151.066 221.326 150.742 223.964 150.472 226.607L147.985 226.353C148.259 223.676 148.587 221.004 148.97 218.341L151.445 218.697ZM499.591 234.875C499.429 232.288 499.213 229.716 498.944 227.16L501.431 226.898C501.703 229.489 501.922 232.096 502.086 234.718L499.591 234.875ZM149.824 234.551C149.662 237.203 149.554 239.858 149.5 242.515L147 242.464C147.055 239.773 147.164 237.084 147.329 234.399L149.824 234.551ZM499.955 246.498C499.955 245.199 499.941 243.903 499.914 242.611L502.414 242.559C502.432 243.454 502.445 244.35 502.451 245.248H502.459V246.498C502.459 247.814 502.445 249.127 502.418 250.436L499.919 250.384C499.937 249.507 499.949 248.628 499.955 247.748V246.498ZM149.499 250.485C149.553 253.142 149.661 255.797 149.823 258.449L147.328 258.601C147.164 255.916 147.055 253.226 147 250.536L149.499 250.485ZM498.949 265.836C499.217 263.28 499.433 260.708 499.596 258.121L502.091 258.278C501.926 260.9 501.707 263.507 501.435 266.097L498.949 265.836ZM150.471 266.393C150.741 269.036 151.065 271.674 151.443 274.303L148.968 274.659C148.585 271.996 148.257 269.324 147.984 266.647L150.471 266.393ZM496.677 281.159C497.162 278.631 497.596 276.083 497.976 273.518L500.449 273.885C500.064 276.485 499.624 279.067 499.132 281.63L496.677 281.159ZM152.739 282.166C153.226 284.779 153.766 287.38 154.361 289.969L151.924 290.529C151.322 287.906 150.774 285.27 150.282 282.624L152.739 282.166ZM493.107 296.232C493.807 293.755 494.456 291.255 495.053 288.735L497.486 289.311C496.881 291.866 496.223 294.4 495.513 296.912L493.107 296.232ZM156.307 297.695C157.01 300.257 157.767 302.804 158.578 305.333L156.198 306.096C155.375 303.533 154.608 300.953 153.896 298.357L156.307 297.695ZM488.261 310.941C489.172 308.531 490.032 306.097 490.842 303.639L493.217 304.421C492.396 306.913 491.523 309.381 490.6 311.824L488.261 310.941ZM161.174 312.864C162.093 315.355 163.067 317.826 164.094 320.275L161.789 321.243C160.747 318.76 159.761 316.255 158.829 313.73L161.174 312.864ZM482.171 325.177C483.285 322.854 484.352 320.503 485.369 318.124L487.668 319.108C486.636 321.519 485.555 323.903 484.425 326.258L482.171 325.177ZM167.338 327.55C168.472 329.949 169.66 332.323 170.902 334.671L168.692 335.84C167.432 333.459 166.228 331.051 165.078 328.619L167.338 327.55ZM474.879 338.84C476.19 336.619 477.455 334.368 478.672 332.086L480.878 333.263C479.643 335.576 478.361 337.859 477.032 340.111L474.879 338.84ZM174.786 341.625C176.131 343.908 177.53 346.163 178.982 348.386L176.889 349.753C175.416 347.497 173.997 345.21 172.632 342.894L174.786 341.625ZM466.438 351.826C467.935 349.726 469.389 347.592 470.798 345.424L472.894 346.787C471.466 348.984 469.992 351.148 468.473 353.278L466.438 351.826ZM183.495 354.954C185.044 357.098 186.646 359.21 188.301 361.286L186.346 362.844C184.666 360.737 183.04 358.594 181.468 356.418L183.495 354.954ZM456.911 364.037C458.585 362.073 460.217 360.072 461.806 358.034L463.777 359.572C462.166 361.638 460.511 363.667 458.814 365.658L456.911 364.037ZM193.42 367.402C195.163 369.384 196.956 371.329 198.802 373.236L197.006 374.975C195.132 373.039 193.311 371.064 191.543 369.052L193.42 367.402ZM446.367 375.378C448.204 373.566 450.003 371.713 451.762 369.822L453.593 371.524C451.81 373.442 449.986 375.321 448.123 377.158L446.367 375.378ZM204.495 378.836C206.416 380.635 208.387 382.395 210.408 384.112L208.79 386.018C206.737 384.274 204.736 382.487 202.785 380.66L204.495 378.836ZM434.88 385.763C436.868 384.117 438.821 382.427 440.736 380.696L442.413 382.55C440.471 384.306 438.49 386.019 436.474 387.689L434.88 385.763ZM216.62 389.133C218.703 390.735 220.836 392.295 223.017 393.81L221.591 395.863C219.377 394.325 217.212 392.742 215.096 391.115L216.62 389.133ZM422.53 395.106C424.656 393.639 426.749 392.127 428.807 390.57L430.315 392.563C428.228 394.143 426.105 395.677 423.949 397.164L422.53 395.106ZM229.681 398.203C231.91 399.597 234.185 400.946 236.508 402.248L235.285 404.429C232.928 403.107 230.618 401.737 228.356 400.323L229.681 398.203ZM409.408 403.325C411.656 402.052 413.874 400.73 416.06 399.36L417.387 401.479C415.169 402.868 412.92 404.209 410.64 405.5L409.408 403.325ZM243.545 405.981C245.902 407.161 248.304 408.295 250.75 409.382L249.735 411.667C247.254 410.564 244.817 409.414 242.425 408.216L243.545 405.981ZM395.611 410.347C397.964 409.279 400.29 408.159 402.588 406.99L403.722 409.218C401.391 410.404 399.031 411.54 396.644 412.624L395.611 410.347ZM258.07 412.438C260.543 413.406 263.057 414.326 265.614 415.198L264.807 417.564C262.215 416.68 259.666 415.747 257.159 414.766L258.07 412.438ZM381.242 416.108C383.683 415.255 386.1 414.348 388.491 413.389L389.421 415.709C386.995 416.682 384.543 417.602 382.067 418.468L381.242 416.108ZM273.125 417.582C275.668 418.33 278.25 419.032 280.872 419.686L280.268 422.111C277.612 421.449 274.996 420.738 272.419 419.98L273.125 417.582ZM366.411 420.555C368.921 419.924 371.41 419.238 373.877 418.498L374.595 420.893C372.093 421.643 369.567 422.339 367.021 422.979L366.411 420.555ZM288.593 421.446C291.165 421.98 293.773 422.468 296.417 422.91L296.005 425.376C293.329 424.928 290.689 424.434 288.085 423.894L288.593 421.446ZM351.237 423.648C353.797 423.245 356.338 422.786 358.859 422.272L359.358 424.722C356.8 425.243 354.222 425.709 351.626 426.117L351.237 423.648ZM304.386 424.087C306.959 424.417 309.564 424.706 312.202 424.95L311.971 427.439C309.304 427.192 306.67 426.901 304.067 426.566L304.386 424.087ZM335.858 425.364C338.443 425.192 341.013 424.963 343.567 424.678L343.844 427.163C341.254 427.452 338.647 427.684 336.024 427.859L335.858 425.364ZM324.265 425.75C322.906 425.695 321.555 425.628 320.213 425.551L320.069 428.047C321.434 428.126 322.808 428.193 324.189 428.249L324.215 428.25H324.24C325.557 428.25 326.87 428.235 328.18 428.206L328.125 425.707C326.842 425.735 325.555 425.75 324.265 425.75Z" fill="#76A5FF"></path><path d="M120.395 118.82C120.395 112.197 125.741 106.828 132.336 106.828H235.633C242.228 106.828 247.575 112.197 247.575 118.82V359.261C247.575 365.884 242.228 371.253 235.633 371.253H132.336C125.741 371.253 120.395 365.884 120.395 359.261V118.82Z" fill="#091B36"></path><path d="M123.141 116.844C123.141 113.335 125.993 110.489 129.512 110.489H238.46C241.979 110.489 244.831 113.335 244.831 116.844V362.155C244.831 365.664 241.979 368.51 238.46 368.51H129.512C125.993 368.51 123.141 365.664 123.141 362.155V116.844Z" fill="white"></path><path fill-rule="evenodd" clip-rule="evenodd" d="M128.939 105H238.115C244.841 105 250.319 110.419 250.319 117.135V361.865C250.319 368.581 244.841 374 238.115 374H128.939C122.213 374 116.734 368.581 116.734 361.865V117.135C116.734 110.419 122.213 105 128.939 105ZM128.939 110.795C125.413 110.795 122.554 113.634 122.554 117.135V361.865C122.554 365.366 125.413 368.205 128.939 368.205H238.115C241.641 368.205 244.499 365.366 244.499 361.865V117.135C244.499 113.634 241.641 110.795 238.115 110.795H128.939Z" fill="#091B36"></path><path d="M117.652 137.912C117.652 136.916 118.472 136.108 119.482 136.108V157.153C118.472 157.153 117.652 156.345 117.652 155.349V137.912Z" fill="#091B36"></path><path d="M249.406 162.668C249.406 163.664 248.587 164.472 247.576 164.472L247.576 143.427C248.587 143.427 249.406 144.235 249.406 145.231L249.406 162.668Z" fill="#091B36"></path><path d="M117.652 162.616C117.652 161.62 118.472 160.812 119.482 160.812V181.857C118.472 181.857 117.652 181.049 117.652 180.053V162.616Z" fill="#091B36"></path><path d="M159.742 107.744H209.15L208.661 114.679C208.391 118.505 205.245 121.469 201.455 121.469H167.438C163.648 121.469 160.502 118.505 160.232 114.679L159.742 107.744Z" fill="#091B36"></path><path opacity="0.3" d="M170.715 114.15C170.715 113.645 171.248 113.235 171.906 113.235H195.142C195.8 113.235 196.334 113.645 196.334 114.15C196.334 114.656 195.8 115.065 195.142 115.065H171.906C171.248 115.065 170.715 114.656 170.715 114.15Z" fill="#FFFEFE"></path><g filter="url(#filter0_dd_18979_45623)"><path d="M218.61 143.398H83.4099C82.2425 143.399 81.1231 143.863 80.2977 144.689C79.4722 145.516 79.0083 146.636 79.0078 147.804V198.056C79.0083 199.224 79.4722 200.345 80.2977 201.171C81.1231 201.997 82.2425 202.461 83.4099 202.462H136.758L146.653 208.643L150.515 211.055C152.229 212.125 154.268 210.269 153.363 208.463L150.357 202.462H218.61C219.777 202.461 220.896 201.997 221.722 201.171C222.547 200.345 223.011 199.224 223.012 198.056V147.804C223.011 146.636 222.547 145.516 221.722 144.689C220.896 143.863 219.777 143.399 218.61 143.398Z" fill="white"></path></g><path d="M188.776 152.982H136.562C135.553 152.982 134.734 153.801 134.734 154.81C134.734 155.82 135.553 156.638 136.562 156.638H188.776C189.786 156.638 190.604 155.82 190.604 154.81C190.604 153.801 189.786 152.982 188.776 152.982Z" fill="#EDF1F6"></path><path d="M167.498 176.312H136.698C135.614 176.312 134.734 177.192 134.734 178.276C134.734 179.361 135.614 180.24 136.698 180.24H167.498C168.583 180.24 169.462 179.361 169.462 178.276C169.462 177.192 168.583 176.312 167.498 176.312Z" fill="#EDF1F6"></path><path d="M209.599 176.312H173.608C172.524 176.312 171.645 177.192 171.645 178.276C171.645 179.361 172.524 180.24 173.608 180.24H209.599C210.683 180.24 211.563 179.361 211.563 178.276C211.563 177.192 210.683 176.312 209.599 176.312Z" fill="#EDF1F6"></path><path d="M209.595 187.486H190.557C189.473 187.486 188.594 188.365 188.594 189.45C188.594 190.534 189.473 191.414 190.557 191.414H209.595C210.68 191.414 211.559 190.534 211.559 189.45C211.559 188.365 210.68 187.486 209.595 187.486Z" fill="#EDF1F6"></path><path d="M183.512 187.486H136.964C135.879 187.486 135 188.365 135 189.45C135 190.534 135.879 191.414 136.964 191.414H183.512C184.597 191.414 185.476 190.534 185.476 189.45C185.476 188.365 184.597 187.486 183.512 187.486Z" fill="#EDF1F6"></path><path d="M138.716 163.708C138.974 162.836 140.209 162.836 140.468 163.708C140.585 164.104 140.954 164.372 141.368 164.362C142.278 164.339 142.661 165.515 141.91 166.032C141.57 166.266 141.429 166.7 141.567 167.09C141.869 167.948 140.87 168.676 140.148 168.122C139.82 167.87 139.364 167.87 139.035 168.122C138.313 168.676 137.314 167.948 137.617 167.09C137.755 166.7 137.614 166.266 137.273 166.032C136.523 165.515 136.905 164.339 137.816 164.362C138.229 164.372 138.598 164.104 138.716 163.708Z" fill="#FECE4D"></path><path d="M151.433 163.708C151.691 162.835 152.927 162.835 153.186 163.708C153.304 164.104 153.673 164.372 154.086 164.362C154.997 164.339 155.379 165.515 154.629 166.032C154.288 166.266 154.147 166.7 154.285 167.09C154.588 167.949 153.588 168.676 152.865 168.122C152.537 167.87 152.08 167.87 151.752 168.122C151.031 168.676 150.032 167.948 150.334 167.09C150.472 166.701 150.331 166.266 149.99 166.032C149.24 165.515 149.622 164.339 150.533 164.362C150.946 164.372 151.315 164.104 151.433 163.708Z" fill="#FECE4D"></path><path d="M164.148 163.708C164.407 162.835 165.643 162.835 165.901 163.708C166.019 164.104 166.388 164.372 166.801 164.362C167.712 164.339 168.094 165.515 167.344 166.032C167.003 166.266 166.862 166.7 167 167.09C167.303 167.948 166.304 168.676 165.582 168.122C165.253 167.87 164.797 167.87 164.469 168.122C163.746 168.675 162.747 167.948 163.05 167.09C163.188 166.7 163.047 166.266 162.706 166.031C161.956 165.515 162.337 164.339 163.248 164.362C163.661 164.372 164.03 164.104 164.148 163.708Z" fill="#FECE4D"></path><path d="M176.869 163.707C177.128 162.834 178.364 162.834 178.624 163.707C178.741 164.104 179.111 164.372 179.524 164.362C180.434 164.339 180.815 165.515 180.065 166.031C179.724 166.266 179.583 166.7 179.721 167.09C180.024 167.948 179.025 168.676 178.303 168.122C177.974 167.87 177.518 167.87 177.19 168.122C176.467 168.675 175.468 167.948 175.771 167.09C175.909 166.7 175.768 166.266 175.427 166.031C174.678 165.515 175.058 164.339 175.968 164.362C176.382 164.372 176.751 164.104 176.869 163.707Z" fill="#FECE4D"></path><path d="M189.589 163.708C189.848 162.835 191.084 162.835 191.343 163.708C191.46 164.104 191.829 164.372 192.243 164.362C193.153 164.339 193.535 165.515 192.785 166.032C192.445 166.266 192.304 166.7 192.441 167.09C192.744 167.948 191.745 168.676 191.023 168.122C190.695 167.87 190.239 167.87 189.91 168.122C189.188 168.675 188.188 167.948 188.492 167.09C188.63 166.7 188.488 166.266 188.148 166.031C187.398 165.515 187.779 164.339 188.689 164.362C189.102 164.372 189.471 164.104 189.589 163.708Z" fill="#FECE4D"></path><mask id="mask1_18979_45623" style="mask-type:alpha" maskUnits="userSpaceOnUse" x="85" y="151" width="44" height="45"><circle cx="106.849" cy="173.542" r="21.6963" fill="#C4C4C4"></circle></mask><g mask="url(#mask1_18979_45623)"><path d="M106.298 196.014C118.544 196.014 128.471 186.089 128.471 173.845C128.471 161.601 118.544 151.676 106.298 151.676C94.0522 151.676 84.125 161.601 84.125 173.845C84.125 186.089 94.0522 196.014 106.298 196.014Z" fill="#5D5FEF"></path><path d="M98.3939 189.264C100.404 189.264 102.034 186.906 102.034 183.996C102.034 181.087 100.404 178.729 98.3939 178.729C96.3836 178.729 94.7539 181.087 94.7539 183.996C94.7539 186.906 96.3836 189.264 98.3939 189.264Z" fill="#FEB79C"></path><path d="M95.84 192.67L118.161 191.424C118.161 191.424 121.567 182.122 120.802 181.506C120.024 180.889 107.155 174.066 107.155 174.066L94.5938 174.375L95.84 192.67Z" fill="#2C2D00"></path><path d="M107.306 214.37C115.695 214.37 122.496 208.195 122.496 200.578C122.496 192.96 115.695 186.785 107.306 186.785C98.9176 186.785 92.1172 192.96 92.1172 200.578C92.1172 208.195 98.9176 214.37 107.306 214.37Z" fill="#9FC0FF"></path><path d="M106.545 191.278C104.731 191.278 103.241 190.138 103.192 188.721L102.982 182.202C102.933 180.759 104.407 179.543 106.253 179.518C108.115 179.493 109.654 180.632 109.686 182.075L109.897 188.594C109.945 190.037 108.472 191.252 106.626 191.278C106.609 191.278 106.577 191.278 106.545 191.278Z" fill="#FEB79C"></path><path d="M106.31 179.271C105.113 179.296 104.126 180.16 103.879 181.282L103.978 185.144C104.015 186.538 105.15 187.636 106.532 187.636C106.556 187.636 106.569 187.636 106.593 187.636C107.79 187.611 108.777 186.748 109.024 185.625L108.926 181.763C108.888 180.345 107.729 179.234 106.31 179.271Z" fill="#FAA887"></path><path d="M114.283 172.525C114.283 178.299 109.631 184.85 105.794 184.85C102.882 184.85 97.3047 178.311 97.3047 172.525C97.3047 166.751 101.105 162.063 105.794 162.063C110.483 162.063 114.283 166.751 114.283 172.525Z" fill="#FEB79C"></path><path d="M101.833 164.146C101.043 164.233 100.192 164.825 99.3529 165.701C98.0697 167.527 97.3047 169.908 97.3047 172.523C97.3047 175.694 98.9828 179.086 100.982 181.517C100.069 179.629 99.6491 177.729 100.797 175.435C101.833 173.35 103.351 168.686 103.351 168.686C103.351 168.686 104.979 163.801 101.833 164.146Z" fill="#FAA887"></path><path d="M105.796 162.063C102.859 162.063 100.28 163.902 98.75 166.69C99.5274 168.343 102.069 172.599 108.004 173.808C112.742 174.77 109.917 179.199 109.843 182.802C112.298 180.408 114.285 176.3 114.285 172.525C114.285 166.751 110.484 162.063 105.796 162.063Z" fill="#FAA887"></path><path d="M99.4086 165.084C99.4086 165.084 101.531 171.364 108.947 172.869C114.647 174.029 109.415 180.197 111.155 183.91C112.451 186.674 115.338 186.008 113.129 188.796C110.921 191.584 112.661 200.997 119.287 198.912C125.913 196.815 126.961 185.773 124.407 181.246C121.853 176.706 118.472 175.201 118.127 171.018C117.781 166.836 114.635 160.211 108.132 159.743C104.011 159.447 98.3598 159.039 99.4086 165.084Z" fill="#2E2F06"></path><path d="M101.959 167.638C101.959 167.638 100.441 172.301 99.4048 174.386C97.665 177.877 99.5159 180.431 101.268 183.453C102.551 185.674 100.935 188.635 99.9847 190.078C98.245 192.755 96.7273 193.335 98.7015 195.42C100.676 197.517 89.398 205.302 88.2381 198.208C87.0783 191.114 90.4468 188.672 92.0755 185.415C93.7042 182.158 90.3357 182.281 92.31 175.188C93.3341 171.524 97.3072 163.443 100.454 163.098C103.588 162.752 101.959 167.638 101.959 167.638Z" fill="#2E2F06"></path></g><g filter="url(#filter1_dd_18979_45623)"><path d="M170.301 216.089H305.5C306.668 216.089 307.787 216.554 308.612 217.38C309.438 218.206 309.902 219.326 309.902 220.495V270.746C309.902 271.915 309.438 273.035 308.612 273.861C307.787 274.687 306.668 275.152 305.5 275.152H229.472L215.715 283.745C214.001 284.816 211.962 282.96 212.867 281.153L215.873 275.152H170.301C169.133 275.152 168.014 274.687 167.188 273.861C166.363 273.035 165.899 271.915 165.899 270.746V220.495C165.899 219.326 166.363 218.206 167.188 217.38C168.014 216.554 169.133 216.089 170.301 216.089Z" fill="white"></path></g><path d="M254.393 249.003H223.593C222.508 249.003 221.629 249.882 221.629 250.967C221.629 252.051 222.508 252.93 223.593 252.93H254.393C255.477 252.93 256.357 252.051 256.357 250.967C256.357 249.882 255.477 249.003 254.393 249.003Z" fill="#EDF1F6"></path><path d="M276.107 226.457H223.498C222.438 226.457 221.578 227.317 221.578 228.377C221.578 229.437 222.438 230.297 223.498 230.297H276.107C277.167 230.297 278.027 229.437 278.027 228.377C278.027 227.317 277.167 226.457 276.107 226.457Z" fill="#EDF1F6"></path><path d="M296.494 249.003H260.503C259.418 249.003 258.539 249.882 258.539 250.967C258.539 252.051 259.418 252.93 260.503 252.93H296.494C297.578 252.93 298.457 252.051 298.457 250.967C298.457 249.882 297.578 249.003 296.494 249.003Z" fill="#EDF1F6"></path><path d="M296.49 260.177H277.452C276.367 260.177 275.488 261.056 275.488 262.14C275.488 263.225 276.367 264.104 277.452 264.104H296.49C297.574 264.104 298.454 263.225 298.454 262.14C298.454 261.056 297.574 260.177 296.49 260.177Z" fill="#EDF1F6"></path><path d="M270.403 260.177H223.854C222.77 260.177 221.891 261.056 221.891 262.14C221.891 263.225 222.77 264.104 223.854 264.104H270.403C271.487 264.104 272.367 263.225 272.367 262.14C272.367 261.056 271.487 260.177 270.403 260.177Z" fill="#EDF1F6"></path><path d="M225.602 236.397C225.861 235.525 227.096 235.525 227.355 236.397C227.472 236.794 227.841 237.062 228.254 237.051C229.165 237.028 229.547 238.205 228.797 238.721C228.457 238.956 228.316 239.39 228.453 239.78C228.756 240.638 227.757 241.365 227.035 240.811C226.707 240.56 226.25 240.56 225.922 240.811C225.2 241.365 224.201 240.638 224.504 239.78C224.641 239.39 224.5 238.956 224.16 238.721C223.41 238.205 223.792 237.028 224.703 237.051C225.116 237.062 225.485 236.794 225.602 236.397Z" fill="#FECE4D"></path><path d="M238.319 236.397C238.578 235.524 239.814 235.525 240.073 236.397C240.191 236.794 240.56 237.062 240.973 237.051C241.884 237.028 242.266 238.204 241.516 238.721C241.175 238.956 241.034 239.39 241.172 239.78C241.474 240.638 240.474 241.365 239.752 240.812C239.424 240.56 238.967 240.56 238.639 240.812C237.917 241.365 236.918 240.638 237.221 239.78C237.358 239.39 237.217 238.956 236.877 238.721C236.127 238.205 236.509 237.028 237.419 237.051C237.833 237.062 238.202 236.793 238.319 236.397Z" fill="#FECE4D"></path><path d="M251.034 236.397C251.294 235.525 252.529 235.524 252.788 236.397C252.906 236.793 253.275 237.062 253.688 237.051C254.599 237.028 254.98 238.204 254.231 238.721C253.89 238.956 253.749 239.39 253.887 239.78C254.19 240.638 253.19 241.365 252.468 240.811C252.14 240.56 251.684 240.56 251.356 240.811C250.633 241.365 249.634 240.638 249.937 239.78C250.075 239.39 249.934 238.955 249.593 238.721C248.843 238.205 249.224 237.028 250.134 237.051C250.548 237.062 250.917 236.794 251.034 236.397Z" fill="#FECE4D"></path><path d="M263.755 236.397C264.015 235.524 265.251 235.524 265.51 236.397C265.628 236.793 265.997 237.062 266.411 237.051C267.321 237.028 267.701 238.205 266.952 238.721C266.611 238.955 266.47 239.39 266.608 239.78C266.911 240.638 265.911 241.365 265.189 240.811C264.861 240.56 264.405 240.56 264.076 240.811C263.354 241.365 262.354 240.638 262.658 239.78C262.796 239.39 262.655 238.955 262.314 238.721C261.564 238.204 261.945 237.028 262.855 237.051C263.269 237.062 263.638 236.793 263.755 236.397Z" fill="#FECE4D"></path><path d="M276.476 236.397C276.735 235.525 277.971 235.524 278.23 236.397C278.347 236.793 278.716 237.062 279.13 237.051C280.04 237.028 280.422 238.204 279.672 238.721C279.331 238.956 279.191 239.39 279.328 239.78C279.631 240.638 278.632 241.365 277.91 240.811C277.582 240.56 277.125 240.56 276.797 240.811C276.075 241.365 275.075 240.638 275.378 239.78C275.516 239.39 275.375 238.955 275.034 238.721C274.284 238.205 274.666 237.028 275.576 237.051C275.989 237.062 276.358 236.794 276.476 236.397Z" fill="#FECE4D"></path><mask id="mask2_18979_45623" style="mask-type:alpha" maskUnits="userSpaceOnUse" x="172" y="224" width="44" height="45"><ellipse cx="194.079" cy="246.371" rx="21.6341" ry="21.6341" fill="#C4C4C4"></ellipse></mask><g mask="url(#mask2_18979_45623)"><ellipse cx="194.95" cy="245.905" rx="22.5202" ry="22.5202" fill="#FECE4D"></ellipse><path d="M184.904 249.322C184.959 249.207 184.894 249.063 184.773 249.028C184.267 248.878 183.891 248.554 183.806 248.141C183.751 247.867 183.831 247.588 184.012 247.348C184.057 247.289 184.062 247.199 184.032 247.129C183.606 247.094 183.245 246.795 183.19 246.402C183.16 246.202 183.215 246.008 183.325 245.853C183.32 245.838 183.315 245.824 183.31 245.809C183.295 245.754 183.27 245.699 183.22 245.679C182.087 245.216 181.06 242.061 183.761 240.452C183.876 240.382 183.886 240.202 183.776 240.113C183.145 239.579 182.759 238.882 182.794 238.174C182.859 236.893 184.267 236.071 185.941 236.345C185.966 236.35 185.986 236.355 186.011 236.355C186.157 236.38 186.262 236.221 186.197 236.076C185.671 234.865 185.631 233.734 186.182 233.221C186.703 232.732 187.625 232.922 188.563 233.609C188.683 233.699 188.838 233.624 188.848 233.47C188.898 232.603 189.244 231.965 189.715 231.965C190.026 231.965 190.327 232.254 190.542 232.697C190.618 232.857 190.823 232.857 190.878 232.702C191.485 231.073 192.602 230.111 193.51 230.515C194.026 230.744 194.372 231.362 194.517 232.179C194.547 232.354 194.753 232.413 194.848 232.279C195.605 231.212 196.772 230.754 197.845 231.232C198.612 231.571 199.178 232.319 199.464 233.236C199.494 233.33 199.574 233.39 199.659 233.39C200.146 233.375 200.657 233.475 201.163 233.699C202.877 234.457 203.93 236.405 203.689 238.224C203.669 238.359 203.779 238.483 203.905 238.468C204.742 238.393 205.529 238.822 205.799 239.579C206.045 240.257 205.804 241.01 205.258 241.513C205.138 241.623 205.208 241.852 205.373 241.872C206.095 241.976 206.686 242.425 206.812 243.048C206.952 243.745 206.461 244.433 205.669 244.712C205.529 244.762 205.504 244.966 205.629 245.071C206.2 245.544 206.521 246.073 206.391 246.412C206.265 246.74 205.754 246.795 205.113 246.601C204.967 246.556 204.847 246.711 204.902 246.865C205.143 247.488 205.123 248.101 204.807 248.465C204.516 248.794 204.04 248.838 203.544 248.644C203.419 248.594 203.288 248.699 203.303 248.843C203.383 249.616 203.128 250.294 202.602 250.533C202.186 250.722 201.689 250.588 201.258 250.234C201.188 250.179 201.098 250.179 201.033 250.234C200.136 251.031 199.073 251.679 197.875 252.127C196.366 252.691 195.013 252.825 193.54 252.661C193.414 252.646 193.319 252.765 193.344 252.9C193.575 254.046 192.878 254.714 191.866 254.878C191.51 254.938 190.968 254.764 190.793 254.519C190.768 254.48 190.613 254.4 190.462 254.559C189.816 255.217 188.553 254.519 188.317 253.373C188.262 253.109 188.257 252.85 188.287 252.606C188.302 252.476 188.112 252.222 187.831 252.407C187.726 252.476 187.585 252.496 187.445 252.521C186.438 252.701 184.969 251.888 184.733 250.742C184.643 250.214 184.713 249.725 184.904 249.322Z" fill="#4F381D"></path><path d="M206.491 292.029C210.546 280.029 216.124 271.328 213.197 266.49C210.395 261.855 209.513 261.96 207.363 261.621C199.574 260.39 199.063 257.315 194.622 257.455C194.537 257.46 193.996 257.455 193.9 257.455C189.49 257.33 187.75 260.619 181.19 261.621C179.039 261.95 178.162 261.855 175.356 266.49C172.428 271.328 178.007 280.029 182.057 292.029C184.222 298.433 180.754 304.527 179.616 306.765C178.363 309.237 177.796 308.978 177.992 310.737C178.303 313.522 185.771 315.65 193.214 315.575C193.565 315.57 195.128 315.575 195.559 315.575C202.922 315.6 210.24 313.487 210.551 310.737C210.746 308.978 210.185 309.237 208.927 306.765C207.794 304.527 204.33 298.428 206.491 292.029Z" fill="#3D7FFC"></path><path d="M199.609 260.39C199.163 253.583 199.128 247.932 197.218 248.769C196.551 249.063 191.995 249.063 191.334 248.769C189.424 247.932 189.354 252.825 188.943 260.39C188.883 261.526 190.437 264.327 194.276 264.327C197.945 264.327 199.684 261.531 199.609 260.39Z" fill="#E79473"></path><path d="M200.333 241.627C199.662 238.689 197.06 237.006 194.212 237.07C191.364 237.006 188.762 238.689 188.091 241.627C187.642 243.594 187.51 254.212 190.345 257.513C190.91 258.171 192.845 260.133 194.195 260.133C195.719 260.133 197.536 258.195 198.075 257.513C200.38 254.595 200.21 250.872 200.494 248.18C200.817 245.094 200.779 243.594 200.333 241.627Z" fill="#D78361"></path><path d="M201.427 240.058C200.635 237.073 197.563 235.364 194.2 235.429C190.837 235.364 187.764 237.073 186.972 240.058C186.441 242.056 186.286 252.845 189.634 256.199C190.3 256.867 192.586 258.86 194.18 258.86C195.979 258.86 198.124 256.892 198.761 256.199C201.482 253.234 201.282 249.452 201.618 246.716C201.999 243.581 201.953 242.056 201.427 240.058Z" fill="#E79473"></path><path d="M185.822 238.777C185.746 238.518 185.691 238.239 185.671 237.955C185.551 236.285 186.493 234.86 187.781 234.77C188.438 234.726 189.059 235.039 189.52 235.578C189.957 235.338 190.503 235.174 191.109 235.129C191.766 235.084 192.382 235.184 192.869 235.398C193.089 234.177 193.896 233.25 194.924 233.181C196.146 233.091 197.234 234.242 197.44 235.792C197.896 235.518 198.472 235.333 199.114 235.289C200.607 235.184 201.88 235.867 202.056 236.838C202.863 237.277 203.469 238.264 203.554 239.455C203.604 240.157 203.469 240.815 203.194 241.348C203.725 241.463 204.136 241.872 204.171 242.395C204.216 243.038 203.675 243.601 202.963 243.651C202.868 243.656 202.777 243.656 202.692 243.646C202.642 243.905 202.557 244.174 202.432 244.428C201.82 245.684 200.532 246.317 199.55 245.848C198.768 245.47 198.422 244.498 198.627 243.481C198.101 243.73 197.525 243.82 196.948 243.701C196.006 243.506 195.279 242.808 194.908 241.872C194.708 242.031 194.467 242.106 194.227 242.061C193.956 242.011 193.736 241.812 193.61 241.538C193.219 241.792 192.763 241.956 192.262 241.991C191.345 242.056 190.503 241.677 189.941 241.044C189.947 241.074 189.952 241.109 189.952 241.139C190.067 242.739 188.914 244.124 187.375 244.234C185.837 244.343 184.498 243.137 184.383 241.538C184.298 240.357 184.894 239.305 185.822 238.777Z" fill="#4F381D"></path></g><g filter="url(#filter2_dd_18979_45623)"><path d="M218.602 292.448H83.4021C82.2347 292.449 81.1153 292.913 80.2899 293.739C79.4644 294.565 79.0005 295.686 79 296.854V347.106C79.0005 348.274 79.4644 349.394 80.2899 350.221C81.1153 351.047 82.2347 351.511 83.4021 351.512H136.75L146.645 357.692L150.507 360.105C152.221 361.175 154.26 359.319 153.355 357.513L150.349 351.512H218.602C219.769 351.511 220.889 351.047 221.714 350.221C222.539 349.394 223.003 348.274 223.004 347.106V296.854C223.003 295.686 222.539 294.565 221.714 293.739C220.889 292.913 219.769 292.449 218.602 292.448Z" fill="white"></path></g><path d="M188.769 302.032H136.555C135.545 302.032 134.727 302.851 134.727 303.86C134.727 304.87 135.545 305.688 136.555 305.688H188.769C189.778 305.688 190.597 304.87 190.597 303.86C190.597 302.851 189.778 302.032 188.769 302.032Z" fill="#EDF1F6"></path><path d="M167.491 325.362H136.69C135.606 325.362 134.727 326.241 134.727 327.326C134.727 328.41 135.606 329.29 136.69 329.29H167.491C168.575 329.29 169.454 328.41 169.454 327.326C169.454 326.241 168.575 325.362 167.491 325.362Z" fill="#EDF1F6"></path><path d="M209.591 325.362H173.6C172.516 325.362 171.637 326.241 171.637 327.326C171.637 328.41 172.516 329.29 173.6 329.29H209.591C210.676 329.29 211.555 328.41 211.555 327.326C211.555 326.241 210.676 325.362 209.591 325.362Z" fill="#EDF1F6"></path><path d="M209.588 336.536H190.55C189.465 336.536 188.586 337.415 188.586 338.5C188.586 339.584 189.465 340.463 190.55 340.463H209.588C210.672 340.463 211.551 339.584 211.551 338.5C211.551 337.415 210.672 336.536 209.588 336.536Z" fill="#EDF1F6"></path><path d="M183.505 336.536H136.956C135.871 336.536 134.992 337.415 134.992 338.5C134.992 339.584 135.871 340.463 136.956 340.463H183.505C184.589 340.463 185.468 339.584 185.468 338.5C185.468 337.415 184.589 336.536 183.505 336.536Z" fill="#EDF1F6"></path><path d="M138.712 312.758C138.97 311.886 140.205 311.886 140.464 312.758C140.581 313.154 140.95 313.422 141.364 313.412C142.274 313.389 142.657 314.565 141.907 315.081C141.566 315.316 141.425 315.75 141.563 316.14C141.866 316.998 140.866 317.725 140.144 317.172C139.816 316.92 139.36 316.92 139.031 317.172C138.309 317.725 137.31 316.998 137.613 316.14C137.751 315.75 137.61 315.316 137.269 315.081C136.519 314.565 136.901 313.389 137.812 313.412C138.225 313.422 138.594 313.154 138.712 312.758Z" fill="#FECE4D"></path><path d="M151.429 312.757C151.687 311.885 152.923 311.885 153.182 312.757C153.3 313.154 153.669 313.422 154.083 313.412C154.993 313.389 155.375 314.565 154.625 315.081C154.285 315.316 154.144 315.75 154.281 316.14C154.584 316.999 153.584 317.726 152.861 317.172C152.533 316.92 152.077 316.92 151.748 317.172C151.027 317.726 150.028 316.998 150.33 316.14C150.468 315.75 150.327 315.316 149.986 315.081C149.236 314.565 149.618 313.389 150.529 313.412C150.942 313.422 151.311 313.154 151.429 312.757Z" fill="#FECE4D"></path><path d="M164.144 312.757C164.403 311.885 165.639 311.885 165.897 312.757C166.015 313.154 166.384 313.422 166.798 313.412C167.708 313.389 168.09 314.565 167.34 315.081C166.999 315.316 166.858 315.75 166.996 316.14C167.299 316.998 166.3 317.725 165.578 317.172C165.25 316.92 164.793 316.92 164.465 317.172C163.743 317.725 162.743 316.998 163.046 316.14C163.184 315.75 163.043 315.316 162.702 315.081C161.952 314.565 162.334 313.389 163.244 313.412C163.657 313.422 164.026 313.154 164.144 312.757Z" fill="#FECE4D"></path><path d="M176.865 312.757C177.124 311.884 178.361 311.884 178.62 312.757C178.738 313.154 179.107 313.422 179.52 313.412C180.43 313.389 180.811 314.565 180.061 315.081C179.721 315.316 179.579 315.75 179.717 316.14C180.02 316.998 179.021 317.725 178.299 317.172C177.97 316.92 177.514 316.92 177.186 317.172C176.463 317.725 175.464 316.998 175.767 316.14C175.905 315.75 175.764 315.316 175.423 315.081C174.674 314.565 175.054 313.389 175.964 313.412C176.378 313.422 176.747 313.154 176.865 312.757Z" fill="#FECE4D"></path><path d="M189.585 312.757C189.844 311.885 191.08 311.885 191.339 312.757C191.456 313.154 191.826 313.422 192.239 313.412C193.149 313.389 193.531 314.565 192.781 315.081C192.441 315.316 192.3 315.75 192.438 316.14C192.741 316.998 191.741 317.725 191.019 317.172C190.691 316.92 190.235 316.92 189.906 317.172C189.184 317.725 188.184 316.998 188.488 316.14C188.626 315.75 188.484 315.316 188.144 315.081C187.394 314.565 187.775 313.389 188.685 313.412C189.098 313.422 189.468 313.154 189.585 312.757Z" fill="#FECE4D"></path><mask id="mask3_18979_45623" style="mask-type:alpha" maskUnits="userSpaceOnUse" x="85" y="300" width="44" height="44"><circle cx="106.714" cy="322.164" r="21.6947" fill="#C4C4C4"></circle></mask><g mask="url(#mask3_18979_45623)"><circle cx="106.78" cy="322.226" r="21.1238" fill="#F178B6"></circle><path d="M121.635 337.826C121.55 335.021 119.321 333.715 120.058 331.075C120.729 328.66 121.456 327.951 121.198 326.09C120.978 324.455 119.645 323.666 119.114 320.824C118.711 318.658 120.091 317.159 118.725 313.965C115.412 306.18 111.235 305.114 105.598 305.447C102.844 305.612 102.407 306.786 101.684 307.068C100.92 307.364 100.844 307.148 100.281 307.289C99.0094 307.613 96.555 310.305 96.4283 316.304C96.3719 319.025 94.5604 318.071 93.4763 320.218C92.3265 322.492 94.5886 325.165 91.6648 325.705C88.0511 326.372 87.1266 329.327 87.2533 330.821C87.6382 335.294 85.6201 335.12 84.4469 336.614C81.7906 339.987 84.2967 344.878 85.1227 346.437C90.5713 356.75 109.846 360.353 119.607 343.548C120.123 342.66 121.719 340.772 121.635 337.826Z" fill="#352F60"></path><path d="M118.2 360.753C121.729 350.239 126.582 342.614 124.034 338.376C121.593 334.317 120.843 334.294 118.956 334.111C111.668 333.392 111.733 331.062 107.866 331.179C107.791 331.179 107.322 331.179 107.237 331.179C103.398 331.071 103.445 333.392 96.1758 334.111C94.2892 334.299 93.5383 334.317 91.0979 338.376C88.5496 342.614 93.4022 350.239 96.9314 360.753C98.8133 366.362 95.7957 371.709 94.8101 373.668C93.7166 375.834 93.2286 375.603 93.3975 377.149C93.6697 379.587 100.17 381.452 106.646 381.391C106.951 381.387 108.312 381.391 108.687 381.391C115.098 381.415 121.467 379.564 121.734 377.149C121.903 375.608 121.415 375.838 120.322 373.668C119.336 371.709 116.318 366.367 118.2 360.753Z" fill="#C6DBFF"></path><path d="M111.832 332.536C111.17 325.616 111.062 320.321 109.302 321.101C108.688 321.373 108.115 321.707 107.571 322.158C107.026 321.707 106.454 321.373 105.839 321.101C104.079 320.321 103.971 325.62 103.309 332.536C103.206 333.588 104.788 338.154 107.571 338.154C110.063 338.154 111.931 333.588 111.832 332.536Z" fill="#FFCDBA"></path><path d="M103.699 328.006C103.676 328.297 105.802 331.177 107.548 331.177C109.561 331.177 111.457 328.297 111.434 328.011C110.673 328.753 109.186 330.003 107.548 330.003C106.093 329.998 104.488 328.748 103.699 328.006Z" fill="#EBB7A2"></path><path d="M114.926 312.015C114.119 309.149 110.993 307.504 107.563 307.57C104.137 307.504 101.006 309.149 100.199 312.015C99.6594 313.931 99.6125 315.397 100.002 318.409C100.34 321.035 100.678 324.995 103.456 327.842C104.108 328.509 105.92 330.074 107.544 330.074C109.374 330.074 111.017 328.509 111.669 327.842C114.443 324.995 114.785 321.03 115.123 318.409C115.513 315.397 115.466 313.936 114.926 312.015Z" fill="#FFCDBA"></path><path d="M116.91 314.688C117.032 311.592 115.112 307.425 112.123 307.5C111.588 307.514 111.297 307.698 111.151 307.947C110.504 307.416 109.082 306.514 107.491 306.514C105.947 306.514 104.6 307.406 103.981 307.937C103.83 307.698 103.544 307.514 103.014 307.5C100.024 307.425 98.1048 311.592 98.2268 314.688C98.2831 316.159 97.9875 317.845 98.6821 318.179C100.16 318.893 101.611 316.201 102.634 313.551C102.544 314.886 102.577 315.994 102.666 316.586C102.723 316.962 102.939 317.178 103.436 317.22C103.436 317.22 104.666 317.451 107.364 317.413C107.43 317.413 107.702 317.413 107.768 317.413C110.466 317.451 111.696 317.22 111.696 317.22C112.193 317.178 112.409 316.962 112.466 316.586C112.555 315.999 112.592 314.89 112.498 313.551C113.521 316.201 114.972 318.893 116.45 318.179C117.145 317.845 116.849 316.159 116.91 314.688Z" fill="#352F60"></path></g><rect x="320" y="384" width="67.0661" height="67.0661" rx="33.5331" fill="#5D5FEF"></rect><path d="M365.74 415.114L361.015 407.633H349.911L345.186 415.114L342.352 413.303L348.021 404.247H362.905L368.653 413.303L365.74 415.114Z" fill="white"></path><path d="M359.582 422.91H348.242V426.218H359.582V422.91Z" fill="white"></path><path d="M370.536 426.217H366.598V422.91H369.276L369.355 422.831V416.531H339.115L337.225 418.342V422.91H341.793V426.217H335.335L333.918 424.406V417.004L337.698 413.224H370.929L372.662 414.956V424.327L370.536 426.217Z" fill="white"></path><path d="M345.012 430.234C342.256 430.234 340.051 428.029 340.051 425.273C340.051 422.516 342.256 420.312 345.012 420.312C347.768 420.312 349.973 422.516 349.973 425.273C349.973 428.029 347.768 430.234 345.012 430.234ZM345.012 423.461C343.988 423.461 343.201 424.249 343.201 425.273C343.201 426.296 343.988 427.084 345.012 427.084C346.036 427.084 346.823 426.296 346.823 425.273C346.823 424.249 346.036 423.461 345.012 423.461Z" fill="white"></path><path d="M362.906 430.234C360.15 430.234 357.945 428.029 357.945 425.273C357.945 425.036 357.945 424.879 357.945 424.643C358.26 422.201 360.386 420.312 362.906 420.312C365.663 420.312 367.868 422.516 367.868 425.273C367.868 428.029 365.663 430.234 362.906 430.234ZM361.095 425.036C361.095 425.115 361.095 425.194 361.095 425.273C361.095 426.296 361.883 427.084 362.906 427.084C363.93 427.084 364.718 426.296 364.718 425.273C364.718 424.249 363.93 423.461 362.906 423.461C361.961 423.461 361.174 424.17 361.095 425.036Z" fill="white"></path><path d="M357.917 405.977H354.531V414.245H357.917V405.977Z" fill="white"></path><rect x="466" y="243" width="67.0661" height="67.0661" rx="33.5331" fill="#FECE4D"></rect><path d="M503.745 281.821H495.117V288.723H503.745V281.821Z" fill="white"></path><path d="M506.324 268.885H492.52V272.336H506.324V268.885Z" fill="white"></path><path d="M506.324 274.924H492.52V278.375H506.324V274.924Z" fill="white"></path><path fill-rule="evenodd" clip-rule="evenodd" d="M509.771 265.432H489.064V287.001H509.771V265.432ZM485.613 261.98V290.452H513.222V261.98H485.613Z" fill="white"></path><rect x="354" y="41" width="120" height="120" rx="60" fill="#3D7FFC"></rect><path d="M443.504 71.8482C442.598 70.9424 441.37 70.4336 440.088 70.4336C438.807 70.4336 437.578 70.9424 436.672 71.8482L421.006 87.5142L390.262 80.6821L386.846 84.0981L410.758 97.7624L397.094 111.427H386.846L383.43 114.843L397.094 118.259L400.51 131.923L403.926 128.507V118.259L417.59 104.594L431.254 128.507L434.67 125.091L427.838 94.3463L443.504 78.6803C444.41 77.7742 444.919 76.5454 444.919 75.2642C444.919 73.983 444.41 72.7543 443.504 71.8482Z" fill="white"></path><defs><filter id="filter0_dd_18979_45623" x="67.0078" y="133.398" width="168.004" height="91.9717" filterUnits="userSpaceOnUse" color-interpolation-filters="sRGB"><feFlood flood-opacity="0" result="BackgroundImageFix"></feFlood><feColorMatrix in="SourceAlpha" type="matrix" values="0 0 0 0 0 0 0 0 0 0 0 0 0 0 0 0 0 0 127 0" result="hardAlpha"></feColorMatrix><feOffset dy="4"></feOffset><feGaussianBlur stdDeviation="5"></feGaussianBlur><feColorMatrix type="matrix" values="0 0 0 0 0.607843 0 0 0 0 0.67451 0 0 0 0 0.737255 0 0 0 0.35 0"></feColorMatrix><feBlend mode="normal" in2="BackgroundImageFix" result="effect1_dropShadow_18979_45623"></feBlend><feColorMatrix in="SourceAlpha" type="matrix" values="0 0 0 0 0 0 0 0 0 0 0 0 0 0 0 0 0 0 127 0" result="hardAlpha"></feColorMatrix><feOffset dy="2"></feOffset><feGaussianBlur stdDeviation="6"></feGaussianBlur><feColorMatrix type="matrix" values="0 0 0 0 0.89625 0 0 0 0 0.930414 0 0 0 0 0.995833 0 0 0 0.5 0"></feColorMatrix><feBlend mode="normal" in2="effect1_dropShadow_18979_45623" result="effect2_dropShadow_18979_45623"></feBlend><feBlend mode="normal" in="SourceGraphic" in2="effect2_dropShadow_18979_45623" result="shape"></feBlend></filter><filter id="filter1_dd_18979_45623" x="153.898" y="206.089" width="168.004" height="91.9717" filterUnits="userSpaceOnUse" color-interpolation-filters="sRGB"><feFlood flood-opacity="0" result="BackgroundImageFix"></feFlood><feColorMatrix in="SourceAlpha" type="matrix" values="0 0 0 0 0 0 0 0 0 0 0 0 0 0 0 0 0 0 127 0" result="hardAlpha"></feColorMatrix><feOffset dy="4"></feOffset><feGaussianBlur stdDeviation="5"></feGaussianBlur><feColorMatrix type="matrix" values="0 0 0 0 0.607843 0 0 0 0 0.67451 0 0 0 0 0.737255 0 0 0 0.35 0"></feColorMatrix><feBlend mode="normal" in2="BackgroundImageFix" result="effect1_dropShadow_18979_45623"></feBlend><feColorMatrix in="SourceAlpha" type="matrix" values="0 0 0 0 0 0 0 0 0 0 0 0 0 0 0 0 0 0 127 0" result="hardAlpha"></feColorMatrix><feOffset dy="2"></feOffset><feGaussianBlur stdDeviation="6"></feGaussianBlur><feColorMatrix type="matrix" values="0 0 0 0 0.89625 0 0 0 0 0.930414 0 0 0 0 0.995833 0 0 0 0.5 0"></feColorMatrix><feBlend mode="normal" in2="effect1_dropShadow_18979_45623" result="effect2_dropShadow_18979_45623"></feBlend><feBlend mode="normal" in="SourceGraphic" in2="effect2_dropShadow_18979_45623" result="shape"></feBlend></filter><filter id="filter2_dd_18979_45623" x="67" y="282.448" width="168.004" height="91.9717" filterUnits="userSpaceOnUse" color-interpolation-filters="sRGB"><feFlood flood-opacity="0" result="BackgroundImageFix"></feFlood><feColorMatrix in="SourceAlpha" type="matrix" values="0 0 0 0 0 0 0 0 0 0 0 0 0 0 0 0 0 0 127 0" result="hardAlpha"></feColorMatrix><feOffset dy="4"></feOffset><feGaussianBlur stdDeviation="5"></feGaussianBlur><feColorMatrix type="matrix" values="0 0 0 0 0.607843 0 0 0 0 0.67451 0 0 0 0 0.737255 0 0 0 0.35 0"></feColorMatrix><feBlend mode="normal" in2="BackgroundImageFix" result="effect1_dropShadow_18979_45623"></feBlend><feColorMatrix in="SourceAlpha" type="matrix" values="0 0 0 0 0 0 0 0 0 0 0 0 0 0 0 0 0 0 127 0" result="hardAlpha"></feColorMatrix><feOffset dy="2"></feOffset><feGaussianBlur stdDeviation="6"></feGaussianBlur><feColorMatrix type="matrix" values="0 0 0 0 0.89625 0 0 0 0 0.930414 0 0 0 0 0.995833 0 0 0 0.5 0"></feColorMatrix><feBlend mode="normal" in2="effect1_dropShadow_18979_45623" result="effect2_dropShadow_18979_45623"></feBlend><feBlend mode="normal" in="SourceGraphic" in2="effect2_dropShadow_18979_45623" result="shape"></feBlend></filter></defs></svg>