<svg xmlns="http://www.w3.org/2000/svg" width="580" height="536" viewBox="0 0 580 536" fill="none"><circle cx="290" cy="268" r="231" fill="#F5F8FF"></circle><path d="M463.94 138H119.696C117.797 137.999 115.915 138.37 114.16 139.093C112.404 139.816 110.809 140.876 109.464 142.213C108.12 143.55 107.054 145.137 106.326 146.884C105.597 148.632 105.222 150.505 105.221 152.396V383.376C105.222 385.267 105.598 387.14 106.326 388.887C107.054 390.633 108.121 392.22 109.465 393.556C110.809 394.892 112.405 395.952 114.16 396.674C115.916 397.396 117.797 397.766 119.696 397.764H463.94C465.839 397.766 467.72 397.396 469.476 396.674C471.231 395.952 472.827 394.892 474.171 393.556C475.515 392.22 476.582 390.633 477.31 388.887C478.038 387.14 478.414 385.267 478.415 383.376V152.396C478.414 150.505 478.038 148.632 477.31 146.884C476.582 145.137 475.516 143.55 474.172 142.213C472.827 140.876 471.232 139.816 469.476 139.093C467.721 138.37 465.839 137.999 463.94 138Z" fill="#091B36"></path><path d="M528.636 384.029C528.636 383.308 528.353 382.617 527.851 382.108C527.349 381.598 526.667 381.312 525.957 381.312H57.6271C56.9249 381.323 56.2555 381.615 55.7639 382.124C55.2723 382.632 54.998 383.317 55.0004 384.029V396.787C54.9946 397.141 55.0582 397.492 55.1876 397.82C55.317 398.148 55.5095 398.447 55.754 398.699C55.9985 398.951 56.29 399.152 56.6116 399.288C56.9332 399.425 57.2784 399.495 57.6271 399.495H525.957C526.666 399.495 527.346 399.21 527.848 398.703C528.35 398.195 528.633 397.506 528.636 396.787V384.029Z" fill="#072A4B"></path><path d="M251.555 381.312H332.947V382.03C332.947 383.074 332.767 384.107 332.419 385.07C332.07 386.034 331.559 386.908 330.916 387.644C329.621 389.132 327.866 389.969 326.036 389.971H258.484C256.651 389.967 254.894 389.131 253.595 387.644C252.301 386.155 251.574 384.136 251.572 382.03V381.312H251.555Z" fill="white" fill-opacity="0.17"></path><path d="M116.477 163.39C116.477 155.106 123.193 148.39 131.477 148.39H453.024C461.309 148.39 468.024 155.106 468.024 163.39V370.055H116.477V163.39Z" fill="#E7EEFF"></path><g filter="url(#filter0_dd_28138_81236)"><g clip-path="url(#clip0_28138_81236)"><path d="M450.172 175.143H134.326C132.927 175.143 131.793 176.314 131.793 177.76V373.441C131.793 374.886 132.927 376.058 134.326 376.058H450.172C451.571 376.058 452.706 374.886 452.706 373.441V177.76C452.706 176.314 451.571 175.143 450.172 175.143Z" fill="white"></path><line x1="158.793" y1="347.267" x2="234.793" y2="347.267" stroke="#EDF1F6" stroke-width="4" stroke-linecap="round"></line><line x1="248.793" y1="347.267" x2="324.793" y2="347.267" stroke="#EDF1F6" stroke-width="4" stroke-linecap="round"></line><line x1="339.793" y1="347.267" x2="415.793" y2="347.267" stroke="#EDF1F6" stroke-width="4" stroke-linecap="round"></line><line x1="429.793" y1="347.267" x2="505.793" y2="347.267" stroke="#EDF1F6" stroke-width="4" stroke-linecap="round"></line><path opacity="0.7" d="M431.114 200.642H154.193C152.536 200.642 151.193 201.985 151.193 203.642V251.801C151.193 253.458 152.536 254.801 154.193 254.801H431.114C432.771 254.801 434.114 253.458 434.114 251.801V203.642C434.114 201.985 432.771 200.642 431.114 200.642Z" fill="#C6DBFF"></path><path d="M213.669 261.268H155.001C153.344 261.268 152.001 262.611 152.001 264.268V300.302C152.001 301.959 153.344 303.302 155.001 303.302H213.669C215.326 303.302 216.669 301.959 216.669 300.302V264.268C216.669 262.611 215.326 261.268 213.669 261.268Z" fill="#EDF1F6"></path><path d="M286.42 261.268H227.752C226.096 261.268 224.752 262.611 224.752 264.268V300.302C224.752 301.959 226.096 303.302 227.752 303.302H286.42C288.077 303.302 289.42 301.959 289.42 300.302V264.268C289.42 262.611 288.077 261.268 286.42 261.268Z" fill="#EDF1F6"></path><path d="M359.171 261.268H300.504C298.847 261.268 297.504 262.611 297.504 264.268V300.302C297.504 301.959 298.847 303.302 300.504 303.302H359.171C360.828 303.302 362.171 301.959 362.171 300.302V264.268C362.171 262.611 360.828 261.268 359.171 261.268Z" fill="#EDF1F6"></path><path d="M431.922 261.268H373.255C371.598 261.268 370.255 262.611 370.255 264.268V300.302C370.255 301.959 371.598 303.302 373.255 303.302H431.922C433.579 303.302 434.922 301.959 434.922 300.302V264.268C434.922 262.611 433.579 261.268 431.922 261.268Z" fill="#EDF1F6"></path><path d="M452.706 164.267H131.793V175.143H452.706V164.267Z" fill="#000C36"></path><path d="M143.235 169.987C143.235 170.327 143.135 170.659 142.947 170.942C142.759 171.225 142.492 171.446 142.178 171.576C141.865 171.707 141.519 171.741 141.186 171.676C140.853 171.61 140.547 171.447 140.306 171.207C140.066 170.967 139.902 170.661 139.836 170.327C139.769 169.994 139.803 169.649 139.933 169.335C140.062 169.021 140.282 168.752 140.565 168.563C140.847 168.374 141.179 168.274 141.518 168.274C141.972 168.277 142.406 168.458 142.727 168.779C143.048 169.099 143.23 169.533 143.235 169.987Z" fill="#F66058"></path><path d="M151.244 169.987C151.245 170.327 151.145 170.659 150.957 170.942C150.768 171.225 150.5 171.446 150.187 171.577C149.873 171.707 149.528 171.741 149.194 171.675C148.861 171.609 148.555 171.446 148.315 171.205C148.074 170.965 147.911 170.658 147.845 170.325C147.779 169.991 147.813 169.646 147.943 169.332C148.074 169.018 148.294 168.75 148.577 168.561C148.86 168.373 149.192 168.273 149.532 168.274C149.757 168.273 149.98 168.316 150.189 168.402C150.397 168.488 150.586 168.614 150.745 168.773C150.904 168.932 151.03 169.122 151.116 169.33C151.202 169.538 151.245 169.762 151.244 169.987Z" fill="#F9BD2E"></path><path d="M159.252 169.987C159.253 170.327 159.153 170.659 158.965 170.942C158.777 171.225 158.509 171.446 158.195 171.576C157.882 171.707 157.537 171.741 157.204 171.676C156.87 171.61 156.564 171.447 156.324 171.207C156.083 170.967 155.92 170.661 155.853 170.327C155.786 169.994 155.82 169.649 155.95 169.335C156.08 169.021 156.3 168.752 156.582 168.563C156.864 168.374 157.196 168.274 157.536 168.274C157.989 168.277 158.423 168.458 158.744 168.779C159.065 169.099 159.248 169.533 159.252 169.987Z" fill="#3CC840"></path><path d="M452.706 175.143H131.793V189.453H452.706V175.143Z" fill="#EDF1F6"></path><path d="M433.83 180.577C433.83 179.472 432.934 178.577 431.83 178.577H169.832C168.728 178.577 167.832 179.472 167.832 180.577V184.59C167.832 185.695 168.728 186.59 169.832 186.59H431.83C432.934 186.59 433.83 185.695 433.83 184.59V180.577Z" fill="white"></path><rect x="154.102" y="178.577" width="8.00853" height="8.01371" rx="2" fill="white"></rect><path fill-rule="evenodd" clip-rule="evenodd" d="M157.085 180.978C157.249 180.829 157.514 180.829 157.678 180.979L159.128 182.315C159.291 182.465 159.291 182.708 159.128 182.858L157.677 184.188C157.514 184.338 157.248 184.338 157.085 184.188C156.921 184.038 156.921 183.795 157.085 183.645L158.24 182.586L157.084 181.522C156.921 181.372 156.921 181.128 157.085 180.978Z" fill="#B8C4D0"></path><rect x="151.242" y="186.59" width="8.00853" height="8.01371" rx="2" transform="rotate(-180 151.242 186.59)" fill="white"></rect><path fill-rule="evenodd" clip-rule="evenodd" d="M148.259 184.188C148.095 184.338 147.83 184.338 147.667 184.187L146.216 182.852C146.053 182.702 146.053 182.459 146.217 182.309L147.667 180.979C147.831 180.829 148.096 180.829 148.26 180.979C148.423 181.129 148.423 181.372 148.26 181.522L147.105 182.581L148.26 183.645C148.423 183.795 148.423 184.039 148.259 184.188Z" fill="#B8C4D0"></path><path d="M444.053 180.451C443.924 180.451 443.798 180.413 443.69 180.341C443.583 180.269 443.5 180.167 443.45 180.048C443.401 179.929 443.389 179.797 443.414 179.671C443.44 179.545 443.503 179.429 443.594 179.338C443.686 179.247 443.803 179.186 443.93 179.161C444.056 179.137 444.188 179.151 444.307 179.201C444.425 179.251 444.527 179.335 444.598 179.443C444.669 179.551 444.706 179.677 444.705 179.806C444.703 179.978 444.634 180.142 444.512 180.262C444.39 180.383 444.225 180.451 444.053 180.451Z" fill="#9BACBC"></path><path d="M444.053 183.211C443.924 183.211 443.798 183.173 443.69 183.101C443.583 183.029 443.5 182.927 443.45 182.808C443.401 182.689 443.389 182.558 443.414 182.431C443.44 182.305 443.503 182.189 443.594 182.098C443.686 182.007 443.803 181.946 443.93 181.921C444.056 181.897 444.188 181.911 444.307 181.961C444.425 182.011 444.527 182.096 444.598 182.203C444.669 182.311 444.706 182.438 444.705 182.567C444.703 182.738 444.634 182.902 444.512 183.023C444.39 183.143 444.225 183.211 444.053 183.211Z" fill="#9BACBC"></path><path d="M444.053 185.991C443.924 185.991 443.798 185.953 443.691 185.881C443.584 185.81 443.5 185.708 443.451 185.589C443.402 185.47 443.389 185.34 443.414 185.213C443.439 185.087 443.501 184.971 443.592 184.88C443.683 184.789 443.799 184.727 443.926 184.702C444.052 184.677 444.183 184.69 444.302 184.739C444.421 184.788 444.523 184.872 444.595 184.979C444.666 185.086 444.704 185.212 444.704 185.34C444.704 185.513 444.636 185.678 444.514 185.8C444.392 185.922 444.226 185.991 444.053 185.991Z" fill="#9BACBC"></path></g></g><circle cx="466" cy="137" r="47" fill="#3D7FFC"></circle><path d="M432.178 151.935L459.857 129.327L475.674 142.892L497.626 122.065" stroke="#C6DBFF" stroke-width="4" stroke-linejoin="round"></path><path d="M488.595 120.571H498.784V130.761" stroke="#C6DBFF" stroke-width="4" stroke-linecap="round" stroke-linejoin="round"></path><g filter="url(#filter1_d_28138_81236)"><path d="M82.649 235H243.351C250.884 235 257 241.222 257 248.886V310.114C257 317.778 250.884 324 243.351 324H82.649C75.1161 324 69 317.778 69 310.114V248.886C69 241.222 75.1161 235 82.649 235Z" fill="white"></path></g><path d="M192.943 259H156.057C154.921 259 154 257.21 154 255C154 252.79 154.921 251 156.057 251H192.943C194.079 251 195 252.79 195 255C195 257.21 194.079 259 192.943 259Z" fill="#E7EEFF"></path><path d="M192.943 306H156.057C154.921 306 154 304.657 154 303C154 301.343 154.921 300 156.057 300H192.943C194.079 300 195 301.343 195 303C195 304.657 194.079 306 192.943 306Z" fill="#EDF1F6"></path><path d="M185.589 275H157.411C155.527 275 154 273.434 154 271.5C154 269.566 155.527 268 157.411 268H185.589C187.473 268 189 269.566 189 271.5C189 273.434 187.473 275 185.589 275Z" fill="#EDF1F6"></path><path d="M191.004 290H157.996C155.788 290 154 288.657 154 287C154 285.343 155.788 284 157.996 284H191.004C193.212 284 195 285.343 195 287C195 288.657 193.212 290 191.004 290Z" fill="#EDF1F6"></path><path d="M140.646 278.404C140.646 284.665 138.723 290.464 135.442 295.268C134.083 297.273 132.478 299.095 130.666 300.701C130.626 300.741 130.586 300.781 130.547 300.813C129.482 301.759 128.33 302.634 127.122 303.43C126.065 304.114 124.968 304.734 123.824 305.299C119.883 307.216 115.449 308.298 110.768 308.298C110.538 308.298 110.308 308.298 110.069 308.298C107.51 308.235 105.023 307.861 102.663 307.185C102.234 307.057 101.813 306.938 101.4 306.795C98.7775 305.928 96.3062 304.711 94.0653 303.191C92.3886 302.046 90.8232 300.741 89.4088 299.285C89.2578 299.134 89.0989 298.967 88.9558 298.808C87.2553 296.994 85.7773 294.958 84.5854 292.762C82.2333 288.491 80.9062 283.607 80.9062 278.404C80.9062 261.898 94.2878 248.502 110.776 248.502C127.265 248.502 140.646 261.898 140.646 278.404Z" fill="#E7EEFF"></path><path d="M130.664 300.71C130.664 300.71 130.585 300.79 130.545 300.822C129.48 301.768 128.328 302.643 127.12 303.439C126.063 304.123 124.967 304.743 123.822 305.308C119.881 307.225 115.447 308.307 110.767 308.307C110.536 308.307 110.306 308.307 110.067 308.307C107.509 308.244 105.021 307.87 102.661 307.194C102.232 307.066 101.811 306.947 101.398 306.804C98.7757 305.937 96.3044 304.72 94.0636 303.2C92.3869 302.055 90.8215 300.75 89.407 299.294C89.2561 299.143 89.0971 298.976 88.9541 298.817C92.0929 297.21 97.1865 296.144 102.9 295.778C108.343 295.428 114.35 295.715 119.738 296.773C123.942 297.6 127.764 298.881 130.672 300.71H130.664Z" fill="#3D7FFC"></path><path d="M103.195 296.972C107.08 301.188 120.136 300.559 119.747 296.884C119.691 296.431 119.612 293.734 119.564 293.32C119.532 292.986 119.5 292.66 119.469 292.35C119.381 291.443 119.31 290.64 119.246 289.948C119.071 287.927 119.016 286.837 119.016 286.837H119C118.626 286.734 110.235 284.347 106.055 283.361C104.657 283.027 103.727 282.852 103.743 282.979C105.022 292.366 101.907 295.595 103.179 296.98L103.195 296.972Z" fill="#FFB27D"></path><path d="M105.625 286.123C105.625 286.123 109.129 289.687 119.253 289.941C119.078 287.921 119.023 286.831 119.023 286.831H119.007C118.633 286.727 110.242 284.341 106.062 283.354C105.323 283.657 106.301 285.622 105.617 286.123H105.625Z" fill="#ED975D"></path><path d="M121.589 286.328C121.589 286.328 119.031 287.251 115.757 287.689C110.981 288.333 104.696 287.951 102.725 282.168C99.4034 272.431 95.1522 266.585 104.934 262.607C110.171 260.475 113.524 260.364 115.797 261.175C117.775 261.875 118.935 263.275 119.825 264.667C121.725 267.651 125.547 284.626 121.589 286.328Z" fill="#FFB27D"></path><path d="M119.087 257.134C122.583 259.433 121.439 264.819 117.323 265.543C114.851 265.98 112.785 266.068 111.585 266.601C109.154 267.682 107.064 268.828 107.636 272.606C107.835 273.895 108.455 275.454 105.157 274.683C104.617 274.555 104.227 274.595 103.957 274.754C102.59 275.566 104.338 279.511 104.863 280.37C104.863 280.37 105.626 283.194 103.933 284.57C103.727 284.738 100.413 286.185 92.4269 273.951C91.1714 272.034 89.9715 267.706 91.9104 263.538C93.8493 259.37 99.2449 254.104 109.424 254.104C112.07 254.104 116.051 255.154 119.079 257.142L119.087 257.134Z" fill="#091B36"></path><path d="M215.828 274.425H209.599C208.91 274.425 208.249 274.699 207.761 275.187C207.274 275.674 207 276.335 207 277.025V293.542C207.003 294.229 207.278 294.887 207.766 295.372C208.253 295.857 208.912 296.129 209.599 296.129H215.828C216.517 296.129 217.178 295.855 217.666 295.368C218.153 294.88 218.427 294.219 218.427 293.53V277.025C218.427 276.335 218.153 275.674 217.666 275.187C217.178 274.699 216.517 274.425 215.828 274.425Z" fill="#9FC0FF"></path><path d="M242.826 285.824V285.945H243.314C243.848 285.947 244.37 286.107 244.814 286.404C245.258 286.701 245.604 287.123 245.809 287.616C246.014 288.109 246.069 288.652 245.967 289.176C245.865 289.7 245.611 290.183 245.236 290.563C244.725 291.073 244.036 291.363 243.314 291.37H242.826V291.507C243.411 291.55 243.958 291.812 244.358 292.242C244.757 292.671 244.979 293.236 244.979 293.822C244.979 294.409 244.757 294.974 244.358 295.403C243.958 295.833 243.411 296.095 242.826 296.137C242.772 296.143 242.718 296.143 242.664 296.137H224.775C223.758 296.138 222.781 295.735 222.061 295.017C221.34 294.299 220.935 293.324 220.932 292.307V277.695C220.932 275.41 223.887 270.647 225.776 268.528C226.199 268.067 226.522 267.524 226.725 266.932C226.928 266.34 227.006 265.713 226.955 265.089C226.793 263.071 226.926 260.201 228.973 260.011C232.17 259.717 234.793 265.259 233.28 269.424C232.654 271.115 232.142 272.363 231.734 273.227H243.439C244.293 273.233 245.111 273.567 245.724 274.161C246.337 274.755 246.698 275.562 246.731 276.415C246.764 277.268 246.468 278.101 245.903 278.74C245.338 279.38 244.548 279.778 243.698 279.85C244.477 279.871 245.217 280.196 245.761 280.754C246.304 281.313 246.608 282.062 246.608 282.841C246.602 283.631 246.284 284.387 245.724 284.945C245.164 285.503 244.407 285.817 243.617 285.82L242.826 285.824Z" fill="#9FC0FF"></path><g filter="url(#filter2_d_28138_81236)"><path d="M198.802 126H373.189C381.363 126 388 132.642 388 140.822V206.178C388 214.358 381.363 221 373.189 221H198.811C190.637 221 184 214.358 184 206.178V140.822C184 132.642 190.637 126 198.811 126H198.802Z" fill="white"></path></g><path d="M343.828 167.425H337.599C336.91 167.425 336.249 167.699 335.761 168.187C335.274 168.674 335 169.335 335 170.025V186.542C335.003 187.229 335.278 187.887 335.766 188.372C336.253 188.857 336.912 189.129 337.599 189.129H343.828C344.517 189.129 345.178 188.855 345.666 188.368C346.153 187.88 346.427 187.219 346.427 186.53V170.025C346.427 169.335 346.153 168.674 345.666 168.187C345.178 167.699 344.517 167.425 343.828 167.425Z" fill="#9FC0FF"></path><path d="M370.826 178.824V178.945H371.314C371.849 178.947 372.37 179.107 372.814 179.404C373.258 179.701 373.604 180.123 373.809 180.616C374.015 181.109 374.07 181.652 373.968 182.176C373.865 182.7 373.611 183.183 373.236 183.563C372.726 184.073 372.036 184.363 371.314 184.37H370.826V184.507C371.411 184.55 371.958 184.812 372.358 185.242C372.757 185.671 372.979 186.236 372.979 186.822C372.979 187.409 372.757 187.974 372.358 188.403C371.958 188.833 371.411 189.095 370.826 189.137C370.772 189.143 370.718 189.143 370.664 189.137H352.775C351.758 189.138 350.782 188.735 350.061 188.017C349.34 187.299 348.935 186.324 348.932 185.307V170.695C348.932 168.41 351.887 163.647 353.776 161.528C354.199 161.067 354.522 160.524 354.725 159.932C354.928 159.34 355.006 158.713 354.955 158.089C354.793 156.071 354.926 153.201 356.973 153.011C360.17 152.717 362.793 158.259 361.28 162.424C360.654 164.115 360.142 165.363 359.734 166.227H371.44C372.293 166.233 373.111 166.567 373.724 167.161C374.337 167.755 374.698 168.562 374.731 169.415C374.764 170.268 374.468 171.101 373.903 171.74C373.338 172.38 372.548 172.778 371.698 172.85C372.477 172.871 373.217 173.196 373.761 173.754C374.304 174.313 374.608 175.062 374.608 175.841C374.602 176.631 374.284 177.387 373.724 177.945C373.164 178.503 372.407 178.817 371.617 178.82L370.826 178.824Z" fill="#9FC0FF"></path><path d="M262.135 172.084C262.135 178.797 260.065 185.023 256.546 190.167C255.055 192.367 253.299 194.355 251.314 196.112C251.127 196.274 250.931 196.445 250.735 196.598C249.755 197.425 248.716 198.21 247.633 198.91C246.509 199.652 245.333 200.317 244.106 200.923C239.871 202.978 235.125 204.138 230.107 204.138C229.851 204.138 229.604 204.138 229.357 204.121C226.613 204.053 223.946 203.661 221.416 202.936C220.947 202.799 220.496 202.671 220.052 202.518C217.241 201.579 214.591 200.274 212.188 198.654C210.39 197.425 208.72 196.018 207.204 194.466C206.011 193.246 204.92 191.941 203.932 190.533C203.233 189.544 202.594 188.529 202.015 187.463C199.501 182.882 198.078 177.645 198.078 172.067C198.078 154.368 212.427 140.004 230.107 140.004C247.787 140.004 262.135 154.368 262.135 172.067V172.084Z" fill="#E7EEFF"></path><path d="M232.611 145.537C232.611 145.537 226.382 144.88 220.861 148.488C215.34 152.096 215.391 168.917 211.872 172.832C206.274 179.067 219.345 183.605 227.524 184.014C234.17 184.347 251.535 182.803 248.638 177.881C242.452 167.398 251.467 146.603 232.602 145.537H232.611Z" fill="#091B36"></path><path d="M249.42 187.632C248.091 184.374 245.765 182.864 244.436 182.241C243.814 181.943 243.405 181.84 243.405 181.84C243.405 181.84 240.252 181.039 235.668 180.476C232.175 180.041 227.846 179.725 223.45 180.024C220.885 180.203 218.286 180.569 215.824 181.243C215.594 181.312 215.364 181.38 215.125 181.439C213.549 181.84 211.359 182.617 209.221 184.109C207.201 185.517 205.233 187.572 203.921 190.541C204.909 191.939 206 193.253 207.193 194.473C208.709 196.025 210.379 197.432 212.177 198.652C214.58 200.281 217.23 201.586 220.042 202.516C220.485 202.678 220.945 202.806 221.405 202.943C223.936 203.668 226.602 204.06 229.346 204.128C229.593 204.145 229.84 204.145 230.096 204.145C235.114 204.145 239.86 202.985 244.095 200.93C245.322 200.324 246.498 199.65 247.623 198.917C248.696 198.209 249.744 197.432 250.724 196.605C250.349 192.238 249.923 188.869 249.412 187.632H249.42Z" fill="#3D7FFC"></path><path d="M226.5 186.146C222.802 184.952 222.589 182.521 223.27 180.576C224.088 178.23 224.736 174.776 224.702 170.451L225.332 170.571L235.898 172.609C235.898 172.609 235.676 175.936 235.685 179.066V179.143C235.685 181.864 235.761 183.322 234.424 185.685C233.597 187.152 230.837 187.545 226.508 186.146H226.5Z" fill="#FFB27D"></path><path d="M235.89 172.608C235.89 172.608 235.668 175.934 235.677 179.065C229.772 178.928 226.619 173.555 225.324 170.569L235.89 172.608Z" fill="#E8945B"></path><path d="M237.885 175.56C237.885 175.56 223.912 175.867 223.86 167.15C223.809 158.441 221.969 152.607 230.881 152.052C239.794 151.489 241.549 154.799 242.273 157.708C242.997 160.608 241.515 175.262 237.885 175.56Z" fill="#FFB27D"></path><path d="M237.244 151.806C237.244 151.806 233.47 162.042 227.608 163.586C221.746 165.13 219.189 163.569 219.189 163.569C219.189 163.569 223.671 159.969 224.574 153.708C224.574 153.708 234.33 146.953 237.236 151.806H237.244Z" fill="#091B36"></path><path d="M236.299 152.642C236.299 152.642 239.145 153.691 240.321 155.755C241.471 157.777 242.459 160.455 242.255 163.748C242.255 163.748 245.101 156.788 241.846 152.872C238.386 148.727 236.307 152.651 236.307 152.651L236.299 152.642Z" fill="#091B36"></path><path d="M323.491 152H278.509C277.123 152 276 150.434 276 148.5C276 146.566 277.123 145 278.509 145H323.491C324.877 145 326 146.566 326 148.5C326 150.434 324.877 152 323.491 152Z" fill="#E7EEFF"></path><path d="M323.491 204H278.509C277.123 204 276 202.434 276 200.5C276 198.566 277.123 197 278.509 197H323.491C324.877 197 326 198.566 326 200.5C326 202.434 324.877 204 323.491 204Z" fill="#EDF1F6"></path><path d="M310.297 169H279.703C277.657 169 276 167.434 276 165.5C276 163.566 277.657 162 279.703 162H310.297C312.343 162 314 163.566 314 165.5C314 167.434 312.343 169 310.297 169Z" fill="#EDF1F6"></path><path d="M315.712 186H280.288C277.919 186 276 184.21 276 182C276 179.79 277.919 178 280.288 178H315.712C318.081 178 320 179.79 320 182C320 184.21 318.081 186 315.712 186Z" fill="#EDF1F6"></path><g filter="url(#filter3_d_28138_81236)"><path d="M339.71 197H537.29C547.622 197 556 204.91 556 214.639V303.361C556 313.101 547.61 321 537.29 321H339.721C329.39 321 321 313.09 321 303.349V214.651C321 204.91 329.39 197.011 339.71 197.011V197Z" fill="white"></path></g><path d="M419.144 257.064C419.144 265.868 416.435 274.023 411.802 280.781C409.854 283.667 407.538 286.273 404.93 288.578C403.419 289.92 401.796 291.14 400.095 292.27C399.009 292.975 397.89 293.635 396.737 294.25C396.312 294.474 395.886 294.697 395.461 294.899C389.898 297.595 383.664 299.116 377.072 299.116C376.736 299.116 376.423 299.116 376.087 299.116C372.729 299.038 369.439 298.557 366.305 297.718C366.081 297.662 365.868 297.606 365.656 297.539C365.051 297.36 364.458 297.203 363.865 296.991C360.172 295.771 356.702 294.049 353.546 291.923C352.785 291.397 352.046 290.86 351.318 290.301C350.837 289.92 350.356 289.54 349.897 289.137C348.89 288.287 347.916 287.381 346.987 286.43C344.312 283.712 342.029 280.624 340.171 277.245C336.869 271.249 335 264.369 335 257.053C335 233.839 353.848 215 377.072 215C400.296 215 419.144 233.839 419.144 257.053V257.064Z" fill="#E7EEFF"></path><path d="M390.58 288.846C377.149 293.086 353.914 281.652 353.914 281.652C353.914 281.652 366.293 272.367 365.644 253.047L376.03 261.415L383.081 267.098C383.081 267.098 383.048 270.443 382.287 276.316C382.085 277.86 383.831 281.272 385.331 283.185C389.405 288.354 390.58 288.857 390.58 288.857V288.846Z" fill="#FFB27D"></path><path d="M383.094 267.086C383.094 267.086 383.06 270.431 382.299 276.305C374.487 274.962 365.611 262.332 365.611 262.332C369.596 261.18 373.077 260.978 376.043 261.403L383.094 267.086Z" fill="#ED975D"></path><path d="M387.201 266.774C387.201 266.774 365.018 270.455 362.936 256.616C360.854 242.766 356.59 233.928 370.659 230.986C384.739 228.044 388.287 232.922 390.111 237.374C391.935 241.827 392.92 265.465 387.201 266.785V266.774Z" fill="#FFB27D"></path><path d="M396.726 294.248C396.3 294.472 395.875 294.696 395.45 294.897C389.887 297.593 383.653 299.114 377.061 299.114C376.725 299.114 376.412 299.114 376.076 299.114C372.718 299.036 369.428 298.555 366.294 297.716C366.07 297.66 365.857 297.604 365.645 297.537C365.04 297.358 364.447 297.201 363.854 296.989C360.16 295.769 356.691 294.047 353.534 291.921C352.773 291.395 352.035 290.858 351.307 290.299C350.826 289.919 350.345 289.538 349.886 289.136C351.095 286.294 352.438 283.788 353.937 281.64C353.96 281.618 353.982 281.584 354.005 281.562C354.005 281.562 354.005 281.539 354.038 281.528C355.437 279.526 356.97 277.859 358.649 276.572C358.728 276.516 358.806 276.449 358.873 276.393C359.825 275.722 365.611 278.541 370.916 281.17C375.751 283.553 380.598 283.844 385.164 282.949C385.231 282.949 385.309 282.927 385.377 282.915L390.01 287.021C392.249 289.102 394.566 291.462 396.714 294.237L396.726 294.248Z" fill="#3D7FFC"></path><path d="M362.914 255.273C362.914 255.273 365.186 254.892 364.828 251.76C364.458 248.628 364.47 244.533 367.01 245.294C369.562 246.055 369.685 248.102 370.737 246.905C371.789 245.708 371.801 240.696 379.389 240.338C386.977 239.991 390.055 242.631 393.581 241.076C397.106 239.521 397.297 234.185 397.297 234.185C397.297 234.185 396.289 236.087 394.778 236.702C394.778 236.702 400.666 228.658 393.849 223.143C387.033 217.628 380.083 221.241 376.143 221.476C367.458 222.002 361.839 222.528 359.008 228.233C356.165 233.939 357.34 249.78 362.914 255.273Z" fill="#091B36"></path><path d="M507.828 250.425H501.599C500.91 250.425 500.249 250.699 499.761 251.187C499.274 251.674 499 252.335 499 253.025V269.542C499.003 270.229 499.278 270.887 499.766 271.372C500.253 271.857 500.912 272.129 501.599 272.129H507.828C508.517 272.129 509.178 271.855 509.666 271.368C510.153 270.88 510.427 270.219 510.427 269.53V253.025C510.427 252.335 510.153 251.674 509.666 251.187C509.178 250.699 508.517 250.425 507.828 250.425Z" fill="#9FC0FF"></path><path d="M534.826 261.824V261.945H535.314C535.849 261.947 536.37 262.107 536.814 262.404C537.258 262.701 537.604 263.123 537.809 263.616C538.015 264.109 538.07 264.652 537.968 265.176C537.865 265.7 537.611 266.183 537.236 266.563C536.726 267.073 536.036 267.363 535.314 267.37H534.826V267.507C535.411 267.55 535.958 267.812 536.358 268.242C536.757 268.671 536.979 269.236 536.979 269.822C536.979 270.409 536.757 270.974 536.358 271.403C535.958 271.833 535.411 272.095 534.826 272.137C534.772 272.143 534.718 272.143 534.664 272.137H516.775C515.758 272.138 514.782 271.735 514.061 271.017C513.34 270.299 512.935 269.324 512.932 268.307V253.695C512.932 251.41 515.887 246.647 517.776 244.528C518.199 244.067 518.522 243.524 518.725 242.932C518.928 242.34 519.006 241.713 518.955 241.089C518.793 239.071 518.926 236.201 520.973 236.011C524.17 235.717 526.793 241.259 525.28 245.424C524.654 247.115 524.142 248.363 523.734 249.227H535.44C536.293 249.233 537.111 249.567 537.724 250.161C538.337 250.755 538.698 251.562 538.731 252.415C538.764 253.268 538.468 254.101 537.903 254.74C537.338 255.38 536.548 255.778 535.698 255.85C536.477 255.871 537.217 256.196 537.761 256.754C538.304 257.313 538.608 258.062 538.608 258.841C538.602 259.631 538.284 260.387 537.724 260.945C537.164 261.503 536.407 261.817 535.617 261.82L534.826 261.824Z" fill="#9FC0FF"></path><path d="M481.592 230H438.408C437.078 230 436 228.434 436 226.5C436 224.566 437.078 223 438.408 223H481.592C482.922 223 484 224.566 484 226.5C484 228.434 482.922 230 481.592 230Z" fill="#E7EEFF"></path><path d="M481.592 274H438.408C437.078 274 436 272.657 436 271C436 269.343 437.078 268 438.408 268H481.592C482.922 268 484 269.343 484 271C484 272.657 482.922 274 481.592 274Z" fill="#EDF1F6"></path><path d="M481.592 293H438.408C437.078 293 436 291.657 436 290C436 288.343 437.078 287 438.408 287H481.592C482.922 287 484 288.343 484 290C484 291.657 482.922 293 481.592 293Z" fill="#EDF1F6"></path><path d="M464.881 245H439.119C437.396 245 436 243.657 436 242C436 240.343 437.396 239 439.119 239H464.881C466.604 239 468 240.343 468 242C468 243.657 466.604 245 464.881 245Z" fill="#EDF1F6"></path><path d="M470.297 259H439.703C437.657 259 436 257.657 436 256C436 254.343 437.657 253 439.703 253H470.297C472.343 253 474 254.343 474 256C474 257.657 472.343 259 470.297 259Z" fill="#EDF1F6"></path><defs><filter id="filter0_dd_28138_81236" x="124.793" y="157.267" width="342.913" height="208.564" filterUnits="userSpaceOnUse" color-interpolation-filters="sRGB"><feFlood flood-opacity="0" result="BackgroundImageFix"></feFlood><feColorMatrix in="SourceAlpha" type="matrix" values="0 0 0 0 0 0 0 0 0 0 0 0 0 0 0 0 0 0 127 0" result="hardAlpha"></feColorMatrix><feOffset dx="5" dy="5"></feOffset><feGaussianBlur stdDeviation="5"></feGaussianBlur><feColorMatrix type="matrix" values="0 0 0 0 0 0 0 0 0 0.296699 0 0 0 0 0.858629 0 0 0 0.08 0"></feColorMatrix><feBlend mode="normal" in2="BackgroundImageFix" result="effect1_dropShadow_28138_81236"></feBlend><feColorMatrix in="SourceAlpha" type="matrix" values="0 0 0 0 0 0 0 0 0 0 0 0 0 0 0 0 0 0 127 0" result="hardAlpha"></feColorMatrix><feOffset></feOffset><feGaussianBlur stdDeviation="3.5"></feGaussianBlur><feComposite in2="hardAlpha" operator="out"></feComposite><feColorMatrix type="matrix" values="0 0 0 0 0.0354167 0 0 0 0 0.105426 0 0 0 0 0.2125 0 0 0 0.07 0"></feColorMatrix><feBlend mode="normal" in2="effect1_dropShadow_28138_81236" result="effect2_dropShadow_28138_81236"></feBlend><feBlend mode="normal" in="SourceGraphic" in2="effect2_dropShadow_28138_81236" result="shape"></feBlend></filter><filter id="filter1_d_28138_81236" x="60" y="226" width="216" height="117" filterUnits="userSpaceOnUse" color-interpolation-filters="sRGB"><feFlood flood-opacity="0" result="BackgroundImageFix"></feFlood><feColorMatrix in="SourceAlpha" type="matrix" values="0 0 0 0 0 0 0 0 0 0 0 0 0 0 0 0 0 0 127 0" result="hardAlpha"></feColorMatrix><feOffset dx="5" dy="5"></feOffset><feGaussianBlur stdDeviation="7"></feGaussianBlur><feColorMatrix type="matrix" values="0 0 0 0 0 0 0 0 0 0.0898333 0 0 0 0 0.320833 0 0 0 0.07 0"></feColorMatrix><feBlend mode="normal" in2="BackgroundImageFix" result="effect1_dropShadow_28138_81236"></feBlend><feBlend mode="normal" in="SourceGraphic" in2="effect1_dropShadow_28138_81236" result="shape"></feBlend></filter><filter id="filter2_d_28138_81236" x="175" y="117" width="232" height="123" filterUnits="userSpaceOnUse" color-interpolation-filters="sRGB"><feFlood flood-opacity="0" result="BackgroundImageFix"></feFlood><feColorMatrix in="SourceAlpha" type="matrix" values="0 0 0 0 0 0 0 0 0 0 0 0 0 0 0 0 0 0 127 0" result="hardAlpha"></feColorMatrix><feOffset dx="5" dy="5"></feOffset><feGaussianBlur stdDeviation="7"></feGaussianBlur><feColorMatrix type="matrix" values="0 0 0 0 0 0 0 0 0 0.0898333 0 0 0 0 0.320833 0 0 0 0.07 0"></feColorMatrix><feBlend mode="normal" in2="BackgroundImageFix" result="effect1_dropShadow_28138_81236"></feBlend><feBlend mode="normal" in="SourceGraphic" in2="effect1_dropShadow_28138_81236" result="shape"></feBlend></filter><filter id="filter3_d_28138_81236" x="312" y="188" width="263" height="152" filterUnits="userSpaceOnUse" color-interpolation-filters="sRGB"><feFlood flood-opacity="0" result="BackgroundImageFix"></feFlood><feColorMatrix in="SourceAlpha" type="matrix" values="0 0 0 0 0 0 0 0 0 0 0 0 0 0 0 0 0 0 127 0" result="hardAlpha"></feColorMatrix><feOffset dx="5" dy="5"></feOffset><feGaussianBlur stdDeviation="7"></feGaussianBlur><feColorMatrix type="matrix" values="0 0 0 0 0 0 0 0 0 0.0898333 0 0 0 0 0.320833 0 0 0 0.07 0"></feColorMatrix><feBlend mode="normal" in2="BackgroundImageFix" result="effect1_dropShadow_28138_81236"></feBlend><feBlend mode="normal" in="SourceGraphic" in2="effect1_dropShadow_28138_81236" result="shape"></feBlend></filter><clipPath id="clip0_28138_81236"><rect x="131.793" y="164.267" width="320.913" height="186.564" rx="10" fill="white"></rect></clipPath></defs></svg>