<svg xmlns="http://www.w3.org/2000/svg" width="130" height="100" viewBox="0 0 130 100" fill="none"><g clip-path="url(#clip0_30678_115803)"><path d="M69.95 90C92.0414 90 109.95 72.0914 109.95 50C109.95 27.9086 92.0414 10 69.95 10C47.8586 10 29.95 27.9086 29.95 50C29.95 72.0914 47.8586 90 69.95 90Z" fill="#E6EEFF"></path><path d="M42.96 74.4V74.36C45.69 74.36 47.37 72.23 49.39 70.43C50.86 69.13 52.5 68 54.87 68C55.93 68 56.84 68.01 57.6 68.04H63.18C64 68.04 64.66 68.88 64.66 69.92C64.66 70.96 64 71.8 63.18 71.8H57.94C56.88 72.02 56.07 73.18 56.07 74.59C56.07 75.66 56.54 76.58 57.22 77.06C57.39 77.12 58.19 77.39 59.26 77.75C59.95 77.96 60.6 78.18 61.22 78.41L61.35 78.45C63.65 79.23 66.13 80.06 66.58 80.19C66.88 80.21 67.15 80.19 67.39 80.12L75.65 73.3L77.15 71.92C77.22 71.86 77.3 71.81 77.37 71.76C77.48 71.69 77.59 71.63 77.71 71.58C77.8 71.54 77.9 71.52 78 71.5C78.11 71.48 78.21 71.47 78.32 71.47C78.47 71.47 78.61 71.49 78.75 71.53C79.97 71.66 80.93 72.95 80.93 74.54C80.93 75.38 80.66 76.13 80.22 76.68C80.05 76.91 79.85 77.09 79.64 77.24L79.07 77.77L66.13 89.72C66.08 89.74 66.02 89.77 65.97 89.8C65.68 89.93 65.37 90.01 65.05 90.01C64.86 90.01 64.67 89.98 64.49 89.94L64.43 89.92C60.05 88.5 50.99 85.57 46.75 84.24C46.65 84.19 46.55 84.14 46.44 84.09C45.36 83.74 43.88 83.33 42.96 83.33V82.54H42.95V74.41L42.96 74.4Z" fill="#FFB27D"></path><g filter="url(#filter0_dd_30678_115803)"><mask id="mask0_30678_115803" style="mask-type:alpha" maskUnits="userSpaceOnUse" x="22" y="15" width="51" height="29"><path d="M22.95 20C22.95 17.24 25.19 15 27.95 15H67.64C70.4 15 72.64 17.24 72.64 20V38.98C72.64 41.74 70.4 43.98 67.64 43.98H27.95C25.19 43.98 22.95 41.74 22.95 38.98V20Z" fill="#F5F8FF"></path></mask><g mask="url(#mask0_30678_115803)"><path d="M64.64 15H30.95C26.5317 15 22.95 18.5817 22.95 23V39.53C22.95 43.9483 26.5317 47.53 30.95 47.53H64.64C69.0583 47.53 72.64 43.9483 72.64 39.53V23C72.64 18.5817 69.0583 15 64.64 15Z" fill="white"></path><path d="M22.95 20C22.95 17.24 25.19 15 27.95 15H67.64C70.4 15 72.64 17.24 72.64 20V38.98C72.64 41.74 70.4 43.98 67.64 43.98H27.95C25.19 43.98 22.95 41.74 22.95 38.98V20Z" fill="#F5F8FF"></path><path opacity="0.8" d="M16.6 53.57C13.84 53.57 12.11 50.58 13.48 48.18C13.77 47.67 14.18 47.24 14.68 46.92L16.89 45.52C18.66 44.4 20.17 42.89 21.29 41.12L24.9 35.4C25.36 34.66 25.95 34.01 26.64 33.47L26.95 33.22C29.33 31.34 32.64 31.18 35.19 32.81C36.11 33.4 36.88 34.19 37.44 35.12L39.07 37.81C40.75 40.58 44.49 41.24 47.01 39.2C47.66 38.68 48.17 38.01 48.52 37.25L52.82 27.78C53.31 26.7 54.08 25.76 55.05 25.06C57.68 23.17 61.28 23.38 63.67 25.58L64.64 26.47L70.57 33.69L74.82 39.63C75.67 40.81 77.18 41.32 78.56 40.89C80.38 40.32 82.31 41.38 82.81 43.22L83.56 45.97C84.62 49.86 81.68 53.69 77.65 53.69L16.6 53.57Z" fill="#76A5FF"></path><path d="M21.85 52.18C20.07 52.18 19.05 50.16 20.11 48.73C20.32 48.45 20.59 48.22 20.9 48.07L22.84 47.12C24.27 46.42 25.53 45.41 26.53 44.18L29.12 40.99C29.62 40.38 30.21 39.85 30.89 39.44L31.09 39.32C33.01 38.14 35.41 38.03 37.43 39.04C38.31 39.48 39.08 40.11 39.68 40.88L40.69 42.18C42.2 44.12 44.93 44.6 47.01 43.29C47.66 42.88 48.21 42.32 48.6 41.65L51.68 36.38C52.23 35.44 53.03 34.66 53.98 34.12C56.05 32.96 58.61 33.1 60.54 34.49L61.48 35.16L66.28 39.7L69.61 43.32C70.39 44.16 71.56 44.52 72.68 44.25C74.26 43.87 75.87 44.74 76.4 46.27L76.65 46.98C77.56 49.57 75.63 52.28 72.88 52.28L21.86 52.2L21.85 52.18Z" fill="#3D7FFC"></path></g></g><g filter="url(#filter1_dd_30678_115803)"><path d="M112.95 24H61.95C59.1886 24 56.95 26.2386 56.95 29V59C56.95 61.7614 59.1886 64 61.95 64H112.95C115.711 64 117.95 61.7614 117.95 59V29C117.95 26.2386 115.711 24 112.95 24Z" fill="white"></path></g><path d="M77.95 32.5V56.5C77.95 58.43 79.52 60 81.45 60C83.38 60 84.95 58.43 84.95 56.5V32.5C84.95 30.57 83.38 29 81.45 29C79.52 29 77.95 30.57 77.95 32.5Z" fill="#76A5FF"></path><path d="M65.95 40.5V56.5C65.95 58.43 67.52 60 69.45 60C71.38 60 72.95 58.43 72.95 56.5V40.5C72.95 38.57 71.38 37 69.45 37C67.52 37 65.95 38.57 65.95 40.5Z" fill="#9FC0FF"></path><path d="M89.95 46.5V56.5C89.95 58.43 91.52 60 93.45 60C95.38 60 96.95 58.43 96.95 56.5V46.5C96.95 44.57 95.38 43 93.45 43C91.52 43 89.95 44.57 89.95 46.5Z" fill="#FECE4D"></path><path d="M101.95 41.5V55.5C101.95 57.43 103.52 59 105.45 59C107.38 59 108.95 57.43 108.95 55.5V41.5C108.95 39.57 107.38 38 105.45 38C103.52 38 101.95 39.57 101.95 41.5Z" fill="#7879F1"></path><path d="M42.95 71H36.95V86H42.95V71Z" fill="#091B36"></path></g><defs><filter id="filter0_dd_30678_115803" x="10.95" y="5" width="73.69" height="52.98" filterUnits="userSpaceOnUse" color-interpolation-filters="sRGB"><feFlood flood-opacity="0" result="BackgroundImageFix"></feFlood><feColorMatrix in="SourceAlpha" type="matrix" values="0 0 0 0 0 0 0 0 0 0 0 0 0 0 0 0 0 0 127 0" result="hardAlpha"></feColorMatrix><feOffset dy="4"></feOffset><feGaussianBlur stdDeviation="5"></feGaussianBlur><feColorMatrix type="matrix" values="0 0 0 0 0.607843 0 0 0 0 0.67451 0 0 0 0 0.737255 0 0 0 0.35 0"></feColorMatrix><feBlend mode="normal" in2="BackgroundImageFix" result="effect1_dropShadow_30678_115803"></feBlend><feColorMatrix in="SourceAlpha" type="matrix" values="0 0 0 0 0 0 0 0 0 0 0 0 0 0 0 0 0 0 127 0" result="hardAlpha"></feColorMatrix><feOffset dy="2"></feOffset><feGaussianBlur stdDeviation="6"></feGaussianBlur><feColorMatrix type="matrix" values="0 0 0 0 0.89625 0 0 0 0 0.930414 0 0 0 0 0.995833 0 0 0 0.5 0"></feColorMatrix><feBlend mode="normal" in2="effect1_dropShadow_30678_115803" result="effect2_dropShadow_30678_115803"></feBlend><feBlend mode="normal" in="SourceGraphic" in2="effect2_dropShadow_30678_115803" result="shape"></feBlend></filter><filter id="filter1_dd_30678_115803" x="44.95" y="14" width="85" height="64" filterUnits="userSpaceOnUse" color-interpolation-filters="sRGB"><feFlood flood-opacity="0" result="BackgroundImageFix"></feFlood><feColorMatrix in="SourceAlpha" type="matrix" values="0 0 0 0 0 0 0 0 0 0 0 0 0 0 0 0 0 0 127 0" result="hardAlpha"></feColorMatrix><feOffset dy="4"></feOffset><feGaussianBlur stdDeviation="5"></feGaussianBlur><feColorMatrix type="matrix" values="0 0 0 0 0.607843 0 0 0 0 0.67451 0 0 0 0 0.737255 0 0 0 0.35 0"></feColorMatrix><feBlend mode="normal" in2="BackgroundImageFix" result="effect1_dropShadow_30678_115803"></feBlend><feColorMatrix in="SourceAlpha" type="matrix" values="0 0 0 0 0 0 0 0 0 0 0 0 0 0 0 0 0 0 127 0" result="hardAlpha"></feColorMatrix><feOffset dy="2"></feOffset><feGaussianBlur stdDeviation="6"></feGaussianBlur><feColorMatrix type="matrix" values="0 0 0 0 0.89625 0 0 0 0 0.930414 0 0 0 0 0.995833 0 0 0 0.5 0"></feColorMatrix><feBlend mode="normal" in2="effect1_dropShadow_30678_115803" result="effect2_dropShadow_30678_115803"></feBlend><feBlend mode="normal" in="SourceGraphic" in2="effect2_dropShadow_30678_115803" result="shape"></feBlend></filter><clipPath id="clip0_30678_115803"><rect width="114" height="80" fill="white" transform="translate(13 10)"></rect></clipPath></defs></svg>