<svg xmlns="http://www.w3.org/2000/svg" width="130" height="100" viewBox="0 0 130 100" fill="none"><g id="use case img"><circle id="Ellipse 2389" cx="65" cy="50" r="40" fill="#E6EEFF"></circle><g id="Group 112793"><g id="Group" filter="url(#filter0_dd_1073_92462)"><path id="Vector" d="M79.28 42H21C18.7909 42 17 43.7909 17 46V76C17 78.2091 18.7909 80 21 80H79.28C81.4891 80 83.28 78.2091 83.28 76V46C83.28 43.7909 81.4891 42 79.28 42Z" fill="white"></path><path id="Vector_2" d="M59.8004 46.5391H58.6504C58.0981 46.5391 57.6504 46.9868 57.6504 47.5391V48.4091C57.6504 48.9613 58.0981 49.4091 58.6504 49.4091H59.8004C60.3527 49.4091 60.8004 48.9613 60.8004 48.4091V47.5391C60.8004 46.9868 60.3527 46.5391 59.8004 46.5391Z" fill="#E7EEFF"></path><path id="Vector_3" d="M62.1302 46.4219H68.1102C68.3702 46.4219 68.5802 46.6319 68.5802 46.8919C68.5802 47.1519 68.3702 47.3619 68.1102 47.3619H62.1302C61.8702 47.3619 61.6602 47.1519 61.6602 46.8919C61.6602 46.6319 61.8702 46.4219 62.1302 46.4219V46.4219Z" fill="#E7EEFF"></path><path id="Vector_4" d="M62.1302 48.3125H76.6202C76.8802 48.3125 77.0902 48.5225 77.0902 48.7825C77.0902 49.0425 76.8802 49.2525 76.6202 49.2525H62.1302C61.8702 49.2525 61.6602 49.0425 61.6602 48.7825C61.6602 48.5225 61.8702 48.3125 62.1302 48.3125Z" fill="#E7EEFF"></path><path id="Vector_5" d="M59.8004 55.0391H58.6504C58.0981 55.0391 57.6504 55.4868 57.6504 56.0391V56.9091C57.6504 57.4613 58.0981 57.9091 58.6504 57.9091H59.8004C60.3527 57.9091 60.8004 57.4613 60.8004 56.9091V56.0391C60.8004 55.4868 60.3527 55.0391 59.8004 55.0391Z" fill="#9D97F4"></path><path id="Vector_6" d="M62.1302 54.9219H68.1102C68.3702 54.9219 68.5802 55.1319 68.5802 55.3919C68.5802 55.6519 68.3702 55.8619 68.1102 55.8619H62.1302C61.8702 55.8619 61.6602 55.6519 61.6602 55.3919C61.6602 55.1319 61.8702 54.9219 62.1302 54.9219V54.9219Z" fill="#E7EEFF"></path><path id="Vector_7" d="M62.1302 56.8125H76.6202C76.8802 56.8125 77.0902 57.0225 77.0902 57.2825C77.0902 57.5425 76.8802 57.7525 76.6202 57.7525H62.1302C61.8702 57.7525 61.6602 57.5425 61.6602 57.2825C61.6602 57.0225 61.8702 56.8125 62.1302 56.8125Z" fill="#E7EEFF"></path><path id="Vector_8" d="M59.8004 63.5469H58.6504C58.0981 63.5469 57.6504 63.9946 57.6504 64.5469V65.4169C57.6504 65.9692 58.0981 66.4169 58.6504 66.4169H59.8004C60.3527 66.4169 60.8004 65.9692 60.8004 65.4169V64.5469C60.8004 63.9946 60.3527 63.5469 59.8004 63.5469Z" fill="#76A5FF"></path><path id="Vector_9" d="M62.1302 63.4297H68.1102C68.3702 63.4297 68.5802 63.6397 68.5802 63.8997C68.5802 64.1597 68.3702 64.3697 68.1102 64.3697H62.1302C61.8702 64.3697 61.6602 64.1597 61.6602 63.8997C61.6602 63.6397 61.8702 63.4297 62.1302 63.4297V63.4297Z" fill="#E7EEFF"></path><path id="Vector_10" d="M76.6202 65.3203H62.1302C61.8706 65.3203 61.6602 65.5307 61.6602 65.7903C61.6602 66.0499 61.8706 66.2603 62.1302 66.2603H76.6202C76.8797 66.2603 77.0902 66.0499 77.0902 65.7903C77.0902 65.5307 76.8797 65.3203 76.6202 65.3203Z" fill="#E7EEFF"></path><path id="Vector_11" d="M59.8004 72.0469H58.6504C58.0981 72.0469 57.6504 72.4946 57.6504 73.0469V73.9169C57.6504 74.4692 58.0981 74.9169 58.6504 74.9169H59.8004C60.3527 74.9169 60.8004 74.4692 60.8004 73.9169V73.0469C60.8004 72.4946 60.3527 72.0469 59.8004 72.0469Z" fill="#FECE4D"></path><path id="Vector_12" d="M68.1202 71.9297H62.1302C61.8706 71.9297 61.6602 72.1401 61.6602 72.3997C61.6602 72.6593 61.8706 72.8697 62.1302 72.8697H68.1202C68.3797 72.8697 68.5902 72.6593 68.5902 72.3997C68.5902 72.1401 68.3797 71.9297 68.1202 71.9297Z" fill="#E7EEFF"></path><path id="Vector_13" d="M76.6202 73.8203H62.1302C61.8706 73.8203 61.6602 74.0307 61.6602 74.2903C61.6602 74.5499 61.8706 74.7603 62.1302 74.7603H76.6202C76.8797 74.7603 77.0902 74.5499 77.0902 74.2903C77.0902 74.0307 76.8797 73.8203 76.6202 73.8203Z" fill="#E7EEFF"></path></g><path id="Vector_14" d="M49.3397 46.4219H26.1797C24.5228 46.4219 23.1797 47.765 23.1797 49.4219V72.5819C23.1797 74.2387 24.5228 75.5819 26.1797 75.5819H49.3397C50.9965 75.5819 52.3397 74.2387 52.3397 72.5819V49.4219C52.3397 47.765 50.9965 46.4219 49.3397 46.4219Z" fill="#F5F8FF"></path><path id="Vector_15" d="M37.8996 56.4292C37.8296 56.4492 37.7496 56.4492 37.6696 56.4292C37.3896 56.3692 37.2196 56.0992 37.2796 55.8192L38.4796 50.0692C38.5396 49.7892 38.8096 49.6092 39.0796 49.6792C39.3596 49.7392 39.5296 50.0092 39.4696 50.2892L38.2696 56.0392C38.2296 56.2392 38.0796 56.3892 37.8896 56.4292H37.8996Z" fill="#091B36"></path><path id="Vector_16" d="M40.5002 50.2322C40.7102 51.0922 40.1902 51.9522 39.3502 52.1722C38.5102 52.3822 37.6502 51.8622 37.4402 51.0022C37.2302 50.1422 37.7502 49.2822 38.5902 49.0622C39.4302 48.8522 40.2902 49.3722 40.5002 50.2322Z" fill="#3D7FFC"></path><path id="Vector_17" d="M41.6199 73.1298C41.3799 73.1898 41.1299 73.0698 41.0299 72.8298L38.9099 67.7498C38.7999 67.4898 38.9199 67.1798 39.1799 67.0798C39.4399 66.9698 39.7399 67.0898 39.8399 67.3498L41.9599 72.4298C42.0699 72.6898 41.9499 72.9998 41.6899 73.0998C41.6599 73.1098 41.6399 73.1198 41.6099 73.1298H41.6199Z" fill="#091B36"></path><path id="Vector_18" d="M40.2998 73.3979C39.6898 72.8479 39.6198 71.8979 40.1598 71.2779C40.6998 70.6579 41.6298 70.5879 42.2498 71.1379C42.8598 71.6879 42.9198 72.6379 42.3898 73.2579C41.8498 73.8779 40.9198 73.9479 40.2998 73.3979Z" fill="#3D7FFC"></path><path id="Vector_19" d="M41.2101 59.5419C41.0101 59.5919 40.8001 59.5219 40.6801 59.3419C40.5201 59.1119 40.5701 58.7919 40.8001 58.6319L46.4201 54.5819C46.6501 54.4119 46.9701 54.4719 47.1301 54.7019C47.2901 54.9319 47.2401 55.2519 47.0101 55.4119L41.3901 59.4619C41.3301 59.5019 41.2801 59.5219 41.2201 59.5419H41.2101Z" fill="#091B36"></path><path id="Vector_20" d="M47.99 56.2805C47.49 57.2005 46.35 57.5405 45.44 57.0305C44.53 56.5205 44.2 55.3605 44.7 54.4405C45.2 53.5205 46.34 53.1805 47.25 53.6905C48.16 54.2005 48.49 55.3605 47.99 56.2805Z" fill="#3D7FFC"></path><path id="Vector_21" d="M29.5504 70.8121C29.4104 70.8421 29.2504 70.8221 29.1304 70.7221C28.9004 70.5521 28.8604 70.2321 29.0304 70.0021L33.1504 64.3921C33.3204 64.1621 33.6304 64.1221 33.8604 64.2921C34.0904 64.4621 34.1304 64.7821 33.9604 65.0121L29.8404 70.6221C29.7704 70.7221 29.6704 70.7921 29.5504 70.8121V70.8121Z" fill="#091B36"></path><path id="Vector_22" d="M27.8099 69.4824C28.0099 68.4524 28.9899 67.7724 29.9999 67.9724C31.0199 68.1724 31.6799 69.1724 31.4899 70.2024C31.2899 71.2324 30.3099 71.9124 29.2999 71.7124C28.2799 71.5124 27.6199 70.5124 27.8199 69.4824H27.8099Z" fill="#3D7FFC"></path><path id="Vector_23" d="M30.9602 58.4773C30.8202 58.5073 30.6702 58.4873 30.5502 58.3973L27.6902 56.3673C27.4602 56.2073 27.4002 55.8773 27.5702 55.6573C27.7302 55.4273 28.0502 55.3673 28.2702 55.5273L31.1302 57.5573C31.3602 57.7173 31.4202 58.0473 31.2502 58.2673C31.1802 58.3773 31.0702 58.4473 30.9602 58.4773Z" fill="#091B36"></path><path id="Vector_24" d="M28.3699 55.1129C28.8899 55.2029 29.2399 55.6929 29.1599 56.2129C29.0799 56.7429 28.5899 57.0929 28.0699 57.0129C27.5499 56.9329 27.1999 56.4329 27.2799 55.9129C27.3599 55.3829 27.8499 55.0329 28.3699 55.1129V55.1129Z" fill="#3D7FFC"></path><path id="Vector_25" d="M47.9901 62.2309C47.9901 62.2309 47.9101 62.2509 47.8701 62.2509H44.3801C44.1001 62.2409 43.8701 62.0009 43.8701 61.7209C43.8701 61.4409 44.1001 61.2109 44.3801 61.2109H47.8701C48.1501 61.2209 48.3801 61.4609 48.3801 61.7409C48.3801 61.9809 48.2201 62.1809 48.0001 62.2409L47.9901 62.2309Z" fill="#091B36"></path><path id="Vector_26" d="M48.0199 62.6379C47.5499 62.8679 46.9799 62.6679 46.7499 62.1879C46.5199 61.7079 46.7199 61.1279 47.1899 60.9079C47.6599 60.6779 48.2299 60.8779 48.4599 61.3579C48.6799 61.8379 48.4899 62.4179 48.0199 62.6379Z" fill="#3D7FFC"></path><path id="Vector_27" d="M40.0599 68.667C43.9399 66.997 45.7499 62.447 44.0999 58.507C42.4499 54.567 37.9699 52.737 34.0899 54.407C30.2099 56.077 28.3999 60.627 30.0499 64.567C31.6999 68.507 36.1799 70.337 40.0599 68.667V68.667Z" fill="#3D7FFC"></path><g id="Group_2" opacity="0.49"><g id="Group_3" opacity="0.72"><path id="Vector_28" d="M32.6697 60.2184C32.8197 60.8584 32.4297 61.4984 31.7897 61.6584C31.1497 61.8184 30.5097 61.4284 30.3497 60.7884C30.1897 60.1484 30.5897 59.5084 31.2297 59.3484C31.8697 59.1884 32.5097 59.5784 32.6697 60.2184Z" fill="#091B36"></path></g><g id="Group_4" opacity="0.72"><path id="Vector_29" d="M32.6995 57.4397C33.0095 57.6297 33.1195 58.0597 32.9195 58.3797C32.7295 58.6997 32.3095 58.7997 31.9995 58.6097C31.6895 58.4197 31.5795 57.9897 31.7795 57.6697C31.9695 57.3497 32.3895 57.2497 32.6995 57.4397Z" fill="#091B36"></path></g><g id="Group_5" opacity="0.72"><path id="Vector_30" d="M33.17 61.3057C32.96 60.4457 33.46 59.5757 34.29 59.3657C35.12 59.1557 35.96 59.6957 36.17 60.5557C36.38 61.4157 35.88 62.2857 35.05 62.4957C34.22 62.7057 33.38 62.1657 33.17 61.3057Z" fill="#091B36"></path></g><g id="Group_6" opacity="0.72"><path id="Vector_31" d="M40.8696 56.4519C41.1296 57.5119 40.2796 58.6419 38.9696 58.9619C37.6596 59.2919 36.3896 58.6919 36.1396 57.6319C35.8796 56.5719 36.7296 55.4419 38.0396 55.1219C39.3396 54.7919 40.6196 55.3919 40.8696 56.4519V56.4519Z" fill="#091B36"></path></g><g id="Group_7" opacity="0.72"><path id="Vector_32" d="M33.4194 64.3997C33.5494 64.9297 33.1694 65.4697 32.5794 65.6197C31.9894 65.7697 31.3994 65.4597 31.2794 64.9297C31.1494 64.3997 31.5294 63.8597 32.1194 63.7097C32.7094 63.5597 33.2994 63.8697 33.4194 64.3997Z" fill="#091B36"></path></g><g id="Group_8" opacity="0.72"><path id="Vector_33" d="M42.9593 64.1129C43.0293 64.4029 42.7993 64.7129 42.4493 64.8029C42.0993 64.8929 41.7593 64.7229 41.6893 64.4329C41.6193 64.1429 41.8493 63.8329 42.1993 63.7429C42.5493 63.6529 42.8893 63.8229 42.9593 64.1129Z" fill="#091B36"></path></g><g id="Group_9" opacity="0.72"><path id="Vector_34" d="M35.7201 65.5348C35.7901 65.8248 35.5601 66.1348 35.2101 66.2248C34.8601 66.3148 34.5201 66.1448 34.4501 65.8548C34.3801 65.5648 34.6101 65.2548 34.9601 65.1648C35.3101 65.0748 35.6501 65.2448 35.7201 65.5348Z" fill="#091B36"></path></g></g><g id="Vector_35" filter="url(#filter1_dd_1073_92462)"><path d="M105.44 19H46.4404C43.679 19 41.4404 21.2386 41.4404 24V45C41.4404 47.7614 43.679 50 46.4404 50H105.44C108.202 50 110.44 47.7614 110.44 45V24C110.44 21.2386 108.202 19 105.44 19Z" fill="white"></path></g><path id="Vector_36" d="M53.2204 23.73C53.1904 23.66 53.1604 23.59 53.1304 23.52C52.9204 23.11 52.6204 22.75 52.2304 22.49C51.8304 22.23 51.4104 22.1 50.9804 22.09C50.2304 22.07 49.4904 22.43 48.9904 23.09C48.5204 22.41 47.7904 22.02 47.0404 22C46.6104 22 46.1704 22.1 45.7704 22.35C44.7304 22.99 44.2504 24.31 44.5404 25.53C44.5904 25.74 44.6604 25.95 44.7704 26.16C45.1504 26.91 46.3704 28.06 47.3804 28.92C47.4404 28.97 47.5004 29.02 47.5504 29.07C47.7904 29.27 48.0104 29.46 48.2004 29.61C48.3304 29.72 48.4404 29.81 48.5404 29.89C48.6304 29.96 48.7404 30 48.8504 30C48.9604 30 49.0704 29.97 49.1704 29.9C49.2804 29.82 49.4104 29.72 49.5604 29.61C50.1304 29.18 50.9504 28.54 51.6704 27.9C52.2704 27.36 52.7904 26.81 53.0504 26.39C53.0604 26.37 53.0704 26.36 53.0804 26.34C53.2204 26.09 53.3204 25.81 53.3804 25.54C53.5104 24.93 53.4604 24.3 53.2304 23.74L53.2204 23.73Z" fill="#76A5FF"></path><path id="Vector_37" d="M91.3304 45.9187C91.1804 45.9187 91.0504 45.8087 91.0204 45.6587L89.1204 34.5887L88.4404 37.4388C88.4104 37.5788 88.2904 37.6788 88.1504 37.6788L85.0104 37.7688C84.8704 37.7688 84.7504 37.6788 84.7104 37.5388L84.2004 35.6687L82.8704 41.0887C82.8304 41.2287 82.7104 41.3287 82.5604 41.3287C82.4104 41.3287 82.3004 41.2087 82.2704 41.0587L80.5004 29.4887L79.4304 45.9787C79.4204 46.1387 79.2904 46.2587 79.1404 46.2687C78.9904 46.2787 78.8504 46.1687 78.8204 46.0087L76.9204 34.9388L76.2404 37.7888C76.2104 37.9288 76.0904 38.0188 75.9504 38.0288L72.7804 38.1188C72.6404 38.1188 72.5204 38.0287 72.4804 37.8887L71.9704 36.0188L70.6404 41.4388C70.6004 41.5788 70.4804 41.6788 70.3304 41.6788C70.1804 41.6788 70.0704 41.5587 70.0404 41.4087L68.2704 29.8387L67.2004 46.3288C67.1904 46.4888 67.0604 46.6087 66.9104 46.6187C66.7604 46.6187 66.6304 46.5087 66.6004 46.3587L64.7004 35.2888L64.0204 38.1387C63.9904 38.2787 63.8704 38.3787 63.7304 38.3787L60.5604 38.4687C60.4204 38.4687 60.3004 38.3787 60.2604 38.2387L59.7504 36.3688L58.4204 41.7888C58.3804 41.9288 58.2604 42.0288 58.1104 42.0288C57.9604 42.0288 57.8504 41.9087 57.8204 41.7587L56.0504 30.1888L54.9804 46.6787C54.9704 46.8387 54.8504 46.9588 54.6904 46.9688C54.5404 46.9688 54.4104 46.8587 54.3804 46.7087L52.4804 35.6387L51.8004 38.4887C51.7704 38.6287 51.6504 38.7187 51.5104 38.7287L44.7504 38.9288C44.5804 38.9288 44.4404 38.7987 44.4404 38.6287C44.4404 38.4587 44.5704 38.3087 44.7404 38.3087L51.2704 38.1188L52.2404 34.0388C52.2704 33.8988 52.4004 33.7987 52.5504 33.7987C52.7004 33.7987 52.8204 33.9087 52.8404 34.0587L54.5504 44.0387L55.6404 27.3387C55.6504 27.1787 55.7804 27.0587 55.9304 27.0487C56.0804 27.0487 56.2204 27.1587 56.2504 27.3187L58.2204 40.1487L59.4604 35.0787C59.4904 34.9387 59.6104 34.8487 59.7504 34.8387C59.8904 34.8387 60.0104 34.9287 60.0504 35.0687L60.8104 37.8387L63.5104 37.7587L64.4804 33.6788C64.5104 33.5388 64.6404 33.4388 64.7904 33.4388C64.9404 33.4388 65.0604 33.5488 65.0804 33.6988L66.7904 43.6787L67.8804 26.9787C67.8904 26.8187 68.0104 26.6987 68.1704 26.6887C68.3304 26.6887 68.4604 26.7987 68.4904 26.9587L70.4604 39.7888L71.7004 34.7187C71.7304 34.5787 71.8604 34.4887 71.9904 34.4787C72.1304 34.4787 72.2504 34.5687 72.2904 34.7087L73.0504 37.4787L75.7404 37.3987L76.7104 33.3187C76.7404 33.1787 76.8704 33.0787 77.0204 33.0787C77.1704 33.0787 77.2904 33.1887 77.3104 33.3387L79.0204 43.3187L80.1004 26.6187C80.1104 26.4587 80.2404 26.3387 80.3904 26.3287C80.5504 26.3287 80.6804 26.4388 80.7104 26.5988L82.6804 39.4288L83.9204 34.3588C83.9504 34.2188 84.0804 34.1288 84.2104 34.1188C84.3504 34.1188 84.4704 34.2088 84.5104 34.3488L85.2704 37.1188L87.9304 37.0388L88.9004 32.9587C88.9304 32.8187 89.0604 32.7187 89.2104 32.7187C89.3604 32.7187 89.4804 32.8287 89.5004 32.9787L91.2104 42.9587L92.3004 26.2587C92.3104 26.0987 92.4404 25.9787 92.5904 25.9688C92.7504 25.9688 92.8804 26.0787 92.9104 26.2387L94.8804 39.0687L96.1204 33.9987C96.1504 33.8587 96.2704 33.7687 96.4104 33.7587C96.5504 33.7587 96.6704 33.8487 96.7104 33.9887L97.4704 36.7587L104.16 36.5587C104.33 36.5587 104.47 36.6888 104.47 36.8588C104.47 37.0288 104.34 37.1788 104.17 37.1788L97.2404 37.3787C97.1004 37.3787 96.9804 37.2887 96.9404 37.1487L96.4304 35.2788L95.1004 40.6988C95.0604 40.8388 94.9404 40.9388 94.7904 40.9388C94.6404 40.9388 94.5304 40.8187 94.5004 40.6687L92.7304 29.0988L91.6604 45.5887C91.6504 45.7487 91.5204 45.8687 91.3704 45.8787H91.3604L91.3304 45.9187Z" fill="#9FC0FF"></path><g id="Group_10"><g id="Group_11"><path id="Vector_38" fill-rule="evenodd" clip-rule="evenodd" d="M112.36 26.42C109.99 30.41 105.64 33.11 103.94 34V13L112.01 15.62C112.27 15.7 112.44 15.93 112.44 16.19V26.13C112.44 26.24 112.41 26.33 112.36 26.43V26.42Z" fill="white"></path><path id="Vector_39" fill-rule="evenodd" clip-rule="evenodd" d="M95.5302 26.42C97.9102 30.41 102.25 33.11 103.95 34V13L95.8802 15.62C95.6202 15.7 95.4502 15.93 95.4502 16.19V26.13C95.4502 26.24 95.4802 26.33 95.5302 26.43V26.42Z" fill="white"></path><path id="Vector_40" fill-rule="evenodd" clip-rule="evenodd" d="M103.94 14.4688L97.3401 16.6087C97.0801 16.6887 96.9102 16.9187 96.9102 17.1787V25.7487C96.9102 25.8687 96.9402 25.9588 97.0002 26.0588C98.5802 28.5288 101.29 30.8688 103.93 32.3888V14.4688H103.94Z" fill="#3D7FFC"></path><path id="Vector_41" fill-rule="evenodd" clip-rule="evenodd" d="M110.97 25.7487V17.1787C110.97 16.9187 110.8 16.6887 110.54 16.6087L103.94 14.4688V32.3888C106.58 30.8688 109.3 28.5288 110.87 26.0588C110.93 25.9588 110.96 25.8587 110.96 25.7487H110.97Z" fill="#3D7FFC"></path><path id="Vector_42" fill-rule="evenodd" clip-rule="evenodd" d="M102.76 18.25H105.13C105.25 18.25 105.35 18.34 105.35 18.46V21C105.35 21.11 105.45 21.21 105.57 21.21H108.27C108.39 21.21 108.49 21.3 108.49 21.42V23.66C108.49 23.77 108.39 23.87 108.27 23.87H105.57C105.45 23.87 105.35 23.96 105.35 24.08V26.62C105.35 26.73 105.26 26.82 105.13 26.82H102.76C102.64 26.82 102.54 26.73 102.54 26.62V24.08C102.54 23.97 102.44 23.87 102.32 23.87H99.6204C99.5004 23.87 99.4004 23.78 99.4004 23.66V21.42C99.4004 21.3 99.5004 21.21 99.6204 21.21H102.32C102.44 21.21 102.54 21.12 102.54 21V18.46C102.54 18.35 102.64 18.25 102.76 18.25V18.25Z" fill="white"></path></g></g><g id="Group_12"><g id="Group_13"><path id="Vector_43" d="M94.79 81.165V79.105C97.61 79.105 100.2 77.685 101.7 75.305L106.49 67.795C108.17 65.135 107.37 61.605 104.7 59.915L97.06 55.115L98.17 53.375L105.81 58.175C109.45 60.465 110.54 65.265 108.25 68.885L103.46 76.395C101.57 79.375 98.33 81.155 94.79 81.155V81.165Z" fill="#091B36"></path><path id="Vector_44" d="M82.4404 77.3997L87.4504 79.2897L87.6304 78.8197L82.6204 76.9297L82.4404 77.3997Z" fill="#091B36"></path><path id="Vector_45" d="M84.5006 78.2397L84.5206 78.1797L88.5806 79.7397C88.8906 79.8597 89.2306 79.6297 89.2306 79.2997C89.2306 79.0397 89.4406 78.8297 89.7106 78.8297H94.8106V83.7197H89.2406V83.4097C89.2406 82.8197 88.8806 82.2997 88.3306 82.0897L85.8006 81.1197C84.6506 80.6797 84.0806 79.3897 84.5206 78.2497L84.5006 78.2397Z" fill="#3D7FFC"></path><path id="Vector_46" d="M100.581 51.0759L102.651 47.6159L98.7907 45.3359L96.7207 48.7959L100.581 51.0759Z" fill="#091B36"></path><path id="Vector_47" d="M87.6803 72.3962L89.7503 68.9362L85.8903 66.6562L83.8203 70.1162L87.6803 72.3962Z" fill="#091B36"></path><path id="Vector_48" d="M101.83 47.4733L102.58 46.2133C103 45.5133 102.77 44.6233 102.06 44.2033C101.36 43.7933 100.46 44.0233 100.04 44.7133L99.29 45.9733L101.82 47.4633L101.83 47.4733Z" fill="#091B36"></path><path id="Vector_49" d="M102.171 50.8107L89.9706 71.2407C89.7206 71.6607 89.1706 71.8007 88.7506 71.5507L84.1607 68.8407C83.7407 68.5907 83.6006 68.0507 83.8506 67.6307L96.0507 47.2007C96.3707 46.6707 97.0506 46.5007 97.5906 46.8107L101.791 49.2907C102.321 49.6007 102.501 50.2907 102.181 50.8207L102.171 50.8107Z" fill="#3D7FFC"></path><path id="Vector_50" d="M90.8604 81.2728C90.8604 81.9028 91.3704 82.4128 92.0104 82.4128C92.6504 82.4128 93.1604 81.9028 93.1604 81.2728C93.1604 80.6428 92.6504 80.1328 92.0104 80.1328C91.3704 80.1328 90.8604 80.6428 90.8604 81.2728Z" fill="#C6DBFF"></path><path id="Vector_51" d="M101.301 86.0009H82.7207V85.2209C82.7207 84.3909 83.4007 83.7109 84.2307 83.7109H99.7807C100.621 83.7109 101.291 84.3809 101.291 85.2209V86.0009H101.301Z" fill="#091B36"></path></g></g></g></g><defs><filter id="filter0_dd_1073_92462" x="5" y="32" width="90.2803" height="62" filterUnits="userSpaceOnUse" color-interpolation-filters="sRGB"><feFlood flood-opacity="0" result="BackgroundImageFix"></feFlood><feColorMatrix in="SourceAlpha" type="matrix" values="0 0 0 0 0 0 0 0 0 0 0 0 0 0 0 0 0 0 127 0" result="hardAlpha"></feColorMatrix><feOffset dy="4"></feOffset><feGaussianBlur stdDeviation="5"></feGaussianBlur><feColorMatrix type="matrix" values="0 0 0 0 0.607843 0 0 0 0 0.67451 0 0 0 0 0.737255 0 0 0 0.35 0"></feColorMatrix><feBlend mode="normal" in2="BackgroundImageFix" result="effect1_dropShadow_1073_92462"></feBlend><feColorMatrix in="SourceAlpha" type="matrix" values="0 0 0 0 0 0 0 0 0 0 0 0 0 0 0 0 0 0 127 0" result="hardAlpha"></feColorMatrix><feOffset dy="2"></feOffset><feGaussianBlur stdDeviation="6"></feGaussianBlur><feColorMatrix type="matrix" values="0 0 0 0 0.89625 0 0 0 0 0.930414 0 0 0 0 0.995833 0 0 0 0.5 0"></feColorMatrix><feBlend mode="normal" in2="effect1_dropShadow_1073_92462" result="effect2_dropShadow_1073_92462"></feBlend><feBlend mode="normal" in="SourceGraphic" in2="effect2_dropShadow_1073_92462" result="shape"></feBlend></filter><filter id="filter1_dd_1073_92462" x="29.4404" y="9" width="93" height="55" filterUnits="userSpaceOnUse" color-interpolation-filters="sRGB"><feFlood flood-opacity="0" result="BackgroundImageFix"></feFlood><feColorMatrix in="SourceAlpha" type="matrix" values="0 0 0 0 0 0 0 0 0 0 0 0 0 0 0 0 0 0 127 0" result="hardAlpha"></feColorMatrix><feOffset dy="4"></feOffset><feGaussianBlur stdDeviation="5"></feGaussianBlur><feColorMatrix type="matrix" values="0 0 0 0 0.607843 0 0 0 0 0.67451 0 0 0 0 0.737255 0 0 0 0.35 0"></feColorMatrix><feBlend mode="normal" in2="BackgroundImageFix" result="effect1_dropShadow_1073_92462"></feBlend><feColorMatrix in="SourceAlpha" type="matrix" values="0 0 0 0 0 0 0 0 0 0 0 0 0 0 0 0 0 0 127 0" result="hardAlpha"></feColorMatrix><feOffset dy="2"></feOffset><feGaussianBlur stdDeviation="6"></feGaussianBlur><feColorMatrix type="matrix" values="0 0 0 0 0.89625 0 0 0 0 0.930414 0 0 0 0 0.995833 0 0 0 0.5 0"></feColorMatrix><feBlend mode="normal" in2="effect1_dropShadow_1073_92462" result="effect2_dropShadow_1073_92462"></feBlend><feBlend mode="normal" in="SourceGraphic" in2="effect2_dropShadow_1073_92462" result="shape"></feBlend></filter></defs></svg>