<svg xmlns="http://www.w3.org/2000/svg" width="720" height="525" viewBox="0 0 720 525" fill="none"><rect x="49" y="85" width="816" height="432" rx="48" fill="#F5F8FF"></rect><g filter="url(#filter0_dd_34301_106098)"><rect x="96" y="69.3145" width="520.425" height="364.963" rx="7.17105" fill="white"></rect></g><path d="M616.425 96.9561H96V119.832H616.425V96.9561Z" fill="#EDF1F6"></path><path d="M585.926 104.675C585.926 103.57 585.03 102.675 583.926 102.675H156.145C155.04 102.675 154.145 103.57 154.145 104.675V113.066C154.145 114.17 155.04 115.066 156.145 115.066H583.926C585.03 115.066 585.926 114.17 585.926 113.066V104.675Z" fill="white"></path><rect x="132.176" y="102.526" width="12.9874" height="12.9958" rx="2" fill="white"></rect><path fill-rule="evenodd" clip-rule="evenodd" d="M137.016 106.421C137.282 106.178 137.712 106.179 137.977 106.423L140.329 108.588C140.593 108.832 140.593 109.226 140.328 109.469L137.976 111.626C137.711 111.87 137.281 111.87 137.015 111.626C136.75 111.383 136.75 110.989 137.015 110.745L138.888 109.027L137.014 107.302C136.75 107.058 136.75 106.664 137.016 106.421Z" fill="#B8C4D0"></path><rect x="127.539" y="115.521" width="12.9874" height="12.9958" rx="2" transform="rotate(-180 127.539 115.521)" fill="white"></rect><path fill-rule="evenodd" clip-rule="evenodd" d="M122.699 111.627C122.433 111.87 122.003 111.869 121.738 111.625L119.386 109.46C119.121 109.216 119.122 108.822 119.387 108.579L121.739 106.421C122.004 106.178 122.434 106.178 122.699 106.421C122.965 106.665 122.965 107.059 122.699 107.303L120.827 109.021L122.7 110.746C122.965 110.989 122.964 111.384 122.699 111.627Z" fill="#B8C4D0"></path><path d="M602.389 105.564C602.179 105.564 601.975 105.502 601.801 105.385C601.627 105.269 601.491 105.103 601.412 104.91C601.332 104.717 601.311 104.504 601.353 104.299C601.395 104.094 601.496 103.906 601.645 103.759C601.794 103.611 601.983 103.512 602.189 103.472C602.394 103.433 602.607 103.455 602.8 103.536C602.993 103.618 603.157 103.754 603.272 103.929C603.387 104.104 603.447 104.309 603.445 104.518C603.443 104.796 603.33 105.062 603.132 105.258C602.934 105.454 602.667 105.564 602.389 105.564Z" fill="#9BACBC"></path><path d="M602.389 110.04C602.179 110.04 601.975 109.978 601.801 109.862C601.627 109.745 601.491 109.58 601.412 109.387C601.332 109.193 601.311 108.981 601.353 108.776C601.395 108.571 601.496 108.382 601.645 108.235C601.794 108.088 601.983 107.988 602.189 107.949C602.394 107.909 602.607 107.932 602.8 108.013C602.993 108.094 603.157 108.231 603.272 108.406C603.387 108.581 603.447 108.786 603.445 108.995C603.443 109.273 603.33 109.539 603.132 109.735C602.934 109.931 602.667 110.04 602.389 110.04Z" fill="#9BACBC"></path><path d="M602.389 114.549C602.18 114.549 601.975 114.487 601.802 114.371C601.628 114.255 601.492 114.09 601.412 113.898C601.333 113.705 601.312 113.493 601.352 113.288C601.393 113.083 601.494 112.895 601.642 112.747C601.789 112.6 601.978 112.5 602.182 112.459C602.387 112.418 602.6 112.439 602.793 112.519C602.986 112.599 603.151 112.734 603.267 112.907C603.383 113.081 603.445 113.285 603.445 113.494C603.445 113.774 603.334 114.042 603.136 114.24C602.938 114.438 602.669 114.549 602.389 114.549Z" fill="#9BACBC"></path><path d="M96 76.4855C96 72.525 99.2106 69.3145 103.171 69.3145H609.098C613.059 69.3145 616.269 72.525 616.269 76.4855V96.95H96V76.4855Z" fill="#000C36"></path><path d="M118.011 83.7359C118.011 86.3694 115.838 88.5421 113.205 88.5421C110.571 88.5421 108.398 86.3694 108.398 83.7359C108.398 81.1023 110.571 78.9297 113.205 78.9297C115.838 78.9297 118.011 81.1023 118.011 83.7359Z" fill="#F66058"></path><path d="M137.097 83.7359C137.097 86.3694 134.924 88.5421 132.291 88.5421C129.657 88.5421 127.484 86.3694 127.484 83.7359C127.484 81.1023 129.657 78.9297 132.291 78.9297C134.99 78.9297 137.097 81.1023 137.097 83.7359Z" fill="#F9BD2E"></path><path d="M156.624 83.7359C156.624 86.3694 154.451 88.5421 151.818 88.5421C149.184 88.5421 147.012 86.3694 147.012 83.7359C147.012 81.1023 149.184 78.9297 151.818 78.9297C154.451 78.9297 156.624 81.1023 156.624 83.7359Z" fill="#3CC840"></path><g filter="url(#filter1_dd_34301_106098)"><rect x="118" y="141" width="258" height="124" rx="5" fill="white"></rect></g><g filter="url(#filter2_dd_34301_106098)"><rect x="118" y="280" width="375" height="197" rx="5" fill="white"></rect></g><g filter="url(#filter3_dd_34301_106098)"><rect x="390" y="141" width="276" height="124" rx="5" fill="white"></rect></g><path d="M160.178 159.055C160.082 158.813 159.972 158.558 159.834 158.316C159.075 156.867 157.971 155.619 156.536 154.706C155.088 153.78 153.515 153.337 151.943 153.297C149.197 153.243 146.48 154.491 144.631 156.8C142.893 154.411 140.23 153.055 137.471 153.001C135.899 152.974 134.298 153.364 132.822 154.223C129.001 156.451 127.235 161.095 128.311 165.35C128.49 166.101 128.766 166.826 129.139 167.538C130.518 170.168 134.988 174.182 138.699 177.215C138.92 177.403 139.127 177.577 139.334 177.738C140.203 178.45 141.017 179.094 141.72 179.631C142.189 180.007 142.617 180.329 142.962 180.597C143.293 180.852 143.693 180.987 144.107 181C144.507 181 144.921 180.893 145.266 180.651C145.666 180.369 146.149 180.034 146.7 179.644C148.797 178.141 151.805 175.913 154.453 173.645L154.467 173.631C156.661 171.752 158.592 169.846 159.53 168.343C159.571 168.276 159.613 168.222 159.64 168.155C160.151 167.269 160.51 166.316 160.744 165.363C161.227 163.229 161.02 161.014 160.178 159.068V159.055Z" fill="#F50F32"></path><g clip-path="url(#clip0_34301_106098)"><path d="M315.733 246.842C315.156 246.863 314.648 246.433 314.539 245.849L307.271 203.163L304.682 214.152C304.563 214.684 304.105 215.063 303.577 215.073L291.551 215.432C291.013 215.452 290.535 215.084 290.386 214.551L288.425 207.341L283.327 228.254C283.188 228.807 282.7 229.186 282.132 229.166C281.575 229.135 281.117 228.715 281.027 228.142L274.228 183.489L270.126 247.099C270.086 247.703 269.608 248.194 269.021 248.225C268.433 248.266 267.906 247.826 267.806 247.232L260.538 204.545L257.95 215.544C257.83 216.077 257.372 216.446 256.845 216.466L244.708 216.825C244.171 216.845 243.693 216.476 243.544 215.944L241.572 208.734L236.475 229.647C236.336 230.2 235.848 230.579 235.28 230.559C234.723 230.528 234.265 230.108 234.175 229.534L227.375 184.881L223.274 248.491C223.234 249.096 222.756 249.587 222.168 249.618C222.158 249.618 222.149 249.618 222.139 249.618C221.561 249.638 221.053 249.208 220.944 248.625L213.676 205.938L211.088 216.937C210.958 217.47 210.51 217.849 209.982 217.859L197.836 218.218C197.299 218.238 196.821 217.869 196.672 217.337L194.7 210.127L189.603 231.04C189.463 231.593 188.976 231.972 188.408 231.951C187.851 231.921 187.393 231.501 187.303 230.927L180.503 186.274L176.401 249.884C176.362 250.488 175.884 250.98 175.296 251.011C175.286 251.011 175.276 251.011 175.266 251.011C174.689 251.031 174.181 250.601 174.082 250.007L166.814 207.321L164.225 218.32C164.096 218.852 163.648 219.221 163.12 219.242L137.205 220.01C136.558 220.03 136.02 219.508 136.001 218.842C135.981 218.177 136.488 217.624 137.136 217.603L162.155 216.866L165.858 201.145C165.988 200.592 166.485 200.203 167.033 200.223C167.59 200.244 168.058 200.653 168.148 201.217L174.699 239.725L178.87 175.285C178.91 174.671 179.388 174.189 179.986 174.159C180.573 174.128 181.101 174.568 181.2 175.183L188.737 224.69L193.506 205.129C193.635 204.596 194.083 204.238 194.631 204.217C195.158 204.217 195.636 204.576 195.775 205.098L198.693 215.77L209.027 215.463L212.73 199.742C212.86 199.189 213.348 198.8 213.905 198.82C214.463 198.841 214.931 199.25 215.02 199.814L221.571 238.322L225.743 173.903C225.782 173.288 226.26 172.807 226.858 172.776C227.485 172.745 227.973 173.186 228.072 173.8L235.609 223.308L240.378 203.746C240.507 203.214 240.995 202.855 241.503 202.835C242.03 202.835 242.508 203.193 242.648 203.716L245.555 214.387L255.879 214.08L259.583 198.359C259.712 197.806 260.2 197.417 260.757 197.438C261.315 197.458 261.783 197.868 261.872 198.431L268.423 236.939L272.575 172.51C272.615 171.895 273.093 171.414 273.69 171.383C274.297 171.352 274.805 171.793 274.905 172.407L282.441 221.915L287.21 202.353C287.339 201.821 287.807 201.462 288.335 201.442C288.863 201.442 289.341 201.79 289.48 202.323L292.397 212.994L302.602 212.687L306.305 196.966C306.435 196.413 306.933 196.024 307.48 196.045C308.038 196.065 308.506 196.485 308.595 197.038L315.146 235.546L319.328 171.127C319.367 170.513 319.845 170.031 320.443 170.001C321.06 169.97 321.558 170.41 321.657 171.025L329.194 220.532L333.963 200.971C334.092 200.438 334.53 200.08 335.088 200.059C335.615 200.059 336.093 200.408 336.233 200.94L339.15 211.612L364.796 210.854C365.443 210.833 365.981 211.356 366.001 212.021C366.02 212.687 365.513 213.24 364.866 213.261L338.303 214.049C337.766 214.059 337.288 213.701 337.139 213.168L335.177 205.958L330.08 226.872C329.94 227.425 329.463 227.804 328.885 227.783C328.328 227.752 327.87 227.332 327.78 226.759L320.98 182.106L316.878 245.716C316.839 246.32 316.361 246.812 315.773 246.842C315.773 246.842 315.753 246.842 315.743 246.842H315.733Z" fill="#76A5FF"></path></g><path d="M48.3401 423.316L36.4785 442.622L24.6169 461.927C20.8275 468.109 22.752 476.194 28.9343 479.983C35.1165 483.773 43.2012 481.848 46.9906 475.666L58.8521 456.361L70.7137 437.055C74.5031 430.873 72.5786 422.789 66.3964 418.999C60.2141 415.21 52.1295 417.134 48.3401 423.316Z" fill="#9FC0FF"></path><path d="M24.605 461.945C20.8156 468.127 22.7401 476.212 28.9224 480.001C35.1046 483.79 43.1893 481.866 46.9787 475.684L58.8402 456.378L36.4666 442.639L24.605 461.945Z" fill="#76A5FF"></path><g clip-path="url(#clip1_34301_106098)"><path fill-rule="evenodd" clip-rule="evenodd" d="M432.523 116.819C418.856 141.154 393.773 157.613 384 162.993L384 35L430.504 50.983C432.004 51.4931 433 52.8601 433 54.4585L433 115.017C433 115.697 432.83 116.241 432.523 116.826L432.523 116.819Z" fill="white"></path><path fill-rule="evenodd" clip-rule="evenodd" d="M335.477 116.819C349.178 141.154 374.227 157.613 384 162.993L384 35L337.496 50.983C335.996 51.4931 335 52.8601 335 54.4585L335 115.017C335 115.697 335.17 116.241 335.477 116.826L335.477 116.819Z" fill="white"></path><path fill-rule="evenodd" clip-rule="evenodd" d="M384 43.9639L345.966 57.0155C344.465 57.5256 343.504 58.8927 343.504 60.491L343.504 112.732C343.504 113.446 343.674 114.024 344.015 114.643C353.106 129.674 368.757 143.949 383.993 153.22L383.993 43.9639L384 43.9639Z" fill="#3D7FFC"></path><path fill-rule="evenodd" clip-rule="evenodd" d="M424.496 112.732L424.496 60.491C424.496 58.8859 423.541 57.5256 422.034 57.0155L384 43.9639L384 153.22C399.242 143.949 414.894 129.674 423.977 114.643C424.318 114.031 424.489 113.452 424.489 112.732L424.496 112.732Z" fill="#3D7FFC"></path><path fill-rule="evenodd" clip-rule="evenodd" d="M377.166 67L390.833 67C391.549 67 392.095 67.5781 392.095 68.2582L392.095 83.7651C392.095 84.4453 392.674 85.0234 393.356 85.0234L408.905 85.0234C409.587 85.0234 410.167 85.5675 410.167 86.2816L410.167 99.9114C410.167 100.592 409.587 101.17 408.905 101.17L393.356 101.17C392.674 101.17 392.095 101.748 392.095 102.428L392.095 117.935C392.095 118.615 391.549 119.159 390.833 119.159L377.166 119.159C376.45 119.159 375.904 118.615 375.904 117.935L375.904 102.428C375.904 101.748 375.325 101.17 374.643 101.17L359.094 101.17C358.412 101.17 357.832 100.592 357.832 99.9114L357.832 86.2816C357.832 85.5675 358.412 85.0234 359.094 85.0234L374.643 85.0234C375.325 85.0234 375.904 84.4453 375.904 83.7651L375.904 68.2582C375.904 67.5781 376.45 67 377.166 67Z" fill="white"></path></g><path d="M668.232 86.5031L660.735 71.4288L653.238 56.3545C650.834 51.5329 644.981 49.5633 640.16 51.9677C635.338 54.372 633.368 60.2245 635.773 65.0461L643.27 80.1204L650.767 95.1947C653.171 100.016 659.023 101.986 663.845 99.5815C668.667 97.1771 670.636 91.3247 668.232 86.5031Z" fill="#9FC0FF"></path><path d="M653.233 56.3409C650.829 51.5193 644.976 49.5497 640.154 51.9541C635.333 54.3584 633.363 60.2109 635.768 65.0325L643.265 80.1067L660.73 71.4152L653.233 56.3409Z" fill="#76A5FF"></path><g clip-path="url(#clip2_34301_106098)"><path d="M593.836 469.907V459.658C607.751 459.658 620.485 452.592 627.89 440.765L651.465 403.392C659.765 390.15 655.806 372.568 642.633 364.202L605 340.31L610.444 331.647L648.077 355.54C665.989 366.917 671.386 390.829 660.098 408.842L636.523 446.215C627.233 461.044 611.272 469.897 593.836 469.897V469.907Z" fill="#091B36"></path><path d="M533.002 451.209L557.672 460.603L558.552 458.269L533.882 448.875L533.002 451.209Z" fill="#091B36"></path><path d="M543.109 455.374L543.214 455.087L563.192 462.831C564.724 463.424 566.371 462.286 566.371 460.642C566.371 459.342 567.417 458.29 568.712 458.29H593.839V482.632H566.38V481.092C566.38 478.176 564.591 475.557 561.878 474.505L549.41 469.677C543.737 467.478 540.92 461.082 543.109 455.383V455.374Z" fill="#3D7FFC"></path><path d="M622.345 320.187L632.527 302.954L613.49 291.604L603.308 308.837L622.345 320.187Z" fill="#091B36"></path><path d="M558.818 426.277L569 409.044L549.963 397.694L539.781 414.926L558.818 426.277Z" fill="#091B36"></path><path d="M628.499 302.276L632.201 296.004C634.248 292.543 633.115 288.069 629.66 286.013C626.215 283.958 621.76 285.096 619.714 288.566L616.012 294.838L628.489 302.276H628.499Z" fill="#091B36"></path><path d="M630.159 318.883L570.078 420.57C568.844 422.658 566.157 423.346 564.078 422.107L541.456 408.619C539.377 407.38 538.692 404.681 539.926 402.593L600.006 300.906C601.561 298.275 604.952 297.406 607.571 298.967L628.237 311.289C630.856 312.85 631.721 316.257 630.167 318.888L630.159 318.883Z" fill="#3D7FFC"></path><path d="M574.449 470.471C574.449 473.607 576.981 476.15 580.103 476.15C583.225 476.15 585.756 473.607 585.756 470.471C585.756 467.335 583.225 464.792 580.103 464.792C576.981 464.792 574.449 467.335 574.449 470.471Z" fill="#C6DBFF"></path><path d="M625.883 493.99H534.37V490.128C534.37 485.988 537.711 482.632 541.832 482.632H618.421C622.542 482.632 625.883 485.988 625.883 490.128V493.99Z" fill="#091B36"></path></g><path d="M411.96 169.997C411.96 167.917 410.192 167.059 408.827 167.059C408.242 167.059 407.904 167.137 407.631 167.254L407.891 165.642H411.622V164.03H406.37L405.681 168.411L406.591 168.957C406.994 168.671 407.644 168.489 408.229 168.489C409.035 168.489 409.919 168.931 409.919 169.997C409.919 171.076 408.996 171.518 408.229 171.518C407.462 171.518 406.526 171.128 406.032 170.439L405.07 171.674C405.486 172.324 406.578 173.143 408.372 173.143C410.153 173.143 411.96 172.09 411.96 169.997ZM420.669 168.528C420.669 166.162 419.564 163.9 416.951 163.9C414.338 163.9 413.233 166.162 413.233 168.528C413.233 170.894 414.325 173.156 416.951 173.156C419.564 173.156 420.669 170.894 420.669 168.528ZM418.602 168.489C418.602 170.101 418.108 171.349 416.951 171.349C415.794 171.349 415.3 170.101 415.3 168.489C415.3 166.877 415.794 165.655 416.951 165.655C418.108 165.655 418.602 166.877 418.602 168.489ZM431.979 170.842C431.979 169.438 431.017 168.515 429.652 168.515C428.287 168.515 427.325 169.438 427.325 170.842C427.325 172.246 428.287 173.169 429.652 173.169C431.017 173.169 431.979 172.246 431.979 170.842ZM430.133 164.329L429.249 163.796L423.659 172.779L424.556 173.312L430.133 164.329ZM426.467 166.266C426.467 164.862 425.505 163.939 424.14 163.939C422.788 163.939 421.813 164.862 421.813 166.266C421.813 167.67 422.788 168.606 424.14 168.606C425.505 168.606 426.467 167.67 426.467 166.266ZM430.627 170.816C430.627 171.479 430.289 171.947 429.652 171.947C429.028 171.947 428.69 171.479 428.69 170.816C428.69 170.166 429.028 169.698 429.652 169.698C430.289 169.698 430.627 170.166 430.627 170.816ZM425.128 166.253C425.128 166.903 424.777 167.384 424.14 167.384C423.516 167.384 423.191 166.903 423.191 166.253C423.191 165.59 423.516 165.122 424.14 165.122C424.777 165.122 425.128 165.59 425.128 166.253Z" fill="#76A5FF"></path><path d="M553.97 168.528C553.97 166.162 552.865 163.9 550.252 163.9C547.639 163.9 546.534 166.162 546.534 168.528C546.534 170.894 547.626 173.156 550.252 173.156C552.865 173.156 553.97 170.894 553.97 168.528ZM551.903 168.489C551.903 170.101 551.409 171.349 550.252 171.349C549.095 171.349 548.601 170.101 548.601 168.489C548.601 166.877 549.095 165.655 550.252 165.655C551.409 165.655 551.903 166.877 551.903 168.489ZM565.28 170.842C565.28 169.438 564.318 168.515 562.953 168.515C561.588 168.515 560.626 169.438 560.626 170.842C560.626 172.246 561.588 173.169 562.953 173.169C564.318 173.169 565.28 172.246 565.28 170.842ZM563.434 164.329L562.55 163.796L556.96 172.779L557.857 173.312L563.434 164.329ZM559.768 166.266C559.768 164.862 558.806 163.939 557.441 163.939C556.089 163.939 555.114 164.862 555.114 166.266C555.114 167.67 556.089 168.606 557.441 168.606C558.806 168.606 559.768 167.67 559.768 166.266ZM563.928 170.816C563.928 171.479 563.59 171.947 562.953 171.947C562.329 171.947 561.991 171.479 561.991 170.816C561.991 170.166 562.329 169.698 562.953 169.698C563.59 169.698 563.928 170.166 563.928 170.816ZM558.429 166.253C558.429 166.903 558.078 167.384 557.441 167.384C556.817 167.384 556.492 166.903 556.492 166.253C556.492 165.59 556.817 165.122 557.441 165.122C558.078 165.122 558.429 165.59 558.429 166.253Z" fill="#76A5FF"></path><path d="M547.514 204.424C547.514 203.033 547.176 202.019 546.734 201.395C546.214 200.654 545.278 199.9 543.848 199.9C541.755 199.9 540.494 201.33 540.494 203.098C540.494 204.879 541.872 205.854 543.263 205.854C544.654 205.854 545.304 205.23 545.512 204.853C545.512 205.854 545.239 206.569 544.823 206.998C544.472 207.362 544.069 207.544 543.497 207.544C542.548 207.544 541.716 207.076 541.534 206.894L540.78 208.259C541.157 208.558 542.119 209.143 543.575 209.143C544.758 209.143 545.668 208.727 546.305 208.051C547.059 207.258 547.514 206.01 547.514 204.424ZM545.369 202.916C545.369 203.696 544.836 204.398 543.926 204.398C543.016 204.398 542.496 203.696 542.496 202.916C542.496 202.123 543.016 201.434 543.926 201.434C544.836 201.434 545.369 202.123 545.369 202.916ZM552.909 209V200.03H549.256V201.473H550.881V209H552.909ZM565.451 206.842C565.451 205.438 564.489 204.515 563.124 204.515C561.759 204.515 560.797 205.438 560.797 206.842C560.797 208.246 561.759 209.169 563.124 209.169C564.489 209.169 565.451 208.246 565.451 206.842ZM563.605 200.329L562.721 199.796L557.131 208.779L558.028 209.312L563.605 200.329ZM559.939 202.266C559.939 200.862 558.977 199.939 557.612 199.939C556.26 199.939 555.285 200.862 555.285 202.266C555.285 203.67 556.26 204.606 557.612 204.606C558.977 204.606 559.939 203.67 559.939 202.266ZM564.099 206.816C564.099 207.479 563.761 207.947 563.124 207.947C562.5 207.947 562.162 207.479 562.162 206.816C562.162 206.166 562.5 205.698 563.124 205.698C563.761 205.698 564.099 206.166 564.099 206.816ZM558.6 202.253C558.6 202.903 558.249 203.384 557.612 203.384C556.988 203.384 556.663 202.903 556.663 202.253C556.663 201.59 556.988 201.122 557.612 201.122C558.249 201.122 558.6 201.59 558.6 202.253Z" fill="#76A5FF"></path><path d="M544.511 244V235.03H540.858V236.473H542.483V244H544.511ZM553.998 240.945C553.998 239.177 552.633 238.202 551.242 238.202C549.851 238.202 549.227 238.852 548.98 239.125C548.98 238.137 549.318 237.396 549.695 237.019C550.046 236.681 550.436 236.486 551.021 236.486C551.749 236.486 552.516 236.811 552.945 237.149L553.712 235.771C553.062 235.316 552.152 234.9 550.93 234.9C549.747 234.9 548.876 235.277 548.187 236.005C547.446 236.772 546.991 238.02 546.991 239.632C546.991 241.075 547.316 242.024 547.758 242.648C548.226 243.324 549.136 244.143 550.644 244.143C552.737 244.143 553.998 242.713 553.998 240.945ZM552.009 241.088C552.009 241.881 551.489 242.57 550.579 242.57C549.656 242.57 549.123 241.881 549.123 241.088C549.123 240.308 549.656 239.606 550.579 239.606C551.489 239.606 552.009 240.308 552.009 241.088ZM565.451 241.842C565.451 240.438 564.489 239.515 563.124 239.515C561.759 239.515 560.797 240.438 560.797 241.842C560.797 243.246 561.759 244.169 563.124 244.169C564.489 244.169 565.451 243.246 565.451 241.842ZM563.605 235.329L562.721 234.796L557.131 243.779L558.028 244.312L563.605 235.329ZM559.939 237.266C559.939 235.862 558.977 234.939 557.612 234.939C556.26 234.939 555.285 235.862 555.285 237.266C555.285 238.67 556.26 239.606 557.612 239.606C558.977 239.606 559.939 238.67 559.939 237.266ZM564.099 241.816C564.099 242.479 563.761 242.947 563.124 242.947C562.5 242.947 562.162 242.479 562.162 241.816C562.162 241.166 562.5 240.698 563.124 240.698C563.761 240.698 564.099 241.166 564.099 241.816ZM558.6 237.253C558.6 237.903 558.249 238.384 557.612 238.384C556.988 238.384 556.663 237.903 556.663 237.253C556.663 236.59 556.988 236.122 557.612 236.122C558.249 236.122 558.6 236.59 558.6 237.253Z" fill="#76A5FF"></path><path d="M413.986 206.465C413.986 205.373 413.349 204.632 412.374 204.333V204.294C413.024 204.073 413.726 203.54 413.726 202.37C413.726 200.745 412.257 199.9 410.554 199.9C408.838 199.9 407.369 200.745 407.369 202.37C407.369 203.527 408.084 204.06 408.734 204.294V204.32C407.746 204.632 407.122 205.373 407.122 206.465C407.122 208.246 408.682 209.143 410.554 209.143C412.426 209.143 413.986 208.246 413.986 206.465ZM411.737 202.526C411.737 203.215 411.243 203.605 410.554 203.605C409.852 203.605 409.371 203.215 409.371 202.526C409.371 201.824 409.852 201.434 410.554 201.434C411.243 201.434 411.737 201.824 411.737 202.526ZM411.945 206.27C411.945 207.076 411.321 207.544 410.554 207.544C409.787 207.544 409.163 207.076 409.163 206.27C409.163 205.464 409.761 204.996 410.554 204.996C411.334 204.996 411.945 205.464 411.945 206.27ZM422.669 204.528C422.669 202.162 421.564 199.9 418.951 199.9C416.338 199.9 415.233 202.162 415.233 204.528C415.233 206.894 416.325 209.156 418.951 209.156C421.564 209.156 422.669 206.894 422.669 204.528ZM420.602 204.489C420.602 206.101 420.108 207.349 418.951 207.349C417.794 207.349 417.3 206.101 417.3 204.489C417.3 202.877 417.794 201.655 418.951 201.655C420.108 201.655 420.602 202.877 420.602 204.489ZM433.979 206.842C433.979 205.438 433.017 204.515 431.652 204.515C430.287 204.515 429.325 205.438 429.325 206.842C429.325 208.246 430.287 209.169 431.652 209.169C433.017 209.169 433.979 208.246 433.979 206.842ZM432.133 200.329L431.249 199.796L425.659 208.779L426.556 209.312L432.133 200.329ZM428.467 202.266C428.467 200.862 427.505 199.939 426.14 199.939C424.788 199.939 423.813 200.862 423.813 202.266C423.813 203.67 424.788 204.606 426.14 204.606C427.505 204.606 428.467 203.67 428.467 202.266ZM432.627 206.816C432.627 207.479 432.289 207.947 431.652 207.947C431.028 207.947 430.69 207.479 430.69 206.816C430.69 206.166 431.028 205.698 431.652 205.698C432.289 205.698 432.627 206.166 432.627 206.816ZM427.128 202.253C427.128 202.903 426.777 203.384 426.14 203.384C425.516 203.384 425.191 202.903 425.191 202.253C425.191 201.59 425.516 201.122 426.14 201.122C426.777 201.122 427.128 201.59 427.128 202.253Z" fill="#76A5FF"></path><path d="M414.704 244V242.375H410.544L412.403 240.698C413.118 240.061 414.288 239.125 414.288 237.552C414.288 235.979 413.053 234.9 411.025 234.9C408.997 234.9 407.892 236.109 407.775 236.382L408.659 237.76C409.153 237.136 409.933 236.551 410.83 236.551C411.714 236.551 412.273 237.045 412.273 237.812C412.273 238.579 411.766 239.164 410.921 239.931L407.879 242.674L408.126 244H414.704ZM423.133 242.206V240.581H421.937V235.004H419.61L415.541 240.672V242.206H419.909V244H421.937V242.206H423.133ZM419.961 240.62H417.452L419.961 237.149V240.62ZM434.352 241.842C434.352 240.438 433.39 239.515 432.025 239.515C430.66 239.515 429.698 240.438 429.698 241.842C429.698 243.246 430.66 244.169 432.025 244.169C433.39 244.169 434.352 243.246 434.352 241.842ZM432.506 235.329L431.622 234.796L426.032 243.779L426.929 244.312L432.506 235.329ZM428.84 237.266C428.84 235.862 427.878 234.939 426.513 234.939C425.161 234.939 424.186 235.862 424.186 237.266C424.186 238.67 425.161 239.606 426.513 239.606C427.878 239.606 428.84 238.67 428.84 237.266ZM433 241.816C433 242.479 432.662 242.947 432.025 242.947C431.401 242.947 431.063 242.479 431.063 241.816C431.063 241.166 431.401 240.698 432.025 240.698C432.662 240.698 433 241.166 433 241.816ZM427.501 237.253C427.501 237.903 427.15 238.384 426.513 238.384C425.889 238.384 425.564 237.903 425.564 237.253C425.564 236.59 425.889 236.122 426.513 236.122C427.15 236.122 427.501 236.59 427.501 237.253Z" fill="#76A5FF"></path><g opacity="0.4"><circle cx="34.0173" cy="222.017" r="32.5173" fill="#FECE4D" stroke="white" stroke-width="3"></circle><path d="M30.9773 236.555C28.9902 236.555 27.2548 236.296 25.7711 235.779C24.283 235.26 23.0454 234.534 22.0451 233.608C21.0455 232.683 20.2659 231.546 19.7639 230.28C19.245 228.993 18.9574 227.577 18.9141 226.038H23.9478C24.0351 227.026 24.2728 227.884 24.6728 228.611C25.0442 229.313 25.5597 229.929 26.1856 230.418C26.8087 230.902 27.5199 231.259 28.2794 231.469C29.0982 231.701 29.9454 231.817 30.7963 231.814C31.5729 231.821 32.3476 231.733 33.1027 231.551C33.7988 231.382 34.3964 231.144 34.8907 230.831C35.3571 230.546 35.749 230.153 36.034 229.686C36.3031 229.225 36.4415 228.7 36.434 228.166C36.434 227.59 36.3034 227.102 36.0404 226.696C35.7775 226.29 35.3528 225.933 34.7718 225.613C34.1908 225.294 33.4149 225.007 32.4654 224.744C31.516 224.481 30.34 224.212 28.9461 223.93C27.3582 223.573 25.9914 223.16 24.8458 222.692C23.7002 222.223 22.7563 221.666 22.0141 221.021C21.3043 220.419 20.7437 219.66 20.3765 218.804C20.0199 217.966 19.8448 217.003 19.8448 215.914C19.8448 214.744 20.0886 213.666 20.5763 212.679C21.072 211.686 21.7832 210.816 22.6577 210.133C23.5515 209.42 24.6268 208.863 25.8707 208.457C27.1147 208.051 28.5022 207.85 30.0273 207.85C31.6152 207.85 33.0655 208.067 34.3782 208.5C35.6907 208.938 36.8217 209.557 37.7717 210.371C38.7293 211.192 39.4954 212.213 40.016 213.362C40.5601 214.538 40.8476 215.877 40.8846 217.366H35.9044C35.5413 214.2 33.6314 212.617 30.1746 212.617C28.4931 212.617 27.2052 212.905 26.3115 213.468C25.4177 214.031 24.9727 214.819 24.9727 215.807C24.9648 216.179 25.0671 216.545 25.2667 216.859C25.4606 217.159 25.7729 217.434 26.2038 217.685C26.629 217.935 27.1795 218.167 27.8478 218.373C28.5161 218.578 29.336 218.779 30.2859 218.98C31.1176 219.149 31.9674 219.336 32.8424 219.549C33.7091 219.755 34.5646 220.005 35.4053 220.3C36.2232 220.586 37.0139 220.944 37.768 221.371C38.4916 221.781 39.1491 222.298 39.7182 222.904C40.2905 223.518 40.7402 224.236 41.0431 225.019C41.3679 225.832 41.5306 226.783 41.5309 227.872C41.5309 229.154 41.2683 230.326 40.7432 231.388C40.2195 232.448 39.4733 233.383 38.5557 234.128C37.6175 234.891 36.5026 235.487 35.2109 235.918C33.9193 236.348 32.5081 236.56 30.9773 236.555Z" fill="white"></path><path fill-rule="evenodd" clip-rule="evenodd" d="M28.2691 204.85H32.1665C32.2958 204.85 32.4197 204.901 32.5111 204.993C32.6025 205.084 32.654 205.208 32.6543 205.338V210.942H27.7812V205.338C27.7817 205.209 27.8332 205.085 27.9246 204.993C28.016 204.902 28.1398 204.85 28.2691 204.85ZM32.6565 233.916V239.073C32.6562 239.202 32.6047 239.326 32.5133 239.418C32.4218 239.509 32.2979 239.561 32.1686 239.561H28.2691C28.1398 239.561 28.016 239.509 27.9246 239.418C27.8332 239.326 27.7817 239.202 27.7812 239.073V233.916H32.6565Z" fill="white"></path></g><g opacity="0.7"><circle cx="39.0407" cy="232.62" r="32.5173" fill="#FECE4D" stroke="white" stroke-width="3"></circle><path d="M39.9968 246.274C38.0097 246.274 36.2744 246.015 34.7907 245.498C33.3025 244.979 32.065 244.252 31.0647 243.326C30.065 242.402 29.2854 241.265 28.7834 239.998C28.2645 238.712 27.977 237.295 27.9336 235.757H32.9673C33.0546 236.745 33.2923 237.602 33.6924 238.329C34.0637 239.032 34.5792 239.648 35.2052 240.137C35.8282 240.62 36.5394 240.977 37.299 241.188C38.1178 241.42 38.9649 241.536 39.8158 241.532C40.5925 241.54 41.3671 241.452 42.1222 241.27C42.8184 241.101 43.416 240.863 43.9102 240.55C44.3767 240.264 44.7686 239.872 45.0535 239.405C45.3227 238.944 45.461 238.419 45.4536 237.885C45.4536 237.309 45.3229 236.821 45.06 236.415C44.797 236.008 44.3724 235.651 43.7914 235.332C43.2103 235.013 42.4344 234.725 41.485 234.463C40.5355 234.2 39.3596 233.93 37.9657 233.649C36.3777 233.292 35.0109 232.879 33.8653 232.41C32.7197 231.942 31.7758 231.385 31.0336 230.74C30.3238 230.138 29.7633 229.379 29.396 228.523C29.0394 227.685 28.8643 226.721 28.8643 225.633C28.8643 224.463 29.1081 223.384 29.5958 222.398C30.0916 221.405 30.8027 220.535 31.6773 219.852C32.571 219.139 33.6463 218.582 34.8903 218.176C36.1342 217.769 37.5217 217.568 39.0468 217.568C40.6348 217.568 42.0851 217.785 43.3978 218.219C44.7103 218.657 45.8413 219.276 46.7912 220.09C47.7488 220.91 48.5149 221.931 49.0355 223.08C49.5796 224.256 49.8671 225.595 49.9041 227.084H44.9239C44.5609 223.919 42.6509 222.336 39.1941 222.335C37.5126 222.335 36.2247 222.624 35.331 223.187C34.4372 223.749 33.9922 224.538 33.9922 225.526C33.9843 225.898 34.0866 226.264 34.2862 226.578C34.4801 226.878 34.7925 227.153 35.2234 227.404C35.6485 227.653 36.199 227.886 36.8673 228.091C37.5356 228.297 38.3555 228.498 39.3055 228.699C40.1371 228.867 40.9869 229.055 41.862 229.268C42.7287 229.473 43.5841 229.724 44.4249 230.018C45.2427 230.304 46.0334 230.663 46.7875 231.09C47.5111 231.5 48.1687 232.017 48.7378 232.623C49.31 233.237 49.7597 233.955 50.0626 234.738C50.3875 235.551 50.5501 236.502 50.5504 237.591C50.5504 238.873 50.2879 240.045 49.7627 241.107C49.239 242.167 48.4929 243.102 47.5752 243.847C46.637 244.61 45.5221 245.206 44.2305 245.636C42.9388 246.067 41.5276 246.279 39.9968 246.274Z" fill="white"></path><path fill-rule="evenodd" clip-rule="evenodd" d="M37.2886 214.567H41.186C41.3153 214.568 41.4392 214.619 41.5306 214.711C41.6221 214.802 41.6736 214.926 41.6738 215.056V220.659H36.8008V215.056C36.8012 214.926 36.8527 214.802 36.9441 214.711C37.0355 214.619 37.1594 214.568 37.2886 214.567ZM41.676 243.634V248.791C41.6757 248.92 41.6242 249.044 41.5328 249.136C41.4414 249.227 41.3174 249.279 41.1881 249.279H37.2886C37.1594 249.279 37.0355 249.227 36.9441 249.135C36.8527 249.044 36.8012 248.92 36.8008 248.791V243.634H41.676Z" fill="white"></path></g><circle cx="44.4755" cy="241.471" r="32.4247" fill="#FECE4D" stroke="white" stroke-width="3"></circle><path d="M45.9109 256.465C43.9238 256.465 42.1884 256.206 40.7047 255.689C39.2166 255.17 37.979 254.444 36.9787 253.518C35.979 252.593 35.1995 251.456 34.6975 250.19C34.1786 248.903 33.891 247.487 33.8477 245.948H38.8814C38.9686 246.936 39.2064 247.794 39.6064 248.521C39.9778 249.223 40.4933 249.839 41.1192 250.329C41.7423 250.812 42.4535 251.169 43.213 251.38C44.0318 251.611 44.879 251.727 45.7299 251.724C46.5065 251.731 47.2812 251.643 48.0363 251.461C48.7324 251.292 49.33 251.054 49.8243 250.741C50.2907 250.456 50.6826 250.063 50.9676 249.596C51.2367 249.136 51.3751 248.61 51.3676 248.076C51.3676 247.5 51.237 247.012 50.974 246.606C50.7111 246.2 50.2864 245.843 49.7054 245.523C49.1244 245.204 48.3485 244.917 47.399 244.654C46.4496 244.391 45.2736 244.122 43.8797 243.84C42.2918 243.483 40.925 243.07 39.7794 242.602C38.6338 242.133 37.6899 241.577 36.9477 240.932C36.2379 240.329 35.6773 239.57 35.3101 238.714C34.9535 237.877 34.7784 236.913 34.7784 235.824C34.7784 234.654 35.0222 233.576 35.5099 232.59C36.0056 231.596 36.7168 230.726 37.5913 230.043C38.4851 229.33 39.5604 228.773 40.8043 228.367C42.0483 227.961 43.4358 227.76 44.9609 227.76C46.5488 227.76 47.9991 227.977 49.3118 228.41C50.6243 228.848 51.7553 229.467 52.7053 230.281C53.6629 231.102 54.4289 232.123 54.9496 233.272C55.4936 234.448 55.7812 235.787 55.8182 237.276H50.838C50.4749 234.11 48.565 232.527 45.1082 232.527C43.4267 232.527 42.1388 232.815 41.2451 233.378C40.3513 233.941 39.9063 234.729 39.9063 235.718C39.8984 236.089 40.0007 236.455 40.2003 236.769C40.3941 237.069 40.7065 237.345 41.1374 237.595C41.5626 237.845 42.1131 238.078 42.7814 238.283C43.4497 238.488 44.2696 238.69 45.2195 238.89C46.0512 239.059 46.901 239.246 47.776 239.459C48.6427 239.665 49.4982 239.915 50.3389 240.21C51.1568 240.496 51.9475 240.855 52.7015 241.282C53.4252 241.691 54.0827 242.208 54.6518 242.815C55.2241 243.429 55.6737 244.146 55.9767 244.93C56.3015 245.742 56.4641 246.693 56.4645 247.782C56.4645 249.065 56.2019 250.237 55.6768 251.298C55.1531 252.359 54.4069 253.293 53.4893 254.039C52.5511 254.801 51.4362 255.398 50.1445 255.828C48.8529 256.258 47.4417 256.47 45.9109 256.465Z" fill="white"></path><path fill-rule="evenodd" clip-rule="evenodd" d="M43.2027 224.76H47.1001C47.2294 224.76 47.3533 224.812 47.4447 224.903C47.5361 224.995 47.5876 225.119 47.5879 225.248V230.852H42.7148V225.248C42.7153 225.119 42.7668 224.995 42.8582 224.903C42.9496 224.812 43.0734 224.76 43.2027 224.76ZM47.59 253.826V258.983C47.5898 259.112 47.5383 259.236 47.4468 259.328C47.3554 259.419 47.2315 259.471 47.1022 259.471H43.2027C43.0734 259.471 42.9496 259.419 42.8582 259.328C42.7668 259.236 42.7153 259.112 42.7148 258.983V253.826H47.59Z" fill="white"></path><path d="M141 352H463" stroke="#F5F8FF"></path><rect x="138.156" y="303.232" width="27.134" height="24.6672" rx="3" fill="#A5A6F6"></rect><rect x="172.637" y="303.232" width="59.6464" height="8.13361" rx="4" fill="#E7EEFF"></rect><rect x="172.637" y="319.503" width="132.849" height="8.13361" rx="4" fill="#E7EEFF"></rect><rect x="321.277" y="303.232" width="27.134" height="24.6672" rx="3" fill="#FECE4D"></rect><rect x="355.676" y="303.232" width="104.209" height="8.09387" rx="4" fill="#E7EEFF"></rect><rect x="355.676" y="319.42" width="73.8566" height="8.09387" rx="4" fill="#E7EEFF"></rect><rect x="140" y="371" width="25" height="87" rx="12.5" fill="#C6DBFF"></rect><rect x="140" y="406" width="25" height="52" rx="12.5" fill="#76A5FF"></rect><rect x="183" y="371" width="26" height="87" rx="13" fill="#C6DBFF"></rect><rect x="225" y="371" width="26" height="87" rx="13" fill="#C6DBFF"></rect><rect x="269" y="371" width="25" height="87" rx="12.5" fill="#C6DBFF"></rect><rect x="312" y="371" width="25" height="87" rx="12.5" fill="#C6DBFF"></rect><rect x="354" y="371" width="26" height="87" rx="13" fill="#C6DBFF"></rect><rect x="440" y="371" width="26" height="87" rx="13" fill="#C6DBFF"></rect><rect x="521" y="232" width="12" height="79" rx="6" transform="rotate(90 521 232)" fill="#C6DBFF"></rect><rect x="521" y="197" width="12" height="79" rx="6" transform="rotate(90 521 197)" fill="#C6DBFF"></rect><rect x="521" y="162" width="11" height="79" rx="5.5" transform="rotate(90 521 162)" fill="#C6DBFF"></rect><rect x="651" y="162" width="11" height="78" rx="5.5" transform="rotate(90 651 162)" fill="#C6DBFF"></rect><rect x="651" y="197" width="12" height="78" rx="6" transform="rotate(90 651 197)" fill="#C6DBFF"></rect><rect x="651" y="232" width="12" height="78" rx="6" transform="rotate(90 651 232)" fill="#C6DBFF"></rect><rect x="476" y="232" width="12" height="34" rx="6" transform="rotate(90 476 232)" fill="#76A5FF"></rect><rect x="503" y="197" width="12" height="61" rx="6" transform="rotate(90 503 197)" fill="#76A5FF"></rect><rect x="484" y="162" width="11" height="42" rx="5.5" transform="rotate(90 484 162)" fill="#76A5FF"></rect><rect x="614" y="162" width="11" height="41" rx="5.5" transform="rotate(90 614 162)" fill="#76A5FF"></rect><rect x="637" y="197" width="12" height="64" rx="6" transform="rotate(90 637 197)" fill="#76A5FF"></rect><rect x="591" y="232" width="12" height="18" rx="6" transform="rotate(90 591 232)" fill="#76A5FF"></rect><rect x="397" y="371" width="26" height="87" rx="13" fill="#C6DBFF"></rect><rect x="183" y="393" width="26" height="65" rx="13" fill="#76A5FF"></rect><rect x="225" y="425" width="26" height="33" rx="13" fill="#76A5FF"></rect><rect x="269" y="403" width="25" height="55" rx="12.5" fill="#76A5FF"></rect><rect x="312" y="415" width="25" height="43" rx="12.5" fill="#76A5FF"></rect><rect x="354" y="415" width="26" height="43" rx="13" fill="#76A5FF"></rect><rect x="397" y="403" width="26" height="55" rx="13" fill="#76A5FF"></rect><rect x="440" y="425" width="26" height="33" rx="13" fill="#76A5FF"></rect><defs><filter id="filter0_dd_34301_106098" x="27.1579" y="0.472346" width="679.623" height="524.16" filterUnits="userSpaceOnUse" color-interpolation-filters="sRGB"><feFlood flood-opacity="0" result="BackgroundImageFix"></feFlood><feColorMatrix in="SourceAlpha" type="matrix" values="0 0 0 0 0 0 0 0 0 0 0 0 0 0 0 0 0 0 127 0" result="hardAlpha"></feColorMatrix><feOffset dx="10.7566" dy="10.7566"></feOffset><feGaussianBlur stdDeviation="39.7993"></feGaussianBlur><feColorMatrix type="matrix" values="0 0 0 0 0 0 0 0 0 0.0486432 0 0 0 0 0.221106 0 0 0 0.1 0"></feColorMatrix><feBlend mode="normal" in2="BackgroundImageFix" result="effect1_dropShadow_34301_106098"></feBlend><feColorMatrix in="SourceAlpha" type="matrix" values="0 0 0 0 0 0 0 0 0 0 0 0 0 0 0 0 0 0 127 0" result="hardAlpha"></feColorMatrix><feOffset dy="0.717105"></feOffset><feGaussianBlur stdDeviation="5.01974"></feGaussianBlur><feComposite in2="hardAlpha" operator="out"></feComposite><feColorMatrix type="matrix" values="0 0 0 0 0.0354167 0 0 0 0 0.105426 0 0 0 0 0.2125 0 0 0 0.04 0"></feColorMatrix><feBlend mode="normal" in2="effect1_dropShadow_34301_106098" result="effect2_dropShadow_34301_106098"></feBlend><feBlend mode="normal" in="SourceGraphic" in2="effect2_dropShadow_34301_106098" result="shape"></feBlend></filter><filter id="filter1_dd_34301_106098" x="106" y="131" width="282" height="148" filterUnits="userSpaceOnUse" color-interpolation-filters="sRGB"><feFlood flood-opacity="0" result="BackgroundImageFix"></feFlood><feColorMatrix in="SourceAlpha" type="matrix" values="0 0 0 0 0 0 0 0 0 0 0 0 0 0 0 0 0 0 127 0" result="hardAlpha"></feColorMatrix><feOffset dy="4"></feOffset><feGaussianBlur stdDeviation="5"></feGaussianBlur><feColorMatrix type="matrix" values="0 0 0 0 0.607843 0 0 0 0 0.67451 0 0 0 0 0.737255 0 0 0 0.35 0"></feColorMatrix><feBlend mode="normal" in2="BackgroundImageFix" result="effect1_dropShadow_34301_106098"></feBlend><feColorMatrix in="SourceAlpha" type="matrix" values="0 0 0 0 0 0 0 0 0 0 0 0 0 0 0 0 0 0 127 0" result="hardAlpha"></feColorMatrix><feOffset dy="2"></feOffset><feGaussianBlur stdDeviation="6"></feGaussianBlur><feColorMatrix type="matrix" values="0 0 0 0 0.89625 0 0 0 0 0.930414 0 0 0 0 0.995833 0 0 0 0.5 0"></feColorMatrix><feBlend mode="normal" in2="effect1_dropShadow_34301_106098" result="effect2_dropShadow_34301_106098"></feBlend><feBlend mode="normal" in="SourceGraphic" in2="effect2_dropShadow_34301_106098" result="shape"></feBlend></filter><filter id="filter2_dd_34301_106098" x="106" y="270" width="399" height="221" filterUnits="userSpaceOnUse" color-interpolation-filters="sRGB"><feFlood flood-opacity="0" result="BackgroundImageFix"></feFlood><feColorMatrix in="SourceAlpha" type="matrix" values="0 0 0 0 0 0 0 0 0 0 0 0 0 0 0 0 0 0 127 0" result="hardAlpha"></feColorMatrix><feOffset dy="4"></feOffset><feGaussianBlur stdDeviation="5"></feGaussianBlur><feColorMatrix type="matrix" values="0 0 0 0 0.607843 0 0 0 0 0.67451 0 0 0 0 0.737255 0 0 0 0.35 0"></feColorMatrix><feBlend mode="normal" in2="BackgroundImageFix" result="effect1_dropShadow_34301_106098"></feBlend><feColorMatrix in="SourceAlpha" type="matrix" values="0 0 0 0 0 0 0 0 0 0 0 0 0 0 0 0 0 0 127 0" result="hardAlpha"></feColorMatrix><feOffset dy="2"></feOffset><feGaussianBlur stdDeviation="6"></feGaussianBlur><feColorMatrix type="matrix" values="0 0 0 0 0.89625 0 0 0 0 0.930414 0 0 0 0 0.995833 0 0 0 0.5 0"></feColorMatrix><feBlend mode="normal" in2="effect1_dropShadow_34301_106098" result="effect2_dropShadow_34301_106098"></feBlend><feBlend mode="normal" in="SourceGraphic" in2="effect2_dropShadow_34301_106098" result="shape"></feBlend></filter><filter id="filter3_dd_34301_106098" x="378" y="131" width="300" height="148" filterUnits="userSpaceOnUse" color-interpolation-filters="sRGB"><feFlood flood-opacity="0" result="BackgroundImageFix"></feFlood><feColorMatrix in="SourceAlpha" type="matrix" values="0 0 0 0 0 0 0 0 0 0 0 0 0 0 0 0 0 0 127 0" result="hardAlpha"></feColorMatrix><feOffset dy="4"></feOffset><feGaussianBlur stdDeviation="5"></feGaussianBlur><feColorMatrix type="matrix" values="0 0 0 0 0.607843 0 0 0 0 0.67451 0 0 0 0 0.737255 0 0 0 0.35 0"></feColorMatrix><feBlend mode="normal" in2="BackgroundImageFix" result="effect1_dropShadow_34301_106098"></feBlend><feColorMatrix in="SourceAlpha" type="matrix" values="0 0 0 0 0 0 0 0 0 0 0 0 0 0 0 0 0 0 127 0" result="hardAlpha"></feColorMatrix><feOffset dy="2"></feOffset><feGaussianBlur stdDeviation="6"></feGaussianBlur><feColorMatrix type="matrix" values="0 0 0 0 0.89625 0 0 0 0 0.930414 0 0 0 0 0.995833 0 0 0 0.5 0"></feColorMatrix><feBlend mode="normal" in2="effect1_dropShadow_34301_106098" result="effect2_dropShadow_34301_106098"></feBlend><feBlend mode="normal" in="SourceGraphic" in2="effect2_dropShadow_34301_106098" result="shape"></feBlend></filter><clipPath id="clip0_34301_106098"><rect width="230" height="81" fill="white" transform="translate(136 170)"></rect></clipPath><clipPath id="clip1_34301_106098"><rect width="98" height="128" fill="white" transform="translate(335 35)"></rect></clipPath><clipPath id="clip2_34301_106098"><rect width="133" height="209" fill="white" transform="translate(533 285)"></rect></clipPath></defs></svg>