<svg width="588" height="588" viewBox="0 0 588 588" fill="none" xmlns="http://www.w3.org/2000/svg">
<g opacity="0.52">
<path d="M297.231 372.614C289.5 366.846 282.232 361.72 269.388 362.155C266.826 360.47 268.264 364.908 266.753 360.395C267.112 359.706 265.821 354.548 263.818 358.225C259.301 354.399 253.071 349.961 247.898 360.65C247.553 358.435 254.731 352.82 250.163 351.879C247.593 350.989 245.461 350.521 244.922 348.35C244.761 336.6 235.965 321.985 218.73 323.766C216.343 324.599 215.044 316.878 211.928 320.82C214.932 314.601 204.413 312.288 203.444 309.622C205.612 305.346 198.34 306.261 196.645 302.403C204.705 301.357 196.174 299.122 187.556 303.649C184.988 300.104 180.193 302.796 177.077 300.244C178.669 299.356 176.168 296.487 172.588 296.492C173.375 294.799 169.914 290.106 170.998 297.195C169.68 296.736 167.85 299.879 166.941 297.611C166.631 298.024 167.149 298.03 166.026 300.024C163.251 296.755 170.804 295.519 166.719 292.031C164.492 291.839 162.219 298.787 157.914 296.74C157.143 296.99 157.632 297.153 156.769 298.937C156.175 298.302 155.594 298.138 155.056 298.335C153.375 298.852 152.147 302.723 152.554 305.891C150.719 306.176 148.621 308.473 148.821 312.805C148.799 310.705 144.434 304.17 140.257 304.594C129.733 315.564 126.753 291.571 131.315 281.013C130.966 280.778 132.455 276.79 128.66 276.977C129.402 271.213 122.666 276.159 116.884 273.789C120.078 267.147 122.973 258.272 126.9 248.271C120.297 245.661 115.705 254.821 111.649 261.611C110.627 259.601 107.976 261.735 104.098 262.689C97.4706 252.586 103.76 221.345 118.246 214.047C118.015 214.026 117.803 214.023 117.6 213.993C118.681 213.284 118.412 214.141 119.698 211.695C119.694 212.093 119.621 211.926 119.751 212.723C121.641 210.025 124.34 214.284 126.56 211.821C126.784 212.499 126.521 216.871 128.977 214.032C129.159 214.265 129.448 215.711 130.11 214.442L129.999 214.487C130.282 213.954 130.229 214.564 130.218 213.121C130.779 214.987 133.328 217.81 131.741 212.565C131.363 212.468 133.652 212.097 132.713 210.966C134.041 208.863 135.613 211.324 137.795 208.185C137.746 208.443 137.812 209.12 136.838 210.172C138.479 210.7 139.762 208.485 142.762 210.684C140.949 218.739 149.734 202.855 147.316 220.903C146.615 221.496 144.912 225.621 146.846 225.523C146.798 225.716 145.149 227.501 146.692 226.853C145.918 241.876 155.393 226.389 153.736 215.204L153.709 215.186L154.18 215.237C154.72 200.498 172.37 197.26 178.654 190.533C179.975 190.734 181.692 189.384 180.977 187.184C181.554 187.727 185.209 183.606 182.339 183.851C184.013 181.446 184.531 177.41 188.71 174.359C186.875 176.262 185.207 177.344 185.494 180.511C185.092 180.922 184.123 180.745 184.239 182.707C184.238 182.827 184.254 182.966 184.28 183.124C185.536 180.881 189.561 180.789 190.261 174.654C190.979 174.986 190.001 177.158 190.821 176.631C190.793 176.677 190.793 176.705 190.792 176.751C192.301 175.048 195.761 173.367 197.25 169.453C197.67 171.502 208.257 167.11 200.211 168.488C201.824 167.461 204.263 168.516 206.26 166.189C207.082 167.133 205.865 167.554 208.485 166.603C208.063 167.089 207.449 167.359 206.936 167.733C207.027 167.826 210.749 167.582 211.166 164.294C210.275 164.543 211.172 165.367 209.215 165.807C209.341 161.322 214.026 160.136 219.935 156.301C220.255 156.656 218.272 156.957 218.822 158.147C219.69 157.528 223.943 156.106 226.957 154.568C227.804 154.134 228.549 153.699 229.109 153.261C228.151 155.322 230.694 153.048 234.104 151.737C233.839 152.178 234.174 152.015 231.831 153.08C232.869 153.739 232.193 153.759 234.532 153.064C233.145 154.63 229.777 153.916 226.769 156.463C223.494 159.755 228.798 161.814 232.846 155.672C232.966 155.72 232.782 155.671 233.332 156.094C231.644 157.259 239.012 156.095 243.275 152.999C243.378 153.675 249.499 151.461 246.287 150.082C249.534 146.817 244.873 147.578 241.588 152.498C241.127 151.494 241.252 151.125 239.212 152.332C238.955 152.163 239.05 151.979 238.098 151.857C236.839 151.981 237.039 150.697 235.048 150.073C235.227 148.956 235.516 147.988 236.109 147.088C236.656 146.207 237.451 145.429 238.718 144.648C238.367 144.552 236.245 144.879 235.04 145.143C235.49 144.584 234.833 144.576 233.282 144.308C249.517 142.71 237.333 135.586 219.915 147.577C228.264 141.513 238.816 136.093 250.396 137.04C251.764 137.148 253.158 137.349 254.58 137.653C258.1 134.761 261.435 134.383 266.338 132.737C268.627 132.393 270.412 128.362 268.946 126.375C268.19 125.293 266.494 124.83 263.485 125.822C264.961 124.581 270.531 126.07 267.475 122.306C267.907 124.966 263.64 120.422 263.267 122.258C262.472 122.249 264.436 119.57 262.708 120.198C262.689 119.476 262.973 119.711 262.048 118.886C262.558 118.753 265.026 116.478 263.655 116.694C264.699 115.17 263.276 115.08 263.981 112.479C264.08 103.896 261.95 111.272 253.709 113.591C253.524 113.589 253.907 112.474 252.859 112.749C250.952 110.442 254.653 108.746 255.839 106.206L255.839 106.16C254.084 106.741 255.301 106.274 252.543 105.613C253.024 105.619 254.695 104.288 253.09 104.685C253.574 102.85 242.881 100.424 243.087 104.987C241.657 105.433 240.187 106.156 239.035 109.056C233.517 109.483 235.115 116.088 228.793 119.688C218.362 122.546 219.319 126.183 212.314 132.874C212.778 128.735 210.318 136.672 209.229 130.073C209.141 129.655 209.658 128.894 210.437 127.996C210.745 127.676 211.046 127.328 211.383 126.98C214.35 123.897 218.65 120.043 213.059 121.209C212.985 121.162 212.921 121.115 212.829 121.086C212.905 120.92 212.971 120.782 213.037 120.644C212.713 120.659 212.742 120.576 211.547 120.747C211.681 119.518 211.82 119.52 209.176 118.583C210.828 116.484 207.647 113.94 203.958 115.452C204.714 114.832 206.729 113.319 208.339 110.923C207.406 110.839 207.267 110.837 206.496 111.069C208.86 107.442 216.856 104.676 223.147 101.436C224.892 101.715 230.039 100.609 224.947 98.5246C225.828 98.3682 226.513 99.8932 228.282 99.71C228.909 99.8837 229.099 99.4604 230.675 98.3685C231.686 99.7769 236.566 97.7332 238.168 95.9848C239.383 95.675 239.618 95.3725 241.65 94.8408C239.423 96.1843 236.211 98.0344 233.052 100.024C233.867 99.8945 234.665 99.7187 235.376 99.8656C235.375 99.9119 234.835 100.248 234.225 100.999C235.123 101.685 238.031 99.7852 240.392 98.8133C238.499 101.77 248.126 99.5498 242.77 98.7666C242.883 98.5829 243.215 98.7255 243.991 97.9481C243.791 97.6406 243.622 96.2696 242.457 96.1914C242.672 95.2411 242.759 95.7509 243.105 94.543C242.502 94.7026 242.444 95.7935 241.273 96.1963C241.741 95.7114 241.953 95.7878 242.427 94.8127C242.353 94.7934 242.427 94.8312 242.058 94.6882C242.413 94.3871 242.272 93.8027 243.483 93.8906C243.435 94.0565 243.355 94.5829 244.153 94.3608C242.703 94.9732 245.608 97.3284 244.689 94.367C245.133 94.3906 245.218 95.0484 246.065 93.8185C247.147 94.5803 251.49 93.4184 252.8 90.5196C253.382 90.5726 256.767 89.0297 255.433 88.3945C255.228 87.7354 256.023 87.8001 257.046 87.2661C257.548 87.9009 259.014 88.3155 260.249 87.9319C260.295 87.914 260.323 87.8865 260.369 87.8871C260.973 87.6628 261.496 87.2525 261.828 86.5718C262.268 86.8544 261.936 86.7858 262.774 87.1192C262.559 87.3202 261.393 88.1486 262.626 87.8853C262.625 88.024 262.644 87.978 263.085 88.2143C263.057 88.2603 263.039 88.2323 262.803 88.5811C263.016 88.6298 262.785 88.5809 263.526 88.4969C262.866 88.7946 259.343 90.2619 262.95 89.5541C262.084 90.0344 262.58 91.1594 263.899 89.824C263.823 90.0544 263.731 89.9423 263.518 90.8002C261.126 90.4211 263.511 93.8435 264.338 90.2453C264.41 90.4774 264.194 90.7802 265.008 90.7156C264.659 94.5505 260.39 91.754 258.853 95.8805C256.121 96.9221 252.308 94.7044 249.457 98.0758C250.39 99.7608 249.546 98.3728 252.262 98.7093C253.549 97.8083 254.528 99.5032 255.946 97.7064C256.127 98.0137 255.206 99.2982 256.585 98.389C256.606 98.9906 256.352 98.5991 256.969 99.6238C255.887 101.221 257.308 103.115 261.574 103.793C267.012 106.344 262.856 101.736 263.455 100.327C265.43 100.655 267.751 107.213 268.892 100.482C269.225 102.133 271.187 101.184 269.772 98.7535C271.825 100.47 269.147 95.9989 268.245 95.6648C270.796 94.2233 271.127 94.4121 272.874 97.7161C275.076 96.0672 285.38 94.5114 274.537 90.6864C274.051 90.3108 274.556 90.6219 272.917 89.974C273.693 89.2152 274.69 89.3931 276.447 88.6641C276.635 88.435 274.893 88.6462 275.105 87.9456C276.648 88.9161 276.772 86.1332 274.976 87.0376C275.237 86.8556 275.583 86.582 275.8 86.2145C275.757 85.955 274.494 86.3382 273.304 85.2792C274.242 84.9663 271.678 83.4937 270.65 85.2025C270.674 84.6662 272.023 83.2387 269.42 82.7184C273.925 79.5326 260.259 82.2338 268.469 82.541C267.653 82.7906 264.082 83.6098 263.974 83.3496C270.208 79.3973 258.506 80.9833 256.908 84.8501C255.84 82.812 260.287 82.1694 262.495 80.8627C259.962 80.6486 255.904 81.2309 250.961 84.7077C251.369 85.4339 251.551 84.0854 253.24 85.2242C248.877 84.1564 248.88 87.9399 255.782 86.974C256.431 87.703 255.561 87.693 252.477 87.195C252.401 87.4254 250.799 87.592 251.412 88.9773C250.24 89.4726 249.276 88.9065 247.467 90.116C247.212 89.8078 244.898 90.7155 245.566 91.3522C245.24 91.5149 244.237 91.8734 243.299 92.1679C243.42 91.309 243.265 91.1685 244.673 90.1394C244.736 90.3066 245.025 90.1156 245.205 90.5895C245.766 90.0132 247.218 89.2158 246.678 87.9238C245.813 88.3764 244.86 88.3932 242.601 90.1803C242.818 89.7942 244.35 87.6658 244.662 88.7424C245.342 88.2877 245.893 88.6641 245.262 87.2137C244.708 87.1334 245.028 87.4146 243.677 87.5193C243.885 87.1239 244.4 87.3888 245.148 86.6759C246.095 87.1956 247.516 85.0751 247.578 83.6605C250.359 82.4066 253.011 82.6037 257.41 80.6099C255.987 80.427 254.355 79.2057 251.959 80.8247C249.091 81.652 245.643 83.8417 241.894 85.6672C241.94 85.6862 242.014 85.6871 242.06 85.6876C241.273 85.7525 238.219 87.5305 241.18 87.4443C241.226 87.4633 240.826 87.6067 241.193 87.8607C240.024 88.245 239.933 88.059 238.157 88.8526C238.276 89.0205 238.506 89.1064 238.663 89.1359C236.807 90.3911 235 89.8616 232.675 91.7867C232.649 91.6661 232.694 91.7684 232.54 91.4799C232.371 91.6907 232.183 91.9198 231.977 92.1486C232.147 91.8546 232.26 91.6616 233.6 90.2155C233.299 90.6098 232.943 91.022 232.614 91.416C232.802 91.2331 233.928 90.5708 235.38 89.8382C235.214 89.7715 235.148 89.8818 234.429 89.6607C235.456 89.6725 243.219 86.2745 238.219 87.5212C237.741 86.4242 236.646 86.7354 235.167 88.2724C235.336 88.0709 235.523 87.8417 235.711 87.6311C234.864 88.0654 231.187 88.4209 234.114 88.9448C232.109 89.523 228.35 92.2457 225.705 89.7269C225.631 89.726 224.979 90.0978 224.613 89.7606C224.596 89.6401 226.661 89.5066 225.598 88.5601C225.672 88.5795 225.783 88.5622 225.814 88.3313C225.059 88.8129 221.427 87.7073 220.466 90.0644C219.543 89.8503 218.309 91.7601 217.144 91.7467C217.562 91.585 218.79 90.1376 217.81 90.1263C221.083 88.6469 216.129 90.6805 212.576 89.9736C212.887 88.7191 215.661 90.3791 215.978 87.7279C213.671 88.0991 213.397 85.3486 210.389 86.2668C210.65 86.131 210.929 85.9955 211.915 85.5628C210.783 84.9762 208.124 86.9623 207.806 86.4776C208.629 85.673 208.107 86.8695 210.697 84.411C209.806 84.706 209.596 85.2864 206.751 85.7162C206.891 85.6253 207.057 85.6734 208.182 85.1313C206.852 84.9773 205.014 85.5574 201.983 86.0591C202.029 86.0596 202.196 86.0153 202.263 85.8125C201.726 85.8526 202.217 85.7935 201.002 86.1218C201.211 85.6616 199.999 86.4618 199.788 86.2743C199.161 86.1284 198.611 87.2598 196.782 87.0723C196.808 86.3973 197.16 86.4013 198.334 85.6286C197.658 85.6855 195.297 84.2616 195.351 84.3824L195.184 84.4268C195.206 84.1773 195.368 84.5214 195.655 83.7569C194.703 83.6072 195.745 83.8967 193.86 83.7547C194.555 83.6702 196.132 82.4303 194.191 83.1295C194.359 82.965 195.644 82.2859 194.028 82.7761C196.41 81.638 193.24 82.9521 192.216 82.6813C189.833 83.1719 187.081 84.4168 181.925 85.5415C180.662 85.9895 177.602 87.3789 174.878 89.3919C174.896 89.3921 174.989 89.3469 175.176 89.2566C174.43 89.7105 173.133 90.7039 171.765 90.6327C173.355 89.8647 171.997 90.5243 173.663 89.6554C173.292 89.7437 172.989 89.5737 171.183 90.5797C171.184 90.4872 171.164 90.5795 171.389 90.3231C169.455 91.1611 167.279 92.1629 164.481 94.1565C164.946 93.9676 164.509 94.1291 165.698 93.7542C165.585 93.8917 165.279 93.9159 164.783 94.4375C165.155 94.2753 164.998 94.3012 166.791 93.5818C166.837 93.5824 166.865 93.5549 166.912 93.537C166.865 93.5549 166.819 93.5822 166.772 93.6094C164.715 94.7235 163.421 95.4764 160.269 96.8185C160.316 96.745 160.567 96.6369 161.137 96.1994C160.783 96.3619 160.346 96.6066 159.992 96.8153L159.992 96.769C157.375 98.293 156.128 98.9539 151.268 102.506C151.464 102.388 151.687 102.233 151.883 102.133C151.622 102.297 151.389 102.479 151.128 102.634C149.44 103.798 147.704 105.11 145.147 107.079C145.073 107.124 145.007 107.198 144.886 107.27C144.746 107.38 144.577 107.544 144.372 107.727C144.866 107.409 144.726 107.472 146.032 106.58C146.125 106.489 146.246 106.416 146.358 106.353C146.19 106.471 146.218 106.472 146.032 106.58C145.92 106.672 145.677 106.854 145.21 107.2C145.443 107.11 145.211 107.181 145.908 106.856C145.013 107.447 141.993 109.439 139.499 111.602L139.825 111.375C139.825 111.375 139.843 111.375 139.712 111.512C140.346 111.103 140.889 110.508 143.674 108.903L143.7 109.042C143.56 109.161 143.373 109.297 142.478 109.916C142.498 109.796 142.46 109.916 142.694 109.613C141.873 110.233 141.149 110.483 139.389 112.248C139.501 112.185 139.762 112.022 140.425 111.493C140.425 111.511 140.443 111.493 140.312 111.658L140.312 111.686L140.33 111.658C140.442 111.595 140.936 111.295 141.524 110.811C141.524 110.858 141.552 110.812 141.504 110.95C142.202 110.634 142.621 110.334 144.292 109.049L144.245 109.122C144.505 109.051 145.483 108.461 146.492 107.594C145.72 107.974 145.629 107.788 143.679 109.264C145.137 107.976 147.361 106.771 149.655 105.235L149.673 105.235C149.766 105.19 150.044 105.193 150.864 104.619C150.845 104.693 150.883 104.638 150.77 104.785C151.122 104.724 152.102 103.968 153.6 103.189C153.525 103.281 153.414 103.307 153.134 103.572C153.58 103.393 153.415 103.224 155.498 102.258C153.971 103.175 151.375 104.487 148.606 106.342C149.323 106.766 151.082 105.001 152.478 105.036C152.739 104.9 153.065 104.737 153.298 104.583C152.943 104.856 153.232 104.628 152.475 105.322C153.505 105.075 154.705 103.674 157.913 102.221C157.107 103.165 156.834 102.699 154.352 104.623C155.189 104.216 154.612 104.505 156.743 103.392C156.341 103.757 156.577 103.372 155.456 104.348C155.595 104.332 155.502 104.349 155.854 104.261C155.385 104.856 155.454 104.469 153.951 105.682C153.883 105.931 158.095 103.287 155.831 106.305L156.724 105.899C155.502 106.773 154.769 107.763 153.399 109.44L153.324 109.513C153.323 109.652 148.047 113.107 148.815 113.115C148.245 113.553 148.182 113.413 145.995 115.405C146.179 115.481 146.039 115.572 146.468 115.29C145.039 116.458 143.724 117.442 141.598 119.637C142.323 119.414 141.765 119.658 143.192 118.629C143.162 118.767 143.072 118.609 142.88 119.226C144.007 118.49 145.082 117.596 147.669 115.396C146.799 116.219 144.378 118.43 142.518 120.11L142.844 119.883C140.143 122.275 136.989 125.468 133.569 129.267C133.308 129.449 133.124 129.401 132.25 130.602L132.832 130.609C122.987 141.273 101.77 159.474 93.0306 179.401C91.9381 181.09 92.6793 179.378 89.5719 186.548C89.4746 186.964 88.8715 187.123 88.3107 189.235C88.3099 189.309 88.3109 189.217 88.3054 189.698C91.6727 194.509 81.9515 204.074 83.6623 211.355C83.5239 211.326 83.3579 211.277 83.2194 211.257C84.2162 211.454 83.384 214.636 81.1539 214.702C80.3117 214.739 79.429 220.705 80.9309 222.026C83.0284 223.836 78.8683 229.236 79.158 233.005C79.158 233.005 79.2048 232.959 79.3269 232.794L79.3894 232.989L79.5111 232.87C80.7453 232.533 78.56 242.368 80.701 238.795C80.9689 231.582 83.9008 221.172 84.3467 211.363L84.8824 211.434C85.1282 207.764 85.9654 205.748 88.369 201.058C88.758 201.016 87.8447 202.402 89.387 201.819C89.3678 201.883 88.317 203.962 89.4662 202.976C89.1336 203.74 87.4259 208.253 86.5766 211.314C86.1083 211.818 86.0795 211.91 85.2887 213.908C85.5948 213.838 85.5932 213.977 86.107 213.538C85.9916 227.588 85.2392 240.725 84.2957 257.605C84.3748 257.162 84.4723 256.728 84.5422 256.285C85.5772 261.2 94.957 277.293 100.446 272.962C101.228 271.74 103.365 271.719 104.551 273.962C106.386 278.497 108.284 283.172 113.123 285.457C114.682 285.077 116.107 289.071 118.396 286.267C117.93 288.149 119.895 293.49 122.816 296.114C122.235 298.318 121.702 302.031 124.39 304.827C124.63 304.044 124.427 303.154 125.064 302.532C127.208 304.259 127.424 309.654 131.397 312.493C130.445 310.013 135.944 311.223 134.056 313.69C132.467 311.877 133.772 318.312 134.837 314.189C134.912 314.116 134.88 314.467 135.53 314.197C135.857 316.337 141.376 317.474 137.823 311.152C139.06 310.537 139.143 311.371 140.248 308.553C141.635 305.451 148.037 317.384 146.669 322.983C146.632 324.583 148.894 329.734 146.408 329.52C145.491 330.463 147.117 332.248 148.258 332.798C148.091 335.22 144.638 336.225 144.775 340.436C143.61 340.394 143.368 341.298 144.58 342.876C141.621 343.637 140.57 345.697 141.325 350.867C140.126 352.112 139.85 357.687 143.489 360.522C138.679 374.194 160.62 396.037 172.028 409.498C176.135 414.356 179.81 416.517 183.23 418.351C189.546 421.744 195.024 424.027 200.823 440.208C201.636 442.687 202.7 445.086 203.921 447.478C209.404 458.17 218.153 467.955 222.503 478.264C224.937 480.522 226.632 481.124 229.438 484.135L229.391 484.134C229.913 485.445 231.358 486.858 233.536 488.141C233.462 488.094 233.278 488.018 233.074 488.043C234.022 488.452 234.671 490.809 237.368 491.145C236.688 489.907 236.954 490.956 234.335 487.854C235.593 487.823 236.721 490.324 238.598 491.178C238.623 491.363 239.768 492.375 240.616 493.486C239.898 493.154 240.69 493.441 238.327 492.248C239.571 493.428 241.343 495.4 243.828 497.334C243.828 497.334 243.617 497.1 243.509 496.868C243.738 497.056 244.526 497.712 244.971 496.885L244.79 496.503C245.322 496.926 245.967 497.146 247.147 498.27C247.073 498.269 247.037 498.157 245.938 497.978C246.012 498.044 245.892 497.978 246.515 498.494C246.497 498.493 246.442 498.474 246.331 498.418C247.93 500.952 253.057 502.408 256.151 504.423C256.133 504.349 256.151 504.377 256.108 504.163C256.108 504.163 256.18 504.257 256.777 504.634C256.759 504.587 256.805 504.616 256.549 504.354C256.752 504.402 256.614 504.373 257.102 504.526L257.13 504.527L257.13 504.508C257.267 504.676 257.528 504.531 258.124 504.964C257.939 504.962 258.033 504.889 257.376 504.863C257.45 504.845 257.723 505.283 258.139 505.269C258.233 505.178 259.087 505.669 259.072 505.391C259.1 505.391 259.209 505.587 259.532 505.609L259.532 505.59C259.671 505.592 259.577 505.711 260.48 506.018C260.462 505.999 260.462 505.953 260.463 505.879C260.601 505.945 260.536 505.972 261.016 506.089L260.971 505.996C260.898 505.902 261.338 506.277 262.057 506.452L262.407 506.595L262.361 506.53L262.776 506.692C262.776 506.692 262.748 506.691 262.749 506.627C262.886 506.721 262.748 506.691 263.237 506.771C263.376 506.819 263.311 506.818 263.708 506.915C263.708 506.915 263.634 506.84 263.543 506.728C264.105 506.92 263.819 506.916 264.934 507.234C264.907 507.16 264.953 507.188 264.797 507.066C265.635 507.446 266.771 507.598 267.998 507.852L267.539 507.57C267.751 507.591 268.393 508.135 268.902 508.048C268.72 507.842 268.902 508.094 268.047 507.622C268.112 507.623 268.415 507.839 268.327 507.459C268.418 507.506 268.676 507.647 268.634 507.258C261.315 504.991 252.246 498.069 250.745 491.049C250.212 490.757 249.537 490.749 249.052 490.281C252.868 489.881 249.876 491.039 245.579 486.605C246.252 486.844 247.828 487.334 248.874 487.272C250.289 487.242 250.772 486.295 246.855 482.596C257.623 484.977 255.16 476.383 247.652 472.023C250.854 472.735 261.644 477.225 258.616 465.405C259.117 464.504 258.633 462.316 261.008 461.714C261.004 471.788 263.088 450.591 265.081 445.388C265.648 445.209 267.792 442.116 271.314 443.147C271.058 441.331 271.003 442.052 274.7 439.911C279.536 440.133 283.049 440.285 283.943 433.366C289.542 427.455 280.962 413.471 289.792 405.756C306.874 390.81 311.464 374.554 297.157 372.641L297.231 372.614ZM261.842 126.303C262.338 125.8 262.192 126.473 262.888 126.268C262.236 126.64 260.784 127.428 259.974 127.095C260.633 126.871 261.21 126.554 261.842 126.303ZM234.593 94.7504C234.944 94.7729 235.454 94.6955 235.915 94.7841C236.451 94.8088 236.911 95.073 237.022 95.8699C236.391 96.0476 235.301 95.9241 236.099 94.8602C236.026 94.8131 235.989 94.7849 235.915 94.7841C235.684 94.7814 235.329 95.1011 234.241 94.7463L234.593 94.7504ZM131.231 210.274C131.517 209.528 131.929 209.958 132.362 210.87C131.993 210.792 132.129 211.034 131.185 210.292L131.231 210.274ZM125.381 296.624C125.255 297.187 124.486 295.643 122.945 296.088C122.98 295.524 122.199 288.586 125.409 296.606L125.391 296.625L125.381 296.624ZM166.013 301.097C166.037 303.077 169.777 305.192 166.443 307.985C164.401 307.758 164.304 304.103 166.013 301.097ZM255.885 106.235C255.881 106.512 255.977 106.254 255.885 106.235V106.235Z" fill="url(#paint0_radial_990_58682)"/>
<path d="M387.13 85.2079C387.206 85.2256 387.223 85.2258 387.206 85.2256L387.113 85.1992C387.113 85.1992 387.122 85.1993 387.13 85.1994L387.13 85.2079Z" fill="url(#paint1_linear_990_58682)"/>
<path d="M430.327 114.877C418.463 104.787 405.148 95.4939 390.305 87.0625C389.772 86.7789 389.175 86.4667 388.383 86.0876C388.888 86.4172 388.568 86.1545 389.726 86.7968C389.799 86.8717 389.937 86.938 390.167 87.0794L389.982 87.0125C390.377 87.2668 390.056 87.0597 390.975 87.5975L390.79 87.5306C390.956 87.625 390.806 87.7343 391.964 88.4044C391.308 88.3321 390.788 87.7618 389.095 86.9283C389.599 87.3967 389.553 87.3129 390.802 88.1135C390.738 88.0665 390.618 88.0189 390.48 87.9711C391.166 88.6543 390.598 88.1389 392.167 89.3133L392 89.3114C392.503 89.8074 393.727 90.358 395.35 91.5885C395.323 91.5882 395.138 91.5861 394.677 91.4143C393.87 90.8407 393.561 91.0962 392.085 89.9414C392.104 89.9601 392.177 89.9887 392.298 89.9901C391.702 89.4929 389.78 88.4903 387.879 88.0984C389.1 88.9265 389.986 89.0754 392.475 90.6581C392.457 90.6394 392.401 90.6388 392.355 90.6383C394.552 91.8753 394.463 91.4951 396.748 93.0847C395.267 92.3924 396.657 93.0374 394.456 92.1517C395.532 93.5332 398.262 95.0354 400.151 96.4725C400.165 96.7964 395.264 94.2332 397.485 95.8405L397.438 95.84C397.803 96.3345 398.846 96.5315 401.227 97.7892C397.836 97.4726 394.248 94.1752 389.637 92.1241C395.293 94.1872 397.642 93.4002 388.347 89.2878C388.346 89.3156 388.392 89.3161 388.483 89.4837C386.538 88.9248 384.941 87.8148 381.599 87.2214C381.709 87.3336 381.552 87.2856 382.222 87.7096C381.504 87.47 380.512 86.8296 378.817 86.2088C378.953 86.4416 378.835 86.2553 379.274 86.6766C378.814 86.5048 378.332 87.3225 377.671 86.1216L377.837 86.1235C376.94 85.3639 376.264 85.4301 374.227 84.7314C374.3 84.8248 374.364 84.8995 374.437 84.9651C374.134 84.8229 373.645 84.6507 372.926 84.4852C372.925 84.55 373.368 84.629 374.374 85.6212C373.813 85.3372 374.21 85.4065 372.757 84.696C373.691 85.5147 374.259 86.0269 374.46 86.2327C373.624 85.705 374.553 86.1598 371.917 84.5014C371.962 84.6129 371.899 84.5011 372.126 84.8553C371.988 84.8074 371.914 84.8066 371.426 84.616C371.957 85.0661 371.682 84.8317 372.811 85.6124C372.553 85.4892 372.83 85.6127 372.139 85.3734C372.139 85.3734 372.119 85.4195 372.183 85.5405C372.001 85.3071 371.513 85.0425 370.834 85.4139C370.943 85.6002 371.414 85.6241 372.619 86.2023C372.454 86.1264 372.159 86.0027 372.015 86.4266C371.803 86.3779 371.923 86.3793 371.389 86.1604C371.737 86.4881 371.601 86.2368 372.726 87.3413C371.178 86.0192 369.687 86.2148 372.9 88.3146C371.999 87.8417 370.351 87.1937 373.003 88.9911C372.911 88.9438 372.727 88.8676 372.166 88.6022L372.577 89.0972C372.41 89.1415 371.94 88.1185 371.142 88.3314C370.604 88.4639 368.811 89.1926 369.754 90.0175C370.514 90.7015 373.247 93.5451 373.333 90.0864C374.602 90.7763 375.532 92.7388 377.379 94.5917C377.242 94.4976 377.333 94.5449 376.938 94.3831C377.136 94.8016 378.553 95.521 379.167 96.7584C379.093 96.7575 379.049 96.6182 378.726 96.5035L379.192 97.0176L378.627 97.0759C379.347 97.2044 380.588 98.6803 380.046 99.2106C380.254 99.5645 380.136 99.3966 380.664 100.152C380.081 100.145 380.663 100.244 379.413 99.5733C379.454 99.9716 379.532 99.6209 380.003 100.514C379.837 100.485 379.773 100.391 378.946 99.938C379.334 100.803 379.617 100.316 380.949 101.913C380.645 101.817 380.875 101.866 379.743 101.436C380.043 101.856 379.769 101.594 380.592 102.371C380.517 102.491 380.318 102.072 379.917 102.363C379.935 102.364 379.915 102.558 380.141 102.995C380.003 102.92 380.049 102.92 379.654 102.73C379.671 102.869 379.72 102.639 379.617 103.516C379.415 103.375 379.599 103.47 378.974 103.139C379.385 103.56 379.842 104.055 380.354 104.57C382.191 106.525 384.512 108.993 386.977 111.001C386.978 110.927 386.977 111.02 387.009 110.65C387.119 110.716 387.101 110.67 387.726 111.047C386.883 111.204 393.716 117.887 393.401 111.436C393.221 111.082 392.994 110.645 392.767 110.337C396.133 112.8 398.329 114.101 403.005 118.577L402.746 118.5C402.789 118.824 402.877 119.251 403.012 119.53C400.615 118.031 404.367 123.172 406.453 123.575C407.006 122.11 405.649 122.677 404.981 120.44C406.206 120.917 408.768 122.556 406.228 118.965C407.073 118.744 406.35 118.893 407.856 118.984C407.812 118.845 407.932 118.846 407.494 118.333C407.567 118.38 407.751 118.474 408.072 118.709C407.936 118.504 407.232 116.997 405.695 115.518C405.765 115.797 405.9 116.122 406.009 116.354C404.472 114.82 404.493 114.663 401.962 111.914C402.224 111.686 401.98 111.933 402.159 110.843C402.326 110.826 402.235 110.677 402.557 110.866C401.7 108.969 399.454 107.991 397.111 106.613C396.091 106.037 395.081 105.378 394.156 104.535L394.295 104.509C392.003 101.948 389.453 98.403 387.191 94.8711C388.26 95.2071 388.403 94.8388 390.688 96.4284C390.273 96.2756 390.688 96.4284 389.575 95.8975C390.817 97.2439 391.353 97.3611 392.996 100.081C392.903 100.08 392.949 100.127 392.783 100.079C394.802 102.285 397.981 104.93 401.913 107.279C401.987 107.354 402.05 107.428 402.115 107.466C402.554 107.841 403.045 107.865 403.601 107.761C405.029 107.472 406.81 106.17 409.116 107.611C408.971 108.1 409.039 108.61 408.916 108.895C408.801 109.245 408.403 109.278 407.014 108.614C407.058 108.781 407.083 108.985 407.1 109.152C406.869 109.103 406.682 109.267 406.601 109.932C406.782 110.267 407.148 110.641 407.404 110.903C407.238 110.809 407.036 110.705 406.852 110.62C407.513 111.83 406.88 112.202 409.166 113.736C409.139 113.661 408.73 113.028 409.057 112.689C408.857 112.382 408.528 112.036 408.282 111.774C409.186 111.997 408.42 111.757 410.205 112.61C410.205 112.61 410.16 112.545 410.069 112.377C410.704 113.457 411.889 113.369 413.194 115.789C405.724 112.142 414.26 117.985 415.078 121.667C416.362 125.012 415.28 120.161 410.802 125.04C410.024 124.384 410.316 124.702 408.17 123.077C408.058 123.149 408.444 123.385 407.995 123.778C408.206 123.965 406.899 124.209 407.092 125.09C403.543 124.032 400.747 118.625 396.373 114.477C396.026 114.056 397.255 116.587 395.977 115.897C395.685 117.17 398.537 121.735 401.803 123.272C401.974 124.504 403.394 124.122 403.609 126.345C403.12 126.201 401.275 124.949 402.019 127.02C401.039 127.028 399.168 126.423 399.973 128.791L399.836 128.651C399.877 129.068 401.967 133.208 398.675 134.688C399.416 135.436 397.714 137.026 398.597 139.83C397.264 140.721 396.326 139.48 394.125 138.567C392.911 138.784 399.516 142.791 394.659 142.81C393.898 142.283 394.362 142.149 390.868 142.692C389.544 144.379 393.399 145.422 396.703 146.875C396.703 146.875 396.777 146.858 397.011 146.666C397.055 146.806 409.457 159.187 402.438 160.549C399.079 161.509 392.088 158.08 388.61 161.232C389.34 164.561 391.332 175.546 394.07 181.969C394.656 184.076 392.896 187.515 399.208 184.822C406.196 190.129 400.427 189.877 413.027 186.563C413.822 185.804 412.473 184.086 415.415 183.26C413.832 181.734 416.267 179.949 415.889 178.196C412.119 176.201 413.509 170.352 418.005 166.38C414.71 161.717 416.447 160.248 423.653 161.052C422.924 151.247 430.09 163.596 430.43 162.203C431.603 163.151 432.704 164.764 434.628 165.526C435.196 166.865 437.046 167.607 439.383 168.698C441.426 171.238 446.311 172.848 447.611 177.22C448.944 180.306 444.91 179.585 443.322 180.103C443.158 179.934 443.304 180.084 442.838 179.607C442.641 182.232 453.868 191.343 448.325 180.271C448.343 180.336 448.826 180.906 449.453 181.117C449.595 180.813 449.185 180.281 449.398 179.461C449.445 179.443 449.352 179.46 449.674 179.584C449.792 179.03 449.028 178.642 449.027 177.134C450.75 175.295 445.892 174.684 446.104 170.727C446.475 170.639 446.388 171.702 447.833 171.58C455.01 174.9 431.423 160.318 428.269 153.029C429.61 151.417 429.436 152.858 432.339 155.426L432.272 154.824C432.268 155.175 434.527 156.589 433.407 155.096C439.285 161.953 446.346 162.553 451.88 172.801C451.806 172.782 451.972 172.821 451.512 172.63C452.26 174.341 454.808 175.619 457.122 178.698C457.103 178.68 457.058 178.577 457.08 178.319C457.155 178.181 457.753 178.539 458.407 178.732C458.942 178.904 459.524 178.976 459.87 178.628C460.557 179.173 459.83 179.701 461.974 179.883C461.864 179.743 462.02 179.929 461.127 178.754C461.448 178.961 461.355 179.034 462.53 179.741C461.213 176.868 457.182 175.027 454.565 170.186C458.673 173.305 453.548 167.705 458.054 168.386C458.455 169.741 459.377 168.447 460.254 170.973C459.749 170.662 460.929 174.977 462.829 175.489C462.699 174.702 462.423 174.624 462.084 173.501C462.355 174.059 463.229 174.541 463.512 176.45C463.484 176.45 463.486 176.311 463.347 176.282C463.365 176.328 463.255 176.299 463.406 176.819C463.406 176.819 463.222 176.752 462.779 176.645C463.181 177.908 462.5 176.762 464.079 178.658C464.08 178.566 464.082 178.381 463.811 177.795C464.251 178.151 464.016 178.445 465.125 179.318C465.125 179.318 465.098 179.271 465.101 178.994C465.499 179.044 465.539 179.517 466.326 179.526C466.233 179.525 466.14 179.542 466.002 179.541L466.255 180.052C466.255 180.052 465.869 179.844 465.402 179.413C465.612 179.675 464.997 180.056 466.41 181.007C466.456 181.026 466.301 180.895 466.487 180.804C466.718 180.807 466.521 181.85 467.773 182.336C467.813 182.873 467.777 183.64 468.486 185.508C468.569 184.723 468.579 185.509 468.3 183.202C468.346 183.203 468.373 183.296 468.838 183.088L468.944 183.506L468.806 183.439C468.869 183.551 468.262 184.081 469.177 184.979C470.069 184.573 469.028 183.442 470.728 187.671C471.054 187.443 470.26 185.686 470.003 183.943C470.23 184.27 470.003 183.962 470.76 184.84L470.877 184.351C471.276 185.799 474.958 189.865 472.697 183.725C473.746 183.385 475.31 187.362 476.786 186.149C476.859 186.169 476.831 186.214 477.044 186.198C476.913 185.522 476.593 184.426 476.401 183.444C476.766 183.846 477.982 185.044 477.401 183.335C479.506 188.53 487.007 199.893 485.141 206.087C485.204 208.641 482.012 201.426 481.789 206.326C481.716 206.298 481.771 206.298 481.587 206.232C481.327 206.293 481.842 206.54 481.121 208.113C476.949 207.344 460.894 190.943 467.775 209.495C468.97 214.976 455.236 201.904 446.253 197.916C443.898 198.379 444.324 189.494 441.483 183.995C439.686 184.233 436.927 183.591 433.535 184.93C432.986 186.062 431.89 182.395 431.741 184.909C431.841 185.845 429.628 184.469 430.073 186.796C425.23 180.783 417.15 194.001 412.337 191.828C409.635 195.987 403.366 185.212 403.76 193.653C403.982 196.819 400.932 198.995 397.743 202.862C394.603 207.201 401.816 214.638 392.896 222.112C387.989 224.1 384.869 230.789 382.695 239.607C381.604 241.149 374.067 255.419 378.105 255.817C385.335 266.621 373.569 284.265 378.5 296.32C378.883 299.146 381.982 296.776 382.559 299.632C383.95 304.181 388.836 305.634 389.36 311.569C390.13 317.785 396.397 322.26 401.478 327.619C403.605 328.532 403.465 335.089 408.878 331.71C417.628 323.781 422.049 335.071 432.708 325.194C433.697 326.038 436.036 322.929 437.97 322.887C449.407 319.411 439.838 336.627 453.72 330.44C453.741 331.023 453.993 334.884 455.412 332.967C455.838 340.159 449.467 347.995 449.465 356.136C449.482 378.799 446.663 393.096 432.749 415.729C423.171 431.298 414.712 456.556 396.05 471.392C396.355 471.396 396.05 471.392 396.869 471.004C396.543 471.139 396.789 471.521 396.011 472.363C396.502 472.304 396.502 472.322 396.641 472.278C396.781 472.205 397.088 472.052 398.139 471.573C398.138 471.638 398.157 471.574 397.998 471.775C398.535 471.717 398.554 471.643 398.862 471.461C399.169 471.298 399.755 471.028 401.481 470.557C401.68 470.948 401.382 471.065 402.527 470.477C402.599 470.616 402.342 470.475 402.503 470.958C402.856 470.823 402.577 470.958 404.047 470.207L404.21 470.487C411.787 467.225 430.51 453.574 436.207 447.174C436.207 447.192 436.236 447.082 436.096 447.173C443.332 441.419 448.658 436.772 455.811 426.068L455.811 426.114C475.707 409.341 485.177 383.067 495.84 357.529L495.858 357.594C497.435 354.005 501.785 340.17 501.571 340.214C507.364 326.414 516.676 268.78 496.288 210.906C483.352 174.19 461.914 141.705 430.281 114.839L430.327 114.877ZM466.64 179.52C466.686 179.521 466.76 179.522 466.825 179.504C466.779 179.549 466.751 179.521 466.64 179.52Z" fill="url(#paint2_radial_990_58682)"/>
<path d="M388.762 86.1382C389.295 86.4403 389.809 86.7515 390.342 87.0537C390.866 87.3372 391.344 87.5925 391.832 87.8478C391.088 87.3583 390.609 87.1955 390.536 87.1114C389.259 86.3382 389.001 86.2334 388.762 86.1382Z" fill="url(#paint3_linear_990_58682)"/>
<path d="M387.15 85.2129C387.076 85.1936 386.947 85.1551 386.736 85.0601C386.956 85.1829 386.735 85.0879 387.406 85.4563C386.817 85.1813 386.515 84.9096 384.793 84.2607C385.28 84.5161 386.135 84.9885 388.142 85.8811L388.142 85.8441C388.464 86.0235 388.602 86.0714 388.749 86.1286C388.207 85.8263 387.693 85.5059 387.141 85.2035L387.15 85.2129Z" fill="url(#paint4_linear_990_58682)"/>
</g>
<g filter="url(#filter0_d_990_58682)">
<g filter="url(#filter1_d_990_58682)">
<path d="M201.445 167.624L396.348 167.624V282.225C396.348 283.924 394.971 285.301 393.272 285.301H204.521C202.822 285.301 201.445 283.924 201.445 282.225V167.624Z" fill="#0E2548"/>
</g>
<rect x="233.629" y="179.573" width="80.5794" height="3.28341" fill="#7879F1"/>
<rect x="268.566" y="251.284" width="80.5794" height="3.28341" fill="#FECE4D"/>
<rect x="217.164" y="179.573" width="5.28389" height="3.28341" fill="#3D7FFC"/>
<rect x="217.164" y="251.284" width="5.28389" height="3.28341" fill="#3D7FFC"/>
<rect x="262.09" y="186.798" width="80.5794" height="3.28341" fill="#FECE4D"/>
<rect x="295.191" y="258.509" width="80.5794" height="3.28341" fill="#FECE4D"/>
<rect x="347.945" y="186.798" width="15.8517" height="3.28341" fill="#7879F1"/>
<rect x="275.922" y="258.509" width="15.8517" height="3.28341" fill="#15C1E6"/>
<rect x="262.09" y="194.021" width="29.0614" height="3.28341" fill="#15C1E6"/>
<rect x="249.258" y="265.731" width="29.0614" height="3.28341" fill="#FECE4D"/>
<rect x="297.754" y="194.021" width="21.1356" height="3.28341" fill="#7879F1"/>
<rect x="284.918" y="265.731" width="21.1356" height="3.28341" fill="#7879F1"/>
<rect x="325.488" y="194.021" width="30.3824" height="3.28341" fill="#FECE4D"/>
<rect x="312.672" y="265.731" width="30.3824" height="3.28341" fill="#FECE4D"/>
<rect x="289.816" y="201.245" width="58.1228" height="3.28341" fill="#FECE4D"/>
<rect x="324.867" y="272.955" width="58.1228" height="3.28341" fill="#FECE4D"/>
<rect x="273.973" y="201.245" width="9.24681" height="3.28341" fill="#7879F1"/>
<rect x="309.012" y="272.955" width="9.24681" height="3.28341" fill="#7879F1"/>
<rect x="274.082" y="208.467" width="44.9131" height="3.28341" fill="#FECE4D"/>
<rect x="217.164" y="186.798" width="5.28389" height="3.28341" fill="#3D7FFC"/>
<rect x="217.164" y="258.509" width="5.28389" height="3.28341" fill="#3D7FFC"/>
<rect x="217.164" y="194.021" width="5.28389" height="3.28341" fill="#3D7FFC"/>
<rect x="217.164" y="265.731" width="5.28389" height="3.28341" fill="#3D7FFC"/>
<rect x="217.164" y="201.245" width="5.28389" height="3.28341" fill="#3D7FFC"/>
<rect x="217.164" y="272.955" width="5.28389" height="3.28341" fill="#3D7FFC"/>
<rect x="217.164" y="208.467" width="5.28389" height="3.28341" fill="#3D7FFC"/>
<rect x="258.453" y="215.429" width="80.5794" height="3.28341" fill="#7879F1"/>
<rect x="217.164" y="215.429" width="5.28389" height="3.28341" fill="#3D7FFC"/>
<rect x="262.09" y="222.653" width="80.5794" height="3.28341" fill="#FECE4D"/>
<rect x="347.945" y="222.653" width="15.8517" height="3.28341" fill="#15C1E6"/>
<rect x="262.09" y="229.877" width="29.0614" height="3.28341" fill="#15C1E6"/>
<rect x="297.754" y="229.877" width="21.1356" height="3.28341" fill="#7879F1"/>
<rect x="325.488" y="229.877" width="30.3824" height="3.28341" fill="#FECE4D"/>
<rect x="289.816" y="237.1" width="58.1228" height="3.28341" fill="#FECE4D"/>
<rect x="273.973" y="237.1" width="9.24681" height="3.28341" fill="#7879F1"/>
<rect x="242.266" y="244.325" width="44.9131" height="3.28341" fill="#FECE4D"/>
<rect x="217.164" y="222.653" width="5.28389" height="3.28341" fill="#3D7FFC"/>
<rect x="217.164" y="229.877" width="5.28389" height="3.28341" fill="#3D7FFC"/>
<rect x="217.164" y="237.1" width="5.28389" height="3.28341" fill="#3D7FFC"/>
<rect x="217.164" y="244.325" width="5.28389" height="3.28341" fill="#3D7FFC"/>
<path d="M201.445 160.587C201.445 158.888 202.822 157.511 204.521 157.511H393.272C394.971 157.511 396.348 158.888 396.348 160.587V167.624H201.445V160.587Z" fill="#000C36"/>
<path d="M210.807 162.616C210.808 162.996 210.696 163.367 210.485 163.683C210.275 163.999 209.975 164.245 209.623 164.391C209.272 164.537 208.885 164.576 208.512 164.502C208.138 164.429 207.795 164.247 207.526 163.979C207.256 163.711 207.073 163.369 206.998 162.997C206.924 162.625 206.961 162.239 207.107 161.888C207.252 161.537 207.499 161.238 207.815 161.027C208.132 160.816 208.504 160.703 208.884 160.703C209.392 160.707 209.879 160.909 210.238 161.267C210.598 161.625 210.802 162.11 210.807 162.616Z" fill="#F66058"/>
<path d="M218.905 162.619C218.906 162.999 218.794 163.37 218.583 163.686C218.372 164.002 218.071 164.249 217.72 164.395C217.368 164.54 216.981 164.579 216.608 164.505C216.234 164.431 215.891 164.248 215.622 163.98C215.353 163.711 215.169 163.369 215.095 162.997C215.021 162.624 215.06 162.238 215.206 161.888C215.352 161.537 215.599 161.238 215.916 161.027C216.233 160.817 216.606 160.705 216.986 160.706C217.239 160.705 217.489 160.753 217.722 160.849C217.955 160.945 218.167 161.086 218.346 161.264C218.524 161.442 218.665 161.653 218.761 161.886C218.857 162.118 218.906 162.368 218.905 162.619Z" fill="#F9BD2E"/>
<path d="M227.19 162.619C227.191 162.999 227.079 163.37 226.868 163.686C226.657 164.002 226.357 164.248 226.006 164.394C225.655 164.54 225.268 164.579 224.895 164.505C224.521 164.432 224.178 164.25 223.909 163.982C223.639 163.713 223.456 163.372 223.381 163C223.306 162.628 223.344 162.242 223.49 161.891C223.635 161.54 223.882 161.24 224.198 161.03C224.514 160.819 224.886 160.706 225.267 160.706C225.775 160.71 226.261 160.912 226.621 161.27C226.981 161.628 227.185 162.113 227.19 162.619Z" fill="#3CC840"/>
</g>
<g filter="url(#filter2_dd_990_58682)">
<path d="M155.601 232.192C155.601 229.725 157.601 227.725 160.068 227.725H349.387V333.12H155.601V232.192Z" fill="white" stroke="#D2DCE4" stroke-width="0.490066"/>
<rect x="343.641" y="248.184" width="2.81681" height="14.084" rx="1.4084" fill="#D2DCE4"/>
<mask id="mask0_990_58682" style="mask-type:alpha" maskUnits="userSpaceOnUse" x="154" y="226" width="188" height="108">
<rect x="154.43" y="226.559" width="186.91" height="106.806" fill="#D9D9D9"/>
</mask>
<g mask="url(#mask0_990_58682)">
<path d="M154.91 241.14L154.91 227.056L168.994 227.056L168.994 241.14L154.91 241.14Z" fill="white" stroke="#D2DCE4" stroke-width="0.486543"/>
<path d="M154.91 255.215L154.91 241.131L168.994 241.131L168.994 255.215L154.91 255.215Z" fill="white" stroke="#D2DCE4" stroke-width="0.486543"/>
<path d="M154.91 311.554L154.91 297.47L168.994 297.47L168.994 311.554L154.91 311.554Z" fill="white" stroke="#D2DCE4" stroke-width="0.486543"/>
<path d="M154.91 283.391L154.91 269.307L168.994 269.307L168.994 283.391L154.91 283.391Z" fill="white" stroke="#D2DCE4" stroke-width="0.486543"/>
<path d="M154.91 339.717L154.91 325.633L168.994 325.633L168.994 339.717L154.91 339.717Z" fill="white" stroke="#D2DCE4" stroke-width="0.486543"/>
<path d="M154.91 269.302L154.91 255.218L168.994 255.218L168.994 269.302L154.91 269.302Z" fill="white" stroke="#D2DCE4" stroke-width="0.486543"/>
<path d="M154.91 325.642L154.91 311.558L168.994 311.558L168.994 325.642L154.91 325.642Z" fill="white" stroke="#D2DCE4" stroke-width="0.486543"/>
<path d="M154.91 297.466L154.91 283.382L168.994 283.382L168.994 297.466L154.91 297.466Z" fill="white" stroke="#D2DCE4" stroke-width="0.486543"/>
<path d="M160.589 250.825H159.989V248.596H159.508V248.169H160.589V250.825ZM163.383 250.825H161.435L161.362 250.433L162.263 249.62C162.513 249.393 162.663 249.22 162.663 248.993C162.663 248.766 162.498 248.62 162.236 248.62C161.97 248.62 161.739 248.793 161.593 248.978L161.331 248.57C161.366 248.489 161.693 248.131 162.294 248.131C162.894 248.131 163.26 248.45 163.26 248.916C163.26 249.382 162.913 249.659 162.702 249.847L162.151 250.344H163.383V250.825Z" fill="#303B45"/>
<path d="M160.589 307.166H159.989V304.937H159.508V304.51H160.589V307.166ZM163.398 306.261C163.398 306.785 163.025 307.208 162.405 307.208C161.959 307.208 161.689 306.966 161.551 306.766C161.42 306.581 161.324 306.3 161.324 305.873C161.324 305.395 161.458 305.026 161.678 304.799C161.882 304.583 162.14 304.472 162.49 304.472C162.852 304.472 163.121 304.595 163.314 304.729L163.087 305.137C162.96 305.037 162.733 304.941 162.517 304.941C162.344 304.941 162.228 304.999 162.124 305.099C162.013 305.211 161.913 305.43 161.913 305.723C161.986 305.642 162.171 305.449 162.582 305.449C162.994 305.449 163.398 305.738 163.398 306.261ZM162.81 306.304C162.81 306.073 162.656 305.865 162.386 305.865C162.113 305.865 161.955 306.073 161.955 306.304C161.955 306.539 162.113 306.743 162.386 306.743C162.656 306.743 162.81 306.539 162.81 306.304Z" fill="#303B45"/>
<path d="M160.589 279.003H159.989V276.774H159.508V276.347H160.589V279.003ZM163.468 278.472H163.114V279.003H162.513V278.472H161.22V278.018L162.425 276.339H163.114V277.991H163.468V278.472ZM162.529 278.002V276.974L161.786 278.002H162.529Z" fill="#303B45"/>
<path d="M160.589 335.329H159.989V333.1H159.508V332.673H160.589V335.329ZM163.356 334.578C163.356 335.106 162.894 335.371 162.34 335.371C161.786 335.371 161.324 335.106 161.324 334.578C161.324 334.255 161.508 334.036 161.801 333.943V333.936C161.609 333.866 161.397 333.709 161.397 333.366C161.397 332.885 161.832 332.635 162.34 332.635C162.844 332.635 163.279 332.885 163.279 333.366C163.279 333.712 163.071 333.87 162.879 333.936V333.947C163.168 334.036 163.356 334.255 163.356 334.578ZM162.69 333.412C162.69 333.204 162.544 333.089 162.34 333.089C162.132 333.089 161.99 333.204 161.99 333.412C161.99 333.616 162.132 333.732 162.34 333.732C162.544 333.732 162.69 333.616 162.69 333.412ZM162.752 334.521C162.752 334.282 162.571 334.144 162.34 334.144C162.105 334.144 161.928 334.282 161.928 334.521C161.928 334.759 162.113 334.898 162.34 334.898C162.567 334.898 162.752 334.759 162.752 334.521Z" fill="#303B45"/>
<path d="M160.589 264.626H159.989V262.398H159.508V261.97H160.589V264.626ZM163.329 263.849C163.329 264.38 162.84 264.669 162.294 264.669C161.743 264.669 161.416 264.361 161.324 264.226L161.609 263.857C161.716 263.987 162.001 264.188 162.259 264.188C162.521 264.188 162.725 264.053 162.725 263.814C162.725 263.579 162.54 263.456 162.301 263.456H162.067V263.021H162.301C162.509 263.021 162.656 262.917 162.656 262.71C162.656 262.502 162.482 262.398 162.271 262.398C162.059 262.398 161.851 262.482 161.636 262.656L161.405 262.263C161.589 262.101 161.836 261.932 162.321 261.932C162.802 261.932 163.245 262.194 163.245 262.64C163.245 262.994 163.041 263.148 162.863 263.221V263.233C163.087 263.291 163.329 263.502 163.329 263.849Z" fill="#303B45"/>
<path d="M160.589 320.965H159.989V318.736H159.508V318.309H160.589V320.965ZM163.429 318.678L162.248 320.965H161.593L162.76 318.786H161.366V318.309H163.26L163.429 318.678Z" fill="#303B45"/>
<path d="M160.589 292.789H159.989V290.56H159.508V290.133H160.589V292.789ZM163.348 291.9C163.348 292.52 162.813 292.831 162.286 292.831C161.755 292.831 161.432 292.589 161.308 292.396L161.593 292.031C161.739 292.235 162.017 292.35 162.244 292.35C162.471 292.35 162.744 292.219 162.744 291.9C162.744 291.584 162.482 291.453 162.244 291.453C162.07 291.453 161.878 291.507 161.759 291.592L161.489 291.43L161.693 290.133H163.248V290.61H162.144L162.067 291.088C162.147 291.053 162.248 291.03 162.421 291.03C162.825 291.03 163.348 291.284 163.348 291.9Z" fill="#303B45"/>
<rect x="169.004" y="241.14" width="14.084" height="38.0269" transform="rotate(-90 169.004 241.14)" fill="white" stroke="#D2DCE4" stroke-width="0.486543"/>
<rect x="207.039" y="241.14" width="14.084" height="39.4353" transform="rotate(-90 207.039 241.14)" fill="white" stroke="#D2DCE4" stroke-width="0.486543"/>
<rect x="246.469" y="241.14" width="14.084" height="39.4353" transform="rotate(-90 246.469 241.14)" fill="white" stroke="#D2DCE4" stroke-width="0.486543"/>
<rect x="285.895" y="241.14" width="14.084" height="39.4353" transform="rotate(-90 285.895 241.14)" fill="white" stroke="#D2DCE4" stroke-width="0.486543"/>
<rect x="325.336" y="241.14" width="14.084" height="38.0269" transform="rotate(-90 325.336 241.14)" fill="white" stroke="#D2DCE4" stroke-width="0.486543"/>
<rect x="169.004" y="269.302" width="14.084" height="38.0269" transform="rotate(-90 169.004 269.302)" fill="#D2DCE4" fill-opacity="0.5" stroke="#D2DCE4" stroke-width="0.486543"/>
<rect x="169.004" y="297.466" width="14.084" height="38.0269" transform="rotate(-90 169.004 297.466)" fill="#D2DCE4" fill-opacity="0.5" stroke="#D2DCE4" stroke-width="0.486543"/>
<rect x="169.004" y="325.642" width="14.084" height="38.0269" transform="rotate(-90 169.004 325.642)" fill="#D2DCE4" fill-opacity="0.5" stroke="#D2DCE4" stroke-width="0.486543"/>
<rect x="207.039" y="269.302" width="14.084" height="39.4353" transform="rotate(-90 207.039 269.302)" fill="#D2DCE4" fill-opacity="0.5" stroke="#D2DCE4" stroke-width="0.486543"/>
<rect x="207.039" y="297.466" width="14.084" height="39.4353" transform="rotate(-90 207.039 297.466)" fill="#D2DCE4" fill-opacity="0.5" stroke="#D2DCE4" stroke-width="0.486543"/>
<rect x="207.039" y="325.642" width="14.084" height="39.4353" transform="rotate(-90 207.039 325.642)" fill="#D2DCE4" fill-opacity="0.5" stroke="#D2DCE4" stroke-width="0.486543"/>
<rect x="246.469" y="269.302" width="14.084" height="39.4353" transform="rotate(-90 246.469 269.302)" fill="#D2DCE4" fill-opacity="0.5" stroke="#D2DCE4" stroke-width="0.486543"/>
<rect x="246.469" y="297.466" width="14.084" height="39.4353" transform="rotate(-90 246.469 297.466)" fill="#D2DCE4" fill-opacity="0.5" stroke="#D2DCE4" stroke-width="0.486543"/>
<rect x="246.469" y="325.642" width="14.084" height="39.4353" transform="rotate(-90 246.469 325.642)" fill="#D2DCE4" fill-opacity="0.5" stroke="#D2DCE4" stroke-width="0.486543"/>
<rect x="285.895" y="269.302" width="14.084" height="39.4353" transform="rotate(-90 285.895 269.302)" fill="#D2DCE4" fill-opacity="0.5" stroke="#D2DCE4" stroke-width="0.486543"/>
<rect x="285.895" y="297.466" width="14.084" height="39.4353" transform="rotate(-90 285.895 297.466)" fill="#D2DCE4" fill-opacity="0.5" stroke="#D2DCE4" stroke-width="0.486543"/>
<rect x="285.895" y="325.642" width="14.084" height="39.4353" transform="rotate(-90 285.895 325.642)" fill="#D2DCE4" fill-opacity="0.5" stroke="#D2DCE4" stroke-width="0.486543"/>
<rect x="325.336" y="269.302" width="14.084" height="38.0269" transform="rotate(-90 325.336 269.302)" fill="#D2DCE4" fill-opacity="0.5" stroke="#D2DCE4" stroke-width="0.486543"/>
<rect x="325.336" y="297.466" width="14.084" height="38.0269" transform="rotate(-90 325.336 297.466)" fill="#D2DCE4" fill-opacity="0.5" stroke="#D2DCE4" stroke-width="0.486543"/>
<rect x="325.336" y="325.642" width="14.084" height="38.0269" transform="rotate(-90 325.336 325.642)" fill="#D2DCE4" fill-opacity="0.5" stroke="#D2DCE4" stroke-width="0.486543"/>
<rect x="169.004" y="255.215" width="14.084" height="38.0269" transform="rotate(-90 169.004 255.215)" fill="white" stroke="#D2DCE4" stroke-width="0.486543"/>
<rect x="169.004" y="283.391" width="14.084" height="38.0269" transform="rotate(-90 169.004 283.391)" fill="white" stroke="#D2DCE4" stroke-width="0.486543"/>
<rect x="169.004" y="311.554" width="14.084" height="38.0269" transform="rotate(-90 169.004 311.554)" fill="white" stroke="#D2DCE4" stroke-width="0.486543"/>
<rect x="169.004" y="339.717" width="14.084" height="38.0269" transform="rotate(-90 169.004 339.717)" fill="white" stroke="#D2DCE4" stroke-width="0.486543"/>
<rect x="207.039" y="255.215" width="14.084" height="39.4353" transform="rotate(-90 207.039 255.215)" fill="white" stroke="#D2DCE4" stroke-width="0.486543"/>
<rect x="207.039" y="283.391" width="14.084" height="39.4353" transform="rotate(-90 207.039 283.391)" fill="white" stroke="#D2DCE4" stroke-width="0.486543"/>
<rect x="207.039" y="311.554" width="14.084" height="39.4353" transform="rotate(-90 207.039 311.554)" fill="white" stroke="#D2DCE4" stroke-width="0.486543"/>
<rect x="207.039" y="339.717" width="14.084" height="39.4353" transform="rotate(-90 207.039 339.717)" fill="white" stroke="#D2DCE4" stroke-width="0.486543"/>
<rect x="246.469" y="255.215" width="14.084" height="39.4353" transform="rotate(-90 246.469 255.215)" fill="white" stroke="#D2DCE4" stroke-width="0.486543"/>
<rect x="246.469" y="283.391" width="14.084" height="39.4353" transform="rotate(-90 246.469 283.391)" fill="white" stroke="#D2DCE4" stroke-width="0.486543"/>
<rect x="246.469" y="311.554" width="14.084" height="39.4353" transform="rotate(-90 246.469 311.554)" fill="white" stroke="#D2DCE4" stroke-width="0.486543"/>
<rect x="246.469" y="339.717" width="14.084" height="39.4353" transform="rotate(-90 246.469 339.717)" fill="white" stroke="#D2DCE4" stroke-width="0.486543"/>
<rect x="285.895" y="255.215" width="14.084" height="39.4353" transform="rotate(-90 285.895 255.215)" fill="white" stroke="#D2DCE4" stroke-width="0.486543"/>
<rect x="285.895" y="283.391" width="14.084" height="39.4353" transform="rotate(-90 285.895 283.391)" fill="white" stroke="#D2DCE4" stroke-width="0.486543"/>
<rect x="285.895" y="311.554" width="14.084" height="39.4353" transform="rotate(-90 285.895 311.554)" fill="white" stroke="#D2DCE4" stroke-width="0.486543"/>
<rect x="285.895" y="339.717" width="14.084" height="39.4353" transform="rotate(-90 285.895 339.717)" fill="white" stroke="#D2DCE4" stroke-width="0.486543"/>
<rect x="325.336" y="255.215" width="14.084" height="38.0269" transform="rotate(-90 325.336 255.215)" fill="white" stroke="#D2DCE4" stroke-width="0.486543"/>
<rect x="325.336" y="283.391" width="14.084" height="38.0269" transform="rotate(-90 325.336 283.391)" fill="white" stroke="#D2DCE4" stroke-width="0.486543"/>
<rect x="325.336" y="311.554" width="14.084" height="38.0269" transform="rotate(-90 325.336 311.554)" fill="white" stroke="#D2DCE4" stroke-width="0.486543"/>
<rect x="325.336" y="339.717" width="14.084" height="38.0269" transform="rotate(-90 325.336 339.717)" fill="white" stroke="#D2DCE4" stroke-width="0.486543"/>
<path d="M176.043 262.269H201.394" stroke="#B8C4D0" stroke-width="1.88487" stroke-linecap="round"/>
<path d="M176.043 290.433H201.394" stroke="#B8C4D0" stroke-width="1.88487" stroke-linecap="round"/>
<path d="M176.043 318.595H201.394" stroke="#B8C4D0" stroke-width="1.88487" stroke-linecap="round"/>
<path d="M214.066 262.269H240.826" stroke="#B8C4D0" stroke-width="1.88487" stroke-linecap="round"/>
<path d="M214.066 290.433H240.826" stroke="#B8C4D0" stroke-width="1.88487" stroke-linecap="round"/>
<path d="M214.066 318.595H240.826" stroke="#B8C4D0" stroke-width="1.88487" stroke-linecap="round"/>
<path d="M253.504 262.269H278.855" stroke="#B8C4D0" stroke-width="1.88487" stroke-linecap="round"/>
<path d="M253.504 290.433H278.855" stroke="#B8C4D0" stroke-width="1.88487" stroke-linecap="round"/>
<path d="M253.504 318.595H278.855" stroke="#B8C4D0" stroke-width="1.88487" stroke-linecap="round"/>
<path d="M291.535 262.269H318.295" stroke="#B8C4D0" stroke-width="1.88487" stroke-linecap="round"/>
<path d="M291.535 290.433H318.295" stroke="#B8C4D0" stroke-width="1.88487" stroke-linecap="round"/>
<path d="M291.535 318.595H318.295" stroke="#B8C4D0" stroke-width="1.88487" stroke-linecap="round"/>
<path d="M332.383 262.269H356.326" stroke="#B8C4D0" stroke-width="1.88487" stroke-linecap="round"/>
<path d="M332.383 290.433H356.326" stroke="#B8C4D0" stroke-width="1.88487" stroke-linecap="round"/>
<path d="M332.383 318.595H356.326" stroke="#B8C4D0" stroke-width="1.88487" stroke-linecap="round"/>
<path d="M176.043 248.181H201.394" stroke="#D2DCE4" stroke-width="1.88487" stroke-linecap="round"/>
<path d="M176.043 276.345H201.394" stroke="#D2DCE4" stroke-width="1.88487" stroke-linecap="round"/>
<path d="M176.043 304.52H201.394" stroke="#D2DCE4" stroke-width="1.88487" stroke-linecap="round"/>
<path d="M176.043 332.684H201.394" stroke="#D2DCE4" stroke-width="1.88487" stroke-linecap="round"/>
<path d="M214.066 248.181H240.826" stroke="#D2DCE4" stroke-width="1.88487" stroke-linecap="round"/>
<path d="M214.066 276.345H240.826" stroke="#D2DCE4" stroke-width="1.88487" stroke-linecap="round"/>
<path d="M214.066 304.52H240.826" stroke="#D2DCE4" stroke-width="1.88487" stroke-linecap="round"/>
<path d="M214.066 332.684H240.826" stroke="#D2DCE4" stroke-width="1.88487" stroke-linecap="round"/>
<path d="M253.504 248.181H278.855" stroke="#D2DCE4" stroke-width="1.88487" stroke-linecap="round"/>
<path d="M253.504 276.345H278.855" stroke="#D2DCE4" stroke-width="1.88487" stroke-linecap="round"/>
<path d="M253.504 304.52H278.855" stroke="#D2DCE4" stroke-width="1.88487" stroke-linecap="round"/>
<path d="M253.504 332.684H278.855" stroke="#D2DCE4" stroke-width="1.88487" stroke-linecap="round"/>
<path d="M291.535 248.181H318.295" stroke="#D2DCE4" stroke-width="1.88487" stroke-linecap="round"/>
<path d="M291.535 276.345H318.295" stroke="#D2DCE4" stroke-width="1.88487" stroke-linecap="round"/>
<path d="M291.535 304.52H318.295" stroke="#D2DCE4" stroke-width="1.88487" stroke-linecap="round"/>
<path d="M291.535 332.684H318.295" stroke="#D2DCE4" stroke-width="1.88487" stroke-linecap="round"/>
<path d="M332.383 248.181H356.326" stroke="#D2DCE4" stroke-width="1.88487" stroke-linecap="round"/>
<path d="M332.383 276.345H356.326" stroke="#D2DCE4" stroke-width="1.88487" stroke-linecap="round"/>
<path d="M332.383 304.52H356.326" stroke="#D2DCE4" stroke-width="1.88487" stroke-linecap="round"/>
<path d="M332.383 332.684H356.326" stroke="#D2DCE4" stroke-width="1.88487" stroke-linecap="round"/>
<path d="M165.41 237.73V230.687L158.367 237.73H165.41Z" fill="#B8C4D0"/>
<path d="M188.856 235.177C188.856 235.764 188.619 236.114 188.366 236.328C188.116 236.538 187.727 236.687 187.202 236.687H186.178V233.668H187.202C187.727 233.668 188.116 233.817 188.366 234.031C188.619 234.241 188.856 234.591 188.856 235.177ZM188.138 235.177C188.138 234.806 187.998 234.591 187.871 234.469C187.744 234.351 187.534 234.254 187.241 234.254H186.882V236.088H187.241C187.534 236.088 187.744 235.991 187.871 235.869C187.998 235.751 188.138 235.549 188.138 235.177Z" fill="#303B45"/>
<path d="M227.615 236.687H225.619V233.668H227.575V234.232H226.324V234.849H227.505V235.414H226.324V236.114H227.615V236.687Z" fill="#303B45"/>
<path d="M266.939 234.232H265.757V234.972H266.869V235.536H265.757V236.687H265.053V233.668H266.939V234.232Z" fill="#303B45"/>
<path d="M307.247 236.22C307.094 236.355 306.736 236.736 305.904 236.736C305.069 236.736 304.333 236.185 304.333 235.178C304.333 234.172 305.069 233.625 305.913 233.625C306.714 233.625 307.059 234.045 307.156 234.15L306.687 234.557C306.561 234.417 306.324 234.212 305.913 234.212C305.427 234.212 305.051 234.566 305.051 235.178C305.051 235.791 305.436 236.145 305.926 236.145C306.416 236.145 306.556 235.953 306.556 235.953V235.507H305.922V234.968H307.247V236.22Z" fill="#303B45"/>
</g>
<path d="M341.336 333.366V227.063" stroke="#D2DCE4" stroke-width="0.471217"/>
<rect x="154.43" y="215.51" width="195.197" height="11.9696" fill="#63B97F"/>
<path d="M154.43 208.462C154.43 206.761 155.809 205.381 157.51 205.381H346.546C348.248 205.381 349.627 206.761 349.627 208.462V215.509H154.43V208.462Z" fill="#4B825D"/>
<path d="M163.809 210.496C163.81 210.876 163.698 211.247 163.487 211.564C163.276 211.88 162.975 212.127 162.623 212.273C162.272 212.419 161.884 212.458 161.51 212.385C161.136 212.311 160.793 212.128 160.523 211.86C160.253 211.592 160.069 211.249 159.994 210.877C159.92 210.504 159.958 210.118 160.103 209.766C160.249 209.415 160.496 209.115 160.813 208.904C161.129 208.692 161.502 208.58 161.883 208.58C162.392 208.583 162.879 208.786 163.239 209.144C163.6 209.503 163.804 209.988 163.809 210.496Z" fill="#F66058"/>
<path d="M171.911 210.496C171.912 210.876 171.799 211.248 171.588 211.564C171.377 211.881 171.076 212.128 170.724 212.274C170.372 212.42 169.984 212.458 169.61 212.384C169.236 212.31 168.892 212.127 168.623 211.858C168.353 211.589 168.17 211.247 168.095 210.874C168.021 210.501 168.06 210.114 168.206 209.763C168.352 209.412 168.6 209.112 168.917 208.901C169.235 208.691 169.608 208.579 169.989 208.58C170.242 208.578 170.492 208.627 170.726 208.723C170.96 208.819 171.172 208.96 171.351 209.138C171.529 209.316 171.671 209.528 171.767 209.761C171.863 209.994 171.912 210.244 171.911 210.496Z" fill="#F9BD2E"/>
<path d="M180.212 210.496C180.212 210.876 180.1 211.247 179.889 211.564C179.678 211.88 179.378 212.127 179.026 212.273C178.674 212.419 178.286 212.458 177.913 212.385C177.539 212.311 177.195 212.128 176.925 211.86C176.655 211.592 176.471 211.249 176.397 210.877C176.322 210.504 176.36 210.118 176.506 209.766C176.651 209.415 176.898 209.115 177.215 208.904C177.532 208.692 177.904 208.58 178.285 208.58C178.794 208.583 179.281 208.786 179.642 209.144C180.002 209.503 180.207 209.988 180.212 210.496Z" fill="#3CC840"/>
<rect x="159.211" y="218.271" width="6.76745" height="6.44519" rx="0.920878" fill="#4B825D"/>
<path d="M162.757 221.821L163.565 223.105H164.363L163.184 221.443L164.286 219.883H163.498L162.752 221.046L162.005 219.883H161.218L162.319 221.438L161.141 223.105H161.933L162.757 221.821Z" fill="white"/>
<rect opacity="0.3" x="326.617" y="219.193" width="23.0185" height="4.60371" fill="white"/>
<rect opacity="0.3" x="287.941" y="219.193" width="32.2259" height="4.60371" fill="white"/>
<rect opacity="0.3" x="211.527" y="219.193" width="32.2259" height="4.60371" fill="white"/>
<rect opacity="0.3" x="249.277" y="219.193" width="33.1467" height="4.60371" fill="white"/>
<rect opacity="0.3" x="172.848" y="219.193" width="32.2259" height="4.60371" fill="white"/>
</g>
<path fill-rule="evenodd" clip-rule="evenodd" d="M98.4882 173.395C94.382 169.29 91.842 163.618 91.842 157.354C91.842 144.827 101.997 134.672 114.523 134.672C127.05 134.672 137.205 144.827 137.205 157.354C137.205 163.618 134.665 169.29 130.559 173.394L130.562 173.397L114.524 189.435L98.4858 173.397L98.4882 173.395Z" fill="#3D7FFC"/>
<path opacity="0.6" fill-rule="evenodd" clip-rule="evenodd" d="M173.418 376.701C171.585 374.868 170.45 372.336 170.45 369.539C170.45 363.945 174.985 359.411 180.578 359.411C186.172 359.411 190.706 363.945 190.706 369.539C190.706 372.336 189.572 374.868 187.738 376.701L187.74 376.702L180.578 383.864L173.417 376.702L173.418 376.701Z" fill="#3D7FFC"/>
<path opacity="0.6" fill-rule="evenodd" clip-rule="evenodd" d="M180.901 112.265C179.628 110.992 178.84 109.233 178.84 107.29C178.84 103.404 181.99 100.255 185.875 100.255C189.76 100.255 192.91 103.404 192.91 107.29C192.91 109.233 192.122 110.992 190.849 112.265L190.85 112.266L185.875 117.24L180.901 112.266L180.901 112.265Z" fill="#3D7FFC"/>
<path fill-rule="evenodd" clip-rule="evenodd" d="M470.377 327.413C467.89 324.927 466.352 321.492 466.352 317.697C466.352 310.11 472.503 303.959 480.09 303.959C487.677 303.959 493.828 310.11 493.828 317.697C493.828 321.492 492.29 324.927 489.803 327.413L489.804 327.415L480.09 337.129L470.376 327.415L470.377 327.413Z" fill="#3D7FFC"/>
<path opacity="0.6" fill-rule="evenodd" clip-rule="evenodd" d="M463.131 247.648C461.674 246.192 460.773 244.179 460.773 241.957C460.773 237.512 464.376 233.909 468.82 233.909C473.265 233.909 476.868 237.512 476.868 241.957C476.868 244.179 475.966 246.191 474.51 247.648L474.511 247.649L468.821 253.339L463.13 247.649L463.131 247.648Z" fill="#3D7FFC"/>
<path fill-rule="evenodd" clip-rule="evenodd" d="M221.087 425.159C219.428 423.5 218.402 421.209 218.402 418.677C218.402 413.616 222.505 409.513 227.566 409.513C232.628 409.513 236.731 413.616 236.731 418.677C236.731 421.209 235.705 423.5 234.046 425.159L234.047 425.16L227.567 431.64L221.086 425.16L221.087 425.159Z" fill="#3D7FFC"/>
<path opacity="0.4" fill-rule="evenodd" clip-rule="evenodd" d="M428.595 127.915C426.353 125.673 424.966 122.576 424.966 119.155C424.966 112.314 430.511 106.769 437.352 106.769C444.192 106.769 449.737 112.314 449.737 119.155C449.737 122.576 448.351 125.673 446.108 127.914L446.11 127.916L437.352 136.674L428.594 127.916L428.595 127.915Z" fill="#3D7FFC"/>
<path opacity="0.4" fill-rule="evenodd" clip-rule="evenodd" d="M413.552 427.695C411.31 425.453 409.923 422.356 409.923 418.935C409.923 412.095 415.468 406.549 422.309 406.549C429.149 406.549 434.694 412.095 434.694 418.935C434.694 422.356 433.308 425.453 431.065 427.695L431.067 427.696L422.309 436.454L413.551 427.696L413.552 427.695Z" fill="#3D7FFC"/>
<g filter="url(#filter3_d_990_58682)">
<path d="M236.109 251.367C236.109 248.786 238.202 246.694 240.782 246.694H429.051C431.632 246.694 433.724 248.786 433.724 251.367V257.195H236.109V251.367Z" fill="#000C36"/>
<path d="M245.629 251.885C245.63 252.271 245.516 252.648 245.302 252.97C245.087 253.291 244.782 253.541 244.425 253.69C244.068 253.838 243.675 253.877 243.295 253.803C242.916 253.728 242.567 253.543 242.293 253.27C242.019 252.998 241.832 252.65 241.757 252.272C241.681 251.894 241.719 251.502 241.867 251.145C242.015 250.789 242.266 250.484 242.587 250.269C242.909 250.055 243.287 249.94 243.674 249.94C244.19 249.944 244.685 250.15 245.05 250.514C245.416 250.878 245.624 251.37 245.629 251.885Z" fill="#F66058"/>
<path d="M253.851 251.885C253.852 252.271 253.738 252.649 253.524 252.97C253.31 253.291 253.004 253.542 252.647 253.69C252.289 253.838 251.896 253.877 251.516 253.802C251.137 253.727 250.788 253.541 250.514 253.269C250.24 252.996 250.054 252.648 249.979 252.269C249.903 251.891 249.943 251.498 250.091 251.142C250.24 250.785 250.491 250.481 250.813 250.267C251.135 250.053 251.514 249.94 251.901 249.94C252.158 249.939 252.412 249.989 252.649 250.086C252.886 250.183 253.102 250.326 253.283 250.507C253.464 250.688 253.608 250.903 253.706 251.14C253.803 251.376 253.853 251.63 253.851 251.885Z" fill="#F9BD2E"/>
<path d="M262.281 251.885C262.282 252.271 262.168 252.648 261.954 252.97C261.74 253.291 261.435 253.541 261.078 253.69C260.72 253.838 260.327 253.877 259.948 253.803C259.568 253.728 259.219 253.543 258.945 253.27C258.671 252.998 258.485 252.65 258.409 252.272C258.333 251.894 258.372 251.502 258.519 251.145C258.667 250.789 258.918 250.484 259.239 250.269C259.561 250.055 259.939 249.94 260.326 249.94C260.843 249.944 261.337 250.15 261.703 250.514C262.069 250.878 262.276 251.37 262.281 251.885Z" fill="#3CC840"/>
<g filter="url(#filter4_dd_990_58682)">
<path d="M236.094 275.329H433.206V373.437C433.206 376.452 430.761 378.896 427.746 378.896H241.553C238.538 378.896 236.094 376.452 236.094 373.437V275.329Z" fill="white"/>
<mask id="mask1_990_58682" style="mask-type:alpha" maskUnits="userSpaceOnUse" x="244" y="287" width="85" height="73">
<rect x="328.902" y="359.515" width="84.884" height="71.9902" transform="rotate(-180 328.902 359.515)" fill="#75A3FA"/>
</mask>
<g mask="url(#mask1_990_58682)">
<rect opacity="0.88" x="258.367" y="287.579" width="70.1585" height="72.2846" rx="8.50407" fill="#C6DBFF"/>
<path d="M273.957 342.898C273.965 344.95 275.62 346.606 277.653 346.6L308.563 346.445C310.596 346.433 312.234 344.76 312.225 342.705L307.284 309.997L302.658 310.017C302.664 309.886 302.664 309.753 302.664 309.623C302.639 304.196 298.248 299.803 292.881 299.828C287.514 299.857 283.169 304.293 283.194 309.722C283.194 309.852 283.199 309.983 283.205 310.116L278.09 310.138L273.957 342.898ZM285.369 310.104C285.364 309.974 285.355 309.841 285.355 309.711C285.336 305.493 288.715 302.036 292.892 302.017C297.067 302 300.48 305.416 300.5 309.634C300.5 309.765 300.497 309.898 300.488 310.031L285.366 310.104H285.369Z" fill="#3D7FFC"/>
</g>
<path d="M236.434 256.825H433.328V275.652H236.434V256.825Z" fill="url(#paint5_linear_990_58682)"/>
<path d="M270.051 266.522C270.051 264.509 271.683 262.877 273.695 262.877H394.878C396.891 262.877 398.523 264.509 398.523 266.522C398.523 268.534 396.891 270.166 394.878 270.166H273.695C271.683 270.166 270.051 268.534 270.051 266.522Z" fill="white"/>
<path d="M386.676 262.877L394.876 262.877C396.889 262.877 398.521 264.509 398.521 266.522C398.521 268.534 396.889 270.166 394.876 270.166H386.676V262.877Z" fill="#76A5FF"/>
<path d="M402.164 266.066C402.164 264.808 403.184 263.789 404.442 263.789H406.264C407.522 263.789 408.542 264.808 408.542 266.066C408.542 267.324 407.522 268.344 406.264 268.344H404.442C403.184 268.344 402.164 267.324 402.164 266.066Z" fill="white"/>
<path d="M243.629 266.066C243.629 264.808 244.649 263.789 245.907 263.789H263.219C264.477 263.789 265.497 264.808 265.497 266.066C265.497 267.324 264.477 268.344 263.219 268.344H245.907C244.649 268.344 243.629 267.324 243.629 266.066Z" fill="#9BACBC"/>
<path d="M412.188 266.066C412.188 264.808 413.207 263.789 414.465 263.789H416.288C417.546 263.789 418.566 264.808 418.566 266.066C418.566 267.324 417.546 268.344 416.288 268.344H414.465C413.207 268.344 412.188 267.324 412.188 266.066Z" fill="white"/>
<path d="M422.211 266.066C422.211 264.808 423.231 263.789 424.489 263.789H426.311C427.569 263.789 428.589 264.808 428.589 266.066C428.589 267.324 427.569 268.344 426.311 268.344H424.489C423.231 268.344 422.211 267.324 422.211 266.066Z" fill="white"/>
</g>
<path d="M394.221 268.239L393.012 267.019C393.22 266.722 393.339 266.365 393.339 265.993C393.339 265.755 393.301 265.517 393.213 265.301C393.124 265.078 392.99 264.885 392.82 264.714C392.657 264.543 392.457 264.409 392.242 264.32C392.019 264.231 391.789 264.193 391.552 264.193C391.315 264.193 391.085 264.231 390.87 264.327C390.655 264.416 390.455 264.55 390.292 264.721C390.122 264.885 389.988 265.086 389.899 265.301C389.81 265.517 389.773 265.755 389.773 265.986C389.773 266.224 389.81 266.454 389.899 266.677C389.988 266.893 390.122 267.094 390.292 267.257C390.455 267.428 390.655 267.562 390.87 267.651C391.085 267.741 391.323 267.785 391.56 267.778C391.938 267.778 392.301 267.659 392.605 267.436L393.813 268.648L394.228 268.231L394.221 268.239ZM392.034 267.146C391.886 267.205 391.723 267.242 391.56 267.242C391.397 267.242 391.234 267.213 391.085 267.153C390.937 267.094 390.796 266.997 390.685 266.878C390.567 266.766 390.478 266.625 390.411 266.476C390.344 266.328 390.322 266.164 390.322 266C390.322 265.837 390.352 265.673 390.411 265.525C390.47 265.376 390.567 265.234 390.678 265.123C390.789 265.004 390.93 264.915 391.078 264.855C391.226 264.796 391.389 264.759 391.552 264.759C391.715 264.759 391.878 264.788 392.027 264.855C392.175 264.922 392.316 265.011 392.427 265.123C392.538 265.242 392.634 265.376 392.694 265.525C392.753 265.673 392.79 265.837 392.783 266C392.783 266.164 392.753 266.328 392.686 266.476C392.627 266.625 392.531 266.766 392.419 266.878C392.308 266.99 392.167 267.086 392.019 267.146H392.034Z" fill="white"/>
<path d="M277.481 267.014C277.631 267.245 277.978 267.551 278.349 267.551C278.766 267.551 279.067 267.33 279.067 266.938C279.067 266.577 278.776 266.401 278.455 266.261L277.943 266.04C277.556 265.874 277.36 265.618 277.36 265.196C277.36 264.614 277.893 264.308 278.425 264.308C279.002 264.308 279.313 264.679 279.374 264.754L279.153 265.005C279.002 264.83 278.771 264.634 278.405 264.634C278.033 264.634 277.742 264.83 277.742 265.171C277.742 265.533 277.993 265.668 278.224 265.764L278.696 265.964C279.118 266.145 279.454 266.386 279.454 266.883C279.454 267.496 278.977 267.877 278.304 267.877C277.777 267.877 277.401 267.526 277.225 267.26L277.481 267.014ZM282.071 267.481C281.855 267.737 281.514 267.867 281.052 267.867C280.359 267.867 279.892 267.39 279.892 266.632C279.892 265.964 280.349 265.417 281.052 265.417C281.7 265.417 282.146 265.884 282.146 266.532C282.146 266.617 282.131 266.727 282.131 266.727H280.274C280.279 267.214 280.615 267.556 281.117 267.556C281.579 267.556 281.91 267.26 281.91 267.26L282.071 267.481ZM281.77 266.446C281.77 266.115 281.554 265.733 281.037 265.728C280.565 265.723 280.309 266.08 280.279 266.446H281.77ZM284.126 267.817L284.121 267.506C284.031 267.606 283.795 267.867 283.348 267.867C282.901 267.867 282.54 267.581 282.54 267.149C282.54 266.748 282.836 266.466 283.478 266.436L284.116 266.406V266.301C284.116 265.904 283.85 265.728 283.494 265.728C283.142 265.728 282.861 265.869 282.796 265.914L282.67 265.648C282.826 265.558 283.137 265.417 283.509 265.417C284.196 265.417 284.493 265.774 284.493 266.436V267.817H284.126ZM284.121 266.677L283.509 266.707C283.072 266.727 282.926 266.903 282.926 267.144C282.926 267.38 283.122 267.571 283.423 267.571C283.745 267.571 284.011 267.385 284.121 267.235V266.677ZM285.198 267.817V265.462H285.57V265.864C285.68 265.578 285.906 265.417 286.167 265.417C286.323 265.417 286.418 265.457 286.418 265.457L286.393 265.809C286.393 265.809 286.383 265.809 286.378 265.809C286.298 265.774 286.192 265.764 286.122 265.764C285.906 265.764 285.766 265.914 285.726 265.969C285.63 266.105 285.57 266.24 285.57 266.597V267.817H285.198ZM288.775 267.496C288.665 267.621 288.414 267.872 287.822 267.872C287.189 267.872 286.652 267.42 286.652 266.642C286.652 265.899 287.219 265.417 287.842 265.417C288.364 265.417 288.59 265.588 288.75 265.733L288.585 266.025C288.429 265.879 288.223 265.753 287.857 265.753C287.4 265.753 287.033 266.095 287.033 266.637C287.033 267.174 287.395 267.536 287.892 267.536C288.379 267.536 288.615 267.224 288.615 267.224L288.775 267.496ZM290.38 265.417C291.053 265.417 291.214 265.829 291.214 266.391V267.817H290.842V266.416C290.842 265.979 290.702 265.738 290.265 265.738C289.843 265.738 289.632 266.085 289.632 266.491V267.817H289.261V264.353H289.632V265.844H289.647C289.753 265.593 290.044 265.417 290.38 265.417ZM293.098 267.817V265.779H292.757V265.467H293.098V265.191C293.098 264.704 293.264 264.303 293.811 264.303C294.007 264.303 294.138 264.338 294.158 264.348L294.123 264.639C294.123 264.639 293.987 264.599 293.862 264.599C293.515 264.599 293.47 264.865 293.47 265.166V265.467H294.052V265.779H293.47V267.817H293.098ZM295.407 267.867C294.719 267.867 294.182 267.37 294.182 266.647C294.182 265.929 294.719 265.417 295.407 265.417C296.095 265.417 296.637 265.929 296.637 266.647C296.637 267.37 296.095 267.867 295.407 267.867ZM295.407 267.541C295.929 267.541 296.256 267.139 296.256 266.637C296.256 266.13 295.929 265.738 295.407 265.738C294.885 265.738 294.564 266.13 294.564 266.637C294.564 267.139 294.885 267.541 295.407 267.541ZM297.227 267.817V265.462H297.599V265.864C297.709 265.578 297.935 265.417 298.196 265.417C298.352 265.417 298.447 265.457 298.447 265.457L298.422 265.809C298.422 265.809 298.412 265.809 298.407 265.809C298.327 265.774 298.221 265.764 298.151 265.764C297.935 265.764 297.794 265.914 297.754 265.969C297.659 266.105 297.599 266.24 297.599 266.597V267.817H297.227ZM301.287 267.817L301.282 267.506C301.191 267.606 300.955 267.867 300.508 267.867C300.062 267.867 299.7 267.581 299.7 267.149C299.7 266.748 299.996 266.466 300.639 266.436L301.277 266.406V266.301C301.277 265.904 301.01 265.728 300.654 265.728C300.303 265.728 300.021 265.869 299.956 265.914L299.831 265.648C299.986 265.558 300.298 265.417 300.669 265.417C301.357 265.417 301.653 265.774 301.653 266.436V267.817H301.287ZM301.282 266.677L300.669 266.707C300.232 266.727 300.087 266.903 300.087 267.144C300.087 267.38 300.282 267.571 300.584 267.571C300.905 267.571 301.171 267.385 301.282 267.235V266.677ZM303.478 265.417C304.151 265.417 304.312 265.829 304.312 266.391V267.817H303.94V266.416C303.94 265.979 303.8 265.738 303.363 265.738C302.941 265.738 302.73 266.085 302.73 266.491V267.817H302.359V265.462H302.73V265.844H302.745C302.851 265.593 303.142 265.417 303.478 265.417ZM305.615 267.817L304.656 265.457L305.043 265.462L305.806 267.4L306.554 265.457L306.941 265.462L305.791 268.244C305.61 268.675 305.45 268.791 305.199 268.791C304.988 268.791 304.832 268.711 304.832 268.711L304.907 268.394C304.907 268.394 305.038 268.449 305.143 268.449C305.264 268.449 305.349 268.444 305.485 268.123L305.615 267.817ZM308.392 267.792C308.281 267.842 308.146 267.867 307.985 267.867C307.423 267.867 307.423 267.34 307.423 266.913V265.779H307.071V265.467H307.423V264.739H307.799V265.467H308.377V265.779H307.794V266.989C307.794 267.179 307.794 267.345 307.87 267.455C307.91 267.516 308 267.546 308.111 267.546C308.256 267.546 308.372 267.491 308.372 267.491L308.392 267.792ZM310.013 265.417C310.686 265.417 310.846 265.829 310.846 266.391V267.817H310.475V266.416C310.475 265.979 310.334 265.738 309.898 265.738C309.476 265.738 309.265 266.085 309.265 266.491V267.817H308.893V264.353H309.265V265.844H309.28C309.385 265.593 309.677 265.417 310.013 265.417ZM312.072 264.654C312.067 264.8 311.962 264.91 311.811 264.91C311.656 264.91 311.545 264.8 311.545 264.654C311.545 264.508 311.656 264.398 311.811 264.398C311.962 264.398 312.072 264.508 312.072 264.654ZM311.626 267.817V265.462H311.997V267.817H311.626ZM313.893 265.417C314.566 265.417 314.726 265.829 314.726 266.391V267.817H314.355V266.416C314.355 265.979 314.214 265.738 313.777 265.738C313.356 265.738 313.145 266.085 313.145 266.491V267.817H312.773V265.462H313.145V265.844H313.16C313.265 265.593 313.557 265.417 313.893 265.417ZM317.304 267.355H317.294C317.123 267.636 316.837 267.802 316.435 267.802C315.813 267.802 315.3 267.395 315.3 266.612C315.3 265.874 315.813 265.417 316.425 265.417C316.857 265.417 317.153 265.623 317.299 265.869H317.309L317.304 265.462H317.675V267.315C317.675 267.842 317.6 268.123 317.449 268.329C317.299 268.54 317.012 268.811 316.415 268.811C315.823 268.811 315.431 268.48 315.396 268.454L315.582 268.188C315.737 268.309 316.069 268.495 316.435 268.495C317.083 268.495 317.304 268.073 317.304 267.486V267.355ZM316.5 267.491C317.038 267.491 317.319 267.099 317.319 266.607C317.319 266.07 316.997 265.733 316.49 265.733C315.958 265.733 315.682 266.12 315.682 266.607C315.682 267.099 315.968 267.491 316.5 267.491ZM319.101 267.596C319.101 267.757 318.981 267.867 318.815 267.867C318.649 267.867 318.529 267.757 318.529 267.596C318.529 267.425 318.649 267.315 318.815 267.315C318.981 267.315 319.101 267.425 319.101 267.596ZM320.622 267.596C320.622 267.757 320.502 267.867 320.336 267.867C320.17 267.867 320.05 267.757 320.05 267.596C320.05 267.425 320.17 267.315 320.336 267.315C320.502 267.315 320.622 267.425 320.622 267.596ZM322.143 267.596C322.143 267.757 322.023 267.867 321.857 267.867C321.691 267.867 321.571 267.757 321.571 267.596C321.571 267.425 321.691 267.315 321.857 267.315C322.023 267.315 322.143 267.425 322.143 267.596Z" fill="#8599AC"/>
<path d="M351.368 354.765C351.368 355.976 350.72 356.862 350.055 357.391C349.458 357.869 348.486 358.193 347.838 358.244L347.804 359.182H346.576L346.61 358.278C345.331 358.227 343.933 357.613 343.08 356.539L344.342 354.833C344.837 355.618 346.064 356.215 346.798 356.232L346.849 353.384L346.269 353.145C345.621 352.872 345.11 352.617 344.734 352.31C344.359 352.02 343.541 351.269 343.541 349.871C343.541 348.746 344.035 347.944 344.666 347.399C345.246 346.887 346.133 346.597 347.053 346.512L347.088 345.591H348.315L348.298 346.546C349.321 346.631 350.481 347.109 351.163 347.927L350.106 349.615C349.526 348.967 348.742 348.558 348.111 348.473L348.042 351.201L349.117 351.662C350.498 352.276 351.368 353.265 351.368 354.765ZM347.036 348.456C346.388 348.507 345.928 348.933 345.928 349.598C345.928 350.229 346.371 350.536 346.798 350.741L346.985 350.826L347.036 348.456ZM349.014 355.089C349.014 354.441 348.707 354.117 348.196 353.861L347.923 353.725L347.872 356.266C348.401 356.215 349.014 355.754 349.014 355.089Z" fill="#76A5FF"/>
<path d="M352.203 329.991H349.346V329.986C349.187 329.984 349.033 329.936 348.905 329.85C348.776 329.763 348.68 329.642 348.628 329.502C348.619 329.481 348.612 329.459 348.606 329.437L347.767 326.932L347.746 326.869C347.71 326.774 347.643 326.693 347.554 326.637C347.464 326.58 347.358 326.552 347.25 326.556C347.142 326.56 347.039 326.596 346.955 326.659C346.87 326.722 346.81 326.808 346.782 326.905L345.934 329.428C345.934 329.429 345.934 329.431 345.934 329.432C345.927 329.459 345.918 329.484 345.908 329.51C345.855 329.648 345.758 329.768 345.63 329.853C345.501 329.939 345.348 329.985 345.19 329.986V329.992H342.33C342.206 330.012 342.093 330.073 342.012 330.163C341.932 330.254 341.889 330.368 341.891 330.486C341.89 330.562 341.908 330.637 341.943 330.706C341.978 330.774 342.029 330.835 342.092 330.883L342.116 330.9L344.336 332.474C344.442 332.545 344.528 332.638 344.587 332.746C344.646 332.854 344.676 332.973 344.676 333.095C344.675 333.151 344.668 333.207 344.655 333.262C344.645 333.304 344.631 333.345 344.614 333.385L343.771 335.904V335.913L343.765 335.931C343.752 335.978 343.745 336.026 343.745 336.074C343.743 336.138 343.754 336.202 343.779 336.262C343.804 336.322 343.841 336.378 343.888 336.424C343.936 336.471 343.993 336.508 344.056 336.534C344.12 336.56 344.188 336.574 344.257 336.575C344.346 336.576 344.434 336.553 344.511 336.51L344.601 336.448L346.806 334.891L346.854 334.856C346.976 334.777 347.121 334.734 347.27 334.732C347.419 334.731 347.564 334.772 347.688 334.848C347.715 334.864 347.741 334.882 347.765 334.902L349.957 336.454L350.019 336.498C350.1 336.545 350.193 336.57 350.288 336.569C350.357 336.568 350.425 336.553 350.488 336.527C350.551 336.501 350.608 336.464 350.656 336.418C350.703 336.371 350.74 336.316 350.765 336.256C350.79 336.196 350.801 336.132 350.799 336.068C350.8 336.018 350.792 335.968 350.776 335.919C350.776 335.912 350.771 335.904 350.769 335.895L349.923 333.368C349.909 333.335 349.898 333.301 349.89 333.267C349.854 333.129 349.861 332.984 349.908 332.849C349.956 332.714 350.043 332.594 350.159 332.503C350.178 332.487 350.198 332.474 350.217 332.461L352.414 330.907L352.48 330.859C352.537 330.812 352.583 330.753 352.614 330.688C352.645 330.622 352.66 330.552 352.66 330.48C352.66 330.361 352.614 330.246 352.53 330.156C352.446 330.066 352.33 330.007 352.203 329.991Z" fill="#FECE4D"/>
<path d="M366.555 329.991H363.698V329.986C363.539 329.984 363.385 329.936 363.257 329.85C363.129 329.763 363.032 329.642 362.981 329.502C362.972 329.481 362.964 329.459 362.958 329.437L362.12 326.932L362.098 326.869C362.062 326.774 361.994 326.693 361.905 326.637C361.816 326.58 361.709 326.552 361.602 326.556C361.494 326.56 361.39 326.596 361.306 326.659C361.222 326.722 361.162 326.808 361.134 326.905L360.285 329.428C360.285 329.429 360.285 329.431 360.285 329.432C360.279 329.459 360.27 329.484 360.259 329.51C360.207 329.648 360.11 329.768 359.981 329.853C359.853 329.939 359.7 329.985 359.542 329.986V329.992H356.682C356.557 330.012 356.444 330.073 356.364 330.163C356.283 330.254 356.24 330.368 356.242 330.486C356.242 330.562 356.26 330.637 356.294 330.706C356.329 330.774 356.381 330.835 356.444 330.883L356.467 330.9L358.688 332.474C358.818 332.562 358.918 332.684 358.975 332.825C359.031 332.966 359.042 333.119 359.006 333.265C358.997 333.307 358.983 333.349 358.965 333.389L358.123 335.907V335.916L358.117 335.934C358.103 335.981 358.096 336.029 358.096 336.078C358.094 336.142 358.106 336.206 358.13 336.266C358.155 336.326 358.192 336.381 358.24 336.427C358.288 336.474 358.345 336.511 358.408 336.537C358.471 336.563 358.539 336.577 358.608 336.578C358.698 336.579 358.786 336.556 358.863 336.513L358.953 336.451L361.157 334.894L361.206 334.859C361.328 334.78 361.473 334.737 361.621 334.736C361.77 334.735 361.916 334.775 362.04 334.852C362.067 334.868 362.093 334.886 362.117 334.906L364.309 336.457L364.371 336.502C364.451 336.549 364.545 336.573 364.64 336.573C364.709 336.571 364.777 336.557 364.84 336.531C364.903 336.505 364.96 336.467 365.007 336.421C365.055 336.374 365.092 336.319 365.116 336.259C365.141 336.199 365.153 336.136 365.151 336.071C365.151 336.021 365.143 335.971 365.128 335.923C365.128 335.916 365.122 335.907 365.12 335.899L364.274 333.371C364.26 333.338 364.249 333.304 364.241 333.27C364.225 333.211 364.217 333.15 364.217 333.09C364.216 332.978 364.242 332.868 364.292 332.767C364.342 332.666 364.416 332.577 364.507 332.505C364.526 332.49 364.546 332.477 364.565 332.463L366.762 330.91L366.828 330.862C366.885 330.814 366.931 330.756 366.962 330.69C366.993 330.625 367.008 330.554 367.007 330.483C367.009 330.364 366.963 330.248 366.88 330.158C366.797 330.067 366.682 330.008 366.555 329.991Z" fill="#FECE4D"/>
<path d="M380.903 329.991H378.046V329.986C377.887 329.984 377.733 329.936 377.605 329.85C377.476 329.763 377.38 329.642 377.328 329.502C377.319 329.481 377.312 329.459 377.306 329.437L376.467 326.932L376.446 326.869C376.41 326.774 376.342 326.693 376.253 326.637C376.163 326.58 376.057 326.552 375.949 326.556C375.842 326.56 375.738 326.596 375.654 326.659C375.57 326.722 375.509 326.808 375.481 326.905L374.633 329.428C374.633 329.428 374.633 329.428 374.633 329.432C374.626 329.459 374.617 329.484 374.607 329.51C374.554 329.648 374.457 329.768 374.329 329.853C374.201 329.939 374.047 329.985 373.89 329.986V329.992H371.029C370.905 330.012 370.792 330.073 370.712 330.163C370.631 330.254 370.588 330.368 370.59 330.486C370.589 330.562 370.607 330.637 370.642 330.706C370.677 330.775 370.728 330.835 370.792 330.883L370.815 330.9L373.036 332.474C373.166 332.562 373.266 332.684 373.322 332.825C373.379 332.966 373.39 333.119 373.354 333.265C373.344 333.307 373.331 333.349 373.313 333.389L372.471 335.907V335.916L372.464 335.934C372.451 335.981 372.444 336.029 372.444 336.078C372.442 336.142 372.453 336.206 372.478 336.266C372.503 336.326 372.54 336.381 372.588 336.427C372.635 336.474 372.692 336.511 372.756 336.537C372.819 336.563 372.887 336.577 372.956 336.578C373.046 336.579 373.134 336.557 373.211 336.513L373.3 336.451L375.505 334.894L375.553 334.859C375.675 334.78 375.82 334.737 375.969 334.736C376.118 334.735 376.263 334.775 376.387 334.852C376.415 334.868 376.44 334.886 376.464 334.906L378.656 336.457L378.718 336.502C378.799 336.549 378.892 336.573 378.987 336.573C379.056 336.571 379.124 336.557 379.187 336.531C379.25 336.505 379.307 336.467 379.355 336.421C379.402 336.374 379.439 336.319 379.464 336.259C379.489 336.199 379.501 336.136 379.499 336.071C379.499 336.021 379.491 335.971 379.475 335.923C379.475 335.916 379.47 335.907 379.468 335.899L378.622 333.371C378.608 333.338 378.597 333.304 378.589 333.27C378.574 333.211 378.566 333.15 378.566 333.09C378.565 332.978 378.591 332.868 378.641 332.767C378.691 332.666 378.764 332.577 378.856 332.505C378.874 332.49 378.894 332.477 378.914 332.463L381.11 330.91L381.178 330.862C381.235 330.814 381.28 330.756 381.311 330.69C381.342 330.625 381.358 330.554 381.357 330.483C381.358 330.363 381.313 330.248 381.229 330.157C381.146 330.067 381.03 330.008 380.903 329.991Z" fill="#FECE4D"/>
<path d="M395.255 329.991H392.397V329.986C392.239 329.984 392.085 329.936 391.956 329.85C391.828 329.763 391.731 329.642 391.68 329.502C391.671 329.481 391.663 329.459 391.657 329.437L390.819 326.932L390.797 326.869C390.761 326.774 390.694 326.693 390.604 326.637C390.515 326.58 390.409 326.552 390.301 326.556C390.193 326.56 390.09 326.596 390.005 326.659C389.921 326.722 389.861 326.808 389.833 326.905L388.985 329.428C388.985 329.429 388.985 329.431 388.985 329.432C388.978 329.459 388.969 329.484 388.959 329.51C388.906 329.648 388.809 329.768 388.681 329.853C388.552 329.939 388.399 329.985 388.241 329.986V329.992H385.381C385.256 330.012 385.144 330.073 385.063 330.163C384.983 330.254 384.939 330.368 384.941 330.486C384.941 330.562 384.958 330.637 384.993 330.706C385.028 330.775 385.08 330.835 385.143 330.883L385.167 330.9L387.387 332.474C387.518 332.562 387.617 332.684 387.674 332.825C387.731 332.966 387.742 333.119 387.706 333.265C387.696 333.307 387.682 333.349 387.664 333.389L386.822 335.907V335.916L386.815 335.934C386.801 335.981 386.795 336.029 386.794 336.078C386.792 336.142 386.804 336.206 386.829 336.266C386.853 336.326 386.891 336.381 386.938 336.427C386.986 336.474 387.043 336.511 387.106 336.537C387.169 336.563 387.237 336.577 387.307 336.578C387.396 336.579 387.484 336.556 387.561 336.513L387.651 336.451L389.855 334.894L389.904 334.859C390.026 334.78 390.171 334.737 390.32 334.736C390.468 334.735 390.614 334.775 390.738 334.852C390.766 334.868 390.792 334.886 390.816 334.906L393.008 336.457L393.07 336.502C393.15 336.549 393.244 336.573 393.339 336.573C393.408 336.571 393.476 336.557 393.539 336.531C393.602 336.505 393.659 336.467 393.706 336.421C393.754 336.374 393.791 336.319 393.816 336.259C393.84 336.199 393.852 336.136 393.85 336.071C393.85 336.021 393.843 335.971 393.827 335.923C393.827 335.916 393.821 335.907 393.819 335.899L392.973 333.371C392.959 333.338 392.948 333.304 392.94 333.27C392.924 333.211 392.917 333.15 392.917 333.09C392.916 332.978 392.941 332.868 392.991 332.767C393.041 332.666 393.115 332.577 393.206 332.505C393.225 332.49 393.245 332.477 393.265 332.463L395.461 330.91L395.527 330.862C395.585 330.814 395.63 330.756 395.661 330.69C395.692 330.625 395.708 330.554 395.707 330.483C395.708 330.364 395.663 330.248 395.58 330.158C395.497 330.067 395.381 330.008 395.255 329.991Z" fill="#FECE4D"/>
<path d="M409.603 329.991H406.746V329.986C406.587 329.984 406.433 329.936 406.305 329.85C406.176 329.763 406.08 329.642 406.028 329.502C406.019 329.481 406.012 329.459 406.006 329.437L405.167 326.932L405.146 326.869C405.11 326.774 405.042 326.693 404.953 326.637C404.864 326.58 404.757 326.552 404.649 326.556C404.542 326.56 404.438 326.596 404.354 326.659C404.27 326.722 404.209 326.808 404.182 326.905L403.333 329.428C403.333 329.428 403.333 329.428 403.333 329.432C403.326 329.459 403.318 329.484 403.307 329.51C403.255 329.648 403.157 329.768 403.029 329.853C402.901 329.939 402.747 329.985 402.59 329.986V329.992H399.729C399.604 330.012 399.491 330.073 399.411 330.163C399.33 330.254 399.287 330.368 399.289 330.486C399.289 330.562 399.306 330.637 399.341 330.706C399.376 330.774 399.427 330.835 399.491 330.883L399.514 330.9L401.738 332.472C401.868 332.561 401.968 332.683 402.024 332.823C402.081 332.964 402.092 333.117 402.056 333.263C402.046 333.306 402.033 333.347 402.015 333.387L401.173 335.906V335.914L401.166 335.933C401.152 335.979 401.145 336.027 401.145 336.076C401.143 336.14 401.154 336.204 401.179 336.264C401.204 336.324 401.241 336.379 401.289 336.426C401.336 336.472 401.393 336.51 401.457 336.535C401.52 336.561 401.588 336.575 401.657 336.577C401.747 336.577 401.835 336.554 401.912 336.511L402.001 336.45L404.206 334.892L404.254 334.857C404.376 334.778 404.521 334.736 404.67 334.734C404.819 334.733 404.964 334.773 405.088 334.85C405.116 334.866 405.141 334.884 405.165 334.904L407.357 336.456L407.419 336.5C407.5 336.547 407.593 336.572 407.688 336.571C407.757 336.569 407.825 336.555 407.888 336.529C407.951 336.503 408.008 336.466 408.056 336.419C408.103 336.373 408.14 336.318 408.165 336.258C408.19 336.198 408.202 336.134 408.2 336.07C408.2 336.019 408.192 335.97 408.176 335.921C408.176 335.914 408.171 335.905 408.168 335.897L407.322 333.369C407.308 333.337 407.297 333.303 407.289 333.268C407.274 333.209 407.266 333.149 407.266 333.088C407.265 332.977 407.291 332.867 407.341 332.766C407.391 332.664 407.464 332.575 407.556 332.503C407.575 332.488 407.594 332.475 407.614 332.462L409.81 330.908L409.877 330.86C409.934 330.813 409.98 330.754 410.011 330.688C410.041 330.623 410.057 330.552 410.056 330.481C410.057 330.362 410.011 330.247 409.928 330.157C409.845 330.067 409.73 330.008 409.603 329.991Z" fill="#FECE4D"/>
<rect x="355.254" y="347.715" width="23.3862" height="7.79539" rx="3.8977" fill="#76A5FF"/>
<rect x="341.887" y="287.58" width="22.2725" height="5.56814" rx="2.78407" fill="#D2DCE4"/>
<rect x="341.887" y="299.829" width="67.9313" height="7.79539" rx="3.8977" fill="#8599AC"/>
<rect x="341.887" y="313.192" width="47.886" height="7.79539" rx="3.8977" fill="#8599AC"/>
</g>
<defs>
<filter id="filter0_d_990_58682" x="197.873" y="153.939" width="209.191" height="142.078" filterUnits="userSpaceOnUse" color-interpolation-filters="sRGB">
<feFlood flood-opacity="0" result="BackgroundImageFix"/>
<feColorMatrix in="SourceAlpha" type="matrix" values="0 0 0 0 0 0 0 0 0 0 0 0 0 0 0 0 0 0 127 0" result="hardAlpha"/>
<feOffset dx="3.57205" dy="3.57205"/>
<feGaussianBlur stdDeviation="3.57205"/>
<feColorMatrix type="matrix" values="0 0 0 0 0.0941177 0 0 0 0 0.188235 0 0 0 0 0.247059 0 0 0 0.05 0"/>
<feBlend mode="normal" in2="BackgroundImageFix" result="effect1_dropShadow_990_58682"/>
<feBlend mode="normal" in="SourceGraphic" in2="effect1_dropShadow_990_58682" result="shape"/>
</filter>
<filter id="filter1_d_990_58682" x="195.064" y="161.242" width="207.665" height="130.44" filterUnits="userSpaceOnUse" color-interpolation-filters="sRGB">
<feFlood flood-opacity="0" result="BackgroundImageFix"/>
<feColorMatrix in="SourceAlpha" type="matrix" values="0 0 0 0 0 0 0 0 0 0 0 0 0 0 0 0 0 0 127 0" result="hardAlpha"/>
<feOffset/>
<feGaussianBlur stdDeviation="3.19075"/>
<feColorMatrix type="matrix" values="0 0 0 0 0 0 0 0 0 0.0486432 0 0 0 0 0.221106 0 0 0 0.06 0"/>
<feBlend mode="normal" in2="BackgroundImageFix" result="effect1_dropShadow_990_58682"/>
<feBlend mode="normal" in="SourceGraphic" in2="effect1_dropShadow_990_58682" result="shape"/>
</filter>
<filter id="filter2_dd_990_58682" x="147.036" y="199.22" width="209.994" height="142.771" filterUnits="userSpaceOnUse" color-interpolation-filters="sRGB">
<feFlood flood-opacity="0" result="BackgroundImageFix"/>
<feColorMatrix in="SourceAlpha" type="matrix" values="0 0 0 0 0 0 0 0 0 0 0 0 0 0 0 0 0 0 127 0" result="hardAlpha"/>
<feOffset dy="2.46446"/>
<feGaussianBlur stdDeviation="3.08057"/>
<feColorMatrix type="matrix" values="0 0 0 0 0.607843 0 0 0 0 0.67451 0 0 0 0 0.737255 0 0 0 0.35 0"/>
<feBlend mode="normal" in2="BackgroundImageFix" result="effect1_dropShadow_990_58682"/>
<feColorMatrix in="SourceAlpha" type="matrix" values="0 0 0 0 0 0 0 0 0 0 0 0 0 0 0 0 0 0 127 0" result="hardAlpha"/>
<feOffset dy="1.23223"/>
<feGaussianBlur stdDeviation="3.69669"/>
<feColorMatrix type="matrix" values="0 0 0 0 0.89625 0 0 0 0 0.930414 0 0 0 0 0.995833 0 0 0 0.5 0"/>
<feBlend mode="normal" in2="effect1_dropShadow_990_58682" result="effect2_dropShadow_990_58682"/>
<feBlend mode="normal" in="SourceGraphic" in2="effect2_dropShadow_990_58682" result="shape"/>
</filter>
<filter id="filter3_d_990_58682" x="168.401" y="204.789" width="311.524" height="246.098" filterUnits="userSpaceOnUse" color-interpolation-filters="sRGB">
<feFlood flood-opacity="0" result="BackgroundImageFix"/>
<feColorMatrix in="SourceAlpha" type="matrix" values="0 0 0 0 0 0 0 0 0 0 0 0 0 0 0 0 0 0 127 0" result="hardAlpha"/>
<feOffset dx="-10.7448" dy="15.0427"/>
<feGaussianBlur stdDeviation="28.4737"/>
<feColorMatrix type="matrix" values="0 0 0 0 0 0 0 0 0 0.0898333 0 0 0 0 0.320833 0 0 0 0.08 0"/>
<feBlend mode="normal" in2="BackgroundImageFix" result="effect1_dropShadow_990_58682"/>
<feBlend mode="normal" in="SourceGraphic" in2="effect1_dropShadow_990_58682" result="shape"/>
</filter>
<filter id="filter4_dd_990_58682" x="226.539" y="247.271" width="227.263" height="152.1" filterUnits="userSpaceOnUse" color-interpolation-filters="sRGB">
<feFlood flood-opacity="0" result="BackgroundImageFix"/>
<feColorMatrix in="SourceAlpha" type="matrix" values="0 0 0 0 0 0 0 0 0 0 0 0 0 0 0 0 0 0 127 0" result="hardAlpha"/>
<feOffset dx="6.82461" dy="6.82461"/>
<feGaussianBlur stdDeviation="6.82461"/>
<feColorMatrix type="matrix" values="0 0 0 0 0 0 0 0 0 0.296699 0 0 0 0 0.858629 0 0 0 0.08 0"/>
<feBlend mode="normal" in2="BackgroundImageFix" result="effect1_dropShadow_990_58682"/>
<feColorMatrix in="SourceAlpha" type="matrix" values="0 0 0 0 0 0 0 0 0 0 0 0 0 0 0 0 0 0 127 0" result="hardAlpha"/>
<feOffset/>
<feGaussianBlur stdDeviation="4.77723"/>
<feComposite in2="hardAlpha" operator="out"/>
<feColorMatrix type="matrix" values="0 0 0 0 0.0354167 0 0 0 0 0.105426 0 0 0 0 0.2125 0 0 0 0.07 0"/>
<feBlend mode="normal" in2="effect1_dropShadow_990_58682" result="effect2_dropShadow_990_58682"/>
<feBlend mode="normal" in="SourceGraphic" in2="effect2_dropShadow_990_58682" result="shape"/>
</filter>
<radialGradient id="paint0_radial_990_58682" cx="0" cy="0" r="1" gradientUnits="userSpaceOnUse" gradientTransform="translate(64.2557 251.502) rotate(-13.0312) scale(250.967 292.51)">
<stop stop-color="#3D7FFC"/>
<stop offset="1" stop-color="#E7EEFF"/>
</radialGradient>
<linearGradient id="paint1_linear_990_58682" x1="387.19" y1="85.2037" x2="387.188" y2="85.2276" gradientUnits="userSpaceOnUse">
<stop stop-color="#3D7FFC"/>
<stop offset="1" stop-color="#3D7FFC" stop-opacity="0"/>
</linearGradient>
<radialGradient id="paint2_radial_990_58682" cx="0" cy="0" r="1" gradientUnits="userSpaceOnUse" gradientTransform="translate(563.409 175.161) rotate(135.311) scale(278.592 213.661)">
<stop stop-color="#3D7FFC"/>
<stop offset="1" stop-color="#E7EEFF"/>
</radialGradient>
<linearGradient id="paint3_linear_990_58682" x1="391.168" y1="86.4048" x2="390.875" y2="87.9422" gradientUnits="userSpaceOnUse">
<stop stop-color="#3D7FFC"/>
<stop offset="1" stop-color="#3D7FFC" stop-opacity="0"/>
</linearGradient>
<linearGradient id="paint4_linear_990_58682" x1="387.892" y1="84.5565" x2="387.616" y2="86.2452" gradientUnits="userSpaceOnUse">
<stop stop-color="#3D7FFC"/>
<stop offset="1" stop-color="#3D7FFC" stop-opacity="0"/>
</linearGradient>
<linearGradient id="paint5_linear_990_58682" x1="433.207" y1="263.636" x2="273.958" y2="264.193" gradientUnits="userSpaceOnUse">
<stop stop-color="#C6DBFF"/>
<stop offset="1" stop-color="white"/>
</linearGradient>
</defs>
</svg>
