<svg width="588" height="311" viewBox="0 0 588 311" fill="none" xmlns="http://www.w3.org/2000/svg">
<rect width="588" height="311" rx="5" fill="#F5F8FF"/>
<g opacity="0.8">
<g filter="url(#filter0_dd_961_55815)">
<rect x="355.98" y="131.217" width="115.915" height="73.7639" rx="3.63399" fill="white"/>
</g>
<rect x="423.047" y="148.914" width="19.3072" height="4.82681" rx="2.41341" fill="#D2DCE4"/>
<rect opacity="0.88" x="364.363" y="148.914" width="51.2285" height="47.5028" rx="5.32248" fill="#C6DBFF"/>
<path d="M378.332 184.252C378.337 185.537 379.373 186.573 380.645 186.57L399.991 186.472C401.263 186.465 402.288 185.418 402.283 184.132L399.19 163.66L396.295 163.673C396.299 163.591 396.299 163.508 396.299 163.426C396.283 160.03 393.535 157.28 390.176 157.296C386.817 157.314 384.097 160.09 384.113 163.488C384.113 163.57 384.117 163.651 384.12 163.735L380.919 163.749L378.332 184.252ZM385.475 163.728C385.471 163.646 385.466 163.563 385.466 163.481C385.454 160.841 387.569 158.678 390.183 158.666C392.796 158.655 394.932 160.793 394.944 163.433C394.944 163.515 394.943 163.598 394.937 163.682L385.473 163.728H385.475Z" fill="#76A5FF"/>
<path d="M369.602 138.502C369.602 139.835 368.503 140.934 367.17 140.934C365.838 140.934 364.738 139.835 364.738 138.502C364.738 137.17 365.838 136.07 367.17 136.07C368.503 136.07 369.602 137.17 369.602 138.502Z" fill="#F66058"/>
<path d="M377.543 138.502C377.543 139.835 376.444 140.934 375.111 140.934C373.779 140.934 372.68 139.835 372.68 138.502C372.68 137.17 373.779 136.07 375.111 136.07C376.477 136.07 377.543 137.17 377.543 138.502Z" fill="#F9BD2E"/>
<path d="M385.492 138.502C385.492 139.835 384.393 140.934 383.061 140.934C381.728 140.934 380.629 139.835 380.629 138.502C380.629 137.17 381.728 136.07 383.061 136.07C384.393 136.07 385.492 137.17 385.492 138.502Z" fill="#3CC840"/>
<path fill-rule="evenodd" clip-rule="evenodd" d="M441.809 181.753C441.809 179.256 443.83 177.232 446.324 177.232L458.766 177.232C461.26 177.232 463.281 179.256 463.281 181.753C463.281 184.25 461.26 186.274 458.766 186.274H446.324C443.83 186.274 441.809 184.25 441.809 181.753Z" fill="#9FC0FF"/>
<path d="M436.269 185.763C436.269 183.392 434.848 181.829 432.59 180.859L430.834 180.132L430.945 175.821C431.977 175.956 433.259 176.602 434.207 177.626L435.935 174.959C434.82 173.666 432.924 172.911 431.252 172.776L431.28 171.268H429.273L429.217 172.723C427.712 172.857 426.263 173.315 425.315 174.124C424.284 174.986 423.475 176.252 423.475 178.03C423.475 180.24 424.813 181.425 425.426 181.883C426.04 182.368 426.876 182.772 427.935 183.203L428.883 183.581L428.799 188.08C427.601 188.053 425.594 187.11 424.785 185.871L422.723 188.565C424.116 190.262 426.402 191.232 428.492 191.313L428.437 192.741H430.444L430.499 191.259C431.559 191.179 433.147 190.667 434.123 189.912C435.21 189.077 436.269 187.676 436.269 185.763ZM429.189 175.794L429.106 179.539L428.799 179.404C428.102 179.081 427.378 178.596 427.378 177.599C427.378 176.548 428.13 175.875 429.189 175.794ZM432.423 186.275C432.423 187.326 431.419 188.053 430.555 188.134L430.639 184.119L431.085 184.335C431.921 184.739 432.423 185.251 432.423 186.275Z" fill="#9FC0FF"/>
<path d="M429.38 160.34H427.623V160.337C427.526 160.335 427.431 160.306 427.352 160.253C427.273 160.2 427.214 160.125 427.182 160.039C427.176 160.026 427.172 160.013 427.168 159.999L426.653 158.459L426.64 158.42C426.618 158.362 426.576 158.312 426.521 158.277C426.466 158.243 426.401 158.225 426.335 158.228C426.268 158.23 426.205 158.253 426.153 158.291C426.101 158.33 426.064 158.383 426.047 158.442L425.525 159.994C425.525 159.994 425.525 159.996 425.525 159.996C425.521 160.013 425.516 160.028 425.509 160.044C425.477 160.129 425.417 160.203 425.338 160.255C425.259 160.308 425.165 160.336 425.068 160.337V160.34H423.309C423.233 160.353 423.163 160.39 423.114 160.446C423.064 160.502 423.038 160.572 423.039 160.644C423.039 160.691 423.05 160.737 423.071 160.779C423.093 160.822 423.124 160.859 423.163 160.888L423.178 160.899L424.543 161.867C424.608 161.91 424.661 161.968 424.697 162.034C424.733 162.1 424.752 162.174 424.751 162.248C424.751 162.283 424.747 162.317 424.739 162.351C424.733 162.377 424.724 162.403 424.713 162.427L424.196 163.976V163.981L424.192 163.993C424.183 164.021 424.179 164.051 424.179 164.08C424.178 164.12 424.185 164.159 424.2 164.196C424.215 164.233 424.238 164.267 424.268 164.296C424.297 164.324 424.332 164.347 424.371 164.363C424.41 164.379 424.451 164.388 424.494 164.389C424.549 164.389 424.603 164.375 424.651 164.348L424.706 164.311L426.061 163.353L426.091 163.331C426.166 163.283 426.255 163.256 426.347 163.255C426.438 163.255 426.528 163.28 426.604 163.327C426.621 163.337 426.637 163.348 426.651 163.36L427.999 164.314L428.037 164.341C428.087 164.37 428.144 164.385 428.203 164.385C428.245 164.384 428.287 164.375 428.326 164.359C428.364 164.343 428.399 164.32 428.429 164.292C428.458 164.263 428.481 164.229 428.496 164.192C428.511 164.156 428.518 164.116 428.517 164.077C428.517 164.046 428.512 164.015 428.503 163.985C428.503 163.981 428.499 163.976 428.498 163.971L427.978 162.416C427.97 162.396 427.963 162.375 427.958 162.354C427.936 162.269 427.94 162.18 427.969 162.097C427.998 162.014 428.052 161.941 428.123 161.884C428.135 161.875 428.147 161.867 428.159 161.859L429.51 160.903L429.551 160.874C429.586 160.845 429.614 160.809 429.633 160.768C429.652 160.728 429.661 160.685 429.661 160.641C429.661 160.567 429.633 160.496 429.581 160.441C429.53 160.386 429.458 160.35 429.38 160.34Z" fill="#FECE4D"/>
<path d="M438.205 160.34H436.448V160.337C436.35 160.335 436.256 160.306 436.177 160.253C436.098 160.2 436.038 160.125 436.007 160.039C436.001 160.026 435.997 160.013 435.993 159.999L435.477 158.459L435.464 158.42C435.442 158.362 435.4 158.312 435.345 158.277C435.291 158.243 435.225 158.225 435.159 158.228C435.093 158.23 435.029 158.253 434.977 158.291C434.925 158.33 434.888 158.383 434.871 158.442L434.349 159.994C434.35 159.994 434.35 159.996 434.349 159.996C434.345 160.013 434.34 160.028 434.333 160.044C434.301 160.129 434.241 160.203 434.163 160.255C434.084 160.308 433.989 160.336 433.892 160.337V160.34H432.134C432.057 160.353 431.988 160.39 431.938 160.446C431.889 160.502 431.862 160.572 431.863 160.644C431.863 160.691 431.874 160.737 431.895 160.779C431.917 160.822 431.948 160.859 431.987 160.888L432.002 160.899L433.367 161.867C433.447 161.921 433.509 161.996 433.543 162.083C433.578 162.169 433.585 162.263 433.563 162.353C433.557 162.379 433.549 162.405 433.538 162.429L433.02 163.978V163.983L433.016 163.995C433.008 164.023 433.003 164.053 433.003 164.083C433.002 164.122 433.009 164.161 433.024 164.198C433.04 164.235 433.062 164.269 433.092 164.298C433.121 164.326 433.156 164.349 433.195 164.365C433.234 164.381 433.276 164.39 433.318 164.391C433.373 164.391 433.428 164.377 433.475 164.351L433.53 164.313L434.886 163.355L434.915 163.333C434.99 163.285 435.08 163.259 435.171 163.258C435.262 163.257 435.352 163.282 435.428 163.329C435.445 163.339 435.461 163.35 435.476 163.362L436.823 164.316L436.862 164.343C436.911 164.372 436.968 164.387 437.027 164.387C437.069 164.386 437.111 164.377 437.15 164.361C437.189 164.345 437.224 164.322 437.253 164.294C437.282 164.265 437.305 164.231 437.32 164.194C437.335 164.158 437.343 164.118 437.341 164.079C437.342 164.048 437.337 164.017 437.327 163.988C437.327 163.983 437.324 163.978 437.322 163.973L436.802 162.418C436.793 162.398 436.787 162.377 436.782 162.356C436.772 162.32 436.767 162.283 436.767 162.245C436.767 162.177 436.782 162.109 436.813 162.047C436.844 161.985 436.889 161.93 436.945 161.886C436.957 161.877 436.969 161.868 436.981 161.86L438.332 160.905L438.373 160.875C438.408 160.846 438.436 160.81 438.455 160.77C438.474 160.73 438.483 160.686 438.483 160.642C438.484 160.569 438.456 160.498 438.405 160.442C438.354 160.387 438.283 160.351 438.205 160.34Z" fill="#FECE4D"/>
<path d="M447.033 160.34H445.276V160.337C445.179 160.335 445.084 160.306 445.005 160.253C444.926 160.2 444.867 160.125 444.835 160.039C444.829 160.026 444.825 160.013 444.821 159.999L444.305 158.459L444.292 158.42C444.27 158.362 444.229 158.312 444.174 158.277C444.119 158.243 444.053 158.225 443.987 158.228C443.921 158.23 443.857 158.253 443.805 158.291C443.753 158.33 443.716 158.383 443.699 158.442L443.178 159.994C443.178 159.994 443.178 159.994 443.178 159.996C443.173 160.013 443.168 160.028 443.162 160.044C443.129 160.129 443.069 160.203 442.991 160.255C442.912 160.308 442.817 160.336 442.72 160.337V160.34H440.962C440.885 160.353 440.816 160.39 440.766 160.446C440.717 160.502 440.69 160.572 440.691 160.644C440.691 160.691 440.702 160.737 440.723 160.78C440.745 160.822 440.776 160.859 440.816 160.888L440.83 160.899L442.195 161.867C442.276 161.921 442.337 161.996 442.372 162.083C442.406 162.169 442.413 162.263 442.391 162.353C442.385 162.379 442.377 162.405 442.366 162.429L441.848 163.978V163.983L441.844 163.995C441.836 164.023 441.831 164.053 441.831 164.083C441.83 164.122 441.837 164.161 441.853 164.198C441.868 164.235 441.891 164.269 441.92 164.298C441.949 164.326 441.984 164.349 442.023 164.365C442.062 164.381 442.104 164.39 442.146 164.391C442.201 164.391 442.256 164.377 442.303 164.351L442.358 164.313L443.714 163.355L443.743 163.333C443.819 163.285 443.908 163.259 443.999 163.258C444.091 163.257 444.18 163.282 444.256 163.329C444.273 163.339 444.289 163.35 444.304 163.362L445.652 164.316L445.69 164.343C445.739 164.372 445.797 164.387 445.855 164.387C445.897 164.386 445.939 164.377 445.978 164.361C446.017 164.345 446.052 164.322 446.081 164.294C446.11 164.265 446.133 164.231 446.148 164.194C446.163 164.158 446.171 164.118 446.169 164.079C446.17 164.048 446.165 164.017 446.155 163.988C446.155 163.983 446.152 163.978 446.151 163.973L445.631 162.418C445.622 162.398 445.615 162.377 445.61 162.356C445.601 162.32 445.596 162.283 445.596 162.245C445.595 162.177 445.611 162.109 445.642 162.047C445.673 161.985 445.718 161.93 445.774 161.886C445.786 161.877 445.798 161.868 445.81 161.86L447.16 160.905L447.202 160.875C447.237 160.846 447.265 160.81 447.284 160.77C447.303 160.73 447.313 160.686 447.312 160.642C447.313 160.569 447.285 160.498 447.234 160.442C447.182 160.387 447.111 160.35 447.033 160.34Z" fill="#FECE4D"/>
<path d="M455.853 160.34H454.096V160.337C453.999 160.335 453.904 160.306 453.825 160.253C453.746 160.2 453.687 160.125 453.655 160.039C453.65 160.026 453.645 160.013 453.641 159.999L453.126 158.459L453.112 158.42C453.09 158.362 453.049 158.312 452.994 158.277C452.939 158.243 452.874 158.225 452.807 158.228C452.741 158.23 452.677 158.253 452.626 158.291C452.574 158.33 452.537 158.383 452.52 158.442L451.998 159.994C451.998 159.994 451.998 159.996 451.998 159.996C451.994 160.013 451.988 160.028 451.982 160.044C451.95 160.129 451.89 160.203 451.811 160.255C451.732 160.308 451.638 160.336 451.541 160.337V160.34H449.782C449.705 160.353 449.636 160.39 449.587 160.446C449.537 160.502 449.51 160.572 449.512 160.644C449.511 160.691 449.522 160.737 449.544 160.78C449.565 160.822 449.597 160.859 449.636 160.888L449.65 160.899L451.016 161.867C451.096 161.921 451.157 161.996 451.192 162.083C451.227 162.169 451.234 162.263 451.211 162.353C451.206 162.379 451.197 162.405 451.186 162.429L450.668 163.978V163.983L450.664 163.995C450.655 164.023 450.651 164.053 450.651 164.083C450.65 164.122 450.657 164.161 450.672 164.198C450.687 164.235 450.71 164.269 450.74 164.298C450.769 164.326 450.804 164.349 450.843 164.365C450.882 164.381 450.924 164.39 450.966 164.391C451.021 164.391 451.075 164.377 451.123 164.351L451.178 164.313L452.533 163.355L452.563 163.333C452.638 163.285 452.727 163.259 452.819 163.258C452.91 163.257 453 163.282 453.076 163.329C453.093 163.339 453.109 163.35 453.124 163.362L454.472 164.316L454.51 164.343C454.56 164.372 454.617 164.387 454.675 164.387C454.718 164.386 454.76 164.377 454.798 164.361C454.837 164.345 454.872 164.322 454.901 164.294C454.931 164.265 454.953 164.231 454.969 164.194C454.984 164.158 454.991 164.118 454.99 164.079C454.99 164.048 454.985 164.017 454.975 163.988C454.975 163.983 454.972 163.978 454.97 163.973L454.45 162.418C454.442 162.398 454.435 162.377 454.43 162.356C454.421 162.32 454.416 162.283 454.416 162.245C454.415 162.177 454.431 162.109 454.462 162.047C454.492 161.985 454.538 161.93 454.594 161.886C454.605 161.877 454.618 161.868 454.63 161.86L455.98 160.905L456.021 160.875C456.056 160.846 456.084 160.81 456.103 160.77C456.122 160.73 456.132 160.686 456.131 160.642C456.132 160.569 456.104 160.498 456.053 160.442C456.002 160.387 455.931 160.351 455.853 160.34Z" fill="#FECE4D"/>
<g opacity="0.8">
<path fill-rule="evenodd" clip-rule="evenodd" d="M459.072 141.181L464.262 138.186L474.113 140.949L456.281 151.244L459.072 141.181ZM456.282 151.245L474.114 140.949L489.561 167.705L471.729 178L456.282 151.245ZM464.291 145.443C465.441 145.443 466.374 144.51 466.374 143.36C466.374 142.209 465.441 141.277 464.291 141.277C463.14 141.277 462.208 142.209 462.208 143.36C462.208 144.51 463.14 145.443 464.291 145.443Z" fill="#0BE597"/>
<path fill-rule="evenodd" clip-rule="evenodd" d="M465.329 136.614C466.864 133.52 465.578 130.749 463.4 129.582C462.329 129.008 461.039 128.822 459.8 129.19C458.613 129.541 457.54 130.38 456.773 131.732H458.888C459.327 131.262 459.812 130.982 460.289 130.841C461.057 130.613 461.88 130.722 462.587 131.1C463.966 131.839 464.897 133.609 463.786 135.848C462.963 137.507 463.608 138.986 464.04 139.977C464.099 140.11 464.153 140.235 464.199 140.349C464.422 140.902 464.499 141.25 464.445 141.542C464.399 141.793 464.218 142.177 463.478 142.686L464.452 144.106C465.415 143.445 465.98 142.712 466.139 141.855C466.29 141.039 466.032 140.287 465.796 139.705C465.731 139.543 465.667 139.39 465.606 139.244C465.174 138.211 464.882 137.514 465.329 136.614Z" fill="#303B45"/>
<path d="M480.521 158.492C481.441 160.251 480.84 162.036 479.131 162.93C477.421 163.824 475.612 163.298 474.693 161.54C473.773 159.782 474.374 157.996 476.083 157.102C477.793 156.208 479.602 156.734 480.521 158.492ZM473.945 151.544L472.843 166.447L471.37 166.366L472.488 151.456L473.945 151.544ZM470.622 156.371C471.541 158.129 470.949 159.931 469.24 160.825C467.547 161.711 465.713 161.177 464.793 159.419C463.874 157.66 464.49 155.866 466.184 154.98C467.893 154.087 469.702 154.613 470.622 156.371ZM478.811 159.345C478.386 158.531 477.656 158.166 476.858 158.583C476.077 158.992 475.96 159.799 476.385 160.613C476.819 161.444 477.549 161.809 478.331 161.4C479.128 160.983 479.245 160.175 478.811 159.345ZM468.936 157.231C468.502 156.401 467.756 156.045 466.958 156.462C466.177 156.871 466.076 157.67 466.51 158.5C466.936 159.314 467.658 159.704 468.44 159.295C469.237 158.878 469.362 158.046 468.936 157.231Z" fill="#FDFEFF"/>
</g>
</g>
<g opacity="0.5">
<g filter="url(#filter1_dd_961_55815)">
<rect x="297.352" y="218.633" width="82.4107" height="52.4432" rx="2.58362" fill="white"/>
</g>
<rect x="345.031" y="231.215" width="13.7267" height="3.43167" rx="1.71583" fill="#D2DCE4"/>
<rect opacity="0.88" x="303.312" y="231.215" width="36.4214" height="33.7726" rx="3.78407" fill="#C6DBFF"/>
<path d="M313.242 256.339C313.246 257.252 313.982 257.989 314.887 257.986L328.641 257.917C329.545 257.912 330.274 257.167 330.27 256.253L328.072 241.699L326.013 241.707C326.016 241.649 326.016 241.59 326.016 241.532C326.005 239.118 324.051 237.163 321.663 237.174C319.275 237.186 317.341 239.16 317.352 241.576C317.352 241.634 317.355 241.692 317.357 241.752L315.081 241.762L313.242 256.339ZM318.32 241.746C318.318 241.689 318.314 241.629 318.314 241.571C318.305 239.694 319.809 238.156 321.668 238.148C323.525 238.14 325.044 239.66 325.053 241.537C325.053 241.595 325.052 241.655 325.048 241.714L318.319 241.746H318.32Z" fill="#76A5FF"/>
<path d="M307.036 223.813C307.036 224.76 306.254 225.542 305.307 225.542C304.36 225.542 303.578 224.76 303.578 223.813C303.578 222.866 304.36 222.084 305.307 222.084C306.254 222.084 307.036 222.866 307.036 223.813Z" fill="#F66058"/>
<path d="M312.684 223.813C312.684 224.76 311.903 225.542 310.955 225.542C310.008 225.542 309.227 224.76 309.227 223.813C309.227 222.866 310.008 222.084 310.955 222.084C311.926 222.084 312.684 222.866 312.684 223.813Z" fill="#F9BD2E"/>
<path d="M318.333 223.813C318.333 224.76 317.551 225.542 316.604 225.542C315.657 225.542 314.875 224.76 314.875 223.813C314.875 222.866 315.657 222.084 316.604 222.084C317.551 222.084 318.333 222.866 318.333 223.813Z" fill="#3CC840"/>
<path fill-rule="evenodd" clip-rule="evenodd" d="M358.367 254.563C358.367 252.788 359.805 251.349 361.578 251.349L370.423 251.349C372.196 251.349 373.633 252.788 373.633 254.563C373.633 256.338 372.196 257.777 370.423 257.777H361.578C359.805 257.777 358.367 256.338 358.367 254.563Z" fill="#9FC0FF"/>
<path d="M354.432 257.413C354.432 255.727 353.421 254.616 351.816 253.927L350.567 253.41L350.647 250.345C351.38 250.44 352.292 250.9 352.965 251.628L354.194 249.732C353.401 248.812 352.054 248.276 350.865 248.18L350.885 247.107H349.458L349.418 248.142C348.348 248.238 347.318 248.563 346.644 249.138C345.911 249.751 345.336 250.651 345.336 251.915C345.336 253.486 346.287 254.329 346.723 254.655C347.159 254.999 347.753 255.287 348.507 255.593L349.18 255.861L349.121 259.06C348.269 259.041 346.842 258.371 346.267 257.49L344.801 259.405C345.792 260.612 347.417 261.302 348.903 261.359L348.863 262.374H350.29L350.33 261.321C351.083 261.263 352.212 260.899 352.906 260.363C353.679 259.769 354.432 258.773 354.432 257.413ZM349.398 250.326L349.339 252.988L349.121 252.892C348.625 252.663 348.11 252.318 348.11 251.609C348.11 250.862 348.645 250.383 349.398 250.326ZM351.697 257.777C351.697 258.524 350.984 259.041 350.369 259.099L350.429 256.245L350.746 256.398C351.34 256.685 351.697 257.049 351.697 257.777Z" fill="#9FC0FF"/>
<path d="M349.536 239.339H348.286V239.336C348.217 239.336 348.15 239.315 348.094 239.277C348.038 239.239 347.995 239.186 347.973 239.125C347.969 239.116 347.966 239.106 347.963 239.097L347.596 238.001L347.587 237.974C347.572 237.933 347.542 237.897 347.503 237.872C347.464 237.848 347.417 237.835 347.37 237.837C347.323 237.839 347.278 237.855 347.241 237.882C347.204 237.91 347.178 237.947 347.166 237.99L346.795 239.093C346.795 239.093 346.795 239.094 346.795 239.094C346.792 239.106 346.788 239.117 346.784 239.128C346.761 239.189 346.718 239.241 346.662 239.279C346.606 239.316 346.539 239.336 346.47 239.337V239.339H345.22C345.165 239.348 345.116 239.374 345.081 239.414C345.045 239.454 345.026 239.504 345.027 239.555C345.027 239.588 345.035 239.621 345.05 239.651C345.065 239.681 345.088 239.708 345.116 239.729L345.126 239.736L346.097 240.424C346.143 240.455 346.18 240.496 346.206 240.543C346.232 240.59 346.245 240.643 346.245 240.696C346.245 240.72 346.242 240.745 346.236 240.769C346.232 240.787 346.225 240.805 346.218 240.823L345.85 241.924V241.928L345.847 241.936C345.841 241.956 345.838 241.977 345.838 241.998C345.837 242.026 345.842 242.054 345.853 242.08C345.864 242.107 345.88 242.131 345.901 242.151C345.922 242.172 345.946 242.188 345.974 242.199C346.002 242.21 346.032 242.217 346.062 242.217C346.101 242.217 346.139 242.207 346.173 242.189L346.212 242.162L347.176 241.481L347.197 241.465C347.251 241.431 347.314 241.412 347.379 241.412C347.444 241.411 347.508 241.429 347.562 241.462C347.574 241.469 347.585 241.477 347.596 241.486L348.554 242.164L348.581 242.184C348.616 242.204 348.657 242.215 348.699 242.215C348.729 242.214 348.758 242.208 348.786 242.196C348.813 242.185 348.838 242.169 348.859 242.148C348.88 242.128 348.896 242.104 348.907 242.078C348.918 242.052 348.923 242.024 348.922 241.996C348.922 241.974 348.919 241.952 348.912 241.93C348.912 241.927 348.909 241.924 348.909 241.92L348.539 240.815C348.533 240.801 348.528 240.786 348.524 240.771C348.509 240.71 348.512 240.647 348.532 240.588C348.553 240.529 348.591 240.477 348.642 240.437C348.65 240.43 348.659 240.424 348.668 240.419L349.628 239.739L349.657 239.718C349.682 239.698 349.702 239.672 349.715 239.643C349.729 239.615 349.736 239.584 349.735 239.553C349.735 239.5 349.715 239.45 349.679 239.411C349.642 239.371 349.591 239.346 349.536 239.339Z" fill="#FECE4D"/>
<path d="M355.813 239.339H354.564V239.336C354.495 239.336 354.428 239.315 354.371 239.277C354.315 239.239 354.273 239.186 354.251 239.125C354.247 239.116 354.243 239.106 354.241 239.097L353.874 238.001L353.865 237.974C353.849 237.933 353.819 237.897 353.78 237.872C353.741 237.848 353.695 237.835 353.648 237.837C353.601 237.839 353.555 237.855 353.518 237.882C353.482 237.91 353.455 237.947 353.443 237.99L353.072 239.093C353.072 239.093 353.072 239.094 353.072 239.094C353.069 239.106 353.065 239.117 353.061 239.128C353.038 239.189 352.995 239.241 352.939 239.279C352.883 239.316 352.816 239.336 352.747 239.337V239.339H351.497C351.442 239.348 351.393 239.374 351.358 239.414C351.323 239.454 351.304 239.504 351.305 239.555C351.304 239.588 351.312 239.621 351.328 239.651C351.343 239.681 351.365 239.708 351.393 239.729L351.403 239.736L352.374 240.424C352.431 240.463 352.474 240.516 352.499 240.578C352.524 240.639 352.529 240.706 352.513 240.77C352.509 240.789 352.503 240.807 352.495 240.824L352.127 241.925V241.929L352.124 241.937C352.118 241.957 352.115 241.979 352.115 242C352.114 242.028 352.119 242.056 352.13 242.082C352.141 242.108 352.157 242.132 352.178 242.153C352.199 242.173 352.224 242.189 352.251 242.201C352.279 242.212 352.309 242.218 352.339 242.219C352.378 242.219 352.417 242.209 352.45 242.19L352.49 242.163L353.453 241.482L353.475 241.467C353.528 241.433 353.591 241.414 353.656 241.413C353.721 241.413 353.785 241.43 353.839 241.464C353.851 241.471 353.862 241.479 353.873 241.487L354.831 242.166L354.858 242.185C354.893 242.206 354.934 242.216 354.976 242.216C355.006 242.215 355.036 242.209 355.063 242.198C355.091 242.186 355.116 242.17 355.136 242.15C355.157 242.129 355.173 242.105 355.184 242.079C355.195 242.053 355.2 242.025 355.199 241.997C355.199 241.975 355.196 241.953 355.189 241.932C355.189 241.929 355.187 241.925 355.186 241.921L354.816 240.816C354.81 240.802 354.805 240.787 354.801 240.772C354.795 240.746 354.791 240.72 354.791 240.693C354.791 240.645 354.802 240.597 354.824 240.552C354.846 240.508 354.878 240.469 354.918 240.438C354.926 240.431 354.935 240.425 354.943 240.42L355.904 239.741L355.933 239.719C355.958 239.699 355.978 239.673 355.991 239.644C356.005 239.616 356.011 239.585 356.011 239.554C356.011 239.502 355.992 239.451 355.955 239.412C355.919 239.372 355.869 239.346 355.813 239.339Z" fill="#FECE4D"/>
<path d="M362.087 239.339H360.838V239.336C360.768 239.336 360.701 239.315 360.645 239.277C360.589 239.239 360.546 239.186 360.524 239.125C360.52 239.116 360.517 239.106 360.514 239.097L360.148 238.001L360.138 237.974C360.122 237.933 360.093 237.897 360.054 237.872C360.015 237.848 359.968 237.835 359.921 237.837C359.874 237.839 359.829 237.855 359.792 237.882C359.755 237.91 359.729 237.947 359.717 237.99L359.346 239.093C359.346 239.093 359.346 239.093 359.346 239.094C359.343 239.106 359.339 239.117 359.334 239.128C359.311 239.189 359.269 239.241 359.213 239.279C359.157 239.316 359.09 239.336 359.021 239.337V239.339H357.77C357.716 239.348 357.667 239.374 357.631 239.414C357.596 239.454 357.577 239.504 357.578 239.555C357.578 239.588 357.585 239.621 357.601 239.651C357.616 239.681 357.638 239.708 357.666 239.729L357.677 239.736L358.647 240.424C358.704 240.463 358.748 240.516 358.773 240.578C358.797 240.639 358.802 240.706 358.787 240.77C358.782 240.789 358.776 240.807 358.769 240.824L358.4 241.925V241.929L358.398 241.937C358.392 241.957 358.389 241.979 358.389 242C358.388 242.028 358.393 242.056 358.404 242.082C358.414 242.108 358.431 242.132 358.452 242.153C358.472 242.173 358.497 242.189 358.525 242.201C358.553 242.212 358.582 242.218 358.612 242.219C358.652 242.219 358.69 242.209 358.724 242.19L358.763 242.163L359.727 241.482L359.748 241.467C359.801 241.433 359.865 241.414 359.93 241.413C359.995 241.413 360.058 241.43 360.113 241.464C360.125 241.471 360.136 241.479 360.146 241.487L361.105 242.166L361.132 242.185C361.167 242.206 361.208 242.216 361.249 242.216C361.279 242.215 361.309 242.209 361.337 242.198C361.364 242.186 361.389 242.17 361.41 242.15C361.431 242.129 361.447 242.105 361.458 242.079C361.469 242.053 361.474 242.025 361.473 241.997C361.473 241.975 361.469 241.953 361.463 241.932C361.463 241.929 361.46 241.925 361.459 241.921L361.09 240.816C361.084 240.802 361.079 240.787 361.075 240.772C361.068 240.746 361.065 240.72 361.065 240.693C361.065 240.645 361.076 240.597 361.098 240.552C361.12 240.508 361.152 240.469 361.192 240.438C361.2 240.431 361.209 240.425 361.217 240.42L362.177 239.741L362.207 239.719C362.232 239.699 362.252 239.673 362.265 239.644C362.279 239.616 362.286 239.585 362.285 239.554C362.286 239.502 362.266 239.451 362.229 239.411C362.193 239.372 362.142 239.346 362.087 239.339Z" fill="#FECE4D"/>
<g opacity="0.8">
<path fill-rule="evenodd" clip-rule="evenodd" d="M371.047 224.706L374.33 222.811L380.563 224.559L369.281 231.072L371.047 224.706ZM369.283 231.072L380.564 224.559L390.337 241.486L379.055 247.999L369.283 231.072ZM374.35 227.402C375.078 227.402 375.668 226.812 375.668 226.084C375.668 225.356 375.078 224.766 374.35 224.766C373.623 224.766 373.033 225.356 373.033 226.084C373.033 226.812 373.623 227.402 374.35 227.402Z" fill="#0BE597"/>
<path fill-rule="evenodd" clip-rule="evenodd" d="M375.015 221.817C375.986 219.86 375.172 218.107 373.794 217.368C373.116 217.005 372.3 216.887 371.516 217.12C370.765 217.343 370.086 217.873 369.602 218.728H370.939C371.217 218.431 371.524 218.254 371.826 218.165C372.312 218.021 372.832 218.089 373.28 218.329C374.152 218.796 374.741 219.916 374.038 221.333C373.518 222.382 373.926 223.318 374.199 223.945C374.236 224.029 374.27 224.108 374.3 224.18C374.441 224.53 374.49 224.75 374.455 224.935C374.426 225.094 374.312 225.337 373.843 225.659L374.46 226.557C375.069 226.139 375.427 225.675 375.527 225.133C375.622 224.617 375.459 224.141 375.31 223.772C375.269 223.67 375.229 223.574 375.19 223.481L375.19 223.481C374.916 222.827 374.732 222.386 375.015 221.817Z" fill="#303B45"/>
<path d="M384.618 235.659C385.2 236.772 384.82 237.901 383.739 238.467C382.657 239.032 381.513 238.7 380.931 237.587C380.349 236.475 380.729 235.345 381.811 234.779C382.892 234.214 384.037 234.547 384.618 235.659ZM380.458 231.263L379.76 240.691L378.829 240.641L379.536 231.207L380.458 231.263ZM378.355 234.317C378.937 235.429 378.563 236.57 377.481 237.135C376.41 237.695 375.25 237.358 374.668 236.245C374.086 235.133 374.476 233.997 375.548 233.437C376.629 232.872 377.774 233.205 378.355 234.317ZM383.536 236.199C383.267 235.684 382.805 235.453 382.301 235.717C381.806 235.975 381.732 236.486 382.002 237.001C382.276 237.526 382.738 237.757 383.233 237.499C383.737 237.235 383.811 236.724 383.536 236.199ZM377.289 234.861C377.014 234.336 376.542 234.111 376.038 234.375C375.543 234.633 375.48 235.139 375.754 235.664C376.024 236.179 376.48 236.425 376.975 236.167C377.479 235.903 377.558 235.376 377.289 234.861Z" fill="#FDFEFF"/>
</g>
</g>
<g filter="url(#filter2_dd_961_55815)">
<path d="M99.4396 140.26C99.4396 136.149 102.773 132.816 106.884 132.816H315.266V250.074H99.4396V140.26Z" fill="white" stroke="#D2DCE4" stroke-width="0.816685"/>
<rect x="309" y="155.493" width="3.1411" height="15.7055" rx="1.57055" fill="#D2DCE4"/>
<mask id="mask0_961_55815" style="mask-type:alpha" maskUnits="userSpaceOnUse" x="98" y="131" width="209" height="120">
<rect x="98" y="131.38" width="208.429" height="119.102" fill="#D9D9D9"/>
</mask>
<g mask="url(#mask0_961_55815)">
<path d="M98.5469 147.639L98.5469 131.933L114.252 131.933L114.252 147.639L98.5469 147.639Z" fill="white" stroke="#D2DCE4" stroke-width="0.810815"/>
<path d="M98.5469 163.333L98.5469 147.628L114.252 147.628L114.252 163.333L98.5469 163.333Z" fill="white" stroke="#D2DCE4" stroke-width="0.810815"/>
<path d="M98.5469 226.161L98.5469 210.456L114.252 210.456L114.252 226.161L98.5469 226.161Z" fill="white" stroke="#D2DCE4" stroke-width="0.810815"/>
<path d="M98.5469 194.755L98.5469 179.049L114.252 179.049L114.252 194.755L98.5469 194.755Z" fill="white" stroke="#D2DCE4" stroke-width="0.810815"/>
<path d="M98.5469 257.567L98.5469 241.862L114.252 241.862L114.252 257.567L98.5469 257.567Z" fill="white" stroke="#D2DCE4" stroke-width="0.810815"/>
<path d="M98.5469 179.046L98.5469 163.34L114.252 163.34L114.252 179.046L98.5469 179.046Z" fill="white" stroke="#D2DCE4" stroke-width="0.810815"/>
<path d="M98.5469 241.871L98.5469 226.166L114.252 226.166L114.252 241.871L98.5469 241.871Z" fill="white" stroke="#D2DCE4" stroke-width="0.810815"/>
<path d="M98.5469 210.449L98.5469 194.744L114.252 194.744L114.252 210.449L98.5469 210.449Z" fill="white" stroke="#D2DCE4" stroke-width="0.810815"/>
<path d="M104.422 158.521H103.421V154.806H102.619V154.094H104.422V158.521ZM109.077 158.521H105.831L105.709 157.866L107.21 156.513C107.627 156.134 107.878 155.846 107.878 155.467C107.878 155.089 107.602 154.845 107.166 154.845C106.723 154.845 106.338 155.134 106.094 155.441L105.658 154.761C105.716 154.627 106.261 154.03 107.262 154.03C108.262 154.03 108.872 154.563 108.872 155.339C108.872 156.115 108.295 156.577 107.942 156.891L107.024 157.719H109.077V158.521Z" fill="#303B45"/>
<path d="M104.422 221.348H103.421V217.634H102.619V216.921H104.422V221.348ZM109.103 219.84C109.103 220.713 108.481 221.418 107.448 221.418C106.704 221.418 106.255 221.014 106.024 220.681C105.806 220.373 105.645 219.904 105.645 219.192C105.645 218.397 105.87 217.781 106.235 217.403C106.575 217.043 107.005 216.857 107.589 216.857C108.192 216.857 108.641 217.063 108.962 217.287L108.583 217.967C108.372 217.8 107.993 217.64 107.634 217.64C107.345 217.64 107.153 217.736 106.98 217.903C106.794 218.089 106.627 218.455 106.627 218.942C106.749 218.807 107.057 218.487 107.743 218.487C108.429 218.487 109.103 218.968 109.103 219.84ZM108.121 219.911C108.121 219.526 107.865 219.179 107.416 219.179C106.96 219.179 106.697 219.526 106.697 219.911C106.697 220.302 106.96 220.642 107.416 220.642C107.865 220.642 108.121 220.302 108.121 219.911Z" fill="#303B45"/>
<path d="M104.422 189.942H103.421V186.228H102.619V185.516H104.422V189.942ZM109.218 189.057H108.628V189.942H107.627V189.057H105.472V188.3L107.48 185.503H108.628V188.255H109.218V189.057ZM107.653 188.275V186.562L106.415 188.275H107.653Z" fill="#303B45"/>
<path d="M104.422 252.752H103.421V249.038H102.619V248.326H104.422V252.752ZM109.032 251.501C109.032 252.38 108.262 252.823 107.339 252.823C106.415 252.823 105.645 252.38 105.645 251.501C105.645 250.962 105.953 250.597 106.441 250.443V250.43C106.12 250.314 105.767 250.051 105.767 249.48C105.767 248.679 106.492 248.262 107.339 248.262C108.179 248.262 108.904 248.679 108.904 249.48C108.904 250.058 108.558 250.321 108.237 250.43V250.449C108.718 250.597 109.032 250.962 109.032 251.501ZM107.923 249.557C107.923 249.211 107.679 249.019 107.339 249.019C106.992 249.019 106.755 249.211 106.755 249.557C106.755 249.897 106.992 250.09 107.339 250.09C107.679 250.09 107.923 249.897 107.923 249.557ZM108.025 251.405C108.025 251.007 107.724 250.776 107.339 250.776C106.947 250.776 106.652 251.007 106.652 251.405C106.652 251.803 106.96 252.034 107.339 252.034C107.717 252.034 108.025 251.803 108.025 251.405Z" fill="#303B45"/>
<path d="M104.422 173.909H103.421V170.195H102.619V169.483H104.422V173.909ZM108.987 172.613C108.987 173.499 108.173 173.98 107.262 173.98C106.344 173.98 105.799 173.467 105.645 173.242L106.12 172.626C106.3 172.844 106.774 173.178 107.204 173.178C107.64 173.178 107.98 172.953 107.98 172.556C107.98 172.164 107.672 171.959 107.275 171.959H106.883V171.234H107.275C107.621 171.234 107.865 171.061 107.865 170.715C107.865 170.368 107.576 170.195 107.223 170.195C106.87 170.195 106.524 170.336 106.165 170.625L105.78 169.971C106.088 169.701 106.498 169.419 107.307 169.419C108.109 169.419 108.846 169.855 108.846 170.599C108.846 171.189 108.506 171.446 108.211 171.568V171.587C108.583 171.683 108.987 172.036 108.987 172.613Z" fill="#303B45"/>
<path d="M104.422 236.735H103.421V233.021H102.619V232.309H104.422V236.735ZM109.154 232.925L107.185 236.735H106.094L108.038 233.105H105.716V232.309H108.872L109.154 232.925Z" fill="#303B45"/>
<path d="M104.422 205.315H103.421V201.601H102.619V200.889H104.422V205.315ZM109.019 203.834C109.019 204.866 108.128 205.386 107.249 205.386C106.364 205.386 105.825 204.982 105.62 204.661L106.094 204.052C106.338 204.392 106.8 204.584 107.178 204.584C107.557 204.584 108.012 204.366 108.012 203.834C108.012 203.308 107.576 203.09 107.178 203.09C106.89 203.09 106.569 203.179 106.37 203.32L105.921 203.051L106.261 200.889H108.853V201.685H107.012L106.883 202.48C107.018 202.422 107.185 202.384 107.473 202.384C108.147 202.384 109.019 202.807 109.019 203.834Z" fill="#303B45"/>
<rect x="114.25" y="147.639" width="15.7055" height="42.4048" transform="rotate(-90 114.25 147.639)" fill="white" stroke="#D2DCE4" stroke-width="0.810815"/>
<rect x="156.664" y="147.639" width="15.7055" height="43.9754" transform="rotate(-90 156.664 147.639)" fill="white" stroke="#D2DCE4" stroke-width="0.810815"/>
<rect x="200.641" y="147.639" width="15.7055" height="43.9754" transform="rotate(-90 200.641 147.639)" fill="white" stroke="#D2DCE4" stroke-width="0.810815"/>
<rect x="244.602" y="147.639" width="15.7055" height="43.9754" transform="rotate(-90 244.602 147.639)" fill="white" stroke="#D2DCE4" stroke-width="0.810815"/>
<rect x="288.582" y="147.639" width="15.7055" height="42.4048" transform="rotate(-90 288.582 147.639)" fill="white" stroke="#D2DCE4" stroke-width="0.810815"/>
<rect x="114.25" y="179.046" width="15.7055" height="42.4048" transform="rotate(-90 114.25 179.046)" fill="#D2DCE4" fill-opacity="0.5" stroke="#D2DCE4" stroke-width="0.810815"/>
<rect x="114.25" y="210.449" width="15.7055" height="42.4048" transform="rotate(-90 114.25 210.449)" fill="#D2DCE4" fill-opacity="0.5" stroke="#D2DCE4" stroke-width="0.810815"/>
<rect x="114.25" y="241.871" width="15.7055" height="42.4048" transform="rotate(-90 114.25 241.871)" fill="#D2DCE4" fill-opacity="0.5" stroke="#D2DCE4" stroke-width="0.810815"/>
<rect x="156.664" y="179.046" width="15.7055" height="43.9754" transform="rotate(-90 156.664 179.046)" fill="#D2DCE4" fill-opacity="0.5" stroke="#D2DCE4" stroke-width="0.810815"/>
<rect x="156.664" y="210.449" width="15.7055" height="43.9754" transform="rotate(-90 156.664 210.449)" fill="#D2DCE4" fill-opacity="0.5" stroke="#D2DCE4" stroke-width="0.810815"/>
<rect x="156.664" y="241.871" width="15.7055" height="43.9754" transform="rotate(-90 156.664 241.871)" fill="#D2DCE4" fill-opacity="0.5" stroke="#D2DCE4" stroke-width="0.810815"/>
<rect x="200.641" y="179.046" width="15.7055" height="43.9754" transform="rotate(-90 200.641 179.046)" fill="#D2DCE4" fill-opacity="0.5" stroke="#D2DCE4" stroke-width="0.810815"/>
<path d="M200.641 210.449L200.641 194.744L244.616 194.744L244.616 210.449L200.641 210.449Z" fill="#D2DCE4" fill-opacity="0.5" stroke="#D2DCE4" stroke-width="0.810815"/>
<rect x="200.641" y="241.871" width="15.7055" height="43.9754" transform="rotate(-90 200.641 241.871)" fill="#D2DCE4" fill-opacity="0.5" stroke="#D2DCE4" stroke-width="0.810815"/>
<rect x="244.602" y="179.046" width="15.7055" height="43.9754" transform="rotate(-90 244.602 179.046)" fill="#D2DCE4" fill-opacity="0.5" stroke="#D2DCE4" stroke-width="0.810815"/>
<rect x="244.602" y="210.451" width="15.7055" height="43.9754" transform="rotate(-90 244.602 210.451)" fill="#D2DCE4" fill-opacity="0.5" stroke="#D2DCE4" stroke-width="0.810815"/>
<rect x="244.602" y="241.871" width="15.7055" height="43.9754" transform="rotate(-90 244.602 241.871)" fill="#D2DCE4" fill-opacity="0.5" stroke="#D2DCE4" stroke-width="0.810815"/>
<rect x="288.582" y="179.046" width="15.7055" height="42.4048" transform="rotate(-90 288.582 179.046)" fill="#D2DCE4" fill-opacity="0.5" stroke="#D2DCE4" stroke-width="0.810815"/>
<rect x="288.582" y="210.451" width="15.7055" height="42.4048" transform="rotate(-90 288.582 210.451)" fill="#D2DCE4" fill-opacity="0.5" stroke="#D2DCE4" stroke-width="0.810815"/>
<rect x="288.582" y="241.871" width="15.7055" height="42.4048" transform="rotate(-90 288.582 241.871)" fill="#D2DCE4" fill-opacity="0.5" stroke="#D2DCE4" stroke-width="0.810815"/>
<rect x="114.25" y="163.333" width="15.7055" height="42.4048" transform="rotate(-90 114.25 163.333)" fill="white" stroke="#D2DCE4" stroke-width="0.810815"/>
<rect x="114.25" y="194.755" width="15.7055" height="42.4048" transform="rotate(-90 114.25 194.755)" fill="white" stroke="#D2DCE4" stroke-width="0.810815"/>
<rect x="114.25" y="226.161" width="15.7055" height="42.4048" transform="rotate(-90 114.25 226.161)" fill="white" stroke="#D2DCE4" stroke-width="0.810815"/>
<rect x="114.25" y="257.567" width="15.7055" height="42.4048" transform="rotate(-90 114.25 257.567)" fill="white" stroke="#D2DCE4" stroke-width="0.810815"/>
<rect x="156.664" y="163.333" width="15.7055" height="43.9754" transform="rotate(-90 156.664 163.333)" fill="white" stroke="#D2DCE4" stroke-width="0.810815"/>
<rect x="156.664" y="194.755" width="15.7055" height="43.9754" transform="rotate(-90 156.664 194.755)" fill="white" stroke="#D2DCE4" stroke-width="0.810815"/>
<rect x="156.664" y="226.161" width="15.7055" height="43.9754" transform="rotate(-90 156.664 226.161)" fill="white" stroke="#D2DCE4" stroke-width="0.810815"/>
<rect x="156.664" y="257.567" width="15.7055" height="43.9754" transform="rotate(-90 156.664 257.567)" fill="white" stroke="#D2DCE4" stroke-width="0.810815"/>
<rect x="200.641" y="163.333" width="15.7055" height="43.9754" transform="rotate(-90 200.641 163.333)" fill="white" stroke="#D2DCE4" stroke-width="0.810815"/>
<rect x="200.641" y="194.755" width="15.7055" height="43.9754" transform="rotate(-90 200.641 194.755)" fill="white" stroke="#D2DCE4" stroke-width="0.810815"/>
<rect x="200.641" y="226.161" width="15.7055" height="43.9754" transform="rotate(-90 200.641 226.161)" fill="white" stroke="#D2DCE4" stroke-width="0.810815"/>
<rect x="200.641" y="257.567" width="15.7055" height="43.9754" transform="rotate(-90 200.641 257.567)" fill="white" stroke="#D2DCE4" stroke-width="0.810815"/>
<rect x="244.602" y="163.335" width="15.7055" height="43.9754" transform="rotate(-90 244.602 163.335)" fill="white" stroke="#D2DCE4" stroke-width="0.810815"/>
<rect x="244.602" y="194.755" width="15.7055" height="43.9754" transform="rotate(-90 244.602 194.755)" fill="white" stroke="#D2DCE4" stroke-width="0.810815"/>
<rect x="244.602" y="226.161" width="15.7055" height="43.9754" transform="rotate(-90 244.602 226.161)" fill="white" stroke="#D2DCE4" stroke-width="0.810815"/>
<rect x="244.602" y="257.567" width="15.7055" height="43.9754" transform="rotate(-90 244.602 257.567)" fill="white" stroke="#D2DCE4" stroke-width="0.810815"/>
<rect x="288.582" y="163.335" width="15.7055" height="42.4048" transform="rotate(-90 288.582 163.335)" fill="white" stroke="#D2DCE4" stroke-width="0.810815"/>
<rect x="288.582" y="194.755" width="15.7055" height="42.4048" transform="rotate(-90 288.582 194.755)" fill="white" stroke="#D2DCE4" stroke-width="0.810815"/>
<rect x="288.582" y="226.161" width="15.7055" height="42.4048" transform="rotate(-90 288.582 226.161)" fill="white" stroke="#D2DCE4" stroke-width="0.810815"/>
<rect x="288.582" y="257.567" width="15.7055" height="42.4048" transform="rotate(-90 288.582 257.567)" fill="white" stroke="#D2DCE4" stroke-width="0.810815"/>
<path d="M122.105 171.202H150.375" stroke="#B8C4D0" stroke-width="3.1411" stroke-linecap="round"/>
<path d="M122.105 202.608H150.375" stroke="#B8C4D0" stroke-width="3.1411" stroke-linecap="round"/>
<path d="M122.105 234.014H150.375" stroke="#B8C4D0" stroke-width="3.1411" stroke-linecap="round"/>
<path d="M164.504 171.202H194.344" stroke="#B8C4D0" stroke-width="3.1411" stroke-linecap="round"/>
<path d="M164.504 202.608H194.344" stroke="#B8C4D0" stroke-width="3.1411" stroke-linecap="round"/>
<path d="M164.504 234.014H194.344" stroke="#B8C4D0" stroke-width="3.1411" stroke-linecap="round"/>
<path d="M208.484 171.202H236.754" stroke="#B8C4D0" stroke-width="3.1411" stroke-linecap="round"/>
<path d="M208.484 202.608H236.754" stroke="#3D7FFC" stroke-width="4.0202" stroke-linecap="round"/>
<path d="M208.484 234.014H236.754" stroke="#B8C4D0" stroke-width="3.1411" stroke-linecap="round"/>
<path d="M250.891 171.202H280.731" stroke="#B8C4D0" stroke-width="3.1411" stroke-linecap="round"/>
<path d="M250.891 202.608H280.731" stroke="#B8C4D0" stroke-width="3.1411" stroke-linecap="round"/>
<path d="M250.891 234.014H280.731" stroke="#B8C4D0" stroke-width="3.1411" stroke-linecap="round"/>
<path d="M296.445 171.202H323.145" stroke="#B8C4D0" stroke-width="3.1411" stroke-linecap="round"/>
<path d="M296.445 202.608H323.145" stroke="#B8C4D0" stroke-width="3.1411" stroke-linecap="round"/>
<path d="M296.445 234.014H323.145" stroke="#B8C4D0" stroke-width="3.1411" stroke-linecap="round"/>
<path d="M122.105 155.492H150.375" stroke="#D2DCE4" stroke-width="3.1411" stroke-linecap="round"/>
<path d="M122.105 186.897H150.375" stroke="#D2DCE4" stroke-width="3.1411" stroke-linecap="round"/>
<path d="M122.105 218.317H150.375" stroke="#D2DCE4" stroke-width="3.1411" stroke-linecap="round"/>
<path d="M122.105 249.724H150.375" stroke="#D2DCE4" stroke-width="3.1411" stroke-linecap="round"/>
<path d="M164.504 155.492H194.344" stroke="#D2DCE4" stroke-width="3.1411" stroke-linecap="round"/>
<path d="M164.504 186.897H194.344" stroke="#D2DCE4" stroke-width="3.1411" stroke-linecap="round"/>
<path d="M164.504 218.317H194.344" stroke="#D2DCE4" stroke-width="3.1411" stroke-linecap="round"/>
<path d="M164.504 249.724H194.344" stroke="#D2DCE4" stroke-width="3.1411" stroke-linecap="round"/>
<path d="M208.484 155.492H236.754" stroke="#D2DCE4" stroke-width="3.1411" stroke-linecap="round"/>
<path d="M208.484 186.897H236.754" stroke="#D2DCE4" stroke-width="3.1411" stroke-linecap="round"/>
<path d="M208.484 218.317H236.754" stroke="#D2DCE4" stroke-width="3.1411" stroke-linecap="round"/>
<path d="M208.484 249.724H236.754" stroke="#D2DCE4" stroke-width="3.1411" stroke-linecap="round"/>
<path d="M250.891 155.492H280.731" stroke="#D2DCE4" stroke-width="3.1411" stroke-linecap="round"/>
<path d="M250.891 186.897H280.731" stroke="#D2DCE4" stroke-width="3.1411" stroke-linecap="round"/>
<path d="M250.891 218.317H280.731" stroke="#D2DCE4" stroke-width="3.1411" stroke-linecap="round"/>
<path d="M250.891 249.724H280.731" stroke="#D2DCE4" stroke-width="3.1411" stroke-linecap="round"/>
<path d="M296.445 155.492H323.145" stroke="#D2DCE4" stroke-width="3.1411" stroke-linecap="round"/>
<path d="M296.445 186.897H323.145" stroke="#D2DCE4" stroke-width="3.1411" stroke-linecap="round"/>
<path d="M296.445 218.317H323.145" stroke="#D2DCE4" stroke-width="3.1411" stroke-linecap="round"/>
<path d="M296.445 249.724H323.145" stroke="#D2DCE4" stroke-width="3.1411" stroke-linecap="round"/>
<path d="M110.249 143.838V135.983L102.395 143.838H110.249Z" fill="#B8C4D0"/>
<path d="M138.016 140.468C138.016 141.445 137.622 142.028 137.199 142.385C136.783 142.735 136.134 142.983 135.259 142.983H133.553V137.952H135.259C136.134 137.952 136.783 138.2 137.199 138.557C137.622 138.907 138.016 139.491 138.016 140.468ZM136.82 140.468C136.82 139.848 136.586 139.491 136.375 139.287C136.163 139.09 135.813 138.929 135.325 138.929H134.727V141.984H135.325C135.813 141.984 136.163 141.824 136.375 141.62C136.586 141.423 136.82 141.088 136.82 140.468Z" fill="#303B45"/>
<path d="M180.855 142.983H177.53V137.952H180.789V138.893H178.704V139.921H180.672V140.862H178.704V142.028H180.855V142.983Z" fill="#303B45"/>
<path d="M224.657 138.893H222.688V140.125H224.54V141.066H222.688V142.983H221.514V137.952H224.657V138.893Z" fill="#303B45"/>
<path d="M270.084 142.204C269.829 142.43 269.231 143.065 267.845 143.065C266.453 143.065 265.228 142.146 265.228 140.469C265.228 138.792 266.453 137.88 267.86 137.88C269.194 137.88 269.77 138.58 269.931 138.755L269.15 139.433C268.939 139.2 268.545 138.857 267.86 138.857C267.05 138.857 266.423 139.448 266.423 140.469C266.423 141.49 267.065 142.08 267.882 142.08C268.698 142.08 268.932 141.759 268.932 141.759V141.016H267.874V140.119H270.084V142.204Z" fill="#303B45"/>
</g>
<path d="M306.434 250.481V131.94" stroke="#D2DCE4" stroke-width="0.785274"/>
<rect x="98.0039" y="119.06" width="217.669" height="13.3477" fill="#63B97F"/>
<path d="M98 112.898C98 110.063 100.298 107.765 103.134 107.765H310.536C313.371 107.765 315.669 110.063 315.669 112.898V119.059H98V112.898Z" fill="#4B825D"/>
<path d="M108.452 113.468C108.453 113.891 108.328 114.306 108.092 114.659C107.857 115.012 107.522 115.287 107.13 115.45C106.737 115.613 106.305 115.656 105.888 115.574C105.471 115.492 105.088 115.288 104.787 114.989C104.486 114.69 104.281 114.308 104.198 113.893C104.115 113.477 104.157 113.046 104.319 112.654C104.482 112.263 104.757 111.928 105.11 111.692C105.464 111.457 105.879 111.331 106.304 111.331C106.872 111.335 107.415 111.561 107.816 111.961C108.218 112.361 108.446 112.902 108.452 113.468Z" fill="#F66058"/>
<path d="M117.491 113.468C117.492 113.892 117.367 114.307 117.131 114.66C116.895 115.013 116.56 115.288 116.167 115.451C115.775 115.613 115.342 115.656 114.925 115.574C114.508 115.491 114.125 115.287 113.824 114.987C113.524 114.687 113.319 114.305 113.236 113.889C113.154 113.473 113.197 113.042 113.36 112.651C113.523 112.259 113.799 111.925 114.153 111.69C114.507 111.455 114.923 111.33 115.348 111.331C115.63 111.33 115.909 111.384 116.17 111.491C116.43 111.598 116.667 111.755 116.866 111.954C117.066 112.153 117.223 112.389 117.331 112.648C117.438 112.908 117.492 113.187 117.491 113.468Z" fill="#F9BD2E"/>
<path d="M126.749 113.468C126.75 113.891 126.625 114.306 126.389 114.659C126.154 115.012 125.819 115.287 125.426 115.45C125.034 115.613 124.602 115.656 124.185 115.574C123.768 115.492 123.385 115.288 123.084 114.989C122.783 114.69 122.578 114.308 122.495 113.893C122.411 113.477 122.454 113.046 122.616 112.654C122.779 112.263 123.054 111.928 123.407 111.692C123.76 111.457 124.176 111.331 124.601 111.331C125.168 111.335 125.712 111.561 126.113 111.961C126.515 112.361 126.743 112.902 126.749 113.468Z" fill="#3CC840"/>
<rect x="103.332" y="122.141" width="7.54656" height="7.1872" rx="1.53463" fill="#4B825D"/>
<path d="M107.295 126.098L108.196 127.53H109.086L107.771 125.676L109 123.937H108.121L107.289 125.233L106.457 123.937H105.578L106.807 125.671L105.492 127.53H106.376L107.295 126.098Z" fill="white"/>
<rect opacity="0.3" x="290.012" y="123.167" width="25.6686" height="5.13371" fill="white"/>
<rect opacity="0.3" x="246.887" y="123.167" width="35.936" height="5.13371" fill="white"/>
<rect opacity="0.3" x="161.664" y="123.167" width="35.936" height="5.13371" fill="white"/>
<rect opacity="0.3" x="203.754" y="123.167" width="36.9627" height="5.13371" fill="white"/>
<rect opacity="0.3" x="118.539" y="123.167" width="35.936" height="5.13371" fill="white"/>
</g>
<g filter="url(#filter3_dd_961_55815)">
<rect x="232.32" y="47" width="177.897" height="113.207" rx="5.57718" fill="white"/>
<rect x="230.82" y="45.5" width="180.897" height="116.207" rx="7.07718" stroke="#3D7FFC" stroke-width="3"/>
</g>
<rect x="335.242" y="74.1602" width="29.6313" height="7.40783" rx="3.70391" fill="#8599AC"/>
<rect opacity="0.88" x="245.188" y="74.1602" width="78.6217" height="72.9037" rx="8.16854" fill="#C6DBFF"/>
<path d="M266.629 128.396C266.637 130.367 268.226 131.958 270.179 131.952L299.87 131.803C301.822 131.792 303.395 130.185 303.387 128.211L298.641 96.7929L294.198 96.8119C294.203 96.6869 294.203 96.5591 294.203 96.434C294.179 91.2212 289.962 87.001 284.806 87.0255C279.651 87.0527 275.477 91.3137 275.501 96.5291C275.501 96.6542 275.507 96.7793 275.512 96.9071L270.598 96.9289L266.629 128.396ZM277.591 96.8962C277.585 96.7712 277.577 96.6434 277.577 96.5183C277.559 92.4666 280.805 89.1465 284.817 89.1274C288.827 89.1111 292.105 92.3932 292.124 96.4448C292.124 96.5699 292.121 96.6977 292.113 96.8255L277.588 96.8962H277.591Z" fill="#3D7FFC"/>
<path d="M253.222 58.1813C253.222 60.2263 251.535 61.9134 249.49 61.9134C247.445 61.9134 245.758 60.2263 245.758 58.1813C245.758 56.1363 247.445 54.4492 249.49 54.4492C251.535 54.4492 253.222 56.1363 253.222 58.1813Z" fill="#F66058"/>
<path d="M265.41 58.1813C265.41 60.2263 263.722 61.9134 261.677 61.9134C259.632 61.9134 257.945 60.2263 257.945 58.1813C257.945 56.1363 259.632 54.4492 261.677 54.4492C263.774 54.4492 265.41 56.1363 265.41 58.1813Z" fill="#F9BD2E"/>
<path d="M277.609 58.1813C277.609 60.2263 275.922 61.9134 273.877 61.9134C271.832 61.9134 270.145 60.2263 270.145 58.1813C270.145 56.1363 271.832 54.4492 273.877 54.4492C275.922 54.4492 277.609 56.1363 277.609 58.1813Z" fill="#3CC840"/>
<path fill-rule="evenodd" clip-rule="evenodd" d="M364.035 124.561C364.035 120.729 367.138 117.623 370.965 117.623L390.06 117.623C393.887 117.623 396.99 120.729 396.99 124.561C396.99 128.393 393.887 131.499 390.06 131.499H370.965C367.138 131.499 364.035 128.393 364.035 124.561Z" fill="#3D7FFC"/>
<path d="M355.54 130.714C355.54 127.075 353.358 124.677 349.893 123.188L347.198 122.072L347.37 115.456C348.952 115.663 350.92 116.655 352.375 118.226L355.027 114.133C353.316 112.148 350.407 110.99 347.84 110.783L347.883 108.468H344.803L344.717 110.701C342.407 110.907 340.183 111.61 338.728 112.851C337.146 114.174 335.905 116.118 335.905 118.847C335.905 122.237 337.958 124.057 338.899 124.76C339.841 125.504 341.124 126.124 342.749 126.786L344.204 127.365L344.076 134.27C342.236 134.229 339.156 132.782 337.916 130.88L334.75 135.015C336.889 137.62 340.397 139.108 343.605 139.232L343.52 141.424H346.6L346.685 139.15C348.311 139.026 350.749 138.24 352.246 137.082C353.915 135.8 355.54 133.65 355.54 130.714ZM344.675 115.415L344.546 121.162L344.076 120.956C343.006 120.459 341.894 119.715 341.894 118.185C341.894 116.572 343.049 115.539 344.675 115.415ZM349.637 131.5C349.637 133.113 348.097 134.229 346.771 134.353L346.899 128.192L347.583 128.523C348.867 129.143 349.637 129.929 349.637 131.5Z" fill="#3D7FFC"/>
<path d="M344.978 91.6969H342.281V91.6919C342.132 91.69 341.986 91.6454 341.865 91.5638C341.744 91.4821 341.653 91.3677 341.604 91.2359C341.596 91.2158 341.589 91.1952 341.583 91.1744L340.792 88.8102L340.772 88.7509C340.738 88.6616 340.675 88.5848 340.59 88.5316C340.506 88.4784 340.406 88.4516 340.304 88.4554C340.202 88.4592 340.104 88.4935 340.025 88.5528C339.945 88.6121 339.889 88.6932 339.862 88.7848L339.062 91.1655C339.062 91.1668 339.062 91.1684 339.062 91.1697C339.055 91.1946 339.047 91.219 339.037 91.2428C338.987 91.3734 338.896 91.4867 338.775 91.5672C338.654 91.6477 338.509 91.6913 338.36 91.6927V91.6977H335.661C335.543 91.7166 335.437 91.7741 335.361 91.8597C335.285 91.9452 335.244 92.053 335.246 92.164C335.246 92.2357 335.262 92.3066 335.295 92.3714C335.328 92.4362 335.377 92.4934 335.437 92.5384L335.459 92.555L337.554 94.0403C337.654 94.1071 337.735 94.1951 337.79 94.2969C337.846 94.3988 337.875 94.5116 337.874 94.6259C337.874 94.679 337.867 94.732 337.855 94.7837C337.846 94.8236 337.833 94.8625 337.816 94.9003L337.021 97.2771V97.2856L337.015 97.3029C337.002 97.3468 336.996 97.392 336.996 97.4376C336.994 97.4982 337.005 97.5587 337.028 97.6153C337.051 97.672 337.087 97.7241 337.131 97.7681C337.176 97.8121 337.23 97.8471 337.29 97.8716C337.35 97.8961 337.414 97.9092 337.479 97.9105C337.564 97.9109 337.647 97.8895 337.719 97.8489L337.804 97.7908L339.884 96.3209L339.93 96.2878C340.045 96.2134 340.182 96.1729 340.323 96.1716C340.463 96.1703 340.6 96.2085 340.717 96.2809C340.743 96.2961 340.767 96.3132 340.79 96.3321L342.859 97.7962L342.917 97.8381C342.993 97.8826 343.081 97.9058 343.171 97.9051C343.236 97.9037 343.3 97.89 343.36 97.8655C343.419 97.8409 343.473 97.8059 343.518 97.7619C343.562 97.718 343.598 97.6661 343.621 97.6096C343.644 97.553 343.655 97.4928 343.653 97.4322C343.654 97.3847 343.646 97.3372 343.631 97.2917C343.631 97.2846 343.626 97.2769 343.625 97.269L342.826 94.8837C342.813 94.8528 342.803 94.8208 342.795 94.7883C342.762 94.658 342.768 94.5216 342.812 94.3943C342.857 94.267 342.939 94.1537 343.049 94.0672C343.067 94.053 343.085 94.0406 343.104 94.0279L345.177 92.5619L345.24 92.5165C345.294 92.4715 345.337 92.4162 345.366 92.3545C345.395 92.2928 345.41 92.2261 345.409 92.1586C345.409 92.0462 345.366 91.9373 345.286 91.8524C345.207 91.7674 345.098 91.7123 344.978 91.6969Z" fill="#FECE4D"/>
<path d="M358.522 91.6969H355.825V91.6919C355.676 91.69 355.53 91.6454 355.409 91.5638C355.288 91.4821 355.197 91.3676 355.148 91.2359C355.14 91.2158 355.133 91.1952 355.127 91.1744L354.336 88.8102L354.315 88.7509C354.281 88.6616 354.218 88.5848 354.133 88.5316C354.049 88.4784 353.949 88.4516 353.847 88.4554C353.745 88.4592 353.647 88.4935 353.568 88.5528C353.488 88.6121 353.431 88.6932 353.405 88.7848L352.605 91.1655C352.605 91.1668 352.605 91.1684 352.605 91.1697C352.598 91.1946 352.59 91.219 352.58 91.2428C352.53 91.3735 352.439 91.4867 352.318 91.5672C352.197 91.6477 352.052 91.6914 351.903 91.6927V91.6977H349.204C349.086 91.7166 348.98 91.7741 348.904 91.8597C348.828 91.9452 348.787 92.053 348.789 92.164C348.789 92.2357 348.805 92.3066 348.838 92.3714C348.871 92.4362 348.92 92.4934 348.98 92.5384L349.002 92.555L351.097 94.0403C351.22 94.1237 351.314 94.2389 351.368 94.3716C351.421 94.5042 351.432 94.6486 351.398 94.7868C351.389 94.8266 351.376 94.8656 351.359 94.9033L350.564 97.2802V97.2886L350.558 97.306C350.545 97.3499 350.539 97.3955 350.539 97.441C350.537 97.5017 350.548 97.5617 350.571 97.6184C350.594 97.6751 350.629 97.7272 350.674 97.7712C350.719 97.8151 350.773 97.8502 350.833 97.8747C350.892 97.8992 350.957 97.9123 351.022 97.9135C351.107 97.9139 351.19 97.893 351.262 97.8524L351.347 97.7939L353.427 96.3244L353.473 96.2913C353.588 96.2168 353.725 96.1763 353.865 96.1751C354.006 96.1738 354.143 96.2116 354.26 96.284C354.286 96.2991 354.31 96.3162 354.333 96.3351L356.402 97.7993L356.46 97.8412C356.536 97.8856 356.624 97.9088 356.714 97.9082C356.779 97.9067 356.843 97.8935 356.903 97.8689C356.962 97.8444 357.016 97.8089 357.061 97.765C357.105 97.7211 357.141 97.6692 357.164 97.6126C357.187 97.5561 357.198 97.4958 357.196 97.4353C357.197 97.3877 357.189 97.3407 357.174 97.2952C357.174 97.2881 357.169 97.28 357.167 97.2721L356.369 94.8868C356.355 94.8559 356.345 94.8239 356.337 94.7914C356.323 94.7356 356.315 94.6786 356.315 94.6213C356.314 94.5163 356.339 94.4123 356.386 94.3169C356.433 94.2216 356.502 94.1371 356.589 94.0695C356.606 94.0553 356.625 94.0429 356.644 94.0303L358.716 92.5646L358.779 92.5188C358.833 92.4739 358.876 92.4185 358.905 92.3568C358.935 92.2951 358.949 92.2284 358.948 92.161C358.949 92.0487 358.907 91.9396 358.828 91.8543C358.75 91.769 358.641 91.7133 358.522 91.6969Z" fill="#FECE4D"/>
<path d="M372.069 91.6969H369.372V91.6919C369.222 91.69 369.077 91.6454 368.956 91.5638C368.835 91.4821 368.744 91.3677 368.695 91.2359C368.687 91.2158 368.68 91.1952 368.674 91.1744L367.882 88.8102L367.862 88.7509C367.828 88.6616 367.764 88.5848 367.68 88.5316C367.596 88.4784 367.495 88.4516 367.394 88.4554C367.292 88.4592 367.194 88.4935 367.115 88.5528C367.035 88.6121 366.978 88.6932 366.952 88.7848L366.152 91.1655C366.152 91.1655 366.152 91.1658 366.152 91.1697C366.145 91.1946 366.137 91.2189 366.127 91.2428C366.077 91.3734 365.986 91.4867 365.865 91.5672C365.743 91.6477 365.599 91.6913 365.45 91.6927V91.6977H362.751C362.633 91.7166 362.527 91.7741 362.451 91.8597C362.375 91.9452 362.334 92.053 362.336 92.164C362.335 92.2358 362.352 92.307 362.385 92.3718C362.418 92.4367 362.466 92.4936 362.526 92.5384L362.548 92.555L364.644 94.0403C364.767 94.1237 364.861 94.2389 364.915 94.3716C364.968 94.5042 364.978 94.6486 364.945 94.7868C364.935 94.8267 364.922 94.8657 364.906 94.9033L364.111 97.2802V97.2887L364.105 97.306C364.092 97.3499 364.086 97.3955 364.085 97.441C364.084 97.5017 364.095 97.5617 364.118 97.6184C364.141 97.6751 364.176 97.7272 364.221 97.7712C364.266 97.8151 364.32 97.8502 364.38 97.8747C364.439 97.8992 364.504 97.9123 364.569 97.9136C364.653 97.914 364.737 97.893 364.809 97.8524L364.894 97.7939L366.974 96.3244L367.02 96.2913C367.135 96.2168 367.272 96.1763 367.412 96.1751C367.553 96.1738 367.69 96.2116 367.807 96.284C367.833 96.2991 367.857 96.3162 367.88 96.3351L369.948 97.7993L370.007 97.8412C370.083 97.8856 370.171 97.9088 370.261 97.9082C370.326 97.9067 370.39 97.8935 370.449 97.8689C370.509 97.8444 370.563 97.809 370.607 97.765C370.652 97.7211 370.687 97.6692 370.711 97.6126C370.734 97.5561 370.745 97.4958 370.743 97.4353C370.744 97.3877 370.736 97.3407 370.721 97.2952C370.721 97.2881 370.716 97.28 370.714 97.2721L369.916 94.8868C369.903 94.8559 369.893 94.8239 369.885 94.7914C369.87 94.7356 369.863 94.6786 369.863 94.6213C369.862 94.5163 369.886 94.4123 369.934 94.3169C369.981 94.2216 370.05 94.1371 370.136 94.0695C370.154 94.0553 370.173 94.0429 370.191 94.0303L372.264 92.5646L372.328 92.5188C372.382 92.4739 372.425 92.4185 372.454 92.3568C372.483 92.2951 372.498 92.2284 372.497 92.161C372.498 92.0484 372.455 91.9392 372.376 91.8539C372.298 91.7685 372.188 91.7129 372.069 91.6969Z" fill="#FECE4D"/>
<path d="M385.608 91.6969H382.911V91.6919C382.762 91.69 382.616 91.6454 382.495 91.5638C382.374 91.4821 382.283 91.3676 382.234 91.2359C382.226 91.2158 382.219 91.1952 382.213 91.1744L381.421 88.8102L381.401 88.7509C381.367 88.6616 381.303 88.5848 381.219 88.5316C381.135 88.4784 381.035 88.4516 380.933 88.4554C380.831 88.4592 380.733 88.4935 380.654 88.5528C380.574 88.6121 380.517 88.6932 380.491 88.7848L379.691 91.1655C379.691 91.1668 379.691 91.1684 379.691 91.1697C379.684 91.1946 379.676 91.219 379.666 91.2428C379.616 91.3735 379.525 91.4867 379.404 91.5672C379.283 91.6477 379.138 91.6914 378.989 91.6927V91.6977H376.29C376.172 91.7166 376.066 91.7741 375.99 91.8597C375.914 91.9452 375.873 92.053 375.875 92.164C375.874 92.2358 375.891 92.307 375.924 92.3718C375.957 92.4367 376.005 92.4936 376.065 92.5384L376.088 92.555L378.183 94.0403C378.306 94.1236 378.4 94.2389 378.454 94.3716C378.507 94.5042 378.518 94.6486 378.484 94.7868C378.475 94.8267 378.461 94.8657 378.445 94.9033L377.65 97.2802V97.2886L377.643 97.306C377.63 97.3499 377.624 97.3955 377.624 97.441C377.622 97.5017 377.633 97.5617 377.656 97.6184C377.679 97.6751 377.715 97.7272 377.76 97.7712C377.804 97.8151 377.858 97.8502 377.918 97.8747C377.978 97.8992 378.042 97.9123 378.107 97.9135C378.192 97.9139 378.275 97.893 378.347 97.8524L378.432 97.7939L380.512 96.3244L380.558 96.2913C380.674 96.2168 380.81 96.1763 380.951 96.1751C381.091 96.1738 381.228 96.2116 381.345 96.284C381.371 96.2991 381.396 96.3162 381.419 96.3351L383.488 97.7993L383.546 97.8412C383.622 97.8856 383.71 97.9088 383.8 97.9082C383.865 97.9067 383.929 97.8935 383.989 97.8689C384.048 97.8444 384.102 97.8089 384.147 97.765C384.191 97.7211 384.226 97.6692 384.25 97.6126C384.273 97.5561 384.284 97.4958 384.282 97.4353C384.283 97.3877 384.275 97.3407 384.26 97.2952C384.26 97.2881 384.255 97.28 384.253 97.2721L383.455 94.8868C383.441 94.8559 383.431 94.8239 383.423 94.7914C383.409 94.7356 383.401 94.6786 383.401 94.6213C383.4 94.5163 383.424 94.4123 383.472 94.3169C383.519 94.2216 383.588 94.1371 383.675 94.0695C383.692 94.0553 383.711 94.0429 383.73 94.0303L385.802 92.5646L385.865 92.5188C385.919 92.4739 385.962 92.4185 385.991 92.3568C386.02 92.2951 386.035 92.2284 386.034 92.161C386.035 92.0487 385.993 91.9396 385.914 91.8543C385.836 91.769 385.727 91.7133 385.608 91.6969Z" fill="#FECE4D"/>
<path d="M399.144 91.6969H396.447V91.6919C396.298 91.69 396.152 91.6454 396.031 91.5638C395.91 91.4821 395.819 91.3677 395.77 91.2359C395.762 91.2158 395.755 91.1952 395.749 91.1744L394.957 88.8102L394.937 88.7509C394.903 88.6616 394.84 88.5848 394.755 88.5316C394.671 88.4784 394.571 88.4516 394.469 88.4554C394.367 88.4592 394.269 88.4935 394.19 88.5528C394.11 88.6121 394.053 88.6932 394.027 88.7848L393.227 91.1655C393.227 91.1655 393.227 91.1658 393.227 91.1697C393.22 91.1946 393.212 91.219 393.202 91.2428C393.152 91.3735 393.061 91.4867 392.94 91.5672C392.819 91.6477 392.674 91.6914 392.525 91.6927V91.6977H389.825C389.707 91.7166 389.601 91.7741 389.525 91.8597C389.449 91.9452 389.408 92.053 389.41 92.164C389.41 92.2357 389.427 92.3066 389.459 92.3714C389.492 92.4362 389.541 92.4934 389.601 92.5384L389.623 92.555L391.721 94.0387C391.844 94.1221 391.938 94.2374 391.991 94.37C392.045 94.5027 392.055 94.6471 392.021 94.7852C392.012 94.8251 391.999 94.8641 391.982 94.9018L391.188 97.2786V97.2871L391.182 97.3044C391.169 97.3483 391.162 97.3935 391.161 97.4391C391.16 97.4998 391.171 97.5602 391.194 97.6169C391.217 97.6736 391.252 97.7257 391.297 97.7696C391.342 97.8136 391.396 97.8487 391.456 97.8731C391.515 97.8976 391.58 97.9108 391.645 97.912C391.729 97.9124 391.813 97.891 391.885 97.8504L391.97 97.7923L394.05 96.3224L394.096 96.2894C394.211 96.2149 394.348 96.1748 394.488 96.1735C394.629 96.1723 394.766 96.2101 394.883 96.2824C394.909 96.2976 394.933 96.3147 394.956 96.3336L397.024 97.7977L397.083 97.8397C397.159 97.8841 397.247 97.9073 397.337 97.9066C397.402 97.9052 397.466 97.8919 397.525 97.8674C397.585 97.8428 397.639 97.8074 397.683 97.7635C397.728 97.7196 397.763 97.6677 397.787 97.6111C397.81 97.5545 397.821 97.4943 397.819 97.4337C397.819 97.3862 397.812 97.3391 397.797 97.2937C397.797 97.2866 397.792 97.2784 397.79 97.2706L396.991 94.8853C396.978 94.8543 396.968 94.8224 396.96 94.7898C396.946 94.7341 396.938 94.6771 396.938 94.6198C396.937 94.5147 396.961 94.4107 397.009 94.3154C397.056 94.22 397.125 94.1355 397.211 94.068C397.229 94.0538 397.248 94.0413 397.266 94.0287L399.339 92.5627L399.402 92.5173C399.456 92.4723 399.499 92.417 399.528 92.3553C399.557 92.2936 399.572 92.2268 399.571 92.1594C399.572 92.0473 399.529 91.9385 399.45 91.8535C399.372 91.7685 399.263 91.713 399.144 91.6969Z" fill="#FECE4D"/>
<path d="M328.23 162.572C328.576 165.497 326.485 168.149 323.56 168.495C320.634 168.84 317.983 166.749 317.637 163.824C317.291 160.899 319.383 158.247 322.308 157.902C325.233 157.556 327.884 159.647 328.23 162.572ZM247.604 204.415C247.213 204.024 247.213 203.391 247.604 203.001L253.968 196.637C254.358 196.246 254.991 196.246 255.382 196.637C255.773 197.027 255.773 197.66 255.382 198.051L249.725 203.708L255.382 209.365C255.773 209.755 255.773 210.388 255.382 210.779C254.991 211.169 254.358 211.169 253.968 210.779L247.604 204.415ZM323.915 163.389C320.426 181.373 314.593 191.873 302.86 197.739C291.285 203.527 274.114 204.708 248.311 204.708L248.311 202.708C274.21 202.708 290.886 201.49 301.965 195.951C312.885 190.491 318.512 180.736 321.952 163.008L323.915 163.389Z" fill="#3D7FFC"/>
<path fill-rule="evenodd" clip-rule="evenodd" d="M389.143 61.2183L398.181 56L415.34 60.8127L384.281 78.7446L389.143 61.2183ZM384.283 78.7451L415.341 60.8132L442.247 107.415L411.188 125.347L384.283 78.7451ZM398.227 68.6389C400.231 68.6389 401.855 67.0145 401.855 65.0108C401.855 63.0071 400.231 61.3828 398.227 61.3828C396.223 61.3828 394.599 63.0071 394.599 65.0108C394.599 67.0145 396.223 68.6389 398.227 68.6389Z" fill="#0BE597"/>
<path fill-rule="evenodd" clip-rule="evenodd" d="M400.042 53.2615C402.716 47.8732 400.476 43.0468 396.683 41.0141C394.817 40.0139 392.57 39.6902 390.412 40.3301C388.345 40.9429 386.475 42.4042 385.141 44.7579H388.824C389.589 43.9404 390.434 43.4527 391.265 43.2063C392.601 42.81 394.035 42.9987 395.266 43.6583C397.668 44.9454 399.29 48.0281 397.355 51.9279C395.921 54.8177 397.045 57.3927 397.798 59.1196C397.899 59.3515 397.994 59.5681 398.075 59.7681C398.463 60.7305 398.597 61.336 398.503 61.8451C398.422 62.2827 398.108 62.952 396.818 63.8379L398.516 66.3111C400.193 65.1595 401.177 63.8834 401.453 62.3908C401.716 60.9696 401.266 59.6599 400.856 58.6451C400.743 58.3643 400.632 58.0978 400.525 57.8431C399.773 56.0434 399.265 54.8288 400.042 53.2615Z" fill="#303B45"/>
<path d="M426.493 91.3693C428.095 94.4319 427.049 97.5425 424.071 99.0994C421.094 100.656 417.943 99.7402 416.341 96.6776C414.74 93.615 415.786 90.5043 418.763 88.9474C421.741 87.3905 424.892 88.3067 426.493 91.3693ZM415.038 79.2677L413.118 105.224L410.554 105.084L412.502 79.1134L415.038 79.2677ZM409.25 87.6744C410.852 90.737 409.821 93.8759 406.843 95.4328C403.894 96.9749 400.7 96.0452 399.098 92.9826C397.497 89.92 398.571 86.7946 401.52 85.2525C404.498 83.6956 407.649 84.6118 409.25 87.6744ZM423.514 92.8546C422.773 91.4368 421.502 90.8014 420.112 91.528C418.751 92.2397 418.548 93.6461 419.289 95.0639C420.045 96.5102 421.317 97.1455 422.678 96.4338C424.067 95.7072 424.271 94.3009 423.514 92.8546ZM406.315 89.1732C405.559 87.727 404.259 87.1065 402.87 87.833C401.508 88.5448 401.333 89.9363 402.09 91.3826C402.831 92.8004 404.088 93.479 405.45 92.7672C406.839 92.0407 407.056 90.5911 406.315 89.1732Z" fill="#FDFEFF"/>
<defs>
<filter id="filter0_dd_961_55815" x="345.078" y="122.132" width="137.718" height="95.5676" filterUnits="userSpaceOnUse" color-interpolation-filters="sRGB">
<feFlood flood-opacity="0" result="BackgroundImageFix"/>
<feColorMatrix in="SourceAlpha" type="matrix" values="0 0 0 0 0 0 0 0 0 0 0 0 0 0 0 0 0 0 127 0" result="hardAlpha"/>
<feOffset dy="3.63399"/>
<feGaussianBlur stdDeviation="4.54249"/>
<feColorMatrix type="matrix" values="0 0 0 0 0.607843 0 0 0 0 0.67451 0 0 0 0 0.737255 0 0 0 0.35 0"/>
<feBlend mode="normal" in2="BackgroundImageFix" result="effect1_dropShadow_961_55815"/>
<feColorMatrix in="SourceAlpha" type="matrix" values="0 0 0 0 0 0 0 0 0 0 0 0 0 0 0 0 0 0 127 0" result="hardAlpha"/>
<feOffset dy="1.817"/>
<feGaussianBlur stdDeviation="5.45099"/>
<feColorMatrix type="matrix" values="0 0 0 0 0.89625 0 0 0 0 0.930414 0 0 0 0 0.995833 0 0 0 0.5 0"/>
<feBlend mode="normal" in2="effect1_dropShadow_961_55815" result="effect2_dropShadow_961_55815"/>
<feBlend mode="normal" in="SourceGraphic" in2="effect2_dropShadow_961_55815" result="shape"/>
</filter>
<filter id="filter1_dd_961_55815" x="289.601" y="212.174" width="97.9119" height="67.9451" filterUnits="userSpaceOnUse" color-interpolation-filters="sRGB">
<feFlood flood-opacity="0" result="BackgroundImageFix"/>
<feColorMatrix in="SourceAlpha" type="matrix" values="0 0 0 0 0 0 0 0 0 0 0 0 0 0 0 0 0 0 127 0" result="hardAlpha"/>
<feOffset dy="2.58362"/>
<feGaussianBlur stdDeviation="3.22953"/>
<feColorMatrix type="matrix" values="0 0 0 0 0.607843 0 0 0 0 0.67451 0 0 0 0 0.737255 0 0 0 0.35 0"/>
<feBlend mode="normal" in2="BackgroundImageFix" result="effect1_dropShadow_961_55815"/>
<feColorMatrix in="SourceAlpha" type="matrix" values="0 0 0 0 0 0 0 0 0 0 0 0 0 0 0 0 0 0 127 0" result="hardAlpha"/>
<feOffset dy="1.29181"/>
<feGaussianBlur stdDeviation="3.87543"/>
<feColorMatrix type="matrix" values="0 0 0 0 0.89625 0 0 0 0 0.930414 0 0 0 0 0.995833 0 0 0 0.5 0"/>
<feBlend mode="normal" in2="effect1_dropShadow_961_55815" result="effect2_dropShadow_961_55815"/>
<feBlend mode="normal" in="SourceGraphic" in2="effect2_dropShadow_961_55815" result="shape"/>
</filter>
<filter id="filter2_dd_961_55815" x="85.6791" y="97.4972" width="242.322" height="167.36" filterUnits="userSpaceOnUse" color-interpolation-filters="sRGB">
<feFlood flood-opacity="0" result="BackgroundImageFix"/>
<feColorMatrix in="SourceAlpha" type="matrix" values="0 0 0 0 0 0 0 0 0 0 0 0 0 0 0 0 0 0 127 0" result="hardAlpha"/>
<feOffset dy="4.10697"/>
<feGaussianBlur stdDeviation="5.13371"/>
<feColorMatrix type="matrix" values="0 0 0 0 0.607843 0 0 0 0 0.67451 0 0 0 0 0.737255 0 0 0 0.35 0"/>
<feBlend mode="normal" in2="BackgroundImageFix" result="effect1_dropShadow_961_55815"/>
<feColorMatrix in="SourceAlpha" type="matrix" values="0 0 0 0 0 0 0 0 0 0 0 0 0 0 0 0 0 0 127 0" result="hardAlpha"/>
<feOffset dy="2.05349"/>
<feGaussianBlur stdDeviation="6.16046"/>
<feColorMatrix type="matrix" values="0 0 0 0 0.89625 0 0 0 0 0.930414 0 0 0 0 0.995833 0 0 0 0.5 0"/>
<feBlend mode="normal" in2="effect1_dropShadow_961_55815" result="effect2_dropShadow_961_55815"/>
<feBlend mode="normal" in="SourceGraphic" in2="effect2_dropShadow_961_55815" result="shape"/>
</filter>
<filter id="filter3_dd_961_55815" x="212.589" y="30.0571" width="217.362" height="152.67" filterUnits="userSpaceOnUse" color-interpolation-filters="sRGB">
<feFlood flood-opacity="0" result="BackgroundImageFix"/>
<feColorMatrix in="SourceAlpha" type="matrix" values="0 0 0 0 0 0 0 0 0 0 0 0 0 0 0 0 0 0 127 0" result="hardAlpha"/>
<feOffset dy="5.57718"/>
<feGaussianBlur stdDeviation="6.97147"/>
<feColorMatrix type="matrix" values="0 0 0 0 0.607843 0 0 0 0 0.67451 0 0 0 0 0.737255 0 0 0 0.35 0"/>
<feBlend mode="normal" in2="BackgroundImageFix" result="effect1_dropShadow_961_55815"/>
<feColorMatrix in="SourceAlpha" type="matrix" values="0 0 0 0 0 0 0 0 0 0 0 0 0 0 0 0 0 0 127 0" result="hardAlpha"/>
<feOffset dy="2.78859"/>
<feGaussianBlur stdDeviation="8.36577"/>
<feColorMatrix type="matrix" values="0 0 0 0 0.89625 0 0 0 0 0.930414 0 0 0 0 0.995833 0 0 0 0.5 0"/>
<feBlend mode="normal" in2="effect1_dropShadow_961_55815" result="effect2_dropShadow_961_55815"/>
<feBlend mode="normal" in="SourceGraphic" in2="effect2_dropShadow_961_55815" result="shape"/>
</filter>
</defs>
</svg>
