<svg width="588" height="311" viewBox="0 0 588 311" fill="none" xmlns="http://www.w3.org/2000/svg">
<rect width="588" height="311" rx="5" fill="#F5F8FF"/>
<g filter="url(#filter0_dd_956_73373)">
<rect x="187.934" y="64.5342" width="213.671" height="143.817" rx="9.21073" fill="white"/>
</g>
<path d="M222.444 82.9995C222.444 86.3768 219.658 89.1631 216.281 89.1631C212.903 89.1631 210.117 86.3768 210.117 82.9995C210.117 79.6222 212.903 76.8359 216.281 76.8359C219.658 76.8359 222.444 79.6222 222.444 82.9995Z" fill="#F66058"/>
<path d="M242.585 82.9995C242.585 86.3768 239.799 89.1631 236.421 89.1631C233.044 89.1631 230.258 86.3768 230.258 82.9995C230.258 79.6222 233.044 76.8359 236.421 76.8359C239.883 76.8359 242.585 79.6222 242.585 82.9995Z" fill="#F9BD2E"/>
<path d="M262.722 82.9995C262.722 86.3768 259.935 89.1631 256.558 89.1631C253.181 89.1631 250.395 86.3768 250.395 82.9995C250.395 79.6222 253.181 76.8359 256.558 76.8359C259.935 76.8359 262.722 79.6222 262.722 82.9995Z" fill="#3CC840"/>
<path d="M202.832 107.526C202.832 105.989 204.078 104.742 205.616 104.742H383.852C385.39 104.742 386.636 105.989 386.636 107.526V111.894C386.636 113.431 385.39 114.678 383.852 114.678H205.616C204.078 114.678 202.832 113.431 202.832 111.894V107.526Z" fill="#EDF1F6"/>
<path d="M351.863 127.396C351.863 125.859 353.11 124.612 354.647 124.612H383.853C385.391 124.612 386.637 125.859 386.637 127.396V151.634C386.637 153.172 385.391 154.418 383.853 154.418H354.647C353.11 154.418 351.863 153.172 351.863 151.634V127.396Z" fill="#EDF1F6"/>
<path d="M351.863 167.136C351.863 165.599 353.11 164.353 354.647 164.353H383.853C385.391 164.353 386.637 165.599 386.637 167.136V191.375C386.637 192.912 385.391 194.159 383.853 194.159H354.647C353.11 194.159 351.863 192.912 351.863 191.375V167.136Z" fill="#EDF1F6"/>
<path d="M302.191 127.396C302.191 125.859 303.438 124.612 304.975 124.612H334.181C335.719 124.612 336.965 125.859 336.965 127.396V151.634C336.965 153.172 335.719 154.418 334.181 154.418H304.975C303.438 154.418 302.191 153.172 302.191 151.634V127.396Z" fill="#CDDFFF"/>
<path d="M302.191 167.136C302.191 165.599 303.438 164.353 304.975 164.353H334.181C335.719 164.353 336.965 165.599 336.965 167.136V191.375C336.965 192.912 335.719 194.159 334.181 194.159H304.975C303.438 194.159 302.191 192.912 302.191 191.375V167.136Z" fill="#EDF1F6"/>
<path d="M252.516 127.396C252.516 125.859 253.762 124.612 255.299 124.612H284.506C286.043 124.612 287.289 125.859 287.289 127.396V151.634C287.289 153.172 286.043 154.418 284.506 154.418H255.299C253.762 154.418 252.516 153.172 252.516 151.634V127.396Z" fill="#EDF1F6"/>
<path d="M252.516 167.136C252.516 165.599 253.762 164.353 255.299 164.353H284.506C286.043 164.353 287.289 165.599 287.289 167.136V191.375C287.289 192.912 286.043 194.159 284.506 194.159H255.299C253.762 194.159 252.516 192.912 252.516 191.375V167.136Z" fill="#EDF1F6"/>
<path d="M202.832 127.396C202.832 125.859 204.078 124.612 205.616 124.612H234.822C236.359 124.612 237.606 125.859 237.606 127.396V151.634C237.606 153.172 236.359 154.418 234.822 154.418H205.616C204.078 154.418 202.832 153.172 202.832 151.634V127.396Z" fill="#FFBEC8"/>
<path d="M202.832 167.136C202.832 165.599 204.078 164.353 205.616 164.353H234.822C236.359 164.353 237.606 165.599 237.606 167.136V191.375C237.606 192.912 236.359 194.159 234.822 194.159H205.616C204.078 194.159 202.832 192.912 202.832 191.375V167.136Z" fill="#EDF1F6"/>
<path d="M311.344 147.598C311.347 148.49 312.067 149.21 312.95 149.208L326.386 149.14C327.27 149.135 327.982 148.408 327.978 147.515L325.83 133.297L323.82 133.306C323.822 133.249 323.822 133.191 323.822 133.135C323.811 130.776 321.903 128.866 319.57 128.877C317.237 128.889 315.348 130.818 315.359 133.178C315.359 133.234 315.361 133.291 315.364 133.349L313.14 133.359L311.344 147.598ZM316.304 133.344C316.302 133.287 316.298 133.229 316.298 133.173C316.29 131.339 317.759 129.837 319.575 129.828C321.389 129.821 322.873 131.306 322.881 133.14C322.881 133.196 322.88 133.254 322.876 133.312L316.303 133.344H316.304Z" fill="#3D7FFC"/>
<path d="M261.77 147.598C261.773 148.49 262.492 149.21 263.376 149.208L276.812 149.14C277.696 149.135 278.408 148.408 278.404 147.515L276.256 133.297L274.245 133.306C274.248 133.249 274.248 133.191 274.248 133.135C274.237 130.776 272.328 128.866 269.995 128.877C267.662 128.889 265.774 130.818 265.785 133.178C265.785 133.234 265.787 133.291 265.789 133.349L263.566 133.359L261.77 147.598ZM266.73 133.344C266.728 133.287 266.724 133.229 266.724 133.173C266.716 131.339 268.184 129.837 270 129.828C271.815 129.821 273.298 131.306 273.307 133.14C273.307 133.196 273.306 133.254 273.302 133.312L266.729 133.344H266.73Z" fill="#B8C4D0"/>
<path d="M212.191 147.598C212.195 148.49 212.914 149.21 213.798 149.208L227.234 149.14C228.117 149.135 228.829 148.408 228.826 147.515L226.678 133.297L224.667 133.306C224.67 133.249 224.67 133.191 224.67 133.135C224.659 130.776 222.75 128.866 220.417 128.877C218.084 128.889 216.195 130.818 216.206 133.178C216.206 133.234 216.209 133.291 216.211 133.349L213.988 133.359L212.191 147.598ZM217.152 133.344C217.15 133.287 217.146 133.229 217.146 133.173C217.137 131.339 218.606 129.837 220.422 129.828C222.237 129.821 223.72 131.306 223.729 133.14C223.729 133.196 223.728 133.254 223.724 133.312L217.151 133.344H217.152Z" fill="#F50F32"/>
<path d="M212.191 187.68C212.195 188.572 212.914 189.292 213.798 189.29L227.234 189.222C228.117 189.217 228.829 188.49 228.826 187.597L226.678 173.379L224.667 173.388C224.67 173.331 224.67 173.273 224.67 173.217C224.659 170.858 222.75 168.948 220.417 168.959C218.084 168.971 216.195 170.9 216.206 173.26C216.206 173.316 216.209 173.373 216.211 173.431L213.988 173.441L212.191 187.68ZM217.152 173.426C217.15 173.369 217.146 173.311 217.146 173.255C217.137 171.421 218.606 169.919 220.422 169.91C222.237 169.903 223.72 171.388 223.729 173.222C223.729 173.278 223.728 173.336 223.724 173.394L217.151 173.426H217.152Z" fill="#B8C4D0"/>
<path d="M261.77 187.68C261.773 188.572 262.492 189.292 263.376 189.29L276.812 189.222C277.696 189.217 278.408 188.49 278.404 187.597L276.256 173.379L274.245 173.388C274.248 173.331 274.248 173.273 274.248 173.217C274.237 170.858 272.328 168.948 269.995 168.959C267.662 168.971 265.774 170.9 265.785 173.26C265.785 173.316 265.787 173.373 265.789 173.431L263.566 173.441L261.77 187.68ZM266.73 173.426C266.728 173.369 266.724 173.311 266.724 173.255C266.716 171.421 268.184 169.919 270 169.91C271.815 169.903 273.298 171.388 273.307 173.222C273.307 173.278 273.306 173.336 273.302 173.394L266.729 173.426H266.73Z" fill="#B8C4D0"/>
<path d="M311.344 187.68C311.347 188.572 312.067 189.292 312.95 189.29L326.386 189.222C327.27 189.217 327.982 188.49 327.978 187.597L325.83 173.379L323.82 173.388C323.822 173.331 323.822 173.273 323.822 173.217C323.811 170.858 321.903 168.948 319.57 168.959C317.237 168.971 315.348 170.9 315.359 173.26C315.359 173.316 315.361 173.373 315.364 173.431L313.14 173.441L311.344 187.68ZM316.304 173.426C316.302 173.369 316.298 173.311 316.298 173.255C316.29 171.421 317.759 169.919 319.575 169.91C321.389 169.903 322.873 171.388 322.881 173.222C322.881 173.278 322.88 173.336 322.876 173.394L316.303 173.426H316.304Z" fill="#B8C4D0"/>
<path d="M360.918 187.68C360.922 188.572 361.641 189.292 362.524 189.29L375.96 189.222C376.844 189.217 377.556 188.49 377.552 187.597L375.404 173.379L373.394 173.388C373.396 173.331 373.396 173.273 373.396 173.217C373.385 170.858 371.477 168.948 369.144 168.959C366.811 168.971 364.922 170.9 364.933 173.26C364.933 173.316 364.935 173.373 364.938 173.431L362.714 173.441L360.918 187.68ZM365.879 173.426C365.876 173.369 365.872 173.311 365.872 173.255C365.864 171.421 367.333 169.919 369.149 169.91C370.963 169.903 372.447 171.388 372.455 173.222C372.455 173.278 372.454 173.336 372.451 173.394L365.877 173.426H365.879Z" fill="#B8C4D0"/>
<path opacity="0.8" d="M360.918 147.721C360.922 148.613 361.641 149.333 362.524 149.331L375.96 149.263C376.844 149.258 377.556 148.531 377.552 147.638L375.404 133.42L373.394 133.429C373.396 133.372 373.396 133.314 373.396 133.258C373.385 130.899 371.477 128.989 369.144 129C366.811 129.012 364.922 130.941 364.933 133.301C364.933 133.357 364.935 133.414 364.938 133.472L362.714 133.482L360.918 147.721ZM365.879 133.467C365.876 133.41 365.872 133.352 365.872 133.296C365.864 131.462 367.333 129.96 369.149 129.951C370.963 129.944 372.447 131.429 372.455 133.263C372.455 133.319 372.454 133.377 372.451 133.435L365.877 133.467H365.879Z" fill="#D2DCE4"/>
<g filter="url(#filter1_dd_956_73373)">
<rect x="367.246" y="184.78" width="127.63" height="81.2192" rx="4.00128" fill="white"/>
<rect x="365.746" y="183.28" width="130.63" height="84.2192" rx="5.50128" stroke="#3D7FFC" stroke-width="3"/>
</g>
<rect x="441.086" y="204.265" width="21.2586" height="5.31465" rx="2.65733" fill="#8599AC"/>
<rect opacity="0.88" x="376.477" y="204.265" width="56.4062" height="52.3039" rx="5.86042" fill="#C6DBFF"/>
<path d="M391.859 243.177C391.865 244.591 393.005 245.732 394.406 245.728L415.707 245.621C417.108 245.613 418.237 244.46 418.231 243.044L414.826 220.504L411.638 220.517C411.642 220.428 411.642 220.336 411.642 220.246C411.625 216.506 408.599 213.479 404.901 213.496C401.202 213.516 398.207 216.573 398.225 220.314C398.225 220.404 398.229 220.494 398.232 220.586L394.707 220.601L391.859 243.177ZM399.724 220.578C399.72 220.488 399.714 220.396 399.714 220.307C399.701 217.4 402.03 215.018 404.908 215.004C407.785 214.992 410.137 217.347 410.151 220.254C410.151 220.344 410.149 220.435 410.143 220.527L399.722 220.578H399.724Z" fill="#3D7FFC"/>
<path d="M382.238 192.802C382.238 194.269 381.028 195.479 379.56 195.479C378.093 195.479 376.883 194.269 376.883 192.802C376.883 191.334 378.093 190.124 379.56 190.124C381.028 190.124 382.238 191.334 382.238 192.802Z" fill="#F66058"/>
<path d="M390.98 192.802C390.98 194.269 389.77 195.479 388.303 195.479C386.835 195.479 385.625 194.269 385.625 192.802C385.625 191.334 386.835 190.124 388.303 190.124C389.806 190.124 390.98 191.334 390.98 192.802Z" fill="#F9BD2E"/>
<path d="M399.734 192.802C399.734 194.269 398.524 195.479 397.056 195.479C395.589 195.479 394.379 194.269 394.379 192.802C394.379 191.334 395.589 190.124 397.056 190.124C398.524 190.124 399.734 191.334 399.734 192.802Z" fill="#3CC840"/>
<path fill-rule="evenodd" clip-rule="evenodd" d="M461.746 240.425C461.746 237.676 463.972 235.447 466.718 235.447L480.417 235.447C483.163 235.447 485.389 237.676 485.389 240.425C485.389 243.174 483.163 245.403 480.417 245.403H466.718C463.972 245.403 461.746 243.174 461.746 240.425Z" fill="#3D7FFC"/>
<path d="M455.654 244.839C455.654 242.229 454.089 240.508 451.603 239.44L449.669 238.639L449.792 233.893C450.928 234.041 452.339 234.753 453.383 235.88L455.286 232.943C454.058 231.519 451.971 230.689 450.13 230.54L450.16 228.879H447.951L447.889 230.481C446.232 230.629 444.636 231.134 443.593 232.024C442.457 232.973 441.567 234.367 441.567 236.325C441.567 238.758 443.04 240.063 443.715 240.567C444.39 241.101 445.311 241.546 446.477 242.021L447.521 242.436L447.429 247.391C446.109 247.361 443.899 246.323 443.009 244.958L440.738 247.925C442.273 249.794 444.789 250.862 447.091 250.951L447.03 252.523H449.24L449.301 250.891C450.467 250.802 452.217 250.239 453.291 249.408C454.488 248.488 455.654 246.946 455.654 244.839ZM447.858 233.863L447.766 237.986L447.429 237.838C446.662 237.482 445.864 236.948 445.864 235.85C445.864 234.693 446.692 233.952 447.858 233.863ZM451.419 245.403C451.419 246.56 450.314 247.361 449.362 247.45L449.454 243.03L449.945 243.267C450.866 243.712 451.419 244.276 451.419 245.403Z" fill="#3D7FFC"/>
<path d="M448.072 216.847H446.137V216.844C446.03 216.842 445.926 216.81 445.839 216.752C445.752 216.693 445.686 216.611 445.651 216.517C445.645 216.502 445.64 216.487 445.636 216.472L445.068 214.776L445.055 214.734C445.03 214.67 444.984 214.615 444.924 214.576C444.864 214.538 444.791 214.519 444.719 214.522C444.646 214.524 444.575 214.549 444.518 214.592C444.461 214.634 444.42 214.692 444.402 214.758L443.827 216.466C443.827 216.467 443.827 216.468 443.827 216.469C443.823 216.487 443.817 216.504 443.81 216.522C443.774 216.615 443.708 216.697 443.621 216.754C443.534 216.812 443.431 216.843 443.324 216.844V216.848H441.387C441.303 216.861 441.227 216.903 441.172 216.964C441.118 217.025 441.088 217.103 441.09 217.182C441.09 217.234 441.102 217.285 441.125 217.331C441.149 217.378 441.184 217.419 441.227 217.451L441.242 217.463L442.746 218.529C442.817 218.576 442.875 218.64 442.915 218.713C442.955 218.786 442.976 218.867 442.975 218.949C442.975 218.987 442.97 219.025 442.961 219.062C442.955 219.09 442.945 219.118 442.933 219.146L442.363 220.851V220.857L442.359 220.869C442.35 220.901 442.345 220.933 442.345 220.966C442.344 221.009 442.352 221.053 442.368 221.093C442.385 221.134 442.41 221.171 442.442 221.203C442.475 221.235 442.513 221.26 442.556 221.277C442.599 221.295 442.645 221.304 442.692 221.305C442.753 221.305 442.812 221.29 442.864 221.261L442.925 221.219L444.418 220.165L444.45 220.141C444.533 220.088 444.631 220.059 444.732 220.058C444.833 220.057 444.931 220.084 445.015 220.136C445.034 220.147 445.051 220.159 445.067 220.173L446.551 221.223L446.593 221.253C446.648 221.285 446.711 221.302 446.775 221.301C446.822 221.3 446.868 221.29 446.911 221.273C446.953 221.255 446.992 221.23 447.024 221.199C447.056 221.167 447.081 221.13 447.098 221.089C447.115 221.049 447.123 221.005 447.122 220.962C447.122 220.928 447.116 220.894 447.106 220.861C447.106 220.856 447.102 220.851 447.101 220.845L446.528 219.134C446.519 219.111 446.511 219.089 446.506 219.065C446.482 218.972 446.486 218.874 446.518 218.782C446.55 218.691 446.609 218.61 446.688 218.548C446.701 218.538 446.714 218.529 446.727 218.52L448.215 217.468L448.26 217.435C448.298 217.403 448.329 217.363 448.35 217.319C448.371 217.275 448.382 217.227 448.381 217.179C448.381 217.098 448.35 217.02 448.293 216.959C448.236 216.898 448.158 216.858 448.072 216.847Z" fill="#FECE4D"/>
<path d="M457.791 216.847H455.857V216.844C455.749 216.842 455.645 216.81 455.558 216.752C455.471 216.693 455.406 216.611 455.371 216.517C455.365 216.502 455.36 216.487 455.356 216.472L454.788 214.776L454.773 214.734C454.749 214.67 454.703 214.615 454.643 214.576C454.582 214.538 454.51 214.519 454.437 214.522C454.364 214.524 454.294 214.549 454.237 214.592C454.18 214.634 454.139 214.692 454.121 214.758L453.546 216.466C453.546 216.467 453.546 216.468 453.546 216.469C453.541 216.487 453.536 216.504 453.528 216.522C453.493 216.615 453.427 216.697 453.34 216.754C453.253 216.812 453.149 216.843 453.043 216.844V216.848H451.106C451.022 216.861 450.946 216.903 450.891 216.964C450.836 217.025 450.807 217.103 450.809 217.182C450.808 217.234 450.82 217.285 450.844 217.331C450.868 217.378 450.902 217.419 450.945 217.451L450.961 217.463L452.465 218.529C452.553 218.588 452.62 218.671 452.659 218.766C452.697 218.861 452.704 218.965 452.68 219.064C452.674 219.093 452.664 219.121 452.652 219.148L452.082 220.853V220.859L452.078 220.871C452.069 220.903 452.064 220.936 452.064 220.968C452.062 221.012 452.07 221.055 452.087 221.096C452.104 221.136 452.129 221.174 452.161 221.205C452.193 221.237 452.232 221.262 452.275 221.279C452.318 221.297 452.364 221.306 452.411 221.307C452.471 221.308 452.531 221.293 452.583 221.263L452.644 221.221L454.136 220.167L454.169 220.143C454.252 220.09 454.35 220.061 454.451 220.06C454.551 220.059 454.65 220.086 454.734 220.138C454.752 220.149 454.77 220.161 454.786 220.175L456.27 221.225L456.312 221.255C456.367 221.287 456.43 221.304 456.494 221.303C456.541 221.302 456.587 221.293 456.63 221.275C456.672 221.258 456.711 221.232 456.743 221.201C456.775 221.169 456.8 221.132 456.817 221.091C456.834 221.051 456.842 221.008 456.84 220.964C456.841 220.93 456.835 220.896 456.825 220.864C456.825 220.859 456.821 220.853 456.819 220.847L456.246 219.136C456.237 219.114 456.229 219.091 456.224 219.067C456.214 219.027 456.208 218.987 456.208 218.945C456.208 218.87 456.225 218.795 456.259 218.727C456.293 218.659 456.342 218.598 456.404 218.549C456.417 218.539 456.43 218.53 456.444 218.521L457.931 217.47L457.976 217.437C458.015 217.405 458.045 217.365 458.066 217.321C458.087 217.276 458.098 217.229 458.097 217.18C458.098 217.1 458.067 217.021 458.011 216.96C457.955 216.899 457.877 216.859 457.791 216.847Z" fill="#FECE4D"/>
<path d="M467.506 216.847H465.571V216.844C465.464 216.842 465.36 216.81 465.273 216.752C465.186 216.693 465.121 216.611 465.086 216.517C465.08 216.502 465.075 216.487 465.07 216.472L464.503 214.776L464.488 214.734C464.464 214.67 464.418 214.615 464.358 214.576C464.297 214.538 464.225 214.519 464.152 214.522C464.079 214.524 464.009 214.549 463.952 214.592C463.895 214.634 463.854 214.692 463.835 214.758L463.261 216.466C463.261 216.466 463.261 216.466 463.261 216.469C463.256 216.487 463.25 216.504 463.243 216.522C463.208 216.615 463.142 216.697 463.055 216.754C462.968 216.812 462.864 216.843 462.757 216.844V216.848H460.821C460.737 216.861 460.66 216.903 460.606 216.964C460.551 217.025 460.522 217.103 460.523 217.182C460.523 217.234 460.535 217.285 460.559 217.331C460.582 217.378 460.617 217.419 460.66 217.451L460.676 217.463L462.179 218.529C462.268 218.588 462.335 218.671 462.373 218.766C462.412 218.861 462.419 218.965 462.395 219.064C462.388 219.093 462.379 219.121 462.367 219.148L461.797 220.853V220.859L461.793 220.871C461.783 220.903 461.779 220.936 461.779 220.968C461.777 221.012 461.785 221.055 461.802 221.096C461.819 221.136 461.844 221.174 461.876 221.205C461.908 221.237 461.947 221.262 461.99 221.279C462.033 221.297 462.079 221.306 462.125 221.307C462.186 221.308 462.246 221.293 462.298 221.263L462.359 221.221L463.851 220.167L463.884 220.143C463.967 220.09 464.065 220.061 464.165 220.06C464.266 220.059 464.365 220.086 464.449 220.138C464.467 220.149 464.485 220.161 464.501 220.175L465.985 221.225L466.027 221.255C466.081 221.287 466.145 221.304 466.209 221.303C466.256 221.302 466.302 221.293 466.344 221.275C466.387 221.258 466.426 221.232 466.458 221.201C466.49 221.169 466.515 221.132 466.532 221.091C466.549 221.051 466.556 221.008 466.555 220.964C466.555 220.93 466.55 220.896 466.539 220.864C466.539 220.859 466.536 220.853 466.535 220.847L465.962 219.136C465.952 219.114 465.945 219.091 465.939 219.067C465.929 219.027 465.924 218.987 465.924 218.945C465.923 218.87 465.94 218.795 465.974 218.727C466.008 218.659 466.058 218.598 466.12 218.549C466.133 218.539 466.146 218.53 466.159 218.521L467.646 217.47L467.692 217.437C467.731 217.405 467.762 217.365 467.782 217.321C467.803 217.276 467.814 217.229 467.813 217.18C467.814 217.099 467.783 217.021 467.727 216.96C467.67 216.899 467.592 216.859 467.506 216.847Z" fill="#FECE4D"/>
<path d="M477.225 216.847H475.29V216.844C475.183 216.842 475.079 216.81 474.992 216.752C474.905 216.693 474.839 216.611 474.804 216.517C474.798 216.502 474.793 216.487 474.789 216.472L474.221 214.776L474.207 214.734C474.183 214.67 474.137 214.615 474.076 214.576C474.016 214.538 473.944 214.519 473.871 214.522C473.798 214.524 473.728 214.549 473.671 214.592C473.614 214.634 473.573 214.692 473.554 214.758L472.98 216.466C472.98 216.467 472.98 216.468 472.98 216.469C472.975 216.487 472.969 216.504 472.962 216.522C472.926 216.615 472.861 216.697 472.774 216.754C472.687 216.812 472.583 216.843 472.476 216.844V216.848H470.54C470.455 216.861 470.379 216.903 470.325 216.964C470.27 217.025 470.241 217.103 470.242 217.182C470.242 217.234 470.254 217.285 470.277 217.331C470.301 217.378 470.336 217.419 470.379 217.451L470.395 217.463L471.898 218.529C471.986 218.588 472.054 218.671 472.092 218.766C472.131 218.861 472.138 218.965 472.114 219.064C472.107 219.093 472.098 219.121 472.086 219.148L471.516 220.853V220.859L471.511 220.871C471.502 220.903 471.497 220.936 471.497 220.968C471.495 221.012 471.503 221.055 471.52 221.096C471.537 221.136 471.562 221.174 471.594 221.205C471.626 221.237 471.665 221.262 471.708 221.279C471.751 221.297 471.797 221.306 471.844 221.307C471.904 221.308 471.964 221.293 472.016 221.263L472.077 221.221L473.569 220.167L473.602 220.143C473.685 220.09 473.783 220.061 473.884 220.06C473.984 220.059 474.083 220.086 474.167 220.138C474.185 220.149 474.203 220.161 474.22 220.175L475.704 221.225L475.746 221.255C475.8 221.287 475.863 221.304 475.928 221.303C475.974 221.302 476.02 221.293 476.063 221.275C476.106 221.258 476.144 221.232 476.177 221.201C476.209 221.169 476.234 221.132 476.251 221.091C476.267 221.051 476.275 221.008 476.274 220.964C476.274 220.93 476.269 220.896 476.258 220.864C476.258 220.859 476.254 220.853 476.253 220.847L475.68 219.136C475.671 219.114 475.663 219.091 475.658 219.067C475.647 219.027 475.642 218.987 475.642 218.945C475.641 218.87 475.658 218.795 475.692 218.727C475.726 218.659 475.776 218.598 475.838 218.549C475.851 218.539 475.864 218.53 475.877 218.521L477.364 217.47L477.409 217.437C477.448 217.405 477.479 217.365 477.5 217.321C477.521 217.276 477.531 217.229 477.531 217.18C477.532 217.1 477.501 217.021 477.445 216.96C477.389 216.899 477.31 216.859 477.225 216.847Z" fill="#FECE4D"/>
<path d="M486.932 216.847H484.998V216.844C484.891 216.842 484.786 216.81 484.699 216.752C484.612 216.693 484.547 216.611 484.512 216.517C484.506 216.502 484.501 216.487 484.497 216.472L483.929 214.776L483.915 214.734C483.89 214.67 483.844 214.615 483.784 214.576C483.724 214.538 483.651 214.519 483.578 214.522C483.506 214.524 483.435 214.549 483.378 214.592C483.321 214.634 483.28 214.692 483.262 214.758L482.687 216.466C482.687 216.466 482.687 216.466 482.687 216.469C482.683 216.487 482.677 216.504 482.67 216.522C482.634 216.615 482.568 216.697 482.481 216.754C482.395 216.812 482.291 216.843 482.184 216.844V216.848H480.247C480.162 216.861 480.086 216.903 480.032 216.964C479.977 217.025 479.948 217.103 479.949 217.182C479.949 217.234 479.961 217.285 479.985 217.331C480.008 217.378 480.043 217.419 480.086 217.451L480.102 217.463L481.607 218.527C481.695 218.587 481.763 218.67 481.801 218.765C481.839 218.86 481.847 218.964 481.823 219.063C481.816 219.092 481.807 219.12 481.795 219.147L481.224 220.852V220.858L481.22 220.87C481.211 220.902 481.206 220.934 481.206 220.967C481.204 221.01 481.212 221.054 481.229 221.095C481.246 221.135 481.271 221.173 481.303 221.204C481.335 221.236 481.374 221.261 481.417 221.278C481.46 221.296 481.506 221.305 481.552 221.306C481.613 221.307 481.673 221.291 481.725 221.262L481.786 221.22L483.278 220.166L483.311 220.142C483.394 220.089 483.492 220.06 483.592 220.059C483.693 220.058 483.792 220.085 483.876 220.137C483.894 220.148 483.912 220.16 483.928 220.174L485.412 221.224L485.454 221.254C485.508 221.286 485.572 221.303 485.636 221.302C485.683 221.301 485.729 221.292 485.771 221.274C485.814 221.257 485.853 221.231 485.885 221.2C485.917 221.168 485.942 221.131 485.959 221.09C485.976 221.05 485.983 221.007 485.982 220.963C485.982 220.929 485.977 220.895 485.966 220.863C485.966 220.858 485.963 220.852 485.961 220.846L485.388 219.135C485.379 219.113 485.371 219.09 485.366 219.066C485.355 219.026 485.35 218.985 485.35 218.944C485.349 218.869 485.367 218.794 485.401 218.726C485.435 218.657 485.484 218.597 485.546 218.548C485.559 218.538 485.572 218.529 485.586 218.52L487.073 217.468L487.118 217.436C487.156 217.404 487.187 217.364 487.208 217.32C487.229 217.275 487.24 217.227 487.239 217.179C487.24 217.099 487.209 217.021 487.152 216.96C487.096 216.899 487.018 216.859 486.932 216.847Z" fill="#FECE4D"/>
<g filter="url(#filter2_dd_956_73373)">
<rect x="93" y="184.78" width="127.63" height="81.2192" rx="4.00128" fill="white"/>
</g>
<rect x="166.84" y="204.265" width="21.2586" height="5.31465" rx="2.65733" fill="#8599AC"/>
<rect opacity="0.88" x="102.23" y="204.265" width="56.4062" height="52.3039" rx="5.86042" fill="#FFBEC8"/>
<path d="M117.613 243.177C117.619 244.591 118.759 245.732 120.16 245.728L141.461 245.621C142.862 245.613 143.991 244.46 143.985 243.044L140.58 220.504L137.392 220.517C137.396 220.428 137.396 220.336 137.396 220.246C137.379 216.506 134.353 213.479 130.654 213.496C126.956 213.516 123.961 216.573 123.979 220.314C123.979 220.404 123.982 220.494 123.986 220.586L120.461 220.601L117.613 243.177ZM125.478 220.578C125.474 220.488 125.468 220.396 125.468 220.307C125.455 217.4 127.783 215.018 130.662 215.004C133.539 214.992 135.891 217.347 135.905 220.254C135.905 220.344 135.903 220.435 135.897 220.527L125.476 220.578H125.478Z" fill="#F50F32"/>
<path d="M107.992 192.802C107.992 194.269 106.781 195.479 105.314 195.479C103.847 195.479 102.637 194.269 102.637 192.802C102.637 191.334 103.847 190.124 105.314 190.124C106.781 190.124 107.992 191.334 107.992 192.802Z" fill="#F66058"/>
<path d="M116.734 192.802C116.734 194.269 115.524 195.479 114.056 195.479C112.589 195.479 111.379 194.269 111.379 192.802C111.379 191.334 112.589 190.124 114.056 190.124C115.56 190.124 116.734 191.334 116.734 192.802Z" fill="#F9BD2E"/>
<path d="M125.488 192.802C125.488 194.269 124.278 195.479 122.81 195.479C121.343 195.479 120.133 194.269 120.133 192.802C120.133 191.334 121.343 190.124 122.81 190.124C124.278 190.124 125.488 191.334 125.488 192.802Z" fill="#3CC840"/>
<path fill-rule="evenodd" clip-rule="evenodd" d="M187.496 240.425C187.496 237.676 189.722 235.447 192.468 235.447L206.167 235.447C208.913 235.447 211.139 237.676 211.139 240.425C211.139 243.174 208.913 245.403 206.167 245.403H192.468C189.722 245.403 187.496 243.174 187.496 240.425Z" fill="#F50F32"/>
<path d="M181.404 244.839C181.404 242.229 179.839 240.508 177.353 239.44L175.419 238.639L175.542 233.893C176.678 234.041 178.089 234.753 179.133 235.88L181.036 232.943C179.808 231.519 177.721 230.689 175.88 230.54L175.91 228.879H173.701L173.639 230.481C171.982 230.629 170.386 231.134 169.343 232.024C168.207 232.973 167.317 234.367 167.317 236.325C167.317 238.758 168.79 240.063 169.465 240.567C170.14 241.101 171.061 241.546 172.227 242.021L173.271 242.436L173.179 247.391C171.859 247.361 169.649 246.323 168.759 244.958L166.488 247.925C168.023 249.794 170.539 250.862 172.841 250.951L172.78 252.523H174.99L175.051 250.891C176.217 250.802 177.967 250.239 179.041 249.408C180.238 248.488 181.404 246.946 181.404 244.839ZM173.608 233.863L173.516 237.986L173.179 237.838C172.412 237.482 171.614 236.948 171.614 235.85C171.614 234.693 172.442 233.952 173.608 233.863ZM177.169 245.403C177.169 246.56 176.064 247.361 175.112 247.45L175.204 243.03L175.695 243.267C176.616 243.712 177.169 244.276 177.169 245.403Z" fill="#F50F32"/>
<path d="M173.826 216.847H171.891V216.844C171.784 216.842 171.68 216.81 171.593 216.752C171.506 216.693 171.44 216.611 171.405 216.517C171.399 216.502 171.394 216.487 171.39 216.472L170.822 214.776L170.808 214.734C170.784 214.67 170.738 214.615 170.678 214.576C170.617 214.538 170.545 214.519 170.472 214.522C170.399 214.524 170.329 214.549 170.272 214.592C170.215 214.634 170.174 214.692 170.156 214.758L169.581 216.466C169.581 216.467 169.581 216.468 169.581 216.469C169.577 216.487 169.571 216.504 169.564 216.522C169.528 216.615 169.462 216.697 169.375 216.754C169.288 216.812 169.185 216.843 169.078 216.844V216.848H167.141C167.057 216.861 166.981 216.903 166.926 216.964C166.872 217.025 166.842 217.103 166.844 217.182C166.843 217.234 166.856 217.285 166.879 217.331C166.903 217.378 166.937 217.419 166.98 217.451L166.996 217.463L168.5 218.529C168.571 218.576 168.629 218.64 168.669 218.713C168.709 218.786 168.73 218.867 168.729 218.949C168.729 218.987 168.724 219.025 168.715 219.062C168.709 219.09 168.699 219.118 168.687 219.146L168.117 220.851V220.857L168.113 220.869C168.104 220.901 168.099 220.933 168.099 220.966C168.098 221.009 168.105 221.053 168.122 221.093C168.139 221.134 168.164 221.171 168.196 221.203C168.229 221.235 168.267 221.26 168.31 221.277C168.353 221.295 168.399 221.304 168.446 221.305C168.506 221.305 168.566 221.29 168.618 221.261L168.679 221.219L170.171 220.165L170.204 220.141C170.287 220.088 170.385 220.059 170.486 220.058C170.586 220.057 170.685 220.084 170.769 220.136C170.787 220.147 170.805 220.159 170.821 220.173L172.305 221.223L172.347 221.253C172.402 221.285 172.465 221.302 172.529 221.301C172.576 221.3 172.622 221.29 172.665 221.273C172.707 221.255 172.746 221.23 172.778 221.199C172.81 221.167 172.835 221.13 172.852 221.089C172.869 221.049 172.877 221.005 172.875 220.962C172.876 220.928 172.87 220.894 172.86 220.861C172.86 220.856 172.856 220.851 172.855 220.845L172.282 219.134C172.273 219.111 172.265 219.089 172.26 219.065C172.236 218.972 172.24 218.874 172.272 218.782C172.304 218.691 172.363 218.61 172.442 218.548C172.455 218.538 172.468 218.529 172.481 218.52L173.968 217.468L174.013 217.435C174.052 217.403 174.083 217.363 174.104 217.319C174.125 217.275 174.135 217.227 174.135 217.179C174.135 217.098 174.104 217.02 174.047 216.959C173.99 216.898 173.912 216.858 173.826 216.847Z" fill="#FECE4D"/>
<path d="M183.545 216.847H181.61V216.844C181.503 216.842 181.399 216.81 181.312 216.752C181.225 216.693 181.16 216.611 181.125 216.517C181.119 216.502 181.114 216.487 181.11 216.472L180.542 214.776L180.527 214.734C180.503 214.67 180.457 214.615 180.397 214.576C180.336 214.538 180.264 214.519 180.191 214.522C180.118 214.524 180.048 214.549 179.991 214.592C179.934 214.634 179.893 214.692 179.874 214.758L179.3 216.466C179.3 216.467 179.3 216.468 179.3 216.469C179.295 216.487 179.289 216.504 179.282 216.522C179.247 216.615 179.181 216.697 179.094 216.754C179.007 216.812 178.903 216.843 178.797 216.844V216.848H176.86C176.776 216.861 176.699 216.903 176.645 216.964C176.59 217.025 176.561 217.103 176.563 217.182C176.562 217.234 176.574 217.285 176.598 217.331C176.622 217.378 176.656 217.419 176.699 217.451L176.715 217.463L178.218 218.529C178.307 218.588 178.374 218.671 178.412 218.766C178.451 218.861 178.458 218.965 178.434 219.064C178.427 219.093 178.418 219.121 178.406 219.148L177.836 220.853V220.859L177.832 220.871C177.822 220.903 177.818 220.936 177.818 220.968C177.816 221.012 177.824 221.055 177.841 221.096C177.858 221.136 177.883 221.174 177.915 221.205C177.947 221.237 177.986 221.262 178.029 221.279C178.072 221.297 178.118 221.306 178.164 221.307C178.225 221.308 178.285 221.293 178.337 221.263L178.398 221.221L179.89 220.167L179.923 220.143C180.006 220.09 180.104 220.061 180.205 220.06C180.305 220.059 180.404 220.086 180.488 220.138C180.506 220.149 180.524 220.161 180.54 220.175L182.024 221.225L182.066 221.255C182.12 221.287 182.184 221.304 182.248 221.303C182.295 221.302 182.341 221.293 182.383 221.275C182.426 221.258 182.465 221.232 182.497 221.201C182.529 221.169 182.554 221.132 182.571 221.091C182.588 221.051 182.596 221.008 182.594 220.964C182.594 220.93 182.589 220.896 182.578 220.864C182.578 220.859 182.575 220.853 182.573 220.847L182 219.136C181.991 219.114 181.983 219.091 181.978 219.067C181.967 219.027 181.962 218.987 181.962 218.945C181.962 218.87 181.979 218.795 182.013 218.727C182.047 218.659 182.096 218.598 182.158 218.549C182.171 218.539 182.184 218.53 182.198 218.521L183.685 217.47L183.73 217.437C183.768 217.405 183.799 217.365 183.82 217.321C183.841 217.276 183.852 217.229 183.851 217.18C183.852 217.1 183.821 217.021 183.765 216.96C183.709 216.899 183.631 216.859 183.545 216.847Z" fill="#FECE4D"/>
<path d="M193.26 216.847H191.325V216.844C191.218 216.842 191.114 216.81 191.027 216.752C190.94 216.693 190.874 216.611 190.84 216.517C190.834 216.502 190.828 216.487 190.824 216.472L190.257 214.776L190.242 214.734C190.218 214.67 190.172 214.615 190.111 214.576C190.051 214.538 189.979 214.519 189.906 214.522C189.833 214.524 189.763 214.549 189.706 214.592C189.649 214.634 189.608 214.692 189.589 214.758L189.015 216.466C189.015 216.466 189.015 216.466 189.015 216.469C189.01 216.487 189.004 216.504 188.997 216.522C188.961 216.615 188.896 216.697 188.809 216.754C188.722 216.812 188.618 216.843 188.511 216.844V216.848H186.575C186.491 216.861 186.414 216.903 186.36 216.964C186.305 217.025 186.276 217.103 186.277 217.182C186.277 217.234 186.289 217.285 186.312 217.331C186.336 217.378 186.371 217.419 186.414 217.451L186.43 217.463L187.933 218.529C188.022 218.588 188.089 218.671 188.127 218.766C188.166 218.861 188.173 218.965 188.149 219.064C188.142 219.093 188.133 219.121 188.121 219.148L187.551 220.853V220.859L187.547 220.871C187.537 220.903 187.533 220.936 187.533 220.968C187.531 221.012 187.539 221.055 187.556 221.096C187.573 221.136 187.598 221.174 187.63 221.205C187.662 221.237 187.701 221.262 187.744 221.279C187.786 221.297 187.833 221.306 187.879 221.307C187.94 221.308 188 221.293 188.052 221.263L188.112 221.221L189.605 220.167L189.638 220.143C189.721 220.09 189.819 220.061 189.919 220.06C190.02 220.059 190.119 220.086 190.203 220.138C190.221 220.149 190.238 220.161 190.255 220.175L191.739 221.225L191.781 221.255C191.835 221.287 191.899 221.304 191.963 221.303C192.01 221.302 192.056 221.293 192.098 221.275C192.141 221.258 192.18 221.232 192.212 221.201C192.244 221.169 192.269 221.132 192.286 221.091C192.302 221.051 192.31 221.008 192.309 220.964C192.309 220.93 192.304 220.896 192.293 220.864C192.293 220.859 192.29 220.853 192.288 220.847L191.716 219.136C191.706 219.114 191.699 219.091 191.693 219.067C191.683 219.027 191.678 218.987 191.678 218.945C191.677 218.87 191.694 218.795 191.728 218.727C191.762 218.659 191.812 218.598 191.874 218.549C191.886 218.539 191.9 218.53 191.913 218.521L193.4 217.47L193.446 217.437C193.485 217.405 193.515 217.365 193.536 217.321C193.557 217.276 193.568 217.229 193.567 217.18C193.568 217.099 193.537 217.021 193.481 216.96C193.424 216.899 193.346 216.859 193.26 216.847Z" fill="#FECE4D"/>
<path d="M202.979 216.847H201.044V216.844C200.937 216.842 200.832 216.81 200.746 216.752C200.659 216.693 200.593 216.611 200.558 216.517C200.552 216.502 200.547 216.487 200.543 216.472L199.975 214.776L199.961 214.734C199.936 214.67 199.891 214.615 199.83 214.576C199.77 214.538 199.698 214.519 199.625 214.522C199.552 214.524 199.482 214.549 199.425 214.592C199.368 214.634 199.327 214.692 199.308 214.758L198.734 216.466C198.734 216.467 198.734 216.468 198.734 216.469C198.729 216.487 198.723 216.504 198.716 216.522C198.68 216.615 198.615 216.697 198.528 216.754C198.441 216.812 198.337 216.843 198.23 216.844V216.848H196.294C196.209 216.861 196.133 216.903 196.079 216.964C196.024 217.025 195.995 217.103 195.996 217.182C195.996 217.234 196.008 217.285 196.031 217.331C196.055 217.378 196.09 217.419 196.133 217.451L196.149 217.463L197.652 218.529C197.74 218.588 197.808 218.671 197.846 218.766C197.885 218.861 197.892 218.965 197.868 219.064C197.861 219.093 197.852 219.121 197.84 219.148L197.27 220.853V220.859L197.265 220.871C197.255 220.903 197.251 220.936 197.251 220.968C197.249 221.012 197.257 221.055 197.274 221.096C197.291 221.136 197.316 221.174 197.348 221.205C197.38 221.237 197.419 221.262 197.462 221.279C197.505 221.297 197.551 221.306 197.597 221.307C197.658 221.308 197.718 221.293 197.77 221.263L197.831 221.221L199.323 220.167L199.356 220.143C199.439 220.09 199.537 220.061 199.637 220.06C199.738 220.059 199.837 220.086 199.921 220.138C199.939 220.149 199.957 220.161 199.974 220.175L201.458 221.225L201.5 221.255C201.554 221.287 201.617 221.304 201.682 221.303C201.728 221.302 201.774 221.293 201.817 221.275C201.86 221.258 201.898 221.232 201.93 221.201C201.963 221.169 201.988 221.132 202.004 221.091C202.021 221.051 202.029 221.008 202.028 220.964C202.028 220.93 202.023 220.896 202.012 220.864C202.012 220.859 202.008 220.853 202.007 220.847L201.434 219.136C201.424 219.114 201.417 219.091 201.411 219.067C201.401 219.027 201.396 218.987 201.396 218.945C201.395 218.87 201.412 218.795 201.446 218.727C201.48 218.659 201.53 218.598 201.592 218.549C201.605 218.539 201.618 218.53 201.631 218.521L203.118 217.47L203.163 217.437C203.202 217.405 203.233 217.365 203.254 217.321C203.275 217.276 203.285 217.229 203.285 217.18C203.286 217.1 203.255 217.021 203.199 216.96C203.142 216.899 203.064 216.859 202.979 216.847Z" fill="#FECE4D"/>
<path d="M212.686 216.847H210.752V216.844C210.644 216.842 210.54 216.81 210.453 216.752C210.366 216.693 210.301 216.611 210.266 216.517C210.26 216.502 210.255 216.487 210.251 216.472L209.683 214.776L209.668 214.734C209.644 214.67 209.598 214.615 209.538 214.576C209.477 214.538 209.405 214.519 209.332 214.522C209.259 214.524 209.189 214.549 209.132 214.592C209.075 214.634 209.034 214.692 209.016 214.758L208.441 216.466C208.441 216.466 208.441 216.466 208.441 216.469C208.437 216.487 208.431 216.504 208.424 216.522C208.388 216.615 208.322 216.697 208.235 216.754C208.148 216.812 208.045 216.843 207.938 216.844V216.848H206.001C205.916 216.861 205.84 216.903 205.786 216.964C205.731 217.025 205.702 217.103 205.703 217.182C205.703 217.234 205.715 217.285 205.739 217.331C205.762 217.378 205.797 217.419 205.84 217.451L205.856 217.463L207.361 218.527C207.449 218.587 207.517 218.67 207.555 218.765C207.593 218.86 207.601 218.964 207.576 219.063C207.57 219.092 207.561 219.12 207.549 219.147L206.978 220.852V220.858L206.974 220.87C206.965 220.902 206.96 220.934 206.96 220.967C206.958 221.01 206.966 221.054 206.983 221.095C207 221.135 207.025 221.173 207.057 221.204C207.089 221.236 207.128 221.261 207.171 221.278C207.213 221.296 207.26 221.305 207.306 221.306C207.367 221.307 207.427 221.291 207.479 221.262L207.539 221.22L209.032 220.166L209.065 220.142C209.148 220.089 209.246 220.06 209.346 220.059C209.447 220.058 209.546 220.085 209.63 220.137C209.648 220.148 209.665 220.16 209.682 220.174L211.166 221.224L211.208 221.254C211.262 221.286 211.326 221.303 211.39 221.302C211.437 221.301 211.483 221.292 211.525 221.274C211.568 221.257 211.607 221.231 211.639 221.2C211.671 221.168 211.696 221.131 211.713 221.09C211.729 221.05 211.737 221.007 211.736 220.963C211.736 220.929 211.731 220.895 211.72 220.863C211.72 220.858 211.717 220.852 211.715 220.846L211.142 219.135C211.133 219.113 211.125 219.09 211.12 219.066C211.109 219.026 211.104 218.985 211.104 218.944C211.103 218.869 211.121 218.794 211.155 218.726C211.188 218.657 211.238 218.597 211.3 218.548C211.313 218.538 211.326 218.529 211.34 218.52L212.827 217.468L212.872 217.436C212.91 217.404 212.941 217.364 212.962 217.32C212.983 217.275 212.994 217.227 212.993 217.179C212.993 217.099 212.963 217.021 212.906 216.96C212.85 216.899 212.772 216.859 212.686 216.847Z" fill="#FECE4D"/>
<path d="M190.495 135.083C187.944 133.611 184.682 134.485 183.209 137.035C181.737 139.586 182.611 142.848 185.161 144.321C187.712 145.794 190.974 144.92 192.447 142.369C193.92 139.818 193.046 136.556 190.495 135.083ZM150.306 188.125C150.697 188.516 151.33 188.516 151.72 188.125L158.084 181.761C158.475 181.371 158.475 180.738 158.084 180.347C157.694 179.957 157.061 179.957 156.67 180.347L151.013 186.004L145.356 180.347C144.966 179.957 144.333 179.957 143.942 180.347C143.552 180.738 143.552 181.371 143.942 181.761L150.306 188.125ZM187.828 138.702C178.508 138.702 171.429 140.387 166.066 143.313C160.689 146.247 157.101 150.396 154.719 155.205C149.993 164.747 150.013 176.933 150.013 187.418L152.013 187.418C152.013 176.808 152.033 165.135 156.511 156.093C158.731 151.611 162.046 147.786 167.024 145.069C172.015 142.345 178.741 140.702 187.828 140.702V138.702Z" fill="#F50F32"/>
<circle cx="125.349" cy="138.897" r="16.3493" fill="#F50F32"/>
<path d="M118.57 139.296H132.128" stroke="white" stroke-width="3.19011"/>
<path d="M399.246 82.3243C399.674 82.4588 400.023 82.7742 400.199 83.1874C400.375 83.6006 400.362 84.0702 400.163 84.4728L390.483 104.025C390.239 104.518 389.75 104.843 389.2 104.877C388.651 104.911 388.126 104.649 387.822 104.19L380.923 93.7402H367.001C366.435 93.7402 365.915 93.4295 365.647 92.9314C365.379 92.4333 365.407 91.8283 365.718 91.3562L378.646 71.7714C378.891 71.3995 379.286 71.1524 379.728 71.0942C380.169 71.0359 380.615 71.1722 380.948 71.4678L389.879 79.383L399.246 82.3243Z" fill="#0BE597" stroke="white" stroke-width="3.07435" stroke-linejoin="round"/>
<path d="M403.291 82.4684C402.599 82.8783 402.34 83.7522 402.697 84.4728L412.377 104.025C412.621 104.518 413.11 104.843 413.659 104.877C414.208 104.911 414.734 104.649 415.037 104.19L421.936 93.7402H435.858C436.424 93.7402 436.944 93.4295 437.212 92.9314C437.48 92.4333 437.453 91.8283 437.141 91.3562L424.214 71.7714C423.762 71.087 422.853 70.8777 422.147 71.2957L403.291 82.4684Z" fill="#0BE597" stroke="white" stroke-width="3.07435" stroke-linejoin="round"/>
<path d="M395.432 29.6777L396.4 30.8722L395.432 29.6777C394.175 30.6956 392.564 31.1689 390.956 30.9921C386.668 30.5207 382.635 33.1125 381.283 37.2083C380.776 38.7443 379.676 40.0137 378.228 40.7343C374.366 42.6557 372.375 47.0164 373.452 51.1931C373.855 52.7594 373.616 54.4221 372.788 55.8111C370.578 59.5153 371.26 64.2605 374.424 67.192C375.61 68.2914 376.308 69.8193 376.362 71.4359C376.506 75.7468 379.645 79.3698 383.892 80.1255C385.484 80.4088 386.897 81.317 387.816 82.6478C390.268 86.1967 394.868 87.5474 398.849 85.8871C400.341 85.2646 402.021 85.2646 403.514 85.8871C407.495 87.5474 412.095 86.1967 414.546 82.6478C415.466 81.317 416.879 80.4088 418.471 80.1255C422.718 79.3698 425.857 75.7468 426.001 71.4359C426.054 69.8193 426.752 68.2914 427.939 67.192C431.103 64.2605 431.785 59.5153 429.575 55.8111C428.746 54.4221 428.507 52.7594 428.911 51.1931C429.988 47.0164 427.996 42.6557 424.135 40.7343C422.687 40.0137 421.587 38.7442 421.079 37.2083C419.727 33.1125 415.694 30.5207 411.407 30.9921C409.799 31.1689 408.187 30.6956 406.93 29.6777C403.578 26.9631 398.784 26.9631 395.432 29.6777Z" fill="#0BE597" stroke="white" stroke-width="3.07435"/>
<g filter="url(#filter3_dd_956_73373)">
<circle cx="400.823" cy="57.1274" r="19.061" fill="#0BE597"/>
<circle cx="400.823" cy="57.1274" r="17.2164" stroke="white" stroke-width="3.68922"/>
</g>
<path d="M423.146 177.667C426.091 177.667 428.479 180.054 428.479 183C428.479 185.946 426.091 188.333 423.146 188.333C420.2 188.333 417.812 185.946 417.812 183C417.812 180.054 420.2 177.667 423.146 177.667ZM346.553 138.214C346.135 137.853 346.089 137.221 346.451 136.803L352.336 129.995C352.698 129.577 353.329 129.531 353.747 129.892C354.165 130.253 354.211 130.885 353.849 131.303L348.618 137.355L354.67 142.587C355.087 142.948 355.133 143.579 354.772 143.997C354.411 144.415 353.779 144.461 353.362 144.1L346.553 138.214ZM422.164 183.188C418.223 162.612 412.493 150.653 401.483 144.178C390.379 137.648 373.672 136.536 347.28 138.455L347.135 136.46C373.482 134.545 390.792 135.571 402.497 142.454C414.294 149.391 420.165 162.12 424.128 182.812L422.164 183.188Z" fill="#3D7FFC"/>
<circle cx="443.72" cy="138.897" r="16.3493" fill="#3D7FFC"/>
<path d="M450.245 140.465H445.372V145.315H442.732V140.465H437.859V137.848H442.732V132.997H445.372V137.848H450.245V140.465Z" fill="white"/>
<defs>
<filter id="filter0_dd_956_73373" x="160.301" y="41.5074" width="268.936" height="199.082" filterUnits="userSpaceOnUse" color-interpolation-filters="sRGB">
<feFlood flood-opacity="0" result="BackgroundImageFix"/>
<feColorMatrix in="SourceAlpha" type="matrix" values="0 0 0 0 0 0 0 0 0 0 0 0 0 0 0 0 0 0 127 0" result="hardAlpha"/>
<feOffset dy="9.21073"/>
<feGaussianBlur stdDeviation="11.5134"/>
<feColorMatrix type="matrix" values="0 0 0 0 0.607843 0 0 0 0 0.67451 0 0 0 0 0.737255 0 0 0 0.35 0"/>
<feBlend mode="normal" in2="BackgroundImageFix" result="effect1_dropShadow_956_73373"/>
<feColorMatrix in="SourceAlpha" type="matrix" values="0 0 0 0 0 0 0 0 0 0 0 0 0 0 0 0 0 0 127 0" result="hardAlpha"/>
<feOffset dy="4.60537"/>
<feGaussianBlur stdDeviation="13.8161"/>
<feColorMatrix type="matrix" values="0 0 0 0 0.89625 0 0 0 0 0.930414 0 0 0 0 0.995833 0 0 0 0.5 0"/>
<feBlend mode="normal" in2="effect1_dropShadow_956_73373" result="effect2_dropShadow_956_73373"/>
<feBlend mode="normal" in="SourceGraphic" in2="effect2_dropShadow_956_73373" result="shape"/>
</filter>
<filter id="filter1_dd_956_73373" x="352.242" y="171.777" width="157.637" height="111.226" filterUnits="userSpaceOnUse" color-interpolation-filters="sRGB">
<feFlood flood-opacity="0" result="BackgroundImageFix"/>
<feColorMatrix in="SourceAlpha" type="matrix" values="0 0 0 0 0 0 0 0 0 0 0 0 0 0 0 0 0 0 127 0" result="hardAlpha"/>
<feOffset dy="4.00128"/>
<feGaussianBlur stdDeviation="5.0016"/>
<feColorMatrix type="matrix" values="0 0 0 0 0.607843 0 0 0 0 0.67451 0 0 0 0 0.737255 0 0 0 0.35 0"/>
<feBlend mode="normal" in2="BackgroundImageFix" result="effect1_dropShadow_956_73373"/>
<feColorMatrix in="SourceAlpha" type="matrix" values="0 0 0 0 0 0 0 0 0 0 0 0 0 0 0 0 0 0 127 0" result="hardAlpha"/>
<feOffset dy="2.00064"/>
<feGaussianBlur stdDeviation="6.00191"/>
<feColorMatrix type="matrix" values="0 0 0 0 0.89625 0 0 0 0 0.930414 0 0 0 0 0.995833 0 0 0 0.5 0"/>
<feBlend mode="normal" in2="effect1_dropShadow_956_73373" result="effect2_dropShadow_956_73373"/>
<feBlend mode="normal" in="SourceGraphic" in2="effect2_dropShadow_956_73373" result="shape"/>
</filter>
<filter id="filter2_dd_956_73373" x="80.9962" y="174.777" width="151.637" height="105.226" filterUnits="userSpaceOnUse" color-interpolation-filters="sRGB">
<feFlood flood-opacity="0" result="BackgroundImageFix"/>
<feColorMatrix in="SourceAlpha" type="matrix" values="0 0 0 0 0 0 0 0 0 0 0 0 0 0 0 0 0 0 127 0" result="hardAlpha"/>
<feOffset dy="4.00128"/>
<feGaussianBlur stdDeviation="5.0016"/>
<feColorMatrix type="matrix" values="0 0 0 0 0.607843 0 0 0 0 0.67451 0 0 0 0 0.737255 0 0 0 0.35 0"/>
<feBlend mode="normal" in2="BackgroundImageFix" result="effect1_dropShadow_956_73373"/>
<feColorMatrix in="SourceAlpha" type="matrix" values="0 0 0 0 0 0 0 0 0 0 0 0 0 0 0 0 0 0 127 0" result="hardAlpha"/>
<feOffset dy="2.00064"/>
<feGaussianBlur stdDeviation="6.00191"/>
<feColorMatrix type="matrix" values="0 0 0 0 0.89625 0 0 0 0 0.930414 0 0 0 0 0.995833 0 0 0 0.5 0"/>
<feBlend mode="normal" in2="effect1_dropShadow_956_73373" result="effect2_dropShadow_956_73373"/>
<feBlend mode="normal" in="SourceGraphic" in2="effect2_dropShadow_956_73373" result="shape"/>
</filter>
<filter id="filter3_dd_956_73373" x="370.427" y="26.7317" width="73.7443" height="73.7453" filterUnits="userSpaceOnUse" color-interpolation-filters="sRGB">
<feFlood flood-opacity="0" result="BackgroundImageFix"/>
<feColorMatrix in="SourceAlpha" type="matrix" values="0 0 0 0 0 0 0 0 0 0 0 0 0 0 0 0 0 0 127 0" result="hardAlpha"/>
<feOffset dx="8.09618" dy="8.09618"/>
<feGaussianBlur stdDeviation="8.09618"/>
<feColorMatrix type="matrix" values="0 0 0 0 0 0 0 0 0 0.296699 0 0 0 0 0.858629 0 0 0 0.08 0"/>
<feBlend mode="normal" in2="BackgroundImageFix" result="effect1_dropShadow_956_73373"/>
<feColorMatrix in="SourceAlpha" type="matrix" values="0 0 0 0 0 0 0 0 0 0 0 0 0 0 0 0 0 0 127 0" result="hardAlpha"/>
<feOffset/>
<feGaussianBlur stdDeviation="5.66733"/>
<feComposite in2="hardAlpha" operator="out"/>
<feColorMatrix type="matrix" values="0 0 0 0 0.0354167 0 0 0 0 0.105426 0 0 0 0 0.2125 0 0 0 0.07 0"/>
<feBlend mode="normal" in2="effect1_dropShadow_956_73373" result="effect2_dropShadow_956_73373"/>
<feBlend mode="normal" in="SourceGraphic" in2="effect2_dropShadow_956_73373" result="shape"/>
</filter>
</defs>
</svg>
