<svg width="590" height="551" viewBox="0 0 590 551" fill="none" xmlns="http://www.w3.org/2000/svg">
<ellipse cx="382.882" cy="529.274" rx="128.381" ry="21.6175" fill="#3E445D"/>
<path d="M568.981 289.666C570.381 287.864 571.192 285.674 571.304 283.395C571.416 281.116 570.824 278.857 569.608 276.926C566.711 272.25 561.341 269.726 556.055 268.117C550.724 266.487 545.208 265.542 539.639 265.304C534.472 265.084 530.931 264.796 526.95 261.476C525.958 255.289 526.352 248.959 528.102 242.942C529.203 239.215 531.49 235.098 535.404 234.827C539.317 234.556 542.18 238.436 542.451 242.214C542.722 245.991 540.96 249.583 539.266 252.971C541.813 253.873 544.517 254.244 547.212 254.061C549.907 253.877 552.536 253.143 554.937 251.904C559.747 249.394 563.831 245.69 566.796 241.146C568.727 238.351 570.489 235.217 573.471 233.59C576.452 231.964 581.111 232.879 581.941 236.182C582.144 237.96 581.731 239.754 580.772 241.265C578.623 245.536 576.124 249.621 573.301 253.479C572.047 255.174 570.743 257.664 572.2 259.223C572.328 259.369 572.484 259.49 572.657 259.578C574.691 258.028 576.459 256.157 577.892 254.039C578.969 252.021 580.5 250.281 582.365 248.956C584.381 247.872 587.447 248.482 588.023 250.65C588.149 251.835 587.874 253.028 587.244 254.039C585.804 256.902 578.773 264.102 576.91 266.694C576.351 267.761 576.147 268.981 577.113 269.506C577.333 269.617 577.579 269.664 577.824 269.641C578.18 269.184 578.536 268.71 578.858 268.235C579.946 266.22 581.482 264.482 583.347 263.153C585.346 262.069 588.43 262.679 588.989 264.847C589.123 266.032 588.848 267.228 588.209 268.235C586.894 270.341 585.379 272.315 583.686 274.131C580.247 280.264 574.639 285.261 568.981 289.666Z" fill="#5082EF"/>
<path d="M482.395 333.628C480.277 334.119 478.176 334.576 476.059 334.983C471.807 335.83 467.3 336.508 463.2 335.068C460.677 334.182 458.491 332.534 456.944 330.352C455.397 328.17 454.566 325.561 454.566 322.887C454.566 320.212 455.397 317.604 456.944 315.422C458.491 313.24 460.677 311.592 463.2 310.706L464.149 310.418L463.607 310.554L464.573 310.283C470.462 308.394 476.082 305.751 481.294 302.422C479.226 307.397 478.254 312.76 478.444 318.145C478.634 323.53 479.982 328.81 482.395 333.628Z" fill="#EDF3FD"/>
<path d="M560.325 296.864C539.726 312.59 516.328 324.26 491.374 331.254C486.292 319.7 485.123 306.639 490.459 295.796C497.786 289.819 504.729 283.385 511.246 276.534C530.745 270.994 548.839 281.074 560.325 296.864Z" fill="#EDF3FD"/>
<path d="M520.496 267.014L521.648 265.829C527.069 260.323 533.066 254.732 540.639 253.106C548.89 251.31 557.445 254.63 564.577 259.154C569.185 262.085 573.709 265.93 575.199 271.114C577.182 278.145 573.268 284.854 567.965 290.343C555.598 276.315 538.488 266.845 520.496 267.014Z" fill="#EDF3FD"/>
<path d="M562.086 295.592L560.392 296.931C548.906 281.074 530.813 270.994 511.263 276.601C514.363 273.416 517.446 270.214 520.513 267.08C538.504 266.911 555.615 276.381 567.948 290.408C566.108 292.261 564.15 293.993 562.086 295.592Z" fill="#5082EF"/>
<path d="M491.374 331.325C488.392 332.155 485.393 333.019 482.395 333.629C479.982 328.812 478.634 323.531 478.444 318.146C478.254 312.762 479.226 307.399 481.294 302.423C484.462 300.401 487.522 298.213 490.459 295.867C485.122 306.71 486.291 319.771 491.374 331.325Z" fill="#5082EF"/>
<path d="M271.594 393.883H430.046V280.766H271.594V393.883Z" fill="white"/>
<path d="M466.03 295.02C462.642 295.02 430.047 280.789 430.047 280.789H271.578L307.578 295.02H466.03Z" fill="#CADAFA"/>
<path d="M318.217 287.766H427.115V266.352H318.217V287.766Z" fill="#5082EF"/>
<path d="M390.252 396.852L417.256 453.622L399.823 461.906L371.515 402.408L390.252 396.852Z" fill="#5082EF"/>
<path d="M440.381 482.469C440.651 482.933 440.988 483.355 441.38 483.722C443.278 485.417 446.158 485.264 448.733 485.264C454.149 485.324 459.468 486.712 464.223 489.305C468.978 491.898 473.025 495.618 476.008 500.138C476.291 500.459 476.488 500.847 476.58 501.265C476.671 501.683 476.656 502.117 476.533 502.527C476.257 502.984 475.841 503.34 475.348 503.544C456.592 513.846 437.239 523.021 417.392 531.022C414.986 511.726 423.372 491.685 440.381 482.469Z" fill="#EDF3FD"/>
<path d="M412.038 532.938C411.088 533.143 410.098 533.042 409.209 532.65C407.794 531.713 406.76 530.301 406.295 528.669C402.737 519.928 399.349 511.124 396.13 502.258C395.368 500.174 394.639 498.073 393.894 495.973C389.963 484.95 386.293 473.83 382.882 462.615C387.448 453.264 395.283 445.911 404.905 441.947C408.892 440.566 413.16 440.199 417.323 440.88C425.178 451.635 431.873 463.191 437.297 475.355C437.839 476.575 438.364 477.812 438.89 479.048C416.002 484.995 409.937 509.915 412.038 532.938Z" fill="#EDF3FD"/>
<path d="M438.822 479.047C438.992 479.453 439.178 479.86 439.347 480.284C439.517 480.707 439.669 481.063 439.856 481.453C440.042 481.842 440.194 482.13 440.381 482.469C423.44 491.651 414.969 511.726 417.392 531.023L414.766 532.09C413.886 532.458 412.972 532.742 412.038 532.937C409.937 509.914 416.002 484.993 438.822 479.047Z" fill="#5082EF"/>
<path d="M314.846 531.599L305.664 511.405L334.989 479.047L363.197 490.431L360.757 506.746L314.846 531.599Z" fill="#EDF3FD"/>
<path d="M373.7 405.983L360.214 454.215L341.63 449.014L355.742 398.461L373.7 405.983Z" fill="#5082EF"/>
<path d="M362.129 498.195C362.17 498.735 362.29 499.266 362.484 499.771C363.45 502.143 366.144 503.159 368.465 504.311C373.33 506.689 377.538 510.225 380.72 514.608C383.901 518.992 385.958 524.088 386.71 529.452C386.871 529.772 386.939 530.131 386.909 530.488C386.879 530.845 386.751 531.187 386.539 531.476C386.327 531.764 386.04 531.989 385.708 532.125C385.377 532.262 385.014 532.304 384.66 532.247C363.294 533.518 341.871 533.518 320.504 532.247C326.721 513.713 342.832 499.178 362.129 498.195Z" fill="#EDF3FD"/>
<path d="M305.664 511.408C305.22 509.776 305.376 508.039 306.104 506.512C309.131 497.59 312.344 488.718 315.744 479.898C316.54 477.814 317.353 475.747 318.166 473.68C322.458 462.793 326.976 451.995 331.719 441.288C341.292 437.227 352.021 436.818 361.875 440.136C365.788 441.714 369.246 444.241 371.938 447.489C370.815 460.755 368.299 473.866 364.433 486.606C364.026 487.877 363.62 489.164 363.196 490.435C342.087 479.931 306.053 512.323 305.664 511.408Z" fill="#EDF3FD"/>
<path d="M362.18 494.429C362.18 494.887 362.18 495.327 362.18 495.785V497.038C362.18 497.428 362.18 497.818 362.18 498.19C342.883 499.173 326.603 513.726 320.555 532.175L317.743 532.005C316.783 531.963 315.83 531.826 314.896 531.599C322.842 509.914 339.021 489.991 362.18 494.429Z" fill="#5082EF"/>
<path d="M307.578 408.117H466.029V295H307.578V408.117Z" fill="#EDF3FD"/>
<path d="M402.585 308.438H402.636C402.664 308.438 402.687 308.415 402.687 308.387V307.438C402.687 307.41 402.664 307.387 402.636 307.387H402.585C402.557 307.387 402.534 307.41 402.534 307.438V308.387C402.534 308.415 402.557 308.438 402.585 308.438Z" fill="white"/>
<path d="M307.578 408.136L271.578 393.906V280.789L307.578 295.02V408.136Z" fill="#B0C7F8"/>
<path d="M200.052 383.266C199.341 385.435 199.314 387.77 199.974 389.955C200.635 392.14 201.951 394.069 203.745 395.48C208.048 398.869 213.91 399.478 219.466 399.207C225.032 398.937 230.541 397.969 235.866 396.327C240.812 394.786 244.235 393.871 249.097 395.65C252.098 401.144 253.834 407.238 254.179 413.489C254.416 417.368 253.603 422.044 250.045 423.654C246.488 425.263 242.422 422.535 240.931 419.063C239.44 415.59 239.847 411.625 240.304 407.864C237.602 407.875 234.931 408.438 232.455 409.519C229.979 410.6 227.749 412.176 225.904 414.15C222.25 418.146 219.663 423 218.382 428.262C217.518 431.548 216.908 435.038 214.655 437.63C212.402 440.222 207.709 440.866 205.863 438.02C205.059 436.405 204.837 434.561 205.236 432.802C205.827 428.061 206.801 423.375 208.15 418.791C208.76 416.758 209.149 413.98 207.252 413.014C207.084 412.92 206.9 412.857 206.71 412.828C205.319 414.975 204.284 417.332 203.643 419.808C203.301 422.068 202.443 424.218 201.136 426.093C199.611 427.787 196.477 428.279 195.224 426.364C194.689 425.277 194.545 424.038 194.817 422.857C195.207 419.672 199.357 410.541 200.272 407.475C200.441 406.272 200.272 405.052 199.137 404.9C198.895 404.864 198.648 404.9 198.425 405.001C198.245 405.543 198.075 406.108 197.917 406.695C197.571 408.954 196.714 411.104 195.41 412.981C193.885 414.675 190.734 415.166 189.497 413.252C188.966 412.164 188.817 410.928 189.074 409.745C189.614 407.324 190.379 404.958 191.361 402.68C192.665 395.904 196.274 389.297 200.052 383.266Z" fill="#5082EF"/>
<path d="M266.817 312.684C268.647 311.515 270.477 310.38 272.323 309.295C276.05 307.059 280.065 304.908 284.402 304.891C287.073 304.882 289.681 305.701 291.868 307.235C294.054 308.77 295.712 310.943 296.612 313.458C297.513 315.972 297.613 318.704 296.898 321.278C296.183 323.851 294.688 326.14 292.619 327.829C292.348 328.016 292.077 328.202 291.823 328.405L292.263 328.1C292.009 328.304 291.738 328.49 291.467 328.676C286.554 332.437 282.152 336.823 278.371 341.721C278.64 336.336 277.747 330.955 275.753 325.945C273.76 320.935 270.712 316.413 266.817 312.684Z" fill="#EDF3FD"/>
<path d="M205.812 373.492C219.9 351.742 237.999 332.873 259.143 317.891C267.817 327.056 273.305 338.966 271.933 350.96C267.06 359.08 262.703 367.5 258.888 376.169C242.388 387.96 221.957 384.554 205.812 373.492Z" fill="#EDF3FD"/>
<path d="M253.383 388.246C253.145 388.737 252.925 389.245 252.688 389.754C249.435 396.767 245.674 404.035 239.135 408.118C231.969 412.59 222.787 412.353 214.553 410.49C209.234 409.287 203.694 407.237 200.526 402.798C196.29 396.869 197.714 389.245 200.865 382.266C217.196 391.312 236.492 394.463 253.383 388.246Z" fill="#EDF3FD"/>
<path d="M204.592 375.356L205.812 373.492C221.957 384.555 242.388 387.96 258.889 376.169C257.026 380.218 255.213 384.267 253.383 388.248C236.442 394.465 217.197 391.314 200.865 382.268C201.952 379.883 203.197 377.574 204.592 375.356Z" fill="#5082EF"/>
<path d="M259.143 317.888C261.667 316.11 264.225 314.365 266.817 312.688C270.71 316.415 273.756 320.935 275.749 325.941C277.743 330.948 278.637 336.325 278.371 341.708C276.056 344.67 273.907 347.758 271.933 350.958C273.305 338.963 267.817 327.054 259.143 317.888Z" fill="#5082EF"/>
<path d="M331.228 328.037V375.116C331.228 382.452 335.209 388.483 340.325 389.195C340.658 389.212 340.992 389.212 341.325 389.195H433.265C438.838 389.195 443.429 382.858 443.429 375.049V328.037C443.429 320.227 438.906 313.891 433.265 313.891H341.325C335.734 313.891 331.228 320.227 331.228 328.037Z" fill="#5082EF"/>
<path d="M466.03 163.028C462.642 163.028 430.047 148.797 430.047 148.797H271.578L307.578 163.028H466.03Z" fill="#CADAFA"/>
<path d="M307.578 276.211H466.029V163.094H307.578V276.211Z" fill="#EDF3FD"/>
<path d="M307.578 276.215L271.578 261.984V148.867L307.578 163.098V276.215Z" fill="#B0C7F8"/>
<path d="M285.046 223.8C291.783 223.8 297.244 216.791 297.244 208.146C297.244 199.501 291.783 192.492 285.046 192.492C278.31 192.492 272.849 199.501 272.849 208.146C272.849 216.791 278.31 223.8 285.046 223.8Z" fill="#E5ECFD"/>
<path d="M292.737 195.992C292.907 196.822 294.872 206.801 289.129 214.441C287.825 216.244 286.152 217.747 284.221 218.852C282.29 219.956 280.145 220.636 277.931 220.845C279.165 221.964 280.631 222.797 282.224 223.283C283.817 223.769 285.498 223.897 287.147 223.657C292.534 222.573 296.227 216.881 297.125 211.172C297.505 208.475 297.311 205.729 296.555 203.113C295.798 200.497 294.498 198.07 292.737 195.992Z" fill="#5082EF"/>
<path d="M422.067 202.69C432.91 199.505 443.379 202.605 445.429 209.619C445.683 210.482 445.803 211.379 445.785 212.278C441.736 207.941 433.266 206.434 424.558 208.992C415.054 211.787 408.413 218.462 408.294 224.798C407.313 223.766 406.588 222.519 406.176 221.156C404.11 214.142 411.225 205.875 422.067 202.69Z" fill="#5082EF"/>
<path d="M350.846 208.99C342.681 206.585 334.718 207.77 330.415 211.497C330.458 210.862 330.56 210.233 330.72 209.617C332.787 202.603 343.24 199.452 354.082 202.688C364.924 205.924 372.057 214.14 369.99 221.154C369.463 222.881 368.444 224.418 367.059 225.576C367.499 219.019 360.74 211.887 350.846 208.99Z" fill="#5082EF"/>
<path d="M405.936 352.121C405.936 352.884 405.303 353.516 404.54 353.516H382.769C382.155 355.694 380.164 357.312 377.764 357.312C375.382 357.312 373.373 355.694 372.759 353.516H370.116C369.353 353.516 368.721 352.884 368.721 352.121C368.721 351.358 369.353 350.725 370.116 350.725H372.759C373.373 348.548 375.382 346.929 377.764 346.929C380.164 346.929 382.155 348.548 382.769 350.725H404.54C405.303 350.725 405.936 351.358 405.936 352.121Z" fill="white"/>
<path d="M405.936 365.425C405.936 366.207 405.303 366.821 404.54 366.821H401.898C401.284 369.017 399.274 370.617 396.893 370.617C394.511 370.617 392.501 369.017 391.887 366.821H370.116C369.353 366.821 368.721 366.207 368.721 365.425C368.721 364.662 369.353 364.03 370.116 364.03H391.887C392.501 361.853 394.511 360.234 396.893 360.234C399.274 360.234 401.284 361.853 401.898 364.03H404.54C405.303 364.03 405.936 364.662 405.936 365.425Z" fill="white"/>
<path d="M405.936 338.817C405.936 339.579 405.303 340.212 404.54 340.212H401.898C401.284 342.389 399.274 344.008 396.893 344.008C394.511 344.008 392.501 342.389 391.887 340.212H370.116C369.353 340.212 368.721 339.579 368.721 338.817C368.721 338.035 369.353 337.421 370.116 337.421H391.887C392.501 335.225 394.511 333.625 396.893 333.625C399.274 333.625 401.284 335.225 401.898 337.421H404.54C405.303 337.421 405.936 338.035 405.936 338.817Z" fill="white"/>
<path d="M30.5964 0.398438C14.0279 0.398438 0.596436 13.8299 0.596436 30.3984V156.398C0.596436 172.967 14.0279 186.398 30.5964 186.398H141.181C150.872 206.155 176.024 215.299 216.32 216.719C219.422 216.828 220.512 212.739 217.85 211.142C206.905 204.575 198.098 197.54 193.31 186.398H217.856C234.425 186.398 247.856 172.967 247.856 156.398V30.3984C247.856 13.8299 234.425 0.398438 217.856 0.398438H30.5964Z" fill="white"/>
<path d="M36.0364 81.2266V55.8466H47.0524C49.8364 55.8466 51.9844 56.5186 53.4964 57.8626C55.0084 59.1826 55.7644 61.0426 55.7644 63.4426C55.7644 65.3386 55.2724 66.9106 54.2884 68.1586C53.3044 69.3826 51.8884 70.2106 50.0404 70.6426C51.2644 71.0266 52.2724 71.9506 53.0644 73.4146L57.3124 81.2266H52.2364L47.8444 73.1266C47.4124 72.3346 46.8964 71.7946 46.2964 71.5066C45.7204 71.2186 44.9764 71.0746 44.0644 71.0746H40.6444V81.2266H36.0364ZM40.6444 67.6546H46.2604C49.6204 67.6546 51.3004 66.2866 51.3004 63.5506C51.3004 60.8386 49.6204 59.4826 46.2604 59.4826H40.6444V67.6546ZM68.5031 81.5866C66.5111 81.5866 64.7951 81.2146 63.3551 80.4706C61.9151 79.7266 60.7991 78.6706 60.0071 77.3026C59.2391 75.9346 58.8551 74.3146 58.8551 72.4426C58.8551 70.6186 59.2271 69.0226 59.9711 67.6546C60.7391 66.2866 61.7831 65.2186 63.1031 64.4506C64.4471 63.6586 65.9711 63.2626 67.6751 63.2626C70.1711 63.2626 72.1391 64.0546 73.5791 65.6386C75.0431 67.2226 75.7751 69.3826 75.7751 72.1186V73.4506H63.1751C63.5111 76.5946 65.3111 78.1666 68.5751 78.1666C69.5591 78.1666 70.5431 78.0226 71.5271 77.7346C72.5111 77.4226 73.4111 76.9426 74.2271 76.2946L75.4871 79.3186C74.6471 80.0146 73.5911 80.5666 72.3191 80.9746C71.0471 81.3826 69.7751 81.5866 68.5031 81.5866ZM67.8551 66.3226C66.5351 66.3226 65.4671 66.7306 64.6511 67.5466C63.8351 68.3626 63.3431 69.4666 63.1751 70.8586H72.0311C71.9351 69.3946 71.5271 68.2786 70.8071 67.5106C70.1111 66.7186 69.1271 66.3226 67.8551 66.3226ZM85.1348 81.5866C83.8628 81.5866 82.7228 81.3466 81.7148 80.8666C80.7308 80.3626 79.9508 79.6906 79.3748 78.8506C78.8228 78.0106 78.5468 77.0626 78.5468 76.0066C78.5468 74.7106 78.8828 73.6906 79.5548 72.9466C80.2268 72.1786 81.3188 71.6266 82.8308 71.2906C84.3428 70.9546 86.3708 70.7866 88.9148 70.7866H90.1748V70.0306C90.1748 68.8306 89.9108 67.9666 89.3828 67.4386C88.8548 66.9106 87.9668 66.6466 86.7188 66.6466C85.7348 66.6466 84.7268 66.8026 83.6948 67.1146C82.6628 67.4026 81.6188 67.8586 80.5628 68.4826L79.2668 65.4226C79.8908 64.9906 80.6228 64.6186 81.4628 64.3066C82.3268 63.9706 83.2268 63.7186 84.1628 63.5506C85.1228 63.3586 86.0228 63.2626 86.8628 63.2626C89.4308 63.2626 91.3388 63.8626 92.5868 65.0626C93.8348 66.2386 94.4588 68.0746 94.4588 70.5706V81.2266H90.2468V78.4186C89.8388 79.4026 89.1908 80.1826 88.3028 80.7586C87.4148 81.3106 86.3588 81.5866 85.1348 81.5866ZM86.0708 78.4906C87.2468 78.4906 88.2188 78.0826 88.9868 77.2666C89.7788 76.4506 90.1748 75.4186 90.1748 74.1706V73.3786H88.9508C86.6948 73.3786 85.1228 73.5586 84.2348 73.9186C83.3708 74.2546 82.9388 74.8786 82.9388 75.7906C82.9388 76.5826 83.2148 77.2306 83.7668 77.7346C84.3188 78.2386 85.0868 78.4906 86.0708 78.4906ZM105.794 81.5866C104.258 81.5866 102.902 81.2146 101.726 80.4706C100.574 79.7266 99.6743 78.6706 99.0263 77.3026C98.3783 75.9106 98.0543 74.2786 98.0543 72.4066C98.0543 70.5106 98.3783 68.8906 99.0263 67.5466C99.6743 66.1786 100.574 65.1226 101.726 64.3786C102.902 63.6346 104.258 63.2626 105.794 63.2626C107.042 63.2626 108.17 63.5386 109.178 64.0906C110.186 64.6426 110.942 65.3746 111.446 66.2866V55.8466H115.946V81.2266H111.554V78.3106C111.074 79.3186 110.318 80.1226 109.286 80.7226C108.254 81.2986 107.09 81.5866 105.794 81.5866ZM107.054 78.1666C108.398 78.1666 109.478 77.6866 110.294 76.7266C111.11 75.7426 111.518 74.3026 111.518 72.4066C111.518 70.4866 111.11 69.0586 110.294 68.1226C109.478 67.1626 108.398 66.6826 107.054 66.6826C105.71 66.6826 104.63 67.1626 103.814 68.1226C102.998 69.0586 102.59 70.4866 102.59 72.4066C102.59 74.3026 102.998 75.7426 103.814 76.7266C104.63 77.6866 105.71 78.1666 107.054 78.1666ZM122.196 87.7066L125.436 80.5066L118.128 63.6226H122.916L127.848 75.9346L132.888 63.6226H137.424L126.84 87.7066H122.196ZM157.329 81.5866C152.673 81.5866 150.345 79.2826 150.345 74.6746V67.0066H146.961V63.6226H150.345V58.3666H154.845V63.6226H160.173V67.0066H154.845V74.4226C154.845 75.5746 155.097 76.4386 155.601 77.0146C156.105 77.5906 156.921 77.8786 158.049 77.8786C158.385 77.8786 158.733 77.8426 159.093 77.7706C159.453 77.6746 159.825 77.5786 160.209 77.4826L160.893 80.7946C160.461 81.0346 159.909 81.2266 159.237 81.3706C158.589 81.5146 157.953 81.5866 157.329 81.5866ZM170.933 81.5866C169.109 81.5866 167.525 81.2146 166.181 80.4706C164.837 79.7266 163.793 78.6706 163.049 77.3026C162.305 75.9106 161.933 74.2786 161.933 72.4066C161.933 70.5346 162.305 68.9146 163.049 67.5466C163.793 66.1786 164.837 65.1226 166.181 64.3786C167.525 63.6346 169.109 63.2626 170.933 63.2626C172.757 63.2626 174.341 63.6346 175.685 64.3786C177.029 65.1226 178.073 66.1786 178.817 67.5466C179.561 68.9146 179.933 70.5346 179.933 72.4066C179.933 74.2786 179.561 75.9106 178.817 77.3026C178.073 78.6706 177.029 79.7266 175.685 80.4706C174.341 81.2146 172.757 81.5866 170.933 81.5866ZM170.933 78.1666C172.277 78.1666 173.357 77.6866 174.173 76.7266C174.989 75.7426 175.397 74.3026 175.397 72.4066C175.397 70.4866 174.989 69.0586 174.173 68.1226C173.357 67.1626 172.277 66.6826 170.933 66.6826C169.589 66.6826 168.509 67.1626 167.693 68.1226C166.877 69.0586 166.469 70.4866 166.469 72.4066C166.469 74.3026 166.877 75.7426 167.693 76.7266C168.509 77.6866 169.589 78.1666 170.933 78.1666ZM41.4004 130.587C40.1284 130.587 38.9884 130.347 37.9804 129.867C36.9964 129.363 36.2164 128.691 35.6404 127.851C35.0884 127.011 34.8124 126.063 34.8124 125.007C34.8124 123.711 35.1484 122.691 35.8204 121.947C36.4924 121.179 37.5844 120.627 39.0964 120.291C40.6084 119.955 42.6364 119.787 45.1804 119.787H46.4404V119.031C46.4404 117.831 46.1764 116.967 45.6484 116.439C45.1204 115.911 44.2324 115.647 42.9844 115.647C42.0004 115.647 40.9924 115.803 39.9604 116.115C38.9284 116.403 37.8844 116.859 36.8284 117.483L35.5324 114.423C36.1564 113.991 36.8884 113.619 37.7284 113.307C38.5924 112.971 39.4924 112.719 40.4284 112.551C41.3884 112.359 42.2884 112.263 43.1284 112.263C45.6964 112.263 47.6044 112.863 48.8524 114.063C50.1004 115.239 50.7244 117.075 50.7244 119.571V130.227H46.5124V127.419C46.1044 128.403 45.4564 129.183 44.5684 129.759C43.6804 130.311 42.6244 130.587 41.4004 130.587ZM42.3364 127.491C43.5124 127.491 44.4844 127.083 45.2524 126.267C46.0444 125.451 46.4404 124.419 46.4404 123.171V122.379H45.2164C42.9604 122.379 41.3884 122.559 40.5004 122.919C39.6364 123.255 39.2044 123.879 39.2044 124.791C39.2044 125.583 39.4804 126.231 40.0324 126.735C40.5844 127.239 41.3524 127.491 42.3364 127.491ZM61.6639 130.587C57.3439 130.587 55.1839 128.163 55.1839 123.315V112.623H59.6839V123.387C59.6839 124.635 59.9359 125.559 60.4399 126.159C60.9439 126.759 61.7479 127.059 62.8519 127.059C64.0519 127.059 65.0359 126.651 65.8039 125.835C66.5719 124.995 66.9559 123.891 66.9559 122.523V112.623H71.4559V130.227H67.0639V127.599C65.8879 129.591 64.0879 130.587 61.6639 130.587ZM84.2036 130.587C79.5476 130.587 77.2196 128.283 77.2196 123.675V116.007H73.8356V112.623H77.2196V107.367H81.7196V112.623H87.0476V116.007H81.7196V123.423C81.7196 124.575 81.9716 125.439 82.4756 126.015C82.9796 126.591 83.7956 126.879 84.9236 126.879C85.2596 126.879 85.6076 126.843 85.9676 126.771C86.3276 126.675 86.6996 126.579 87.0836 126.483L87.7676 129.795C87.3356 130.035 86.7836 130.227 86.1116 130.371C85.4636 130.515 84.8276 130.587 84.2036 130.587ZM97.8082 130.587C95.9842 130.587 94.4002 130.215 93.0562 129.471C91.7122 128.727 90.6682 127.671 89.9242 126.303C89.1802 124.911 88.8082 123.279 88.8082 121.407C88.8082 119.535 89.1802 117.915 89.9242 116.547C90.6682 115.179 91.7122 114.123 93.0562 113.379C94.4002 112.635 95.9842 112.263 97.8082 112.263C99.6322 112.263 101.216 112.635 102.56 113.379C103.904 114.123 104.948 115.179 105.692 116.547C106.436 117.915 106.808 119.535 106.808 121.407C106.808 123.279 106.436 124.911 105.692 126.303C104.948 127.671 103.904 128.727 102.56 129.471C101.216 130.215 99.6322 130.587 97.8082 130.587ZM97.8082 127.167C99.1522 127.167 100.232 126.687 101.048 125.727C101.864 124.743 102.272 123.303 102.272 121.407C102.272 119.487 101.864 118.059 101.048 117.123C100.232 116.163 99.1522 115.683 97.8082 115.683C96.4642 115.683 95.3842 116.163 94.5682 117.123C93.7522 118.059 93.3442 119.487 93.3442 121.407C93.3442 123.303 93.7522 124.743 94.5682 125.727C95.3842 126.687 96.4642 127.167 97.8082 127.167ZM110.594 130.227V112.623H114.986V115.323C115.514 114.363 116.246 113.619 117.182 113.091C118.118 112.539 119.198 112.263 120.422 112.263C123.062 112.263 124.79 113.415 125.606 115.719C126.158 114.639 126.95 113.799 127.982 113.199C129.014 112.575 130.19 112.263 131.51 112.263C135.47 112.263 137.45 114.675 137.45 119.499V130.227H132.95V119.679C132.95 118.335 132.722 117.351 132.266 116.727C131.834 116.103 131.09 115.791 130.034 115.791C128.858 115.791 127.934 116.211 127.262 117.051C126.59 117.867 126.254 119.007 126.254 120.471V130.227H121.754V119.679C121.754 118.335 121.526 117.351 121.07 116.727C120.638 116.103 119.906 115.791 118.874 115.791C117.698 115.791 116.774 116.211 116.102 117.051C115.43 117.867 115.094 119.007 115.094 120.471V130.227H110.594ZM147.889 130.587C146.617 130.587 145.477 130.347 144.469 129.867C143.485 129.363 142.705 128.691 142.129 127.851C141.577 127.011 141.301 126.063 141.301 125.007C141.301 123.711 141.637 122.691 142.309 121.947C142.981 121.179 144.073 120.627 145.585 120.291C147.097 119.955 149.125 119.787 151.669 119.787H152.929V119.031C152.929 117.831 152.665 116.967 152.137 116.439C151.609 115.911 150.721 115.647 149.473 115.647C148.489 115.647 147.481 115.803 146.449 116.115C145.417 116.403 144.373 116.859 143.317 117.483L142.021 114.423C142.645 113.991 143.377 113.619 144.217 113.307C145.081 112.971 145.981 112.719 146.917 112.551C147.877 112.359 148.777 112.263 149.617 112.263C152.185 112.263 154.093 112.863 155.341 114.063C156.589 115.239 157.213 117.075 157.213 119.571V130.227H153.001V127.419C152.593 128.403 151.945 129.183 151.057 129.759C150.169 130.311 149.113 130.587 147.889 130.587ZM148.825 127.491C150.001 127.491 150.973 127.083 151.741 126.267C152.533 125.451 152.929 124.419 152.929 123.171V122.379H151.705C149.449 122.379 147.877 122.559 146.989 122.919C146.125 123.255 145.693 123.879 145.693 124.791C145.693 125.583 145.969 126.231 146.521 126.735C147.073 127.239 147.841 127.491 148.825 127.491ZM169.844 130.587C165.188 130.587 162.86 128.283 162.86 123.675V116.007H159.476V112.623H162.86V107.367H167.36V112.623H172.688V116.007H167.36V123.423C167.36 124.575 167.612 125.439 168.116 126.015C168.62 126.591 169.436 126.879 170.564 126.879C170.9 126.879 171.248 126.843 171.608 126.771C171.968 126.675 172.34 126.579 172.724 126.483L173.408 129.795C172.976 130.035 172.424 130.227 171.752 130.371C171.104 130.515 170.468 130.587 169.844 130.587ZM184.097 130.587C182.105 130.587 180.389 130.215 178.949 129.471C177.509 128.727 176.393 127.671 175.601 126.303C174.833 124.935 174.449 123.315 174.449 121.443C174.449 119.619 174.821 118.023 175.565 116.655C176.333 115.287 177.377 114.219 178.697 113.451C180.041 112.659 181.565 112.263 183.269 112.263C185.765 112.263 187.733 113.055 189.173 114.639C190.637 116.223 191.369 118.383 191.369 121.119V122.451H178.769C179.105 125.595 180.905 127.167 184.169 127.167C185.153 127.167 186.137 127.023 187.121 126.735C188.105 126.423 189.005 125.943 189.821 125.295L191.081 128.319C190.241 129.015 189.185 129.567 187.913 129.975C186.641 130.383 185.369 130.587 184.097 130.587ZM183.449 115.323C182.129 115.323 181.061 115.731 180.245 116.547C179.429 117.363 178.937 118.467 178.769 119.859H187.625C187.529 118.395 187.121 117.279 186.401 116.511C185.705 115.719 184.721 115.323 183.449 115.323ZM195.689 122.703L194.285 104.847H199.829L198.425 122.703H195.689ZM194.537 130.227V125.223H199.577V130.227H194.537Z" fill="#5082EF"/>
</svg>
