<svg width="588" height="311" viewBox="0 0 588 311" fill="none" xmlns="http://www.w3.org/2000/svg">
<rect width="588" height="311" rx="5" fill="#F5F8FF"/>
<g filter="url(#filter0_dd_956_73460)">
<rect x="218.609" y="64.6572" width="105.766" height="206.789" rx="16.1257" fill="white"/>
<mask id="mask0_956_73460" style="mask-type:alpha" maskUnits="userSpaceOnUse" x="218" y="64" width="107" height="208">
<path d="M296.467 64.3818H308.998C313.064 64.3818 316.9 65.9728 319.799 68.8593C322.7 71.7471 324.296 75.5668 324.296 79.6138V256.155C324.296 260.204 322.699 264.023 319.799 266.91C316.899 269.798 313.063 271.387 308.998 271.387H233.685C229.619 271.387 225.783 269.796 222.884 266.91C219.983 264.022 218.387 260.202 218.387 256.155V79.6151C218.387 75.5668 219.985 71.7471 222.884 68.8606C225.784 65.9728 229.62 64.3832 233.685 64.3832H246.216" fill="white"/>
</mask>
<g mask="url(#mask0_956_73460)">
<path d="M252.285 65.6045H290.605L290.225 70.9829C290.016 73.95 287.576 76.2489 284.636 76.2489H258.254C255.314 76.2489 252.874 73.95 252.665 70.9829L252.285 65.6045Z" fill="#091B36"/>
<path opacity="0.3" d="M261.773 70.5719C261.773 70.18 262.187 69.8623 262.698 69.8623H280.719C281.229 69.8623 281.643 70.18 281.643 70.5719C281.643 70.9638 281.229 71.2816 280.719 71.2816H262.698C262.187 71.2816 261.773 70.9638 261.773 70.5719Z" fill="#FFFEFE"/>
</g>
<path d="M308.141 62.2852H234.543C224.215 62.2852 215.766 70.7322 215.766 81.0577V254.283C215.766 264.608 224.215 273.056 234.543 273.056H308.141C318.468 273.056 326.918 264.609 326.918 254.283V81.0577C326.917 70.7322 318.468 62.2852 308.141 62.2852ZM295.895 66.1105H308.141C312.114 66.1105 315.863 67.6716 318.696 70.5039C321.53 73.3375 323.091 77.0854 323.091 81.0564V254.282C323.091 258.254 321.529 262.002 318.696 264.835C315.862 267.668 312.113 269.228 308.141 269.228H234.543C230.57 269.228 226.821 267.667 223.988 264.835C221.154 262.001 219.593 258.253 219.593 254.282V81.0577C219.593 77.0854 221.155 73.3375 223.988 70.5052C226.822 67.6716 230.571 66.1118 234.543 66.1118H246.789" fill="#091B36"/>
<rect opacity="0.88" x="230.5" y="108.591" width="82.8501" height="76.8246" rx="8.60786" fill="#EDF1F6"/>
<path d="M253.094 165.746C253.102 167.823 254.777 169.499 256.835 169.494L288.122 169.336C290.18 169.325 291.838 167.631 291.829 165.551L286.827 132.443L282.145 132.463C282.151 132.331 282.151 132.197 282.151 132.065C282.125 126.572 277.682 122.125 272.249 122.151C266.816 122.179 262.418 126.669 262.443 132.165C262.443 132.297 262.449 132.429 262.455 132.564L257.277 132.586L253.094 165.746ZM264.645 132.552C264.64 132.42 264.631 132.286 264.631 132.154C264.611 127.884 268.032 124.386 272.26 124.366C276.486 124.348 279.94 127.807 279.96 132.076C279.96 132.208 279.957 132.343 279.949 132.478L264.642 132.552H264.645Z" fill="#B8C4D0"/>
<path d="M234.711 196.991H276.086" stroke="#B8C4D0" stroke-width="6.31433" stroke-linecap="round"/>
<path d="M234.711 93.8574H246.287" stroke="#D2DCE4" stroke-width="5.26194" stroke-linecap="round"/>
<path d="M268.387 93.8574L310.482 93.8574" stroke="#D2DCE4" stroke-width="5.26194" stroke-linecap="round"/>
<path d="M234.711 209.62H301.332" stroke="#D2DCE4" stroke-width="6.31433" stroke-linecap="round"/>
<path fill-rule="evenodd" clip-rule="evenodd" d="M245.973 241.881C245.973 240.132 247.389 238.714 249.136 238.714L261.981 238.714C263.728 238.714 265.144 240.132 265.144 241.881C265.144 243.63 263.728 245.048 261.981 245.048H249.136C247.389 245.048 245.973 243.63 245.973 241.881Z" fill="#B8C4D0"/>
<path d="M242.096 244.69C242.096 243.029 241.1 241.934 239.518 241.255L238.288 240.745L238.366 237.725C239.088 237.819 239.987 238.272 240.651 238.99L241.861 237.121C241.08 236.215 239.752 235.687 238.581 235.592L238.6 234.535H237.194L237.155 235.554C236.101 235.649 235.085 235.97 234.421 236.536C233.699 237.14 233.133 238.027 233.133 239.273C233.133 240.821 234.07 241.651 234.5 241.972C234.929 242.312 235.515 242.595 236.257 242.897L236.921 243.161L236.862 246.313C236.023 246.294 234.617 245.634 234.05 244.766L232.605 246.653C233.582 247.842 235.183 248.522 236.648 248.578L236.609 249.579H238.014L238.054 248.541C238.796 248.484 239.909 248.125 240.592 247.597C241.354 247.012 242.096 246.03 242.096 244.69ZM237.136 237.706L237.077 240.33L236.862 240.236C236.374 240.009 235.866 239.669 235.866 238.971C235.866 238.235 236.394 237.763 237.136 237.706ZM239.401 245.049C239.401 245.785 238.698 246.294 238.093 246.351L238.151 243.539L238.464 243.69C239.049 243.973 239.401 244.331 239.401 245.049Z" fill="#B8C4D0"/>
<rect x="278.91" y="234.878" width="34.7288" height="14.7334" rx="7.36672" fill="#B8C4D0"/>
<path d="M288.995 238.755H290.956C291.453 238.755 291.915 238.799 292.314 238.994C292.793 239.225 293.104 239.598 293.104 240.299C293.104 241.044 292.554 241.479 292.154 241.639V241.657C292.944 241.834 293.468 242.349 293.468 243.13C293.468 243.795 293.157 244.274 292.74 244.541C292.358 244.78 291.817 244.878 291.231 244.878H288.995V238.755ZM290.868 241.311C291.187 241.311 291.409 241.275 291.595 241.16C291.808 241.027 291.932 240.814 291.932 240.45C291.932 239.917 291.515 239.66 290.921 239.66H290.149V241.311H290.868ZM291.143 243.973C291.436 243.973 291.72 243.964 291.959 243.804C292.163 243.671 292.296 243.396 292.296 243.076C292.296 242.739 292.145 242.509 291.915 242.349C291.684 242.189 291.444 242.154 291.089 242.154H290.149V243.973H291.143ZM295.556 242.881C295.556 243.52 295.663 244.026 296.319 244.026C297.003 244.026 297.26 243.485 297.26 242.766V240.583H298.396V244.878H297.296L297.287 244.274C297.038 244.7 296.577 244.958 295.956 244.958C294.722 244.958 294.42 244.159 294.42 243.13V240.583H295.556V242.881ZM299.058 240.583H300.248L301.383 243.627L302.502 240.583H303.682L301.685 245.455C301.375 246.209 301.02 246.573 300.416 246.573C299.804 246.573 299.404 246.395 299.404 246.395L299.635 245.526C299.635 245.526 299.937 245.632 300.15 245.632C300.372 245.632 300.558 245.57 300.647 245.348L300.833 244.905L299.058 240.583Z" fill="white"/>
<path d="M239.957 222.591H237.921V222.587C237.808 222.586 237.699 222.552 237.607 222.491C237.515 222.429 237.447 222.343 237.41 222.243C237.404 222.228 237.398 222.212 237.394 222.197L236.796 220.412L236.782 220.367C236.756 220.299 236.708 220.242 236.644 220.201C236.581 220.161 236.505 220.141 236.428 220.144C236.351 220.147 236.278 220.173 236.218 220.217C236.158 220.262 236.115 220.323 236.095 220.393L235.49 222.19C235.49 222.191 235.49 222.192 235.49 222.193C235.485 222.212 235.479 222.23 235.472 222.248C235.434 222.347 235.365 222.433 235.274 222.493C235.182 222.554 235.073 222.587 234.96 222.588V222.592H232.923C232.834 222.606 232.754 222.65 232.696 222.714C232.639 222.779 232.608 222.86 232.609 222.944C232.609 222.998 232.622 223.052 232.647 223.1C232.672 223.149 232.708 223.193 232.753 223.227L232.77 223.239L234.352 224.36C234.427 224.411 234.488 224.477 234.53 224.554C234.572 224.631 234.594 224.716 234.594 224.803C234.593 224.843 234.589 224.883 234.579 224.922C234.572 224.952 234.562 224.981 234.55 225.01L233.95 226.804V226.811L233.945 226.824C233.935 226.857 233.93 226.891 233.93 226.926C233.929 226.971 233.937 227.017 233.955 227.06C233.972 227.103 233.999 227.142 234.033 227.175C234.067 227.208 234.107 227.235 234.152 227.253C234.198 227.272 234.246 227.282 234.295 227.283C234.359 227.283 234.422 227.267 234.477 227.236L234.541 227.192L236.111 226.082L236.146 226.057C236.233 226.001 236.336 225.971 236.442 225.97C236.548 225.969 236.652 225.998 236.74 226.052C236.76 226.064 236.778 226.077 236.795 226.091L238.357 227.196L238.401 227.228C238.459 227.262 238.525 227.279 238.593 227.279C238.642 227.277 238.69 227.267 238.735 227.249C238.78 227.23 238.821 227.204 238.855 227.17C238.888 227.137 238.915 227.098 238.933 227.055C238.95 227.013 238.958 226.967 238.957 226.921C238.957 226.886 238.952 226.85 238.94 226.815C238.94 226.81 238.937 226.804 238.935 226.798L238.333 224.997C238.323 224.974 238.315 224.95 238.309 224.925C238.284 224.827 238.288 224.724 238.322 224.628C238.356 224.532 238.418 224.446 238.501 224.381C238.514 224.37 238.528 224.361 238.542 224.351L240.107 223.244L240.155 223.21C240.195 223.176 240.228 223.134 240.25 223.088C240.272 223.041 240.283 222.991 240.282 222.94C240.283 222.855 240.25 222.773 240.19 222.709C240.13 222.644 240.048 222.603 239.957 222.591Z" fill="#B8C4D0"/>
<path d="M250.184 222.591H248.148V222.587C248.035 222.586 247.926 222.552 247.834 222.491C247.743 222.429 247.674 222.343 247.637 222.243C247.631 222.228 247.626 222.212 247.621 222.197L247.024 220.412L247.008 220.367C246.983 220.299 246.935 220.242 246.871 220.201C246.807 220.161 246.732 220.141 246.655 220.144C246.578 220.147 246.504 220.173 246.444 220.217C246.384 220.262 246.341 220.323 246.321 220.393L245.717 222.19C245.717 222.191 245.717 222.192 245.717 222.193C245.712 222.212 245.706 222.23 245.698 222.248C245.661 222.347 245.592 222.433 245.5 222.493C245.409 222.554 245.299 222.587 245.187 222.588V222.592H243.149C243.06 222.606 242.98 222.65 242.923 222.714C242.865 222.779 242.835 222.86 242.836 222.944C242.836 222.998 242.848 223.052 242.873 223.1C242.898 223.149 242.935 223.193 242.98 223.227L242.996 223.239L244.579 224.36C244.672 224.423 244.743 224.51 244.783 224.611C244.823 224.711 244.831 224.82 244.806 224.924C244.799 224.954 244.789 224.984 244.776 225.012L244.176 226.807V226.813L244.172 226.826C244.162 226.859 244.157 226.894 244.157 226.928C244.155 226.974 244.164 227.019 244.181 227.062C244.199 227.105 244.225 227.144 244.259 227.177C244.293 227.211 244.334 227.237 244.379 227.256C244.424 227.274 244.473 227.284 244.522 227.285C244.586 227.285 244.648 227.269 244.703 227.239L244.767 227.195L246.338 226.085L246.372 226.06C246.46 226.004 246.563 225.973 246.669 225.972C246.775 225.971 246.879 226 246.967 226.055C246.986 226.066 247.005 226.079 247.022 226.093L248.584 227.199L248.628 227.23C248.685 227.264 248.752 227.281 248.819 227.281C248.869 227.28 248.917 227.27 248.962 227.251C249.007 227.233 249.047 227.206 249.081 227.173C249.115 227.14 249.141 227.1 249.159 227.058C249.177 227.015 249.185 226.97 249.184 226.924C249.184 226.888 249.178 226.852 249.167 226.818C249.167 226.813 249.163 226.807 249.161 226.801L248.559 225C248.549 224.976 248.541 224.952 248.535 224.928C248.524 224.886 248.518 224.842 248.518 224.799C248.518 224.72 248.536 224.641 248.572 224.569C248.607 224.497 248.66 224.434 248.725 224.383C248.738 224.372 248.752 224.362 248.766 224.353L250.331 223.246L250.379 223.212C250.419 223.178 250.452 223.136 250.474 223.089C250.496 223.043 250.507 222.992 250.506 222.942C250.507 222.857 250.475 222.774 250.416 222.71C250.357 222.646 250.274 222.604 250.184 222.591Z" fill="#B8C4D0"/>
<path d="M260.411 222.591H258.375V222.587C258.262 222.586 258.152 222.552 258.061 222.491C257.969 222.429 257.9 222.343 257.864 222.243C257.857 222.228 257.852 222.212 257.848 222.197L257.25 220.412L257.235 220.367C257.209 220.299 257.161 220.242 257.097 220.201C257.034 220.161 256.958 220.141 256.881 220.144C256.804 220.147 256.731 220.173 256.671 220.217C256.611 220.262 256.568 220.323 256.548 220.393L255.943 222.19C255.943 222.19 255.943 222.19 255.943 222.193C255.938 222.212 255.932 222.23 255.925 222.248C255.887 222.347 255.818 222.433 255.727 222.493C255.635 222.554 255.526 222.587 255.414 222.588V222.592H253.376C253.287 222.606 253.207 222.65 253.149 222.714C253.092 222.779 253.061 222.86 253.063 222.944C253.062 222.998 253.075 223.052 253.099 223.101C253.124 223.15 253.161 223.193 253.206 223.227L253.223 223.239L254.805 224.36C254.898 224.423 254.969 224.51 255.009 224.611C255.05 224.711 255.058 224.82 255.032 224.924C255.025 224.954 255.015 224.984 255.003 225.012L254.403 226.807V226.813L254.398 226.826C254.388 226.859 254.383 226.894 254.383 226.928C254.382 226.974 254.39 227.019 254.408 227.062C254.426 227.105 254.452 227.144 254.486 227.177C254.52 227.211 254.561 227.237 254.606 227.256C254.651 227.274 254.699 227.284 254.748 227.285C254.812 227.285 254.875 227.269 254.93 227.239L254.994 227.195L256.565 226.085L256.599 226.06C256.686 226.004 256.789 225.973 256.895 225.972C257.001 225.971 257.105 226 257.193 226.055C257.213 226.066 257.231 226.079 257.248 226.093L258.81 227.199L258.854 227.23C258.912 227.264 258.978 227.281 259.046 227.281C259.095 227.28 259.143 227.27 259.188 227.251C259.233 227.233 259.274 227.206 259.308 227.173C259.342 227.14 259.368 227.1 259.386 227.058C259.403 227.015 259.412 226.97 259.41 226.924C259.41 226.888 259.405 226.852 259.394 226.818C259.394 226.813 259.39 226.807 259.388 226.801L258.786 225C258.776 224.976 258.768 224.952 258.762 224.928C258.751 224.886 258.746 224.842 258.746 224.799C258.745 224.72 258.763 224.641 258.799 224.569C258.835 224.497 258.887 224.434 258.952 224.383C258.965 224.372 258.979 224.362 258.994 224.353L260.559 223.246L260.607 223.212C260.647 223.178 260.68 223.136 260.702 223.089C260.724 223.043 260.735 222.992 260.734 222.942C260.735 222.857 260.703 222.774 260.643 222.71C260.584 222.645 260.501 222.603 260.411 222.591Z" fill="#B8C4D0"/>
<path d="M270.638 222.591H268.602V222.587C268.489 222.586 268.379 222.552 268.287 222.491C268.196 222.429 268.127 222.343 268.09 222.243C268.084 222.228 268.079 222.212 268.074 222.197L267.477 220.412L267.461 220.367C267.436 220.299 267.388 220.242 267.324 220.201C267.26 220.161 267.185 220.141 267.108 220.144C267.031 220.147 266.957 220.173 266.897 220.217C266.837 220.262 266.794 220.323 266.774 220.393L266.17 222.19C266.17 222.191 266.17 222.192 266.17 222.193C266.165 222.212 266.159 222.23 266.151 222.248C266.114 222.347 266.045 222.433 265.953 222.493C265.862 222.554 265.753 222.587 265.64 222.588V222.592H263.602C263.514 222.606 263.433 222.65 263.376 222.714C263.318 222.779 263.288 222.86 263.289 222.944C263.288 222.998 263.301 223.052 263.326 223.101C263.351 223.15 263.387 223.193 263.433 223.227L263.45 223.239L265.032 224.36C265.125 224.423 265.196 224.51 265.236 224.611C265.276 224.711 265.284 224.82 265.259 224.924C265.252 224.954 265.242 224.984 265.229 225.012L264.629 226.807V226.813L264.624 226.826C264.614 226.859 264.609 226.894 264.609 226.928C264.608 226.974 264.616 227.019 264.634 227.062C264.651 227.105 264.678 227.144 264.712 227.177C264.746 227.211 264.786 227.237 264.832 227.256C264.877 227.274 264.925 227.284 264.974 227.285C265.038 227.285 265.101 227.269 265.156 227.239L265.22 227.195L266.79 226.085L266.825 226.06C266.912 226.004 267.015 225.973 267.121 225.972C267.227 225.971 267.331 226 267.419 226.055C267.439 226.066 267.458 226.079 267.475 226.093L269.037 227.199L269.081 227.23C269.138 227.264 269.205 227.281 269.273 227.281C269.322 227.28 269.37 227.27 269.415 227.251C269.46 227.233 269.5 227.206 269.534 227.173C269.568 227.14 269.595 227.1 269.612 227.058C269.63 227.015 269.638 226.97 269.637 226.924C269.637 226.888 269.631 226.852 269.62 226.818C269.62 226.813 269.616 226.807 269.614 226.801L269.012 225C269.002 224.976 268.994 224.952 268.988 224.928C268.977 224.886 268.972 224.842 268.972 224.799C268.971 224.72 268.989 224.641 269.025 224.569C269.06 224.497 269.113 224.434 269.178 224.383C269.191 224.372 269.205 224.362 269.219 224.353L270.784 223.246L270.832 223.212C270.873 223.178 270.905 223.136 270.927 223.089C270.949 223.043 270.96 222.992 270.96 222.942C270.96 222.857 270.928 222.774 270.869 222.71C270.81 222.646 270.728 222.604 270.638 222.591Z" fill="#B8C4D0"/>
<path d="M280.853 222.591H278.817V222.587C278.704 222.586 278.594 222.552 278.503 222.491C278.411 222.429 278.342 222.343 278.306 222.243C278.299 222.228 278.294 222.212 278.29 222.197L277.692 220.412L277.677 220.367C277.651 220.299 277.603 220.242 277.54 220.201C277.476 220.161 277.4 220.141 277.323 220.144C277.246 220.147 277.173 220.173 277.113 220.217C277.053 220.262 277.01 220.323 276.99 220.393L276.385 222.19C276.385 222.19 276.385 222.19 276.385 222.193C276.381 222.212 276.374 222.23 276.367 222.248C276.329 222.347 276.26 222.433 276.169 222.493C276.077 222.554 275.968 222.587 275.856 222.588V222.592H273.817C273.728 222.606 273.648 222.65 273.591 222.714C273.533 222.779 273.502 222.86 273.504 222.944C273.504 222.998 273.516 223.052 273.541 223.1C273.566 223.149 273.602 223.193 273.648 223.227L273.664 223.239L275.249 224.359C275.341 224.422 275.412 224.509 275.453 224.609C275.493 224.71 275.501 224.819 275.475 224.923C275.469 224.953 275.459 224.983 275.446 225.011L274.846 226.806V226.812L274.841 226.825C274.832 226.858 274.826 226.892 274.826 226.927C274.825 226.973 274.833 227.018 274.851 227.061C274.868 227.104 274.895 227.143 274.929 227.176C274.963 227.209 275.003 227.236 275.048 227.254C275.093 227.273 275.142 227.283 275.191 227.284C275.255 227.284 275.318 227.268 275.373 227.237L275.436 227.193L277.007 226.084L277.042 226.059C277.129 226.002 277.232 225.972 277.338 225.971C277.444 225.97 277.548 225.999 277.636 226.053C277.655 226.065 277.674 226.078 277.691 226.092L279.253 227.197L279.297 227.229C279.354 227.263 279.421 227.28 279.489 227.28C279.538 227.279 279.586 227.269 279.631 227.25C279.676 227.232 279.717 227.205 279.75 227.172C279.784 227.138 279.811 227.099 279.828 227.057C279.846 227.014 279.854 226.968 279.853 226.923C279.853 226.887 279.847 226.851 279.836 226.817C279.836 226.812 279.832 226.805 279.831 226.799L279.228 224.998C279.218 224.975 279.21 224.951 279.204 224.926C279.193 224.884 279.188 224.841 279.188 224.798C279.187 224.719 279.205 224.64 279.241 224.568C279.277 224.496 279.329 224.432 279.394 224.381C279.407 224.371 279.422 224.361 279.436 224.352L281.001 223.245L281.048 223.211C281.089 223.177 281.121 223.135 281.143 223.088C281.165 223.042 281.176 222.991 281.176 222.94C281.176 222.856 281.144 222.774 281.085 222.709C281.025 222.645 280.943 222.603 280.853 222.591Z" fill="#B8C4D0"/>
</g>
<rect x="181.043" y="137.238" width="18.943" height="18.943" rx="9.4715" fill="#B0CBFF"/>
<path d="M188.104 145.216H186.735C186.584 145.216 186.439 145.276 186.331 145.383C186.224 145.49 186.164 145.636 186.164 145.787V149.417C186.165 149.568 186.225 149.713 186.332 149.819C186.439 149.926 186.584 149.986 186.735 149.986H188.104C188.256 149.986 188.401 149.925 188.508 149.818C188.615 149.711 188.675 149.566 188.675 149.414V145.787C188.675 145.636 188.615 145.49 188.508 145.383C188.401 145.276 188.256 145.216 188.104 145.216ZM187.927 149.646C187.862 149.646 187.799 149.627 187.745 149.591C187.691 149.555 187.649 149.504 187.624 149.444C187.599 149.384 187.593 149.318 187.606 149.255C187.618 149.191 187.649 149.133 187.695 149.087C187.741 149.041 187.799 149.01 187.863 148.997C187.926 148.985 187.992 148.991 188.052 149.016C188.112 149.041 188.163 149.083 188.199 149.137C188.235 149.191 188.254 149.254 188.254 149.319C188.254 149.405 188.219 149.489 188.158 149.55C188.096 149.611 188.013 149.646 187.926 149.646H187.927Z" fill="white"/>
<path d="M194.038 147.719V147.746H194.145C194.263 147.746 194.377 147.781 194.475 147.847C194.572 147.912 194.649 148.005 194.694 148.113C194.739 148.221 194.751 148.341 194.728 148.456C194.706 148.571 194.65 148.677 194.568 148.761C194.456 148.873 194.304 148.936 194.145 148.938H194.038V148.968C194.167 148.978 194.287 149.035 194.375 149.13C194.462 149.224 194.511 149.348 194.511 149.477C194.511 149.606 194.462 149.73 194.375 149.824C194.287 149.919 194.167 149.976 194.038 149.986C194.026 149.987 194.014 149.987 194.003 149.986H190.071C189.847 149.986 189.633 149.897 189.475 149.74C189.316 149.582 189.227 149.367 189.227 149.144V145.933C189.227 145.431 189.876 144.384 190.291 143.918C190.384 143.817 190.455 143.697 190.5 143.567C190.544 143.437 190.561 143.299 190.55 143.162C190.515 142.719 190.544 142.088 190.994 142.046C191.696 141.982 192.273 143.2 191.94 144.115C191.803 144.487 191.69 144.761 191.6 144.951H194.173C194.36 144.952 194.54 145.026 194.675 145.156C194.81 145.287 194.889 145.464 194.896 145.651C194.904 145.839 194.838 146.022 194.714 146.162C194.59 146.303 194.417 146.39 194.23 146.406C194.401 146.411 194.564 146.482 194.683 146.605C194.802 146.728 194.869 146.892 194.869 147.064C194.868 147.237 194.798 147.403 194.675 147.526C194.552 147.649 194.386 147.718 194.212 147.718L194.038 147.719Z" fill="white"/>
<g opacity="0.8">
<path d="M299.961 76.5119C299.961 75.1769 301.043 74.0947 302.378 74.0947H367.302C368.637 74.0947 369.719 75.1769 369.719 76.5119V84.3062C369.719 85.6412 368.637 86.7234 367.302 86.7234H302.378C301.043 86.7234 299.961 85.6412 299.961 84.3062V76.5119Z" fill="#B0CBFF"/>
<path d="M309.065 79.9485V79.2275H308.171L308.477 77.4717H307.703L307.388 79.2275H306.332L306.638 77.4717H305.855L305.548 79.2275H304.501V79.9485H305.421L305.216 81.1445H304.203V81.8655H305.089L304.782 83.6129H305.565L305.872 81.8655H306.928L306.621 83.6129H307.405L307.711 81.8655H308.775V81.1445H307.839L308.043 79.9485H309.065ZM307.26 79.9485L307.055 81.1445H306L306.204 79.9485H307.26Z" fill="white"/>
<path d="M316.545 82.2451H315.787L315.288 80.9813H313.21L312.711 82.2451H311.995L313.968 77.3863H314.565L316.545 82.2451ZM315.099 80.4125L314.249 78.2359L313.4 80.4125H315.099ZM321.996 82.2451H321.329V80.3002C321.329 79.914 321.259 79.4015 320.718 79.4015C320.185 79.4015 319.918 79.914 319.918 80.5108V82.2451H319.244V80.3002C319.244 79.8087 319.125 79.4015 318.64 79.4015C318.106 79.4015 317.84 79.914 317.84 80.5108V82.2451H317.166V78.91H317.84L317.833 79.4366H317.854C318.008 79.1276 318.373 78.8468 318.816 78.8468C319.307 78.8468 319.651 79.0715 319.806 79.5068C320.03 79.0855 320.395 78.8468 320.866 78.8468C321.758 78.8468 321.996 79.4998 321.996 80.223V82.2451ZM325.629 82.2451H324.976L324.969 81.8238C324.836 81.9643 324.52 82.3224 323.909 82.3224C323.291 82.3224 322.757 81.9362 322.757 81.2902C322.757 80.6372 323.291 80.3072 324.063 80.2721L324.955 80.237V80.1036C324.955 79.5981 324.611 79.3453 324.127 79.3453C323.642 79.3453 323.235 79.563 323.123 79.6332L322.919 79.1838C323.165 79.0434 323.614 78.8468 324.169 78.8468C325.145 78.8468 325.629 79.3383 325.629 80.3072V82.2451ZM324.962 80.6443L324.183 80.6934C323.642 80.7215 323.424 80.9532 323.424 81.2692C323.424 81.5851 323.67 81.8449 324.113 81.8449C324.548 81.8449 324.836 81.55 324.962 81.3604V80.6443ZM329.225 82.2451H326.319V81.8309L328.271 79.4576H326.417V78.917H329.127V79.3242L327.182 81.6904H329.225V82.2451ZM330.778 77.8146C330.778 78.0534 330.595 78.2289 330.342 78.2289C330.082 78.2289 329.9 78.0534 329.9 77.8146C329.9 77.5759 330.082 77.4004 330.342 77.4004C330.595 77.4004 330.778 77.5759 330.778 77.8146ZM330.679 82.2451H330.005V78.91H330.679V82.2451ZM334.677 82.2451H334.003V80.3845C334.003 79.8228 333.904 79.4015 333.307 79.4015C332.683 79.4015 332.451 79.9281 332.451 80.567V82.2451H331.777V78.91H332.451L332.444 79.4366H332.465C332.64 79.1066 332.999 78.8468 333.483 78.8468C334.431 78.8468 334.677 79.4717 334.677 80.2721V82.2451ZM338.946 81.543C338.946 82.2802 338.826 82.6875 338.581 82.9824C338.335 83.2843 337.921 83.6213 337.092 83.6213C336.271 83.6213 335.702 83.193 335.604 83.1228L335.92 82.6524C336.095 82.8068 336.615 83.0736 337.113 83.0736C337.963 83.0736 338.279 82.5611 338.279 81.7747V81.6062H338.265C338.04 81.9432 337.661 82.203 337.099 82.203C336.243 82.203 335.491 81.5851 335.491 80.5249C335.491 79.4647 336.243 78.8468 337.099 78.8468C337.682 78.8468 338.068 79.1276 338.265 79.4366H338.286L338.279 78.91H338.946V81.543ZM338.3 80.5249C338.3 79.893 337.928 79.3874 337.24 79.3874C336.558 79.3874 336.179 79.893 336.179 80.5249C336.179 81.1568 336.558 81.6553 337.24 81.6553C337.928 81.6553 338.3 81.1568 338.3 80.5249ZM343.094 78.7836C343.094 79.7596 342.335 80.1668 341.451 80.1668H340.77V82.2451H340.089V77.4004H341.451C341.921 77.4004 342.328 77.4917 342.623 77.7444C342.925 78.0042 343.094 78.3202 343.094 78.7836ZM342.392 78.7836C342.392 78.1798 341.935 77.9551 341.395 77.9551H340.77V79.6121H341.395C341.935 79.6121 342.392 79.3945 342.392 78.7836ZM345.75 78.903L345.707 79.5279H345.679C345.616 79.4998 345.497 79.4576 345.314 79.4576C344.71 79.4576 344.563 80.0966 344.563 80.5811V82.2451H343.889V78.91H344.563L344.556 79.4225H344.577C344.739 79.0434 345.04 78.8468 345.399 78.8468C345.623 78.8468 345.75 78.903 345.75 78.903ZM349.654 80.5881C349.654 81.6272 348.882 82.3224 347.892 82.3224C346.895 82.3224 346.122 81.6272 346.122 80.5881C346.122 79.5559 346.895 78.8468 347.892 78.8468C348.882 78.8468 349.654 79.5559 349.654 80.5881ZM348.973 80.567C348.973 79.914 348.559 79.3945 347.892 79.3945C347.218 79.3945 346.803 79.914 346.803 80.567C346.803 81.227 347.218 81.7466 347.892 81.7466C348.559 81.7466 348.973 81.227 348.973 80.567ZM353.728 82.2451H353.082V81.7115H353.068C352.795 82.1187 352.38 82.3224 351.896 82.3224C350.906 82.3224 350.274 81.564 350.274 80.574C350.274 79.591 350.906 78.8468 351.882 78.8468C352.422 78.8468 352.816 79.0855 353.047 79.4296H353.061V77.4004H353.728V82.2451ZM353.082 80.567C353.082 79.9 352.689 79.3945 352.022 79.3945C351.355 79.3945 350.962 79.9 350.962 80.567C350.962 81.234 351.355 81.7466 352.022 81.7466C352.689 81.7466 353.082 81.234 353.082 80.567ZM357.665 82.2451H357.012L357.005 81.7677C356.823 82.0906 356.443 82.3224 355.973 82.3224C355.046 82.3224 354.8 81.7326 354.8 80.904V78.903H355.467V80.876C355.467 81.3323 355.566 81.7606 356.163 81.7606C356.752 81.7606 356.991 81.2551 356.991 80.6934V78.903H357.665V82.2451ZM361.528 81.8168C361.43 81.9151 361.085 82.3224 360.194 82.3224C359.295 82.3224 358.509 81.6483 358.509 80.5811C358.509 79.5068 359.33 78.8468 360.215 78.8468C361.107 78.8468 361.472 79.2821 361.507 79.3242L361.268 79.8157C361.156 79.7034 360.861 79.4085 360.271 79.4085C359.681 79.4085 359.19 79.8579 359.19 80.56C359.19 81.2621 359.625 81.7466 360.271 81.7466C360.924 81.7466 361.289 81.3253 361.289 81.3253L361.528 81.8168ZM363.828 82.21C363.653 82.2872 363.449 82.3224 363.217 82.3224C362.382 82.3224 362.34 81.6343 362.34 80.9813V79.4576H361.848V78.917H362.34V77.92H363.014V78.917H363.814V79.4576H363.014V80.9672C363.014 81.2481 363.021 81.4377 363.098 81.5781C363.161 81.6834 363.252 81.7466 363.442 81.7466C363.638 81.7466 363.786 81.6694 363.786 81.6694L363.828 82.21Z" fill="white"/>
</g>
<g opacity="0.8">
<path d="M168.414 214.507C168.414 213.1 169.555 211.959 170.962 211.959H222.915C224.322 211.959 225.462 213.1 225.462 214.507V222.722C225.462 224.13 224.322 225.27 222.915 225.27H170.962C169.555 225.27 168.414 224.13 168.414 222.722V214.507Z" fill="#9FC0FF"/>
<path d="M178.003 218.129V217.369H177.061L177.384 215.519H176.568L176.235 217.369H175.123L175.446 215.519H174.62L174.297 217.369H173.193V218.129H174.162L173.947 219.39H172.879V220.15H173.812L173.489 221.992H174.315L174.638 220.15H175.751L175.428 221.992H176.253L176.577 220.15H177.698V219.39H176.711L176.927 218.129H178.003ZM176.101 218.129L175.885 219.39H174.773L174.988 218.129H176.101Z" fill="white"/>
<path d="M184.824 217.578C184.824 218.607 184.024 219.036 183.092 219.036H182.374V221.227H181.656V216.12H183.092C183.588 216.12 184.017 216.216 184.328 216.483C184.646 216.756 184.824 217.089 184.824 217.578ZM184.084 217.578C184.084 216.941 183.603 216.705 183.033 216.705H182.374V218.451H183.033C183.603 218.451 184.084 218.222 184.084 217.578ZM188.96 219.48C188.96 220.575 188.146 221.308 187.102 221.308C186.051 221.308 185.237 220.575 185.237 219.48C185.237 218.392 186.051 217.645 187.102 217.645C188.146 217.645 188.96 218.392 188.96 219.48ZM188.242 219.458C188.242 218.769 187.805 218.222 187.102 218.222C186.392 218.222 185.955 218.769 185.955 219.458C185.955 220.153 186.392 220.701 187.102 220.701C187.805 220.701 188.242 220.153 188.242 219.458ZM193.336 219.48C193.336 220.575 192.522 221.308 191.478 221.308C190.427 221.308 189.613 220.575 189.613 219.48C189.613 218.392 190.427 217.645 191.478 217.645C192.522 217.645 193.336 218.392 193.336 219.48ZM192.618 219.458C192.618 218.769 192.181 218.222 191.478 218.222C190.768 218.222 190.331 218.769 190.331 219.458C190.331 220.153 190.768 220.701 191.478 220.701C192.181 220.701 192.618 220.153 192.618 219.458ZM196.187 217.704L196.143 218.362H196.113C196.047 218.333 195.921 218.288 195.729 218.288C195.092 218.288 194.937 218.962 194.937 219.473V221.227H194.226V217.711H194.937L194.929 218.251H194.951C195.122 217.852 195.44 217.645 195.817 217.645C196.054 217.645 196.187 217.704 196.187 217.704ZM200.05 219.806C200.05 220.797 199.162 221.315 198.267 221.315C197.371 221.315 196.861 220.738 196.616 220.457L197.038 219.976C197.297 220.324 197.778 220.709 198.333 220.709C198.888 220.709 199.332 220.39 199.332 219.85C199.332 219.317 198.763 219.11 198.504 219.006C198.237 218.903 197.882 218.762 197.689 218.666C197.164 218.422 196.846 218.015 196.846 217.415C196.846 216.505 197.675 216.053 198.489 216.053C199.325 216.053 199.814 216.564 199.954 216.712L199.577 217.2C199.325 216.934 198.955 216.653 198.452 216.653C197.948 216.653 197.564 216.89 197.564 217.363C197.564 217.837 197.911 218.015 198.222 218.14L199.162 218.533C199.688 218.777 200.05 219.199 200.05 219.806ZM204.167 219.325C204.167 219.458 204.144 219.635 204.144 219.635H201.436C201.473 220.331 201.917 220.753 202.568 220.753C203.227 220.753 203.648 220.398 203.73 220.346L204.026 220.753C203.982 220.79 203.53 221.308 202.479 221.308C201.436 221.308 200.718 220.583 200.718 219.465C200.718 218.355 201.524 217.645 202.501 217.645C203.478 217.645 204.167 218.34 204.167 219.325ZM203.493 219.162C203.486 218.769 203.19 218.155 202.479 218.155C201.776 218.155 201.465 218.74 201.443 219.162H203.493ZM206.981 217.704L206.937 218.362H206.907C206.84 218.333 206.715 218.288 206.522 218.288C205.886 218.288 205.73 218.962 205.73 219.473V221.227H205.02V217.711H205.73L205.723 218.251H205.745C205.915 217.852 206.234 217.645 206.611 217.645C206.848 217.645 206.981 217.704 206.981 217.704ZM210.718 217.711L209.253 221.227H208.631L207.166 217.711H207.906L208.949 220.361L209.986 217.711H210.718ZM212.209 216.557C212.209 216.808 212.017 216.993 211.75 216.993C211.476 216.993 211.284 216.808 211.284 216.557C211.284 216.305 211.476 216.12 211.75 216.12C212.017 216.12 212.209 216.305 212.209 216.557ZM212.105 221.227H211.395V217.711H212.105V221.227ZM216.208 220.775C216.104 220.879 215.742 221.308 214.802 221.308C213.854 221.308 213.025 220.597 213.025 219.473C213.025 218.34 213.891 217.645 214.824 217.645C215.764 217.645 216.149 218.103 216.186 218.148L215.934 218.666C215.816 218.547 215.505 218.237 214.883 218.237C214.261 218.237 213.743 218.71 213.743 219.45C213.743 220.19 214.202 220.701 214.883 220.701C215.571 220.701 215.956 220.257 215.956 220.257L216.208 220.775ZM220.135 219.325C220.135 219.458 220.113 219.635 220.113 219.635H217.404C217.441 220.331 217.885 220.753 218.536 220.753C219.195 220.753 219.617 220.398 219.698 220.346L219.994 220.753C219.95 220.79 219.498 221.308 218.447 221.308C217.404 221.308 216.686 220.583 216.686 219.465C216.686 218.355 217.493 217.645 218.47 217.645C219.447 217.645 220.135 218.34 220.135 219.325ZM219.461 219.162C219.454 218.769 219.158 218.155 218.447 218.155C217.744 218.155 217.433 218.74 217.411 219.162H219.461Z" fill="white"/>
</g>
<g filter="url(#filter1_dd_956_73460)">
<rect x="291.539" y="105.667" width="97.7349" height="25.2573" rx="4.068" fill="white"/>
<rect x="290.039" y="104.167" width="100.735" height="28.2573" rx="5.568" stroke="#3D7FFC" stroke-width="3"/>
</g>
<path d="M330.34 116.402H327.805V116.397C327.664 116.396 327.528 116.354 327.414 116.277C327.3 116.2 327.214 116.092 327.168 115.969C327.161 115.95 327.154 115.93 327.148 115.911L326.405 113.688L326.386 113.633C326.354 113.549 326.294 113.476 326.215 113.426C326.136 113.376 326.042 113.351 325.946 113.355C325.85 113.358 325.758 113.391 325.684 113.446C325.609 113.502 325.556 113.578 325.531 113.664L324.778 115.902C324.778 115.904 324.778 115.905 324.778 115.906C324.772 115.93 324.765 115.953 324.755 115.975C324.708 116.098 324.622 116.204 324.508 116.28C324.395 116.356 324.259 116.397 324.119 116.398V116.403H321.581C321.471 116.42 321.371 116.475 321.299 116.555C321.228 116.635 321.19 116.737 321.191 116.841C321.191 116.908 321.207 116.975 321.238 117.036C321.269 117.097 321.314 117.151 321.37 117.193L321.391 117.209L323.361 118.605C323.455 118.668 323.531 118.75 323.583 118.846C323.636 118.942 323.663 119.048 323.662 119.155C323.662 119.205 323.656 119.255 323.644 119.304C323.635 119.341 323.623 119.378 323.607 119.413L322.86 121.648V121.656L322.854 121.672C322.842 121.713 322.836 121.756 322.836 121.798C322.834 121.855 322.845 121.912 322.867 121.966C322.888 122.019 322.921 122.068 322.964 122.109C323.006 122.15 323.057 122.183 323.113 122.206C323.169 122.229 323.229 122.242 323.29 122.243C323.37 122.243 323.448 122.223 323.516 122.185L323.596 122.13L325.552 120.749L325.595 120.718C325.703 120.648 325.832 120.61 325.963 120.608C326.095 120.607 326.225 120.643 326.335 120.711C326.359 120.725 326.382 120.741 326.403 120.759L328.348 122.136L328.402 122.175C328.474 122.217 328.557 122.239 328.641 122.238C328.702 122.237 328.763 122.224 328.818 122.201C328.874 122.178 328.925 122.145 328.967 122.103C329.009 122.062 329.042 122.013 329.064 121.96C329.086 121.907 329.096 121.85 329.095 121.793C329.095 121.749 329.088 121.704 329.074 121.661C329.074 121.655 329.069 121.647 329.068 121.64L328.317 119.398C328.305 119.369 328.295 119.339 328.288 119.308C328.256 119.186 328.262 119.057 328.304 118.938C328.346 118.818 328.423 118.711 328.527 118.63C328.543 118.617 328.561 118.605 328.578 118.593L330.527 117.215L330.586 117.172C330.636 117.13 330.677 117.078 330.704 117.02C330.732 116.962 330.746 116.899 330.745 116.836C330.745 116.73 330.704 116.628 330.63 116.548C330.555 116.468 330.452 116.416 330.34 116.402Z" fill="#F9C400"/>
<path d="M343.075 116.402H340.54V116.397C340.399 116.396 340.263 116.354 340.149 116.277C340.035 116.2 339.949 116.092 339.904 115.969C339.896 115.95 339.889 115.93 339.884 115.911L339.14 113.688L339.121 113.633C339.089 113.549 339.029 113.476 338.95 113.426C338.87 113.376 338.776 113.351 338.68 113.355C338.585 113.358 338.493 113.391 338.418 113.446C338.343 113.502 338.29 113.578 338.265 113.664L337.513 115.902C337.513 115.904 337.513 115.905 337.513 115.906C337.507 115.93 337.499 115.953 337.49 115.975C337.443 116.098 337.357 116.204 337.243 116.28C337.129 116.356 336.993 116.397 336.853 116.398V116.403H334.316C334.205 116.42 334.105 116.475 334.034 116.555C333.962 116.635 333.924 116.737 333.926 116.841C333.925 116.908 333.941 116.975 333.972 117.036C334.003 117.097 334.049 117.151 334.105 117.193L334.126 117.209L336.096 118.605C336.211 118.683 336.3 118.792 336.35 118.916C336.4 119.041 336.41 119.177 336.378 119.307C336.369 119.344 336.357 119.381 336.341 119.416L335.594 121.65V121.658L335.589 121.675C335.577 121.716 335.57 121.759 335.57 121.802C335.569 121.859 335.579 121.915 335.601 121.968C335.623 122.022 335.656 122.071 335.698 122.112C335.74 122.153 335.791 122.186 335.847 122.209C335.903 122.232 335.964 122.245 336.025 122.246C336.104 122.246 336.183 122.227 336.251 122.188L336.33 122.133L338.286 120.752L338.329 120.721C338.437 120.651 338.566 120.613 338.698 120.612C338.83 120.61 338.959 120.646 339.069 120.714C339.093 120.728 339.116 120.744 339.137 120.762L341.082 122.138L341.137 122.178C341.208 122.22 341.291 122.241 341.375 122.241C341.437 122.239 341.497 122.227 341.553 122.204C341.609 122.181 341.659 122.148 341.701 122.106C341.744 122.065 341.777 122.016 341.798 121.963C341.82 121.91 341.831 121.853 341.829 121.796C341.829 121.752 341.822 121.707 341.808 121.665C341.808 121.658 341.804 121.65 341.801 121.643L341.051 119.401C341.038 119.372 341.029 119.341 341.021 119.311C341.008 119.259 341.001 119.205 341.001 119.151C341 119.052 341.023 118.955 341.067 118.865C341.111 118.775 341.177 118.696 341.258 118.632C341.274 118.619 341.292 118.607 341.309 118.595L343.258 117.218L343.317 117.175C343.368 117.132 343.408 117.08 343.436 117.022C343.463 116.964 343.477 116.902 343.476 116.838C343.477 116.733 343.437 116.63 343.363 116.55C343.29 116.47 343.187 116.417 343.075 116.402Z" fill="#F9C400"/>
<path d="M355.798 116.402H353.263V116.397C353.122 116.396 352.985 116.354 352.872 116.277C352.758 116.2 352.672 116.092 352.626 115.969C352.618 115.95 352.612 115.93 352.606 115.911L351.862 113.688L351.843 113.633C351.811 113.549 351.751 113.476 351.672 113.426C351.593 113.376 351.499 113.351 351.403 113.355C351.307 113.358 351.215 113.391 351.141 113.446C351.066 113.502 351.013 113.578 350.988 113.664L350.235 115.902C350.235 115.902 350.235 115.903 350.235 115.906C350.229 115.93 350.221 115.953 350.212 115.975C350.165 116.098 350.079 116.204 349.965 116.28C349.852 116.356 349.716 116.397 349.576 116.398V116.403H347.038C346.928 116.42 346.828 116.475 346.756 116.555C346.685 116.635 346.647 116.737 346.649 116.841C346.648 116.909 346.663 116.975 346.694 117.036C346.725 117.097 346.771 117.151 346.828 117.193L346.848 117.209L348.818 118.605C348.934 118.683 349.022 118.792 349.072 118.916C349.123 119.041 349.132 119.177 349.101 119.307C349.092 119.344 349.08 119.381 349.064 119.416L348.317 121.65V121.658L348.311 121.675C348.299 121.716 348.293 121.759 348.293 121.802C348.291 121.859 348.302 121.915 348.324 121.968C348.345 122.022 348.379 122.071 348.421 122.112C348.463 122.153 348.514 122.186 348.57 122.209C348.626 122.232 348.686 122.245 348.747 122.246C348.827 122.246 348.905 122.227 348.973 122.188L349.053 122.133L351.009 120.752L351.052 120.721C351.16 120.651 351.289 120.613 351.42 120.612C351.552 120.61 351.682 120.646 351.792 120.714C351.816 120.728 351.839 120.744 351.86 120.762L353.805 122.138L353.859 122.178C353.931 122.22 354.014 122.241 354.098 122.241C354.159 122.239 354.22 122.227 354.276 122.204C354.331 122.181 354.382 122.148 354.424 122.106C354.466 122.065 354.499 122.016 354.521 121.963C354.543 121.91 354.553 121.853 354.552 121.796C354.552 121.752 354.545 121.707 354.531 121.665C354.531 121.658 354.526 121.65 354.525 121.643L353.774 119.401C353.762 119.372 353.752 119.341 353.745 119.311C353.731 119.258 353.724 119.205 353.724 119.151C353.723 119.052 353.746 118.955 353.79 118.865C353.835 118.775 353.9 118.696 353.981 118.632C353.998 118.619 354.015 118.607 354.033 118.595L355.981 117.218L356.041 117.175C356.092 117.132 356.132 117.08 356.16 117.022C356.187 116.964 356.201 116.902 356.2 116.838C356.201 116.732 356.161 116.63 356.087 116.55C356.013 116.469 355.91 116.417 355.798 116.402Z" fill="#F9C400"/>
<path d="M368.532 116.402H365.997V116.397C365.856 116.396 365.72 116.354 365.606 116.277C365.492 116.2 365.406 116.092 365.361 115.969C365.353 115.95 365.346 115.93 365.341 115.911L364.597 113.688L364.578 113.633C364.546 113.549 364.486 113.476 364.407 113.426C364.327 113.376 364.233 113.351 364.137 113.355C364.042 113.358 363.95 113.391 363.875 113.446C363.8 113.502 363.747 113.578 363.722 113.664L362.97 115.902C362.97 115.904 362.97 115.905 362.97 115.906C362.964 115.93 362.956 115.953 362.947 115.975C362.9 116.098 362.814 116.204 362.7 116.28C362.586 116.356 362.45 116.397 362.31 116.398V116.403H359.773C359.662 116.42 359.562 116.475 359.491 116.555C359.419 116.635 359.381 116.737 359.383 116.841C359.382 116.909 359.398 116.975 359.429 117.036C359.46 117.097 359.505 117.151 359.562 117.193L359.583 117.209L361.553 118.605C361.668 118.683 361.757 118.792 361.807 118.916C361.857 119.041 361.867 119.177 361.835 119.307C361.826 119.344 361.814 119.381 361.798 119.416L361.051 121.65V121.658L361.045 121.675C361.033 121.716 361.027 121.759 361.027 121.802C361.025 121.859 361.035 121.915 361.057 121.968C361.079 122.022 361.112 122.071 361.154 122.112C361.197 122.153 361.247 122.186 361.303 122.209C361.359 122.232 361.42 122.245 361.481 122.246C361.561 122.246 361.639 122.227 361.707 122.188L361.787 122.133L363.742 120.752L363.785 120.721C363.894 120.651 364.022 120.613 364.154 120.612C364.286 120.61 364.415 120.646 364.525 120.714C364.55 120.728 364.573 120.744 364.594 120.762L366.539 122.138L366.594 122.178C366.665 122.22 366.748 122.241 366.833 122.241C366.894 122.239 366.954 122.227 367.01 122.204C367.066 122.181 367.116 122.148 367.158 122.106C367.201 122.065 367.234 122.016 367.255 121.963C367.277 121.91 367.288 121.853 367.286 121.796C367.286 121.752 367.279 121.707 367.265 121.665C367.265 121.658 367.261 121.65 367.258 121.643L366.508 119.401C366.495 119.372 366.486 119.341 366.478 119.311C366.465 119.259 366.458 119.205 366.458 119.151C366.457 119.052 366.48 118.955 366.524 118.865C366.569 118.775 366.634 118.696 366.715 118.632C366.731 118.619 366.749 118.607 366.766 118.595L368.715 117.218L368.774 117.175C368.825 117.132 368.865 117.08 368.893 117.022C368.92 116.964 368.934 116.902 368.933 116.838C368.934 116.733 368.894 116.63 368.82 116.55C368.747 116.47 368.644 116.417 368.532 116.402Z" fill="#F9C400"/>
<path d="M381.255 116.402H378.721V116.397C378.58 116.396 378.443 116.354 378.329 116.277C378.215 116.2 378.13 116.092 378.084 115.969C378.076 115.95 378.07 115.93 378.064 115.911L377.32 113.688L377.301 113.633C377.269 113.549 377.209 113.476 377.13 113.426C377.051 113.376 376.956 113.351 376.861 113.355C376.765 113.358 376.673 113.391 376.599 113.446C376.524 113.502 376.47 113.578 376.446 113.664L375.693 115.902C375.693 115.902 375.693 115.903 375.693 115.906C375.687 115.93 375.679 115.953 375.67 115.975C375.623 116.098 375.537 116.204 375.423 116.28C375.31 116.356 375.173 116.397 375.034 116.398V116.403H372.495C372.385 116.42 372.285 116.475 372.213 116.555C372.142 116.635 372.104 116.737 372.106 116.841C372.105 116.908 372.121 116.975 372.152 117.036C372.183 117.097 372.228 117.151 372.285 117.193L372.305 117.209L374.278 118.603C374.393 118.682 374.482 118.79 374.532 118.915C374.582 119.04 374.592 119.175 374.56 119.305C374.552 119.343 374.539 119.379 374.524 119.415L373.776 121.649V121.657L373.771 121.673C373.758 121.715 373.752 121.757 373.752 121.8C373.75 121.857 373.76 121.914 373.782 121.967C373.804 122.02 373.837 122.069 373.879 122.111C373.922 122.152 373.972 122.185 374.028 122.208C374.084 122.231 374.145 122.243 374.206 122.244C374.286 122.245 374.364 122.225 374.432 122.187L374.512 122.132L376.467 120.75L376.51 120.719C376.619 120.649 376.747 120.611 376.879 120.61C377.011 120.609 377.14 120.645 377.25 120.713C377.274 120.727 377.297 120.743 377.319 120.761L379.263 122.137L379.318 122.176C379.39 122.218 379.472 122.24 379.557 122.239C379.618 122.238 379.678 122.226 379.734 122.202C379.79 122.179 379.841 122.146 379.883 122.105C379.925 122.064 379.958 122.015 379.98 121.962C380.002 121.908 380.012 121.852 380.01 121.795C380.01 121.75 380.003 121.706 379.99 121.663C379.99 121.656 379.985 121.649 379.982 121.641L379.232 119.399C379.22 119.37 379.21 119.34 379.203 119.309C379.189 119.257 379.182 119.203 379.182 119.15C379.181 119.051 379.204 118.953 379.248 118.863C379.293 118.774 379.358 118.694 379.439 118.631C379.456 118.618 379.473 118.606 379.491 118.594L381.439 117.216L381.498 117.173C381.549 117.131 381.589 117.079 381.617 117.021C381.644 116.963 381.658 116.9 381.657 116.837C381.658 116.731 381.618 116.629 381.544 116.549C381.47 116.469 381.368 116.417 381.255 116.402Z" fill="#F9C400"/>
<mask id="mask1_956_73460" style="mask-type:alpha" maskUnits="userSpaceOnUse" x="296" y="108" width="18" height="19">
<circle cx="304.981" cy="117.905" r="8.94541" fill="#C4C4C4"/>
</mask>
<g mask="url(#mask1_956_73460)">
<path d="M304.556 127.178C309.605 127.178 313.698 123.086 313.698 118.038C313.698 112.99 309.605 108.897 304.556 108.897C299.507 108.897 295.414 112.99 295.414 118.038C295.414 123.086 299.507 127.178 304.556 127.178Z" fill="#7879F1"/>
<path d="M301.298 124.396C302.126 124.396 302.798 123.423 302.798 122.224C302.798 121.024 302.126 120.052 301.298 120.052C300.469 120.052 299.797 121.024 299.797 122.224C299.797 123.423 300.469 124.396 301.298 124.396Z" fill="#FEB79C"/>
<path d="M300.248 125.799L309.451 125.286C309.451 125.286 310.855 121.45 310.54 121.196C310.219 120.942 304.913 118.129 304.913 118.129L299.734 118.256L300.248 125.799Z" fill="#2C2D00"/>
<path d="M304.977 134.745C308.436 134.745 311.24 132.199 311.24 129.059C311.24 125.918 308.436 123.372 304.977 123.372C301.519 123.372 298.715 125.918 298.715 129.059C298.715 132.199 301.519 134.745 304.977 134.745Z" fill="#9FC0FF"/>
<path d="M304.665 125.228C303.917 125.228 303.303 124.758 303.283 124.173L303.196 121.486C303.176 120.891 303.783 120.39 304.545 120.379C305.312 120.369 305.947 120.838 305.96 121.433L306.047 124.121C306.067 124.716 305.459 125.217 304.698 125.228C304.691 125.228 304.678 125.228 304.665 125.228Z" fill="#FEB79C"/>
<path d="M304.561 120.274C304.067 120.284 303.66 120.64 303.559 121.103L303.599 122.695C303.615 123.27 304.083 123.722 304.652 123.722C304.663 123.722 304.668 123.722 304.678 123.722C305.171 123.712 305.578 123.356 305.68 122.893L305.639 121.301C305.624 120.716 305.146 120.259 304.561 120.274Z" fill="#FAA887"/>
<path d="M307.848 117.495C307.848 119.875 305.93 122.576 304.348 122.576C303.147 122.576 300.848 119.881 300.848 117.495C300.848 115.115 302.415 113.182 304.348 113.182C306.281 113.182 307.848 115.115 307.848 117.495Z" fill="#FEB79C"/>
<path d="M302.715 114.039C302.389 114.075 302.038 114.319 301.692 114.68C301.163 115.433 300.848 116.415 300.848 117.493C300.848 118.8 301.54 120.199 302.364 121.201C301.987 120.423 301.814 119.64 302.287 118.694C302.715 117.834 303.34 115.911 303.34 115.911C303.34 115.911 304.012 113.897 302.715 114.039Z" fill="#FAA887"/>
<path d="M304.358 113.182C303.147 113.182 302.084 113.94 301.453 115.089C301.774 115.771 302.822 117.525 305.269 118.024C307.222 118.421 306.057 120.247 306.027 121.732C307.039 120.745 307.858 119.051 307.858 117.495C307.858 115.115 306.291 113.182 304.358 113.182Z" fill="#FAA887"/>
<path d="M301.72 114.426C301.72 114.426 302.596 117.015 305.653 117.636C308.003 118.114 305.846 120.657 306.564 122.188C307.098 123.327 308.288 123.053 307.378 124.202C306.467 125.352 307.184 129.233 309.916 128.373C312.648 127.508 313.081 122.956 312.027 121.089C310.974 119.218 309.58 118.597 309.438 116.873C309.296 115.148 307.998 112.417 305.317 112.224C303.618 112.102 301.288 111.934 301.72 114.426Z" fill="#2E2F06"/>
<path d="M302.771 115.48C302.771 115.48 302.145 117.402 301.718 118.262C301.001 119.701 301.764 120.754 302.486 122C303.015 122.916 302.349 124.137 301.957 124.732C301.24 125.836 300.614 126.075 301.428 126.934C302.242 127.799 297.592 131.009 297.114 128.084C296.636 125.159 298.024 124.152 298.696 122.809C299.367 121.466 297.979 121.517 298.793 118.593C299.215 117.082 300.853 113.75 302.15 113.608C303.442 113.465 302.771 115.48 302.771 115.48Z" fill="#2E2F06"/>
</g>
<g opacity="0.8">
<g filter="url(#filter2_dd_956_73460)">
<rect x="157.891" y="173.019" width="90.0424" height="24.2049" rx="3.78868" fill="white"/>
</g>
<path d="M192.084 183.671H189.584V183.667C189.446 183.665 189.311 183.625 189.199 183.552C189.086 183.478 189.002 183.376 188.957 183.257C188.949 183.239 188.942 183.221 188.937 183.202L188.203 181.081L188.185 181.028C188.154 180.948 188.095 180.879 188.017 180.831C187.939 180.784 187.846 180.76 187.751 180.763C187.657 180.766 187.566 180.797 187.493 180.85C187.419 180.904 187.366 180.976 187.342 181.059L186.6 183.194C186.6 183.195 186.6 183.197 186.6 183.198C186.594 183.22 186.586 183.242 186.577 183.264C186.531 183.381 186.446 183.482 186.334 183.555C186.221 183.627 186.087 183.666 185.949 183.667V183.672H183.447C183.338 183.689 183.239 183.74 183.169 183.817C183.099 183.894 183.061 183.99 183.063 184.09C183.062 184.154 183.078 184.218 183.108 184.276C183.139 184.334 183.184 184.386 183.239 184.426L183.26 184.441L185.202 185.773C185.295 185.833 185.37 185.912 185.421 186.004C185.473 186.095 185.499 186.196 185.499 186.299C185.499 186.346 185.493 186.394 185.481 186.44C185.472 186.476 185.46 186.511 185.445 186.545L184.708 188.677V188.685L184.702 188.7C184.691 188.74 184.684 188.78 184.684 188.821C184.683 188.876 184.693 188.93 184.714 188.981C184.736 189.031 184.769 189.078 184.81 189.118C184.852 189.157 184.902 189.189 184.957 189.21C185.012 189.232 185.072 189.244 185.132 189.245C185.211 189.246 185.288 189.227 185.355 189.19L185.434 189.138L187.362 187.819L187.405 187.79C187.512 187.723 187.638 187.687 187.768 187.685C187.899 187.684 188.026 187.719 188.134 187.783C188.158 187.797 188.181 187.812 188.202 187.829L190.12 189.143L190.174 189.18C190.244 189.22 190.326 189.241 190.409 189.241C190.469 189.239 190.529 189.227 190.584 189.205C190.639 189.183 190.689 189.152 190.73 189.112C190.772 189.073 190.805 189.026 190.826 188.975C190.848 188.925 190.858 188.871 190.856 188.816C190.857 188.774 190.85 188.731 190.836 188.69C190.836 188.684 190.831 188.677 190.83 188.67L190.09 186.53C190.077 186.502 190.068 186.474 190.061 186.444C190.03 186.327 190.035 186.205 190.077 186.091C190.118 185.977 190.194 185.875 190.296 185.797C190.313 185.785 190.33 185.774 190.347 185.762L192.269 184.447L192.327 184.406C192.377 184.366 192.417 184.316 192.444 184.261C192.471 184.206 192.484 184.146 192.484 184.085C192.484 183.984 192.444 183.887 192.37 183.81C192.297 183.734 192.195 183.685 192.084 183.671Z" fill="#F9C400"/>
<path d="M204.64 183.671H202.14V183.667C202.001 183.665 201.866 183.625 201.754 183.552C201.642 183.478 201.557 183.376 201.512 183.257C201.504 183.239 201.498 183.221 201.493 183.202L200.759 181.081L200.74 181.028C200.709 180.948 200.65 180.879 200.571 180.831C200.493 180.784 200.4 180.76 200.306 180.763C200.212 180.766 200.121 180.797 200.047 180.85C199.974 180.904 199.921 180.976 199.897 181.059L199.154 183.194C199.154 183.195 199.154 183.197 199.154 183.198C199.148 183.22 199.141 183.242 199.132 183.264C199.086 183.381 199.001 183.482 198.888 183.555C198.776 183.627 198.642 183.666 198.504 183.667V183.672H196.002C195.893 183.689 195.794 183.74 195.724 183.817C195.653 183.894 195.615 183.99 195.617 184.09C195.617 184.154 195.632 184.218 195.663 184.276C195.693 184.334 195.738 184.386 195.794 184.426L195.814 184.441L197.757 185.773C197.871 185.848 197.958 185.952 198.008 186.071C198.057 186.19 198.067 186.319 198.035 186.443C198.027 186.479 198.015 186.514 197.999 186.548L197.263 188.68V188.687L197.257 188.703C197.245 188.742 197.239 188.783 197.239 188.824C197.237 188.879 197.248 188.932 197.269 188.983C197.291 189.034 197.323 189.081 197.365 189.12C197.407 189.16 197.457 189.191 197.512 189.213C197.567 189.235 197.627 189.247 197.687 189.248C197.766 189.248 197.843 189.23 197.91 189.193L197.988 189.141L199.917 187.822L199.959 187.793C200.066 187.726 200.193 187.69 200.323 187.688C200.453 187.687 200.581 187.721 200.689 187.786C200.713 187.8 200.736 187.815 200.757 187.832L202.674 189.146L202.728 189.183C202.799 189.223 202.881 189.244 202.964 189.243C203.024 189.242 203.084 189.23 203.139 189.208C203.194 189.186 203.244 189.154 203.285 189.115C203.327 189.075 203.359 189.029 203.381 188.978C203.402 188.927 203.413 188.873 203.411 188.819C203.411 188.776 203.404 188.734 203.391 188.693C203.391 188.687 203.386 188.68 203.384 188.673L202.644 186.533C202.631 186.505 202.622 186.476 202.615 186.447C202.601 186.397 202.594 186.346 202.594 186.295C202.593 186.2 202.616 186.107 202.66 186.021C202.703 185.936 202.768 185.86 202.848 185.8C202.864 185.787 202.881 185.776 202.899 185.764L204.82 184.449L204.878 184.408C204.928 184.368 204.968 184.318 204.995 184.263C205.022 184.208 205.036 184.148 205.035 184.087C205.036 183.987 204.997 183.889 204.924 183.812C204.851 183.736 204.75 183.686 204.64 183.671Z" fill="#F9C400"/>
<path d="M217.19 183.671H214.691V183.667C214.552 183.665 214.417 183.625 214.305 183.552C214.193 183.478 214.108 183.376 214.063 183.257C214.055 183.239 214.049 183.221 214.043 183.202L213.31 181.081L213.291 181.028C213.259 180.948 213.2 180.879 213.122 180.831C213.044 180.784 212.951 180.76 212.857 180.763C212.762 180.766 212.672 180.797 212.598 180.85C212.524 180.904 212.472 180.976 212.447 181.059L211.705 183.194C211.705 183.194 211.705 183.195 211.705 183.198C211.699 183.22 211.692 183.242 211.682 183.264C211.636 183.381 211.551 183.482 211.439 183.555C211.327 183.627 211.193 183.666 211.055 183.667V183.672H208.552C208.444 183.689 208.345 183.74 208.274 183.817C208.204 183.894 208.166 183.99 208.168 184.09C208.167 184.154 208.183 184.218 208.213 184.276C208.244 184.335 208.289 184.386 208.345 184.426L208.365 184.441L210.308 185.773C210.422 185.848 210.509 185.952 210.558 186.071C210.608 186.19 210.618 186.319 210.586 186.443C210.578 186.479 210.566 186.514 210.55 186.548L209.813 188.68V188.687L209.808 188.703C209.796 188.742 209.79 188.783 209.79 188.824C209.788 188.879 209.798 188.932 209.82 188.983C209.842 189.034 209.874 189.081 209.916 189.12C209.957 189.16 210.007 189.191 210.063 189.213C210.118 189.235 210.177 189.247 210.238 189.248C210.316 189.248 210.393 189.23 210.461 189.193L210.539 189.141L212.468 187.822L212.51 187.793C212.617 187.726 212.744 187.69 212.874 187.688C213.004 187.687 213.132 187.721 213.24 187.786C213.264 187.8 213.286 187.815 213.307 187.832L215.225 189.146L215.279 189.183C215.35 189.223 215.431 189.244 215.515 189.243C215.575 189.242 215.634 189.23 215.689 189.208C215.745 189.186 215.794 189.154 215.836 189.115C215.877 189.075 215.91 189.029 215.932 188.978C215.953 188.927 215.963 188.873 215.962 188.819C215.962 188.776 215.955 188.734 215.941 188.693C215.941 188.687 215.937 188.68 215.935 188.673L215.195 186.533C215.183 186.505 215.173 186.476 215.166 186.447C215.153 186.397 215.146 186.346 215.146 186.295C215.145 186.2 215.167 186.107 215.211 186.021C215.255 185.936 215.319 185.86 215.399 185.8C215.416 185.787 215.433 185.776 215.45 185.764L217.372 184.449L217.431 184.408C217.481 184.368 217.521 184.318 217.548 184.263C217.575 184.208 217.588 184.148 217.588 184.087C217.588 183.986 217.549 183.888 217.476 183.812C217.403 183.735 217.301 183.685 217.19 183.671Z" fill="#F9C400"/>
<path opacity="0.25" d="M229.741 183.671H227.241V183.667C227.103 183.665 226.968 183.625 226.856 183.552C226.743 183.478 226.659 183.376 226.614 183.257C226.606 183.239 226.599 183.221 226.594 183.202L225.86 181.081L225.842 181.028C225.81 180.948 225.751 180.879 225.673 180.831C225.595 180.784 225.502 180.76 225.407 180.763C225.313 180.766 225.223 180.797 225.149 180.85C225.075 180.904 225.022 180.976 224.998 181.059L224.256 183.194C224.256 183.195 224.256 183.197 224.256 183.198C224.25 183.22 224.242 183.242 224.233 183.264C224.187 183.381 224.102 183.482 223.99 183.555C223.878 183.627 223.743 183.666 223.605 183.667V183.672H221.103C220.994 183.689 220.896 183.74 220.825 183.817C220.755 183.894 220.717 183.99 220.719 184.09C220.718 184.154 220.734 184.218 220.764 184.276C220.795 184.335 220.84 184.386 220.895 184.426L220.916 184.441L222.858 185.773C222.973 185.848 223.06 185.951 223.109 186.071C223.159 186.19 223.168 186.319 223.137 186.443C223.129 186.479 223.116 186.514 223.101 186.548L222.364 188.68V188.687L222.358 188.703C222.346 188.742 222.34 188.783 222.34 188.824C222.338 188.879 222.348 188.932 222.37 188.983C222.391 189.034 222.424 189.081 222.466 189.12C222.507 189.16 222.557 189.191 222.613 189.213C222.668 189.235 222.727 189.247 222.788 189.248C222.866 189.248 222.943 189.23 223.011 189.193L223.089 189.141L225.018 187.822L225.06 187.793C225.167 187.726 225.294 187.69 225.424 187.688C225.554 187.687 225.682 187.721 225.79 187.786C225.814 187.8 225.837 187.815 225.858 187.832L227.776 189.146L227.83 189.183C227.9 189.223 227.982 189.244 228.065 189.243C228.126 189.242 228.185 189.23 228.24 189.208C228.295 189.186 228.345 189.154 228.387 189.115C228.428 189.075 228.461 189.029 228.482 188.978C228.504 188.927 228.514 188.873 228.513 188.819C228.513 188.776 228.506 188.734 228.492 188.693C228.492 188.687 228.487 188.68 228.485 188.673L227.745 186.533C227.733 186.505 227.723 186.476 227.716 186.447C227.703 186.397 227.696 186.346 227.696 186.295C227.695 186.2 227.717 186.107 227.761 186.021C227.805 185.936 227.869 185.86 227.949 185.8C227.966 185.787 227.983 185.776 228 185.764L229.922 184.449L229.98 184.408C230.03 184.368 230.07 184.318 230.097 184.263C230.124 184.208 230.137 184.148 230.137 184.087C230.138 183.987 230.098 183.889 230.026 183.812C229.953 183.736 229.852 183.686 229.741 183.671Z" fill="#F9C400"/>
<path opacity="0.25" d="M242.297 183.671H239.797V183.667C239.658 183.665 239.524 183.625 239.411 183.552C239.299 183.478 239.214 183.376 239.169 183.257C239.161 183.239 239.155 183.221 239.15 183.202L238.416 181.081L238.397 181.028C238.366 180.948 238.307 180.879 238.228 180.831C238.15 180.784 238.057 180.76 237.963 180.763C237.869 180.766 237.778 180.797 237.704 180.85C237.631 180.904 237.578 180.976 237.554 181.059L236.811 183.194C236.811 183.194 236.811 183.195 236.811 183.198C236.805 183.22 236.798 183.242 236.789 183.264C236.743 183.381 236.658 183.482 236.545 183.555C236.433 183.627 236.299 183.666 236.161 183.667V183.672H233.658C233.549 183.689 233.45 183.74 233.38 183.817C233.309 183.894 233.272 183.99 233.273 184.09C233.273 184.154 233.289 184.218 233.319 184.276C233.35 184.334 233.394 184.386 233.45 184.426L233.47 184.441L235.416 185.772C235.53 185.847 235.617 185.95 235.666 186.069C235.716 186.188 235.725 186.318 235.694 186.442C235.686 186.477 235.674 186.512 235.658 186.546L234.921 188.679V188.686L234.916 188.702C234.904 188.741 234.897 188.782 234.897 188.822C234.895 188.877 234.905 188.931 234.927 188.982C234.949 189.033 234.981 189.08 235.023 189.119C235.064 189.158 235.114 189.19 235.17 189.212C235.225 189.234 235.285 189.246 235.345 189.247C235.423 189.247 235.5 189.228 235.568 189.191L235.646 189.139L237.575 187.821L237.617 187.791C237.724 187.724 237.851 187.688 237.981 187.687C238.111 187.686 238.239 187.72 238.347 187.785C238.371 187.798 238.393 187.814 238.414 187.831L240.332 189.144L240.386 189.182C240.457 189.222 240.538 189.242 240.622 189.242C240.682 189.241 240.741 189.229 240.796 189.207C240.852 189.185 240.901 189.153 240.943 189.113C240.985 189.074 241.017 189.028 241.039 188.977C241.06 188.926 241.07 188.872 241.069 188.818C241.069 188.775 241.062 188.733 241.048 188.692C241.048 188.686 241.044 188.678 241.041 188.671L240.301 186.531C240.289 186.504 240.279 186.475 240.272 186.446C240.259 186.396 240.252 186.345 240.252 186.293C240.251 186.199 240.274 186.106 240.317 186.02C240.361 185.935 240.425 185.859 240.505 185.798C240.522 185.785 240.539 185.774 240.556 185.763L242.478 184.448L242.536 184.407C242.586 184.367 242.626 184.317 242.653 184.262C242.68 184.206 242.694 184.146 242.693 184.086C242.694 183.985 242.654 183.888 242.581 183.812C242.508 183.735 242.407 183.685 242.297 183.671Z" fill="#F9C400"/>
<mask id="mask2_956_73460" style="mask-type:alpha" maskUnits="userSpaceOnUse" x="162" y="176" width="18" height="17">
<ellipse cx="170.926" cy="184.68" rx="8.15636" ry="8.24148" fill="#C4C4C4"/>
</mask>
<g mask="url(#mask2_956_73460)">
<ellipse cx="171.268" cy="184.5" rx="8.49041" ry="8.57902" fill="#FFDA75"/>
<path d="M167.589 185.987C167.611 185.942 167.585 185.885 167.539 185.872C167.343 185.813 167.198 185.687 167.165 185.525C167.143 185.418 167.174 185.309 167.244 185.215C167.262 185.192 167.264 185.157 167.252 185.13C167.087 185.116 166.948 184.999 166.926 184.845C166.915 184.768 166.936 184.692 166.979 184.631C166.977 184.625 166.975 184.62 166.973 184.614C166.967 184.592 166.957 184.571 166.938 184.563C166.5 184.382 166.103 183.149 167.147 182.52C167.192 182.493 167.196 182.423 167.153 182.388C166.909 182.18 166.76 181.907 166.773 181.63C166.798 181.13 167.343 180.809 167.99 180.916C168 180.918 168.008 180.92 168.018 180.92C168.074 180.929 168.114 180.867 168.089 180.811C167.886 180.337 167.87 179.895 168.083 179.695C168.285 179.504 168.642 179.578 169.004 179.847C169.051 179.882 169.111 179.853 169.115 179.792C169.134 179.453 169.268 179.204 169.45 179.204C169.57 179.204 169.686 179.317 169.77 179.49C169.799 179.553 169.878 179.553 169.9 179.492C170.134 178.856 170.566 178.48 170.917 178.637C171.117 178.727 171.251 178.969 171.307 179.288C171.319 179.356 171.398 179.379 171.435 179.327C171.727 178.91 172.179 178.731 172.594 178.918C172.89 179.05 173.109 179.342 173.22 179.701C173.232 179.738 173.263 179.761 173.296 179.761C173.484 179.755 173.681 179.794 173.877 179.882C174.54 180.178 174.947 180.939 174.854 181.65C174.846 181.703 174.889 181.751 174.937 181.745C175.261 181.716 175.565 181.884 175.67 182.18C175.765 182.444 175.672 182.738 175.461 182.935C175.414 182.978 175.441 183.068 175.505 183.075C175.784 183.116 176.013 183.291 176.062 183.535C176.116 183.808 175.926 184.076 175.62 184.185C175.565 184.205 175.556 184.285 175.604 184.326C175.825 184.51 175.949 184.717 175.899 184.849C175.85 184.978 175.653 184.999 175.404 184.923C175.348 184.906 175.302 184.966 175.323 185.027C175.416 185.27 175.408 185.509 175.286 185.652C175.174 185.78 174.99 185.798 174.798 185.722C174.749 185.702 174.699 185.743 174.705 185.8C174.736 186.101 174.637 186.366 174.433 186.46C174.272 186.534 174.081 186.481 173.914 186.343C173.887 186.321 173.852 186.321 173.827 186.343C173.48 186.654 173.069 186.908 172.606 187.083C172.022 187.303 171.499 187.355 170.929 187.291C170.88 187.285 170.844 187.332 170.853 187.385C170.942 187.833 170.673 188.094 170.282 188.158C170.144 188.181 169.935 188.113 169.867 188.018C169.857 188.002 169.797 187.971 169.739 188.033C169.489 188.29 169 188.018 168.909 187.57C168.888 187.466 168.886 187.365 168.898 187.27C168.903 187.219 168.83 187.12 168.721 187.192C168.68 187.219 168.626 187.227 168.572 187.237C168.182 187.307 167.614 186.989 167.523 186.542C167.488 186.335 167.516 186.144 167.589 185.987Z" fill="#412C25"/>
<path d="M175.935 202.674C177.503 197.985 179.66 194.585 178.528 192.694C177.445 190.883 177.103 190.924 176.272 190.792C173.26 190.311 173.062 189.109 171.345 189.164C171.312 189.166 171.102 189.164 171.066 189.164C169.36 189.115 168.687 190.4 166.15 190.792C165.319 190.92 164.979 190.883 163.894 192.694C162.762 194.585 164.919 197.985 166.485 202.674C167.323 205.176 165.981 207.558 165.541 208.432C165.057 209.398 164.838 209.297 164.913 209.984C165.034 211.073 167.922 211.904 170.8 211.875C170.936 211.873 171.54 211.875 171.707 211.875C174.555 211.885 177.384 211.059 177.505 209.984C177.58 209.297 177.363 209.398 176.877 208.432C176.439 207.558 175.099 205.175 175.935 202.674Z" fill="#3D7FFC"/>
<path d="M173.27 190.312C173.097 187.652 173.084 185.444 172.345 185.771C172.088 185.886 170.326 185.886 170.07 185.771C169.331 185.444 169.304 187.356 169.145 190.312C169.122 190.756 169.723 191.85 171.208 191.85C172.626 191.85 173.299 190.758 173.27 190.312Z" fill="#B76B4E"/>
<path d="M173.56 182.979C173.301 181.831 172.295 181.174 171.193 181.199C170.092 181.174 169.086 181.831 168.826 182.979C168.652 183.748 168.601 187.897 169.698 189.187C169.916 189.444 170.665 190.211 171.187 190.211C171.776 190.211 172.479 189.454 172.687 189.187C173.578 188.047 173.513 186.592 173.623 185.54C173.747 184.335 173.733 183.748 173.56 182.979Z" fill="#884F39"/>
<path d="M173.977 182.367C173.67 181.201 172.482 180.533 171.182 180.558C169.881 180.533 168.693 181.201 168.387 182.367C168.181 183.148 168.121 187.364 169.416 188.675C169.674 188.936 170.557 189.714 171.174 189.714C171.87 189.714 172.699 188.945 172.945 188.675C173.998 187.516 173.92 186.038 174.05 184.969C174.198 183.744 174.18 183.148 173.977 182.367Z" fill="#B76B4E"/>
<path d="M167.938 181.866C167.909 181.765 167.888 181.656 167.88 181.545C167.834 180.893 168.198 180.336 168.696 180.301C168.95 180.283 169.19 180.406 169.369 180.616C169.537 180.523 169.749 180.459 169.983 180.441C170.237 180.424 170.476 180.462 170.664 180.546C170.749 180.069 171.061 179.707 171.458 179.68C171.931 179.645 172.352 180.094 172.431 180.7C172.608 180.593 172.831 180.521 173.079 180.503C173.656 180.462 174.149 180.729 174.216 181.109C174.529 181.28 174.763 181.666 174.796 182.131C174.815 182.406 174.763 182.663 174.656 182.871C174.862 182.916 175.021 183.076 175.034 183.28C175.052 183.531 174.843 183.751 174.567 183.771C174.53 183.773 174.496 183.773 174.463 183.769C174.443 183.87 174.41 183.975 174.362 184.075C174.125 184.565 173.627 184.813 173.247 184.63C172.945 184.482 172.811 184.102 172.891 183.705C172.687 183.802 172.464 183.837 172.241 183.79C171.877 183.714 171.596 183.442 171.452 183.076C171.375 183.138 171.282 183.167 171.189 183.15C171.084 183.13 170.999 183.052 170.95 182.945C170.799 183.045 170.623 183.109 170.429 183.122C170.074 183.148 169.749 183 169.532 182.752C169.534 182.764 169.535 182.778 169.535 182.789C169.58 183.415 169.134 183.956 168.539 183.999C167.944 184.042 167.427 183.57 167.382 182.945C167.349 182.484 167.58 182.073 167.938 181.866Z" fill="#412C25"/>
</g>
</g>
<g filter="url(#filter3_dd_956_73460)">
<rect x="159.996" y="54.0986" width="68.5556" height="59.9862" rx="3.67885" fill="white"/>
<rect x="158.496" y="52.5986" width="71.5556" height="62.9862" rx="5.17885" stroke="#3D7FFC" stroke-width="3"/>
</g>
<mask id="mask3_956_73460" style="mask-type:alpha" maskUnits="userSpaceOnUse" x="167" y="59" width="55" height="51">
<rect x="167.137" y="59.8115" width="53.8857" height="49.4822" fill="#F5EFEF"/>
</mask>
<g mask="url(#mask3_956_73460)">
<path fill-rule="evenodd" clip-rule="evenodd" d="M180.609 66.6152C179.865 66.6152 179.262 67.1691 179.262 67.8523V82.6969H190.039C193.759 82.6969 196.774 85.4661 196.774 88.8821V93.8304H218.329C219.073 93.8304 219.676 93.2766 219.676 92.5934V67.8523C219.676 67.1691 219.073 66.6152 218.329 66.6152H180.609ZM194.08 93.8304V88.8821C194.08 86.8325 192.271 85.171 190.039 85.171H179.262V92.5934C179.262 93.2766 179.865 93.8304 180.609 93.8304H194.08Z" fill="#98DEF4"/>
<path d="M184.652 72.1827C184.652 71.1579 185.557 70.3271 186.673 70.3271C187.789 70.3271 188.694 71.1579 188.694 72.1827C188.694 73.2075 187.789 74.0383 186.673 74.0383C185.557 74.0383 184.652 73.2075 184.652 72.1827Z" fill="#15C1E6"/>
<path d="M191.391 72.1827C191.391 71.1579 192.295 70.3271 193.411 70.3271C194.527 70.3271 195.432 71.1579 195.432 72.1827C195.432 73.2075 194.527 74.0383 193.411 74.0383C192.295 74.0383 191.391 73.2075 191.391 72.1827Z" fill="#15C1E6"/>
<path d="M198.125 72.1827C198.125 71.1579 199.03 70.3271 200.146 70.3271C201.262 70.3271 202.166 71.1579 202.166 72.1827C202.166 73.2075 201.262 74.0383 200.146 74.0383C199.03 74.0383 198.125 73.2075 198.125 72.1827Z" fill="#15C1E6"/>
<path d="M172.527 88.8821C172.527 86.8324 174.337 85.1709 176.569 85.1709H190.04C192.272 85.1709 194.082 86.8324 194.082 88.8821V98.7785C194.082 100.828 192.272 102.49 190.04 102.49H176.569C174.337 102.49 172.527 100.828 172.527 98.7785V88.8821Z" fill="#15C1E6"/>
<path d="M180.605 91.3559C180.605 89.9895 181.812 88.8818 183.3 88.8818C184.788 88.8818 185.994 89.9895 185.994 91.3559C185.994 92.7224 184.788 93.8301 183.3 93.8301C181.812 93.8301 180.605 92.7224 180.605 91.3559Z" fill="#15C1E6"/>
<path d="M181.953 91.3562C181.953 90.673 182.556 90.1191 183.3 90.1191C184.044 90.1191 184.647 90.673 184.647 91.3562V96.3044C184.647 96.9876 184.044 97.5415 183.3 97.5415C182.556 97.5415 181.953 96.9876 181.953 96.3044V91.3562Z" fill="#15C1E6"/>
<path fill-rule="evenodd" clip-rule="evenodd" d="M180.609 79.6039C180.609 76.5294 177.895 74.0371 174.547 74.0371C171.199 74.0371 168.485 76.5294 168.485 79.6039V81.4594C168.485 82.1426 169.088 82.6965 169.832 82.6965C170.576 82.6965 171.179 82.1426 171.179 81.4594V79.6039C171.179 77.8958 172.687 76.5112 174.547 76.5112C176.407 76.5112 177.915 77.8958 177.915 79.6039V86.4076C177.915 87.0909 178.518 87.6447 179.262 87.6447C180.006 87.6447 180.609 87.0909 180.609 86.4076V79.6039Z" fill="#15C1E6"/>
</g>
<g filter="url(#filter4_dd_956_73460)">
<path d="M301.981 189.564C301.981 186.805 304.218 184.569 306.976 184.569H446.807V263.253H301.981V189.564Z" fill="white" stroke="#D2DCE4" stroke-width="0.548019"/>
<rect x="442.602" y="199.786" width="2.10777" height="10.5388" rx="1.05388" fill="#D2DCE4"/>
<mask id="mask4_956_73460" style="mask-type:alpha" maskUnits="userSpaceOnUse" x="301" y="183" width="140" height="81">
<rect x="301.016" y="183.605" width="139.862" height="79.921" fill="#D9D9D9"/>
</mask>
<g mask="url(#mask4_956_73460)">
<path d="M301.383 194.516L301.383 183.977L311.922 183.977L311.922 194.516L301.383 194.516Z" fill="white" stroke="#D2DCE4" stroke-width="0.54408"/>
<path d="M301.383 205.047L301.383 194.508L311.922 194.508L311.922 205.047L301.383 205.047Z" fill="white" stroke="#D2DCE4" stroke-width="0.54408"/>
<path d="M301.383 247.206L301.383 236.667L311.922 236.667L311.922 247.206L301.383 247.206Z" fill="white" stroke="#D2DCE4" stroke-width="0.54408"/>
<path d="M301.383 226.131L301.383 215.592L311.922 215.592L311.922 226.131L301.383 226.131Z" fill="white" stroke="#D2DCE4" stroke-width="0.54408"/>
<path d="M301.383 268.28L301.383 257.741L311.922 257.741L311.922 268.28L301.383 268.28Z" fill="white" stroke="#D2DCE4" stroke-width="0.54408"/>
<path d="M301.383 215.59L301.383 205.051L311.922 205.051L311.922 215.59L301.383 215.59Z" fill="white" stroke="#D2DCE4" stroke-width="0.54408"/>
<path d="M301.383 257.747L301.383 247.208L311.922 247.208L311.922 257.747L301.383 257.747Z" fill="white" stroke="#D2DCE4" stroke-width="0.54408"/>
<path d="M301.383 236.662L301.383 226.123L311.922 226.123L311.922 236.662L301.383 236.662Z" fill="white" stroke="#D2DCE4" stroke-width="0.54408"/>
<path d="M305.328 201.777H304.656V199.285H304.118V198.807H305.328V201.777ZM308.452 201.777H306.274L306.192 201.338L307.199 200.43C307.479 200.176 307.647 199.982 307.647 199.728C307.647 199.474 307.462 199.311 307.169 199.311C306.872 199.311 306.614 199.505 306.45 199.711L306.158 199.255C306.196 199.165 306.562 198.764 307.234 198.764C307.905 198.764 308.314 199.121 308.314 199.642C308.314 200.163 307.927 200.473 307.69 200.684L307.074 201.239H308.452V201.777Z" fill="#303B45"/>
<path d="M305.328 243.937H304.656V241.444H304.118V240.966H305.328V243.937ZM308.469 242.925C308.469 243.51 308.052 243.984 307.359 243.984C306.859 243.984 306.558 243.713 306.403 243.489C306.257 243.282 306.149 242.968 306.149 242.49C306.149 241.956 306.3 241.543 306.545 241.289C306.773 241.048 307.062 240.923 307.453 240.923C307.858 240.923 308.159 241.061 308.374 241.212L308.12 241.668C307.978 241.556 307.724 241.449 307.483 241.449C307.29 241.449 307.161 241.513 307.044 241.625C306.919 241.75 306.808 241.995 306.808 242.322C306.889 242.232 307.096 242.017 307.557 242.017C308.017 242.017 308.469 242.34 308.469 242.925ZM307.811 242.972C307.811 242.714 307.638 242.482 307.337 242.482C307.031 242.482 306.855 242.714 306.855 242.972C306.855 243.235 307.031 243.463 307.337 243.463C307.638 243.463 307.811 243.235 307.811 242.972Z" fill="#303B45"/>
<path d="M305.328 222.862H304.656V220.37H304.118V219.892H305.328V222.862ZM308.547 222.268H308.151V222.862H307.479V222.268H306.033V221.76L307.38 219.884H308.151V221.73H308.547V222.268ZM307.496 221.743V220.594L306.666 221.743H307.496Z" fill="#303B45"/>
<path d="M305.328 265.01H304.656V262.517H304.118V262.04H305.328V265.01ZM308.422 264.17C308.422 264.76 307.905 265.057 307.285 265.057C306.666 265.057 306.149 264.76 306.149 264.17C306.149 263.809 306.356 263.563 306.683 263.46V263.452C306.468 263.374 306.231 263.198 306.231 262.814C306.231 262.276 306.717 261.997 307.285 261.997C307.849 261.997 308.336 262.276 308.336 262.814C308.336 263.202 308.103 263.378 307.888 263.452V263.464C308.211 263.563 308.422 263.809 308.422 264.17ZM307.677 262.866C307.677 262.634 307.514 262.505 307.285 262.505C307.053 262.505 306.894 262.634 306.894 262.866C306.894 263.094 307.053 263.223 307.285 263.223C307.514 263.223 307.677 263.094 307.677 262.866ZM307.746 264.106C307.746 263.839 307.544 263.684 307.285 263.684C307.023 263.684 306.825 263.839 306.825 264.106C306.825 264.373 307.031 264.528 307.285 264.528C307.539 264.528 307.746 264.373 307.746 264.106Z" fill="#303B45"/>
<path d="M305.328 212.104H304.656V209.611H304.118V209.133H305.328V212.104ZM308.392 211.234C308.392 211.828 307.845 212.151 307.234 212.151C306.618 212.151 306.252 211.807 306.149 211.656L306.468 211.243C306.588 211.389 306.907 211.613 307.195 211.613C307.488 211.613 307.716 211.462 307.716 211.195C307.716 210.933 307.509 210.795 307.242 210.795H306.98V210.309H307.242C307.475 210.309 307.638 210.192 307.638 209.96C307.638 209.727 307.445 209.611 307.208 209.611C306.971 209.611 306.739 209.706 306.498 209.9L306.239 209.461C306.446 209.28 306.721 209.09 307.264 209.09C307.802 209.09 308.297 209.383 308.297 209.882C308.297 210.278 308.069 210.451 307.871 210.532V210.545C308.12 210.61 308.392 210.847 308.392 211.234Z" fill="#303B45"/>
<path d="M305.328 254.263H304.656V251.77H304.118V251.293H305.328V254.263ZM308.504 251.706L307.182 254.263H306.45L307.755 251.826H306.196V251.293H308.314L308.504 251.706Z" fill="#303B45"/>
<path d="M305.328 233.179H304.656V230.686H304.118V230.209H305.328V233.179ZM308.413 232.184C308.413 232.877 307.815 233.226 307.225 233.226C306.631 233.226 306.27 232.955 306.132 232.74L306.45 232.331C306.614 232.559 306.924 232.688 307.178 232.688C307.432 232.688 307.737 232.542 307.737 232.184C307.737 231.831 307.445 231.685 307.178 231.685C306.984 231.685 306.769 231.745 306.635 231.84L306.334 231.659L306.562 230.209H308.301V230.742H307.066L306.98 231.276C307.07 231.237 307.182 231.212 307.376 231.212C307.828 231.212 308.413 231.496 308.413 232.184Z" fill="#303B45"/>
<rect x="311.926" y="194.516" width="10.5388" height="28.4548" transform="rotate(-90 311.926 194.516)" fill="white" stroke="#D2DCE4" stroke-width="0.54408"/>
<rect x="340.383" y="194.516" width="10.5388" height="29.5087" transform="rotate(-90 340.383 194.516)" fill="white" stroke="#D2DCE4" stroke-width="0.54408"/>
<rect x="369.891" y="194.516" width="10.5388" height="29.5087" transform="rotate(-90 369.891 194.516)" fill="white" stroke="#D2DCE4" stroke-width="0.54408"/>
<rect x="399.391" y="194.516" width="10.5388" height="29.5087" transform="rotate(-90 399.391 194.516)" fill="white" stroke="#D2DCE4" stroke-width="0.54408"/>
<rect x="428.906" y="194.516" width="10.5388" height="28.4548" transform="rotate(-90 428.906 194.516)" fill="white" stroke="#D2DCE4" stroke-width="0.54408"/>
<rect x="311.926" y="215.59" width="10.5388" height="28.4548" transform="rotate(-90 311.926 215.59)" fill="#D2DCE4" fill-opacity="0.5" stroke="#D2DCE4" stroke-width="0.54408"/>
<rect x="311.926" y="236.662" width="10.5388" height="28.4548" transform="rotate(-90 311.926 236.662)" fill="#D2DCE4" fill-opacity="0.5" stroke="#D2DCE4" stroke-width="0.54408"/>
<rect x="311.926" y="257.747" width="10.5388" height="28.4548" transform="rotate(-90 311.926 257.747)" fill="#D2DCE4" fill-opacity="0.5" stroke="#D2DCE4" stroke-width="0.54408"/>
<rect x="340.383" y="215.59" width="10.5388" height="29.5087" transform="rotate(-90 340.383 215.59)" fill="#D2DCE4" fill-opacity="0.5" stroke="#D2DCE4" stroke-width="0.54408"/>
<rect x="340.383" y="236.662" width="10.5388" height="29.5087" transform="rotate(-90 340.383 236.662)" fill="#D2DCE4" fill-opacity="0.5" stroke="#D2DCE4" stroke-width="0.54408"/>
<rect x="340.383" y="257.747" width="10.5388" height="29.5087" transform="rotate(-90 340.383 257.747)" fill="#D2DCE4" fill-opacity="0.5" stroke="#D2DCE4" stroke-width="0.54408"/>
<rect x="369.891" y="215.59" width="10.5388" height="29.5087" transform="rotate(-90 369.891 215.59)" fill="#D2DCE4" fill-opacity="0.5" stroke="#D2DCE4" stroke-width="0.54408"/>
<path d="M369.891 236.662L369.891 226.123L399.399 226.123L399.399 236.662L369.891 236.662Z" fill="#D2DCE4" fill-opacity="0.5" stroke="#D2DCE4" stroke-width="0.54408"/>
<rect x="369.891" y="257.747" width="10.5388" height="29.5087" transform="rotate(-90 369.891 257.747)" fill="#D2DCE4" fill-opacity="0.5" stroke="#D2DCE4" stroke-width="0.54408"/>
<rect x="399.391" y="215.59" width="10.5388" height="29.5087" transform="rotate(-90 399.391 215.59)" fill="#D2DCE4" fill-opacity="0.5" stroke="#D2DCE4" stroke-width="0.54408"/>
<rect x="399.391" y="236.664" width="10.5388" height="29.5087" transform="rotate(-90 399.391 236.664)" fill="#D2DCE4" fill-opacity="0.5" stroke="#D2DCE4" stroke-width="0.54408"/>
<rect x="399.391" y="257.747" width="10.5388" height="29.5087" transform="rotate(-90 399.391 257.747)" fill="#D2DCE4" fill-opacity="0.5" stroke="#D2DCE4" stroke-width="0.54408"/>
<rect x="428.906" y="215.59" width="10.5388" height="28.4548" transform="rotate(-90 428.906 215.59)" fill="#D2DCE4" fill-opacity="0.5" stroke="#D2DCE4" stroke-width="0.54408"/>
<rect x="428.906" y="236.664" width="10.5388" height="28.4548" transform="rotate(-90 428.906 236.664)" fill="#D2DCE4" fill-opacity="0.5" stroke="#D2DCE4" stroke-width="0.54408"/>
<rect x="428.906" y="257.747" width="10.5388" height="28.4548" transform="rotate(-90 428.906 257.747)" fill="#D2DCE4" fill-opacity="0.5" stroke="#D2DCE4" stroke-width="0.54408"/>
<rect x="311.926" y="205.047" width="10.5388" height="28.4548" transform="rotate(-90 311.926 205.047)" fill="white" stroke="#D2DCE4" stroke-width="0.54408"/>
<rect x="311.926" y="226.131" width="10.5388" height="28.4548" transform="rotate(-90 311.926 226.131)" fill="white" stroke="#D2DCE4" stroke-width="0.54408"/>
<rect x="311.926" y="247.206" width="10.5388" height="28.4548" transform="rotate(-90 311.926 247.206)" fill="white" stroke="#D2DCE4" stroke-width="0.54408"/>
<rect x="311.926" y="268.28" width="10.5388" height="28.4548" transform="rotate(-90 311.926 268.28)" fill="white" stroke="#D2DCE4" stroke-width="0.54408"/>
<rect x="340.383" y="205.047" width="10.5388" height="29.5087" transform="rotate(-90 340.383 205.047)" fill="white" stroke="#D2DCE4" stroke-width="0.54408"/>
<rect x="340.383" y="226.131" width="10.5388" height="29.5087" transform="rotate(-90 340.383 226.131)" fill="white" stroke="#D2DCE4" stroke-width="0.54408"/>
<rect x="340.383" y="247.206" width="10.5388" height="29.5087" transform="rotate(-90 340.383 247.206)" fill="white" stroke="#D2DCE4" stroke-width="0.54408"/>
<rect x="340.383" y="268.28" width="10.5388" height="29.5087" transform="rotate(-90 340.383 268.28)" fill="white" stroke="#D2DCE4" stroke-width="0.54408"/>
<rect x="369.891" y="205.047" width="10.5388" height="29.5087" transform="rotate(-90 369.891 205.047)" fill="white" stroke="#D2DCE4" stroke-width="0.54408"/>
<rect x="369.891" y="226.131" width="10.5388" height="29.5087" transform="rotate(-90 369.891 226.131)" fill="white" stroke="#D2DCE4" stroke-width="0.54408"/>
<rect x="369.891" y="247.206" width="10.5388" height="29.5087" transform="rotate(-90 369.891 247.206)" fill="white" stroke="#D2DCE4" stroke-width="0.54408"/>
<rect x="369.891" y="268.28" width="10.5388" height="29.5087" transform="rotate(-90 369.891 268.28)" fill="white" stroke="#D2DCE4" stroke-width="0.54408"/>
<rect x="399.391" y="205.048" width="10.5388" height="29.5087" transform="rotate(-90 399.391 205.048)" fill="white" stroke="#D2DCE4" stroke-width="0.54408"/>
<rect x="399.391" y="226.131" width="10.5388" height="29.5087" transform="rotate(-90 399.391 226.131)" fill="white" stroke="#D2DCE4" stroke-width="0.54408"/>
<rect x="399.391" y="247.206" width="10.5388" height="29.5087" transform="rotate(-90 399.391 247.206)" fill="white" stroke="#D2DCE4" stroke-width="0.54408"/>
<rect x="399.391" y="268.28" width="10.5388" height="29.5087" transform="rotate(-90 399.391 268.28)" fill="white" stroke="#D2DCE4" stroke-width="0.54408"/>
<rect x="428.906" y="205.048" width="10.5388" height="28.4548" transform="rotate(-90 428.906 205.048)" fill="white" stroke="#D2DCE4" stroke-width="0.54408"/>
<rect x="428.906" y="226.131" width="10.5388" height="28.4548" transform="rotate(-90 428.906 226.131)" fill="white" stroke="#D2DCE4" stroke-width="0.54408"/>
<rect x="428.906" y="247.206" width="10.5388" height="28.4548" transform="rotate(-90 428.906 247.206)" fill="white" stroke="#D2DCE4" stroke-width="0.54408"/>
<rect x="428.906" y="268.28" width="10.5388" height="28.4548" transform="rotate(-90 428.906 268.28)" fill="white" stroke="#D2DCE4" stroke-width="0.54408"/>
<path d="M317.195 210.325H336.165" stroke="#B8C4D0" stroke-width="2.10777" stroke-linecap="round"/>
<path d="M317.195 231.4H336.165" stroke="#B8C4D0" stroke-width="2.10777" stroke-linecap="round"/>
<path d="M317.195 252.475H336.165" stroke="#B8C4D0" stroke-width="2.10777" stroke-linecap="round"/>
<path d="M345.648 210.325H365.672" stroke="#B8C4D0" stroke-width="2.10777" stroke-linecap="round"/>
<path d="M345.648 231.4H365.672" stroke="#B8C4D0" stroke-width="2.10777" stroke-linecap="round"/>
<path d="M345.648 252.475H365.672" stroke="#B8C4D0" stroke-width="2.10777" stroke-linecap="round"/>
<path d="M375.16 210.325H394.13" stroke="#B8C4D0" stroke-width="2.10777" stroke-linecap="round"/>
<path d="M375.16 231.4H394.13" stroke="#3D7FFC" stroke-width="2.10478" stroke-linecap="round"/>
<path d="M375.16 252.475H394.13" stroke="#B8C4D0" stroke-width="2.10777" stroke-linecap="round"/>
<path d="M403.613 210.325H423.637" stroke="#B8C4D0" stroke-width="2.10777" stroke-linecap="round"/>
<path d="M403.613 231.4H423.637" stroke="#B8C4D0" stroke-width="2.10777" stroke-linecap="round"/>
<path d="M403.613 252.475H423.637" stroke="#B8C4D0" stroke-width="2.10777" stroke-linecap="round"/>
<path d="M434.184 210.325H452.1" stroke="#B8C4D0" stroke-width="2.10777" stroke-linecap="round"/>
<path d="M434.184 231.4H452.1" stroke="#B8C4D0" stroke-width="2.10777" stroke-linecap="round"/>
<path d="M434.184 252.475H452.1" stroke="#B8C4D0" stroke-width="2.10777" stroke-linecap="round"/>
<path d="M317.195 199.784H336.165" stroke="#D2DCE4" stroke-width="2.10777" stroke-linecap="round"/>
<path d="M317.195 220.857H336.165" stroke="#D2DCE4" stroke-width="2.10777" stroke-linecap="round"/>
<path d="M317.195 241.941H336.165" stroke="#D2DCE4" stroke-width="2.10777" stroke-linecap="round"/>
<path d="M317.195 263.016H336.165" stroke="#D2DCE4" stroke-width="2.10777" stroke-linecap="round"/>
<path d="M345.648 199.784H365.672" stroke="#D2DCE4" stroke-width="2.10777" stroke-linecap="round"/>
<path d="M345.648 220.857H365.672" stroke="#D2DCE4" stroke-width="2.10777" stroke-linecap="round"/>
<path d="M345.648 241.941H365.672" stroke="#D2DCE4" stroke-width="2.10777" stroke-linecap="round"/>
<path d="M345.648 263.016H365.672" stroke="#D2DCE4" stroke-width="2.10777" stroke-linecap="round"/>
<path d="M375.16 199.784H394.13" stroke="#D2DCE4" stroke-width="2.10777" stroke-linecap="round"/>
<path d="M375.16 220.857H394.13" stroke="#D2DCE4" stroke-width="2.10777" stroke-linecap="round"/>
<path d="M375.16 241.941H394.13" stroke="#D2DCE4" stroke-width="2.10777" stroke-linecap="round"/>
<path d="M375.16 263.016H394.13" stroke="#D2DCE4" stroke-width="2.10777" stroke-linecap="round"/>
<path d="M403.613 199.784H423.637" stroke="#D2DCE4" stroke-width="2.10777" stroke-linecap="round"/>
<path d="M403.613 220.857H423.637" stroke="#D2DCE4" stroke-width="2.10777" stroke-linecap="round"/>
<path d="M403.613 241.941H423.637" stroke="#D2DCE4" stroke-width="2.10777" stroke-linecap="round"/>
<path d="M403.613 263.016H423.637" stroke="#D2DCE4" stroke-width="2.10777" stroke-linecap="round"/>
<path d="M434.184 199.784H452.1" stroke="#D2DCE4" stroke-width="2.10777" stroke-linecap="round"/>
<path d="M434.184 220.857H452.1" stroke="#D2DCE4" stroke-width="2.10777" stroke-linecap="round"/>
<path d="M434.184 241.941H452.1" stroke="#D2DCE4" stroke-width="2.10777" stroke-linecap="round"/>
<path d="M434.184 263.016H452.1" stroke="#D2DCE4" stroke-width="2.10777" stroke-linecap="round"/>
<path d="M309.235 191.964V186.693L303.965 191.964H309.235Z" fill="#B8C4D0"/>
<path d="M327.869 190.005C327.869 190.661 327.605 191.052 327.321 191.292C327.042 191.527 326.607 191.693 326.02 191.693H324.875V188.317H326.02C326.607 188.317 327.042 188.484 327.321 188.723C327.605 188.958 327.869 189.35 327.869 190.005ZM327.067 190.005C327.067 189.589 326.91 189.35 326.768 189.213C326.626 189.081 326.391 188.973 326.064 188.973H325.662V191.023H326.064C326.391 191.023 326.626 190.915 326.768 190.778C326.91 190.646 327.067 190.421 327.067 190.005Z" fill="#303B45"/>
<path d="M356.618 191.693H354.386V188.317H356.573V188.948H355.174V189.638H356.495V190.27H355.174V191.052H356.618V191.693Z" fill="#303B45"/>
<path d="M386.007 188.948H384.686V189.775H385.929V190.407H384.686V191.693H383.898V188.317H386.007V188.948Z" fill="#303B45"/>
<path d="M416.493 191.171C416.322 191.322 415.921 191.748 414.991 191.748C414.057 191.748 413.235 191.132 413.235 190.006C413.235 188.881 414.057 188.269 415.001 188.269C415.896 188.269 416.283 188.739 416.391 188.856L415.867 189.312C415.725 189.155 415.461 188.925 415.001 188.925C414.458 188.925 414.037 189.321 414.037 190.006C414.037 190.691 414.468 191.088 415.016 191.088C415.564 191.088 415.72 190.872 415.72 190.872V190.373H415.011V189.771H416.493V191.171Z" fill="#303B45"/>
</g>
<path d="M440.879 263.526V183.981" stroke="#D2DCE4" stroke-width="0.526941"/>
<rect x="301.02" y="175.338" width="146.062" height="8.95666" fill="#63B97F"/>
<path d="M301.016 171.204C301.016 169.301 302.558 167.759 304.46 167.759H443.633C445.536 167.759 447.078 169.301 447.078 171.204V175.338H301.016V171.204Z" fill="#4B825D"/>
<path d="M308.031 171.586C308.032 171.87 307.948 172.149 307.79 172.385C307.632 172.622 307.407 172.807 307.144 172.916C306.88 173.026 306.59 173.055 306.311 173C306.031 172.944 305.774 172.808 305.572 172.607C305.37 172.406 305.232 172.15 305.176 171.871C305.12 171.592 305.149 171.303 305.258 171.04C305.367 170.778 305.552 170.553 305.789 170.395C306.026 170.237 306.304 170.152 306.59 170.152C306.97 170.155 307.335 170.307 307.605 170.575C307.874 170.843 308.027 171.206 308.031 171.586Z" fill="#F66058"/>
<path d="M314.093 171.586C314.094 171.871 314.01 172.149 313.852 172.386C313.694 172.623 313.469 172.807 313.205 172.917C312.942 173.026 312.652 173.055 312.372 172.999C312.092 172.944 311.835 172.807 311.633 172.606C311.431 172.405 311.294 172.148 311.238 171.869C311.183 171.59 311.212 171.301 311.321 171.038C311.431 170.775 311.616 170.551 311.854 170.393C312.091 170.235 312.37 170.152 312.656 170.152C312.845 170.151 313.032 170.188 313.207 170.26C313.382 170.331 313.541 170.437 313.674 170.57C313.808 170.704 313.914 170.862 313.986 171.036C314.058 171.211 314.094 171.398 314.093 171.586Z" fill="#F9BD2E"/>
<path d="M320.308 171.586C320.309 171.87 320.225 172.149 320.067 172.385C319.909 172.622 319.684 172.807 319.421 172.916C319.158 173.026 318.868 173.055 318.588 173C318.308 172.944 318.051 172.808 317.849 172.607C317.647 172.406 317.51 172.15 317.454 171.871C317.398 171.592 317.426 171.303 317.535 171.04C317.644 170.778 317.829 170.553 318.066 170.395C318.303 170.237 318.582 170.152 318.867 170.152C319.248 170.155 319.612 170.307 319.882 170.575C320.152 170.843 320.305 171.206 320.308 171.586Z" fill="#3CC840"/>
<rect x="304.594" y="177.406" width="5.06396" height="4.82282" rx="1.02978" fill="#4B825D"/>
<path d="M307.253 180.062L307.857 181.023H308.454L307.572 179.779L308.397 178.611H307.807L307.249 179.482L306.69 178.611H306.101L306.925 179.775L306.043 181.023H306.636L307.253 180.062Z" fill="white"/>
<rect opacity="0.3" x="429.863" y="178.095" width="17.2243" height="3.44487" fill="white"/>
<rect opacity="0.3" x="400.922" y="178.095" width="24.1141" height="3.44487" fill="white"/>
<rect opacity="0.3" x="343.734" y="178.095" width="24.1141" height="3.44487" fill="white"/>
<rect opacity="0.3" x="371.98" y="178.095" width="24.8031" height="3.44487" fill="white"/>
<rect opacity="0.3" x="314.797" y="178.095" width="24.1141" height="3.44487" fill="white"/>
</g>
<path d="M387.355 114.118C388.941 111.635 392.238 110.908 394.721 112.493C397.203 114.078 397.931 117.376 396.346 119.858C394.76 122.341 391.463 123.068 388.98 121.483C386.498 119.898 385.77 116.6 387.355 114.118ZM398.839 225.061C398.287 225.035 397.861 224.567 397.886 224.015L398.304 215.025C398.33 214.473 398.798 214.047 399.35 214.073C399.902 214.098 400.328 214.566 400.302 215.118L399.931 223.109L407.922 223.481C408.474 223.507 408.9 223.975 408.874 224.526C408.849 225.078 408.381 225.505 407.829 225.479L398.839 225.061ZM392.214 116.056C409.378 122.762 423.209 139.033 426.738 159.104C430.276 179.222 423.451 203.032 399.559 224.801L398.212 223.323C421.677 201.943 428.17 178.794 424.769 159.451C421.359 140.06 407.994 124.369 391.487 117.919L392.214 116.056Z" fill="#3D7FFC"/>
<circle cx="158.417" cy="50.4168" r="18.4168" fill="#0BE597"/>
<path d="M149.785 51.0559L155.619 56.1716L167.24 44.6611" stroke="white" stroke-width="2.87763" stroke-linecap="square"/>
<defs>
<filter id="filter0_dd_956_73460" x="203.137" y="51.7613" width="136.41" height="236.028" filterUnits="userSpaceOnUse" color-interpolation-filters="sRGB">
<feFlood flood-opacity="0" result="BackgroundImageFix"/>
<feColorMatrix in="SourceAlpha" type="matrix" values="0 0 0 0 0 0 0 0 0 0 0 0 0 0 0 0 0 0 127 0" result="hardAlpha"/>
<feOffset dy="4.20956"/>
<feGaussianBlur stdDeviation="5.26194"/>
<feColorMatrix type="matrix" values="0 0 0 0 0.607843 0 0 0 0 0.67451 0 0 0 0 0.737255 0 0 0 0.35 0"/>
<feBlend mode="normal" in2="BackgroundImageFix" result="effect1_dropShadow_956_73460"/>
<feColorMatrix in="SourceAlpha" type="matrix" values="0 0 0 0 0 0 0 0 0 0 0 0 0 0 0 0 0 0 127 0" result="hardAlpha"/>
<feOffset dy="2.10478"/>
<feGaussianBlur stdDeviation="6.31433"/>
<feColorMatrix type="matrix" values="0 0 0 0 0.89625 0 0 0 0 0.930414 0 0 0 0 0.995833 0 0 0 0.5 0"/>
<feBlend mode="normal" in2="effect1_dropShadow_956_73460" result="effect2_dropShadow_956_73460"/>
<feBlend mode="normal" in="SourceGraphic" in2="effect2_dropShadow_956_73460" result="shape"/>
</filter>
<filter id="filter1_dd_956_73460" x="275.791" y="92.0436" width="129.23" height="56.7539" filterUnits="userSpaceOnUse" color-interpolation-filters="sRGB">
<feFlood flood-opacity="0" result="BackgroundImageFix"/>
<feColorMatrix in="SourceAlpha" type="matrix" values="0 0 0 0 0 0 0 0 0 0 0 0 0 0 0 0 0 0 127 0" result="hardAlpha"/>
<feOffset dy="4.24934"/>
<feGaussianBlur stdDeviation="5.31168"/>
<feColorMatrix type="matrix" values="0 0 0 0 0.607843 0 0 0 0 0.67451 0 0 0 0 0.737255 0 0 0 0.35 0"/>
<feBlend mode="normal" in2="BackgroundImageFix" result="effect1_dropShadow_956_73460"/>
<feColorMatrix in="SourceAlpha" type="matrix" values="0 0 0 0 0 0 0 0 0 0 0 0 0 0 0 0 0 0 127 0" result="hardAlpha"/>
<feOffset dy="2.12467"/>
<feGaussianBlur stdDeviation="6.37401"/>
<feColorMatrix type="matrix" values="0 0 0 0 0.89625 0 0 0 0 0.930414 0 0 0 0 0.995833 0 0 0 0.5 0"/>
<feBlend mode="normal" in2="effect1_dropShadow_956_73460" result="effect2_dropShadow_956_73460"/>
<feBlend mode="normal" in="SourceGraphic" in2="effect2_dropShadow_956_73460" result="shape"/>
</filter>
<filter id="filter2_dd_956_73460" x="143.368" y="160.916" width="119.089" height="53.251" filterUnits="userSpaceOnUse" color-interpolation-filters="sRGB">
<feFlood flood-opacity="0" result="BackgroundImageFix"/>
<feColorMatrix in="SourceAlpha" type="matrix" values="0 0 0 0 0 0 0 0 0 0 0 0 0 0 0 0 0 0 127 0" result="hardAlpha"/>
<feOffset dy="4.84099"/>
<feGaussianBlur stdDeviation="6.05124"/>
<feColorMatrix type="matrix" values="0 0 0 0 0.607843 0 0 0 0 0.67451 0 0 0 0 0.737255 0 0 0 0.35 0"/>
<feBlend mode="normal" in2="BackgroundImageFix" result="effect1_dropShadow_956_73460"/>
<feColorMatrix in="SourceAlpha" type="matrix" values="0 0 0 0 0 0 0 0 0 0 0 0 0 0 0 0 0 0 127 0" result="hardAlpha"/>
<feOffset dy="2.42049"/>
<feGaussianBlur stdDeviation="7.26148"/>
<feColorMatrix type="matrix" values="0 0 0 0 0.89625 0 0 0 0 0.930414 0 0 0 0 0.995833 0 0 0 0.5 0"/>
<feBlend mode="normal" in2="effect1_dropShadow_956_73460" result="effect2_dropShadow_956_73460"/>
<feBlend mode="normal" in="SourceGraphic" in2="effect2_dropShadow_956_73460" result="shape"/>
</filter>
<filter id="filter3_dd_956_73460" x="145.96" y="41.9015" width="96.6278" height="88.0594" filterUnits="userSpaceOnUse" color-interpolation-filters="sRGB">
<feFlood flood-opacity="0" result="BackgroundImageFix"/>
<feColorMatrix in="SourceAlpha" type="matrix" values="0 0 0 0 0 0 0 0 0 0 0 0 0 0 0 0 0 0 127 0" result="hardAlpha"/>
<feOffset dy="3.67885"/>
<feGaussianBlur stdDeviation="4.59856"/>
<feColorMatrix type="matrix" values="0 0 0 0 0.607843 0 0 0 0 0.67451 0 0 0 0 0.737255 0 0 0 0.35 0"/>
<feBlend mode="normal" in2="BackgroundImageFix" result="effect1_dropShadow_956_73460"/>
<feColorMatrix in="SourceAlpha" type="matrix" values="0 0 0 0 0 0 0 0 0 0 0 0 0 0 0 0 0 0 127 0" result="hardAlpha"/>
<feOffset dy="1.83943"/>
<feGaussianBlur stdDeviation="5.51828"/>
<feColorMatrix type="matrix" values="0 0 0 0 0.89625 0 0 0 0 0.930414 0 0 0 0 0.995833 0 0 0 0.5 0"/>
<feBlend mode="normal" in2="effect1_dropShadow_956_73460" result="effect2_dropShadow_956_73460"/>
<feBlend mode="normal" in="SourceGraphic" in2="effect2_dropShadow_956_73460" result="shape"/>
</filter>
<filter id="filter4_dd_956_73460" x="292.748" y="160.869" width="162.606" height="112.304" filterUnits="userSpaceOnUse" color-interpolation-filters="sRGB">
<feFlood flood-opacity="0" result="BackgroundImageFix"/>
<feColorMatrix in="SourceAlpha" type="matrix" values="0 0 0 0 0 0 0 0 0 0 0 0 0 0 0 0 0 0 127 0" result="hardAlpha"/>
<feOffset dy="2.7559"/>
<feGaussianBlur stdDeviation="3.44487"/>
<feColorMatrix type="matrix" values="0 0 0 0 0.607843 0 0 0 0 0.67451 0 0 0 0 0.737255 0 0 0 0.35 0"/>
<feBlend mode="normal" in2="BackgroundImageFix" result="effect1_dropShadow_956_73460"/>
<feColorMatrix in="SourceAlpha" type="matrix" values="0 0 0 0 0 0 0 0 0 0 0 0 0 0 0 0 0 0 127 0" result="hardAlpha"/>
<feOffset dy="1.37795"/>
<feGaussianBlur stdDeviation="4.13384"/>
<feColorMatrix type="matrix" values="0 0 0 0 0.89625 0 0 0 0 0.930414 0 0 0 0 0.995833 0 0 0 0.5 0"/>
<feBlend mode="normal" in2="effect1_dropShadow_956_73460" result="effect2_dropShadow_956_73460"/>
<feBlend mode="normal" in="SourceGraphic" in2="effect2_dropShadow_956_73460" result="shape"/>
</filter>
</defs>
</svg>
