<svg xmlns="http://www.w3.org/2000/svg" width="580" height="536" viewBox="0 0 580 536" fill="none"><circle cx="292.368" cy="265.493" r="224.493" fill="#F5F8FF"></circle><path d="M197.988 67.8649C197.988 57.0346 206.731 48.2549 217.516 48.2549H386.432C397.217 48.2549 405.96 57.0346 405.96 67.8649V461.046C405.96 471.876 397.217 480.656 386.432 480.656H217.516C206.731 480.656 197.988 471.876 197.988 461.046V67.8649Z" fill="#091B36"></path><path d="M202.48 64.6345C202.48 58.895 207.145 54.2422 212.899 54.2422H391.056C396.81 54.2422 401.475 58.895 401.475 64.6345V465.778C401.475 471.517 396.81 476.17 391.056 476.17H212.899C207.145 476.17 202.48 471.517 202.48 465.778V64.6345Z" fill="white"></path><path fill-rule="evenodd" clip-rule="evenodd" d="M211.961 45.2646H390.491C401.489 45.2646 410.449 54.1253 410.449 65.1086V465.303C410.449 476.286 401.49 485.147 390.491 485.147H211.961C200.963 485.147 192.004 476.286 192.004 465.303V65.1086C192.004 54.1253 200.963 45.2646 211.961 45.2646ZM211.961 54.7409C206.195 54.7409 201.521 59.3827 201.521 65.1086V465.303C201.521 471.029 206.195 475.671 211.961 475.671H390.491C396.257 475.671 400.931 471.029 400.931 465.303V65.1086C400.931 59.3827 396.257 54.7409 390.491 54.7409H211.961Z" fill="#091B36"></path><path d="M193.504 99.0844C193.504 97.4554 194.844 96.1348 196.496 96.1348V130.547C194.844 130.547 193.504 129.227 193.504 127.598V99.0844Z" fill="#091B36"></path><path d="M408.957 139.566C408.957 141.195 407.617 142.516 405.965 142.516L405.965 108.103C407.617 108.103 408.957 109.424 408.957 111.053L408.957 139.566Z" fill="#091B36"></path><path d="M193.504 139.481C193.504 137.852 194.844 136.531 196.496 136.531V170.944C194.844 170.944 193.504 169.623 193.504 167.994V139.481Z" fill="#091B36"></path><path d="M262.332 49.7529H343.127L342.326 61.093C341.885 67.3489 336.74 72.1959 330.542 72.1959H274.916C268.718 72.1959 263.574 67.3489 263.133 61.093L262.332 49.7529Z" fill="#091B36"></path><path opacity="0.3" d="M280.273 60.2276C280.273 59.4013 281.146 58.7314 282.222 58.7314H320.218C321.295 58.7314 322.167 59.4013 322.167 60.2276C322.167 61.054 321.295 61.7238 320.218 61.7238H282.222C281.146 61.7238 280.273 61.054 280.273 60.2276Z" fill="#FFFEFE"></path><rect x="438.145" y="435.563" width="60.4359" height="60.4359" rx="30.2179" fill="#76A5FF"></rect><path d="M460.635 461.012H456.268C455.785 461.012 455.321 461.204 454.979 461.546C454.637 461.887 454.445 462.351 454.445 462.834V474.415C454.448 474.897 454.641 475.359 454.982 475.698C455.324 476.038 455.786 476.229 456.268 476.229H460.635C461.118 476.229 461.582 476.037 461.924 475.695C462.265 475.354 462.457 474.89 462.457 474.407V462.834C462.457 462.351 462.265 461.887 461.924 461.546C461.582 461.204 461.118 461.012 460.635 461.012ZM460.069 475.145C459.862 475.145 459.66 475.084 459.489 474.969C459.317 474.855 459.183 474.692 459.104 474.501C459.025 474.31 459.004 474.1 459.044 473.897C459.085 473.695 459.184 473.509 459.33 473.363C459.476 473.217 459.662 473.117 459.865 473.077C460.068 473.037 460.278 473.057 460.468 473.136C460.659 473.215 460.822 473.349 460.937 473.521C461.052 473.693 461.113 473.895 461.113 474.101C461.112 474.378 461.002 474.644 460.805 474.84C460.609 475.035 460.343 475.145 460.066 475.145H460.069Z" fill="white"></path><path d="M479.565 469.004V469.089H479.908C480.282 469.09 480.648 469.202 480.959 469.41C481.271 469.619 481.513 469.914 481.657 470.26C481.801 470.606 481.84 470.986 481.768 471.354C481.697 471.722 481.518 472.06 481.255 472.327C480.897 472.684 480.414 472.887 479.908 472.893H479.565V472.989C479.976 473.019 480.359 473.202 480.639 473.504C480.92 473.805 481.075 474.201 481.075 474.612C481.075 475.023 480.92 475.419 480.639 475.72C480.359 476.021 479.976 476.205 479.565 476.235C479.528 476.239 479.49 476.239 479.452 476.235H466.909C466.196 476.236 465.511 475.953 465.006 475.45C464.501 474.946 464.216 474.263 464.215 473.549V463.304C464.215 461.702 466.286 458.363 467.611 456.877C467.908 456.554 468.134 456.173 468.276 455.758C468.418 455.343 468.473 454.903 468.437 454.466C468.324 453.051 468.418 451.038 469.852 450.905C472.094 450.699 473.933 454.585 472.872 457.505C472.433 458.691 472.074 459.566 471.788 460.171H479.996C480.594 460.175 481.168 460.41 481.598 460.827C482.027 461.243 482.28 461.809 482.303 462.407C482.327 463.005 482.119 463.589 481.723 464.037C481.327 464.486 480.773 464.765 480.177 464.815C480.723 464.83 481.242 465.058 481.623 465.449C482.004 465.841 482.217 466.366 482.217 466.913C482.213 467.467 481.99 467.997 481.598 468.387C481.205 468.778 480.674 468.999 480.12 469.001L479.565 469.004Z" fill="white"></path><rect x="40.6641" y="393.775" width="42.2529" height="42.2529" rx="21.1265" fill="#76A5FF"></rect><path d="M61.6651 425.307C57.0391 421.716 48.8156 417.355 52.1566 410.171C55.2338 404.014 61.6651 408.375 61.6651 410.685C61.6651 408.375 68.3455 404.014 71.43 410.171C74.7709 417.352 66.2896 421.713 61.6651 425.307Z" fill="white"></path><g opacity="0.8"><rect x="434.254" y="87.6475" width="25.5817" height="25.5817" rx="12.7908" fill="#76A5FF"></rect><path d="M446.97 106.739C444.169 104.564 439.19 101.924 441.213 97.5747C443.076 93.8469 446.97 96.4871 446.97 97.8855C446.97 96.4871 451.014 93.8469 452.882 97.5747C454.905 101.922 449.77 104.563 446.97 106.739Z" fill="white"></path></g><path d="M29 281.269C29 276.85 32.5817 273.269 37 273.269H146.34C150.758 273.269 154.34 276.85 154.34 281.269V296.604C154.34 301.022 150.758 304.604 146.34 304.604H37C32.5817 304.604 29 301.022 29 296.604V281.269Z" fill="#D2DCE4"></path><path d="M70.4961 289.358H123.427" stroke="white" stroke-width="7" stroke-linecap="round"></path><path d="M56.9464 286.547V284.161H53.9875L55.002 278.35H52.4376L51.3949 284.161H47.9005L48.915 278.35H46.3224L45.308 284.161H41.8418V286.547H44.8852L44.2089 290.506H40.8555V292.892H43.7862L42.7717 298.675H45.3643L46.3788 292.892H49.8732L48.8587 298.675H51.4512L52.4657 292.892H55.9883V290.506H52.8884L53.5648 286.547H56.9464ZM50.9722 286.547L50.2959 290.506H46.8015L47.4778 286.547H50.9722Z" fill="white"></path><path d="M459.586 179.04C459.586 174.622 463.168 171.04 467.586 171.04H536.858C541.276 171.04 544.858 174.622 544.858 179.04V184.358C544.858 188.776 541.276 192.358 536.858 192.358H467.586C463.168 192.358 459.586 188.776 459.586 184.358V179.04Z" fill="#D2DCE4"></path><path d="M487.82 181.987H523.831" stroke="white" stroke-width="4" stroke-linecap="round"></path><path d="M478.001 180.291V178.915H476.294L476.879 175.562H475.4L474.799 178.915H472.783L473.368 175.562H471.872L471.287 178.915H469.288V180.291H471.043L470.653 182.575H468.719V183.951H470.409L469.824 187.287H471.32L471.905 183.951H473.921L473.335 187.287H474.831L475.416 183.951H477.448V182.575H475.66L476.05 180.291H478.001ZM474.555 180.291L474.165 182.575H472.149L472.539 180.291H474.555Z" fill="white"></path><path d="M99.9414 55.2641C99.9414 51.1433 103.282 47.8027 107.403 47.8027H152.171C156.291 47.8027 159.632 51.1433 159.632 55.2641C159.632 59.3848 156.291 62.7254 152.171 62.7254H107.403C103.282 62.7254 99.9414 59.3848 99.9414 55.2641Z" fill="#D2DCE4"></path><path d="M119.707 55.4668H144.914" stroke="white" stroke-width="2" stroke-linecap="round"></path><path d="M112.83 54.2799V53.3163H111.635L112.044 50.9697H111.009L110.588 53.3163H109.177L109.587 50.9697H108.54L108.13 53.3163H106.73V54.2799H107.959L107.686 55.8783H106.332V56.8419H107.515L107.106 59.1772H108.153L108.562 56.8419H109.973L109.564 59.1772H110.611L111.02 56.8419H112.443V55.8783H111.191L111.464 54.2799H112.83ZM110.417 54.2799L110.144 55.8783H108.733L109.006 54.2799H110.417Z" fill="white"></path><rect x="51.3516" y="161.508" width="33.0423" height="33.0423" rx="16.5212" fill="#76A5FF"></rect><path d="M63.6418 175.422H61.2543C60.99 175.422 60.7365 175.527 60.5497 175.714C60.3628 175.901 60.2578 176.154 60.2578 176.418V182.75C60.259 183.013 60.3646 183.266 60.5513 183.452C60.738 183.637 60.9908 183.742 61.2543 183.742H63.6418C63.9061 183.742 64.1596 183.637 64.3464 183.45C64.5333 183.263 64.6383 183.01 64.6383 182.745V176.418C64.6383 176.154 64.5333 175.901 64.3464 175.714C64.1596 175.527 63.9061 175.422 63.6418 175.422ZM63.3323 183.149C63.2194 183.149 63.109 183.116 63.0151 183.053C62.9212 182.99 62.8481 182.901 62.8049 182.797C62.7616 182.692 62.7503 182.578 62.7723 182.467C62.7944 182.356 62.8488 182.254 62.9286 182.175C63.0085 182.095 63.1102 182.04 63.221 182.018C63.3317 181.996 63.4465 182.008 63.5508 182.051C63.6552 182.094 63.7443 182.167 63.8071 182.261C63.8698 182.355 63.9033 182.465 63.9033 182.578C63.9029 182.73 63.8424 182.875 63.7351 182.982C63.6277 183.089 63.4823 183.149 63.3308 183.149H63.3323Z" fill="white"></path><path d="M73.9903 179.791V179.837H74.1776C74.3823 179.838 74.5823 179.899 74.7524 180.013C74.9226 180.127 75.0553 180.289 75.134 180.478C75.2126 180.667 75.2337 180.875 75.1946 181.076C75.1555 181.277 75.0579 181.462 74.9141 181.608C74.7185 181.803 74.4541 181.914 74.1776 181.917H73.9903V181.97C74.2146 181.986 74.4244 182.086 74.5775 182.251C74.7307 182.416 74.8158 182.632 74.8158 182.857C74.8158 183.082 74.7307 183.298 74.5775 183.463C74.4244 183.628 74.2146 183.728 73.9903 183.744C73.9698 183.747 73.949 183.747 73.9284 183.744H67.0707C66.6807 183.745 66.3065 183.59 66.0303 183.315C65.7541 183.04 65.5985 182.666 65.5977 182.276V176.675C65.5977 175.799 66.7303 173.973 67.4544 173.161C67.6166 172.984 67.7404 172.776 67.8182 172.549C67.8959 172.322 67.9259 172.081 67.9063 171.842C67.8444 171.069 67.8954 169.969 68.6799 169.896C69.9054 169.783 70.9111 171.907 70.3309 173.504C70.0911 174.153 69.8946 174.631 69.7383 174.962H74.2255C74.5527 174.964 74.8664 175.093 75.1013 175.32C75.3363 175.548 75.4746 175.857 75.4873 176.184C75.5001 176.511 75.3863 176.83 75.1698 177.076C74.9533 177.321 74.6505 177.473 74.3245 177.501C74.6232 177.509 74.907 177.633 75.1154 177.848C75.3237 178.062 75.4403 178.349 75.4402 178.648C75.4377 178.95 75.316 179.24 75.1014 179.454C74.8868 179.668 74.5965 179.788 74.2936 179.79L73.9903 179.791Z" fill="white"></path><g filter="url(#filter0_dd_20779_70473)"><path d="M358.585 108.057H137.499C135.59 108.057 133.76 108.817 132.41 110.168C131.06 111.519 130.302 113.351 130.301 115.262V197.435C130.302 199.346 131.06 201.178 132.41 202.529C133.76 203.88 135.59 204.639 137.499 204.64H224.736L240.918 214.747L251.066 221.086C252.779 222.156 254.818 220.3 253.914 218.494L246.975 204.64H358.585C360.493 204.639 362.324 203.88 363.674 202.529C365.024 201.178 365.782 199.346 365.783 197.435V115.262C365.782 113.351 365.024 111.519 363.674 110.168C362.324 108.817 360.493 108.057 358.585 108.057Z" fill="white"></path></g><path d="M309.802 123.729H224.419C222.768 123.729 221.43 125.067 221.43 126.718C221.43 128.369 222.768 129.707 224.419 129.707H309.802C311.453 129.707 312.791 128.369 312.791 126.718C312.791 125.067 311.453 123.729 309.802 123.729Z" fill="#EDF1F6"></path><path d="M275.007 161.88H224.641C222.867 161.88 221.43 163.318 221.43 165.091C221.43 166.864 222.867 168.302 224.641 168.302H275.007C276.781 168.302 278.218 166.864 278.218 165.091C278.218 163.318 276.781 161.88 275.007 161.88Z" fill="#EDF1F6"></path><path d="M343.846 161.88H284.992C283.219 161.88 281.781 163.318 281.781 165.091C281.781 166.864 283.219 168.302 284.992 168.302H343.846C345.62 168.302 347.057 166.864 347.057 165.091C347.057 163.318 345.62 161.88 343.846 161.88Z" fill="#EDF1F6"></path><path d="M343.847 180.15H312.715C310.942 180.15 309.504 181.588 309.504 183.361C309.504 185.135 310.942 186.572 312.715 186.572H343.847C345.62 186.572 347.058 185.135 347.058 183.361C347.058 181.588 345.62 180.15 343.847 180.15Z" fill="#EDF1F6"></path><path d="M301.189 180.15H225.07C223.297 180.15 221.859 181.588 221.859 183.361C221.859 185.135 223.297 186.572 225.07 186.572H301.189C302.963 186.572 304.4 185.135 304.4 183.361C304.4 181.588 302.963 180.15 301.189 180.15Z" fill="#EDF1F6"></path><path d="M228.418 139.668C228.701 138.714 230.052 138.714 230.335 139.668L230.917 141.631C231.046 142.064 231.449 142.358 231.901 142.346L233.955 142.294C234.95 142.269 235.367 143.553 234.548 144.118L232.855 145.283C232.483 145.539 232.329 146.013 232.479 146.44L233.162 148.374C233.494 149.313 232.4 150.106 231.611 149.501L229.985 148.254C229.626 147.979 229.127 147.979 228.768 148.254L227.142 149.501C226.353 150.106 225.26 149.313 225.591 148.374L226.274 146.44C226.425 146.013 226.27 145.539 225.898 145.283L224.206 144.118C223.386 143.553 223.804 142.269 224.798 142.294L226.852 142.346C227.304 142.358 227.708 142.064 227.836 141.631L228.418 139.668Z" fill="#FECE4D"></path><path d="M249.213 139.666C249.495 138.711 250.847 138.711 251.13 139.665L251.714 141.631C251.842 142.065 252.246 142.358 252.698 142.346L254.751 142.294C255.745 142.269 256.162 143.553 255.343 144.117L253.651 145.283C253.279 145.539 253.125 146.013 253.275 146.439L253.959 148.377C254.289 149.315 253.196 150.108 252.407 149.503L250.779 148.254C250.42 147.979 249.921 147.979 249.562 148.254L247.938 149.501C247.149 150.106 246.055 149.313 246.386 148.375L247.069 146.439C247.219 146.013 247.065 145.539 246.693 145.283L245.001 144.117C244.182 143.553 244.599 142.269 245.593 142.294L247.646 142.346C248.098 142.358 248.502 142.064 248.63 141.631L249.213 139.666Z" fill="#FECE4D"></path><path d="M270.007 139.665C270.29 138.711 271.642 138.711 271.924 139.665L272.507 141.631C272.635 142.064 273.039 142.358 273.491 142.346L275.544 142.294C276.538 142.269 276.955 143.553 276.136 144.117L274.445 145.283C274.072 145.539 273.918 146.013 274.069 146.439L274.752 148.374C275.083 149.313 273.99 150.106 273.201 149.501L271.575 148.254C271.216 147.979 270.717 147.979 270.358 148.254L268.731 149.501C267.941 150.106 266.848 149.312 267.18 148.374L267.863 146.44C268.014 146.014 267.86 145.539 267.488 145.283L265.795 144.118C264.976 143.554 265.393 142.269 266.388 142.294L268.439 142.346C268.891 142.358 269.295 142.065 269.423 141.631L270.007 139.665Z" fill="#FECE4D"></path><path d="M290.806 139.662C291.089 138.709 292.44 138.709 292.723 139.662L293.307 141.631C293.436 142.065 293.84 142.358 294.291 142.346L296.342 142.294C297.336 142.269 297.753 143.553 296.934 144.118L295.242 145.283C294.87 145.539 294.716 146.013 294.867 146.439L295.55 148.374C295.881 149.313 294.788 150.106 293.998 149.501L292.373 148.254C292.014 147.979 291.515 147.979 291.156 148.254L289.529 149.501C288.739 150.106 287.646 149.312 287.977 148.374L288.661 146.44C288.812 146.013 288.658 145.539 288.286 145.283L286.594 144.118C285.775 143.553 286.193 142.269 287.187 142.294L289.237 142.346C289.689 142.358 290.092 142.065 290.221 141.631L290.806 139.662Z" fill="#FECE4D"></path><path d="M311.612 139.665C311.896 138.711 313.247 138.711 313.53 139.665L314.112 141.631C314.241 142.064 314.644 142.358 315.096 142.346L317.149 142.294C318.143 142.269 318.561 143.553 317.742 144.117L316.05 145.283C315.678 145.539 315.524 146.013 315.674 146.439L316.358 148.374C316.689 149.313 315.596 150.106 314.806 149.501L313.18 148.254C312.821 147.979 312.322 147.979 311.963 148.254L310.336 149.501C309.546 150.106 308.453 149.312 308.785 148.374L309.469 146.44C309.62 146.014 309.466 145.539 309.093 145.283L307.401 144.118C306.582 143.554 306.999 142.269 307.993 142.294L310.045 142.346C310.497 142.358 310.9 142.065 311.029 141.631L311.612 139.665Z" fill="#FECE4D"></path><mask id="mask0_20779_70473" style="mask-type:alpha" maskUnits="userSpaceOnUse" x="140" y="121" width="72" height="72"><circle cx="175.827" cy="157.349" r="35.4789" fill="#C4C4C4"></circle></mask><g mask="url(#mask0_20779_70473)"><path d="M174.922 194.096C194.947 194.096 211.181 177.866 211.181 157.844C211.181 137.822 194.947 121.592 174.922 121.592C154.897 121.592 138.664 137.822 138.664 157.844C138.664 177.866 154.897 194.096 174.922 194.096Z" fill="#5D5FEF"></path><path d="M161.991 183.058C165.279 183.058 167.944 179.202 167.944 174.444C167.944 169.687 165.279 165.83 161.991 165.83C158.704 165.83 156.039 169.687 156.039 174.444C156.039 179.202 158.704 183.058 161.991 183.058Z" fill="#FEB79C"></path><path d="M157.815 188.627L194.316 186.59C194.316 186.59 199.885 171.379 198.634 170.37C197.363 169.361 176.318 158.205 176.318 158.205L155.777 158.709L157.815 188.627Z" fill="#2C2D00"></path><path d="M176.565 224.113C190.282 224.113 201.403 214.016 201.403 201.559C201.403 189.103 190.282 179.005 176.565 179.005C162.847 179.005 151.727 189.103 151.727 201.559C151.727 214.016 162.847 224.113 176.565 224.113Z" fill="#9FC0FF"></path><path d="M175.32 186.351C172.354 186.351 169.918 184.488 169.838 182.169L169.494 171.509C169.415 169.149 171.825 167.162 174.844 167.121C177.889 167.079 180.405 168.942 180.458 171.302L180.802 181.962C180.882 184.322 178.472 186.309 175.453 186.351C175.426 186.351 175.373 186.351 175.32 186.351Z" fill="#FEB79C"></path><path d="M174.94 166.717C172.983 166.758 171.368 168.17 170.965 170.006L171.126 176.32C171.187 178.6 173.043 180.395 175.303 180.395C175.343 180.395 175.363 180.395 175.404 180.395C177.361 180.355 178.975 178.943 179.379 177.107L179.217 170.792C179.157 168.472 177.26 166.657 174.94 166.717Z" fill="#FAA887"></path><path d="M187.975 155.684C187.975 165.126 180.368 175.838 174.093 175.838C169.331 175.838 160.211 165.146 160.211 155.684C160.211 146.243 166.426 138.577 174.093 138.577C181.76 138.577 187.975 146.243 187.975 155.684Z" fill="#FEB79C"></path><path d="M167.616 141.985C166.325 142.126 164.932 143.094 163.56 144.527C161.462 147.512 160.211 151.406 160.211 155.683C160.211 160.867 162.955 166.415 166.224 170.389C164.731 167.303 164.045 164.196 165.921 160.444C167.616 157.034 170.098 149.409 170.098 149.409C170.098 149.409 172.761 141.42 167.616 141.985Z" fill="#FAA887"></path><path d="M174.099 138.577C169.297 138.577 165.08 141.583 162.578 146.142C163.849 148.846 168.006 155.806 177.711 157.783C185.459 159.356 180.838 166.598 180.717 172.489C184.733 168.576 187.981 161.858 187.981 155.684C187.981 146.243 181.767 138.577 174.099 138.577Z" fill="#FAA887"></path><path d="M163.65 143.518C163.65 143.518 167.12 153.787 179.247 156.248C188.569 158.144 180.013 168.231 182.858 174.303C184.977 178.822 189.698 177.733 186.087 182.292C182.475 186.852 185.32 202.244 196.155 198.835C206.99 195.405 208.705 177.35 204.529 169.946C200.352 162.522 194.823 160.061 194.259 153.222C193.694 146.383 188.548 135.55 177.915 134.783C171.176 134.299 161.935 133.633 163.65 143.518Z" fill="#2E2F06"></path><path d="M167.822 147.693C167.822 147.693 165.341 155.318 163.646 158.728C160.801 164.437 163.827 168.613 166.693 173.556C168.791 177.187 166.148 182.028 164.594 184.389C161.749 188.767 159.267 189.715 162.496 193.124C165.724 196.554 147.282 209.283 145.385 197.683C143.489 186.083 148.997 182.089 151.661 176.763C154.324 171.437 148.816 171.639 152.044 160.039C153.719 154.048 160.216 140.834 165.361 140.269C170.486 139.704 167.822 147.693 167.822 147.693Z" fill="#2E2F06"></path></g><g filter="url(#filter1_dd_20779_70473)"><path d="M279.595 226.923H500.68C502.589 226.924 504.42 227.683 505.77 229.034C507.119 230.385 507.878 232.217 507.879 234.128V316.301C507.878 318.212 507.119 320.044 505.77 321.395C504.42 322.746 502.589 323.505 500.68 323.506H376.355L350.026 339.952C348.312 341.022 346.273 339.167 347.178 337.36L354.117 323.506H279.595C277.686 323.505 275.856 322.746 274.506 321.395C273.156 320.044 272.397 318.212 272.397 316.301V234.128C272.397 232.217 273.156 230.385 274.506 229.034C275.856 227.683 277.686 226.924 279.595 226.923Z" fill="white"></path></g><path d="M417.105 280.746H366.738C364.965 280.746 363.527 282.184 363.527 283.957C363.527 285.731 364.965 287.168 366.738 287.168H417.105C418.878 287.168 420.316 285.731 420.316 283.957C420.316 282.184 418.878 280.746 417.105 280.746Z" fill="#EDF1F6"></path><path d="M452.61 243.878H366.581C364.847 243.878 363.441 245.284 363.441 247.018C363.441 248.752 364.847 250.157 366.581 250.157H452.61C454.344 250.157 455.749 248.752 455.749 247.018C455.749 245.284 454.344 243.878 452.61 243.878Z" fill="#EDF1F6"></path><path d="M485.948 280.746H427.094C425.32 280.746 423.883 282.184 423.883 283.957C423.883 285.731 425.32 287.168 427.094 287.168H485.948C487.721 287.168 489.159 285.731 489.159 283.957C489.159 282.184 487.721 280.746 485.948 280.746Z" fill="#EDF1F6"></path><path d="M485.944 299.017H454.813C453.039 299.017 451.602 300.454 451.602 302.228C451.602 304.001 453.039 305.439 454.813 305.439H485.944C487.718 305.439 489.155 304.001 489.155 302.228C489.155 300.454 487.718 299.017 485.944 299.017Z" fill="#EDF1F6"></path><path d="M443.283 299.017H367.164C365.391 299.017 363.953 300.454 363.953 302.228C363.953 304.001 365.391 305.439 367.164 305.439H443.283C445.056 305.439 446.494 304.001 446.494 302.228C446.494 300.454 445.056 299.017 443.283 299.017Z" fill="#EDF1F6"></path><path d="M370.504 258.533C370.787 257.579 372.138 257.579 372.421 258.533L373.003 260.496C373.132 260.93 373.535 261.223 373.987 261.212L376.041 261.16C377.036 261.134 377.453 262.419 376.634 262.983L374.941 264.148C374.569 264.405 374.415 264.879 374.565 265.305L375.248 267.24C375.579 268.178 374.486 268.972 373.697 268.366L372.071 267.119C371.712 266.844 371.213 266.844 370.854 267.119L369.228 268.366C368.439 268.972 367.346 268.178 367.677 267.24L368.36 265.305C368.51 264.879 368.356 264.405 367.984 264.148L366.291 262.983C365.472 262.419 365.889 261.134 366.884 261.16L368.938 261.212C369.39 261.223 369.793 260.93 369.922 260.496L370.504 258.533Z" fill="#FECE4D"></path><path d="M391.299 258.531C391.581 257.577 392.933 257.576 393.216 258.53L393.8 260.496C393.928 260.93 394.332 261.223 394.784 261.212L396.837 261.16C397.831 261.134 398.248 262.418 397.429 262.983L395.737 264.148C395.365 264.405 395.211 264.878 395.361 265.304L396.044 267.242C396.375 268.18 395.282 268.973 394.493 268.368L392.865 267.12C392.506 266.844 392.007 266.844 391.648 267.12L390.024 268.366C389.235 268.972 388.141 268.178 388.472 267.24L389.154 265.304C389.305 264.878 389.151 264.405 388.779 264.148L387.087 262.983C386.267 262.418 386.685 261.134 387.679 261.16L389.732 261.212C390.184 261.223 390.587 260.93 390.716 260.496L391.299 258.531Z" fill="#FECE4D"></path><path d="M412.093 258.53C412.376 257.576 413.727 257.577 414.01 258.531L414.593 260.496C414.721 260.93 415.125 261.223 415.577 261.212L417.63 261.16C418.624 261.134 419.041 262.418 418.222 262.983L416.53 264.148C416.158 264.405 416.004 264.879 416.155 265.305L416.838 267.24C417.169 268.178 416.076 268.972 415.287 268.366L413.661 267.119C413.302 266.844 412.803 266.844 412.444 267.119L410.817 268.366C410.027 268.972 408.934 268.177 409.266 267.239L409.949 265.305C410.1 264.879 409.946 264.404 409.574 264.148L407.881 262.983C407.062 262.419 407.479 261.134 408.474 261.16L410.525 261.212C410.977 261.223 411.381 260.93 411.509 260.496L412.093 258.53Z" fill="#FECE4D"></path><path d="M432.892 258.528C433.175 257.574 434.526 257.574 434.809 258.528L435.393 260.496C435.522 260.93 435.925 261.223 436.377 261.212L438.427 261.16C439.422 261.134 439.839 262.418 439.02 262.983L437.328 264.148C436.956 264.405 436.802 264.879 436.953 265.305L437.636 267.24C437.967 268.178 436.874 268.972 436.084 268.366L434.459 267.119C434.1 266.844 433.601 266.844 433.242 267.119L431.615 268.366C430.825 268.972 429.732 268.177 430.063 267.239L430.747 265.305C430.898 264.879 430.744 264.404 430.372 264.148L428.68 262.983C427.861 262.418 428.279 261.134 429.273 261.16L431.323 261.212C431.775 261.223 432.178 260.93 432.307 260.496L432.892 258.528Z" fill="#FECE4D"></path><path d="M453.698 258.53C453.982 257.576 455.333 257.577 455.616 258.531L456.198 260.496C456.327 260.93 456.73 261.223 457.182 261.212L459.235 261.16C460.229 261.134 460.647 262.418 459.828 262.983L458.136 264.148C457.764 264.405 457.61 264.879 457.76 265.305L458.443 267.24C458.775 268.178 457.682 268.972 456.892 268.366L455.266 267.119C454.907 266.844 454.408 266.844 454.049 267.119L452.422 268.366C451.632 268.972 450.539 268.177 450.871 267.239L451.555 265.305C451.706 264.879 451.552 264.404 451.179 264.148L449.487 262.983C448.668 262.419 449.085 261.134 450.079 261.16L452.131 261.212C452.583 261.223 452.986 260.93 453.115 260.496L453.698 258.53Z" fill="#FECE4D"></path><mask id="mask1_20779_70473" style="mask-type:alpha" maskUnits="userSpaceOnUse" x="283" y="241" width="71" height="71"><ellipse cx="318.479" cy="276.441" rx="35.3772" ry="35.3772" fill="#C4C4C4"></ellipse></mask><g mask="url(#mask1_20779_70473)"><ellipse cx="319.9" cy="275.679" rx="36.8261" ry="36.8261" fill="#FECE4D"></ellipse><path d="M303.476 281.266C303.567 281.078 303.46 280.842 303.263 280.785C302.436 280.541 301.821 280.011 301.682 279.335C301.591 278.886 301.723 278.43 302.018 278.039C302.091 277.941 302.1 277.794 302.05 277.68C301.354 277.623 300.764 277.134 300.673 276.491C300.624 276.165 300.714 275.847 300.895 275.594C300.887 275.57 300.878 275.545 300.87 275.521C300.846 275.431 300.805 275.342 300.723 275.309C298.87 274.551 297.19 269.393 301.608 266.761C301.796 266.647 301.813 266.353 301.632 266.207C300.6 265.335 299.969 264.194 300.026 263.037C300.132 260.942 302.436 259.598 305.173 260.046C305.214 260.054 305.247 260.062 305.288 260.062C305.525 260.103 305.698 259.842 305.591 259.606C304.73 257.626 304.665 255.776 305.566 254.936C306.419 254.138 307.927 254.448 309.46 255.572C309.656 255.719 309.91 255.597 309.927 255.344C310.009 253.926 310.574 252.883 311.345 252.883C311.853 252.883 312.345 253.356 312.697 254.081C312.82 254.342 313.156 254.342 313.246 254.089C314.238 251.424 316.066 249.852 317.549 250.512C318.393 250.886 318.959 251.897 319.196 253.233C319.246 253.519 319.582 253.616 319.737 253.396C320.975 251.652 322.885 250.903 324.639 251.685C325.893 252.239 326.819 253.462 327.286 254.961C327.335 255.116 327.466 255.214 327.606 255.214C328.401 255.189 329.237 255.352 330.064 255.719C332.867 256.957 334.589 260.144 334.195 263.118C334.162 263.338 334.343 263.542 334.548 263.517C335.916 263.395 337.203 264.096 337.646 265.335C338.047 266.443 337.654 267.673 336.761 268.496C336.564 268.676 336.679 269.051 336.949 269.083C338.129 269.254 339.096 269.988 339.301 271.006C339.531 272.147 338.728 273.272 337.433 273.728C337.203 273.81 337.162 274.144 337.367 274.315C338.301 275.089 338.826 275.953 338.613 276.507C338.408 277.045 337.572 277.134 336.523 276.817C336.285 276.743 336.088 276.996 336.179 277.248C336.572 278.267 336.539 279.269 336.023 279.864C335.548 280.402 334.769 280.475 333.958 280.158C333.753 280.076 333.54 280.247 333.564 280.484C333.695 281.747 333.277 282.855 332.417 283.246C331.736 283.556 330.925 283.336 330.22 282.757C330.105 282.668 329.958 282.668 329.851 282.757C328.384 284.061 326.647 285.12 324.688 285.854C322.221 286.775 320.008 286.995 317.598 286.726C317.393 286.701 317.238 286.897 317.279 287.117C317.656 288.991 316.516 290.083 314.861 290.352C314.279 290.45 313.394 290.165 313.107 289.765C313.066 289.7 312.812 289.57 312.566 289.831C311.509 290.906 309.443 289.765 309.058 287.891C308.968 287.459 308.96 287.035 309.009 286.636C309.033 286.424 308.722 286.009 308.263 286.31C308.091 286.424 307.861 286.457 307.632 286.498C305.984 286.791 303.583 285.463 303.198 283.588C303.05 282.725 303.165 281.926 303.476 281.266Z" fill="#4F381D"></path><path d="M338.776 351.103C345.407 331.48 354.529 317.252 349.743 309.339C345.161 301.761 343.718 301.932 340.202 301.378C327.466 299.365 326.63 294.337 319.368 294.565C319.229 294.573 318.344 294.565 318.188 294.565C310.975 294.361 308.131 299.74 297.403 301.378C293.887 301.916 292.452 301.761 287.862 309.339C283.076 317.252 292.198 331.48 298.821 351.103C302.361 361.574 296.69 371.541 294.829 375.199C292.78 379.241 291.854 378.818 292.174 381.694C292.682 386.25 304.894 389.729 317.065 389.607C317.639 389.599 320.196 389.607 320.901 389.607C332.941 389.648 344.907 386.192 345.415 381.694C345.735 378.818 344.817 379.241 342.76 375.199C340.907 371.541 335.244 361.566 338.776 351.103Z" fill="#3D7FFC"></path><path d="M327.522 299.364C326.793 288.233 326.735 278.992 323.613 280.361C322.522 280.842 315.072 280.842 313.99 280.361C310.868 278.992 310.753 286.994 310.081 299.364C309.983 301.222 312.523 305.802 318.801 305.802C324.801 305.802 327.645 301.231 327.522 299.364Z" fill="#E79473"></path><path d="M328.708 268.682C327.611 263.877 323.357 261.126 318.699 261.23C314.042 261.126 309.787 263.877 308.69 268.682C307.955 271.898 307.739 289.262 312.376 294.66C313.299 295.735 316.464 298.943 318.671 298.943C321.163 298.943 324.134 295.775 325.015 294.66C328.784 289.888 328.507 283.8 328.972 279.397C329.499 274.352 329.437 271.898 328.708 268.682Z" fill="#D78361"></path><path d="M330.499 266.117C329.204 261.236 324.179 258.441 318.68 258.547C313.18 258.441 308.156 261.236 306.861 266.117C305.992 269.385 305.738 287.028 311.213 292.512C312.303 293.604 316.041 296.863 318.647 296.863C321.589 296.863 325.097 293.645 326.138 292.512C330.589 287.663 330.261 281.478 330.81 277.004C331.433 271.879 331.359 269.385 330.499 266.117Z" fill="#E79473"></path><path d="M304.975 264.023C304.852 263.599 304.762 263.143 304.729 262.678C304.532 259.948 306.073 257.618 308.179 257.471C309.253 257.397 310.269 257.911 311.024 258.791C311.737 258.4 312.63 258.131 313.622 258.058C314.695 257.984 315.703 258.147 316.498 258.498C316.859 256.501 318.179 254.985 319.859 254.871C321.859 254.725 323.637 256.607 323.973 259.141C324.719 258.693 325.662 258.392 326.711 258.318C329.153 258.147 331.235 259.264 331.522 260.853C332.841 261.57 333.833 263.183 333.972 265.131C334.054 266.28 333.833 267.356 333.382 268.228C334.251 268.415 334.923 269.083 334.981 269.939C335.054 270.99 334.169 271.911 333.005 271.992C332.85 272 332.702 272 332.563 271.984C332.481 272.408 332.341 272.848 332.137 273.264C331.137 275.317 329.03 276.352 327.424 275.586C326.145 274.967 325.58 273.378 325.916 271.715C325.055 272.123 324.113 272.269 323.17 272.074C321.629 271.756 320.441 270.615 319.834 269.083C319.506 269.344 319.113 269.466 318.72 269.393C318.277 269.311 317.916 268.985 317.711 268.537C317.072 268.953 316.326 269.222 315.507 269.279C314.007 269.385 312.63 268.765 311.712 267.73C311.72 267.779 311.728 267.836 311.728 267.885C311.917 270.501 310.032 272.766 307.516 272.946C304.999 273.125 302.811 271.153 302.623 268.537C302.483 266.606 303.459 264.886 304.975 264.023Z" fill="#4F381D"></path></g><g filter="url(#filter2_dd_20779_70473)"><path d="M358.577 351.789H137.491C135.583 351.79 133.752 352.549 132.402 353.9C131.052 355.251 130.294 357.083 130.293 358.994V441.168C130.294 443.078 131.052 444.91 132.402 446.261C133.752 447.612 135.583 448.372 137.491 448.372H224.729L240.91 458.48L251.058 464.818C252.771 465.889 254.81 464.033 253.906 462.226L246.967 448.372H358.577C360.486 448.372 362.316 447.612 363.666 446.261C365.016 444.91 365.774 443.078 365.775 441.168V358.994C365.774 357.083 365.016 355.251 363.666 353.9C362.316 352.549 360.486 351.79 358.577 351.789Z" fill="white"></path></g><path d="M309.794 367.461H224.411C222.76 367.461 221.422 368.799 221.422 370.45C221.422 372.101 222.76 373.439 224.411 373.439H309.794C311.445 373.439 312.783 372.101 312.783 370.45C312.783 368.799 311.445 367.461 309.794 367.461Z" fill="#EDF1F6"></path><path d="M274.999 405.612H224.633C222.86 405.612 221.422 407.05 221.422 408.823C221.422 410.597 222.86 412.034 224.633 412.034H274.999C276.773 412.034 278.21 410.597 278.21 408.823C278.21 407.05 276.773 405.612 274.999 405.612Z" fill="#EDF1F6"></path><path d="M343.838 405.612H284.984C283.211 405.612 281.773 407.05 281.773 408.823C281.773 410.597 283.211 412.034 284.984 412.034H343.838C345.612 412.034 347.05 410.597 347.05 408.823C347.05 407.05 345.612 405.612 343.838 405.612Z" fill="#EDF1F6"></path><path d="M343.839 423.883H312.707C310.934 423.883 309.496 425.32 309.496 427.094C309.496 428.867 310.934 430.305 312.707 430.305H343.839C345.612 430.305 347.05 428.867 347.05 427.094C347.05 425.32 345.612 423.883 343.839 423.883Z" fill="#EDF1F6"></path><path d="M301.181 423.883H225.063C223.289 423.883 221.852 425.32 221.852 427.094C221.852 428.867 223.289 430.305 225.063 430.305H301.181C302.955 430.305 304.392 428.867 304.392 427.094C304.392 425.32 302.955 423.883 301.181 423.883Z" fill="#EDF1F6"></path><path d="M228.41 383.401C228.693 382.446 230.045 382.446 230.328 383.401L230.909 385.363C231.038 385.797 231.441 386.09 231.893 386.079L233.947 386.027C234.942 386.002 235.359 387.286 234.54 387.85L232.847 389.015C232.475 389.272 232.321 389.746 232.471 390.172L233.154 392.107C233.486 393.045 232.392 393.839 231.603 393.233L229.977 391.987C229.618 391.711 229.119 391.711 228.76 391.987L227.135 393.233C226.345 393.839 225.252 393.045 225.583 392.107L226.266 390.172C226.417 389.746 226.263 389.272 225.89 389.015L224.198 387.85C223.378 387.286 223.796 386.002 224.79 386.027L226.844 386.079C227.296 386.09 227.7 385.797 227.828 385.363L228.41 383.401Z" fill="#FECE4D"></path><path d="M249.205 383.398C249.488 382.444 250.839 382.443 251.122 383.397L251.706 385.364C251.835 385.797 252.238 386.09 252.69 386.079L254.743 386.027C255.737 386.002 256.155 387.286 255.336 387.85L253.643 389.016C253.271 389.272 253.117 389.746 253.268 390.172L253.951 392.109C254.282 393.047 253.188 393.84 252.399 393.235L250.771 391.987C250.412 391.711 249.913 391.711 249.554 391.987L247.93 393.233C247.141 393.839 246.047 393.046 246.378 392.107L247.061 390.172C247.211 389.746 247.057 389.272 246.685 389.016L244.993 387.85C244.174 387.286 244.591 386.002 245.585 386.027L247.638 386.079C248.09 386.09 248.494 385.797 248.622 385.363L249.205 383.398Z" fill="#FECE4D"></path><path d="M269.999 383.397C270.282 382.443 271.634 382.444 271.917 383.398L272.499 385.363C272.628 385.797 273.031 386.09 273.483 386.079L275.536 386.027C276.53 386.002 276.948 387.286 276.129 387.85L274.437 389.015C274.065 389.272 273.911 389.746 274.061 390.172L274.744 392.107C275.076 393.045 273.982 393.839 273.193 393.233L271.567 391.986C271.208 391.711 270.709 391.711 270.35 391.986L268.723 393.233C267.933 393.839 266.84 393.045 267.172 392.106L267.856 390.172C268.006 389.746 267.852 389.272 267.48 389.015L265.788 387.85C264.968 387.286 265.386 386.002 266.38 386.027L268.431 386.079C268.883 386.09 269.287 385.797 269.415 385.364L269.999 383.397Z" fill="#FECE4D"></path><path d="M290.798 383.395C291.081 382.441 292.432 382.441 292.715 383.395L293.3 385.364C293.428 385.797 293.832 386.09 294.284 386.079L296.334 386.027C297.328 386.002 297.745 387.286 296.926 387.85L295.235 389.015C294.863 389.272 294.709 389.746 294.859 390.172L295.542 392.107C295.873 393.045 294.78 393.839 293.991 393.233L292.365 391.986C292.006 391.711 291.507 391.711 291.148 391.986L289.521 393.233C288.731 393.839 287.638 393.045 287.97 392.106L288.654 390.172C288.804 389.746 288.65 389.272 288.278 389.015L286.587 387.85C285.768 387.286 286.185 386.002 287.179 386.027L289.229 386.079C289.681 386.09 290.085 385.797 290.213 385.364L290.798 383.395Z" fill="#FECE4D"></path><path d="M311.605 383.397C311.888 382.443 313.239 382.444 313.522 383.398L314.105 385.363C314.233 385.797 314.637 386.09 315.089 386.079L317.141 386.027C318.136 386.002 318.553 387.286 317.734 387.85L316.042 389.015C315.67 389.272 315.516 389.746 315.667 390.172L316.35 392.107C316.681 393.045 315.588 393.839 314.798 393.233L313.172 391.986C312.814 391.711 312.315 391.711 311.956 391.986L310.328 393.233C309.539 393.839 308.446 393.045 308.777 392.106L309.461 390.172C309.612 389.746 309.458 389.272 309.085 389.015L307.393 387.85C306.574 387.286 306.991 386.002 307.986 386.027L310.037 386.079C310.489 386.09 310.892 385.797 311.021 385.364L311.605 383.397Z" fill="#FECE4D"></path><mask id="mask2_20779_70473" style="mask-type:alpha" maskUnits="userSpaceOnUse" x="140" y="364" width="72" height="72"><circle cx="175.609" cy="400.381" r="35.4762" fill="#C4C4C4"></circle></mask><g mask="url(#mask2_20779_70473)"><circle cx="175.714" cy="400.484" r="34.5426" fill="#F178B6"></circle><path d="M199.998 425.993C199.86 421.407 196.214 419.271 197.419 414.954C198.517 411.005 199.706 409.845 199.284 406.803C198.923 404.129 196.744 402.839 195.877 398.191C195.217 394.649 197.473 392.198 195.24 386.974C189.822 374.245 182.992 372.501 173.775 373.046C169.27 373.315 168.556 375.236 167.374 375.697C166.123 376.181 166.001 375.827 165.08 376.058C163 376.588 158.986 380.99 158.779 390.8C158.687 395.248 155.725 393.689 153.952 397.2C152.072 400.918 155.771 405.289 150.99 406.173C145.08 407.264 143.569 412.096 143.776 414.539C144.405 421.853 141.105 421.568 139.187 424.011C134.843 429.527 138.941 437.525 140.292 440.075C149.202 456.938 180.72 462.831 196.683 435.351C197.527 433.899 200.136 430.81 199.998 425.993Z" fill="#352F60"></path><path d="M194.381 463.484C200.152 446.291 208.087 433.822 203.92 426.893C199.929 420.255 198.701 420.217 195.616 419.917C183.698 418.742 183.805 414.931 177.482 415.123C177.359 415.123 176.592 415.123 176.453 415.123C170.176 414.947 170.253 418.742 158.365 419.917C155.28 420.224 154.052 420.255 150.061 426.893C145.894 433.822 153.83 446.291 159.601 463.484C162.678 472.657 157.743 481.399 156.132 484.603C154.344 488.145 153.546 487.768 153.822 490.296C154.267 494.283 164.896 497.333 175.486 497.233C175.985 497.225 178.211 497.233 178.825 497.233C189.308 497.271 199.722 494.244 200.159 490.296C200.436 487.776 199.638 488.152 197.849 484.603C196.238 481.399 191.303 472.665 194.381 463.484Z" fill="#C6DBFF"></path><path d="M183.968 417.342C182.886 406.026 182.709 397.368 179.831 398.643C178.826 399.089 177.89 399.634 176.999 400.372C176.109 399.634 175.173 399.089 174.168 398.643C171.29 397.368 171.113 406.034 170.031 417.342C169.862 419.063 172.449 426.531 176.999 426.531C181.075 426.531 184.129 419.063 183.968 417.342Z" fill="#FFCDBA"></path><path d="M170.672 409.937C170.634 410.413 174.11 415.122 176.965 415.122C180.257 415.122 183.358 410.413 183.319 409.944C182.076 411.158 179.643 413.202 176.965 413.202C174.586 413.194 171.961 411.15 170.672 409.937Z" fill="#EBB7A2"></path><path d="M189.03 383.785C187.71 379.099 182.599 376.41 176.989 376.518C171.387 376.41 166.268 379.099 164.948 383.785C164.065 386.92 163.989 389.317 164.626 394.241C165.178 398.536 165.731 405.012 170.274 409.667C171.341 410.758 174.303 413.317 176.958 413.317C179.951 413.317 182.637 410.758 183.704 409.667C188.239 405.012 188.8 398.528 189.352 394.241C189.989 389.317 189.912 386.927 189.03 383.785Z" fill="#FFCDBA"></path><path d="M192.273 388.157C192.472 383.095 189.333 376.28 184.445 376.403C183.57 376.426 183.094 376.726 182.856 377.133C181.797 376.265 179.472 374.79 176.87 374.79C174.346 374.79 172.143 376.25 171.13 377.118C170.884 376.726 170.416 376.426 169.549 376.403C164.661 376.28 161.522 383.095 161.721 388.157C161.813 390.562 161.33 393.32 162.466 393.865C164.883 395.033 167.254 390.631 168.927 386.298C168.782 388.48 168.835 390.293 168.981 391.261C169.073 391.876 169.426 392.229 170.24 392.298C170.24 392.298 172.25 392.675 176.663 392.613C176.771 392.613 177.216 392.613 177.323 392.613C181.736 392.675 183.747 392.298 183.747 392.298C184.56 392.229 184.913 391.876 185.005 391.261C185.151 390.301 185.212 388.488 185.059 386.298C186.732 390.631 189.103 395.033 191.521 393.865C192.656 393.32 192.173 390.562 192.273 388.157Z" fill="#352F60"></path></g><rect x="520.348" y="323.464" width="31.5011" height="31.5011" rx="15.7505" fill="#76A5FF"></rect><ellipse cx="536.336" cy="335.218" rx="3.76132" ry="3.76132" fill="white"></ellipse><path d="M529.754 345.958C529.754 342.883 532.247 340.391 535.322 340.391H537.351C540.426 340.391 542.919 342.883 542.919 345.958C542.919 346.778 542.254 347.443 541.434 347.443H531.239C530.419 347.443 529.754 346.778 529.754 345.958Z" fill="white"></path><defs><filter id="filter0_dd_20779_70473" x="118.301" y="98.0566" width="259.48" height="137.344" filterUnits="userSpaceOnUse" color-interpolation-filters="sRGB"><feFlood flood-opacity="0" result="BackgroundImageFix"></feFlood><feColorMatrix in="SourceAlpha" type="matrix" values="0 0 0 0 0 0 0 0 0 0 0 0 0 0 0 0 0 0 127 0" result="hardAlpha"></feColorMatrix><feOffset dy="4"></feOffset><feGaussianBlur stdDeviation="5"></feGaussianBlur><feColorMatrix type="matrix" values="0 0 0 0 0.607843 0 0 0 0 0.67451 0 0 0 0 0.737255 0 0 0 0.35 0"></feColorMatrix><feBlend mode="normal" in2="BackgroundImageFix" result="effect1_dropShadow_20779_70473"></feBlend><feColorMatrix in="SourceAlpha" type="matrix" values="0 0 0 0 0 0 0 0 0 0 0 0 0 0 0 0 0 0 127 0" result="hardAlpha"></feColorMatrix><feOffset dy="2"></feOffset><feGaussianBlur stdDeviation="6"></feGaussianBlur><feColorMatrix type="matrix" values="0 0 0 0 0.89625 0 0 0 0 0.930414 0 0 0 0 0.995833 0 0 0 1 0"></feColorMatrix><feBlend mode="normal" in2="effect1_dropShadow_20779_70473" result="effect2_dropShadow_20779_70473"></feBlend><feBlend mode="normal" in="SourceGraphic" in2="effect2_dropShadow_20779_70473" result="shape"></feBlend></filter><filter id="filter1_dd_20779_70473" x="260.398" y="216.923" width="259.48" height="137.344" filterUnits="userSpaceOnUse" color-interpolation-filters="sRGB"><feFlood flood-opacity="0" result="BackgroundImageFix"></feFlood><feColorMatrix in="SourceAlpha" type="matrix" values="0 0 0 0 0 0 0 0 0 0 0 0 0 0 0 0 0 0 127 0" result="hardAlpha"></feColorMatrix><feOffset dy="4"></feOffset><feGaussianBlur stdDeviation="5"></feGaussianBlur><feColorMatrix type="matrix" values="0 0 0 0 0.607843 0 0 0 0 0.67451 0 0 0 0 0.737255 0 0 0 0.35 0"></feColorMatrix><feBlend mode="normal" in2="BackgroundImageFix" result="effect1_dropShadow_20779_70473"></feBlend><feColorMatrix in="SourceAlpha" type="matrix" values="0 0 0 0 0 0 0 0 0 0 0 0 0 0 0 0 0 0 127 0" result="hardAlpha"></feColorMatrix><feOffset dy="2"></feOffset><feGaussianBlur stdDeviation="6"></feGaussianBlur><feColorMatrix type="matrix" values="0 0 0 0 0.89625 0 0 0 0 0.930414 0 0 0 0 0.995833 0 0 0 1 0"></feColorMatrix><feBlend mode="normal" in2="effect1_dropShadow_20779_70473" result="effect2_dropShadow_20779_70473"></feBlend><feBlend mode="normal" in="SourceGraphic" in2="effect2_dropShadow_20779_70473" result="shape"></feBlend></filter><filter id="filter2_dd_20779_70473" x="118.293" y="341.789" width="259.48" height="137.344" filterUnits="userSpaceOnUse" color-interpolation-filters="sRGB"><feFlood flood-opacity="0" result="BackgroundImageFix"></feFlood><feColorMatrix in="SourceAlpha" type="matrix" values="0 0 0 0 0 0 0 0 0 0 0 0 0 0 0 0 0 0 127 0" result="hardAlpha"></feColorMatrix><feOffset dy="4"></feOffset><feGaussianBlur stdDeviation="5"></feGaussianBlur><feColorMatrix type="matrix" values="0 0 0 0 0.607843 0 0 0 0 0.67451 0 0 0 0 0.737255 0 0 0 0.35 0"></feColorMatrix><feBlend mode="normal" in2="BackgroundImageFix" result="effect1_dropShadow_20779_70473"></feBlend><feColorMatrix in="SourceAlpha" type="matrix" values="0 0 0 0 0 0 0 0 0 0 0 0 0 0 0 0 0 0 127 0" result="hardAlpha"></feColorMatrix><feOffset dy="2"></feOffset><feGaussianBlur stdDeviation="6"></feGaussianBlur><feColorMatrix type="matrix" values="0 0 0 0 0.89625 0 0 0 0 0.930414 0 0 0 0 0.995833 0 0 0 1 0"></feColorMatrix><feBlend mode="normal" in2="effect1_dropShadow_20779_70473" result="effect2_dropShadow_20779_70473"></feBlend><feBlend mode="normal" in="SourceGraphic" in2="effect2_dropShadow_20779_70473" result="shape"></feBlend></filter></defs></svg>