<svg xmlns="http://www.w3.org/2000/svg" width="202" height="202" viewBox="0 0 202 202" fill="none"><circle cx="101.265" cy="109.265" r="73.265" fill="#F5F8FF"></circle><g clip-path="url(#clip0_12962_327943)"><path d="M116.023 154.716L114.052 139.8H89.0176L87.0469 154.716C86.6139 157.987 83.8215 160.438 80.5076 160.438C78.9258 160.438 77.6533 161.716 77.6533 163.286V165.419H125.408V163.286C125.408 161.708 124.127 160.438 122.554 160.438C119.249 160.438 116.447 157.996 116.014 154.716H116.023Z" fill="#9BACBC"></path><path d="M155.276 64H47.7244C43.4583 64 40 67.416 40 71.6298V139.37C40 143.584 43.4583 147 47.7244 147H155.276C159.542 147 163 143.584 163 139.37V71.6298C163 67.416 159.542 64 155.276 64Z" fill="#303B45"></path><path d="M40 140C40 144.416 43.4618 148 47.7272 148H155.273C159.538 148 163 144.416 163 140H40Z" fill="#D2DCE4"></path><path d="M155.084 71.0527H47.998V134.845H155.084V71.0527Z" fill="white"></path><path d="M149.851 76.5176H53.2373V130.057H149.851V76.5176Z" fill="#EDF1F6"></path><path d="M103.625 144.454C103.625 145.6 102.688 146.534 101.54 146.534C100.391 146.534 99.4541 145.6 99.4541 144.454C99.4541 143.308 100.391 142.373 101.54 142.373C102.688 142.373 103.625 143.308 103.625 144.454Z" fill="#303B45"></path><path d="M116.024 154.715L115.75 152.608H87.3302L87.0562 154.715C86.6232 157.986 83.8308 160.437 80.5169 160.437C80.1723 160.437 79.8542 160.508 79.5537 160.613H123.526C123.226 160.508 122.899 160.437 122.563 160.437C119.258 160.437 116.457 157.995 116.024 154.715Z" fill="#9BACBC"></path></g><g opacity="0.2"><path d="M69.6514 41.5657C69.6514 40.701 70.3529 40 71.2182 40H135.949C136.814 40 137.515 40.701 137.515 41.5657V85.9928C137.515 86.8576 136.814 87.5586 135.949 87.5586H71.2182C70.3529 87.5586 69.6514 86.8576 69.6514 85.9928V41.5657Z" fill="white"></path><path d="M69.6514 41.6862C69.6514 40.7549 70.3512 40 71.2146 40H135.775C136.638 40 137.338 40.7549 137.338 41.6862V45.8454H69.6514V41.6862Z" fill="#000C36"></path><path d="M76.337 42.9235C76.337 43.6098 75.7703 44.1761 75.0835 44.1761C74.3967 44.1761 73.8301 43.6098 73.8301 42.9235C73.8301 42.2371 74.3967 41.6709 75.0835 41.6709C75.7703 41.6709 76.337 42.2371 76.337 42.9235Z" fill="#F66058"></path><path d="M81.3507 42.9235C81.3507 43.6098 80.784 44.1761 80.0972 44.1761C79.4104 44.1761 78.8438 43.6098 78.8438 42.9235C78.8438 42.2371 79.4104 41.6709 80.0972 41.6709C80.8012 41.6709 81.3507 42.2371 81.3507 42.9235Z" fill="#F9BD2E"></path><path d="M86.3634 42.9235C86.3634 43.6098 85.7967 44.1761 85.1099 44.1761C84.4231 44.1761 83.8564 43.6098 83.8564 42.9235C83.8564 42.2371 84.4231 41.6709 85.1099 41.6709C85.7967 41.6709 86.3634 42.2371 86.3634 42.9235Z" fill="#3CC840"></path><path d="M69.6514 45.5486H137.515V55.4129H69.6514V45.5486Z" fill="#EDF1F6"></path><path d="M75.8213 59.7295H131.346V82.5406H75.8213V59.7295Z" fill="#EDF1F6"></path><path fill-rule="evenodd" clip-rule="evenodd" d="M77.0547 50.301C77.0547 49.3786 77.773 48.6309 78.6591 48.6309H128.306C129.192 48.6309 129.911 49.3786 129.911 50.301C129.911 51.2234 129.192 51.9711 128.306 51.9711L78.6591 51.9711C77.773 51.9711 77.0547 51.2234 77.0547 50.301Z" fill="white"></path></g><g opacity="0.5"><path d="M63.3105 50.6224C63.3105 49.5964 64.1429 48.7646 65.1696 48.7646H141.974C143.001 48.7646 143.833 49.5964 143.833 50.6224V103.336C143.833 104.362 143.001 105.194 141.974 105.194H65.1696C64.1429 105.194 63.3105 104.362 63.3105 103.336V50.6224Z" fill="white"></path><path d="M63.3105 50.7654C63.3105 49.6604 64.141 48.7646 65.1653 48.7646H141.768C142.793 48.7646 143.623 49.6604 143.623 50.7654V55.7004H63.3105V50.7654Z" fill="#000C36"></path><path d="M71.2441 52.2313C71.2441 53.0457 70.5718 53.7176 69.7568 53.7176C68.9419 53.7176 68.2695 53.0457 68.2695 52.2313C68.2695 51.417 68.9419 50.7451 69.7568 50.7451C70.5718 50.7451 71.2441 51.417 71.2441 52.2313Z" fill="#F66058"></path><path d="M77.1903 52.2313C77.1903 53.0457 76.518 53.7176 75.7031 53.7176C74.8881 53.7176 74.2158 53.0457 74.2158 52.2313C74.2158 51.417 74.8881 50.7451 75.7031 50.7451C76.5384 50.7451 77.1903 51.417 77.1903 52.2313Z" fill="#F9BD2E"></path><path d="M83.1405 52.2313C83.1405 53.0457 82.4682 53.7176 81.6533 53.7176C80.8383 53.7176 80.166 53.0457 80.166 52.2313C80.166 51.417 80.8383 50.7451 81.6533 50.7451C82.4682 50.7451 83.1405 51.417 83.1405 52.2313Z" fill="#3CC840"></path><path d="M63.3105 55.3467H143.833V67.0509H63.3105V55.3467Z" fill="#EDF1F6"></path><path d="M70.6299 72.1748H136.512V99.2409H70.6299V72.1748Z" fill="#EDF1F6"></path><path fill-rule="evenodd" clip-rule="evenodd" d="M72.0957 60.9885C72.0957 59.8941 72.948 59.0068 73.9994 59.0068H132.907C133.959 59.0068 134.811 59.8941 134.811 60.9885C134.811 62.0829 133.959 62.9701 132.907 62.9701L73.9994 62.9701C72.948 62.9701 72.0957 62.0829 72.0957 60.9885Z" fill="white"></path></g><g filter="url(#filter0_d_12962_327943)"><path d="M58.2373 60.4585C58.2373 59.3077 59.1709 58.3748 60.3225 58.3748H146.468C147.62 58.3748 148.553 59.3077 148.553 60.4585V119.584C148.553 120.735 147.62 121.667 146.468 121.667H60.3225C59.1709 121.667 58.2373 120.735 58.2373 119.584V60.4585Z" fill="white"></path></g><path d="M58.2373 60.6188C58.2373 59.3794 59.1687 58.3748 60.3177 58.3748H146.237C147.386 58.3748 148.318 59.3794 148.318 60.6188V66.1541H58.2373V60.6188Z" fill="#000C36"></path><path d="M67.1341 62.2654C67.1341 63.1788 66.38 63.9324 65.466 63.9324C64.5519 63.9324 63.7979 63.1788 63.7979 62.2654C63.7979 61.352 64.5519 60.5984 65.466 60.5984C66.38 60.5984 67.1341 61.352 67.1341 62.2654Z" fill="#F66058"></path><path d="M73.807 62.2654C73.807 63.1788 73.0529 63.9324 72.1389 63.9324C71.2248 63.9324 70.4707 63.1788 70.4707 62.2654C70.4707 61.352 71.2248 60.5984 72.1389 60.5984C73.0758 60.5984 73.807 61.352 73.807 62.2654Z" fill="#F9BD2E"></path><path d="M80.4799 62.2654C80.4799 63.1788 79.7258 63.9324 78.8117 63.9324C77.8977 63.9324 77.1436 63.1788 77.1436 62.2654C77.1436 61.352 77.8977 60.5984 78.8117 60.5984C79.7258 60.5984 80.4799 61.352 80.4799 62.2654Z" fill="#3CC840"></path><path d="M58.2373 65.7583H148.553V78.8861H58.2373V65.7583Z" fill="#EDF1F6"></path><path d="M66.4482 84.6309H140.343V114.989H66.4482V84.6309Z" fill="#EDF1F6"></path><path fill-rule="evenodd" clip-rule="evenodd" d="M68.0898 72.0837C68.0898 70.8562 69.0458 69.8611 70.2251 69.8611H136.297C137.477 69.8611 138.433 70.8562 138.433 72.0837C138.433 73.3113 137.477 74.3064 136.297 74.3064L70.2251 74.3064C69.0458 74.3064 68.0898 73.3113 68.0898 72.0837Z" fill="white"></path><path d="M122.187 106.102C123.2 94.8553 114.903 84.9173 103.656 83.9051C92.409 82.8929 82.471 91.1898 81.4588 102.437C80.4465 113.684 88.7434 123.622 99.9903 124.634C111.237 125.646 121.175 117.349 122.187 106.102Z" fill="#9D97F4"></path><path d="M117.648 104.648C118.028 95.7661 111.136 88.2576 102.254 87.8775C93.3716 87.4975 85.8631 94.3899 85.483 103.272C85.103 112.154 91.9954 119.663 100.878 120.043C109.76 120.423 117.268 113.531 117.648 104.648Z" fill="white"></path><path d="M102.977 116.48C100.525 116.678 98.0706 116.12 95.9252 114.876C93.7798 113.633 92.0395 111.76 90.9244 109.495C89.8093 107.229 89.3695 104.673 89.6607 102.149C89.9518 99.6247 90.9608 97.2468 92.5601 95.3155C94.1593 93.3843 96.2769 91.9866 98.645 91.2991C101.013 90.6117 103.525 90.6655 105.864 91.4537C108.202 92.2419 110.262 93.729 111.783 95.7271C113.303 97.7251 114.216 100.144 114.406 102.678C114.66 106.074 113.599 109.436 111.456 112.023C109.313 114.611 106.263 116.214 102.977 116.48Z" fill="#76A5FF"></path><path d="M101.931 113.006C106.735 112.896 110.54 108.913 110.43 104.109C110.32 99.3051 106.337 95.4998 101.533 95.6097C96.7293 95.7195 92.924 99.7029 93.0339 104.507C93.1437 109.311 97.1271 113.116 101.931 113.006Z" fill="white"></path><path d="M101.951 109.041C101.051 109.118 100.15 108.902 99.3631 108.42C98.5759 107.938 97.9376 107.212 97.529 106.334C97.1204 105.455 96.9599 104.465 97.0679 103.487C97.176 102.509 97.5476 101.589 98.1358 100.842C98.724 100.094 99.5022 99.5547 100.372 99.2906C101.241 99.0265 102.163 99.05 103.021 99.3581C103.878 99.6661 104.633 100.245 105.188 101.021C105.744 101.797 106.076 102.736 106.142 103.718C106.23 105.029 105.839 106.326 105.053 107.323C104.268 108.32 103.153 108.938 101.951 109.041Z" fill="#9D97F4"></path><path d="M128.458 85.7912L134.988 80.5584L127.18 80.8084L125.919 81.9713L127.168 80.8084L128.21 73L122.36 79.0235L122.653 83.8027L120.598 85.6516L120.385 80.7852L116.843 84.5993L117.085 88.8145L101.002 103.298C100.986 103.598 101.076 103.894 101.255 104.135C101.475 104.346 101.759 104.475 102.061 104.501L118.064 90.0937L122.4 90.9076L126.598 87.6982L121.582 86.9249L123.684 85.0295L128.458 85.7912Z" fill="#091B36"></path><defs><filter id="filter0_d_12962_327943" x="47.3596" y="48.2741" width="112.072" height="85.0481" filterUnits="userSpaceOnUse" color-interpolation-filters="sRGB"><feFlood flood-opacity="0" result="BackgroundImageFix"></feFlood><feColorMatrix in="SourceAlpha" type="matrix" values="0 0 0 0 0 0 0 0 0 0 0 0 0 0 0 0 0 0 127 0" result="hardAlpha"></feColorMatrix><feOffset dy="0.776976"></feOffset><feGaussianBlur stdDeviation="5.43883"></feGaussianBlur><feComposite in2="hardAlpha" operator="out"></feComposite><feColorMatrix type="matrix" values="0 0 0 0 0.0354167 0 0 0 0 0.105426 0 0 0 0 0.2125 0 0 0 0.04 0"></feColorMatrix><feBlend mode="normal" in2="BackgroundImageFix" result="effect1_dropShadow_12962_327943"></feBlend><feBlend mode="normal" in="SourceGraphic" in2="effect1_dropShadow_12962_327943" result="shape"></feBlend></filter><clipPath id="clip0_12962_327943"><rect width="123.08" height="101.102" fill="white" transform="translate(40 64.3164)"></rect></clipPath></defs></svg>