<svg width="186" height="185" viewBox="0 0 186 185" fill="none" xmlns="http://www.w3.org/2000/svg">
<circle cx="93.2673" cy="96.1634" r="73.2673" fill="#F5F8FF"/>
<g filter="url(#filter0_d_18741_43088)">
<path d="M3.54858 71.4729C3.54858 70.6594 4.20849 70 5.02254 70H65.9158C66.7299 70 67.3898 70.6595 67.3898 71.4729V113.266C67.3898 114.08 66.7299 114.739 65.9158 114.739H5.02253C4.20849 114.739 3.54858 114.08 3.54858 113.266V71.4729Z" fill="white"/>
</g>
<path d="M3.54858 71.5862C3.54858 70.7102 4.20697 70 5.01913 70H65.7527C66.5649 70 67.2233 70.7102 67.2233 71.5862V75.4989H3.54858V71.5862Z" fill="#000C36"/>
<path d="M9.83777 72.75C9.83777 73.3957 9.30472 73.9283 8.6586 73.9283C8.01248 73.9283 7.47943 73.3957 7.47943 72.75C7.47943 72.1043 8.01248 71.5717 8.6586 71.5717C9.30472 71.5717 9.83777 72.1043 9.83777 72.75Z" fill="#F66058"/>
<path d="M14.5538 72.75C14.5538 73.3957 14.0207 73.9283 13.3746 73.9283C12.7285 73.9283 12.1954 73.3957 12.1954 72.75C12.1954 72.1043 12.7285 71.5717 13.3746 71.5717C14.0369 71.5717 14.5538 72.1043 14.5538 72.75Z" fill="#F9BD2E"/>
<path d="M19.2698 72.75C19.2698 73.3957 18.7367 73.9283 18.0906 73.9283C17.4445 73.9283 16.9114 73.3957 16.9114 72.75C16.9114 72.1043 17.4445 71.5717 18.0906 71.5717C18.7367 71.5717 19.2698 72.1043 19.2698 72.75Z" fill="#3CC840"/>
<path d="M3.54858 75.2203H67.3898V84.4999H3.54858V75.2203Z" fill="#EDF1F6"/>
<path d="M9.85278 91.56C9.85278 90.1793 10.9721 89.06 12.3528 89.06H58.5865C59.9672 89.06 61.0865 90.1793 61.0865 91.56V107.019C61.0865 108.4 59.9672 109.519 58.5865 109.519H12.3528C10.9721 109.519 9.85278 108.4 9.85278 107.019V91.56Z" fill="white" stroke="#F9C400"/>
<path fill-rule="evenodd" clip-rule="evenodd" d="M10.5132 79.6904C10.5132 78.8227 11.1889 78.1193 12.0225 78.1193H58.7267C59.5603 78.1193 60.236 78.8227 60.236 79.6904C60.236 80.5581 59.5603 81.2615 58.7267 81.2615L12.0225 81.2615C11.1889 81.2615 10.5132 80.5581 10.5132 79.6904Z" fill="white"/>
<g filter="url(#filter1_d_18741_43088)">
<path d="M52.5826 32.1371C52.5826 31.5091 53.0921 31 53.7205 31H100.728C101.357 31 101.866 31.5091 101.866 32.1371V64.4004C101.866 65.0284 101.357 65.5375 100.728 65.5375H53.7205C53.0921 65.5375 52.5826 65.0284 52.5826 64.4004V32.1371Z" fill="white"/>
</g>
<path d="M52.5826 32.2245C52.5826 31.5482 53.0909 31 53.7179 31H100.602C101.229 31 101.738 31.5482 101.738 32.2245V35.245H52.5826V32.2245Z" fill="#000C36"/>
<path d="M57.4376 33.1229C57.4376 33.6213 57.0261 34.0325 56.5274 34.0325C56.0286 34.0325 55.6171 33.6213 55.6171 33.1229C55.6171 32.6245 56.0286 32.2133 56.5274 32.2133C57.0261 32.2133 57.4376 32.6245 57.4376 33.1229Z" fill="#F66058"/>
<path d="M61.0782 33.1229C61.0782 33.6213 60.6668 34.0325 60.168 34.0325C59.6692 34.0325 59.2578 33.6213 59.2578 33.1229C59.2578 32.6245 59.6692 32.2133 60.168 32.2133C60.6792 32.2133 61.0782 32.6245 61.0782 33.1229Z" fill="#F9BD2E"/>
<path d="M64.7189 33.1229C64.7189 33.6213 64.3074 34.0325 63.8087 34.0325C63.3099 34.0325 62.8984 33.6213 62.8984 33.1229C62.8984 32.6245 63.3099 32.2133 63.8087 32.2133C64.3074 32.2133 64.7189 32.6245 64.7189 33.1229Z" fill="#3CC840"/>
<path d="M52.5826 35.03H101.866V42.1935H52.5826V35.03Z" fill="#EDF1F6"/>
<path d="M57.4382 48.3278C57.4382 46.878 58.6135 45.7028 60.0632 45.7028H94.3861C95.8359 45.7028 97.0111 46.878 97.0111 48.3278V58.8934C97.0111 60.3432 95.8359 61.5184 94.3861 61.5184H60.0632C58.6135 61.5184 57.4382 60.3432 57.4382 58.8934V48.3278Z" fill="#EDF1F6" stroke="#7879F1" stroke-width="0.75"/>
<path fill-rule="evenodd" clip-rule="evenodd" d="M57.959 38.4807C57.959 37.8108 58.4807 37.2678 59.1242 37.2678H95.1785C95.822 37.2678 96.3436 37.8108 96.3436 38.4807C96.3436 39.1505 95.822 39.6935 95.1785 39.6935L59.1242 39.6935C58.4807 39.6935 57.959 39.1505 57.959 38.4807Z" fill="white"/>
<g filter="url(#filter2_d_18741_43088)">
<path d="M116.627 24.4663C116.627 23.6565 117.284 23 118.094 23H178.713C179.523 23 180.18 23.6565 180.18 24.4663V66.0712C180.18 66.881 179.523 67.5375 178.713 67.5375H118.094C117.284 67.5375 116.627 66.881 116.627 66.0712V24.4663Z" fill="white"/>
</g>
<path d="M116.627 24.5791C116.627 23.707 117.282 23 118.091 23H178.55C179.359 23 180.014 23.707 180.014 24.5791V28.4741H116.627V24.5791Z" fill="#000C36"/>
<path d="M122.888 25.7375C122.888 26.3802 122.357 26.9105 121.714 26.9105C121.071 26.9105 120.54 26.3802 120.54 25.7375C120.54 25.0947 121.071 24.5645 121.714 24.5645C122.357 24.5645 122.888 25.0947 122.888 25.7375Z" fill="#F66058"/>
<path d="M127.583 25.7375C127.583 26.3802 127.052 26.9105 126.409 26.9105C125.766 26.9105 125.235 26.3802 125.235 25.7375C125.235 25.0947 125.766 24.5645 126.409 24.5645C127.068 24.5645 127.583 25.0947 127.583 25.7375Z" fill="#F9BD2E"/>
<path d="M132.277 25.7375C132.277 26.3802 131.747 26.9105 131.103 26.9105C130.46 26.9105 129.93 26.3802 129.93 25.7375C129.93 25.0947 130.46 24.5645 131.103 24.5645C131.747 24.5645 132.277 25.0947 132.277 25.7375Z" fill="#3CC840"/>
<path d="M116.627 28.1968H180.18V37.4344H116.627V28.1968Z" fill="#EDF1F6"/>
<path fill-rule="evenodd" clip-rule="evenodd" d="M25.2606 99.8715C25.2606 98.7953 26.1319 97.923 27.2068 97.923H37.6274C38.7023 97.923 39.5736 98.7953 39.5736 99.8715C39.5736 100.948 38.7023 101.82 37.6274 101.82H27.2068C26.1319 101.82 25.2606 100.948 25.2606 99.8715Z" fill="#F9C400"/>
<path d="M20.395 101.248C20.395 100.226 19.7823 99.5522 18.8091 99.1341L18.0523 98.8206L18.1003 96.9626C18.5448 97.0206 19.0975 97.2993 19.5059 97.7406L20.2508 96.5909C19.7702 96.0335 18.9533 95.7084 18.2325 95.6503L18.2445 95H17.3795L17.3555 95.6271C16.7067 95.6852 16.082 95.8826 15.6736 96.231C15.229 96.6026 14.8806 97.1484 14.8806 97.9148C14.8806 98.867 15.4573 99.378 15.7216 99.5754C15.9859 99.7845 16.3463 99.9586 16.8028 100.144L17.2113 100.307L17.1753 102.246C16.6587 102.235 15.7937 101.828 15.4453 101.294L14.5563 102.455C15.157 103.187 16.1421 103.605 17.0431 103.64L17.0191 104.255H17.8841L17.9081 103.617C18.3646 103.582 19.0494 103.361 19.4699 103.036C19.9384 102.676 20.395 102.072 20.395 101.248ZM17.3435 96.9509L17.3074 98.5651L17.1753 98.5071C16.8749 98.3677 16.5626 98.1587 16.5626 97.729C16.5626 97.2761 16.8869 96.9858 17.3435 96.9509ZM18.7371 101.468C18.7371 101.921 18.3046 102.235 17.9321 102.27L17.9682 100.539L18.1604 100.632C18.5208 100.806 18.7371 101.027 18.7371 101.468Z" fill="#F9C400"/>
<path d="M122.905 44.4763C122.905 43.0956 124.024 41.9763 125.405 41.9763H171.403C172.784 41.9763 173.903 43.0956 173.903 44.4763V59.8384C173.903 61.2191 172.784 62.3384 171.403 62.3384H125.405C124.024 62.3384 122.905 61.2191 122.905 59.8384V44.4763Z" fill="#EDF1F6" stroke="#76A5FF"/>
<path fill-rule="evenodd" clip-rule="evenodd" d="M123.56 32.6466C123.56 31.7828 124.233 31.0825 125.063 31.0825H171.556C172.386 31.0825 173.059 31.7828 173.059 32.6466C173.059 33.5103 172.386 34.2106 171.556 34.2106L125.063 34.2106C124.233 34.2106 123.56 33.5103 123.56 32.6466Z" fill="white"/>
<path d="M160.463 65.2178C160.463 61.9041 157.777 59.2178 154.463 59.2178H36.5674C33.2537 59.2178 30.5674 61.9041 30.5674 65.2178V67.6353H160.463V65.2178Z" fill="#4B825D"/>
<path d="M174.298 53H183V112H162.5" stroke="#3D7FFC" stroke-width="2" stroke-linecap="round" stroke-dasharray="4 4"/>
<path d="M16 110.759L16 152.5L143 152.5L143 144.5" stroke="#3D7FFC" stroke-width="2" stroke-linecap="round" stroke-dasharray="4 4"/>
<path fill-rule="evenodd" clip-rule="evenodd" d="M144.477 51.7901C144.477 50.5111 145.512 49.4742 146.79 49.4742H161.826C163.104 49.4742 164.14 50.5111 164.14 51.7901C164.14 53.0692 163.104 54.1061 161.826 54.1061H146.79C145.512 54.1061 144.477 53.0692 144.477 51.7901Z" fill="#76A5FF"/>
<path d="M138.694 53.4259C138.694 52.2112 137.965 51.4107 136.809 50.9138L135.909 50.5411L135.966 48.3327C136.495 48.4017 137.151 48.7329 137.637 49.2574L138.522 47.891C137.951 47.2284 136.98 46.842 136.123 46.773L136.138 46H135.109L135.081 46.7453C134.31 46.8144 133.567 47.049 133.082 47.4631C132.553 47.9048 132.139 48.5535 132.139 49.4645C132.139 50.5963 132.825 51.2036 133.139 51.4383C133.453 51.6867 133.881 51.8938 134.424 52.1146L134.91 52.3079L134.867 54.6129C134.253 54.5991 133.225 54.116 132.81 53.4811L131.754 54.8614C132.468 55.7309 133.639 56.2278 134.71 56.2692L134.681 57.0008H135.709L135.738 56.2416C136.28 56.2002 137.094 55.938 137.594 55.5515C138.151 55.1236 138.694 54.4059 138.694 53.4259ZM135.067 48.3189L135.024 50.2374L134.867 50.1684C134.51 50.0028 134.138 49.7543 134.138 49.2436C134.138 48.7053 134.524 48.3603 135.067 48.3189ZM136.723 53.6881C136.723 54.2264 136.209 54.5991 135.766 54.6405L135.809 52.5839L136.038 52.6943C136.466 52.9014 136.723 53.1636 136.723 53.6881Z" fill="#76A5FF"/>
<path fill-rule="evenodd" clip-rule="evenodd" d="M75.0744 53.7707C75.0744 52.7168 75.9278 51.8624 76.9805 51.8624H82.6988C83.7515 51.8624 84.6049 52.7168 84.6049 53.7707C84.6049 54.8246 83.7515 55.679 82.6988 55.679H76.9805C75.9278 55.679 75.0744 54.8246 75.0744 53.7707Z" fill="#7879F1"/>
<path d="M70.3092 55.1188C70.3092 54.1179 69.7091 53.4583 68.7561 53.0489L68.0148 52.7418L68.0619 50.9221C68.4972 50.9789 69.0385 51.2519 69.4385 51.6841L70.168 50.5581C69.6974 50.0122 68.8973 49.6938 68.1913 49.6369L68.2031 49H67.3559L67.3324 49.6142C66.6971 49.671 66.0852 49.8644 65.6852 50.2056C65.2498 50.5695 64.9086 51.104 64.9086 51.8547C64.9086 52.7873 65.4734 53.2877 65.7322 53.481C65.9911 53.6858 66.3441 53.8564 66.7912 54.0383L67.1912 54.1976L67.1559 56.0969C66.65 56.0855 65.8028 55.6874 65.4616 55.1643L64.5909 56.3016C65.1792 57.0181 66.1441 57.4275 67.0265 57.4617L67.003 58.0644H67.8501L67.8736 57.4389C68.3208 57.4048 68.9914 57.1887 69.4032 56.8703C69.8621 56.5177 70.3092 55.9263 70.3092 55.1188ZM67.3206 50.9107L67.2853 52.4916L67.1559 52.4347C66.8618 52.2982 66.5559 52.0935 66.5559 51.6727C66.5559 51.2291 66.8735 50.9448 67.3206 50.9107ZM68.6855 55.3349C68.6855 55.7784 68.2619 56.0855 67.8972 56.1196L67.9325 54.425L68.1207 54.516C68.4737 54.6866 68.6855 54.9027 68.6855 55.3349Z" fill="#7879F1"/>
<g filter="url(#filter3_d_18741_43088)">
<path d="M28 64.2372C28 62.7676 29.4115 61.5763 31.1527 61.5763H161.4C163.141 61.5763 164.552 62.7676 164.552 64.2372V139.74C164.552 141.21 163.141 142.401 161.4 142.401H31.1527C29.4115 142.401 28 141.21 28 139.74V64.2372Z" fill="white"/>
</g>
<path d="M28 62.626H164.552V78.3711H28V62.626Z" fill="#63B97F"/>
<path d="M28 98.2661H164.552V121.145H28V98.2661Z" fill="#EDF1F6"/>
<path d="M32.9039 68.5C32.9039 67.8754 33.4097 67.369 34.0336 67.369H40.4353C41.0592 67.369 41.565 67.8754 41.565 68.5V74.9091C41.565 75.5337 41.0592 76.0401 40.4353 76.0401H34.0336C33.4097 76.0401 32.9039 75.5337 32.9039 74.9091V68.5Z" fill="#4B825D"/>
<path d="M37.4143 72.2325L38.6307 74.306H39.8316L38.0574 71.6218L39.7154 69.1034H38.53L37.4065 70.9809L36.2831 69.1034H35.0977L36.7557 71.6142L34.9814 74.306H36.1746L37.4143 72.2325Z" fill="white"/>
<path d="M101.827 87.1734H100.467V87.1708C100.392 87.1699 100.318 87.1474 100.257 87.1061C100.196 87.0649 100.15 87.0071 100.125 86.9406C100.121 86.9304 100.118 86.92 100.115 86.9095L99.7155 85.7155L99.7057 85.6856C99.6886 85.6404 99.6564 85.6017 99.6139 85.5748C99.5714 85.5479 99.5208 85.5344 99.4695 85.5363C99.4181 85.5382 99.3688 85.5555 99.3287 85.5855C99.2887 85.6154 99.2599 85.6564 99.2467 85.7027L98.8428 86.905C98.8429 86.9057 98.8429 86.9065 98.8428 86.9071C98.8396 86.9197 98.8355 86.932 98.8305 86.9441C98.8054 87.01 98.7591 87.0672 98.698 87.1079C98.6369 87.1485 98.5639 87.1705 98.4889 87.1712V87.1738H97.1273C97.068 87.1833 97.0144 87.2124 96.976 87.2556C96.9377 87.2988 96.9171 87.3532 96.9181 87.4093C96.9178 87.4455 96.9263 87.4813 96.943 87.514C96.9596 87.5468 96.9839 87.5756 97.0142 87.5984L97.0253 87.6067L98.0824 88.3569C98.1327 88.3906 98.1735 88.435 98.2016 88.4865C98.2297 88.5379 98.2441 88.5949 98.2438 88.6526C98.2437 88.6794 98.2404 88.7062 98.234 88.7323C98.2293 88.7524 98.2228 88.7721 98.2143 88.7912L97.8134 89.9916V89.9959L97.8104 90.0046C97.804 90.0268 97.8007 90.0496 97.8006 90.0726C97.7997 90.1033 97.8052 90.1338 97.817 90.1624C97.8287 90.191 97.8465 90.2174 97.8691 90.2396C97.8918 90.2618 97.919 90.2795 97.949 90.2918C97.9791 90.3042 98.0115 90.3108 98.0444 90.3115C98.0871 90.3117 98.1291 90.3009 98.1657 90.2804L98.2084 90.251L99.2578 89.5087L99.2809 89.492C99.3391 89.4544 99.408 89.4339 99.4788 89.4333C99.5496 89.4326 99.619 89.4519 99.678 89.4885C99.691 89.4961 99.7032 89.5048 99.7147 89.5143L100.758 90.2537L100.788 90.2749C100.826 90.2974 100.87 90.3091 100.916 90.3087C100.949 90.308 100.981 90.3011 101.011 90.2887C101.041 90.2763 101.068 90.2586 101.091 90.2364C101.113 90.2143 101.131 90.1881 101.143 90.1595C101.154 90.1309 101.16 90.1005 101.159 90.0699C101.159 90.0459 101.155 90.0219 101.148 89.999C101.148 89.9954 101.145 89.9915 101.145 89.9875L100.742 88.7828C100.735 88.7672 100.73 88.7511 100.726 88.7346C100.709 88.6688 100.712 88.5999 100.735 88.5356C100.757 88.4713 100.799 88.4142 100.854 88.3705C100.863 88.3633 100.873 88.357 100.882 88.3506L101.928 87.6102L101.959 87.5873C101.986 87.5646 102.008 87.5366 102.023 87.5055C102.038 87.4743 102.045 87.4406 102.045 87.4066C102.045 87.3498 102.023 87.2948 101.983 87.2519C101.943 87.209 101.888 87.1812 101.827 87.1734Z" fill="#B8C4D0"/>
<path d="M108.66 87.1733H107.3V87.1708C107.225 87.1699 107.151 87.1473 107.09 87.1061C107.029 87.0648 106.983 87.007 106.959 86.9405C106.954 86.9304 106.951 86.9199 106.948 86.9094L106.549 85.7154L106.538 85.6855C106.521 85.6404 106.489 85.6016 106.447 85.5747C106.404 85.5479 106.354 85.5343 106.302 85.5363C106.251 85.5382 106.202 85.5555 106.161 85.5854C106.121 85.6154 106.093 85.6563 106.079 85.7026L105.676 86.9049C105.676 86.9056 105.676 86.9064 105.676 86.9071C105.672 86.9197 105.668 86.9319 105.663 86.944C105.638 87.01 105.592 87.0672 105.531 87.1078C105.47 87.1485 105.397 87.1705 105.322 87.1712V87.1737H103.96C103.901 87.1833 103.847 87.2123 103.809 87.2555C103.77 87.2987 103.75 87.3532 103.751 87.4092C103.751 87.4455 103.759 87.4813 103.776 87.514C103.792 87.5467 103.817 87.5756 103.847 87.5983L103.858 87.6067L104.915 88.3568C104.977 88.3989 105.025 88.4571 105.052 88.5241C105.078 88.5911 105.084 88.6641 105.067 88.7338C105.062 88.754 105.056 88.7737 105.047 88.7927L104.646 89.9931V89.9974L104.643 90.0061C104.637 90.0283 104.633 90.0513 104.633 90.0743C104.632 90.105 104.638 90.1353 104.65 90.1639C104.661 90.1925 104.679 90.2189 104.702 90.2411C104.725 90.2633 104.752 90.281 104.782 90.2933C104.812 90.3057 104.844 90.3123 104.877 90.313C104.92 90.3132 104.962 90.3026 104.998 90.2821L105.041 90.2525L106.091 89.5104L106.114 89.4937C106.172 89.4561 106.241 89.4356 106.312 89.435C106.382 89.4343 106.452 89.4534 106.511 89.49C106.524 89.4976 106.536 89.5062 106.547 89.5158L107.591 90.2552L107.62 90.2764C107.659 90.2989 107.703 90.3106 107.748 90.3102C107.781 90.3095 107.814 90.3028 107.844 90.2904C107.874 90.278 107.901 90.2601 107.923 90.238C107.946 90.2158 107.964 90.1896 107.975 90.161C107.987 90.1324 107.993 90.102 107.992 90.0714C107.992 90.0474 107.988 90.0236 107.981 90.0007C107.981 89.9971 107.978 89.993 107.977 89.989L107.574 88.7843C107.568 88.7687 107.562 88.7526 107.558 88.7361C107.551 88.708 107.547 88.6792 107.547 88.6502C107.547 88.5972 107.559 88.5447 107.583 88.4965C107.607 88.4484 107.642 88.4057 107.685 88.3716C107.694 88.3644 107.704 88.3581 107.713 88.3518L108.759 87.6115L108.79 87.5884C108.817 87.5657 108.839 87.5378 108.854 87.5066C108.869 87.4754 108.876 87.4417 108.876 87.4077C108.876 87.351 108.855 87.2959 108.815 87.2528C108.776 87.2097 108.721 87.1816 108.66 87.1733Z" fill="#B8C4D0"/>
<path d="M115.491 87.1733H114.13V87.1708C114.055 87.1699 113.982 87.1473 113.92 87.1061C113.859 87.0648 113.813 87.007 113.789 86.9405C113.785 86.9304 113.781 86.92 113.778 86.9094L113.379 85.7154L113.369 85.6855C113.352 85.6404 113.319 85.6016 113.277 85.5747C113.234 85.5479 113.184 85.5343 113.132 85.5363C113.081 85.5382 113.032 85.5555 112.992 85.5854C112.952 85.6154 112.923 85.6563 112.91 85.7026L112.506 86.9049C112.506 86.9049 112.506 86.9051 112.506 86.9071C112.502 86.9197 112.498 86.9319 112.493 86.944C112.468 87.0099 112.422 87.0672 112.361 87.1078C112.3 87.1485 112.227 87.1705 112.152 87.1712V87.1737H110.79C110.731 87.1833 110.677 87.2123 110.639 87.2555C110.601 87.2987 110.58 87.3532 110.581 87.4092C110.581 87.4455 110.589 87.4814 110.606 87.5142C110.622 87.5469 110.647 87.5757 110.677 87.5983L110.688 87.6067L111.745 88.3568C111.807 88.3989 111.855 88.4572 111.882 88.5241C111.909 88.5911 111.914 88.6641 111.897 88.7338C111.892 88.754 111.886 88.7737 111.877 88.7927L111.476 89.9931V89.9974L111.473 90.0061C111.467 90.0283 111.464 90.0514 111.463 90.0744C111.463 90.105 111.468 90.1353 111.48 90.1639C111.492 90.1926 111.509 90.2189 111.532 90.2411C111.555 90.2633 111.582 90.281 111.612 90.2934C111.642 90.3057 111.674 90.3124 111.707 90.313C111.75 90.3132 111.792 90.3026 111.829 90.2821L111.871 90.2526L112.921 89.5104L112.944 89.4937C113.002 89.4561 113.071 89.4356 113.142 89.435C113.213 89.4344 113.282 89.4535 113.341 89.49C113.354 89.4977 113.366 89.5063 113.378 89.5158L114.421 90.2553L114.451 90.2765C114.489 90.2989 114.533 90.3106 114.579 90.3103C114.611 90.3096 114.644 90.3029 114.674 90.2905C114.704 90.2781 114.731 90.2602 114.754 90.238C114.776 90.2158 114.794 90.1896 114.806 90.161C114.817 90.1325 114.823 90.102 114.822 90.0714C114.822 90.0474 114.818 90.0237 114.811 90.0007C114.811 89.9971 114.808 89.993 114.808 89.989L114.405 88.7844C114.398 88.7687 114.393 88.7526 114.389 88.7362C114.382 88.708 114.378 88.6792 114.378 88.6503C114.378 88.5972 114.39 88.5447 114.414 88.4966C114.437 88.4484 114.472 88.4057 114.516 88.3716C114.525 88.3644 114.534 88.3581 114.544 88.3518L115.589 87.6116L115.621 87.5884C115.649 87.5657 115.67 87.5378 115.685 87.5066C115.7 87.4754 115.707 87.4417 115.707 87.4077C115.707 87.3509 115.686 87.2957 115.646 87.2526C115.606 87.2095 115.551 87.1814 115.491 87.1733Z" fill="#B8C4D0"/>
<path d="M122.32 87.1733H120.96V87.1708C120.884 87.1699 120.811 87.1473 120.75 87.1061C120.689 87.0648 120.643 87.007 120.618 86.9405C120.614 86.9304 120.61 86.92 120.607 86.9094L120.208 85.7154L120.198 85.6855C120.181 85.6404 120.149 85.6016 120.106 85.5747C120.064 85.5479 120.013 85.5343 119.962 85.5363C119.91 85.5382 119.861 85.5555 119.821 85.5854C119.781 85.6154 119.752 85.6563 119.739 85.7026L119.335 86.9049C119.335 86.9056 119.335 86.9064 119.335 86.9071C119.332 86.9197 119.328 86.9319 119.323 86.944C119.298 87.01 119.251 87.0672 119.19 87.1078C119.129 87.1485 119.056 87.1705 118.981 87.1712V87.1737H117.619C117.56 87.1833 117.507 87.2123 117.468 87.2555C117.43 87.2987 117.409 87.3532 117.41 87.4092C117.41 87.4455 117.418 87.4814 117.435 87.5142C117.452 87.5469 117.476 87.5757 117.506 87.5983L117.517 87.6067L118.575 88.3568C118.637 88.3989 118.684 88.4571 118.711 88.5241C118.738 88.5911 118.743 88.6641 118.726 88.7338C118.722 88.754 118.715 88.7737 118.707 88.7927L118.306 89.9931V89.9974L118.302 90.0061C118.296 90.0283 118.292 90.0513 118.292 90.0743C118.291 90.105 118.297 90.1353 118.309 90.1639C118.32 90.1925 118.338 90.2189 118.361 90.2411C118.384 90.2633 118.411 90.281 118.441 90.2933C118.471 90.3057 118.503 90.3123 118.536 90.313C118.579 90.3132 118.621 90.3026 118.657 90.2821L118.7 90.2525L119.75 89.5104L119.773 89.4937C119.831 89.4561 119.9 89.4356 119.971 89.435C120.041 89.4343 120.111 89.4534 120.17 89.49C120.183 89.4976 120.195 89.5062 120.207 89.5158L121.25 90.2552L121.28 90.2764C121.318 90.2989 121.363 90.3106 121.408 90.3102C121.441 90.3095 121.473 90.3028 121.503 90.2904C121.533 90.278 121.56 90.2601 121.583 90.238C121.605 90.2158 121.623 90.1896 121.635 90.161C121.647 90.1324 121.652 90.102 121.651 90.0714C121.651 90.0474 121.648 90.0236 121.64 90.0007C121.64 89.9971 121.638 89.993 121.636 89.989L121.234 88.7843C121.227 88.7687 121.222 88.7526 121.218 88.7361C121.211 88.708 121.207 88.6792 121.207 88.6502C121.206 88.5972 121.219 88.5447 121.242 88.4965C121.266 88.4484 121.301 88.4057 121.345 88.3716C121.354 88.3644 121.363 88.3581 121.372 88.3518L122.418 87.6115L122.45 87.5884C122.477 87.5657 122.499 87.5378 122.513 87.5066C122.528 87.4754 122.536 87.4417 122.535 87.4077C122.536 87.351 122.514 87.2959 122.475 87.2528C122.435 87.2097 122.38 87.1816 122.32 87.1733Z" fill="#B8C4D0"/>
<path d="M122.308 108.418H120.948V108.415C120.872 108.414 120.799 108.392 120.738 108.351C120.677 108.309 120.631 108.252 120.606 108.185C120.602 108.175 120.599 108.165 120.596 108.154L120.196 106.96L120.186 106.93C120.169 106.885 120.137 106.846 120.094 106.819C120.052 106.792 120.001 106.779 119.95 106.781C119.899 106.783 119.849 106.8 119.809 106.83C119.769 106.86 119.74 106.901 119.727 106.947L119.323 108.15C119.323 108.15 119.323 108.15 119.323 108.152C119.32 108.164 119.316 108.177 119.311 108.189C119.286 108.255 119.24 108.312 119.179 108.352C119.117 108.393 119.044 108.415 118.969 108.416V108.418H117.607C117.548 108.428 117.494 108.457 117.456 108.5C117.418 108.543 117.397 108.598 117.398 108.654C117.398 108.69 117.406 108.726 117.423 108.759C117.44 108.791 117.464 108.82 117.494 108.843L117.505 108.851L118.564 109.601C118.626 109.643 118.673 109.701 118.7 109.768C118.727 109.835 118.732 109.908 118.715 109.978C118.711 109.998 118.704 110.017 118.696 110.036L118.295 111.237V111.241L118.292 111.25C118.285 111.272 118.282 111.295 118.282 111.318C118.281 111.349 118.286 111.379 118.298 111.408C118.31 111.436 118.327 111.463 118.35 111.485C118.373 111.507 118.4 111.525 118.43 111.537C118.46 111.55 118.492 111.556 118.525 111.557C118.568 111.557 118.61 111.546 118.647 111.526L118.689 111.496L119.739 110.754L119.762 110.737C119.82 110.7 119.889 110.679 119.96 110.679C120.031 110.678 120.1 110.697 120.159 110.734C120.172 110.741 120.184 110.75 120.196 110.76L121.239 111.499L121.269 111.52C121.307 111.543 121.351 111.554 121.397 111.554C121.43 111.553 121.462 111.547 121.492 111.534C121.522 111.522 121.549 111.504 121.572 111.482C121.594 111.46 121.612 111.433 121.624 111.405C121.635 111.376 121.641 111.346 121.64 111.315C121.64 111.291 121.636 111.267 121.629 111.244C121.629 111.241 121.626 111.237 121.625 111.233L121.222 110.028C121.216 110.013 121.211 109.996 121.207 109.98C121.199 109.952 121.196 109.923 121.196 109.894C121.195 109.841 121.207 109.788 121.231 109.74C121.255 109.692 121.29 109.649 121.333 109.615C121.342 109.608 121.352 109.602 121.361 109.596L122.407 108.855L122.438 108.832C122.466 108.81 122.487 108.782 122.502 108.75C122.517 108.719 122.524 108.686 122.524 108.651C122.524 108.595 122.503 108.54 122.463 108.497C122.423 108.454 122.368 108.426 122.308 108.418Z" fill="#B8C4D0"/>
<path fill-rule="evenodd" clip-rule="evenodd" d="M120.008 106.785V110.681C119.992 110.679 119.976 110.679 119.96 110.679C119.889 110.679 119.82 110.7 119.762 110.737L119.739 110.754L118.689 111.496L118.647 111.526C118.61 111.546 118.568 111.557 118.525 111.557C118.492 111.556 118.46 111.55 118.43 111.537C118.4 111.525 118.373 111.507 118.35 111.485C118.327 111.463 118.31 111.436 118.298 111.408C118.286 111.379 118.281 111.349 118.282 111.318C118.282 111.295 118.285 111.272 118.292 111.25L118.295 111.241V111.237L118.696 110.036C118.704 110.017 118.711 109.998 118.715 109.978C118.732 109.908 118.727 109.835 118.7 109.768C118.673 109.701 118.626 109.643 118.564 109.601L117.505 108.851L117.494 108.843C117.464 108.82 117.44 108.791 117.423 108.759C117.406 108.726 117.398 108.69 117.398 108.654C117.397 108.598 117.418 108.543 117.456 108.5C117.494 108.457 117.548 108.428 117.607 108.418H118.969V108.416C119.044 108.415 119.117 108.393 119.179 108.352C119.24 108.312 119.286 108.255 119.311 108.189C119.316 108.177 119.32 108.164 119.323 108.152V108.15L119.727 106.947C119.74 106.901 119.769 106.86 119.809 106.83C119.849 106.8 119.899 106.783 119.95 106.781C119.969 106.78 119.989 106.782 120.008 106.785Z" fill="#B8C4D0"/>
<path d="M101.826 108.418H100.466V108.416C100.391 108.415 100.317 108.392 100.256 108.351C100.195 108.31 100.149 108.252 100.125 108.185C100.12 108.175 100.117 108.165 100.114 108.154L99.7146 106.96L99.7048 106.93C99.6877 106.885 99.6555 106.847 99.613 106.82C99.5705 106.793 99.5199 106.779 99.4685 106.781C99.4172 106.783 99.3679 106.8 99.3278 106.83C99.2877 106.86 99.259 106.901 99.2458 106.948L98.8419 108.15C98.8419 108.151 98.8419 108.151 98.8419 108.152C98.8387 108.165 98.8345 108.177 98.8295 108.189C98.8044 108.255 98.7582 108.312 98.6971 108.353C98.636 108.393 98.563 108.415 98.4879 108.416V108.419H97.1263C97.0671 108.428 97.0134 108.457 96.9751 108.5C96.9367 108.544 96.9161 108.598 96.9171 108.654C96.9169 108.69 96.9254 108.726 96.942 108.759C96.9586 108.792 96.983 108.821 97.0132 108.843L97.0243 108.852L98.0815 109.602C98.1317 109.635 98.1726 109.68 98.2006 109.731C98.2287 109.783 98.2432 109.84 98.2429 109.898C98.2427 109.924 98.2394 109.951 98.233 109.977C98.2284 109.997 98.2218 110.017 98.2134 110.036L97.8125 111.236V111.241L97.8095 111.25C97.803 111.272 97.7997 111.295 97.7997 111.318C97.7987 111.348 97.8043 111.379 97.816 111.407C97.8278 111.436 97.8455 111.462 97.8682 111.484C97.8908 111.507 97.918 111.524 97.9481 111.537C97.9782 111.549 98.0106 111.556 98.0435 111.556C98.0862 111.557 98.1281 111.546 98.1647 111.525L98.2074 111.496L99.2569 110.754L99.28 110.737C99.3382 110.699 99.4071 110.679 99.4779 110.678C99.5487 110.678 99.6181 110.697 99.677 110.733C99.69 110.741 99.7023 110.75 99.7138 110.759L100.757 111.499L100.787 111.52C100.825 111.542 100.87 111.554 100.915 111.554C100.948 111.553 100.98 111.546 101.01 111.534C101.04 111.521 101.067 111.504 101.09 111.481C101.112 111.459 101.13 111.433 101.142 111.404C101.154 111.376 101.159 111.345 101.158 111.315C101.158 111.291 101.155 111.267 101.147 111.244C101.147 111.24 101.145 111.236 101.144 111.232L100.741 110.028C100.734 110.012 100.729 109.996 100.725 109.98C100.708 109.914 100.711 109.845 100.734 109.781C100.757 109.716 100.798 109.659 100.853 109.615C100.862 109.608 100.872 109.602 100.881 109.596L101.927 108.855L101.958 108.832C101.986 108.809 102.007 108.782 102.022 108.75C102.037 108.719 102.044 108.686 102.044 108.651C102.044 108.595 102.022 108.54 101.982 108.497C101.942 108.454 101.887 108.426 101.826 108.418Z" fill="#B8C4D0"/>
<path d="M108.66 108.418H107.299V108.416C107.224 108.415 107.15 108.392 107.089 108.351C107.028 108.31 106.982 108.252 106.958 108.186C106.953 108.175 106.95 108.165 106.947 108.155L106.548 106.961L106.538 106.931C106.52 106.885 106.488 106.847 106.446 106.82C106.403 106.793 106.353 106.779 106.301 106.781C106.25 106.783 106.201 106.801 106.161 106.831C106.12 106.86 106.092 106.901 106.079 106.948L105.675 108.15C105.675 108.151 105.675 108.152 105.675 108.152C105.671 108.165 105.667 108.177 105.662 108.189C105.637 108.255 105.591 108.312 105.53 108.353C105.469 108.394 105.396 108.416 105.321 108.416V108.419H103.959C103.9 108.428 103.846 108.457 103.808 108.501C103.769 108.544 103.749 108.598 103.75 108.654C103.75 108.691 103.758 108.726 103.775 108.759C103.791 108.792 103.816 108.821 103.846 108.843L103.857 108.852L104.914 109.602C104.976 109.644 105.024 109.702 105.051 109.769C105.078 109.836 105.083 109.909 105.066 109.979C105.061 109.999 105.055 110.019 105.046 110.038L104.645 111.238V111.242L104.642 111.251C104.636 111.273 104.632 111.296 104.632 111.319C104.631 111.35 104.637 111.38 104.649 111.409C104.661 111.438 104.678 111.464 104.701 111.486C104.724 111.508 104.751 111.526 104.781 111.538C104.811 111.551 104.843 111.557 104.876 111.558C104.919 111.558 104.961 111.548 104.997 111.527L105.04 111.498L106.09 110.755L106.113 110.739C106.171 110.701 106.24 110.681 106.311 110.68C106.381 110.679 106.451 110.699 106.51 110.735C106.523 110.743 106.535 110.751 106.546 110.761L107.59 111.5L107.619 111.522C107.658 111.544 107.702 111.556 107.748 111.555C107.78 111.555 107.813 111.548 107.843 111.536C107.873 111.523 107.9 111.505 107.922 111.483C107.945 111.461 107.963 111.435 107.974 111.406C107.986 111.378 107.992 111.347 107.991 111.317C107.991 111.293 107.987 111.269 107.98 111.246C107.98 111.242 107.977 111.238 107.976 111.234L107.573 110.029C107.567 110.014 107.561 109.998 107.558 109.981C107.55 109.953 107.546 109.924 107.546 109.895C107.546 109.842 107.558 109.79 107.582 109.742C107.606 109.693 107.641 109.651 107.684 109.617C107.693 109.61 107.703 109.603 107.712 109.597L108.758 108.857L108.789 108.834C108.817 108.811 108.838 108.783 108.853 108.752C108.868 108.721 108.875 108.687 108.875 108.653C108.875 108.596 108.854 108.541 108.814 108.498C108.775 108.455 108.72 108.427 108.66 108.418Z" fill="#B8C4D0"/>
<path d="M115.49 108.418H114.129V108.416C114.054 108.415 113.981 108.392 113.919 108.351C113.858 108.31 113.812 108.252 113.788 108.186C113.784 108.175 113.78 108.165 113.777 108.155L113.378 106.961L113.368 106.931C113.351 106.885 113.318 106.847 113.276 106.82C113.233 106.793 113.183 106.779 113.131 106.781C113.08 106.783 113.031 106.801 112.991 106.831C112.951 106.86 112.922 106.901 112.909 106.948L112.505 108.15C112.505 108.15 112.505 108.15 112.505 108.152C112.501 108.165 112.497 108.177 112.492 108.189C112.467 108.255 112.421 108.312 112.36 108.353C112.299 108.394 112.226 108.416 112.151 108.416V108.419H110.789C110.73 108.428 110.676 108.457 110.638 108.501C110.6 108.544 110.579 108.598 110.58 108.654C110.58 108.691 110.588 108.727 110.605 108.759C110.621 108.792 110.646 108.821 110.676 108.843L110.687 108.852L111.744 109.602C111.806 109.644 111.854 109.702 111.881 109.769C111.908 109.836 111.913 109.909 111.896 109.979C111.891 109.999 111.885 110.019 111.876 110.038L111.475 111.238V111.242L111.472 111.251C111.466 111.273 111.463 111.296 111.463 111.319C111.462 111.35 111.467 111.38 111.479 111.409C111.491 111.438 111.508 111.464 111.531 111.486C111.554 111.508 111.581 111.526 111.611 111.538C111.641 111.551 111.673 111.557 111.706 111.558C111.749 111.558 111.791 111.548 111.828 111.527L111.87 111.498L112.92 110.755L112.943 110.739C113.001 110.701 113.07 110.681 113.141 110.68C113.212 110.679 113.281 110.699 113.34 110.735C113.353 110.743 113.365 110.751 113.377 110.761L114.42 111.5L114.45 111.522C114.488 111.544 114.532 111.556 114.578 111.555C114.61 111.555 114.643 111.548 114.673 111.536C114.703 111.523 114.73 111.505 114.753 111.483C114.775 111.461 114.793 111.435 114.805 111.406C114.816 111.378 114.822 111.347 114.821 111.317C114.821 111.293 114.817 111.269 114.81 111.246C114.81 111.242 114.807 111.238 114.806 111.234L114.404 110.029C114.397 110.014 114.392 109.998 114.388 109.981C114.381 109.953 114.377 109.924 114.377 109.895C114.377 109.842 114.389 109.79 114.413 109.742C114.436 109.693 114.471 109.651 114.515 109.617C114.524 109.61 114.533 109.603 114.543 109.597L115.588 108.857L115.62 108.834C115.648 108.811 115.669 108.783 115.684 108.752C115.699 108.721 115.706 108.687 115.706 108.653C115.706 108.596 115.685 108.541 115.645 108.498C115.605 108.455 115.55 108.427 115.49 108.418Z" fill="#B8C4D0"/>
<path d="M122.308 130.479H120.948V130.476C120.872 130.476 120.799 130.453 120.738 130.412C120.677 130.37 120.631 130.313 120.606 130.246C120.602 130.236 120.599 130.226 120.596 130.215L120.196 129.021L120.186 128.991C120.169 128.946 120.137 128.907 120.094 128.88C120.052 128.854 120.001 128.84 119.95 128.842C119.899 128.844 119.849 128.861 119.809 128.891C119.769 128.921 119.74 128.962 119.727 129.008L119.323 130.211C119.323 130.211 119.323 130.211 119.323 130.213C119.32 130.225 119.316 130.238 119.311 130.25C119.286 130.316 119.24 130.373 119.179 130.413C119.117 130.454 119.044 130.476 118.969 130.477V130.479H117.607C117.548 130.489 117.494 130.518 117.456 130.561C117.418 130.604 117.397 130.659 117.398 130.715C117.398 130.751 117.406 130.787 117.423 130.82C117.44 130.852 117.464 130.881 117.494 130.904L117.505 130.912L118.564 131.662C118.626 131.704 118.673 131.762 118.7 131.829C118.727 131.896 118.732 131.969 118.715 132.039C118.711 132.059 118.704 132.079 118.696 132.098L118.295 133.298V133.302L118.292 133.311C118.285 133.333 118.282 133.356 118.282 133.379C118.281 133.41 118.286 133.44 118.298 133.469C118.31 133.497 118.327 133.524 118.35 133.546C118.373 133.568 118.4 133.586 118.43 133.598C118.46 133.611 118.492 133.617 118.525 133.618C118.568 133.618 118.61 133.607 118.647 133.587L118.689 133.557L119.739 132.815L119.762 132.798C119.82 132.761 119.889 132.741 119.96 132.74C120.031 132.739 120.1 132.758 120.159 132.795C120.172 132.803 120.184 132.811 120.196 132.821L121.239 133.56L121.269 133.581C121.307 133.604 121.351 133.615 121.397 133.615C121.43 133.614 121.462 133.608 121.492 133.595C121.522 133.583 121.549 133.565 121.572 133.543C121.594 133.521 121.612 133.494 121.624 133.466C121.635 133.437 121.641 133.407 121.64 133.376C121.64 133.352 121.636 133.329 121.629 133.306C121.629 133.302 121.626 133.298 121.625 133.294L121.222 132.089C121.216 132.074 121.211 132.057 121.207 132.041C121.199 132.013 121.196 131.984 121.196 131.955C121.195 131.902 121.207 131.85 121.231 131.801C121.255 131.753 121.29 131.711 121.333 131.676C121.342 131.669 121.352 131.663 121.361 131.657L122.407 130.916L122.438 130.893C122.466 130.871 122.487 130.843 122.502 130.811C122.517 130.78 122.524 130.747 122.524 130.713C122.524 130.656 122.503 130.601 122.463 130.558C122.423 130.515 122.368 130.487 122.308 130.479Z" fill="#B8C4D0"/>
<path fill-rule="evenodd" clip-rule="evenodd" d="M120.008 128.846V132.742C119.992 132.741 119.976 132.74 119.96 132.74C119.889 132.741 119.82 132.761 119.762 132.798L119.739 132.815L118.689 133.557L118.647 133.587C118.61 133.607 118.568 133.618 118.525 133.618C118.492 133.617 118.46 133.611 118.43 133.598C118.4 133.586 118.373 133.568 118.35 133.546C118.327 133.524 118.31 133.497 118.298 133.469C118.286 133.44 118.281 133.41 118.282 133.379C118.282 133.356 118.285 133.333 118.292 133.311L118.295 133.302V133.298L118.696 132.098C118.704 132.079 118.711 132.059 118.715 132.039C118.732 131.969 118.727 131.896 118.7 131.829C118.673 131.762 118.626 131.704 118.564 131.662L117.505 130.912L117.494 130.904C117.464 130.881 117.44 130.852 117.423 130.82C117.406 130.787 117.398 130.751 117.398 130.715C117.397 130.659 117.418 130.604 117.456 130.561C117.494 130.518 117.548 130.489 117.607 130.479H118.969V130.477C119.044 130.476 119.117 130.454 119.179 130.413C119.24 130.373 119.286 130.316 119.311 130.25C119.316 130.238 119.32 130.225 119.323 130.213V130.211L119.727 129.008C119.74 128.962 119.769 128.921 119.809 128.891C119.849 128.861 119.899 128.844 119.95 128.842C119.969 128.841 119.989 128.843 120.008 128.846Z" fill="#B8C4D0"/>
<path d="M101.826 130.48H100.466V130.477C100.391 130.476 100.317 130.454 100.256 130.412C100.195 130.371 100.149 130.313 100.124 130.247C100.12 130.237 100.117 130.226 100.114 130.216L99.7146 129.022L99.7047 128.992C99.6876 128.947 99.6555 128.908 99.6129 128.881C99.5704 128.854 99.5198 128.841 99.4685 128.842C99.4171 128.844 99.3678 128.862 99.3277 128.892C99.2877 128.922 99.2589 128.963 99.2457 129.009L98.8418 130.211C98.8419 130.212 98.8419 130.213 98.8418 130.213C98.8386 130.226 98.8345 130.238 98.8295 130.25C98.8044 130.316 98.7581 130.373 98.697 130.414C98.6359 130.455 98.5629 130.477 98.4879 130.477V130.48H97.1263C97.067 130.489 97.0134 130.519 96.975 130.562C96.9366 130.605 96.9161 130.659 96.9171 130.715C96.9168 130.752 96.9253 130.787 96.9419 130.82C96.9586 130.853 96.9829 130.882 97.0131 130.905L97.0242 130.913L98.0814 131.663C98.1316 131.697 98.1725 131.741 98.2006 131.793C98.2286 131.844 98.2431 131.901 98.2428 131.959C98.2427 131.986 98.2394 132.012 98.233 132.038C98.2283 132.059 98.2218 132.078 98.2133 132.097L97.8124 133.298V133.302L97.8094 133.311C97.803 133.333 97.7997 133.356 97.7996 133.379C97.7986 133.409 97.8042 133.44 97.816 133.469C97.8277 133.497 97.8454 133.524 97.8681 133.546C97.8908 133.568 97.9179 133.586 97.948 133.598C97.9781 133.61 98.0105 133.617 98.0434 133.618C98.0861 133.618 98.1281 133.607 98.1647 133.587L98.2074 133.557L99.2568 132.815L99.2799 132.798C99.3381 132.761 99.4071 132.74 99.4779 132.739C99.5487 132.739 99.618 132.758 99.677 132.795C99.69 132.802 99.7022 132.811 99.7137 132.82L100.757 133.56L100.787 133.581C100.825 133.604 100.869 133.615 100.915 133.615C100.948 133.614 100.98 133.607 101.01 133.595C101.04 133.582 101.067 133.565 101.09 133.543C101.112 133.52 101.13 133.494 101.142 133.466C101.153 133.437 101.159 133.407 101.158 133.376C101.158 133.352 101.155 133.328 101.147 133.305C101.147 133.302 101.144 133.298 101.144 133.294L100.741 132.089C100.734 132.073 100.729 132.057 100.725 132.041C100.708 131.975 100.711 131.906 100.734 131.842C100.757 131.777 100.798 131.72 100.853 131.677C100.862 131.669 100.872 131.663 100.881 131.657L101.927 130.916L101.958 130.893C101.986 130.871 102.007 130.843 102.022 130.812C102.037 130.78 102.044 130.747 102.044 130.713C102.044 130.656 102.022 130.601 101.982 130.558C101.942 130.515 101.887 130.487 101.826 130.48Z" fill="#B8C4D0"/>
<path d="M108.66 130.479H107.299V130.476C107.224 130.475 107.15 130.453 107.089 130.411C107.028 130.37 106.982 130.312 106.958 130.246C106.953 130.236 106.95 130.225 106.947 130.215L106.548 129.021L106.538 128.991C106.52 128.946 106.488 128.907 106.446 128.88C106.403 128.853 106.353 128.84 106.301 128.841C106.25 128.843 106.201 128.861 106.161 128.891C106.12 128.921 106.092 128.962 106.079 129.008L105.675 130.21C105.675 130.211 105.675 130.212 105.675 130.212C105.671 130.225 105.667 130.237 105.662 130.249C105.637 130.315 105.591 130.372 105.53 130.413C105.469 130.454 105.396 130.476 105.321 130.476V130.479H103.959C103.9 130.489 103.846 130.518 103.808 130.561C103.769 130.604 103.749 130.658 103.75 130.714C103.75 130.751 103.758 130.786 103.775 130.819C103.791 130.852 103.816 130.881 103.846 130.904L103.857 130.912L104.914 131.662C104.976 131.704 105.024 131.762 105.051 131.829C105.078 131.896 105.083 131.969 105.066 132.039C105.061 132.059 105.055 132.079 105.046 132.098L104.645 133.298V133.303L104.642 133.311C104.636 133.334 104.632 133.357 104.632 133.38C104.631 133.41 104.637 133.441 104.649 133.469C104.661 133.498 104.678 133.524 104.701 133.546C104.724 133.569 104.751 133.586 104.781 133.599C104.811 133.611 104.843 133.618 104.876 133.618C104.919 133.618 104.961 133.608 104.997 133.587L105.04 133.558L106.09 132.816L106.113 132.799C106.171 132.761 106.24 132.741 106.311 132.74C106.381 132.74 106.451 132.759 106.51 132.795C106.523 132.803 106.535 132.811 106.546 132.821L107.59 133.56L107.619 133.582C107.658 133.604 107.702 133.616 107.748 133.615C107.78 133.615 107.813 133.608 107.843 133.596C107.873 133.583 107.9 133.565 107.922 133.543C107.945 133.521 107.963 133.495 107.974 133.466C107.986 133.438 107.992 133.407 107.991 133.377C107.991 133.353 107.987 133.329 107.98 133.306C107.98 133.302 107.977 133.298 107.976 133.294L107.573 132.09C107.567 132.074 107.561 132.058 107.558 132.041C107.55 132.013 107.546 131.984 107.546 131.955C107.546 131.902 107.558 131.85 107.582 131.802C107.606 131.754 107.641 131.711 107.684 131.677C107.693 131.67 107.703 131.663 107.712 131.657L108.758 130.917L108.789 130.894C108.817 130.871 108.838 130.843 108.853 130.812C108.868 130.781 108.875 130.747 108.875 130.713C108.875 130.656 108.854 130.601 108.814 130.558C108.775 130.515 108.72 130.487 108.66 130.479Z" fill="#B8C4D0"/>
<path d="M115.49 130.479H114.129V130.476C114.054 130.475 113.98 130.453 113.919 130.411C113.858 130.37 113.812 130.312 113.788 130.246C113.783 130.236 113.78 130.225 113.777 130.215L113.378 129.021L113.368 128.991C113.35 128.946 113.318 128.907 113.276 128.88C113.233 128.853 113.183 128.84 113.131 128.841C113.08 128.843 113.031 128.861 112.991 128.891C112.951 128.921 112.922 128.962 112.909 129.008L112.505 130.21C112.505 130.21 112.505 130.21 112.505 130.212C112.501 130.225 112.497 130.237 112.492 130.249C112.467 130.315 112.421 130.372 112.36 130.413C112.299 130.454 112.226 130.476 112.151 130.476V130.479H110.789C110.73 130.489 110.676 130.518 110.638 130.561C110.599 130.604 110.579 130.658 110.58 130.714C110.58 130.751 110.588 130.787 110.605 130.819C110.621 130.852 110.646 130.881 110.676 130.904L110.687 130.912L111.744 131.662C111.806 131.704 111.854 131.762 111.881 131.829C111.908 131.896 111.913 131.969 111.896 132.039C111.891 132.059 111.885 132.079 111.876 132.098L111.475 133.298V133.303L111.472 133.311C111.466 133.334 111.462 133.357 111.462 133.38C111.461 133.41 111.467 133.441 111.479 133.469C111.491 133.498 111.508 133.524 111.531 133.546C111.554 133.569 111.581 133.586 111.611 133.599C111.641 133.611 111.673 133.618 111.706 133.618C111.749 133.618 111.791 133.608 111.828 133.587L111.87 133.558L112.92 132.816L112.943 132.799C113.001 132.761 113.07 132.741 113.141 132.74C113.211 132.74 113.281 132.759 113.34 132.795C113.353 132.803 113.365 132.811 113.377 132.821L114.42 133.56L114.449 133.582C114.488 133.604 114.532 133.616 114.578 133.615C114.61 133.615 114.643 133.608 114.673 133.596C114.703 133.583 114.73 133.565 114.752 133.543C114.775 133.521 114.793 133.495 114.805 133.466C114.816 133.438 114.822 133.407 114.821 133.377C114.821 133.353 114.817 133.329 114.81 133.306C114.81 133.302 114.807 133.298 114.806 133.294L114.404 132.09C114.397 132.074 114.392 132.058 114.388 132.041C114.381 132.013 114.377 131.984 114.377 131.955C114.377 131.902 114.389 131.85 114.412 131.802C114.436 131.754 114.471 131.711 114.515 131.677C114.524 131.67 114.533 131.663 114.543 131.657L115.588 130.917L115.62 130.894C115.647 130.871 115.669 130.843 115.684 130.812C115.699 130.781 115.706 130.747 115.706 130.713C115.706 130.656 115.685 130.601 115.645 130.558C115.605 130.515 115.55 130.487 115.49 130.479Z" fill="#B8C4D0"/>
<path fill-rule="evenodd" clip-rule="evenodd" d="M141.981 88.2431C141.981 87.3887 142.673 86.696 143.527 86.696H148.162C149.016 86.696 149.708 87.3887 149.708 88.2431C149.708 89.0975 149.016 89.7902 148.162 89.7902H143.527C142.673 89.7902 141.981 89.0975 141.981 88.2431Z" fill="#7879F1"/>
<path d="M138.118 89.336C138.118 88.5246 137.632 87.9898 136.859 87.6579L136.258 87.409L136.296 85.9337C136.649 85.9798 137.088 86.2011 137.412 86.5515L138.004 85.6387C137.622 85.1961 136.973 84.9379 136.401 84.8918L136.411 84.3755H135.724L135.705 84.8734C135.19 84.9195 134.694 85.0762 134.369 85.3528C134.016 85.6479 133.74 86.0812 133.74 86.6898C133.74 87.4458 134.198 87.8515 134.407 88.0083C134.617 88.1742 134.903 88.3125 135.266 88.4601L135.59 88.5891L135.562 90.1289C135.151 90.1197 134.465 89.797 134.188 89.3729L133.482 90.2949C133.959 90.8758 134.741 91.2077 135.457 91.2354L135.438 91.724H136.124L136.143 91.2169C136.506 91.1893 137.05 91.0141 137.384 90.7559C137.756 90.4701 138.118 89.9906 138.118 89.336ZM135.695 85.9245L135.667 87.2061L135.562 87.16C135.323 87.0494 135.075 86.8834 135.075 86.5422C135.075 86.1827 135.333 85.9522 135.695 85.9245ZM136.802 89.5112C136.802 89.8708 136.458 90.1197 136.163 90.1474L136.191 88.7736L136.344 88.8473C136.63 88.9856 136.802 89.1608 136.802 89.5112Z" fill="#7879F1"/>
<path fill-rule="evenodd" clip-rule="evenodd" d="M141.981 109.488C141.981 108.633 142.673 107.941 143.526 107.941H153.571C154.424 107.941 155.116 108.633 155.116 109.488C155.116 110.342 154.424 111.035 153.571 111.035H143.526C142.673 111.035 141.981 110.342 141.981 109.488Z" fill="#76A5FF"/>
<path d="M138.118 110.58C138.118 109.769 137.632 109.234 136.859 108.902L136.258 108.653L136.296 107.178C136.649 107.224 137.088 107.446 137.412 107.796L138.004 106.883C137.622 106.441 136.973 106.182 136.401 106.136L136.411 105.62H135.724L135.705 106.118C135.19 106.164 134.694 106.321 134.369 106.597C134.016 106.892 133.74 107.326 133.74 107.934C133.74 108.69 134.198 109.096 134.407 109.253C134.617 109.419 134.903 109.557 135.266 109.705L135.59 109.834L135.562 111.373C135.151 111.364 134.465 111.042 134.188 110.617L133.482 111.539C133.959 112.12 134.741 112.452 135.457 112.48L135.438 112.969H136.124L136.143 112.461C136.506 112.434 137.05 112.259 137.384 112C137.756 111.715 138.118 111.235 138.118 110.58ZM135.695 107.169L135.667 108.451L135.562 108.405C135.323 108.294 135.075 108.128 135.075 107.787C135.075 107.427 135.333 107.197 135.695 107.169ZM136.802 110.756C136.802 111.115 136.458 111.364 136.163 111.392L136.191 110.018L136.344 110.092C136.63 110.23 136.802 110.405 136.802 110.756Z" fill="#76A5FF"/>
<path fill-rule="evenodd" clip-rule="evenodd" d="M141.981 131.55C141.981 130.695 142.673 130.003 143.526 130.003H151.8C152.654 130.003 153.345 130.695 153.345 131.55C153.345 132.404 152.654 133.097 151.8 133.097H143.526C142.673 133.097 141.981 132.404 141.981 131.55Z" fill="#F9C400"/>
<path d="M138.118 132.642C138.118 131.831 137.632 131.296 136.859 130.964L136.258 130.715L136.296 129.24C136.649 129.286 137.088 129.507 137.412 129.858L138.004 128.945C137.622 128.502 136.973 128.244 136.401 128.198L136.411 127.682H135.724L135.705 128.18C135.19 128.226 134.694 128.383 134.369 128.659C134.016 128.954 133.74 129.388 133.74 129.996C133.74 130.752 134.198 131.158 134.407 131.315C134.617 131.481 134.903 131.619 135.266 131.766L135.59 131.896L135.562 133.435C135.151 133.426 134.465 133.103 134.188 132.679L133.482 133.601C133.959 134.182 134.741 134.514 135.457 134.542L135.438 135.03H136.124L136.143 134.523C136.506 134.496 137.05 134.32 137.384 134.062C137.756 133.776 138.118 133.297 138.118 132.642ZM135.695 129.231L135.667 130.513L135.562 130.466C135.323 130.356 135.075 130.19 135.075 129.849C135.075 129.489 135.333 129.259 135.695 129.231ZM136.802 132.818C136.802 133.177 136.458 133.426 136.163 133.454L136.191 132.08L136.344 132.154C136.63 132.292 136.802 132.467 136.802 132.818Z" fill="#F9C400"/>
<path fill-rule="evenodd" clip-rule="evenodd" d="M42.9958 87.8563C42.9958 87.0019 43.6877 86.3092 44.5411 86.3092H49.9304C50.7838 86.3092 51.4757 87.0019 51.4757 87.8563C51.4757 88.7107 50.7838 89.4034 49.9304 89.4034H44.5411C43.6877 89.4034 42.9958 88.7107 42.9958 87.8563Z" fill="#B8C4D0"/>
<path d="M39.1316 87.479V86.5472H38.2593L38.6082 84.7619H37.5615L37.2125 86.5472H36.2094L36.5583 84.7619H35.5115L35.1626 86.5472H34.046V87.479H34.9881L34.77 88.6111H33.7232V89.5516H34.5956L34.2466 91.3369H35.2934L35.6423 89.5516H36.6455L36.2966 91.3369H37.3434L37.6923 89.5516H38.8002V88.6111H37.8668L38.0848 87.479H39.1316ZM37.0381 87.479L36.82 88.6111H35.8168L36.0349 87.479H37.0381Z" fill="#B8C4D0"/>
<path fill-rule="evenodd" clip-rule="evenodd" d="M42.9958 109.101C42.9958 108.247 43.6877 107.554 44.5411 107.554H53.9287C54.7821 107.554 55.474 108.247 55.474 109.101C55.474 109.955 54.7821 110.648 53.9287 110.648H44.5411C43.6877 110.648 42.9958 109.955 42.9958 109.101Z" fill="#B8C4D0"/>
<path d="M39.1316 108.724V107.792H38.2593L38.6082 106.006H37.5615L37.2125 107.792H36.2094L36.5583 106.006H35.5115L35.1626 107.792H34.046V108.724H34.9881L34.77 109.856H33.7232V110.796H34.5956L34.2466 112.582H35.2934L35.6423 110.796H36.6455L36.2966 112.582H37.3434L37.6923 110.796H38.8002V109.856H37.8668L38.0848 108.724H39.1316ZM37.0381 108.724L36.82 109.856H35.8168L36.0349 108.724H37.0381Z" fill="#B8C4D0"/>
<path fill-rule="evenodd" clip-rule="evenodd" d="M42.9958 131.551C42.9958 130.696 43.6877 130.004 44.5411 130.004H49.5632C50.4166 130.004 51.1084 130.696 51.1084 131.551C51.1084 132.405 50.4166 133.098 49.5632 133.098H44.5411C43.6877 133.098 42.9958 132.405 42.9958 131.551Z" fill="#B8C4D0"/>
<path d="M39.1316 131.173V130.241H38.2593L38.6082 128.456H37.5615L37.2125 130.241H36.2094L36.5583 128.456H35.5115L35.1626 130.241H34.046V131.173H34.9881L34.77 132.305H33.7232V133.246H34.5956L34.2466 135.031H35.2934L35.6423 133.246H36.6455L36.2966 135.031H37.3434L37.6923 133.246H38.8002V132.305H37.8668L38.0848 131.173H39.1316ZM37.0381 131.173L36.82 132.305H35.8168L36.0349 131.173H37.0381Z" fill="#B8C4D0"/>
<path fill-rule="evenodd" clip-rule="evenodd" d="M64.2159 109.101C64.2159 108.247 64.9077 107.554 65.7612 107.554L71.9422 107.554C72.7956 107.554 73.4875 108.247 73.4875 109.101C73.4875 109.956 72.7956 110.648 71.9422 110.648L65.7612 110.648C64.9077 110.648 64.2159 109.956 64.2159 109.101Z" fill="#B8C4D0"/>
<path d="M76.2017 109.241C76.2017 109.019 76.0368 108.883 75.8131 108.883C75.5835 108.883 75.4187 109.019 75.4187 109.241C75.4187 109.456 75.5835 109.592 75.8131 109.592C76.0368 109.592 76.2017 109.456 76.2017 109.241Z" fill="#B8C4D0"/>
<path d="M77.7547 105.955C77.7547 105.762 77.6016 105.62 77.3897 105.62C77.1718 105.62 77.0187 105.762 77.0187 105.955C77.0187 106.148 77.1718 106.29 77.3897 106.29C77.6016 106.29 77.7547 106.148 77.7547 105.955ZM77.6722 109.541V106.84H77.1071V109.524C77.1071 109.899 77.0717 110.211 76.7067 110.211C76.5595 110.211 76.4418 110.171 76.4418 110.171L76.4359 110.603C76.4359 110.603 76.5595 110.648 76.7891 110.648C77.4897 110.648 77.6722 110.115 77.6722 109.541Z" fill="#B8C4D0"/>
<path d="M81.395 108.185C81.395 107.385 80.871 106.789 80.0468 106.789C79.6347 106.789 79.2991 106.948 79.0518 107.266H79.0401V106.84H78.4984V110.591H79.0636V109.11L79.0695 109.116C79.2697 109.417 79.5935 109.598 80.035 109.598C80.8652 109.598 81.395 108.985 81.395 108.185ZM80.8181 108.179C80.8181 108.719 80.4884 109.133 79.9291 109.133C79.3698 109.133 79.0401 108.719 79.0401 108.179C79.0401 107.64 79.3698 107.232 79.9291 107.232C80.4884 107.232 80.8181 107.64 80.8181 108.179Z" fill="#B8C4D0"/>
<path d="M84.6902 108.968V106.84H84.1309L84.1368 107.266H84.1192C83.9543 107.016 83.6305 106.789 83.1418 106.789C82.4236 106.789 81.7936 107.288 81.7936 108.145C81.7936 109.002 82.4236 109.502 83.1418 109.502C83.6128 109.502 83.9308 109.292 84.1192 109.019H84.1309V109.156C84.1309 109.791 83.866 110.205 83.1536 110.205C82.7356 110.205 82.2999 109.99 82.1528 109.865L81.8878 110.245C81.9702 110.302 82.4471 110.648 83.136 110.648C83.8307 110.648 84.178 110.376 84.3841 110.132C84.5901 109.893 84.6902 109.564 84.6902 108.968ZM84.1486 108.145C84.1486 108.656 83.8366 109.059 83.2596 109.059C82.6885 109.059 82.3706 108.656 82.3706 108.145C82.3706 107.635 82.6885 107.226 83.2596 107.226C83.8366 107.226 84.1486 107.635 84.1486 108.145Z" fill="#B8C4D0"/>
<path fill-rule="evenodd" clip-rule="evenodd" d="M64.2159 131.551C64.2159 130.696 64.9077 130.004 65.7612 130.004L77.737 130.004C78.5904 130.004 79.2822 130.696 79.2822 131.551C79.2822 132.405 78.5904 133.098 77.737 133.098L65.7612 133.098C64.9077 133.098 64.2159 132.405 64.2159 131.551Z" fill="#B8C4D0"/>
<path d="M81.9979 131.69C81.9979 131.469 81.833 131.333 81.6093 131.333C81.3797 131.333 81.2149 131.469 81.2149 131.69C81.2149 131.906 81.3797 132.042 81.6093 132.042C81.833 132.042 81.9979 131.906 81.9979 131.69Z" fill="#B8C4D0"/>
<path d="M83.5509 128.405C83.5509 128.212 83.3978 128.07 83.1859 128.07C82.968 128.07 82.8149 128.212 82.8149 128.405C82.8149 128.598 82.968 128.739 83.1859 128.739C83.3978 128.739 83.5509 128.598 83.5509 128.405ZM83.4685 131.991V129.29H82.9033V131.974C82.9033 132.349 82.8679 132.661 82.5029 132.661C82.3557 132.661 82.238 132.621 82.238 132.621L82.2321 133.052C82.2321 133.052 82.3557 133.098 82.5853 133.098C83.2859 133.098 83.4685 132.564 83.4685 131.991Z" fill="#B8C4D0"/>
<path d="M87.1912 130.635C87.1912 129.835 86.6673 129.239 85.843 129.239C85.4309 129.239 85.0953 129.398 84.848 129.715H84.8363V129.29H84.2946V133.041H84.8598V131.56L84.8657 131.566C85.0659 131.866 85.3897 132.048 85.8312 132.048C86.6614 132.048 87.1912 131.435 87.1912 130.635ZM86.6143 130.629C86.6143 131.168 86.2846 131.583 85.7253 131.583C85.166 131.583 84.8363 131.168 84.8363 130.629C84.8363 130.09 85.166 129.681 85.7253 129.681C86.2846 129.681 86.6143 130.09 86.6143 130.629Z" fill="#B8C4D0"/>
<path d="M90.4864 131.418V129.29H89.9271L89.933 129.715H89.9154C89.7505 129.466 89.4267 129.239 88.938 129.239C88.2198 129.239 87.5898 129.738 87.5898 130.595C87.5898 131.452 88.2198 131.951 88.938 131.951C89.409 131.951 89.727 131.741 89.9154 131.469H89.9271V131.605C89.9271 132.241 89.6622 132.655 88.9498 132.655C88.5318 132.655 88.0961 132.439 87.949 132.315L87.684 132.695C87.7665 132.752 88.2433 133.098 88.9322 133.098C89.6269 133.098 89.9742 132.825 90.1803 132.581C90.3864 132.343 90.4864 132.014 90.4864 131.418ZM89.9448 130.595C89.9448 131.106 89.6328 131.509 89.0558 131.509C88.4847 131.509 88.1668 131.106 88.1668 130.595C88.1668 130.084 88.4847 129.676 89.0558 129.676C89.6328 129.676 89.9448 130.084 89.9448 130.595Z" fill="#B8C4D0"/>
<path fill-rule="evenodd" clip-rule="evenodd" d="M64.2159 87.8564C64.2159 87.002 64.9077 86.3093 65.7612 86.3093L71.9422 86.3093C72.7956 86.3093 73.4875 87.002 73.4875 87.8564C73.4875 88.7108 72.7956 89.4035 71.9422 89.4035L65.7612 89.4035C64.9077 89.4035 64.2159 88.7108 64.2159 87.8564Z" fill="#B8C4D0"/>
<path d="M76.2114 88.5008C76.2114 88.2681 76.0445 88.1248 75.818 88.1248C75.5856 88.1248 75.4187 88.2681 75.4187 88.5008C75.4187 88.7276 75.5856 88.8708 75.818 88.8708C76.0445 88.8708 76.2114 88.7276 76.2114 88.5008Z" fill="#B8C4D0"/>
<path d="M80.0608 87.3908C80.0608 86.5494 79.5303 85.9228 78.6958 85.9228C78.2785 85.9228 77.9387 86.0899 77.6884 86.4241H77.6765V85.9765H77.1281V89.9211H77.7003V88.3635L77.7063 88.3695C77.9089 88.6858 78.2368 88.8768 78.6838 88.8768C79.5243 88.8768 80.0608 88.2323 80.0608 87.3908ZM79.4766 87.3849C79.4766 87.9518 79.1428 88.3874 78.5765 88.3874C78.0103 88.3874 77.6765 87.9518 77.6765 87.3849C77.6765 86.8179 78.0103 86.3883 78.5765 86.3883C79.1428 86.3883 79.4766 86.8179 79.4766 87.3849Z" fill="#B8C4D0"/>
<path d="M83.1169 88.8111V87.1342C83.1169 86.4539 82.9082 85.9228 82.1035 85.9228C81.6922 85.9228 81.3882 86.1436 81.2392 86.4241H81.2213L81.2273 85.9765H80.6551V88.8111H81.2273V87.3849C81.2273 86.8418 81.424 86.3942 81.9545 86.3942C82.4612 86.3942 82.5446 86.7523 82.5446 87.2297V88.8111H83.1169Z" fill="#B8C4D0"/>
<path d="M86.6219 88.2143V85.9765H86.0556L86.0615 86.4241H86.0437C85.8768 86.1615 85.5489 85.9228 85.0542 85.9228C84.327 85.9228 83.6892 86.4479 83.6892 87.349C83.6892 88.2502 84.327 88.7753 85.0542 88.7753C85.531 88.7753 85.8529 88.5545 86.0437 88.2681H86.0556V88.4113C86.0556 89.0797 85.7874 89.5153 85.0661 89.5153C84.6429 89.5153 84.2018 89.2885 84.0528 89.1572L83.7845 89.5571C83.868 89.6167 84.3508 89.9808 85.0482 89.9808C85.7516 89.9808 86.1033 89.6943 86.3119 89.4377C86.5205 89.1871 86.6219 88.8409 86.6219 88.2143ZM86.0735 87.349C86.0735 87.8861 85.7575 88.3098 85.1734 88.3098C84.5952 88.3098 84.2733 87.8861 84.2733 87.349C84.2733 86.812 84.5952 86.3823 85.1734 86.3823C85.7575 86.3823 86.0735 86.812 86.0735 87.349Z" fill="#B8C4D0"/>
<path d="M28 57.4046C28 55.5243 29.4131 54 31.1563 54H161.51C163.253 54 164.666 55.5243 164.666 57.4046V65.8025H28V57.4046Z" fill="#4B825D"/>
<path d="M41.8206 59.9012C41.8206 61.287 40.6765 62.4303 39.2897 62.4303C37.9029 62.4303 36.7588 61.287 36.7588 59.9012C36.7588 58.5154 37.9029 57.3721 39.2897 57.3721C40.6765 57.3721 41.8206 58.5154 41.8206 59.9012Z" fill="#F66058"/>
<path d="M51.9441 59.9012C51.9441 61.287 50.8 62.4303 49.4133 62.4303C48.0265 62.4303 46.8824 61.287 46.8824 59.9012C46.8824 58.5154 48.0265 57.3721 49.4133 57.3721C50.8347 57.3721 51.9441 58.5154 51.9441 59.9012Z" fill="#F9BD2E"/>
<path d="M62.0677 59.9012C62.0677 61.287 60.9236 62.4303 59.5368 62.4303C58.1501 62.4303 57.006 61.287 57.006 59.9012C57.006 58.5154 58.1501 57.3721 59.5368 57.3721C60.9236 57.3721 62.0677 58.5154 62.0677 59.9012Z" fill="#3CC840"/>
<defs>
<filter id="filter0_d_18741_43088" x="0.548584" y="68" width="69.8412" height="50.7394" filterUnits="userSpaceOnUse" color-interpolation-filters="sRGB">
<feFlood flood-opacity="0" result="BackgroundImageFix"/>
<feColorMatrix in="SourceAlpha" type="matrix" values="0 0 0 0 0 0 0 0 0 0 0 0 0 0 0 0 0 0 127 0" result="hardAlpha"/>
<feOffset dy="1"/>
<feGaussianBlur stdDeviation="1.5"/>
<feComposite in2="hardAlpha" operator="out"/>
<feColorMatrix type="matrix" values="0 0 0 0 0.0354167 0 0 0 0 0.105426 0 0 0 0 0.2125 0 0 0 0.04 0"/>
<feBlend mode="normal" in2="BackgroundImageFix" result="effect1_dropShadow_18741_43088"/>
<feBlend mode="normal" in="SourceGraphic" in2="effect1_dropShadow_18741_43088" result="shape"/>
</filter>
<filter id="filter1_d_18741_43088" x="38.5826" y="18" width="77.2834" height="62.5375" filterUnits="userSpaceOnUse" color-interpolation-filters="sRGB">
<feFlood flood-opacity="0" result="BackgroundImageFix"/>
<feColorMatrix in="SourceAlpha" type="matrix" values="0 0 0 0 0 0 0 0 0 0 0 0 0 0 0 0 0 0 127 0" result="hardAlpha"/>
<feOffset dy="1"/>
<feGaussianBlur stdDeviation="7"/>
<feComposite in2="hardAlpha" operator="out"/>
<feColorMatrix type="matrix" values="0 0 0 0 0.0354167 0 0 0 0 0.105426 0 0 0 0 0.2125 0 0 0 0.04 0"/>
<feBlend mode="normal" in2="BackgroundImageFix" result="effect1_dropShadow_18741_43088"/>
<feBlend mode="normal" in="SourceGraphic" in2="effect1_dropShadow_18741_43088" result="shape"/>
</filter>
<filter id="filter2_d_18741_43088" x="113.627" y="21" width="69.553" height="50.5375" filterUnits="userSpaceOnUse" color-interpolation-filters="sRGB">
<feFlood flood-opacity="0" result="BackgroundImageFix"/>
<feColorMatrix in="SourceAlpha" type="matrix" values="0 0 0 0 0 0 0 0 0 0 0 0 0 0 0 0 0 0 127 0" result="hardAlpha"/>
<feOffset dy="1"/>
<feGaussianBlur stdDeviation="1.5"/>
<feComposite in2="hardAlpha" operator="out"/>
<feColorMatrix type="matrix" values="0 0 0 0 0.0354167 0 0 0 0 0.105426 0 0 0 0 0.2125 0 0 0 0.04 0"/>
<feBlend mode="normal" in2="BackgroundImageFix" result="effect1_dropShadow_18741_43088"/>
<feBlend mode="normal" in="SourceGraphic" in2="effect1_dropShadow_18741_43088" result="shape"/>
</filter>
<filter id="filter3_d_18741_43088" x="14" y="48.5763" width="164.552" height="108.825" filterUnits="userSpaceOnUse" color-interpolation-filters="sRGB">
<feFlood flood-opacity="0" result="BackgroundImageFix"/>
<feColorMatrix in="SourceAlpha" type="matrix" values="0 0 0 0 0 0 0 0 0 0 0 0 0 0 0 0 0 0 127 0" result="hardAlpha"/>
<feOffset dy="1"/>
<feGaussianBlur stdDeviation="7"/>
<feComposite in2="hardAlpha" operator="out"/>
<feColorMatrix type="matrix" values="0 0 0 0 0.0354167 0 0 0 0 0.105426 0 0 0 0 0.2125 0 0 0 0.04 0"/>
<feBlend mode="normal" in2="BackgroundImageFix" result="effect1_dropShadow_18741_43088"/>
<feBlend mode="normal" in="SourceGraphic" in2="effect1_dropShadow_18741_43088" result="shape"/>
</filter>
</defs>
</svg>
